<?xml version="1.0" encoding="UTF-8" ?>
<!DOCTYPE svg PUBLIC "-//W3C//DTD SVG 1.1//EN" "http://www.w3.org/Graphics/SVG/1.1/DTD/svg11.dtd">
<svg width="226pt" height="226pt" viewBox="0 0 226 226" version="1.1" xmlns="http://www.w3.org/2000/svg">
<g id="#f4e4c3fb">
<path fill="#f4e4c3" opacity="1.00" d=" M 133.46 8.87 C 136.67 7.23 140.07 4.75 143.88 5.91 C 147.83 6.78 148.53 11.59 148.25 14.97 C 147.53 18.85 147.40 22.78 147.39 26.72 C 145.27 26.05 143.17 25.37 141.07 24.67 C 138.56 28.43 136.27 32.34 134.23 36.37 C 134.83 36.62 136.01 37.12 136.60 37.37 C 138.94 38.38 141.23 39.56 143.40 40.91 C 140.16 42.59 136.83 44.09 133.38 45.28 C 129.90 42.88 126.27 40.29 121.95 39.80 C 115.43 39.06 108.33 40.07 103.18 44.44 C 112.45 43.88 122.54 40.87 131.09 46.07 C 130.72 47.46 130.37 48.85 130.00 50.25 C 130.30 50.43 130.90 50.79 131.19 50.97 C 134.41 53.90 138.64 54.90 142.90 54.83 C 140.27 58.24 137.80 61.78 135.51 65.43 C 132.99 58.48 125.71 55.74 119.30 53.53 C 109.74 50.29 99.41 51.59 89.74 53.64 C 84.30 54.64 78.93 56.22 74.04 58.86 C 72.22 59.59 70.35 60.21 68.49 60.84 C 68.67 59.31 68.43 57.62 69.17 56.22 C 71.83 53.75 75.41 52.65 78.63 51.14 C 78.53 50.61 78.32 49.55 78.22 49.02 C 80.08 48.87 81.95 48.81 83.82 48.72 C 84.21 47.37 84.56 45.72 86.21 45.41 C 93.76 42.57 101.61 40.16 108.19 35.31 C 115.85 33.24 123.90 34.15 131.35 36.60 C 133.60 32.75 136.01 28.66 135.73 24.03 C 135.98 18.85 134.05 13.96 133.46 8.87 Z" />
<path fill="#f4e4c3" opacity="1.00" d=" M 71.75 48.26 C 69.08 46.92 70.70 43.75 71.50 41.73 C 71.70 43.90 71.79 46.08 71.75 48.26 Z" />
<path fill="#f4e4c3" opacity="1.00" d=" M 77.56 45.08 C 78.52 43.74 80.74 45.38 79.68 46.67 C 78.72 48.00 76.51 46.36 77.56 45.08 Z" />
<path fill="#f4e4c3" opacity="1.00" d=" M 93.87 56.02 C 102.10 53.55 110.54 55.58 118.80 56.60 C 123.61 57.33 127.89 59.99 131.28 63.39 C 129.95 63.92 128.62 64.44 127.28 64.95 C 126.41 64.42 125.54 63.88 124.67 63.34 C 122.73 64.59 120.78 65.83 118.83 67.06 C 116.83 64.78 115.30 61.87 112.64 60.30 C 102.73 58.55 92.90 61.86 83.09 62.91 C 82.70 61.72 82.31 60.53 81.93 59.34 C 85.82 57.94 89.80 56.79 93.87 56.02 Z" />
<path fill="#f4e4c3" opacity="1.00" d=" M 76.95 60.41 C 77.54 59.96 78.72 59.06 79.31 58.61 C 81.41 60.99 81.39 64.46 78.99 66.63 C 77.36 64.94 77.08 62.64 76.95 60.41 Z" />
<path fill="#f4e4c3" opacity="1.00" d=" M 163.22 72.23 C 169.56 72.94 175.75 74.49 181.94 75.94 C 184.84 76.57 187.68 77.44 190.49 78.39 C 190.44 79.09 190.34 80.49 190.29 81.19 C 186.71 80.44 183.13 79.65 179.57 78.80 C 174.21 77.52 168.76 76.66 163.35 75.63 C 163.30 74.50 163.26 73.36 163.22 72.23 Z" />
<path fill="#f4e4c3" opacity="1.00" d=" M 105.82 77.66 C 107.22 77.42 108.63 77.18 110.04 76.96 C 108.44 78.06 106.80 79.11 105.15 80.12 C 105.31 79.51 105.65 78.27 105.82 77.66 Z" />
<path fill="#f4e4c3" opacity="1.00" d=" M 116.79 84.13 C 117.56 81.00 119.91 78.88 122.69 77.47 C 123.21 78.11 124.24 79.39 124.76 80.03 C 122.32 81.78 119.65 83.18 116.79 84.13 Z" />
<path fill="#f4e4c3" opacity="1.00" d=" M 107.74 81.99 C 108.22 81.77 109.17 81.31 109.65 81.09 C 111.57 84.63 112.98 88.42 113.81 92.37 C 106.50 92.60 99.36 90.46 92.06 90.58 C 85.30 90.30 78.41 93.07 71.83 90.47 C 73.80 88.09 75.43 83.78 79.20 84.32 C 86.78 85.14 94.43 85.46 102.04 84.95 C 104.28 84.82 105.90 83.08 107.74 81.99 Z" />
<path fill="#f4e4c3" opacity="1.00" d=" M 116.16 87.19 C 116.85 87.21 118.22 87.23 118.90 87.24 C 118.77 89.24 118.63 91.25 118.49 93.25 C 117.92 93.43 116.79 93.80 116.22 93.98 C 116.19 91.71 116.17 89.45 116.16 87.19 Z" />
<path fill="#f4e4c3" opacity="1.00" d=" M 86.83 93.40 C 98.58 91.37 110.29 95.03 122.04 95.26 C 121.72 95.68 121.08 96.52 120.76 96.95 C 109.35 96.65 98.27 93.33 86.83 93.40 Z" />
<path fill="#f4e4c3" opacity="1.00" d=" M 46.76 115.88 C 50.15 117.29 53.52 118.75 56.89 120.22 L 57.18 120.50 C 57.31 120.63 57.56 120.87 57.69 121.00 L 58.47 121.78 C 58.63 121.91 58.96 122.17 59.12 122.29 C 59.24 122.35 59.47 122.47 59.59 122.53 C 61.74 123.53 63.85 124.73 66.20 125.22 C 69.71 125.71 73.09 124.41 76.29 123.16 C 77.60 123.72 78.92 124.27 80.19 124.90 C 77.81 126.98 75.47 129.14 73.54 131.67 C 69.04 131.59 64.07 132.55 60.03 130.00 C 54.67 127.13 50.79 122.36 46.29 118.40 C 46.40 117.77 46.64 116.51 46.76 115.88 Z" />
<path fill="#f4e4c3" opacity="1.00" d=" M 114.17 120.94 C 115.61 120.28 116.32 122.67 114.88 123.08 C 113.45 123.73 112.74 121.35 114.17 120.94 Z" />
<path fill="#f4e4c3" opacity="1.00" d=" M 126.45 121.35 C 128.59 121.17 130.68 121.82 132.75 122.25 C 131.53 123.78 131.04 126.54 128.74 126.73 C 126.69 126.84 124.78 125.85 122.85 125.28 C 124.00 123.94 124.99 122.39 126.45 121.35 Z" />
<path fill="#f4e4c3" opacity="1.00" d=" M 77.78 135.66 C 78.73 131.94 81.22 129.01 84.85 127.68 C 86.40 128.71 87.95 129.75 89.44 130.86 C 88.72 132.43 88.00 134.00 87.29 135.57 C 84.12 135.69 80.95 135.72 77.78 135.66 Z" />
<path fill="#f4e4c3" opacity="1.00" d=" M 83.19 153.18 C 89.94 153.44 96.63 154.62 103.12 156.46 C 102.30 159.57 99.36 161.84 96.13 161.72 C 94.19 161.14 92.54 159.93 90.83 158.91 C 89.47 160.26 88.13 161.62 86.78 162.98 C 85.67 161.87 84.44 160.82 83.61 159.47 C 83.14 157.41 83.25 155.28 83.19 153.18 Z" />
<path fill="#f4e4c3" opacity="1.00" d=" M 63.02 175.15 C 65.78 175.22 68.83 175.20 71.13 176.96 C 73.44 178.76 75.17 181.16 77.05 183.37 C 75.16 184.68 73.10 185.69 71.02 186.67 C 70.77 186.28 70.27 185.51 70.02 185.12 C 67.92 181.37 64.75 178.43 61.59 175.58 C 61.94 175.47 62.66 175.25 63.02 175.15 Z" />
</g>
<g id="#bda137fe">
<path fill="#bda137" opacity="1.00" d=" M 95.40 25.07 C 102.87 22.01 110.98 20.96 119.00 21.21 C 124.57 21.46 130.65 20.33 135.69 23.33 L 135.73 24.03 C 136.01 28.66 133.60 32.75 131.35 36.60 C 123.90 34.15 115.85 33.24 108.19 35.31 C 97.68 37.81 87.08 41.22 76.14 40.45 C 70.81 39.61 65.50 38.47 60.07 38.40 C 60.96 39.86 61.84 41.31 62.71 42.77 C 64.59 42.73 66.47 42.69 68.34 42.66 C 67.78 44.27 67.50 46.05 66.46 47.44 C 63.52 49.98 59.65 51.15 56.70 53.69 C 53.96 56.04 51.76 58.93 49.56 61.77 C 49.15 62.28 48.34 63.29 47.93 63.80 C 46.95 62.89 45.97 61.96 44.99 61.04 C 46.14 55.05 48.61 49.52 51.64 44.27 C 49.76 43.38 47.87 42.50 46.00 41.58 C 48.52 37.91 52.30 35.51 56.04 33.25 C 56.71 30.98 56.82 28.30 58.52 26.51 C 62.33 26.03 66.18 26.39 70.01 26.31 C 75.04 26.39 79.98 24.95 85.02 25.28 C 88.48 25.34 92.09 26.62 95.40 25.07 Z" />
<path fill="#bda137" opacity="1.00" d=" M 141.07 24.67 C 143.17 25.37 145.27 26.05 147.39 26.72 C 156.76 29.47 164.72 35.72 171.01 43.04 C 173.37 45.87 175.54 49.08 176.20 52.77 C 176.47 59.43 177.25 66.04 177.81 72.67 C 174.27 71.84 170.48 71.46 167.31 69.56 C 165.57 67.39 164.94 64.59 163.96 62.04 C 161.79 55.54 158.52 49.23 153.43 44.55 C 148.48 40.05 142.31 37.25 136.26 34.57 C 136.35 35.27 136.51 36.67 136.60 37.37 C 136.01 37.12 134.83 36.62 134.23 36.37 C 136.27 32.34 138.56 28.43 141.07 24.67 Z" />
<path fill="#bda137" opacity="1.00" d=" M 143.40 40.91 C 147.89 43.56 151.00 47.82 154.72 51.37 C 158.83 55.18 160.84 60.74 161.55 66.19 C 162.30 72.24 158.90 77.61 157.01 83.12 C 155.60 87.32 153.68 91.34 151.07 94.94 C 151.64 90.66 152.38 86.40 153.22 82.17 C 148.07 84.22 142.31 85.21 138.03 88.97 C 135.10 91.59 131.70 94.22 127.50 93.30 C 127.97 91.05 128.45 88.79 128.92 86.53 C 126.49 89.33 124.19 92.24 122.04 95.26 C 110.29 95.03 98.58 91.37 86.83 93.40 C 98.27 93.33 109.35 96.65 120.76 96.95 C 118.81 99.14 116.85 102.39 113.48 102.17 C 108.97 102.12 104.49 101.36 99.97 101.56 C 95.18 101.64 90.50 102.84 85.74 103.23 C 79.64 103.65 73.82 100.66 69.40 96.66 C 65.70 93.28 61.60 89.54 60.91 84.27 C 59.85 77.60 58.36 70.18 62.09 64.02 C 65.72 57.64 70.19 50.02 78.22 49.02 C 78.32 49.55 78.53 50.61 78.63 51.14 C 75.41 52.65 71.83 53.75 69.17 56.22 C 68.43 57.62 68.67 59.31 68.49 60.84 C 70.35 60.21 72.22 59.59 74.04 58.86 C 70.71 61.62 66.67 63.66 63.97 67.10 C 60.56 73.34 61.11 80.98 63.58 87.45 C 63.87 85.47 64.15 83.49 64.42 81.51 C 67.14 82.03 70.00 82.35 72.47 83.72 C 72.72 87.63 68.80 89.98 66.77 92.83 C 68.86 93.10 70.78 92.37 71.83 90.47 C 78.41 93.07 85.30 90.30 92.06 90.58 C 99.36 90.46 106.50 92.60 113.81 92.37 C 112.98 88.42 111.57 84.63 109.65 81.09 C 109.17 81.31 108.22 81.77 107.74 81.99 C 103.54 83.41 99.05 83.65 94.74 82.60 C 97.19 79.73 100.04 76.49 104.12 76.37 C 110.33 76.16 116.48 77.38 122.69 77.47 C 119.91 78.88 117.56 81.00 116.79 84.13 C 119.65 83.18 122.32 81.78 124.76 80.03 C 127.10 81.21 129.57 82.10 132.01 83.04 C 135.84 76.44 141.45 71.17 145.62 64.82 C 141.57 66.54 138.00 69.16 134.88 72.23 C 133.19 69.02 130.44 66.65 127.28 64.95 C 128.62 64.44 129.95 63.92 131.28 63.39 C 127.89 59.99 123.61 57.33 118.80 56.60 C 110.54 55.58 102.10 53.55 93.87 56.02 C 94.12 55.47 94.62 54.35 94.87 53.80 C 93.16 53.73 91.45 53.65 89.74 53.64 C 99.41 51.59 109.74 50.29 119.30 53.53 C 125.71 55.74 132.99 58.48 135.51 65.43 C 137.80 61.78 140.27 58.24 142.90 54.83 C 145.46 54.29 147.62 52.78 149.70 51.27 C 143.56 50.52 137.34 50.14 131.19 50.97 C 130.90 50.79 130.30 50.43 130.00 50.25 C 130.37 48.85 130.72 47.46 131.09 46.07 C 131.66 45.87 132.81 45.48 133.38 45.28 C 136.83 44.09 140.16 42.59 143.40 40.91 M 105.82 77.66 C 105.65 78.27 105.31 79.51 105.15 80.12 C 106.80 79.11 108.44 78.06 110.04 76.96 C 108.63 77.18 107.22 77.42 105.82 77.66 M 116.16 87.19 C 116.17 89.45 116.19 91.71 116.22 93.98 C 116.79 93.80 117.92 93.43 118.49 93.25 C 118.63 91.25 118.77 89.24 118.90 87.24 C 118.22 87.23 116.85 87.21 116.16 87.19 Z" />
<path fill="#bda137" opacity="1.00" d=" M 81.11 67.21 C 82.99 66.59 83.83 69.72 81.92 70.16 C 80.05 70.78 79.20 67.64 81.11 67.21 Z" />
<path fill="#bda137" opacity="1.00" d=" M 14.42 82.16 C 17.17 79.13 20.47 76.66 24.18 74.93 C 25.16 76.26 26.12 77.60 27.06 78.95 C 26.03 79.69 24.98 80.43 23.93 81.15 C 22.05 82.38 20.21 83.72 18.09 84.51 C 16.77 83.89 15.63 82.97 14.42 82.16 Z" />
<path fill="#bda137" opacity="1.00" d=" M 6.74 80.82 C 8.60 79.01 11.47 78.44 13.27 80.69 C 12.20 81.43 11.12 82.16 10.05 82.89 C 8.94 82.20 7.84 81.51 6.74 80.82 Z" />
<path fill="#bda137" opacity="1.00" d=" M 179.57 78.80 C 183.13 79.65 186.71 80.44 190.29 81.19 C 190.34 80.49 190.44 79.09 190.49 78.39 C 195.43 81.99 201.14 84.73 205.14 89.48 C 202.56 89.62 199.98 89.70 197.40 89.86 C 197.28 94.24 202.62 94.28 204.67 97.26 C 207.39 101.10 208.21 105.83 209.64 110.23 C 210.88 113.91 210.85 117.86 210.46 121.69 C 210.09 125.05 209.74 128.40 209.48 131.77 C 202.29 128.30 194.67 125.16 188.97 119.35 C 193.38 116.34 197.90 113.37 201.45 109.33 C 196.81 105.29 191.87 101.64 186.92 98.01 C 184.48 96.40 183.25 93.31 180.74 91.94 C 173.18 91.45 165.27 92.42 158.24 88.88 C 161.12 86.45 163.64 82.41 167.89 82.69 C 171.51 82.68 175.14 82.58 178.75 82.12 C 178.95 81.29 179.36 79.63 179.57 78.80 Z" />
<path fill="#bda137" opacity="1.00" d=" M 32.74 80.76 C 34.95 80.58 37.17 80.52 39.39 80.48 C 37.30 82.25 34.97 83.70 32.51 84.90 C 31.50 84.00 30.50 83.11 29.46 82.25 C 30.53 81.71 31.63 81.21 32.74 80.76 Z" />
<path fill="#bda137" opacity="1.00" d=" M 136.88 99.95 C 141.73 96.59 145.85 92.36 149.93 88.14 C 149.26 92.85 149.50 97.63 149.10 102.35 C 147.19 105.56 143.89 108.49 139.99 108.66 C 135.91 109.03 131.82 108.49 127.87 107.46 C 129.95 103.99 133.81 102.35 136.88 99.95 Z" />
<path fill="#bda137" opacity="1.00" d=" M 23.38 95.10 C 22.66 92.89 21.88 90.60 22.30 88.25 C 24.45 89.32 26.50 90.61 28.33 92.18 C 27.27 93.98 25.29 94.62 23.38 95.10 Z" />
<path fill="#bda137" opacity="1.00" d=" M 34.62 95.16 C 35.29 93.95 35.95 92.73 36.60 91.52 C 39.05 92.03 42.16 92.03 43.59 94.49 C 46.51 98.90 48.58 103.83 49.94 108.94 C 50.74 111.73 52.12 114.29 53.80 116.65 C 50.61 114.94 47.06 114.13 43.46 113.95 C 42.13 111.57 40.90 109.13 39.77 106.66 C 41.09 105.35 42.40 104.05 43.71 102.74 C 41.78 99.07 38.31 96.80 34.62 95.16 Z" />
<path fill="#bda137" opacity="1.00" d=" M 161.06 94.97 C 164.85 96.09 168.19 98.28 170.88 101.15 C 170.90 99.91 170.93 98.67 170.96 97.43 C 173.02 98.40 175.58 99.04 176.69 101.25 C 178.00 103.60 178.66 106.24 179.43 108.80 C 178.43 109.36 177.43 109.92 176.43 110.49 C 174.74 108.20 173.11 105.84 171.85 103.28 C 171.58 104.71 171.31 106.14 170.92 107.55 C 169.93 110.94 168.86 114.31 167.75 117.67 C 167.20 117.65 166.09 117.62 165.53 117.61 C 163.90 110.09 161.87 102.63 161.06 94.97 Z" />
<path fill="#bda137" opacity="1.00" d=" M 179.91 96.13 C 181.54 97.80 182.98 99.67 184.86 101.07 C 187.19 102.42 189.75 103.30 192.19 104.44 C 189.12 103.95 185.97 103.82 183.00 102.85 C 181.39 100.94 180.78 98.43 179.91 96.13 Z" />
<path fill="#bda137" opacity="1.00" d=" M 89.45 107.41 C 90.89 107.33 92.32 107.25 93.75 107.17 C 92.56 110.63 91.67 114.18 91.29 117.82 C 89.05 118.46 86.72 118.67 84.40 118.51 C 85.12 114.43 87.34 110.89 89.45 107.41 Z" />
<path fill="#bda137" opacity="1.00" d=" M 52.68 111.12 C 52.75 111.18 52.88 111.30 52.95 111.36 C 52.88 111.30 52.75 111.18 52.68 111.12 Z" />
<path fill="#bda137" opacity="1.00" d=" M 99.35 111.36 C 100.88 111.30 102.40 111.25 103.93 111.20 C 103.61 114.77 102.76 118.25 101.58 121.63 C 99.75 121.65 97.93 121.68 96.11 121.71 C 96.12 117.99 97.18 114.39 99.35 111.36 Z" />
<path fill="#bda137" opacity="1.00" d=" M 115.14 114.17 C 116.33 113.88 117.51 113.56 118.72 113.41 C 121.07 114.96 122.86 117.18 124.80 119.18 C 123.82 120.48 122.83 121.80 121.85 123.11 C 121.48 121.79 121.11 120.47 120.74 119.15 C 119.04 118.78 117.33 118.42 115.62 118.06 C 115.46 116.76 115.30 115.46 115.14 114.17 Z" />
<path fill="#bda137" opacity="1.00" d=" M 46.29 118.40 C 50.79 122.36 54.67 127.13 60.03 130.00 C 64.07 132.55 69.04 131.59 73.54 131.67 C 68.33 136.37 60.66 135.74 54.23 137.45 C 54.18 137.41 54.10 137.31 54.05 137.27 C 53.98 137.19 53.84 137.04 53.77 136.97 C 50.58 133.19 46.28 129.68 45.10 124.70 C 45.45 122.59 45.88 120.50 46.29 118.40 Z" />
<path fill="#bda137" opacity="1.00" d=" M 56.89 120.22 C 57.01 120.26 57.24 120.36 57.35 120.40 L 57.18 120.50 L 56.89 120.22 Z" />
<path fill="#bda137" opacity="1.00" d=" M 57.18 120.50 C 57.31 120.63 57.56 120.87 57.69 121.00 C 57.56 120.87 57.31 120.63 57.18 120.50 Z" />
<path fill="#bda137" opacity="1.00" d=" M 58.47 121.78 C 58.63 121.91 58.96 122.17 59.12 122.29 C 58.96 122.17 58.63 121.91 58.47 121.78 Z" />
<path fill="#bda137" opacity="1.00" d=" M 132.75 122.25 C 133.27 125.41 133.67 128.59 134.04 131.77 C 132.07 130.14 131.50 133.38 133.73 133.37 C 136.56 134.13 138.07 136.72 139.21 139.19 C 145.06 139.53 152.23 138.14 156.23 143.60 C 147.76 140.15 138.42 140.26 129.86 137.08 C 129.77 136.20 129.69 135.33 129.61 134.45 C 125.67 132.91 124.18 128.94 122.85 125.28 C 124.78 125.85 126.69 126.84 128.74 126.73 C 131.04 126.54 131.53 123.78 132.75 122.25 Z" />
<path fill="#bda137" opacity="1.00" d=" M 59.12 122.29 C 59.24 122.35 59.47 122.47 59.59 122.53 C 59.47 122.47 59.24 122.35 59.12 122.29 Z" />
<path fill="#bda137" opacity="1.00" d=" M 136.99 125.97 C 138.07 124.31 140.31 124.55 141.99 124.06 C 141.40 126.90 140.18 129.55 138.54 131.95 C 137.83 130.10 135.32 127.87 136.99 125.97 Z" />
<path fill="#bda137" opacity="1.00" d=" M 80.19 124.90 C 81.78 125.76 83.32 126.71 84.85 127.68 C 81.22 129.01 78.73 131.94 77.78 135.66 C 80.95 135.72 84.12 135.69 87.29 135.57 C 88.00 134.00 88.72 132.43 89.44 130.86 C 91.58 132.91 90.97 135.88 90.57 138.48 C 94.08 137.75 97.77 136.32 101.34 137.55 C 104.40 138.55 107.54 139.84 109.86 142.17 C 111.43 143.76 111.37 146.14 111.70 148.20 C 103.34 147.97 95.34 145.15 87.00 144.68 C 82.30 144.43 77.71 143.16 73.64 140.79 C 74.10 137.76 74.08 134.68 73.54 131.67 C 75.47 129.14 77.81 126.98 80.19 124.90 Z" />
<path fill="#bda137" opacity="1.00" d=" M 111.83 126.70 C 113.46 126.01 115.14 125.43 116.83 124.92 C 116.41 125.89 115.99 126.86 115.57 127.83 C 114.31 127.48 113.08 127.06 111.83 126.70 Z" />
<path fill="#bda137" opacity="1.00" d=" M 156.57 140.09 C 159.02 138.24 161.63 136.63 164.39 135.29 C 165.64 137.44 168.04 139.54 167.23 142.28 C 166.59 145.27 165.76 148.38 163.85 150.83 C 161.51 153.30 158.26 154.56 155.23 155.95 C 155.36 154.28 155.49 152.61 155.63 150.95 C 157.23 150.54 158.82 150.13 160.42 149.72 C 160.10 146.19 158.33 143.09 156.57 140.09 Z" />
<path fill="#bda137" opacity="1.00" d=" M 142.63 145.59 C 143.63 143.10 146.70 143.46 148.87 143.09 C 148.47 147.67 147.15 152.13 144.99 156.20 C 143.15 153.04 141.44 149.30 142.63 145.59 Z" />
<path fill="#bda137" opacity="1.00" d=" M 202.78 147.92 C 208.26 148.43 212.92 151.60 217.08 154.96 C 220.78 158.15 219.58 163.57 219.64 167.88 C 219.09 172.90 218.63 177.94 218.52 183.00 C 212.90 184.04 206.69 185.89 201.50 182.35 C 199.48 179.64 198.24 175.85 199.54 172.56 C 201.17 167.87 203.87 163.67 206.52 159.50 C 207.64 157.55 209.06 155.49 208.87 153.13 C 207.49 151.12 205.37 149.83 203.45 148.40 L 202.78 147.92 Z" />
<path fill="#bda137" opacity="1.00" d=" M 81.94 150.91 C 84.10 148.69 87.39 149.62 90.08 149.95 C 97.00 151.18 105.14 151.17 109.95 157.18 C 109.80 161.80 109.49 166.93 112.48 170.82 C 110.21 172.36 107.61 173.34 104.89 173.68 C 99.28 174.47 93.71 176.11 88.00 175.76 C 84.12 175.64 80.79 172.77 79.09 169.45 C 79.41 166.29 80.57 163.22 80.31 160.00 C 80.51 157.00 79.56 153.29 81.94 150.91 M 83.19 153.18 C 83.25 155.28 83.14 157.41 83.61 159.47 C 84.44 160.82 85.67 161.87 86.78 162.98 C 88.13 161.62 89.47 160.26 90.83 158.91 C 92.54 159.93 94.19 161.14 96.13 161.72 C 99.36 161.84 102.30 159.57 103.12 156.46 C 96.63 154.62 89.94 153.44 83.19 153.18 Z" />
<path fill="#bda137" opacity="1.00" d=" M 150.91 164.69 C 153.03 159.39 159.28 158.80 164.07 157.41 C 163.63 159.88 163.91 162.97 161.63 164.61 C 158.47 166.93 154.35 165.46 150.91 164.69 Z" />
<path fill="#bda137" opacity="1.00" d=" M 176.88 182.72 C 179.47 173.17 187.14 165.57 196.19 161.94 C 194.77 167.44 193.05 172.97 193.78 178.73 C 194.59 177.68 195.41 176.65 196.25 175.62 C 197.36 179.21 198.37 183.02 197.72 186.81 C 197.40 189.17 195.06 191.47 192.57 190.84 C 188.00 189.90 183.64 188.16 179.16 186.88 C 178.40 185.49 177.64 184.10 176.88 182.72 Z" />
<path fill="#bda137" opacity="1.00" d=" M 163.12 168.64 C 160.77 168.05 162.35 165.30 163.90 167.28 C 163.71 167.62 163.31 168.30 163.12 168.64 Z" />
<path fill="#bda137" opacity="1.00" d=" M 144.08 169.69 C 149.96 171.46 156.12 171.45 162.20 171.37 C 160.21 176.51 155.95 180.32 151.71 183.64 C 150.05 184.52 147.75 186.57 145.97 184.99 C 144.36 184.08 144.85 182.03 144.66 180.51 C 144.79 177.50 143.51 174.74 142.32 172.06 C 142.91 171.27 143.49 170.48 144.08 169.69 Z" />
<path fill="#bda137" opacity="1.00" d=" M 70.41 170.64 C 74.31 174.82 78.60 178.59 83.25 181.91 C 85.52 183.30 84.48 186.21 84.65 188.38 C 84.05 188.46 82.87 188.62 82.27 188.70 C 80.65 186.73 79.00 184.77 77.61 182.62 C 75.57 178.42 73.11 174.45 70.41 170.64 Z" />
<path fill="#bda137" opacity="1.00" d=" M 52.47 179.47 C 55.10 177.62 58.14 176.48 61.00 175.04 L 61.59 175.58 C 64.75 178.43 67.92 181.37 70.02 185.12 C 65.41 187.30 60.57 188.90 55.84 190.79 C 52.40 192.08 50.00 194.97 47.68 197.68 C 49.16 198.13 50.64 198.58 52.13 199.04 C 48.50 199.33 44.64 200.07 41.17 198.62 C 39.17 197.69 37.04 195.80 37.34 193.38 C 39.16 191.17 41.62 189.62 43.74 187.72 C 46.80 185.13 49.21 181.83 52.47 179.47 Z" />
<path fill="#bda137" opacity="1.00" d=" M 100.81 176.34 C 102.23 175.37 104.21 175.56 105.78 176.03 C 107.17 176.85 104.60 177.42 104.04 177.32 C 103.10 177.21 101.03 177.58 100.81 176.34 Z" />
<path fill="#bda137" opacity="1.00" d=" M 88.72 177.41 C 92.22 176.98 95.83 177.12 99.15 178.43 C 95.74 179.04 91.45 180.33 88.72 177.41 Z" />
<path fill="#bda137" opacity="1.00" d=" M 99.89 181.71 C 105.01 178.51 111.66 178.27 117.21 180.46 C 111.42 180.72 105.65 181.04 99.89 181.71 Z" />
<path fill="#bda137" opacity="1.00" d=" M 130.96 179.01 C 136.52 179.99 138.50 186.00 139.09 190.89 C 136.17 187.09 132.88 183.46 130.96 179.01 Z" />
<path fill="#bda137" opacity="1.00" d=" M 150.02 190.62 C 152.99 186.25 156.09 180.96 161.70 179.83 C 161.46 183.08 162.87 187.41 160.18 189.89 C 156.83 190.48 153.40 190.34 150.02 190.62 Z" />
<path fill="#bda137" opacity="1.00" d=" M 89.74 182.78 C 92.66 182.27 95.60 181.88 98.56 181.73 C 95.70 183.77 92.40 185.00 89.00 185.79 C 89.25 184.78 89.50 183.78 89.74 182.78 Z" />
<path fill="#bda137" opacity="1.00" d=" M 77.05 183.37 L 77.61 182.62 C 77.15 184.87 76.70 187.12 76.24 189.37 C 74.40 188.67 72.52 187.97 71.02 186.67 C 73.10 185.69 75.16 184.68 77.05 183.37 Z" />
<path fill="#bda137" opacity="1.00" d=" M 201.17 196.36 C 205.98 194.44 210.78 192.35 215.01 189.32 C 212.81 191.97 211.67 195.25 212.12 198.71 C 209.60 200.63 206.63 201.90 203.41 201.49 C 204.01 200.27 204.61 199.06 205.22 197.86 C 203.87 197.35 202.52 196.86 201.17 196.36 Z" />
<path fill="#bda137" opacity="1.00" d=" M 100.41 196.43 C 103.35 194.59 106.58 192.85 110.11 192.55 C 111.96 192.97 113.47 194.24 115.06 195.22 C 113.71 195.60 112.36 195.99 111.01 196.37 C 111.15 198.33 111.63 200.33 111.26 202.28 C 109.88 206.43 106.16 210.01 106.63 214.62 C 107.89 217.72 111.91 218.32 114.85 217.77 C 119.82 216.68 124.31 213.96 129.41 213.31 C 127.06 215.15 124.18 216.02 121.30 216.67 C 121.00 217.69 120.70 218.71 120.40 219.74 C 125.21 219.26 129.92 218.22 134.53 216.78 C 137.42 215.77 140.46 216.39 143.37 216.97 C 143.44 218.90 143.54 220.84 143.66 222.78 C 145.27 220.17 146.60 217.39 147.69 214.53 C 152.49 220.15 160.25 220.62 167.11 220.28 C 166.25 221.61 165.34 223.16 163.59 223.34 C 153.50 225.29 143.16 224.69 132.95 224.84 C 126.81 225.09 121.45 221.68 115.66 220.29 C 110.57 219.21 105.33 220.33 100.21 219.61 C 97.47 218.94 95.15 217.24 92.83 215.72 C 94.21 215.77 95.59 215.75 96.97 215.75 C 97.47 210.58 97.08 205.37 97.47 200.20 C 97.39 198.36 99.12 197.38 100.41 196.43 Z" />
<path fill="#bda137" opacity="1.00" d=" M 157.90 198.86 C 158.98 196.82 160.93 195.46 162.54 193.88 C 162.90 194.39 163.61 195.43 163.97 195.94 C 163.81 198.99 163.94 202.45 162.01 205.00 C 160.62 205.80 158.90 205.52 157.37 205.77 C 157.43 203.47 157.13 201.07 157.90 198.86 Z" />
<path fill="#bda137" opacity="1.00" d=" M 57.99 200.00 C 59.86 197.50 62.56 195.98 65.72 195.98 C 65.70 196.68 65.65 198.10 65.63 198.81 C 63.11 199.34 60.56 199.75 57.99 200.00 Z" />
<path fill="#bda137" opacity="1.00" d=" M 32.64 198.25 C 34.19 199.94 35.82 201.56 37.57 203.05 C 34.81 202.78 33.23 200.84 32.64 198.25 Z" />
<path fill="#bda137" opacity="1.00" d=" M 125.55 199.60 C 127.53 198.69 129.51 199.72 131.19 200.74 C 127.30 204.98 122.38 208.23 116.75 209.60 C 119.05 205.84 121.30 201.44 125.55 199.60 Z" />
<path fill="#bda137" opacity="1.00" d=" M 186.01 200.45 C 188.92 200.01 193.20 198.21 194.61 202.00 C 194.11 203.73 193.17 205.29 192.35 206.88 C 189.97 205.02 187.83 202.86 186.01 200.45 Z" />
<path fill="#bda137" opacity="1.00" d=" M 79.73 201.47 C 81.53 202.13 83.32 202.78 85.12 203.45 C 85.13 205.48 85.00 207.54 85.41 209.55 C 86.43 211.47 88.23 212.81 89.86 214.18 C 82.05 211.30 74.09 208.69 65.91 207.12 C 56.77 206.54 46.97 207.76 38.59 203.20 C 41.79 203.26 44.96 204.84 48.14 204.06 C 55.18 201.44 62.60 204.23 69.70 205.12 C 72.75 205.32 75.20 207.23 77.50 209.03 C 78.22 206.50 78.96 203.98 79.73 201.47 Z" />
<path fill="#bda137" opacity="1.00" d=" M 168.40 201.89 C 172.93 204.00 175.32 208.74 178.96 211.97 C 174.93 211.53 170.59 210.48 167.83 207.28 C 167.33 205.49 168.12 203.65 168.40 201.89 Z" />
<path fill="#bda137" opacity="1.00" d=" M 176.38 202.46 C 177.78 202.39 179.18 202.25 180.57 202.35 C 183.05 204.46 185.18 206.94 187.81 208.88 C 183.98 210.68 179.41 209.33 176.50 206.45 C 176.35 205.13 176.39 203.79 176.38 202.46 Z" />
</g>
<g id="#593920ff">
<path fill="#593920" opacity="1.00" d=" M 76.14 40.45 C 87.08 41.22 97.68 37.81 108.19 35.31 C 101.61 40.16 93.76 42.57 86.21 45.41 C 84.56 45.72 84.21 47.37 83.82 48.72 C 81.95 48.81 80.08 48.87 78.22 49.02 C 70.19 50.02 65.72 57.64 62.09 64.02 C 58.36 70.18 59.85 77.60 60.91 84.27 C 61.60 89.54 65.70 93.28 69.40 96.66 C 73.82 100.66 79.64 103.65 85.74 103.23 C 90.50 102.84 95.18 101.64 99.97 101.56 C 104.49 101.36 108.97 102.12 113.48 102.17 C 116.85 102.39 118.81 99.14 120.76 96.95 C 121.08 96.52 121.72 95.68 122.04 95.26 C 124.19 92.24 126.49 89.33 128.92 86.53 C 128.45 88.79 127.97 91.05 127.50 93.30 C 131.70 94.22 135.10 91.59 138.03 88.97 C 142.31 85.21 148.07 84.22 153.22 82.17 C 152.38 86.40 151.64 90.66 151.07 94.94 C 153.68 91.34 155.60 87.32 157.01 83.12 C 158.90 77.61 162.30 72.24 161.55 66.19 C 160.84 60.74 158.83 55.18 154.72 51.37 C 151.00 47.82 147.89 43.56 143.40 40.91 C 141.23 39.56 138.94 38.38 136.60 37.37 C 136.51 36.67 136.35 35.27 136.26 34.57 C 142.31 37.25 148.48 40.05 153.43 44.55 C 158.52 49.23 161.79 55.54 163.96 62.04 C 164.94 64.59 165.57 67.39 167.31 69.56 C 170.48 71.46 174.27 71.84 177.81 72.67 C 177.25 66.04 176.47 59.43 176.20 52.77 C 181.25 59.33 181.97 67.95 181.94 75.94 C 175.75 74.49 169.56 72.94 163.22 72.23 C 163.26 73.36 163.30 74.50 163.35 75.63 C 168.76 76.66 174.21 77.52 179.57 78.80 C 179.36 79.63 178.95 81.29 178.75 82.12 C 175.14 82.58 171.51 82.68 167.89 82.69 C 163.64 82.41 161.12 86.45 158.24 88.88 C 165.27 92.42 173.18 91.45 180.74 91.94 C 183.25 93.31 184.48 96.40 186.92 98.01 C 191.87 101.64 196.81 105.29 201.45 109.33 C 197.90 113.37 193.38 116.34 188.97 119.35 C 194.67 125.16 202.29 128.30 209.48 131.77 C 209.74 128.40 210.09 125.05 210.46 121.69 C 211.98 125.82 212.39 130.23 212.36 134.61 C 204.62 133.37 198.02 128.68 191.50 124.63 C 186.15 120.32 180.05 116.49 176.43 110.49 C 177.43 109.92 178.43 109.36 179.43 108.80 C 178.66 106.24 178.00 103.60 176.69 101.25 C 175.58 99.04 173.02 98.40 170.96 97.43 C 170.93 98.67 170.90 99.91 170.88 101.15 C 168.19 98.28 164.85 96.09 161.06 94.97 C 161.87 102.63 163.90 110.09 165.53 117.61 C 166.09 117.62 167.20 117.65 167.75 117.67 C 168.86 114.31 169.93 110.94 170.92 107.55 C 175.21 112.31 175.18 119.04 174.69 125.05 C 174.36 127.69 172.08 129.44 170.33 131.23 C 172.70 131.58 177.02 130.25 176.77 133.94 C 174.72 133.96 172.69 133.99 170.65 133.99 C 172.36 138.02 173.77 142.55 172.42 146.91 C 170.92 149.97 167.90 151.90 166.10 154.74 C 165.41 158.94 166.28 163.47 163.90 167.28 C 162.35 165.30 160.77 168.05 163.12 168.64 C 164.87 172.00 163.61 175.94 160.94 178.41 C 161.92 178.90 162.89 179.40 163.86 179.90 C 162.83 184.47 164.29 189.59 162.54 193.88 C 160.93 195.46 158.98 196.82 157.90 198.86 C 157.13 201.07 157.43 203.47 157.37 205.77 C 158.90 205.52 160.62 205.80 162.01 205.00 C 163.94 202.45 163.81 198.99 163.97 195.94 C 166.92 198.51 170.20 200.66 173.85 202.09 C 176.35 201.10 178.94 200.34 181.57 199.79 C 179.51 197.23 177.32 194.73 175.80 191.81 C 174.36 188.81 175.70 185.54 176.88 182.72 C 177.64 184.10 178.40 185.49 179.16 186.88 C 183.64 188.16 188.00 189.90 192.57 190.84 C 195.06 191.47 197.40 189.17 197.72 186.81 C 198.37 183.02 197.36 179.21 196.25 175.62 C 196.13 175.24 195.89 174.48 195.77 174.10 C 198.56 169.73 201.64 165.21 202.23 159.92 C 202.56 156.07 202.49 152.17 203.45 148.40 C 205.37 149.83 207.49 151.12 208.87 153.13 C 209.06 155.49 207.64 157.55 206.52 159.50 C 203.87 163.67 201.17 167.87 199.54 172.56 C 198.24 175.85 199.48 179.64 201.50 182.35 C 206.69 185.89 212.90 184.04 218.52 183.00 C 218.63 177.94 219.09 172.90 219.64 167.88 C 222.13 171.05 221.60 175.22 221.69 178.99 C 221.62 183.60 222.13 188.58 219.49 192.65 C 216.47 197.56 214.68 203.36 210.38 207.39 C 207.42 210.07 203.87 212.16 200.01 213.22 C 197.34 213.92 194.95 211.24 192.29 212.12 C 186.59 213.72 181.58 217.68 175.44 217.54 C 172.39 217.43 169.74 218.96 167.11 220.28 C 160.25 220.62 152.49 220.15 147.69 214.53 C 146.60 217.39 145.27 220.17 143.66 222.78 C 143.54 220.84 143.44 218.90 143.37 216.97 C 140.46 216.39 137.42 215.77 134.53 216.78 C 129.92 218.22 125.21 219.26 120.40 219.74 C 120.70 218.71 121.00 217.69 121.30 216.67 C 124.18 216.02 127.06 215.15 129.41 213.31 C 124.31 213.96 119.82 216.68 114.85 217.77 C 111.91 218.32 107.89 217.72 106.63 214.62 C 106.16 210.01 109.88 206.43 111.26 202.28 C 111.63 200.33 111.15 198.33 111.01 196.37 C 112.36 195.99 113.71 195.60 115.06 195.22 C 113.47 194.24 111.96 192.97 110.11 192.55 C 106.58 192.85 103.35 194.59 100.41 196.43 C 99.12 197.38 97.39 198.36 97.47 200.20 C 97.08 205.37 97.47 210.58 96.97 215.75 C 95.59 215.75 94.21 215.77 92.83 215.72 C 91.73 215.45 90.76 214.84 89.86 214.18 C 88.23 212.81 86.43 211.47 85.41 209.55 C 85.00 207.54 85.13 205.48 85.12 203.45 C 83.32 202.78 81.53 202.13 79.73 201.47 C 78.96 203.98 78.22 206.50 77.50 209.03 C 75.20 207.23 72.75 205.32 69.70 205.12 C 62.60 204.23 55.18 201.44 48.14 204.06 C 44.96 204.84 41.79 203.26 38.59 203.20 C 38.33 203.16 37.82 203.09 37.57 203.05 C 35.82 201.56 34.19 199.94 32.64 198.25 C 31.42 194.55 34.38 191.11 36.38 188.28 C 41.97 182.03 48.94 176.34 57.36 174.64 C 58.58 174.34 59.80 174.79 61.00 175.04 C 58.14 176.48 55.10 177.62 52.47 179.47 C 49.21 181.83 46.80 185.13 43.74 187.72 C 41.62 189.62 39.16 191.17 37.34 193.38 C 37.04 195.80 39.17 197.69 41.17 198.62 C 44.64 200.07 48.50 199.33 52.13 199.04 C 50.64 198.58 49.16 198.13 47.68 197.68 C 50.00 194.97 52.40 192.08 55.84 190.79 C 60.57 188.90 65.41 187.30 70.02 185.12 C 70.27 185.51 70.77 186.28 71.02 186.67 C 72.52 187.97 74.40 188.67 76.24 189.37 C 76.70 187.12 77.15 184.87 77.61 182.62 C 79.00 184.77 80.65 186.73 82.27 188.70 C 82.87 188.62 84.05 188.46 84.65 188.38 C 84.48 186.21 85.52 183.30 83.25 181.91 C 78.60 178.59 74.31 174.82 70.41 170.64 C 73.11 174.45 75.57 178.42 77.61 182.62 L 77.05 183.37 C 75.17 181.16 73.44 178.76 71.13 176.96 C 68.83 175.20 65.78 175.22 63.02 175.15 C 63.70 173.57 64.34 171.81 65.92 170.92 C 69.48 168.62 72.80 165.53 77.15 164.92 C 76.89 159.49 78.14 154.18 79.37 148.94 C 76.85 147.76 74.15 146.74 72.08 144.81 C 70.80 143.03 70.51 140.78 69.94 138.71 C 65.43 139.67 60.45 140.80 55.99 139.26 C 55.55 138.81 54.67 137.91 54.23 137.45 C 60.66 135.74 68.33 136.37 73.54 131.67 C 74.08 134.68 74.10 137.76 73.64 140.79 C 77.71 143.16 82.30 144.43 87.00 144.68 C 95.34 145.15 103.34 147.97 111.70 148.20 C 111.37 146.14 111.43 143.76 109.86 142.17 C 107.54 139.84 104.40 138.55 101.34 137.55 C 97.77 136.32 94.08 137.75 90.57 138.48 C 90.97 135.88 91.58 132.91 89.44 130.86 C 87.95 129.75 86.40 128.71 84.85 127.68 C 83.32 126.71 81.78 125.76 80.19 124.90 C 78.92 124.27 77.60 123.72 76.29 123.16 C 69.42 120.98 67.58 113.27 65.19 107.35 C 64.12 109.60 62.76 111.70 61.19 113.64 C 59.78 110.07 58.83 106.35 57.84 102.66 C 56.84 98.17 52.93 94.67 53.44 89.81 C 52.40 90.23 51.35 90.64 50.30 91.04 C 50.59 88.77 51.12 86.53 51.72 84.32 C 50.94 84.93 50.15 85.54 49.35 86.15 C 49.53 79.31 51.40 72.46 55.41 66.85 C 53.35 66.32 51.31 65.73 49.26 65.14 C 49.34 64.30 49.48 62.61 49.56 61.77 C 51.76 58.93 53.96 56.04 56.70 53.69 C 59.65 51.15 63.52 49.98 66.46 47.44 C 67.50 46.05 67.78 44.27 68.34 42.66 C 66.47 42.69 64.59 42.73 62.71 42.77 C 61.84 41.31 60.96 39.86 60.07 38.40 C 65.50 38.47 70.81 39.61 76.14 40.45 M 71.75 48.26 C 71.79 46.08 71.70 43.90 71.50 41.73 C 70.70 43.75 69.08 46.92 71.75 48.26 M 77.56 45.08 C 76.51 46.36 78.72 48.00 79.68 46.67 C 80.74 45.38 78.52 43.74 77.56 45.08 M 136.88 99.95 C 133.81 102.35 129.95 103.99 127.87 107.46 C 131.82 108.49 135.91 109.03 139.99 108.66 C 143.89 108.49 147.19 105.56 149.10 102.35 C 149.50 97.63 149.26 92.85 149.93 88.14 C 145.85 92.36 141.73 96.59 136.88 99.95 M 179.91 96.13 C 180.78 98.43 181.39 100.94 183.00 102.85 C 185.97 103.82 189.12 103.95 192.19 104.44 C 189.75 103.30 187.19 102.42 184.86 101.07 C 182.98 99.67 181.54 97.80 179.91 96.13 M 89.45 107.41 C 87.34 110.89 85.12 114.43 84.40 118.51 C 86.72 118.67 89.05 118.46 91.29 117.82 C 91.67 114.18 92.56 110.63 93.75 107.17 C 92.32 107.25 90.89 107.33 89.45 107.41 M 99.35 111.36 C 97.18 114.39 96.12 117.99 96.11 121.71 C 97.93 121.68 99.75 121.65 101.58 121.63 C 102.76 118.25 103.61 114.77 103.93 111.20 C 102.40 111.25 100.88 111.30 99.35 111.36 M 115.14 114.17 C 115.30 115.46 115.46 116.76 115.62 118.06 C 117.33 118.42 119.04 118.78 120.74 119.15 C 121.11 120.47 121.48 121.79 121.85 123.11 C 122.83 121.80 123.82 120.48 124.80 119.18 C 122.86 117.18 121.07 114.96 118.72 113.41 C 117.51 113.56 116.33 113.88 115.14 114.17 M 80.89 114.93 C 80.40 116.61 79.89 118.29 79.34 119.95 C 80.66 117.94 82.04 115.97 83.49 114.05 C 82.62 114.34 81.76 114.64 80.89 114.93 M 126.82 118.18 C 126.34 119.59 128.73 120.16 129.17 118.85 C 129.64 117.44 127.27 116.87 126.82 118.18 M 114.17 120.94 C 112.74 121.35 113.45 123.73 114.88 123.08 C 116.32 122.67 115.61 120.28 114.17 120.94 M 126.45 121.35 C 124.99 122.39 124.00 123.94 122.85 125.28 C 124.18 128.94 125.67 132.91 129.61 134.45 C 129.69 135.33 129.77 136.20 129.86 137.08 C 138.42 140.26 147.76 140.15 156.23 143.60 C 152.23 138.14 145.06 139.53 139.21 139.19 C 138.07 136.72 136.56 134.13 133.73 133.37 C 133.81 132.97 133.96 132.17 134.04 131.77 C 133.67 128.59 133.27 125.41 132.75 122.25 C 130.68 121.82 128.59 121.17 126.45 121.35 M 136.99 125.97 C 135.32 127.87 137.83 130.10 138.54 131.95 C 140.18 129.55 141.40 126.90 141.99 124.06 C 140.31 124.55 138.07 124.31 136.99 125.97 M 111.83 126.70 C 113.08 127.06 114.31 127.48 115.57 127.83 C 115.99 126.86 116.41 125.89 116.83 124.92 C 115.14 125.43 113.46 126.01 111.83 126.70 M 156.57 140.09 C 158.33 143.09 160.10 146.19 160.42 149.72 C 158.82 150.13 157.23 150.54 155.63 150.95 C 155.49 152.61 155.36 154.28 155.23 155.95 C 158.26 154.56 161.51 153.30 163.85 150.83 C 165.76 148.38 166.59 145.27 167.23 142.28 C 168.04 139.54 165.64 137.44 164.39 135.29 C 161.63 136.63 159.02 138.24 156.57 140.09 M 142.63 145.59 C 141.44 149.30 143.15 153.04 144.99 156.20 C 147.15 152.13 148.47 147.67 148.87 143.09 C 146.70 143.46 143.63 143.10 142.63 145.59 M 116.78 147.21 C 115.19 150.95 113.12 154.56 109.95 157.18 C 105.14 151.17 97.00 151.18 90.08 149.95 C 87.39 149.62 84.10 148.69 81.94 150.91 C 79.56 153.29 80.51 157.00 80.31 160.00 C 80.57 163.22 79.41 166.29 79.09 169.45 C 80.79 172.77 84.12 175.64 88.00 175.76 C 93.71 176.11 99.28 174.47 104.89 173.68 C 107.61 173.34 110.21 172.36 112.48 170.82 C 116.28 174.60 120.09 178.38 123.73 182.32 C 126.95 185.77 127.27 191.01 126.02 195.38 C 128.31 195.40 130.58 195.79 132.69 196.69 C 128.99 193.52 125.89 189.07 126.07 184.00 C 125.90 179.78 128.95 176.36 129.48 172.30 C 128.48 169.98 126.05 168.49 125.36 166.04 C 125.94 162.35 128.21 159.23 130.08 156.09 C 126.16 152.44 121.87 149.04 116.78 147.21 M 150.91 164.69 C 154.35 165.46 158.47 166.93 161.63 164.61 C 163.91 162.97 163.63 159.88 164.07 157.41 C 159.28 158.80 153.03 159.39 150.91 164.69 M 144.08 169.69 C 143.49 170.48 142.91 171.27 142.32 172.06 C 143.51 174.74 144.79 177.50 144.66 180.51 C 144.85 182.03 144.36 184.08 145.97 184.99 C 147.75 186.57 150.05 184.52 151.71 183.64 C 155.95 180.32 160.21 176.51 162.20 171.37 C 156.12 171.45 149.96 171.46 144.08 169.69 M 100.81 176.34 C 101.03 177.58 103.10 177.21 104.04 177.32 C 104.60 177.42 107.17 176.85 105.78 176.03 C 104.21 175.56 102.23 175.37 100.81 176.34 M 88.72 177.41 C 91.45 180.33 95.74 179.04 99.15 178.43 C 95.83 177.12 92.22 176.98 88.72 177.41 M 99.89 181.71 C 105.65 181.04 111.42 180.72 117.21 180.46 C 111.66 178.27 105.01 178.51 99.89 181.71 M 130.96 179.01 C 132.88 183.46 136.17 187.09 139.09 190.89 C 138.50 186.00 136.52 179.99 130.96 179.01 M 150.02 190.62 C 153.40 190.34 156.83 190.48 160.18 189.89 C 162.87 187.41 161.46 183.08 161.70 179.83 C 156.09 180.96 152.99 186.25 150.02 190.62 M 89.74 182.78 C 89.50 183.78 89.25 184.78 89.00 185.79 C 92.40 185.00 95.70 183.77 98.56 181.73 C 95.60 181.88 92.66 182.27 89.74 182.78 M 201.17 196.36 C 202.52 196.86 203.87 197.35 205.22 197.86 C 204.61 199.06 204.01 200.27 203.41 201.49 C 206.63 201.90 209.60 200.63 212.12 198.71 C 211.67 195.25 212.81 191.97 215.01 189.32 C 210.78 192.35 205.98 194.44 201.17 196.36 M 57.99 200.00 C 60.56 199.75 63.11 199.34 65.63 198.81 C 65.65 198.10 65.70 196.68 65.72 195.98 C 62.56 195.98 59.86 197.50 57.99 200.00 M 125.55 199.60 C 121.30 201.44 119.05 205.84 116.75 209.60 C 122.38 208.23 127.30 204.98 131.19 200.74 C 129.51 199.72 127.53 198.69 125.55 199.60 M 136.60 199.55 C 136.19 201.23 139.97 202.23 140.22 200.38 C 139.65 199.14 137.66 198.74 136.60 199.55 M 186.01 200.45 C 187.83 202.86 189.97 205.02 192.35 206.88 C 193.17 205.29 194.11 203.73 194.61 202.00 C 193.20 198.21 188.92 200.01 186.01 200.45 M 168.40 201.89 C 168.12 203.65 167.33 205.49 167.83 207.28 C 170.59 210.48 174.93 211.53 178.96 211.97 C 175.32 208.74 172.93 204.00 168.40 201.89 M 176.38 202.46 C 176.39 203.79 176.35 205.13 176.50 206.45 C 179.41 209.33 183.98 210.68 187.81 208.88 C 185.18 206.94 183.05 204.46 180.57 202.35 C 179.18 202.25 177.78 202.39 176.38 202.46 Z" />
<path fill="#593920" opacity="1.00" d=" M 103.18 44.44 C 108.33 40.07 115.43 39.06 121.95 39.80 C 126.27 40.29 129.90 42.88 133.38 45.28 C 132.81 45.48 131.66 45.87 131.09 46.07 C 122.54 40.87 112.45 43.88 103.18 44.44 Z" />
<path fill="#593920" opacity="1.00" d=" M 131.19 50.97 C 137.34 50.14 143.56 50.52 149.70 51.27 C 147.62 52.78 145.46 54.29 142.90 54.83 C 138.64 54.90 134.41 53.90 131.19 50.97 Z" />
<path fill="#593920" opacity="1.00" d=" M 74.04 58.86 C 78.93 56.22 84.30 54.64 89.74 53.64 C 91.45 53.65 93.16 53.73 94.87 53.80 C 94.62 54.35 94.12 55.47 93.87 56.02 C 89.80 56.79 85.82 57.94 81.93 59.34 C 82.31 60.53 82.70 61.72 83.09 62.91 C 92.90 61.86 102.73 58.55 112.64 60.30 C 115.30 61.87 116.83 64.78 118.83 67.06 C 120.78 65.83 122.73 64.59 124.67 63.34 C 125.54 63.88 126.41 64.42 127.28 64.95 C 130.44 66.65 133.19 69.02 134.88 72.23 C 138.00 69.16 141.57 66.54 145.62 64.82 C 141.45 71.17 135.84 76.44 132.01 83.04 C 129.57 82.10 127.10 81.21 124.76 80.03 C 124.24 79.39 123.21 78.11 122.69 77.47 C 116.48 77.38 110.33 76.16 104.12 76.37 C 100.04 76.49 97.19 79.73 94.74 82.60 C 99.05 83.65 103.54 83.41 107.74 81.99 C 105.90 83.08 104.28 84.82 102.04 84.95 C 94.43 85.46 86.78 85.14 79.20 84.32 C 75.43 83.78 73.80 88.09 71.83 90.47 C 70.78 92.37 68.86 93.10 66.77 92.83 C 68.80 89.98 72.72 87.63 72.47 83.72 C 70.00 82.35 67.14 82.03 64.42 81.51 C 64.15 83.49 63.87 85.47 63.58 87.45 C 61.11 80.98 60.56 73.34 63.97 67.10 C 66.67 63.66 70.71 61.62 74.04 58.86 M 76.95 60.41 C 77.08 62.64 77.36 64.94 78.99 66.63 C 81.39 64.46 81.41 60.99 79.31 58.61 C 78.72 59.06 77.54 59.96 76.95 60.41 M 81.11 67.21 C 79.20 67.64 80.05 70.78 81.92 70.16 C 83.83 69.72 82.99 66.59 81.11 67.21 Z" />
<path fill="#593920" opacity="1.00" d=" M 32.74 80.76 C 34.53 78.69 37.35 79.27 39.77 79.22 C 39.94 79.93 40.30 81.34 40.48 82.04 C 38.88 83.53 37.18 84.94 35.86 86.69 C 35.77 88.33 36.29 89.92 36.60 91.52 C 35.95 92.73 35.29 93.95 34.62 95.16 C 38.31 96.80 41.78 99.07 43.71 102.74 C 42.40 104.05 41.09 105.35 39.77 106.66 C 40.90 109.13 42.13 111.57 43.46 113.95 C 47.06 114.13 50.61 114.94 53.80 116.65 C 52.12 114.29 50.74 111.73 49.94 108.94 C 50.87 109.64 51.78 110.37 52.68 111.12 C 52.75 111.18 52.88 111.30 52.95 111.36 C 55.76 113.54 57.25 116.87 57.35 120.40 C 57.24 120.36 57.01 120.26 56.89 120.22 C 53.52 118.75 50.15 117.29 46.76 115.88 C 46.64 116.51 46.40 117.77 46.29 118.40 C 45.88 120.50 45.45 122.59 45.10 124.70 C 37.27 120.05 36.52 109.79 30.43 103.63 C 28.78 101.86 26.18 101.94 23.98 101.58 C 17.53 101.08 11.82 97.79 6.32 94.66 C 5.99 90.05 6.07 85.41 6.74 80.82 C 7.84 81.51 8.94 82.20 10.05 82.89 C 11.12 82.16 12.20 81.43 13.27 80.69 C 13.54 84.67 13.01 89.41 16.51 92.18 C 15.11 89.04 12.74 85.68 14.42 82.16 C 15.63 82.97 16.77 83.89 18.09 84.51 C 20.21 83.72 22.05 82.38 23.93 81.15 C 23.43 83.53 22.73 85.86 22.30 88.25 C 21.88 90.60 22.66 92.89 23.38 95.10 C 25.29 94.62 27.27 93.98 28.33 92.18 C 28.42 88.94 26.97 85.54 28.01 82.42 C 28.38 82.38 29.10 82.29 29.46 82.25 C 30.50 83.11 31.50 84.00 32.51 84.90 C 34.97 83.70 37.30 82.25 39.39 80.48 C 37.17 80.52 34.95 80.58 32.74 80.76 Z" />
<path fill="#593920" opacity="1.00" d=" M 53.77 136.97 C 53.84 137.04 53.98 137.19 54.05 137.27 C 53.98 137.19 53.84 137.04 53.77 136.97 Z" />
<path fill="#593920" opacity="1.00" d=" M 54.05 137.27 C 54.10 137.31 54.18 137.41 54.23 137.45 C 54.18 137.41 54.10 137.31 54.05 137.27 Z" />
</g>
</svg>
