<?xml version="1.0" encoding="UTF-8" ?>
<!DOCTYPE svg PUBLIC "-//W3C//DTD SVG 1.1//EN" "http://www.w3.org/Graphics/SVG/1.1/DTD/svg11.dtd">
<svg width="158pt" height="175pt" viewBox="0 0 158 175" version="1.1" xmlns="http://www.w3.org/2000/svg">
<g id="#605238ff">
<path fill="#605238" opacity="1.00" d=" M 103.71 6.82 C 106.39 5.09 108.96 3.21 111.67 1.53 C 113.02 2.16 114.39 2.76 115.77 3.32 C 116.11 3.70 116.77 4.46 117.11 4.84 C 115.07 4.10 112.91 3.80 110.78 3.48 C 109.91 7.33 107.31 11.53 109.43 15.40 L 110.05 16.28 C 106.36 14.19 102.12 13.68 98.16 15.31 C 99.24 16.52 100.33 17.72 101.43 18.90 C 103.39 20.96 105.31 23.06 107.22 25.17 L 105.77 24.74 C 105.30 24.61 104.37 24.34 103.91 24.21 C 103.37 24.59 102.84 24.98 102.31 25.36 C 100.23 22.77 97.47 20.91 94.77 19.05 C 94.80 18.62 94.87 17.76 94.91 17.33 L 94.70 16.75 C 94.25 15.40 93.68 14.10 93.06 12.82 C 93.33 12.41 93.88 11.59 94.15 11.18 C 97.06 9.15 100.75 8.76 103.71 6.82 M 99.43 10.39 C 98.01 11.12 94.27 11.60 95.18 13.77 C 97.77 15.06 100.71 13.52 102.69 11.80 C 102.85 10.04 100.63 10.02 99.43 10.39 Z" />
</g>
<g id="#a9822fff">
<path fill="#a9822f" opacity="1.00" d=" M 109.43 15.40 C 107.31 11.53 109.91 7.33 110.78 3.48 C 112.91 3.80 115.07 4.10 117.11 4.84 C 117.42 5.20 118.03 5.93 118.34 6.29 C 118.12 6.63 117.69 7.30 117.48 7.64 C 116.31 7.32 115.14 7.01 113.98 6.68 L 112.27 6.16 C 112.33 8.47 112.36 10.78 112.62 13.07 C 112.68 13.51 112.79 14.37 112.85 14.80 C 111.99 14.95 110.29 15.25 109.43 15.40 Z" />
</g>
<g id="#62563eff">
<path fill="#62563e" opacity="1.00" d=" M 121.53 5.23 C 126.71 2.45 131.03 7.48 134.94 10.13 C 139.37 12.88 142.71 16.90 146.38 20.52 C 146.50 22.21 146.63 23.90 146.76 25.60 C 139.19 25.94 133.48 32.21 125.89 32.14 C 121.67 32.21 117.89 28.39 118.86 24.08 C 121.33 27.41 126.35 27.94 129.91 26.12 C 134.37 24.05 139.31 23.55 144.14 23.04 C 143.46 21.26 142.64 19.48 141.19 18.19 C 136.53 13.21 130.89 8.53 124.06 7.13 C 122.92 6.92 122.07 6.29 121.53 5.23 Z" />
</g>
<g id="#896b44ff">
<path fill="#896b44" opacity="1.00" d=" M 118.34 6.29 C 119.39 5.92 120.46 5.59 121.53 5.23 C 122.07 6.29 122.92 6.92 124.06 7.13 C 130.89 8.53 136.53 13.21 141.19 18.19 C 136.79 16.33 133.74 12.19 128.98 11.03 C 130.14 13.45 131.50 15.75 132.95 18.00 C 132.56 18.21 131.78 18.63 131.39 18.84 C 130.39 18.47 129.39 18.10 128.38 17.73 C 128.45 16.92 128.52 16.10 128.58 15.28 C 124.51 12.45 119.63 13.67 115.05 13.73 C 116.26 11.31 115.16 8.84 113.98 6.68 C 115.14 7.01 116.31 7.32 117.48 7.64 C 117.69 7.30 118.12 6.63 118.34 6.29 Z" />
</g>
<g id="#393228ff">
<path fill="#393228" opacity="1.00" d=" M 112.27 6.16 L 113.98 6.68 C 115.16 8.84 116.26 11.31 115.05 13.73 C 114.44 13.57 113.23 13.24 112.62 13.07 C 112.36 10.78 112.33 8.47 112.27 6.16 Z" />
</g>
<g id="#f9fbf8ff">
<path fill="#f9fbf8" opacity="1.00" d=" M 39.03 16.96 C 45.11 13.88 51.35 10.99 57.93 9.18 C 63.21 9.02 68.49 9.09 73.77 9.04 C 74.97 9.42 76.17 9.81 77.35 10.23 C 76.30 10.70 75.24 11.18 74.18 11.65 C 76.77 11.78 79.35 11.94 81.94 12.05 L 82.77 12.07 C 83.25 12.47 84.20 13.26 84.67 13.65 C 82.62 14.73 80.25 14.16 78.04 14.23 C 74.17 14.05 70.30 14.50 66.56 15.48 C 63.87 19.96 58.22 20.52 53.50 20.80 C 52.85 20.72 51.55 20.57 50.90 20.50 C 51.66 18.89 52.61 17.39 53.67 15.96 C 47.23 18.30 39.72 19.57 35.11 25.11 C 33.36 27.71 30.73 29.43 27.75 30.30 C 27.17 30.42 26.01 30.67 25.43 30.80 C 25.41 29.86 25.38 27.99 25.37 27.06 L 25.45 26.94 C 29.50 23.06 33.54 18.69 39.03 16.96 Z" />
<path fill="#f9fbf8" opacity="1.00" d=" M 132.82 33.08 C 135.60 32.19 138.56 30.70 141.48 32.04 C 139.01 32.39 136.42 32.14 134.08 33.11 C 130.81 34.20 127.53 36.18 123.96 35.33 C 126.98 34.89 129.94 34.11 132.82 33.08 Z" />
<path fill="#f9fbf8" opacity="1.00" d=" M 63.58 113.93 L 64.18 113.50 C 65.13 113.44 67.04 113.30 68.00 113.23 C 66.98 114.19 65.98 115.39 64.49 115.54 L 63.82 115.05 C 63.76 114.77 63.64 114.21 63.58 113.93 Z" />
</g>
<g id="#d3cabeff">
<path fill="#d3cabe" opacity="1.00" d=" M 73.77 9.04 C 75.73 9.03 77.68 9.04 79.64 9.06 C 80.40 10.06 81.17 11.06 81.94 12.05 C 79.35 11.94 76.77 11.78 74.18 11.65 C 75.24 11.18 76.30 10.70 77.35 10.23 C 76.17 9.81 74.97 9.42 73.77 9.04 Z" />
</g>
<g id="#a07828ff">
<path fill="#a07828" opacity="1.00" d=" M 79.64 9.06 C 81.08 9.08 82.52 9.08 83.95 9.07 C 84.54 9.26 85.71 9.63 86.30 9.82 C 87.04 10.30 87.77 10.79 88.50 11.28 C 90.35 13.33 92.30 15.33 94.70 16.75 L 94.91 17.33 C 92.17 17.73 88.92 18.47 86.65 16.38 C 86.27 15.16 86.30 13.86 86.19 12.60 C 85.90 12.34 85.31 11.82 85.01 11.57 C 84.45 11.69 83.33 11.95 82.77 12.07 L 81.94 12.05 C 81.17 11.06 80.40 10.06 79.64 9.06 Z" />
</g>
<g id="#8a7e6ab8">
<path fill="#8a7e6a" opacity="0.72" d=" M 83.95 9.07 C 84.54 9.26 85.71 9.63 86.30 9.82 C 85.71 9.63 84.54 9.26 83.95 9.07 Z" />
</g>
<g id="#896f47ff">
<path fill="#896f47" opacity="1.00" d=" M 99.43 10.39 C 100.63 10.02 102.85 10.04 102.69 11.80 C 100.71 13.52 97.77 15.06 95.18 13.77 C 94.27 11.60 98.01 11.12 99.43 10.39 Z" />
</g>
<g id="#a98757ff">
<path fill="#a98757" opacity="1.00" d=" M 82.77 12.07 C 83.33 11.95 84.45 11.69 85.01 11.57 C 85.31 11.82 85.90 12.34 86.19 12.60 C 86.30 13.86 86.27 15.16 86.65 16.38 C 88.92 18.47 92.17 17.73 94.91 17.33 C 94.87 17.76 94.80 18.62 94.77 19.05 C 94.26 19.27 93.26 19.73 92.76 19.96 C 95.20 21.93 97.99 23.65 99.73 26.34 C 101.85 30.61 92.16 27.22 93.68 31.18 C 96.51 32.23 99.62 32.59 102.19 34.28 C 96.36 34.85 90.31 34.95 84.95 37.64 C 85.76 37.66 87.37 37.70 88.18 37.72 C 86.81 38.58 85.44 39.61 83.77 39.73 C 78.73 40.40 73.67 40.86 68.59 41.10 C 73.72 37.82 80.95 39.93 85.31 35.00 C 81.95 35.56 78.76 36.86 75.36 37.16 C 75.93 35.88 76.51 34.61 77.10 33.33 C 75.63 33.87 74.16 34.41 72.72 35.01 C 73.94 33.46 75.08 31.86 76.29 30.31 C 79.61 30.61 82.64 28.98 84.94 26.70 C 81.11 26.06 76.98 27.35 73.50 25.12 C 77.11 23.07 81.17 22.08 85.05 20.69 C 83.09 18.72 81.00 16.90 78.86 15.14 C 80.88 14.89 82.90 14.67 84.93 14.46 C 84.86 14.25 84.74 13.85 84.67 13.65 C 84.20 13.26 83.25 12.47 82.77 12.07 Z" />
</g>
<g id="#ab9986ff">
<path fill="#ab9986" opacity="1.00" d=" M 88.50 11.28 C 90.32 12.01 92.40 12.26 94.15 11.18 C 93.88 11.59 93.33 12.41 93.06 12.82 C 93.68 14.10 94.25 15.40 94.70 16.75 C 92.30 15.33 90.35 13.33 88.50 11.28 Z" />
<path fill="#ab9986" opacity="1.00" d=" M 36.00 58.47 C 39.99 57.16 44.12 56.32 48.27 55.69 C 49.55 57.70 49.83 60.07 49.90 62.39 C 49.61 62.64 49.03 63.14 48.74 63.39 C 46.89 63.34 45.06 63.17 43.23 63.02 C 42.68 63.23 41.59 63.65 41.05 63.86 C 38.77 63.86 36.50 63.70 34.24 63.52 C 34.06 62.36 33.88 61.19 33.72 60.03 L 33.68 59.68 C 34.26 59.38 35.42 58.78 36.00 58.47 Z" />
</g>
<g id="#9b7d45ff">
<path fill="#9b7d45" opacity="1.00" d=" M 128.98 11.03 C 133.74 12.19 136.79 16.33 141.19 18.19 C 142.64 19.48 143.46 21.26 144.14 23.04 C 139.31 23.55 134.37 24.05 129.91 26.12 C 126.35 27.94 121.33 27.41 118.86 24.08 C 119.36 23.78 120.37 23.19 120.88 22.89 C 124.49 21.84 128.09 20.68 131.39 18.84 C 131.78 18.63 132.56 18.21 132.95 18.00 C 131.50 15.75 130.14 13.45 128.98 11.03 Z" />
</g>
<g id="#bea24fff">
<path fill="#bea24f" opacity="1.00" d=" M 84.67 13.65 C 84.74 13.85 84.86 14.25 84.93 14.46 C 82.90 14.67 80.88 14.89 78.86 15.14 C 81.00 16.90 83.09 18.72 85.05 20.69 C 81.17 22.08 77.11 23.07 73.50 25.12 C 66.92 21.63 59.27 24.28 54.10 28.98 C 52.87 28.53 51.64 28.08 50.40 27.62 C 51.52 25.39 52.55 23.11 53.50 20.80 C 58.22 20.52 63.87 19.96 66.56 15.48 C 70.30 14.50 74.17 14.05 78.04 14.23 C 80.25 14.16 82.62 14.73 84.67 13.65 Z" />
</g>
<g id="#554d3bff">
<path fill="#554d3b" opacity="1.00" d=" M 112.62 13.07 C 113.23 13.24 114.44 13.57 115.05 13.73 C 119.63 13.67 124.51 12.45 128.58 15.28 C 128.52 16.10 128.45 16.92 128.38 17.73 C 129.39 18.10 130.39 18.47 131.39 18.84 C 128.09 20.68 124.49 21.84 120.88 22.89 C 121.89 21.66 122.83 20.37 123.79 19.10 C 121.93 19.92 120.17 21.52 118.06 21.35 C 115.82 19.63 114.25 17.21 112.85 14.80 C 112.79 14.37 112.68 13.51 112.62 13.07 Z" />
</g>
<g id="#b0896cff">
<path fill="#b0896c" opacity="1.00" d=" M 98.16 15.31 C 102.12 13.68 106.36 14.19 110.05 16.28 L 110.28 16.44 C 109.47 16.64 107.84 17.05 107.03 17.26 C 106.68 17.34 105.98 17.52 105.63 17.61 C 104.22 18.01 102.83 18.46 101.43 18.90 C 100.33 17.72 99.24 16.52 98.16 15.31 Z" />
</g>
<g id="#322f2bff">
<path fill="#322f2b" opacity="1.00" d=" M 109.43 15.40 C 110.29 15.25 111.99 14.95 112.85 14.80 C 114.25 17.21 115.82 19.63 118.06 21.35 C 120.17 21.52 121.93 19.92 123.79 19.10 C 122.83 20.37 121.89 21.66 120.88 22.89 C 120.37 23.19 119.36 23.78 118.86 24.08 C 117.89 28.39 121.67 32.21 125.89 32.14 C 133.48 32.21 139.19 25.94 146.76 25.60 C 146.63 23.90 146.50 22.21 146.38 20.52 C 150.34 23.97 151.83 29.15 154.32 33.60 C 155.89 36.37 156.14 39.72 158.00 42.33 L 158.00 43.51 C 157.13 46.01 156.89 48.66 156.34 51.23 C 153.82 48.71 152.52 45.31 150.82 42.24 C 151.94 42.78 153.07 43.30 154.21 43.80 C 153.80 37.91 150.89 32.29 147.09 27.86 C 144.79 27.19 142.43 28.51 140.20 29.00 C 140.62 30.02 141.04 31.03 141.48 32.04 C 138.56 30.70 135.60 32.19 132.82 33.08 C 129.94 34.11 126.98 34.89 123.96 35.33 C 122.43 34.66 121.00 33.79 119.51 33.05 C 119.25 33.33 118.73 33.89 118.47 34.16 C 117.52 30.69 116.62 27.19 115.15 23.89 C 114.85 23.26 114.24 22.01 113.94 21.38 C 113.73 19.09 112.32 17.40 110.28 16.44 L 110.05 16.28 L 109.43 15.40 Z" />
</g>
<g id="#ab9454ff">
<path fill="#ab9454" opacity="1.00" d=" M 35.11 25.11 C 39.72 19.57 47.23 18.30 53.67 15.96 C 52.61 17.39 51.66 18.89 50.90 20.50 C 51.55 20.57 52.85 20.72 53.50 20.80 C 52.55 23.11 51.52 25.39 50.40 27.62 C 51.64 28.08 52.87 28.53 54.10 28.98 C 50.92 32.92 48.58 37.77 49.22 42.97 C 49.78 41.30 50.32 39.62 50.90 37.95 C 50.81 38.70 50.64 40.20 50.56 40.95 C 55.80 41.95 61.19 41.05 66.13 39.19 C 68.42 37.95 70.58 36.49 72.72 35.01 C 74.16 34.41 75.63 33.87 77.10 33.33 C 76.51 34.61 75.93 35.88 75.36 37.16 C 78.76 36.86 81.95 35.56 85.31 35.00 C 80.95 39.93 73.72 37.82 68.59 41.10 C 66.42 41.64 64.23 42.14 62.05 42.64 C 64.13 42.97 66.21 43.31 68.30 43.59 C 60.60 44.57 52.79 44.80 45.26 46.91 C 41.89 47.38 38.47 47.66 35.15 48.48 L 33.50 47.79 C 35.34 46.65 37.39 45.94 39.47 45.38 C 41.13 39.54 45.06 34.74 46.88 28.97 C 43.23 33.20 40.80 38.24 37.96 42.99 C 37.22 44.66 35.41 43.99 34.01 43.99 C 34.43 37.72 37.80 31.31 35.11 25.11 Z" />
</g>
<g id="#ab6c1eff">
<path fill="#ab6c1e" opacity="1.00" d=" M 105.63 17.61 C 105.98 17.52 106.68 17.34 107.03 17.26 C 109.52 19.55 111.67 22.17 113.71 24.86 C 113.76 23.99 113.88 22.25 113.94 21.38 C 114.24 22.01 114.85 23.26 115.15 23.89 C 115.14 24.72 115.13 26.38 115.12 27.22 C 113.60 27.16 112.07 27.26 110.56 27.47 C 109.57 27.32 108.77 26.72 108.09 26.01 C 109.76 22.92 106.91 20.21 105.63 17.61 Z" />
</g>
<g id="#cbac44ff">
<path fill="#cbac44" opacity="1.00" d=" M 107.03 17.26 C 107.84 17.05 109.47 16.64 110.28 16.44 C 112.32 17.40 113.73 19.09 113.94 21.38 C 113.88 22.25 113.76 23.99 113.71 24.86 C 111.67 22.17 109.52 19.55 107.03 17.26 Z" />
</g>
<g id="#c19335ff">
<path fill="#c19335" opacity="1.00" d=" M 101.43 18.90 C 102.83 18.46 104.22 18.01 105.63 17.61 C 106.91 20.21 109.76 22.92 108.09 26.01 L 107.22 25.17 C 105.31 23.06 103.39 20.96 101.43 18.90 Z" />
</g>
<g id="#6c5c55ff">
<path fill="#6c5c55" opacity="1.00" d=" M 92.76 19.96 C 93.26 19.73 94.26 19.27 94.77 19.05 C 97.47 20.91 100.23 22.77 102.31 25.36 C 102.84 24.98 103.37 24.59 103.91 24.21 C 104.37 24.34 105.30 24.61 105.77 24.74 C 108.29 29.10 110.31 33.70 112.42 38.27 C 112.61 38.96 112.99 40.33 113.18 41.02 L 112.77 42.39 C 107.34 41.69 101.87 41.15 96.40 41.79 L 96.43 41.41 C 98.82 41.08 101.23 40.89 103.64 40.71 C 102.78 39.98 101.93 39.25 101.08 38.51 C 100.83 38.29 100.34 37.86 100.09 37.65 C 96.27 35.96 92.08 37.01 88.18 37.72 C 87.37 37.70 85.76 37.66 84.95 37.64 C 90.31 34.95 96.36 34.85 102.19 34.28 C 99.62 32.59 96.51 32.23 93.68 31.18 C 92.16 27.22 101.85 30.61 99.73 26.34 C 97.99 23.65 95.20 21.93 92.76 19.96 Z" />
<path fill="#6c5c55" opacity="1.00" d=" M 6.52 127.41 L 7.82 127.42 C 10.04 129.92 10.97 135.05 15.12 134.66 C 14.87 135.74 14.65 136.83 14.44 137.92 C 11.36 134.77 8.31 131.50 6.52 127.41 Z" />
</g>
<g id="#635849ff">
<path fill="#635849" opacity="1.00" d=" M 54.10 28.98 C 59.27 24.28 66.92 21.63 73.50 25.12 C 76.98 27.35 81.11 26.06 84.94 26.70 C 82.64 28.98 79.61 30.61 76.29 30.31 C 73.23 25.49 66.75 24.76 61.79 26.77 C 56.93 28.93 52.42 32.67 50.90 37.95 C 50.32 39.62 49.78 41.30 49.22 42.97 C 48.58 37.77 50.92 32.92 54.10 28.98 Z" />
</g>
<g id="#6b4f1dff">
<path fill="#6b4f1d" opacity="1.00" d=" M 115.15 23.89 C 116.62 27.19 117.52 30.69 118.47 34.16 C 117.45 35.30 116.27 36.27 115.10 37.24 C 113.63 33.96 112.21 30.66 110.56 27.47 C 112.07 27.26 113.60 27.16 115.12 27.22 C 115.13 26.38 115.14 24.72 115.15 23.89 Z" />
</g>
<g id="#483b2aff">
<path fill="#483b2a" opacity="1.00" d=" M 105.77 24.74 L 107.22 25.17 L 108.09 26.01 C 108.77 26.72 109.57 27.32 110.56 27.47 C 112.21 30.66 113.63 33.96 115.10 37.24 C 114.43 37.49 113.09 38.01 112.42 38.27 C 110.31 33.70 108.29 29.10 105.77 24.74 Z" />
</g>
<g id="#7f734eff">
<path fill="#7f734e" opacity="1.00" d=" M 27.75 30.30 C 30.73 29.43 33.36 27.71 35.11 25.11 C 37.80 31.31 34.43 37.72 34.01 43.99 C 35.41 43.99 37.22 44.66 37.96 42.99 C 40.80 38.24 43.23 33.20 46.88 28.97 C 45.06 34.74 41.13 39.54 39.47 45.38 C 37.39 45.94 35.34 46.65 33.50 47.79 L 35.15 48.48 C 33.70 48.84 32.28 49.52 30.76 49.54 C 29.47 48.98 28.34 48.11 27.21 47.28 C 28.41 47.37 29.56 47.22 30.68 46.85 C 31.92 43.89 30.88 40.70 30.34 37.71 C 31.04 35.48 29.91 33.28 29.22 31.20 C 28.85 30.97 28.12 30.52 27.75 30.30 Z" />
</g>
<g id="#faf6d3ff">
<path fill="#faf6d3" opacity="1.00" d=" M 61.79 26.77 C 66.75 24.76 73.23 25.49 76.29 30.31 C 75.08 31.86 73.94 33.46 72.72 35.01 C 70.58 36.49 68.42 37.95 66.13 39.19 C 65.52 38.37 64.92 37.54 64.34 36.70 C 64.43 36.15 64.59 35.05 64.68 34.50 C 63.89 34.47 62.33 34.41 61.54 34.37 C 62.63 33.83 63.72 33.30 64.82 32.77 C 64.69 32.07 64.42 30.65 64.29 29.94 C 63.38 29.46 62.47 28.99 61.57 28.51 C 61.62 28.07 61.73 27.21 61.79 26.77 Z" />
</g>
<g id="#f7efc1ff">
<path fill="#f7efc1" opacity="1.00" d=" M 50.90 37.95 C 52.42 32.67 56.93 28.93 61.79 26.77 C 61.73 27.21 61.62 28.07 61.57 28.51 C 62.47 28.99 63.38 29.46 64.29 29.94 C 64.42 30.65 64.69 32.07 64.82 32.77 C 63.36 32.09 62.65 30.67 61.91 29.33 C 61.62 30.09 61.05 31.61 60.77 32.37 C 60.11 31.50 59.45 30.64 58.79 29.77 C 58.63 31.54 56.79 33.62 58.16 35.27 C 58.30 37.27 59.43 38.83 61.05 39.95 C 61.08 39.21 61.15 37.74 61.18 37.00 C 62.22 37.94 63.28 38.84 64.36 39.73 C 64.35 38.97 64.35 37.46 64.34 36.70 C 64.92 37.54 65.52 38.37 66.13 39.19 C 61.19 41.05 55.80 41.95 50.56 40.95 C 50.64 40.20 50.81 38.70 50.90 37.95 Z" />
</g>
<g id="#191714ff">
<path fill="#191714" opacity="1.00" d=" M 140.20 29.00 C 142.43 28.51 144.79 27.19 147.09 27.86 C 150.89 32.29 153.80 37.91 154.21 43.80 C 153.07 43.30 151.94 42.78 150.82 42.24 L 150.60 41.79 C 150.54 41.65 150.41 41.36 150.35 41.22 L 150.13 40.65 C 150.17 39.23 149.57 38.17 148.33 37.45 C 146.16 35.51 144.06 33.43 141.48 32.04 C 141.04 31.03 140.62 30.02 140.20 29.00 Z" />
</g>
<g id="#534e43ff">
<path fill="#534e43" opacity="1.00" d=" M 21.03 36.94 C 20.40 33.01 23.52 30.14 25.37 27.06 C 25.38 27.99 25.41 29.86 25.43 30.80 C 26.01 30.67 27.17 30.42 27.75 30.30 C 28.12 30.52 28.85 30.97 29.22 31.20 C 29.91 33.28 31.04 35.48 30.34 37.71 C 29.01 36.54 27.49 34.71 25.48 35.47 C 22.84 36.71 23.64 39.90 23.24 42.24 C 21.08 44.70 22.36 47.78 24.61 49.58 C 23.64 50.51 22.68 51.44 21.66 52.31 C 21.37 52.30 20.78 52.26 20.49 52.25 C 21.05 47.17 21.23 42.05 21.03 36.94 Z" />
</g>
<g id="#60502aff">
<path fill="#60502a" opacity="1.00" d=" M 58.79 29.77 C 59.45 30.64 60.11 31.50 60.77 32.37 C 61.05 31.61 61.62 30.09 61.91 29.33 C 62.65 30.67 63.36 32.09 64.82 32.77 C 63.72 33.30 62.63 33.83 61.54 34.37 C 62.33 34.41 63.89 34.47 64.68 34.50 C 64.59 35.05 64.43 36.15 64.34 36.70 C 64.35 37.46 64.35 38.97 64.36 39.73 C 63.28 38.84 62.22 37.94 61.18 37.00 C 61.15 37.74 61.08 39.21 61.05 39.95 C 59.43 38.83 58.30 37.27 58.16 35.27 C 56.79 33.62 58.63 31.54 58.79 29.77 Z" />
</g>
<g id="#edddbeff">
<path fill="#edddbe" opacity="1.00" d=" M 25.48 35.47 C 27.49 34.71 29.01 36.54 30.34 37.71 C 30.88 40.70 31.92 43.89 30.68 46.85 C 29.56 47.22 28.41 47.37 27.21 47.28 C 25.49 45.95 24.32 44.09 23.24 42.24 C 23.64 39.90 22.84 36.71 25.48 35.47 M 25.48 38.17 C 25.65 40.86 24.57 45.86 28.60 46.07 C 28.24 43.51 27.97 40.91 27.25 38.42 L 25.48 38.17 Z" />
<path fill="#edddbe" opacity="1.00" d=" M 42.11 134.93 C 41.47 133.78 39.58 132.02 41.59 131.31 C 41.90 131.76 42.51 132.65 42.81 133.10 C 44.30 135.29 46.82 136.46 48.66 138.33 C 48.57 138.58 48.38 139.10 48.29 139.36 C 46.14 138.03 43.65 137.02 42.11 134.93 Z" />
</g>
<g id="#75756f9d">
<path fill="#75756f" opacity="0.62" d=" M 21.03 36.94 C 21.23 42.05 21.05 47.17 20.49 52.25 L 20.05 52.22 C 20.44 49.23 20.19 46.20 20.25 43.20 C 17.67 46.81 14.73 52.19 18.67 55.99 C 19.80 57.51 20.66 59.23 21.11 61.08 L 20.65 62.27 C 18.63 59.53 17.16 56.34 16.39 53.03 C 16.04 49.03 16.95 44.27 20.57 41.95 C 20.77 40.29 20.95 38.62 21.03 36.94 Z" />
</g>
<g id="#c6ab64ff">
<path fill="#c6ab64" opacity="1.00" d=" M 88.18 37.72 C 92.08 37.01 96.27 35.96 100.09 37.65 C 100.34 37.86 100.83 38.29 101.08 38.51 C 89.95 38.92 79.55 43.99 68.30 43.59 C 66.21 43.31 64.13 42.97 62.05 42.64 C 64.23 42.14 66.42 41.64 68.59 41.10 C 73.67 40.86 78.73 40.40 83.77 39.73 C 85.44 39.61 86.81 38.58 88.18 37.72 Z" />
</g>
<g id="#696961b5">
<path fill="#696961" opacity="0.71" d=" M 112.42 38.27 C 113.09 38.01 114.43 37.49 115.10 37.24 C 114.49 38.51 113.85 39.78 113.18 41.02 C 112.99 40.33 112.61 38.96 112.42 38.27 Z" />
</g>
<g id="#273231ab">
<path fill="#273231" opacity="0.67" d=" M 148.33 37.45 C 149.57 38.17 150.17 39.23 150.13 40.65 C 148.76 40.10 148.16 39.03 148.33 37.45 Z" />
</g>
<g id="#5b5f4fff">
<path fill="#5b5f4f" opacity="1.00" d=" M 25.48 38.17 L 27.25 38.42 C 27.97 40.91 28.24 43.51 28.60 46.07 C 24.57 45.86 25.65 40.86 25.48 38.17 Z" />
</g>
<g id="#5a4f43ff">
<path fill="#5a4f43" opacity="1.00" d=" M 68.30 43.59 C 79.55 43.99 89.95 38.92 101.08 38.51 C 101.93 39.25 102.78 39.98 103.64 40.71 C 101.23 40.89 98.82 41.08 96.43 41.41 L 96.40 41.79 C 96.33 43.05 96.29 44.30 96.29 45.56 C 96.31 46.09 96.36 47.14 96.38 47.66 C 96.42 48.42 96.50 49.93 96.53 50.68 L 95.16 50.31 C 93.25 48.90 91.54 47.24 89.76 45.67 C 90.99 45.60 92.23 45.52 93.46 45.45 C 93.86 44.12 94.25 42.80 94.64 41.47 C 91.31 41.94 88.17 43.24 84.87 43.87 C 82.96 44.25 81.04 44.61 79.11 44.92 C 76.70 45.16 74.33 45.67 72.04 46.46 C 75.93 48.73 82.08 51.88 80.60 57.32 C 80.07 56.08 79.51 54.86 78.96 53.64 C 76.43 54.17 73.80 54.56 71.30 53.65 C 71.59 51.75 71.58 49.82 71.55 47.91 C 70.01 47.47 68.47 47.03 66.93 46.58 C 66.11 46.88 65.29 47.18 64.46 47.48 C 62.17 46.01 59.46 46.40 56.98 47.09 C 52.95 47.63 48.89 47.97 44.88 48.69 L 45.26 46.91 C 52.79 44.80 60.60 44.57 68.30 43.59 Z" />
</g>
<g id="#946735ff">
<path fill="#946735" opacity="1.00" d=" M 84.87 43.87 C 88.17 43.24 91.31 41.94 94.64 41.47 C 94.25 42.80 93.86 44.12 93.46 45.45 C 92.23 45.52 90.99 45.60 89.76 45.67 L 89.26 45.25 C 87.95 44.38 86.47 43.80 84.87 43.87 Z" />
</g>
<g id="#3d4d4d9b">
<path fill="#3d4d4d" opacity="0.61" d=" M 150.35 41.22 C 150.41 41.36 150.54 41.65 150.60 41.79 C 150.54 41.65 150.41 41.36 150.35 41.22 Z" />
</g>
<g id="#f7d8a2ff">
<path fill="#f7d8a2" opacity="1.00" d=" M 96.40 41.79 C 101.87 41.15 107.34 41.69 112.77 42.39 C 113.60 42.29 115.27 42.08 116.10 41.98 C 115.81 42.53 115.22 43.62 114.92 44.17 C 112.10 44.12 109.23 44.16 106.53 45.13 C 103.31 45.80 100.01 45.75 96.73 45.66 L 96.29 45.56 C 96.29 44.30 96.33 43.05 96.40 41.79 Z" />
</g>
<g id="#bd9f8aff">
<path fill="#bd9f8a" opacity="1.00" d=" M 116.10 41.98 C 120.26 43.03 124.31 44.72 127.96 46.99 C 125.27 48.00 122.63 46.60 120.02 46.03 C 115.64 44.81 111.04 44.59 106.53 45.13 C 109.23 44.16 112.10 44.12 114.92 44.17 C 115.22 43.62 115.81 42.53 116.10 41.98 Z" />
</g>
<g id="#605849ff">
<path fill="#605849" opacity="1.00" d=" M 24.61 49.58 C 22.36 47.78 21.08 44.70 23.24 42.24 C 24.32 44.09 25.49 45.95 27.21 47.28 C 28.34 48.11 29.47 48.98 30.76 49.54 C 32.28 49.52 33.70 48.84 35.15 48.48 C 38.47 47.66 41.89 47.38 45.26 46.91 L 44.88 48.69 C 40.32 49.64 35.85 50.97 31.52 52.69 C 28.80 53.88 25.90 54.76 23.41 56.40 C 22.44 57.85 21.79 59.48 21.11 61.08 C 20.66 59.23 19.80 57.51 18.67 55.99 C 19.14 54.74 19.60 53.48 20.05 52.22 L 20.49 52.25 C 20.78 52.26 21.37 52.30 21.66 52.31 C 22.68 51.44 23.64 50.51 24.61 49.58 Z" />
</g>
<g id="#fdfffeff">
<path fill="#fdfffe" opacity="1.00" d=" M 18.67 55.99 C 14.73 52.19 17.67 46.81 20.25 43.20 C 20.19 46.20 20.44 49.23 20.05 52.22 C 19.60 53.48 19.14 54.74 18.67 55.99 Z" />
</g>
<g id="#e8ca6fff">
<path fill="#e8ca6f" opacity="1.00" d=" M 79.11 44.92 C 81.04 44.61 82.96 44.25 84.87 43.87 C 86.47 43.80 87.95 44.38 89.26 45.25 C 85.64 45.68 82.07 46.49 78.74 47.99 C 78.36 47.49 77.59 46.49 77.21 45.99 C 77.69 45.72 78.63 45.19 79.11 44.92 Z" />
</g>
<g id="#9c8069ff">
<path fill="#9c8069" opacity="1.00" d=" M 72.04 46.46 C 74.33 45.67 76.70 45.16 79.11 44.92 C 78.63 45.19 77.69 45.72 77.21 45.99 C 77.59 46.49 78.36 47.49 78.74 47.99 C 81.04 51.37 84.74 54.29 84.72 58.73 C 83.69 58.35 82.67 57.97 81.65 57.58 C 81.12 58.46 80.60 59.35 80.09 60.24 C 80.22 59.51 80.47 58.05 80.60 57.32 C 82.08 51.88 75.93 48.73 72.04 46.46 Z" />
</g>
<g id="#765c52ff">
<path fill="#765c52" opacity="1.00" d=" M 96.73 45.66 C 100.01 45.75 103.31 45.80 106.53 45.13 C 111.04 44.59 115.64 44.81 120.02 46.03 C 122.63 46.60 125.27 48.00 127.96 46.99 C 128.92 47.63 129.86 48.28 130.82 48.93 C 129.32 53.16 124.06 53.35 120.50 54.95 C 119.33 55.16 116.98 55.56 115.80 55.77 L 116.89 54.30 C 120.19 53.06 123.60 52.05 126.61 50.15 C 122.59 48.30 117.64 45.74 113.68 49.16 C 111.79 48.99 109.89 48.87 107.99 48.78 C 108.57 48.25 109.16 47.74 109.76 47.22 C 105.46 46.23 100.93 47.18 96.73 45.66 Z" />
<path fill="#765c52" opacity="1.00" d=" M 65.99 61.46 C 68.53 58.17 73.09 59.47 76.49 60.39 C 76.43 62.22 76.51 64.05 76.83 65.85 C 73.65 69.52 70.34 73.61 65.78 75.55 C 67.58 74.42 69.15 72.99 70.68 71.55 C 68.04 71.41 65.39 71.23 62.81 70.60 C 61.44 72.48 59.83 74.35 57.40 74.73 L 56.70 74.08 C 59.21 73.36 61.04 71.44 62.81 69.63 C 66.25 71.56 70.13 70.01 73.07 67.91 C 73.81 66.26 74.22 64.50 74.74 62.77 C 72.11 61.09 68.96 61.27 65.99 61.46 Z" />
</g>
<g id="#f6deb6ff">
<path fill="#f6deb6" opacity="1.00" d=" M 78.74 47.99 C 82.07 46.49 85.64 45.68 89.26 45.25 L 89.76 45.67 C 91.54 47.24 93.25 48.90 95.16 50.31 C 95.67 54.58 95.95 58.93 94.90 63.14 C 89.45 67.49 83.06 70.36 77.14 73.97 C 71.50 76.02 65.78 78.21 61.28 82.32 C 59.27 82.55 57.25 82.60 55.24 82.39 C 58.63 79.93 62.21 77.71 65.78 75.55 C 70.34 73.61 73.65 69.52 76.83 65.85 C 78.03 64.05 79.10 62.17 80.09 60.24 C 80.60 59.35 81.12 58.46 81.65 57.58 C 82.67 57.97 83.69 58.35 84.72 58.73 C 84.74 54.29 81.04 51.37 78.74 47.99 Z" />
</g>
<g id="#643e37ff">
<path fill="#643e37" opacity="1.00" d=" M 96.29 45.56 L 96.73 45.66 C 100.93 47.18 105.46 46.23 109.76 47.22 C 109.16 47.74 108.57 48.25 107.99 48.78 C 107.13 49.61 106.29 50.45 105.46 51.30 L 105.29 51.43 C 103.44 50.56 101.55 49.79 99.66 49.04 C 98.56 48.60 97.47 48.14 96.38 47.66 C 96.36 47.14 96.31 46.09 96.29 45.56 Z" />
</g>
<g id="#e4d3a1ff">
<path fill="#e4d3a1" opacity="1.00" d=" M 44.88 48.69 C 48.89 47.97 52.95 47.63 56.98 47.09 L 57.44 48.28 C 50.42 48.54 43.41 49.60 36.75 51.87 C 35.12 52.32 34.14 53.78 33.01 54.91 C 34.01 56.10 35.00 57.29 36.00 58.47 C 35.42 58.78 34.26 59.38 33.68 59.68 C 30.96 58.32 31.35 55.24 31.52 52.69 C 35.85 50.97 40.32 49.64 44.88 48.69 Z" />
<path fill="#e4d3a1" opacity="1.00" d=" M 14.72 101.42 L 15.77 100.96 C 15.41 102.53 15.01 104.09 14.61 105.65 C 12.67 106.70 12.42 108.64 13.45 110.48 C 13.02 111.29 12.63 112.13 12.22 112.96 C 12.60 113.68 13.36 115.11 13.74 115.83 C 13.53 117.99 12.59 119.97 11.75 121.94 C 12.82 123.33 13.83 124.77 14.74 126.28 C 9.45 125.49 4.03 122.63 2.67 117.05 C 3.12 116.59 4.01 115.67 4.46 115.21 C 6.65 117.15 8.69 120.12 12.05 119.31 C 11.73 116.00 9.35 113.69 5.99 113.58 C 7.58 113.15 9.21 112.98 10.84 112.80 L 11.06 112.04 C 12.29 108.51 12.22 104.41 14.72 101.42 Z" />
</g>
<g id="#faf8cbff">
<path fill="#faf8cb" opacity="1.00" d=" M 56.98 47.09 C 59.46 46.40 62.17 46.01 64.46 47.48 C 65.29 47.18 66.11 46.88 66.93 46.58 C 68.47 47.03 70.01 47.47 71.55 47.91 C 71.58 49.82 71.59 51.75 71.30 53.65 L 70.33 53.96 C 68.47 54.45 66.57 54.16 64.84 53.39 C 64.73 53.09 64.51 52.49 64.39 52.19 C 63.66 50.87 63.68 48.71 62.03 48.13 C 60.50 48.06 58.97 48.19 57.44 48.28 L 56.98 47.09 Z" />
</g>
<g id="#a08c82ff">
<path fill="#a08c82" opacity="1.00" d=" M 113.68 49.16 C 117.64 45.74 122.59 48.30 126.61 50.15 C 123.60 52.05 120.19 53.06 116.89 54.30 C 117.74 52.86 117.70 51.28 117.08 49.78 C 115.60 49.89 114.12 50.02 112.65 50.15 L 113.68 49.16 Z" />
</g>
<g id="#fcfcedff">
<path fill="#fcfced" opacity="1.00" d=" M 57.44 48.28 C 58.97 48.19 60.50 48.06 62.03 48.13 C 63.68 48.71 63.66 50.87 64.39 52.19 C 63.37 54.14 62.57 57.00 60.00 57.31 C 58.62 56.58 57.84 55.21 56.95 54.00 C 54.13 54.90 51.22 55.43 48.27 55.69 C 44.12 56.32 39.99 57.16 36.00 58.47 C 35.00 57.29 34.01 56.10 33.01 54.91 C 34.14 53.78 35.12 52.32 36.75 51.87 C 43.41 49.60 50.42 48.54 57.44 48.28 Z" />
<path fill="#fcfced" opacity="1.00" d=" M 76.07 121.70 L 76.49 121.54 C 77.48 122.95 77.52 124.32 76.61 125.65 C 75.97 125.70 74.69 125.81 74.05 125.86 C 75.19 124.74 75.74 123.24 76.07 121.70 Z" />
</g>
<g id="#f4ce7cff">
<path fill="#f4ce7c" opacity="1.00" d=" M 96.38 47.66 C 97.47 48.14 98.56 48.60 99.66 49.04 C 99.39 50.32 99.12 51.60 98.83 52.88 C 99.31 53.52 99.79 54.16 100.27 54.80 C 100.27 57.80 99.28 60.65 98.38 63.47 C 97.22 63.36 96.06 63.25 94.90 63.14 C 95.95 58.93 95.67 54.58 95.16 50.31 L 96.53 50.68 C 96.50 49.93 96.42 48.42 96.38 47.66 Z" />
</g>
<g id="#906140ff">
<path fill="#906140" opacity="1.00" d=" M 99.66 49.04 C 101.55 49.79 103.44 50.56 105.29 51.43 L 104.69 51.85 C 104.12 52.08 102.97 52.54 102.40 52.77 C 102.16 53.26 101.69 54.22 101.45 54.70 L 100.98 55.72 L 100.27 54.80 C 99.79 54.16 99.31 53.52 98.83 52.88 C 99.12 51.60 99.39 50.32 99.66 49.04 Z" />
</g>
<g id="#c99662ff">
<path fill="#c99662" opacity="1.00" d=" M 105.46 51.30 C 106.29 50.45 107.13 49.61 107.99 48.78 C 109.89 48.87 111.79 48.99 113.68 49.16 L 112.65 50.15 C 111.81 50.42 110.96 50.68 110.11 50.91 C 108.56 51.07 107.01 51.20 105.46 51.30 Z" />
</g>
<g id="#d7bda4ff">
<path fill="#d7bda4" opacity="1.00" d=" M 110.11 50.91 C 110.96 50.68 111.81 50.42 112.65 50.15 C 114.12 50.02 115.60 49.89 117.08 49.78 C 117.70 51.28 117.74 52.86 116.89 54.30 L 115.80 55.77 C 116.98 55.56 119.33 55.16 120.50 54.95 C 118.22 56.08 115.33 57.24 114.71 60.01 C 114.06 65.14 112.18 70.34 108.67 74.22 C 106.57 74.88 104.31 75.45 102.74 77.10 C 101.84 78.52 102.38 80.25 102.42 81.80 L 102.16 81.56 C 101.40 80.79 100.67 79.99 99.93 79.19 C 101.48 77.44 103.09 75.74 104.76 74.09 C 106.14 74.00 107.52 73.92 108.91 73.84 C 110.19 70.79 112.01 67.97 113.03 64.81 C 113.62 61.97 113.83 59.07 114.36 56.22 C 113.61 56.28 112.10 56.40 111.35 56.45 C 109.29 56.57 107.22 56.61 105.16 56.45 C 107.35 56.18 109.47 55.52 111.27 54.21 C 110.88 53.11 110.49 52.01 110.11 50.91 Z" />
</g>
<g id="#f7d79bff">
<path fill="#f7d79b" opacity="1.00" d=" M 105.29 51.43 L 105.46 51.30 C 107.01 51.20 108.56 51.07 110.11 50.91 C 110.49 52.01 110.88 53.11 111.27 54.21 C 109.47 55.52 107.35 56.18 105.16 56.45 C 104.43 55.58 103.71 54.72 102.99 53.86 C 103.55 53.18 104.12 52.51 104.69 51.85 L 105.29 51.43 Z" />
</g>
<g id="#867663ff">
<path fill="#867663" opacity="1.00" d=" M 64.39 52.19 C 64.51 52.49 64.73 53.09 64.84 53.39 C 66.57 54.16 68.47 54.45 70.33 53.96 C 68.38 54.67 66.30 54.80 64.24 54.91 C 63.35 56.07 62.46 57.23 61.59 58.41 C 60.10 58.02 58.61 57.62 57.12 57.20 C 55.26 59.58 53.67 63.61 49.90 62.39 C 49.83 60.07 49.55 57.70 48.27 55.69 C 51.22 55.43 54.13 54.90 56.95 54.00 C 57.84 55.21 58.62 56.58 60.00 57.31 C 62.57 57.00 63.37 54.14 64.39 52.19 Z" />
</g>
<g id="#c3861bff">
<path fill="#c3861b" opacity="1.00" d=" M 102.40 52.77 C 102.97 52.54 104.12 52.08 104.69 51.85 C 104.12 52.51 103.55 53.18 102.99 53.86 C 103.71 54.72 104.43 55.58 105.16 56.45 C 103.91 55.88 102.68 55.30 101.45 54.70 C 101.69 54.22 102.16 53.26 102.40 52.77 Z" />
<path fill="#c3861b" opacity="1.00" d=" M 90.44 114.89 C 92.46 113.72 94.58 112.23 97.06 112.60 C 98.96 112.78 99.23 114.87 99.95 116.23 C 99.24 116.38 97.83 116.69 97.12 116.85 C 95.20 117.48 93.33 118.27 91.47 119.07 C 91.13 117.68 90.79 116.28 90.44 114.89 Z" />
</g>
<g id="#a28c7bff">
<path fill="#a28c7b" opacity="1.00" d=" M 23.41 56.40 C 25.90 54.76 28.80 53.88 31.52 52.69 C 31.35 55.24 30.96 58.32 33.68 59.68 L 33.72 60.03 C 33.39 61.73 32.63 63.30 31.42 64.54 C 30.49 63.54 29.59 62.52 28.75 61.45 C 29.61 61.47 31.33 61.52 32.19 61.55 C 31.47 59.36 31.74 56.38 29.86 54.82 C 29.26 55.11 28.04 55.70 27.43 55.99 C 27.12 56.71 26.82 57.43 26.53 58.16 C 26.13 58.27 25.33 58.49 24.94 58.60 C 25.50 62.54 28.59 65.24 30.59 68.47 C 32.08 75.33 35.48 81.54 38.03 88.02 C 37.33 87.47 36.61 86.95 35.87 86.45 C 35.61 86.50 35.08 86.60 34.82 86.64 L 34.22 86.76 C 32.18 81.31 30.71 75.65 28.86 70.15 C 26.52 67.15 23.68 64.55 20.65 62.27 L 21.11 61.08 C 21.79 59.48 22.44 57.85 23.41 56.40 Z" />
</g>
<g id="#592f26ff">
<path fill="#592f26" opacity="1.00" d=" M 71.30 53.65 C 73.80 54.56 76.43 54.17 78.96 53.64 C 79.51 54.86 80.07 56.08 80.60 57.32 C 80.47 58.05 80.22 59.51 80.09 60.24 C 79.10 62.17 78.03 64.05 76.83 65.85 C 76.51 64.05 76.43 62.22 76.49 60.39 C 73.09 59.47 68.53 58.17 65.99 61.46 C 65.57 61.83 64.72 62.57 64.30 62.94 C 63.31 61.52 61.51 60.34 61.59 58.41 C 62.46 57.23 63.35 56.07 64.24 54.91 C 66.30 54.80 68.38 54.67 70.33 53.96 L 71.30 53.65 Z" />
</g>
<g id="#eae3bcff">
<path fill="#eae3bc" opacity="1.00" d=" M 27.43 55.99 C 28.04 55.70 29.26 55.11 29.86 54.82 C 31.74 56.38 31.47 59.36 32.19 61.55 C 31.33 61.52 29.61 61.47 28.75 61.45 C 27.56 59.85 27.27 57.93 27.43 55.99 Z" />
</g>
<g id="#d3a758ff">
<path fill="#d3a758" opacity="1.00" d=" M 100.27 54.80 L 100.98 55.72 C 102.07 57.46 102.92 59.34 103.61 61.27 C 101.91 62.63 99.97 63.63 98.02 64.57 L 98.38 63.47 C 99.28 60.65 100.27 57.80 100.27 54.80 Z" />
</g>
<g id="#5d463bff">
<path fill="#5d463b" opacity="1.00" d=" M 100.98 55.72 L 101.45 54.70 C 102.68 55.30 103.91 55.88 105.16 56.45 C 107.22 56.61 109.29 56.57 111.35 56.45 C 110.36 57.38 109.37 58.31 108.40 59.25 C 106.93 60.68 105.43 62.06 103.86 63.38 C 103.80 62.85 103.67 61.80 103.61 61.27 C 102.92 59.34 102.07 57.46 100.98 55.72 Z" />
</g>
<g id="#83523eff">
<path fill="#83523e" opacity="1.00" d=" M 26.53 58.16 C 26.82 57.43 27.12 56.71 27.43 55.99 C 27.27 57.93 27.56 59.85 28.75 61.45 C 29.59 62.52 30.49 63.54 31.42 64.54 C 32.23 65.21 33.07 65.84 33.91 66.49 C 33.24 67.84 32.56 69.20 31.87 70.55 C 31.55 70.03 30.91 68.99 30.59 68.47 C 28.59 65.24 25.50 62.54 24.94 58.60 C 25.33 58.49 26.13 58.27 26.53 58.16 Z" />
</g>
<g id="#6b4131ff">
<path fill="#6b4131" opacity="1.00" d=" M 57.12 57.20 C 58.61 57.62 60.10 58.02 61.59 58.41 C 61.51 60.34 63.31 61.52 64.30 62.94 C 62.38 63.91 60.15 63.47 58.10 63.93 C 56.42 64.57 55.06 65.78 53.72 66.94 C 52.83 68.29 52.07 69.74 51.46 71.24 C 50.02 70.64 48.59 70.05 47.16 69.46 C 47.36 67.37 47.76 65.27 48.74 63.39 C 49.03 63.14 49.61 62.64 49.90 62.39 C 53.67 63.61 55.26 59.58 57.12 57.20 Z" />
</g>
<g id="#343a32ff">
<path fill="#343a32" opacity="1.00" d=" M 111.35 56.45 C 112.10 56.40 113.61 56.28 114.36 56.22 C 113.83 59.07 113.62 61.97 113.03 64.81 C 112.01 67.97 110.19 70.79 108.91 73.84 C 107.52 73.92 106.14 74.00 104.76 74.09 C 104.92 73.54 105.25 72.45 105.41 71.90 C 107.54 68.02 108.29 63.64 108.40 59.25 C 109.37 58.31 110.36 57.38 111.35 56.45 Z" />
</g>
<g id="#786d61ff">
<path fill="#786d61" opacity="1.00" d=" M 103.86 63.38 C 105.43 62.06 106.93 60.68 108.40 59.25 C 108.29 63.64 107.54 68.02 105.41 71.90 C 102.92 73.90 100.55 76.10 97.73 77.63 C 95.25 78.99 92.43 77.71 89.85 77.36 C 94.95 76.54 98.90 72.91 103.02 70.10 C 103.83 67.97 103.73 65.62 103.86 63.38 Z" />
<path fill="#786d61" opacity="1.00" d=" M 73.13 105.35 C 73.72 104.53 74.32 103.73 74.94 102.93 C 74.81 103.30 74.56 104.04 74.44 104.41 C 73.69 106.61 72.82 108.77 71.99 110.94 C 71.46 112.04 70.87 113.13 70.30 114.21 C 68.36 114.94 66.46 115.76 64.67 116.79 C 63.52 117.41 62.42 118.10 61.29 118.76 C 61.33 116.79 61.39 114.83 61.39 112.86 C 62.17 113.62 62.99 114.35 63.82 115.05 L 64.49 115.54 C 65.98 115.39 66.98 114.19 68.00 113.23 C 68.49 112.86 69.46 112.12 69.95 111.75 C 69.64 110.73 69.32 109.72 68.98 108.71 C 71.56 109.80 72.24 107.06 73.13 105.35 Z" />
</g>
<g id="#816a57ff">
<path fill="#816a57" opacity="1.00" d=" M 31.42 64.54 C 32.63 63.30 33.39 61.73 33.72 60.03 C 33.88 61.19 34.06 62.36 34.24 63.52 C 36.50 63.70 38.77 63.86 41.05 63.86 C 39.67 64.43 38.30 65.03 36.94 65.63 C 39.42 67.65 42.64 67.86 45.68 68.23 C 45.57 68.67 45.35 69.55 45.23 69.99 C 42.96 69.54 40.68 69.10 38.39 68.74 C 35.99 68.87 34.42 70.71 32.90 72.33 C 32.64 71.88 32.13 71.00 31.87 70.55 C 32.56 69.20 33.24 67.84 33.91 66.49 C 33.07 65.84 32.23 65.21 31.42 64.54 Z" />
</g>
<g id="#f5a95bff">
<path fill="#f5a95b" opacity="1.00" d=" M 65.99 61.46 C 68.96 61.27 72.11 61.09 74.74 62.77 C 74.22 64.50 73.81 66.26 73.07 67.91 C 70.13 70.01 66.25 71.56 62.81 69.63 C 61.04 71.44 59.21 73.36 56.70 74.08 C 55.64 73.90 54.59 73.74 53.54 73.58 C 53.61 71.37 53.68 69.15 53.72 66.94 C 55.06 65.78 56.42 64.57 58.10 63.93 C 60.15 63.47 62.38 63.91 64.30 62.94 C 64.72 62.57 65.57 61.83 65.99 61.46 M 65.22 67.69 C 68.73 68.04 70.18 64.59 71.16 61.86 C 67.64 61.08 65.53 64.68 65.22 67.69 Z" />
<path fill="#f5a95b" opacity="1.00" d=" M 24.43 135.81 C 25.94 135.50 27.42 134.50 28.99 134.90 C 30.57 135.84 31.89 137.14 33.31 138.29 C 30.07 138.93 27.17 137.28 24.43 135.81 Z" />
</g>
<g id="#ab8974ff">
<path fill="#ab8974" opacity="1.00" d=" M 103.61 61.27 C 103.67 61.80 103.80 62.85 103.86 63.38 C 103.73 65.62 103.83 67.97 103.02 70.10 C 98.90 72.91 94.95 76.54 89.85 77.36 C 87.51 76.98 85.13 76.79 82.76 76.90 C 87.50 72.34 93.69 69.57 98.02 64.57 C 99.97 63.63 101.91 62.63 103.61 61.27 Z" />
</g>
<g id="#fbf28cff">
<path fill="#fbf28c" opacity="1.00" d=" M 65.22 67.69 C 65.53 64.68 67.64 61.08 71.16 61.86 C 70.18 64.59 68.73 68.04 65.22 67.69 Z" />
</g>
<g id="#805640ff">
<path fill="#805640" opacity="1.00" d=" M 41.05 63.86 C 41.59 63.65 42.68 63.23 43.23 63.02 C 45.06 63.17 46.89 63.34 48.74 63.39 C 47.76 65.27 47.36 67.37 47.16 69.46 C 48.59 70.05 50.02 70.64 51.46 71.24 C 51.06 72.71 50.71 74.19 50.39 75.68 C 50.08 74.74 49.45 72.87 49.14 71.93 C 47.39 72.67 46.04 73.87 45.58 75.76 C 45.13 75.44 44.25 74.80 43.80 74.48 C 43.55 74.70 43.04 75.14 42.79 75.36 C 42.02 76.48 41.31 77.64 40.69 78.85 C 40.47 79.96 40.28 81.08 40.09 82.21 C 36.72 81.06 35.73 77.50 34.21 74.67 C 35.83 75.18 37.40 75.83 38.97 76.49 C 39.75 75.85 40.54 75.21 41.34 74.59 C 42.81 73.83 44.33 73.18 45.84 72.52 C 45.64 71.68 45.44 70.83 45.23 69.99 C 45.35 69.55 45.57 68.67 45.68 68.23 C 42.64 67.86 39.42 67.65 36.94 65.63 C 38.30 65.03 39.67 64.43 41.05 63.86 Z" />
</g>
<g id="#d5c09cff">
<path fill="#d5c09c" opacity="1.00" d=" M 77.14 73.97 C 83.06 70.36 89.45 67.49 94.90 63.14 C 96.06 63.25 97.22 63.36 98.38 63.47 L 98.02 64.57 C 93.69 69.57 87.50 72.34 82.76 76.90 C 81.96 77.35 81.15 77.79 80.34 78.22 C 76.53 78.39 73.55 80.95 71.36 83.86 C 70.90 83.05 70.43 82.25 69.96 81.44 C 67.25 82.87 64.23 83.36 61.28 82.32 C 65.78 78.21 71.50 76.02 77.14 73.97 Z" />
<path fill="#d5c09c" opacity="1.00" d=" M 34.22 86.76 L 34.82 86.64 C 36.96 91.25 39.25 95.80 40.91 100.61 C 39.95 101.26 38.99 101.93 38.07 102.64 C 37.29 102.15 36.52 101.66 35.73 101.20 L 37.64 103.49 C 37.52 104.49 37.28 106.50 37.16 107.51 L 35.26 106.58 L 34.98 105.02 C 35.17 103.40 35.32 101.77 35.33 100.13 L 33.83 100.09 C 33.44 100.11 32.65 100.16 32.25 100.19 C 31.16 99.10 30.06 98.02 28.95 96.96 C 32.87 97.00 36.27 99.19 39.97 100.18 C 37.89 95.78 35.80 91.37 34.22 86.76 Z" />
</g>
<g id="#b48c66ff">
<path fill="#b48c66" opacity="1.00" d=" M 51.46 71.24 C 52.07 69.74 52.83 68.29 53.72 66.94 C 53.68 69.15 53.61 71.37 53.54 73.58 C 54.59 73.74 55.64 73.90 56.70 74.08 L 57.40 74.73 C 55.05 75.37 52.66 75.88 50.29 76.43 L 50.39 75.68 C 50.71 74.19 51.06 72.71 51.46 71.24 Z" />
</g>
<g id="#e4d08aff">
<path fill="#e4d08a" opacity="1.00" d=" M 38.03 88.02 C 35.48 81.54 32.08 75.33 30.59 68.47 C 30.91 68.99 31.55 70.03 31.87 70.55 C 32.13 71.00 32.64 71.88 32.90 72.33 C 33.34 73.11 33.78 73.88 34.21 74.67 C 35.73 77.50 36.72 81.06 40.09 82.21 C 40.28 81.08 40.47 79.96 40.69 78.85 C 40.98 79.49 41.55 80.76 41.84 81.40 C 45.27 81.99 48.75 81.83 52.21 81.56 C 53.18 81.87 54.15 82.65 55.24 82.39 C 57.25 82.60 59.27 82.55 61.28 82.32 C 64.23 83.36 67.25 82.87 69.96 81.44 C 70.43 82.25 70.90 83.05 71.36 83.86 C 70.58 84.98 69.83 86.13 69.09 87.29 C 68.06 87.44 67.03 87.58 66.00 87.72 C 59.12 88.67 51.94 89.21 45.37 86.51 L 44.72 87.26 C 43.74 88.45 42.81 89.67 41.88 90.89 C 40.50 90.08 39.18 89.15 38.03 88.02 Z" />
</g>
<g id="#a1886eff">
<path fill="#a1886e" opacity="1.00" d=" M 32.90 72.33 C 34.42 70.71 35.99 68.87 38.39 68.74 C 39.35 70.70 40.33 72.65 41.34 74.59 C 40.54 75.21 39.75 75.85 38.97 76.49 C 37.40 75.83 35.83 75.18 34.21 74.67 C 33.78 73.88 33.34 73.11 32.90 72.33 Z" />
</g>
<g id="#b98659ff">
<path fill="#b98659" opacity="1.00" d=" M 38.39 68.74 C 40.68 69.10 42.96 69.54 45.23 69.99 C 45.44 70.83 45.64 71.68 45.84 72.52 C 44.33 73.18 42.81 73.83 41.34 74.59 C 40.33 72.65 39.35 70.70 38.39 68.74 Z" />
</g>
<g id="#fdfdfcff">
<path fill="#fdfdfc" opacity="1.00" d=" M 57.40 74.73 C 59.83 74.35 61.44 72.48 62.81 70.60 C 65.39 71.23 68.04 71.41 70.68 71.55 C 69.15 72.99 67.58 74.42 65.78 75.55 C 62.21 77.71 58.63 79.93 55.24 82.39 C 54.15 82.65 53.18 81.87 52.21 81.56 C 48.75 81.83 45.27 81.99 41.84 81.40 C 41.55 80.76 40.98 79.49 40.69 78.85 C 41.31 77.64 42.02 76.48 42.79 75.36 C 43.25 75.94 44.17 77.10 44.64 77.68 C 46.52 77.26 48.40 76.85 50.29 76.43 C 52.66 75.88 55.05 75.37 57.40 74.73 Z" />
</g>
<g id="#4a4534ff">
<path fill="#4a4534" opacity="1.00" d=" M 97.73 77.63 C 100.55 76.10 102.92 73.90 105.41 71.90 C 105.25 72.45 104.92 73.54 104.76 74.09 C 103.09 75.74 101.48 77.44 99.93 79.19 C 100.67 79.99 101.40 80.79 102.16 81.56 C 100.40 83.52 98.09 84.78 95.85 86.10 C 96.68 88.51 98.24 90.55 99.67 92.63 C 98.67 92.61 97.67 92.59 96.68 92.58 C 97.65 96.76 102.76 99.02 102.48 103.51 C 98.95 99.33 94.53 95.81 89.31 94.02 C 89.80 95.55 90.83 97.03 90.74 98.67 C 90.11 99.59 89.46 100.48 88.77 101.36 C 88.81 99.70 89.50 97.92 88.85 96.32 C 87.12 93.93 84.09 93.26 81.31 93.21 C 80.19 93.13 79.07 93.04 77.95 92.95 C 77.20 90.23 76.59 87.47 76.05 84.70 C 77.14 82.34 78.54 80.11 80.34 78.22 C 81.15 77.79 81.96 77.35 82.76 76.90 C 85.13 76.79 87.51 76.98 89.85 77.36 C 92.43 77.71 95.25 78.99 97.73 77.63 M 81.52 81.24 C 81.30 81.37 80.88 81.61 80.66 81.73 C 78.33 84.19 78.70 87.83 78.84 90.95 L 78.25 92.36 C 82.23 91.64 86.24 92.02 90.16 92.85 C 89.29 91.77 88.56 90.40 87.11 90.04 C 87.19 89.41 87.37 88.15 87.45 87.52 C 89.14 87.24 90.85 87.03 92.50 86.54 C 94.40 85.16 93.32 82.65 92.51 80.96 L 91.99 79.68 L 91.39 80.39 C 88.78 77.48 83.50 77.83 81.52 81.24 Z" />
</g>
<g id="#cdbea8ff">
<path fill="#cdbea8" opacity="1.00" d=" M 45.58 75.76 C 46.04 73.87 47.39 72.67 49.14 71.93 C 49.45 72.87 50.08 74.74 50.39 75.68 L 50.29 76.43 C 48.40 76.85 46.52 77.26 44.64 77.68 C 44.17 77.10 43.25 75.94 42.79 75.36 C 43.04 75.14 43.55 74.70 43.80 74.48 C 44.25 74.80 45.13 75.44 45.58 75.76 Z" />
</g>
<g id="#c29b5dff">
<path fill="#c29b5d" opacity="1.00" d=" M 71.36 83.86 C 73.55 80.95 76.53 78.39 80.34 78.22 C 78.54 80.11 77.14 82.34 76.05 84.70 C 74.40 85.57 72.72 86.40 70.94 86.98 C 70.48 87.06 69.55 87.21 69.09 87.29 C 69.83 86.13 70.58 84.98 71.36 83.86 Z" />
<path fill="#c29b5d" opacity="1.00" d=" M 53.97 106.20 L 54.89 106.09 C 56.28 107.22 57.64 108.40 58.94 109.63 C 56.78 110.05 54.71 110.89 53.04 112.35 C 53.41 110.31 53.67 108.25 53.97 106.20 Z" />
</g>
<g id="#d0be48ff">
<path fill="#d0be48" opacity="1.00" d=" M 81.52 81.24 C 83.50 77.83 88.78 77.48 91.39 80.39 C 91.05 80.90 90.36 81.92 90.01 82.43 C 87.20 82.65 83.57 83.88 81.52 81.24 Z" />
<path fill="#d0be48" opacity="1.00" d=" M 62.86 133.01 C 65.75 131.68 68.66 130.30 71.14 128.27 C 69.37 131.24 66.04 132.30 62.86 133.01 Z" />
</g>
<g id="#a48d3bff">
<path fill="#a48d3b" opacity="1.00" d=" M 91.39 80.39 L 91.99 79.68 L 92.51 80.96 C 92.24 81.57 91.68 82.81 91.40 83.43 C 87.77 84.75 84.10 85.96 80.35 86.93 C 80.44 85.20 80.52 83.46 80.66 81.73 C 80.88 81.61 81.30 81.37 81.52 81.24 C 83.57 83.88 87.20 82.65 90.01 82.43 C 90.36 81.92 91.05 80.90 91.39 80.39 Z" />
</g>
<g id="#877340ff">
<path fill="#877340" opacity="1.00" d=" M 92.51 80.96 C 93.32 82.65 94.40 85.16 92.50 86.54 C 90.85 87.03 89.14 87.24 87.45 87.52 C 87.37 88.15 87.19 89.41 87.11 90.04 C 84.34 89.47 81.13 88.76 78.84 90.95 C 78.70 87.83 78.33 84.19 80.66 81.73 C 80.52 83.46 80.44 85.20 80.35 86.93 C 84.10 85.96 87.77 84.75 91.40 83.43 C 91.68 82.81 92.24 81.57 92.51 80.96 Z" />
</g>
<g id="#36382fff">
<path fill="#36382f" opacity="1.00" d=" M 95.85 86.10 C 98.09 84.78 100.40 83.52 102.16 81.56 L 102.42 81.80 C 102.78 82.10 103.51 82.70 103.87 82.99 C 102.91 84.72 101.95 86.45 101.06 88.21 C 102.88 92.88 104.75 97.54 106.81 102.12 C 110.64 111.20 115.98 119.59 118.99 129.02 C 121.89 135.61 123.34 142.67 124.67 149.70 C 124.56 152.82 124.24 155.93 124.00 159.05 C 120.88 159.27 115.24 160.60 115.07 155.91 C 114.87 149.17 113.21 142.47 114.08 135.72 C 116.43 142.61 114.73 150.06 116.83 156.97 C 117.24 159.08 119.94 158.07 121.39 158.41 C 120.97 152.93 119.79 147.55 119.37 142.07 C 119.05 137.33 116.68 133.14 115.30 128.69 C 116.35 124.56 112.39 121.60 111.04 118.04 C 108.93 112.76 104.80 108.66 102.48 103.51 C 102.76 99.02 97.65 96.76 96.68 92.58 C 97.67 92.59 98.67 92.61 99.67 92.63 C 98.24 90.55 96.68 88.51 95.85 86.10 Z" />
</g>
<g id="#4f5742b1">
<path fill="#4f5742" opacity="0.69" d=" M 103.87 82.99 C 104.17 83.24 104.77 83.74 105.06 83.98 C 103.99 85.62 102.57 86.98 101.06 88.21 C 101.95 86.45 102.91 84.72 103.87 82.99 Z" />
</g>
<g id="#352c23ff">
<path fill="#352c23" opacity="1.00" d=" M 76.05 84.70 C 76.59 87.47 77.20 90.23 77.95 92.95 C 79.07 93.04 80.19 93.13 81.31 93.21 C 80.94 93.53 80.20 94.15 79.83 94.47 C 77.87 97.09 76.44 100.04 74.94 102.93 C 74.32 103.73 73.72 104.53 73.13 105.35 C 70.59 105.20 68.05 105.23 65.51 105.31 C 65.38 103.10 64.61 101.06 62.40 100.19 C 64.07 96.03 69.00 94.25 70.11 89.81 C 70.40 88.87 70.67 87.93 70.94 86.98 C 72.72 86.40 74.40 85.57 76.05 84.70 Z" />
<path fill="#352c23" opacity="1.00" d=" M 83.25 170.68 C 86.39 170.10 89.62 170.26 92.49 171.78 C 89.35 172.55 85.81 173.23 83.25 170.68 Z" />
</g>
<g id="#726238ff">
<path fill="#726238" opacity="1.00" d=" M 34.82 86.64 C 35.08 86.60 35.61 86.50 35.87 86.45 C 36.61 86.95 37.33 87.47 38.03 88.02 C 39.18 89.15 40.50 90.08 41.88 90.89 C 42.81 89.67 43.74 88.45 44.72 87.26 C 45.40 87.49 46.76 87.94 47.44 88.17 C 46.92 89.73 46.40 91.28 45.93 92.85 C 45.87 96.55 43.61 101.65 47.10 104.32 C 50.26 105.44 52.02 101.61 53.77 99.66 C 55.45 96.78 58.55 95.46 61.47 94.21 C 64.21 93.13 64.95 90.16 66.00 87.72 C 67.03 87.58 68.06 87.44 69.09 87.29 C 69.55 87.21 70.48 87.06 70.94 86.98 C 70.67 87.93 70.40 88.87 70.11 89.81 C 66.60 92.72 63.21 95.78 59.83 98.84 C 58.44 100.29 56.34 100.38 54.49 100.73 C 53.92 101.73 53.35 102.74 52.74 103.73 C 52.03 104.42 51.31 105.09 50.57 105.74 C 49.57 106.38 48.80 107.20 48.24 108.22 C 45.82 105.63 45.20 100.61 40.91 100.61 C 39.25 95.80 36.96 91.25 34.82 86.64 Z" />
</g>
<g id="#8d7839ff">
<path fill="#8d7839" opacity="1.00" d=" M 45.37 86.51 C 51.94 89.21 59.12 88.67 66.00 87.72 C 64.95 90.16 64.21 93.13 61.47 94.21 C 62.16 92.79 62.32 90.31 60.02 90.57 C 55.33 90.76 50.07 90.23 45.93 92.85 C 46.40 91.28 46.92 89.73 47.44 88.17 C 46.76 87.94 45.40 87.49 44.72 87.26 L 45.37 86.51 Z" />
</g>
<g id="#9c8339ff">
<path fill="#9c8339" opacity="1.00" d=" M 78.84 90.95 C 81.13 88.76 84.34 89.47 87.11 90.04 C 88.56 90.40 89.29 91.77 90.16 92.85 C 86.24 92.02 82.23 91.64 78.25 92.36 L 78.84 90.95 Z" />
</g>
<g id="#4c4333ff">
<path fill="#4c4333" opacity="1.00" d=" M 59.83 98.84 C 63.21 95.78 66.60 92.72 70.11 89.81 C 69.00 94.25 64.07 96.03 62.40 100.19 C 64.61 101.06 65.38 103.10 65.51 105.31 C 68.05 105.23 70.59 105.20 73.13 105.35 C 72.24 107.06 71.56 109.80 68.98 108.71 C 68.77 108.48 68.33 108.01 68.11 107.78 C 66.76 109.66 65.48 111.58 64.18 113.50 L 63.58 113.93 C 63.86 110.05 63.20 106.25 60.56 103.27 C 58.62 104.10 56.74 105.08 54.89 106.09 L 53.97 106.20 C 53.66 105.58 53.05 104.35 52.74 103.73 C 53.35 102.74 53.92 101.73 54.49 100.73 C 56.34 100.38 58.44 100.29 59.83 98.84 Z" />
</g>
<g id="#c3a524ff">
<path fill="#c3a524" opacity="1.00" d=" M 45.93 92.85 C 50.07 90.23 55.33 90.76 60.02 90.57 C 62.32 90.31 62.16 92.79 61.47 94.21 C 58.55 95.46 55.45 96.78 53.77 99.66 C 52.02 101.61 50.26 105.44 47.10 104.32 C 43.61 101.65 45.87 96.55 45.93 92.85 Z" />
</g>
<g id="#ab9472ff">
<path fill="#ab9472" opacity="1.00" d=" M 14.72 101.42 C 17.25 98.44 20.14 95.81 23.00 93.15 C 24.34 93.42 25.69 93.69 27.04 93.96 C 27.33 94.92 27.62 95.89 27.91 96.85 C 27.59 97.37 26.95 98.43 26.63 98.96 L 26.23 98.45 C 25.08 97.13 23.50 96.36 21.99 95.54 C 20.28 96.75 18.17 97.79 17.72 100.05 C 17.23 100.28 16.26 100.73 15.77 100.96 L 14.72 101.42 Z" />
</g>
<g id="#a07856ff">
<path fill="#a07856" opacity="1.00" d=" M 79.83 94.47 C 80.20 94.15 80.94 93.53 81.31 93.21 C 84.09 93.26 87.12 93.93 88.85 96.32 C 89.50 97.92 88.81 99.70 88.77 101.36 C 88.10 102.42 87.46 103.49 86.83 104.57 C 84.10 108.05 82.24 112.10 79.64 115.66 C 78.38 117.49 76.94 119.31 76.49 121.54 L 76.07 121.70 C 69.71 124.97 62.41 125.52 56.11 128.93 C 54.51 131.60 52.76 134.18 51.25 136.90 L 50.97 135.77 C 50.71 134.28 50.05 132.92 49.21 131.68 C 50.72 131.56 52.23 131.32 53.73 131.06 C 53.59 130.50 53.32 129.38 53.19 128.82 C 53.09 128.24 52.89 127.09 52.78 126.52 C 52.92 126.24 53.18 125.69 53.31 125.41 C 54.83 125.80 56.38 126.96 58.00 126.38 C 62.35 125.26 66.53 123.52 70.46 121.36 C 72.21 120.51 73.92 119.56 75.49 118.41 C 78.03 114.80 80.32 111.03 82.41 107.15 C 84.52 103.71 86.51 99.89 85.62 95.71 C 84.61 93.42 81.72 94.71 79.83 94.47 Z" />
</g>
<g id="#27231cff">
<path fill="#27231c" opacity="1.00" d=" M 89.31 94.02 C 94.53 95.81 98.95 99.33 102.48 103.51 C 104.80 108.66 108.93 112.76 111.04 118.04 C 112.39 121.60 116.35 124.56 115.30 128.69 C 114.47 127.69 113.61 126.70 112.74 125.73 C 112.96 129.08 113.43 132.42 114.08 135.72 C 113.21 142.47 114.87 149.17 115.07 155.91 C 115.24 160.60 120.88 159.27 124.00 159.05 C 124.24 155.93 124.56 152.82 124.67 149.70 C 125.25 153.76 124.96 157.87 124.99 161.96 C 124.25 161.96 122.77 161.95 122.02 161.95 C 122.35 162.95 122.67 163.95 123.00 164.96 C 122.33 166.28 121.66 167.61 120.99 168.94 C 116.70 169.06 112.36 168.57 108.10 169.17 C 104.38 170.74 100.47 172.02 96.38 171.95 C 96.15 171.24 95.70 169.81 95.48 169.09 C 94.61 169.34 93.74 169.59 92.88 169.83 C 90.64 168.35 87.97 168.22 85.38 168.06 C 84.90 167.69 83.93 166.96 83.45 166.60 C 87.49 165.00 91.86 165.00 96.14 164.97 C 98.00 164.94 100.01 164.96 101.51 163.67 L 102.05 163.32 C 103.16 165.19 105.01 164.77 106.31 163.36 C 104.20 159.95 102.12 156.05 102.97 151.92 C 103.58 149.10 102.44 146.42 101.56 143.81 C 104.48 138.53 108.32 133.04 107.63 126.69 C 107.23 126.52 106.41 126.18 106.01 126.01 C 105.97 125.44 105.90 124.31 105.87 123.74 C 107.16 118.07 100.46 117.57 96.52 117.53 L 97.12 116.85 C 97.83 116.69 99.24 116.38 99.95 116.23 L 100.63 116.24 C 101.93 116.25 103.22 116.25 104.52 116.23 C 105.15 110.90 99.22 108.87 95.00 110.40 C 89.87 111.75 85.03 114.77 82.71 119.70 C 82.26 118.29 81.31 116.80 82.27 115.38 C 83.77 111.76 86.52 108.63 86.83 104.57 C 87.46 103.49 88.10 102.42 88.77 101.36 C 89.46 100.48 90.11 99.59 90.74 98.67 C 90.83 97.03 89.80 95.55 89.31 94.02 M 89.22 107.24 C 87.31 107.99 86.90 110.15 86.23 111.85 C 89.03 110.77 92.13 110.10 94.39 108.01 C 92.75 107.49 90.92 106.15 89.22 107.24 M 108.40 148.36 C 106.84 155.07 107.85 162.15 109.72 168.69 C 111.28 168.65 113.96 168.35 113.29 166.07 C 112.47 159.67 111.60 153.22 109.64 147.05 C 109.33 147.38 108.71 148.03 108.40 148.36 Z" />
</g>
<g id="#f7e3b0ff">
<path fill="#f7e3b0" opacity="1.00" d=" M 74.94 102.93 C 76.44 100.04 77.87 97.09 79.83 94.47 C 81.72 94.71 84.61 93.42 85.62 95.71 C 86.51 99.89 84.52 103.71 82.41 107.15 C 80.61 108.27 78.93 109.57 77.41 111.05 C 77.52 108.43 76.38 106.13 74.44 104.41 C 74.56 104.04 74.81 103.30 74.94 102.93 Z" />
</g>
<g id="#cab17eff">
<path fill="#cab17e" opacity="1.00" d=" M 17.72 100.05 C 18.17 97.79 20.28 96.75 21.99 95.54 C 23.50 96.36 25.08 97.13 26.23 98.45 L 25.71 99.82 C 25.52 100.31 25.16 101.30 24.97 101.79 C 23.32 100.91 21.83 99.77 20.53 98.42 C 19.86 99.07 19.18 99.72 18.49 100.36 L 17.72 100.05 Z" />
</g>
<g id="#c18c1aff">
<path fill="#c18c1a" opacity="1.00" d=" M 26.63 98.96 C 26.95 98.43 27.59 97.37 27.91 96.85 C 28.17 96.88 28.69 96.93 28.95 96.96 C 30.06 98.02 31.16 99.10 32.25 100.19 C 32.11 100.64 31.84 101.54 31.70 101.99 C 32.46 104.19 33.81 101.09 33.83 100.09 L 35.33 100.13 C 35.32 101.77 35.17 103.40 34.98 105.02 C 34.83 106.00 34.66 106.97 34.49 107.94 C 31.04 108.65 27.79 110.11 24.83 112.00 C 23.65 113.80 24.38 116.17 24.36 118.20 C 24.67 118.40 25.29 118.78 25.60 118.97 C 25.44 119.46 25.12 120.44 24.96 120.92 C 23.37 118.29 23.81 115.17 23.98 112.26 C 21.64 112.42 19.10 112.39 17.13 113.86 C 14.88 115.29 12.28 118.14 13.93 120.94 C 15.77 125.47 21.57 123.27 25.32 123.38 C 25.46 122.90 25.75 121.93 25.89 121.44 C 29.41 121.74 33.17 121.98 36.44 120.39 C 38.57 119.25 40.22 117.44 42.06 115.91 C 43.05 116.67 44.05 117.44 45.04 118.20 C 44.50 119.89 43.98 121.57 43.47 123.27 C 43.08 122.60 42.68 121.95 42.26 121.31 C 41.57 118.84 39.95 121.23 38.75 121.81 C 35.94 124.20 32.06 124.00 28.61 124.30 C 28.82 124.77 29.23 125.71 29.44 126.18 C 29.41 127.09 29.35 128.90 29.32 129.81 C 27.63 128.01 25.80 125.15 22.98 126.85 C 22.21 127.30 21.75 128.00 21.62 128.96 C 20.55 126.26 17.64 126.02 15.27 127.08 C 15.14 126.88 14.88 126.48 14.74 126.28 C 13.83 124.77 12.82 123.33 11.75 121.94 C 12.59 119.97 13.53 117.99 13.74 115.83 C 15.52 114.32 17.43 112.98 19.50 111.90 C 19.42 110.41 19.31 108.92 19.19 107.44 C 20.27 109.69 21.20 112.69 24.32 111.54 C 24.81 111.21 25.78 110.56 26.26 110.23 C 26.76 108.96 26.27 107.63 26.04 106.37 C 27.59 105.50 29.13 104.61 30.66 103.71 C 30.75 103.19 30.93 102.13 31.02 101.60 C 30.17 101.58 29.32 101.56 28.47 101.55 C 27.86 100.68 27.25 99.82 26.63 98.96 Z" />
</g>
<g id="#f6e7bcff">
<path fill="#f6e7bc" opacity="1.00" d=" M 18.49 100.36 C 19.18 99.72 19.86 99.07 20.53 98.42 C 21.83 99.77 23.32 100.91 24.97 101.79 C 24.94 103.46 25.02 105.13 25.07 106.80 C 24.56 106.08 23.55 104.62 23.04 103.89 C 23.11 105.74 23.21 107.57 23.33 109.42 C 21.25 106.69 18.24 104.12 18.49 100.36 Z" />
</g>
<g id="#9c781fff">
<path fill="#9c781f" opacity="1.00" d=" M 26.23 98.45 L 26.63 98.96 C 27.25 99.82 27.86 100.68 28.47 101.55 C 29.32 101.56 30.17 101.58 31.02 101.60 C 30.93 102.13 30.75 103.19 30.66 103.71 C 29.13 104.61 27.59 105.50 26.04 106.37 C 25.43 104.23 25.22 102.00 25.71 99.82 L 26.23 98.45 Z" />
</g>
<g id="#a2802aff">
<path fill="#a2802a" opacity="1.00" d=" M 15.77 100.96 C 16.26 100.73 17.23 100.28 17.72 100.05 C 18.17 102.08 18.45 104.14 18.71 106.21 C 18.28 106.56 17.41 107.27 16.98 107.63 L 15.82 108.51 C 15.51 107.79 14.91 106.37 14.61 105.65 C 15.01 104.09 15.41 102.53 15.77 100.96 Z" />
</g>
<g id="#efd527ff">
<path fill="#efd527" opacity="1.00" d=" M 17.72 100.05 L 18.49 100.36 C 18.24 104.12 21.25 106.69 23.33 109.42 C 23.21 107.57 23.11 105.74 23.04 103.89 C 23.55 104.62 24.56 106.08 25.07 106.80 C 25.02 105.13 24.94 103.46 24.97 101.79 C 25.16 101.30 25.52 100.31 25.71 99.82 C 25.22 102.00 25.43 104.23 26.04 106.37 C 26.27 107.63 26.76 108.96 26.26 110.23 C 25.82 110.35 24.94 110.58 24.50 110.70 L 24.32 111.54 C 21.20 112.69 20.27 109.69 19.19 107.44 C 18.64 107.48 17.53 107.58 16.98 107.63 C 17.41 107.27 18.28 106.56 18.71 106.21 C 18.45 104.14 18.17 102.08 17.72 100.05 Z" />
<path fill="#efd527" opacity="1.00" d=" M 44.61 112.53 C 44.48 110.50 44.54 108.46 44.93 106.45 C 45.69 108.80 45.29 111.25 45.13 113.64 C 44.09 114.38 43.05 115.11 42.06 115.91 C 40.22 117.44 38.57 119.25 36.44 120.39 C 33.17 121.98 29.41 121.74 25.89 121.44 L 24.96 120.92 C 25.12 120.44 25.44 119.46 25.60 118.97 C 30.29 120.92 35.26 119.27 39.57 117.21 C 38.91 115.50 39.65 113.80 39.88 112.12 C 40.62 112.76 41.35 113.41 42.08 114.06 C 42.14 113.74 42.26 113.10 42.32 112.78 C 42.89 112.72 44.04 112.59 44.61 112.53 Z" />
<path fill="#efd527" opacity="1.00" d=" M 40.16 135.98 C 39.25 133.72 39.17 131.30 40.50 129.19 C 43.06 129.00 42.64 131.56 42.81 133.10 C 42.51 132.65 41.90 131.76 41.59 131.31 C 39.58 132.02 41.47 133.78 42.11 134.93 C 43.65 137.02 46.14 138.03 48.29 139.36 C 47.06 139.38 45.83 139.41 44.61 139.39 C 44.28 139.37 43.64 139.34 43.31 139.32 C 42.28 138.19 41.23 137.07 40.16 135.98 Z" />
<path fill="#efd527" opacity="1.00" d=" M 15.97 132.28 C 16.37 131.93 17.18 131.21 17.59 130.86 C 17.25 132.67 16.77 134.46 16.27 136.23 C 17.32 137.34 18.37 138.44 19.46 139.50 C 19.35 140.24 19.12 141.72 19.01 142.46 C 20.35 143.21 21.67 143.99 23.02 144.72 C 19.15 143.98 17.01 140.54 14.44 137.92 C 14.65 136.83 14.87 135.74 15.12 134.66 C 15.33 134.06 15.76 132.88 15.97 132.28 Z" />
</g>
<g id="#f4e3a9ff">
<path fill="#f4e3a9" opacity="1.00" d=" M 32.25 100.19 C 32.65 100.16 33.44 100.11 33.83 100.09 C 33.81 101.09 32.46 104.19 31.70 101.99 C 31.84 101.54 32.11 100.64 32.25 100.19 Z" />
</g>
<g id="#fcf6ebff">
<path fill="#fcf6eb" opacity="1.00" d=" M 35.73 101.20 C 36.52 101.66 37.29 102.15 38.07 102.64 C 39.53 103.71 40.76 105.78 39.42 107.45 C 37.72 108.80 39.47 110.59 39.88 112.12 C 39.65 113.80 38.91 115.50 39.57 117.21 C 35.26 119.27 30.29 120.92 25.60 118.97 C 25.29 118.78 24.67 118.40 24.36 118.20 C 24.38 116.17 23.65 113.80 24.83 112.00 C 27.79 110.11 31.04 108.65 34.49 107.94 C 34.66 106.97 34.83 106.00 34.98 105.02 L 35.26 106.58 L 37.16 107.51 C 37.28 106.50 37.52 104.49 37.64 103.49 L 35.73 101.20 M 27.15 113.16 C 25.51 113.56 25.24 116.65 27.03 117.00 C 28.59 116.62 28.79 113.51 27.15 113.16 Z" />
<path fill="#fcf6eb" opacity="1.00" d=" M 22.98 126.85 C 25.80 125.15 27.63 128.01 29.32 129.81 C 30.05 130.67 30.76 131.55 31.50 132.40 C 31.13 132.71 30.37 133.32 30.00 133.63 L 29.99 133.62 C 27.46 131.58 25.18 129.25 22.98 126.85 Z" />
</g>
<g id="#deb665ff">
<path fill="#deb665" opacity="1.00" d=" M 40.91 100.61 C 45.20 100.61 45.82 105.63 48.24 108.22 C 48.60 108.92 49.31 110.33 49.66 111.04 C 49.35 111.39 48.73 112.09 48.42 112.45 C 47.48 112.46 46.54 112.46 45.61 112.44 C 45.66 113.05 45.76 114.28 45.81 114.89 C 45.64 114.58 45.30 113.95 45.13 113.64 C 45.29 111.25 45.69 108.80 44.93 106.45 C 44.69 105.31 44.29 104.20 43.94 103.09 C 43.29 103.21 41.99 103.47 41.34 103.60 C 42.36 106.55 43.03 109.66 42.32 112.78 C 42.26 113.10 42.14 113.74 42.08 114.06 C 41.35 113.41 40.62 112.76 39.88 112.12 C 39.47 110.59 37.72 108.80 39.42 107.45 C 40.76 105.78 39.53 103.71 38.07 102.64 C 38.99 101.93 39.95 101.26 40.91 100.61 Z" />
</g>
<g id="#f8efd0ff">
<path fill="#f8efd0" opacity="1.00" d=" M 41.34 103.60 C 41.99 103.47 43.29 103.21 43.94 103.09 C 44.29 104.20 44.69 105.31 44.93 106.45 C 44.54 108.46 44.48 110.50 44.61 112.53 C 44.04 112.59 42.89 112.72 42.32 112.78 C 43.03 109.66 42.36 106.55 41.34 103.60 Z" />
</g>
<g id="#9c6020ff">
<path fill="#9c6020" opacity="1.00" d=" M 54.89 106.09 C 56.74 105.08 58.62 104.10 60.56 103.27 C 63.20 106.25 63.86 110.05 63.58 113.93 C 63.64 114.21 63.76 114.77 63.82 115.05 C 62.99 114.35 62.17 113.62 61.39 112.86 C 61.10 112.41 60.52 111.51 60.24 111.05 C 59.91 110.70 59.27 109.98 58.94 109.63 C 57.64 108.40 56.28 107.22 54.89 106.09 Z" />
</g>
<g id="#f2d17eff">
<path fill="#f2d17e" opacity="1.00" d=" M 74.44 104.41 C 76.38 106.13 77.52 108.43 77.41 111.05 C 76.02 112.53 74.33 113.67 72.31 114.07 C 72.23 113.29 72.07 111.72 71.99 110.94 C 72.82 108.77 73.69 106.61 74.44 104.41 Z" />
</g>
<g id="#47433bff">
<path fill="#47433b" opacity="1.00" d=" M 79.64 115.66 C 82.24 112.10 84.10 108.05 86.83 104.57 C 86.52 108.63 83.77 111.76 82.27 115.38 C 81.31 116.80 82.26 118.29 82.71 119.70 C 82.21 121.30 81.77 122.91 81.31 124.52 C 81.96 124.75 83.27 125.21 83.92 125.43 C 83.64 125.69 83.06 126.19 82.78 126.44 C 81.30 127.06 79.82 127.65 78.33 128.22 C 78.12 128.26 77.72 128.35 77.51 128.39 C 77.66 129.31 77.81 130.23 77.95 131.15 C 72.16 131.79 67.95 136.81 61.99 137.09 C 62.74 136.36 63.49 135.62 64.22 134.88 C 63.06 134.49 61.91 134.10 60.75 133.73 C 61.28 133.55 62.34 133.19 62.86 133.01 C 66.04 132.30 69.37 131.24 71.14 128.27 C 72.08 127.43 73.05 126.63 74.05 125.86 C 74.69 125.81 75.97 125.70 76.61 125.65 C 77.52 124.32 77.48 122.95 76.49 121.54 C 76.94 119.31 78.38 117.49 79.64 115.66 Z" />
</g>
<g id="#cbaf35ff">
<path fill="#cbaf35" opacity="1.00" d=" M 13.45 110.48 C 12.42 108.64 12.67 106.70 14.61 105.65 C 14.91 106.37 15.51 107.79 15.82 108.51 C 15.01 109.14 14.22 109.80 13.45 110.48 Z" />
</g>
<g id="#9f8d66e4">
<path fill="#9f8d66" opacity="0.89" d=" M 48.24 108.22 C 48.80 107.20 49.57 106.38 50.57 105.74 C 50.26 107.41 50.13 109.11 49.89 110.79 L 49.66 111.04 C 49.31 110.33 48.60 108.92 48.24 108.22 Z" />
</g>
<g id="#cab093ff">
<path fill="#cab093" opacity="1.00" d=" M 77.41 111.05 C 78.93 109.57 80.61 108.27 82.41 107.15 C 80.32 111.03 78.03 114.80 75.49 118.41 C 75.27 117.60 74.82 115.97 74.60 115.15 C 71.33 115.93 68.02 116.50 64.67 116.79 C 66.46 115.76 68.36 114.94 70.30 114.21 C 70.87 113.13 71.46 112.04 71.99 110.94 C 72.07 111.72 72.23 113.29 72.31 114.07 C 74.33 113.67 76.02 112.53 77.41 111.05 Z" />
</g>
<g id="#674723ff">
<path fill="#674723" opacity="1.00" d=" M 89.22 107.24 C 90.92 106.15 92.75 107.49 94.39 108.01 C 92.13 110.10 89.03 110.77 86.23 111.85 C 86.90 110.15 87.31 107.99 89.22 107.24 Z" />
</g>
<g id="#fcf9f2ff">
<path fill="#fcf9f2" opacity="1.00" d=" M 15.82 108.51 L 16.98 107.63 C 17.53 107.58 18.64 107.48 19.19 107.44 C 19.31 108.92 19.42 110.41 19.50 111.90 C 17.43 112.98 15.52 114.32 13.74 115.83 C 13.36 115.11 12.60 113.68 12.22 112.96 C 12.63 112.13 13.02 111.29 13.45 110.48 C 14.22 109.80 15.01 109.14 15.82 108.51 Z" />
</g>
<g id="#fbedd0ff">
<path fill="#fbedd0" opacity="1.00" d=" M 24.50 110.70 C 24.94 110.58 25.82 110.35 26.26 110.23 C 25.78 110.56 24.81 111.21 24.32 111.54 L 24.50 110.70 Z" />
</g>
<g id="#f8e078ff">
<path fill="#f8e078" opacity="1.00" d=" M 53.04 112.35 C 54.71 110.89 56.78 110.05 58.94 109.63 C 59.27 109.98 59.91 110.70 60.24 111.05 C 59.94 113.60 59.36 116.09 58.73 118.57 C 58.04 118.66 56.66 118.83 55.96 118.92 C 55.09 115.81 53.14 112.93 49.51 113.07 C 49.57 112.76 49.69 112.14 49.74 111.83 C 50.69 112.31 51.63 112.79 52.57 113.27 L 53.04 112.35 Z" />
</g>
<g id="#6b3318ff">
<path fill="#6b3318" opacity="1.00" d=" M 95.00 110.40 C 99.22 108.87 105.15 110.90 104.52 116.23 C 103.22 116.25 101.93 116.25 100.63 116.24 C 101.00 112.76 98.29 110.47 95.00 110.40 Z" />
</g>
<g id="#8f6a1aff">
<path fill="#8f6a1a" opacity="1.00" d=" M 49.66 111.04 L 49.89 110.79 L 49.74 111.83 C 49.69 112.14 49.57 112.76 49.51 113.07 C 49.21 114.37 48.89 115.67 48.54 116.96 C 48.47 117.48 48.32 118.53 48.25 119.05 C 45.63 118.70 45.74 121.32 45.10 123.07 L 44.78 123.99 C 44.42 124.29 43.72 124.90 43.37 125.20 C 44.17 125.81 44.95 126.43 45.73 127.06 C 45.76 127.60 45.82 128.67 45.85 129.21 C 43.65 127.54 43.63 131.20 45.78 130.97 C 46.92 131.23 48.06 131.47 49.21 131.68 C 50.05 132.92 50.71 134.28 50.97 135.77 C 50.19 136.61 49.42 137.46 48.66 138.33 C 46.82 136.46 44.30 135.29 42.81 133.10 C 42.64 131.56 43.06 129.00 40.50 129.19 C 39.17 131.30 39.25 133.72 40.16 135.98 C 39.81 135.76 39.11 135.34 38.76 135.12 C 38.11 134.16 37.43 133.22 36.70 132.33 C 35.02 131.80 33.22 132.33 31.50 132.40 C 30.76 131.55 30.05 130.67 29.32 129.81 C 29.35 128.90 29.41 127.09 29.44 126.18 C 30.39 127.51 31.62 128.59 32.81 129.70 C 36.74 129.91 40.41 128.09 42.47 124.73 C 42.40 123.59 42.33 122.45 42.26 121.31 C 42.68 121.95 43.08 122.60 43.47 123.27 C 43.98 121.57 44.50 119.89 45.04 118.20 C 45.54 117.90 46.54 117.30 47.05 117.00 C 46.74 116.47 46.12 115.42 45.81 114.89 C 45.76 114.28 45.66 113.05 45.61 112.44 C 46.54 112.46 47.48 112.46 48.42 112.45 C 48.73 112.09 49.35 111.39 49.66 111.04 Z" />
</g>
<g id="#caa25dff">
<path fill="#caa25d" opacity="1.00" d=" M 60.24 111.05 C 60.52 111.51 61.10 112.41 61.39 112.86 C 61.39 114.83 61.33 116.79 61.29 118.76 C 59.50 119.80 57.56 120.52 55.62 121.19 L 55.02 121.42 C 55.25 120.80 55.73 119.54 55.96 118.92 C 56.66 118.83 58.04 118.66 58.73 118.57 C 59.36 116.09 59.94 113.60 60.24 111.05 Z" />
</g>
<g id="#763c19ff">
<path fill="#763c19" opacity="1.00" d=" M 82.71 119.70 C 85.03 114.77 89.87 111.75 95.00 110.40 C 98.29 110.47 101.00 112.76 100.63 116.24 L 99.95 116.23 C 99.23 114.87 98.96 112.78 97.06 112.60 C 94.58 112.23 92.46 113.72 90.44 114.89 C 90.79 116.28 91.13 117.68 91.47 119.07 C 93.33 118.27 95.20 117.48 97.12 116.85 L 96.52 117.53 C 95.65 118.58 94.83 119.66 93.94 120.69 C 93.18 121.04 91.66 121.72 90.90 122.06 C 89.31 122.73 87.87 123.71 86.64 124.93 C 89.92 125.34 93.23 125.50 96.52 125.19 L 96.15 125.73 C 93.77 125.98 91.18 125.89 89.20 127.44 C 87.06 127.09 84.93 126.70 82.78 126.44 C 83.06 126.19 83.64 125.69 83.92 125.43 C 83.27 125.21 81.96 124.75 81.31 124.52 C 81.77 122.91 82.21 121.30 82.71 119.70 Z" />
</g>
<g id="#ceb43cfe">
<path fill="#ceb43c" opacity="1.00" d=" M 1.80 114.94 C 4.70 113.44 7.78 112.30 11.06 112.04 L 10.84 112.80 C 9.21 112.98 7.58 113.15 5.99 113.58 C 5.61 113.99 4.84 114.80 4.46 115.21 C 4.01 115.67 3.12 116.59 2.67 117.05 C 4.03 122.63 9.45 125.49 14.74 126.28 C 14.88 126.48 15.14 126.88 15.27 127.08 C 13.24 127.82 11.07 127.53 8.97 127.45 C 8.68 127.44 8.11 127.43 7.82 127.42 L 6.52 127.41 C 5.20 125.30 2.93 124.00 1.53 121.99 C 1.10 119.65 1.56 117.28 1.80 114.94 Z" />
</g>
<g id="#fcf6e5ff">
<path fill="#fcf6e5" opacity="1.00" d=" M 17.13 113.86 C 19.10 112.39 21.64 112.42 23.98 112.26 C 23.81 115.17 23.37 118.29 24.96 120.92 L 25.89 121.44 C 25.75 121.93 25.46 122.90 25.32 123.38 C 21.57 123.27 15.77 125.47 13.93 120.94 C 12.28 118.14 14.88 115.29 17.13 113.86 Z" />
</g>
<g id="#f8da7fff">
<path fill="#f8da7f" opacity="1.00" d=" M 27.15 113.16 C 28.79 113.51 28.59 116.62 27.03 117.00 C 25.24 116.65 25.51 113.56 27.15 113.16 Z" />
</g>
<g id="#f7f0d6ff">
<path fill="#f7f0d6" opacity="1.00" d=" M 4.46 115.21 C 4.84 114.80 5.61 113.99 5.99 113.58 C 9.35 113.69 11.73 116.00 12.05 119.31 C 8.69 120.12 6.65 117.15 4.46 115.21 Z" />
</g>
<g id="#e9be15ff">
<path fill="#e9be15" opacity="1.00" d=" M 42.06 115.91 C 43.05 115.11 44.09 114.38 45.13 113.64 C 45.30 113.95 45.64 114.58 45.81 114.89 C 46.12 115.42 46.74 116.47 47.05 117.00 C 46.54 117.30 45.54 117.90 45.04 118.20 C 44.05 117.44 43.05 116.67 42.06 115.91 Z" />
</g>
<g id="#c58e13ff">
<path fill="#c58e13" opacity="1.00" d=" M 48.54 116.96 C 48.89 115.67 49.21 114.37 49.51 113.07 C 53.14 112.93 55.09 115.81 55.96 118.92 C 55.73 119.54 55.25 120.80 55.02 121.42 L 54.67 122.28 C 54.26 120.26 54.41 117.72 52.47 116.46 L 52.46 117.38 C 52.05 119.31 51.53 121.27 50.17 122.78 C 50.35 121.43 50.55 120.08 50.77 118.73 L 50.88 118.14 C 50.29 117.84 49.13 117.25 48.54 116.96 Z" />
</g>
<g id="#f9e8adff">
<path fill="#f9e8ad" opacity="1.00" d=" M 64.67 116.79 C 68.02 116.50 71.33 115.93 74.60 115.15 C 74.82 115.97 75.27 117.60 75.49 118.41 C 73.92 119.56 72.21 120.51 70.46 121.36 C 65.69 121.23 61.50 123.79 56.97 124.90 C 56.50 123.67 56.05 122.43 55.62 121.19 C 57.56 120.52 59.50 119.80 61.29 118.76 C 62.42 118.10 63.52 117.41 64.67 116.79 Z" />
</g>
<g id="#efc028ff">
<path fill="#efc028" opacity="1.00" d=" M 48.54 116.96 C 49.13 117.25 50.29 117.84 50.88 118.14 L 50.77 118.73 C 50.14 118.81 48.88 118.97 48.25 119.05 C 48.32 118.53 48.47 117.48 48.54 116.96 Z" />
</g>
<g id="#e4c334ff">
<path fill="#e4c334" opacity="1.00" d=" M 52.47 116.46 C 54.41 117.72 54.26 120.26 54.67 122.28 C 54.44 122.83 53.98 123.93 53.75 124.48 C 52.70 124.32 51.66 124.16 50.61 124.00 C 52.58 122.27 52.94 119.84 52.46 117.38 L 52.47 116.46 Z" />
</g>
<g id="#fbf5edff">
<path fill="#fbf5ed" opacity="1.00" d=" M 52.46 117.38 C 52.94 119.84 52.58 122.27 50.61 124.00 C 48.40 123.17 46.49 124.53 44.69 125.62 L 44.78 123.99 L 45.10 123.07 C 45.74 121.32 45.63 118.70 48.25 119.05 C 48.88 118.97 50.14 118.81 50.77 118.73 C 50.55 120.08 50.35 121.43 50.17 122.78 C 51.53 121.27 52.05 119.31 52.46 117.38 Z" />
</g>
<g id="#774e1cff">
<path fill="#774e1c" opacity="1.00" d=" M 93.94 120.69 C 94.83 119.66 95.65 118.58 96.52 117.53 C 100.46 117.57 107.16 118.07 105.87 123.74 C 102.72 123.97 99.59 124.45 96.52 125.19 C 93.23 125.50 89.92 125.34 86.64 124.93 C 87.87 123.71 89.31 122.73 90.90 122.06 C 94.07 125.24 98.82 122.87 102.31 121.53 C 99.80 119.91 96.74 120.45 93.94 120.69 Z" />
</g>
<g id="#fcfbfbff">
<path fill="#fcfbfb" opacity="1.00" d=" M 38.75 121.81 C 39.95 121.23 41.57 118.84 42.26 121.31 C 42.33 122.45 42.40 123.59 42.47 124.73 C 40.41 128.09 36.74 129.91 32.81 129.70 C 31.62 128.59 30.39 127.51 29.44 126.18 C 29.23 125.71 28.82 124.77 28.61 124.30 C 32.06 124.00 35.94 124.20 38.75 121.81 Z" />
</g>
<g id="#e4c57dff">
<path fill="#e4c57d" opacity="1.00" d=" M 55.02 121.42 L 55.62 121.19 C 56.05 122.43 56.50 123.67 56.97 124.90 C 61.50 123.79 65.69 121.23 70.46 121.36 C 66.53 123.52 62.35 125.26 58.00 126.38 C 56.38 126.96 54.83 125.80 53.31 125.41 L 53.75 124.48 C 53.98 123.93 54.44 122.83 54.67 122.28 L 55.02 121.42 Z" />
</g>
<g id="#b7841cff">
<path fill="#b7841c" opacity="1.00" d=" M 90.90 122.06 C 91.66 121.72 93.18 121.04 93.94 120.69 C 96.74 120.45 99.80 119.91 102.31 121.53 C 98.82 122.87 94.07 125.24 90.90 122.06 Z" />
</g>
<g id="#c29947ff">
<path fill="#c29947" opacity="1.00" d=" M 43.37 125.20 C 43.72 124.90 44.42 124.29 44.78 123.99 L 44.69 125.62 C 46.49 124.53 48.40 123.17 50.61 124.00 C 51.66 124.16 52.70 124.32 53.75 124.48 L 53.31 125.41 C 53.18 125.69 52.92 126.24 52.78 126.52 C 50.95 126.35 48.87 125.16 47.15 126.23 C 46.97 126.92 46.62 128.28 46.45 128.96 C 48.24 129.39 50.03 129.81 51.82 130.25 C 52.16 129.89 52.85 129.18 53.19 128.82 C 53.32 129.38 53.59 130.50 53.73 131.06 C 52.23 131.32 50.72 131.56 49.21 131.68 C 48.06 131.47 46.92 131.23 45.78 130.97 C 45.80 130.53 45.83 129.65 45.85 129.21 C 45.82 128.67 45.76 127.60 45.73 127.06 C 44.95 126.43 44.17 125.81 43.37 125.20 Z" />
</g>
<g id="#6a522cff">
<path fill="#6a522c" opacity="1.00" d=" M 96.52 125.19 C 99.59 124.45 102.72 123.97 105.87 123.74 C 105.90 124.31 105.97 125.44 106.01 126.01 C 103.15 126.09 100.29 126.18 97.44 126.33 C 97.56 127.25 97.69 128.16 97.81 129.08 C 94.59 130.32 91.48 131.89 88.80 134.09 C 86.13 135.68 83.55 137.54 80.55 138.44 C 77.30 139.07 74.01 138.29 70.84 137.60 C 75.13 134.43 80.45 133.18 84.91 130.29 C 82.59 130.62 80.27 130.88 77.95 131.15 C 77.81 130.23 77.66 129.31 77.51 128.39 C 77.72 128.35 78.12 128.26 78.33 128.22 C 81.08 129.09 83.97 129.63 86.85 129.08 C 86.40 130.07 85.97 131.06 85.56 132.07 C 89.28 130.44 93.97 129.51 96.15 125.73 L 96.52 125.19 Z" />
</g>
<g id="#674c26ff">
<path fill="#674c26" opacity="1.00" d=" M 15.27 127.08 C 17.64 126.02 20.55 126.26 21.62 128.96 C 23.35 131.93 26.36 134.27 29.99 133.62 L 30.00 133.63 C 31.86 134.65 33.78 135.55 35.69 136.47 C 35.02 137.28 34.23 137.88 33.31 138.29 C 31.89 137.14 30.57 135.84 28.99 134.90 C 27.42 134.50 25.94 135.50 24.43 135.81 L 23.49 136.08 C 23.30 135.86 22.93 135.43 22.75 135.21 C 21.79 134.79 20.82 134.39 19.85 134.01 C 20.22 132.69 20.65 131.39 21.06 130.08 C 19.90 130.33 18.74 130.56 17.59 130.86 C 17.18 131.21 16.37 131.93 15.97 132.28 C 13.81 130.44 11.75 128.29 8.97 127.45 C 11.07 127.53 13.24 127.82 15.27 127.08 Z" />
</g>
<g id="#efcd8fff">
<path fill="#efcd8f" opacity="1.00" d=" M 47.15 126.23 C 48.87 125.16 50.95 126.35 52.78 126.52 C 52.89 127.09 53.09 128.24 53.19 128.82 C 52.85 129.18 52.16 129.89 51.82 130.25 C 50.03 129.81 48.24 129.39 46.45 128.96 C 46.62 128.28 46.97 126.92 47.15 126.23 Z" />
</g>
<g id="#8f6a2dff">
<path fill="#8f6a2d" opacity="1.00" d=" M 78.33 128.22 C 79.82 127.65 81.30 127.06 82.78 126.44 C 84.93 126.70 87.06 127.09 89.20 127.44 C 88.61 127.85 87.44 128.67 86.85 129.08 C 83.97 129.63 81.08 129.09 78.33 128.22 Z" />
</g>
<g id="#42332aff">
<path fill="#42332a" opacity="1.00" d=" M 89.20 127.44 C 91.18 125.89 93.77 125.98 96.15 125.73 C 93.97 129.51 89.28 130.44 85.56 132.07 C 85.97 131.06 86.40 130.07 86.85 129.08 C 87.44 128.67 88.61 127.85 89.20 127.44 Z" />
</g>
<g id="#977e46ff">
<path fill="#977e46" opacity="1.00" d=" M 97.44 126.33 C 100.29 126.18 103.15 126.09 106.01 126.01 C 105.06 126.66 104.13 127.35 103.21 128.03 C 103.70 128.97 104.19 129.91 104.69 130.86 C 101.59 133.18 100.52 136.99 98.36 140.03 C 94.90 145.42 88.30 146.35 83.46 149.96 C 83.62 148.90 83.78 147.85 83.95 146.81 C 85.12 145.24 86.28 143.66 87.48 142.12 C 88.27 144.59 91.36 144.09 93.20 143.23 C 95.66 141.68 96.88 138.87 98.54 136.59 C 97.61 135.18 96.69 133.77 95.76 132.36 C 94.26 132.93 92.76 133.49 91.26 134.04 C 90.64 134.05 89.41 134.08 88.80 134.09 C 91.48 131.89 94.59 130.32 97.81 129.08 C 97.69 128.16 97.56 127.25 97.44 126.33 Z" />
</g>
<g id="#554d33ff">
<path fill="#554d33" opacity="1.00" d=" M 106.01 126.01 C 106.41 126.18 107.23 126.52 107.63 126.69 C 108.32 133.04 104.48 138.53 101.56 143.81 C 101.29 146.95 101.23 150.11 100.94 153.25 C 100.06 152.38 99.19 151.51 98.32 150.63 C 97.27 151.38 96.23 152.13 95.18 152.88 C 95.72 153.99 96.34 155.06 97.02 156.09 C 97.76 154.88 98.77 154.00 100.04 153.44 C 99.91 154.93 99.75 156.42 99.58 157.91 C 98.42 158.13 97.27 158.34 96.11 158.56 C 96.24 159.83 96.36 161.09 96.48 162.36 C 97.03 162.51 98.14 162.83 98.69 162.98 C 99.39 163.15 100.80 163.50 101.51 163.67 C 100.01 164.96 98.00 164.94 96.14 164.97 C 94.70 164.28 93.36 163.42 92.05 162.53 C 94.47 159.63 93.78 155.79 93.62 152.33 C 91.60 152.42 89.30 152.18 87.72 153.72 C 84.79 156.25 81.75 159.30 77.54 159.01 C 77.03 156.85 76.27 154.66 74.02 153.79 C 69.77 158.58 64.15 161.53 58.74 164.75 C 51.90 163.63 44.92 162.38 38.85 158.82 L 37.93 158.29 C 38.56 157.39 39.23 156.51 39.87 155.61 C 42.79 156.78 45.24 158.80 48.07 160.13 C 53.36 161.06 58.75 160.09 63.93 158.93 C 64.18 157.83 64.44 156.72 64.69 155.62 C 67.88 154.79 71.59 154.28 73.47 151.22 C 77.58 146.09 82.44 141.57 88.03 138.08 C 88.56 138.22 89.64 138.48 90.17 138.62 C 89.29 139.80 88.37 140.95 87.48 142.12 C 86.28 143.66 85.12 145.24 83.95 146.81 C 81.91 149.05 78.90 151.58 79.83 154.98 C 82.71 154.15 85.15 152.43 87.15 150.24 C 89.39 147.54 93.07 147.38 96.09 146.09 C 97.80 144.59 97.65 142.04 98.36 140.03 C 100.52 136.99 101.59 133.18 104.69 130.86 C 104.19 129.91 103.70 128.97 103.21 128.03 C 104.13 127.35 105.06 126.66 106.01 126.01 Z" />
</g>
<g id="#786231ff">
<path fill="#786231" opacity="1.00" d=" M 112.74 125.73 C 113.61 126.70 114.47 127.69 115.30 128.69 C 116.68 133.14 119.05 137.33 119.37 142.07 C 119.79 147.55 120.97 152.93 121.39 158.41 C 119.94 158.07 117.24 159.08 116.83 156.97 C 114.73 150.06 116.43 142.61 114.08 135.72 C 113.43 132.42 112.96 129.08 112.74 125.73 Z" />
</g>
<g id="#c68436ff">
<path fill="#c68436" opacity="1.00" d=" M 7.82 127.42 C 8.11 127.43 8.68 127.44 8.97 127.45 C 11.75 128.29 13.81 130.44 15.97 132.28 C 15.76 132.88 15.33 134.06 15.12 134.66 C 10.97 135.05 10.04 129.92 7.82 127.42 Z" />
</g>
<g id="#e7cd20ff">
<path fill="#e7cd20" opacity="1.00" d=" M 21.62 128.96 C 21.75 128.00 22.21 127.30 22.98 126.85 C 25.18 129.25 27.46 131.58 29.99 133.62 C 26.36 134.27 23.35 131.93 21.62 128.96 Z" />
</g>
<g id="#daa012ff">
<path fill="#daa012" opacity="1.00" d=" M 45.78 130.97 C 43.63 131.20 43.65 127.54 45.85 129.21 C 45.83 129.65 45.80 130.53 45.78 130.97 Z" />
</g>
<g id="#90661aff">
<path fill="#90661a" opacity="1.00" d=" M 17.59 130.86 C 18.74 130.56 19.90 130.33 21.06 130.08 C 20.65 131.39 20.22 132.69 19.85 134.01 C 19.83 135.06 19.87 136.11 19.87 137.17 L 19.46 139.50 C 18.37 138.44 17.32 137.34 16.27 136.23 C 16.77 134.46 17.25 132.67 17.59 130.86 Z" />
</g>
<g id="#9e7b30ff">
<path fill="#9e7b30" opacity="1.00" d=" M 77.95 131.15 C 80.27 130.88 82.59 130.62 84.91 130.29 C 80.45 133.18 75.13 134.43 70.84 137.60 C 74.01 138.29 77.30 139.07 80.55 138.44 C 83.55 137.54 86.13 135.68 88.80 134.09 C 89.41 134.08 90.64 134.05 91.26 134.04 C 90.80 134.34 89.87 134.95 89.41 135.25 C 89.99 135.92 90.56 136.60 91.14 137.28 C 90.90 137.61 90.42 138.28 90.17 138.62 C 89.64 138.48 88.56 138.22 88.03 138.08 C 82.44 141.57 77.58 146.09 73.47 151.22 C 70.93 151.07 67.99 150.06 65.74 151.75 C 63.98 153.16 62.81 155.14 61.50 156.94 C 59.53 156.66 58.28 155.47 57.88 153.52 C 63.07 151.78 64.88 146.42 68.40 142.78 C 65.87 140.96 62.65 139.39 59.77 141.53 C 60.51 142.96 61.25 144.38 61.97 145.81 C 59.01 145.88 56.15 145.13 53.58 143.69 C 54.63 142.07 55.45 140.23 56.90 138.91 C 58.48 138.02 60.27 137.61 61.99 137.09 C 67.95 136.81 72.16 131.79 77.95 131.15 Z" />
<path fill="#9e7b30" opacity="1.00" d=" M 85.38 168.06 C 87.97 168.22 90.64 168.35 92.88 169.83 C 93.74 169.59 94.61 169.34 95.48 169.09 C 95.70 169.81 96.15 171.24 96.38 171.95 C 95.08 171.91 93.78 171.86 92.49 171.78 C 89.62 170.26 86.39 170.10 83.25 170.68 L 82.60 170.38 C 83.44 169.51 84.34 168.69 85.38 168.06 Z" />
</g>
<g id="#c2945dff">
<path fill="#c2945d" opacity="1.00" d=" M 31.50 132.40 C 33.22 132.33 35.02 131.80 36.70 132.33 C 37.43 133.22 38.11 134.16 38.76 135.12 C 37.76 135.62 36.76 136.15 35.69 136.47 C 33.78 135.55 31.86 134.65 30.00 133.63 C 30.37 133.32 31.13 132.71 31.50 132.40 Z" />
</g>
<g id="#b09847ff">
<path fill="#b09847" opacity="1.00" d=" M 91.26 134.04 C 92.76 133.49 94.26 132.93 95.76 132.36 C 96.69 133.77 97.61 135.18 98.54 136.59 C 96.88 138.87 95.66 141.68 93.20 143.23 C 91.36 144.09 88.27 144.59 87.48 142.12 C 88.37 140.95 89.29 139.80 90.17 138.62 C 90.42 138.28 90.90 137.61 91.14 137.28 C 90.56 136.60 89.99 135.92 89.41 135.25 C 89.87 134.95 90.80 134.34 91.26 134.04 Z" />
<path fill="#b09847" opacity="1.00" d=" M 81.43 166.53 C 82.10 166.55 82.77 166.58 83.45 166.60 C 83.93 166.96 84.90 167.69 85.38 168.06 C 84.34 168.69 83.44 169.51 82.60 170.38 C 80.43 169.46 78.17 168.77 75.89 168.17 C 77.35 168.38 78.82 168.57 80.29 168.76 C 80.57 168.20 81.14 167.09 81.43 166.53 Z" />
</g>
<g id="#edc054ff">
<path fill="#edc054" opacity="1.00" d=" M 19.87 137.17 C 19.87 136.11 19.83 135.06 19.85 134.01 C 20.82 134.39 21.79 134.79 22.75 135.21 C 22.93 135.43 23.30 135.86 23.49 136.08 C 24.14 136.90 24.78 137.74 25.43 138.58 C 24.20 138.50 22.98 138.43 21.75 138.37 C 21.28 138.07 20.34 137.47 19.87 137.17 Z" />
</g>
<g id="#51321eff">
<path fill="#51321e" opacity="1.00" d=" M 51.25 136.90 C 54.54 136.21 57.61 134.87 60.75 133.73 C 61.91 134.10 63.06 134.49 64.22 134.88 C 63.49 135.62 62.74 136.36 61.99 137.09 C 60.27 137.61 58.48 138.02 56.90 138.91 C 55.45 140.23 54.63 142.07 53.58 143.69 C 53.39 143.99 53.02 144.60 52.83 144.91 C 51.87 145.86 50.86 146.75 49.87 147.67 C 47.64 147.24 45.38 146.97 43.18 146.40 C 41.58 145.36 40.04 144.23 38.48 143.14 C 40.39 143.73 41.90 142.27 42.94 140.89 C 43.36 140.51 44.19 139.76 44.61 139.39 C 45.83 139.41 47.06 139.38 48.29 139.36 C 48.38 139.10 48.57 138.58 48.66 138.33 C 49.42 137.46 50.19 136.61 50.97 135.77 L 51.25 136.90 Z" />
</g>
<g id="#84643dff">
<path fill="#84643d" opacity="1.00" d=" M 38.76 135.12 C 39.11 135.34 39.81 135.76 40.16 135.98 C 41.23 137.07 42.28 138.19 43.31 139.32 C 40.44 139.25 37.33 138.44 34.63 139.81 C 32.22 141.00 29.49 141.07 26.86 141.34 C 24.64 141.40 23.11 139.93 21.75 138.37 C 22.98 138.43 24.20 138.50 25.43 138.58 C 24.78 137.74 24.14 136.90 23.49 136.08 L 24.43 135.81 C 27.17 137.28 30.07 138.93 33.31 138.29 C 34.23 137.88 35.02 137.28 35.69 136.47 C 36.76 136.15 37.76 135.62 38.76 135.12 Z" />
</g>
<g id="#5e4f1ef5">
<path fill="#5e4f1e" opacity="0.96" d=" M 19.87 137.17 C 20.34 137.47 21.28 138.07 21.75 138.37 C 23.11 139.93 24.64 141.40 26.86 141.34 C 25.83 142.56 24.82 143.80 23.81 145.04 L 23.02 144.72 C 21.67 143.99 20.35 143.21 19.01 142.46 C 19.12 141.72 19.35 140.24 19.46 139.50 L 19.87 137.17 Z" />
</g>
<g id="#c9ae32ff">
<path fill="#c9ae32" opacity="1.00" d=" M 59.77 141.53 C 62.65 139.39 65.87 140.96 68.40 142.78 C 64.88 146.42 63.07 151.78 57.88 153.52 C 56.53 150.46 54.38 147.86 52.83 144.91 C 53.02 144.60 53.39 143.99 53.58 143.69 C 56.15 145.13 59.01 145.88 61.97 145.81 C 61.25 144.38 60.51 142.96 59.77 141.53 Z" />
</g>
<g id="#766736ff">
<path fill="#766736" opacity="1.00" d=" M 83.46 149.96 C 88.30 146.35 94.90 145.42 98.36 140.03 C 97.65 142.04 97.80 144.59 96.09 146.09 C 93.07 147.38 89.39 147.54 87.15 150.24 C 85.15 152.43 82.71 154.15 79.83 154.98 C 78.90 151.58 81.91 149.05 83.95 146.81 C 83.78 147.85 83.62 148.90 83.46 149.96 Z" />
</g>
<g id="#737e2bd0">
<path fill="#737e2b" opacity="0.82" d=" M 37.88 142.71 C 39.27 141.43 41.09 140.93 42.94 140.89 C 41.90 142.27 40.39 143.73 38.48 143.14 L 37.88 142.71 Z" />
</g>
<g id="#72561cff">
<path fill="#72561c" opacity="1.00" d=" M 30.52 147.55 C 32.95 145.91 35.48 144.40 37.88 142.71 L 38.48 143.14 C 40.04 144.23 41.58 145.36 43.18 146.40 C 42.74 146.52 41.86 146.75 41.42 146.87 C 40.77 146.40 40.13 145.94 39.50 145.47 C 38.47 149.77 33.58 148.99 30.52 147.55 Z" />
</g>
<g id="#3a3222ff">
<path fill="#3a3222" opacity="1.00" d=" M 101.56 143.81 C 102.44 146.42 103.58 149.10 102.97 151.92 C 102.12 156.05 104.20 159.95 106.31 163.36 C 105.01 164.77 103.16 165.19 102.05 163.32 C 102.26 162.36 102.47 161.41 102.66 160.45 C 101.09 159.86 99.45 159.43 97.77 159.67 C 98.07 160.77 98.38 161.88 98.69 162.98 C 98.14 162.83 97.03 162.51 96.48 162.36 C 96.36 161.09 96.24 159.83 96.11 158.56 C 97.27 158.34 98.42 158.13 99.58 157.91 C 99.75 156.42 99.91 154.93 100.04 153.44 C 98.77 154.00 97.76 154.88 97.02 156.09 C 96.34 155.06 95.72 153.99 95.18 152.88 C 96.23 152.13 97.27 151.38 98.32 150.63 C 99.19 151.51 100.06 152.38 100.94 153.25 C 101.23 150.11 101.29 146.95 101.56 143.81 Z" />
</g>
<g id="#a2821cfe">
<path fill="#a2821c" opacity="1.00" d=" M 39.50 145.47 C 40.13 145.94 40.77 146.40 41.42 146.87 C 38.83 149.38 35.81 151.49 32.15 151.98 C 32.08 151.20 31.95 149.64 31.89 148.86 C 30.88 149.35 29.86 149.83 28.85 150.31 C 29.28 149.31 29.83 148.39 30.52 147.55 C 33.58 148.99 38.47 149.77 39.50 145.47 Z" />
</g>
<g id="#867137ff">
<path fill="#867137" opacity="1.00" d=" M 49.87 147.67 C 50.86 146.75 51.87 145.86 52.83 144.91 C 54.38 147.86 56.53 150.46 57.88 153.52 C 58.28 155.47 59.53 156.66 61.50 156.94 C 62.81 155.14 63.98 153.16 65.74 151.75 C 67.99 150.06 70.93 151.07 73.47 151.22 C 71.59 154.28 67.88 154.79 64.69 155.62 C 64.44 156.72 64.18 157.83 63.93 158.93 C 58.75 160.09 53.36 161.06 48.07 160.13 C 45.24 158.80 42.79 156.78 39.87 155.61 C 40.33 154.95 40.79 154.29 41.25 153.63 C 41.52 153.23 42.06 152.44 42.33 152.04 C 42.97 150.69 43.18 149.20 43.37 147.73 C 43.63 148.89 43.95 150.04 44.21 151.21 C 44.54 153.01 44.26 155.04 45.37 156.62 C 47.18 158.63 49.98 157.36 52.20 157.09 C 53.79 157.33 55.37 157.59 56.96 157.84 C 55.09 154.52 53.98 150.35 50.78 148.05 L 49.87 147.67 Z" />
</g>
<g id="#c3a96afb">
<path fill="#c3a96a" opacity="1.00" d=" M 41.42 146.87 C 41.86 146.75 42.74 146.52 43.18 146.40 L 43.37 147.73 C 43.18 149.20 42.97 150.69 42.33 152.04 C 42.69 148.58 38.98 151.16 40.57 153.21 C 39.96 152.76 38.74 151.86 38.12 151.41 C 37.27 152.86 36.44 154.33 35.54 155.77 C 34.24 155.20 32.93 154.65 31.61 154.11 C 31.34 153.02 31.08 151.93 30.81 150.84 L 29.83 150.94 C 29.83 152.34 29.85 153.75 29.89 155.15 C 29.17 153.63 28.97 151.96 28.85 150.31 C 29.86 149.83 30.88 149.35 31.89 148.86 C 31.95 149.64 32.08 151.20 32.15 151.98 C 35.81 151.49 38.83 149.38 41.42 146.87 Z" />
</g>
<g id="#6e593aff">
<path fill="#6e593a" opacity="1.00" d=" M 43.18 146.40 C 45.38 146.97 47.64 147.24 49.87 147.67 L 50.78 148.05 C 50.26 148.31 49.21 148.83 48.68 149.09 C 47.21 149.83 45.71 150.52 44.21 151.21 C 43.95 150.04 43.63 148.89 43.37 147.73 L 43.18 146.40 Z" />
</g>
<g id="#40301cff">
<path fill="#40301c" opacity="1.00" d=" M 108.40 148.36 C 108.71 148.03 109.33 147.38 109.64 147.05 C 111.60 153.22 112.47 159.67 113.29 166.07 C 113.96 168.35 111.28 168.65 109.72 168.69 C 107.85 162.15 106.84 155.07 108.40 148.36 Z" />
</g>
<g id="#bb9f2bff">
<path fill="#bb9f2b" opacity="1.00" d=" M 50.78 148.05 C 53.98 150.35 55.09 154.52 56.96 157.84 C 55.37 157.59 53.79 157.33 52.20 157.09 C 51.11 154.39 49.91 151.73 48.68 149.09 C 49.21 148.83 50.26 148.31 50.78 148.05 Z" />
</g>
<g id="#967e41ff">
<path fill="#967e41" opacity="1.00" d=" M 44.21 151.21 C 45.71 150.52 47.21 149.83 48.68 149.09 C 49.91 151.73 51.11 154.39 52.20 157.09 C 49.98 157.36 47.18 158.63 45.37 156.62 C 44.26 155.04 44.54 153.01 44.21 151.21 Z" />
</g>
<g id="#efe2caff">
<path fill="#efe2ca" opacity="1.00" d=" M 40.57 153.21 C 38.98 151.16 42.69 148.58 42.33 152.04 C 42.06 152.44 41.52 153.23 41.25 153.63 L 40.57 153.21 Z" />
</g>
<g id="#e3cea9ff">
<path fill="#e3cea9" opacity="1.00" d=" M 29.83 150.94 L 30.81 150.84 C 31.08 151.93 31.34 153.02 31.61 154.11 C 32.93 154.65 34.24 155.20 35.54 155.77 C 34.02 156.20 32.47 156.42 30.90 156.44 C 30.64 156.12 30.14 155.47 29.89 155.15 C 29.85 153.75 29.83 152.34 29.83 150.94 Z" />
</g>
<g id="#e4cc23ff">
<path fill="#e4cc23" opacity="1.00" d=" M 35.54 155.77 C 36.44 154.33 37.27 152.86 38.12 151.41 C 38.74 151.86 39.96 152.76 40.57 153.21 L 41.25 153.63 C 40.79 154.29 40.33 154.95 39.87 155.61 C 39.23 156.51 38.56 157.39 37.93 158.29 L 38.85 158.82 C 36.13 158.29 33.36 157.77 30.90 156.44 C 32.47 156.42 34.02 156.20 35.54 155.77 Z" />
</g>
<g id="#413f2aff">
<path fill="#413f2a" opacity="1.00" d=" M 87.72 153.72 C 89.30 152.18 91.60 152.42 93.62 152.33 C 93.78 155.79 94.47 159.63 92.05 162.53 C 93.36 163.42 94.70 164.28 96.14 164.97 C 91.86 165.00 87.49 165.00 83.45 166.60 C 82.77 166.58 82.10 166.55 81.43 166.53 C 81.14 167.09 80.57 168.20 80.29 168.76 C 78.82 168.57 77.35 168.38 75.89 168.17 C 70.19 166.93 64.46 165.85 58.74 164.75 C 64.15 161.53 69.77 158.58 74.02 153.79 C 76.27 154.66 77.03 156.85 77.54 159.01 C 81.75 159.30 84.79 156.25 87.72 153.72 Z" />
</g>
<g id="#654418ff">
<path fill="#654418" opacity="1.00" d=" M 97.77 159.67 C 99.45 159.43 101.09 159.86 102.66 160.45 C 102.47 161.41 102.26 162.36 102.05 163.32 L 101.51 163.67 C 100.80 163.50 99.39 163.15 98.69 162.98 C 98.38 161.88 98.07 160.77 97.77 159.67 Z" />
</g>
</svg>
