<?xml version="1.0" encoding="UTF-8" ?>
<!DOCTYPE svg PUBLIC "-//W3C//DTD SVG 1.1//EN" "http://www.w3.org/Graphics/SVG/1.1/DTD/svg11.dtd">
<svg width="155pt" height="210pt" viewBox="0 0 155 210" version="1.1" xmlns="http://www.w3.org/2000/svg">
<g id="#b8a899ff">
<path fill="#b8a899" opacity="1.00" d=" M 71.14 65.65 C 80.41 62.70 90.16 65.16 99.37 67.00 C 105.89 68.89 110.70 73.90 114.56 79.25 C 113.73 82.58 111.07 84.70 108.31 86.45 C 108.30 86.00 108.28 85.10 108.26 84.65 C 108.89 82.94 111.12 81.29 109.84 79.39 C 107.80 75.80 103.63 74.27 99.96 72.93 C 94.86 71.45 89.50 70.47 84.18 70.79 C 82.16 71.85 80.89 73.90 78.95 75.08 C 77.49 75.61 75.92 75.14 74.42 75.06 C 74.87 72.10 75.96 68.20 72.47 66.63 C 72.14 66.38 71.48 65.90 71.14 65.65 Z" />
<path fill="#b8a899" opacity="1.00" d=" M 63.89 94.82 C 63.07 92.96 63.46 89.75 66.00 89.66 C 70.81 89.33 75.54 90.72 80.33 90.96 C 80.08 94.38 79.58 97.77 79.30 101.19 C 79.25 101.95 79.14 103.46 79.08 104.22 C 78.20 103.01 77.32 101.81 76.43 100.61 C 74.67 100.40 72.90 100.19 71.14 99.98 C 70.53 98.67 69.90 97.37 69.27 96.07 C 69.19 96.89 69.01 98.53 68.92 99.35 C 66.97 98.21 64.69 97.12 63.89 94.82 Z" />
<path fill="#b8a899" opacity="1.00" d=" M 80.88 93.08 C 82.78 90.38 86.66 92.04 89.43 91.77 C 90.22 97.13 84.82 99.85 81.98 103.53 C 81.72 103.09 81.20 102.22 80.94 101.78 C 80.90 101.29 80.81 100.33 80.77 99.84 C 80.64 97.59 80.59 95.32 80.88 93.08 Z" />
<path fill="#b8a899" opacity="1.00" d=" M 140.28 98.18 C 142.72 97.66 145.18 97.13 147.69 97.39 C 147.62 98.26 147.47 100.00 147.39 100.86 C 141.52 105.16 136.48 110.48 130.61 114.74 C 130.67 114.05 130.72 113.35 130.77 112.66 C 131.01 112.23 131.49 111.37 131.73 110.93 C 132.56 109.54 133.42 108.17 134.26 106.78 C 132.52 106.76 130.79 106.75 129.06 106.74 C 128.79 104.17 128.70 101.59 128.73 99.01 C 132.59 98.87 136.46 98.79 140.28 98.18 Z" />
<path fill="#b8a899" opacity="1.00" d=" M 49.04 118.66 C 54.82 120.14 59.87 123.41 65.39 125.56 C 69.87 127.35 73.82 130.27 78.44 131.75 C 78.88 131.10 79.33 130.45 79.78 129.80 C 76.92 129.53 74.45 128.11 72.49 126.06 C 73.59 125.25 74.70 124.45 75.81 123.66 C 78.12 124.86 80.60 126.61 83.28 125.36 C 85.87 129.30 91.71 130.69 95.98 128.94 C 99.26 128.80 102.54 128.89 105.81 129.06 C 106.29 128.46 107.24 127.27 107.72 126.68 C 105.99 125.05 104.13 123.51 101.86 122.73 C 103.45 122.86 105.04 123.01 106.63 123.16 C 107.25 124.15 107.87 125.15 108.50 126.14 C 109.57 125.90 110.64 125.66 111.73 125.47 C 111.89 125.73 112.22 126.24 112.38 126.50 C 108.27 130.15 105.18 134.91 100.51 137.92 C 99.52 136.25 98.56 134.57 97.56 132.91 C 97.59 134.86 97.61 136.81 97.58 138.77 C 99.24 139.00 101.23 140.01 102.64 138.60 C 106.51 135.46 109.73 131.61 113.35 128.20 C 113.63 127.92 114.20 127.37 114.49 127.10 C 114.11 126.23 113.72 125.35 113.34 124.48 C 115.34 124.40 117.35 124.33 119.35 124.15 C 119.12 128.13 115.92 130.73 112.88 132.79 C 109.86 134.75 107.31 137.31 104.80 139.87 C 104.05 140.63 103.29 141.39 102.57 142.18 C 95.94 140.38 89.15 141.41 82.49 142.24 C 73.60 136.75 65.48 129.08 54.83 127.13 C 53.33 126.40 51.83 125.65 50.39 124.82 C 49.93 124.25 49.01 123.12 48.55 122.56 C 48.70 121.25 48.86 119.95 49.04 118.66 Z" />
<path fill="#b8a899" opacity="1.00" d=" M 72.59 176.78 C 72.77 174.25 72.91 171.22 75.87 170.45 C 76.04 173.03 76.14 175.61 76.18 178.20 C 76.82 176.75 77.43 175.29 78.01 173.83 C 78.51 174.11 79.50 174.69 79.99 174.97 C 79.37 176.04 78.76 177.12 78.18 178.21 C 79.91 177.70 81.86 177.54 83.34 176.43 C 83.99 175.27 84.54 174.06 85.12 172.87 C 86.57 172.89 88.03 172.92 89.48 172.96 C 89.00 175.12 86.82 175.93 85.36 177.30 C 83.91 178.58 83.26 180.44 82.61 182.20 C 82.35 181.14 82.09 180.09 81.83 179.04 C 76.83 178.99 71.42 177.04 66.83 179.98 C 67.19 180.96 67.55 181.95 67.91 182.94 C 67.54 183.05 66.81 183.28 66.44 183.39 C 66.01 180.11 64.83 177.03 63.63 173.98 C 65.39 173.94 67.15 173.91 68.92 173.86 C 68.74 175.00 68.57 176.14 68.41 177.29 C 69.81 177.13 71.20 176.95 72.59 176.78 Z" />
<path fill="#b8a899" opacity="1.00" d=" M 80.83 187.18 C 81.48 186.05 82.14 184.92 82.74 183.76 C 82.78 185.20 82.84 186.63 82.90 188.07 C 77.99 188.19 73.07 188.37 68.19 187.84 C 68.02 187.08 67.70 185.58 67.54 184.83 C 71.34 187.89 76.29 187.25 80.83 187.18 Z" />
</g>
<g id="#9d856dff">
<path fill="#9d856d" opacity="1.00" d=" M 62.11 68.38 C 64.97 67.03 68.28 67.03 71.14 65.65 C 71.48 65.90 72.14 66.38 72.47 66.63 C 70.69 69.05 69.42 72.12 66.71 73.65 C 63.35 74.64 59.79 74.44 56.33 74.83 C 58.79 79.16 64.06 79.21 68.15 81.01 C 70.29 82.01 72.66 81.96 74.93 82.38 C 76.46 83.05 77.75 84.13 79.13 85.05 C 85.91 84.12 92.97 82.86 99.72 84.62 C 101.08 83.81 102.37 82.79 103.92 82.36 C 105.47 82.92 106.86 83.80 108.26 84.65 C 108.28 85.10 108.30 86.00 108.31 86.45 C 111.07 84.70 113.73 82.58 114.56 79.25 C 117.56 83.57 121.30 87.26 124.99 90.98 C 127.15 92.95 126.87 96.55 129.03 98.35 C 132.77 98.61 136.54 98.59 140.28 98.18 C 136.46 98.79 132.59 98.87 128.73 99.01 C 128.70 101.59 128.79 104.17 129.06 106.74 C 130.79 106.75 132.52 106.76 134.26 106.78 C 133.42 108.17 132.56 109.54 131.73 110.93 C 131.75 110.31 131.81 109.07 131.83 108.45 C 131.09 108.42 129.59 108.38 128.84 108.36 C 129.49 109.79 130.13 111.23 130.77 112.66 C 130.72 113.35 130.67 114.05 130.61 114.74 C 130.16 117.56 129.43 121.23 126.26 122.10 C 123.99 122.89 121.69 123.60 119.35 124.15 C 117.35 124.33 115.34 124.40 113.34 124.48 C 113.72 125.35 114.11 126.23 114.49 127.10 C 114.20 127.37 113.63 127.92 113.35 128.20 C 113.11 127.77 112.62 126.92 112.38 126.50 C 112.22 126.24 111.89 125.73 111.73 125.47 C 110.64 125.66 109.57 125.90 108.50 126.14 C 107.87 125.15 107.25 124.15 106.63 123.16 C 105.04 123.01 103.45 122.86 101.86 122.73 C 98.94 122.34 96.07 123.11 93.32 124.00 C 94.21 125.65 95.09 127.30 95.98 128.94 C 91.71 130.69 85.87 129.30 83.28 125.36 C 80.60 126.61 78.12 124.86 75.81 123.66 C 74.70 124.45 73.59 125.25 72.49 126.06 C 74.45 128.11 76.92 129.53 79.78 129.80 C 79.33 130.45 78.88 131.10 78.44 131.75 C 73.82 130.27 69.87 127.35 65.39 125.56 C 59.87 123.41 54.82 120.14 49.04 118.66 C 48.86 119.95 48.70 121.25 48.55 122.56 L 48.45 123.39 C 47.23 119.42 47.29 113.87 42.69 112.18 C 40.42 111.77 38.10 111.64 35.82 111.28 C 38.22 111.27 40.61 111.10 43.00 110.93 C 43.09 109.81 43.18 108.68 43.28 107.56 C 40.12 107.58 36.65 107.94 33.87 106.09 C 31.24 104.47 29.80 101.62 28.25 99.06 C 34.06 99.83 38.99 103.17 44.36 105.23 C 44.90 100.89 43.64 96.55 40.05 93.85 C 41.45 89.94 43.83 86.49 45.85 82.88 C 48.02 78.95 52.61 77.61 55.74 74.67 C 58.02 72.73 59.72 70.18 62.11 68.38 M 58.32 79.36 C 56.74 80.59 58.89 82.72 60.11 81.14 C 61.68 79.93 59.54 77.79 58.32 79.36 M 67.10 81.00 C 67.05 83.05 67.08 85.09 67.18 87.14 C 69.65 85.65 68.82 82.71 67.10 81.00 M 63.89 94.82 C 64.69 97.12 66.97 98.21 68.92 99.35 C 69.01 98.53 69.19 96.89 69.27 96.07 C 69.90 97.37 70.53 98.67 71.14 99.98 C 72.90 100.19 74.67 100.40 76.43 100.61 C 77.32 101.81 78.20 103.01 79.08 104.22 C 78.85 108.97 76.53 113.28 76.11 118.00 C 78.62 115.77 79.44 112.20 81.93 109.88 C 81.42 107.20 81.12 104.49 80.94 101.78 C 81.20 102.22 81.72 103.09 81.98 103.53 C 84.82 99.85 90.22 97.13 89.43 91.77 C 86.66 92.04 82.78 90.38 80.88 93.08 C 80.59 95.32 80.64 97.59 80.77 99.84 C 80.40 100.18 79.67 100.85 79.30 101.19 C 79.58 97.77 80.08 94.38 80.33 90.96 C 75.54 90.72 70.81 89.33 66.00 89.66 C 63.46 89.75 63.07 92.96 63.89 94.82 Z" />
<path fill="#9d856d" opacity="1.00" d=" M 54.83 127.13 C 65.48 129.08 73.60 136.75 82.49 142.24 C 89.15 141.41 95.94 140.38 102.57 142.18 C 102.27 142.57 101.67 143.33 101.37 143.71 C 95.65 142.27 89.69 142.38 83.89 143.23 C 85.17 149.14 92.15 150.06 97.16 150.60 C 93.82 153.26 90.00 151.13 86.76 149.51 C 86.07 150.53 85.39 151.55 84.71 152.57 C 83.05 152.54 81.39 152.52 79.74 152.53 C 80.76 154.83 82.02 157.95 85.05 157.87 C 87.75 158.42 88.83 155.55 90.26 153.88 C 90.46 156.49 90.74 159.09 90.75 161.71 C 90.53 162.06 90.11 162.77 89.90 163.12 C 88.85 161.95 87.72 160.88 86.57 159.82 C 85.18 161.55 83.81 163.30 82.23 164.87 C 81.55 161.94 81.08 158.90 79.66 156.21 C 78.50 153.85 76.08 152.59 73.99 151.22 C 75.03 150.91 76.08 150.63 77.14 150.35 C 77.82 148.99 78.46 147.61 79.28 146.33 C 81.01 146.64 82.70 147.17 84.40 147.59 C 81.37 142.97 76.52 140.10 72.02 137.10 C 66.35 133.68 60.50 130.56 54.83 127.13 Z" />
<path fill="#9d856d" opacity="1.00" d=" M 100.55 163.64 C 101.35 159.66 101.40 155.24 104.23 152.03 C 106.12 152.94 108.09 153.68 110.06 154.44 C 110.06 158.37 106.52 160.80 105.01 164.08 C 105.42 168.75 104.58 173.39 105.14 178.07 C 105.17 181.59 103.83 184.98 103.83 188.53 C 108.34 188.93 112.85 188.64 117.33 188.14 L 116.69 188.99 C 110.39 189.29 103.51 189.93 98.14 185.93 C 98.61 178.47 99.09 170.98 100.55 163.64 Z" />
<path fill="#9d856d" opacity="1.00" d=" M 59.28 158.78 C 60.32 159.62 61.35 160.46 62.38 161.30 C 61.07 163.26 59.74 165.21 58.13 166.93 C 57.66 166.12 57.20 165.32 56.73 164.52 C 57.23 163.67 57.69 162.79 58.12 161.90 C 58.54 160.87 58.93 159.83 59.28 158.78 Z" />
<path fill="#9d856d" opacity="1.00" d=" M 66.09 161.91 C 70.00 162.22 70.60 167.08 73.10 169.43 C 71.44 170.20 69.77 170.93 68.08 171.63 C 67.87 171.22 67.45 170.39 67.24 169.97 C 67.94 169.03 68.60 168.05 69.27 167.08 C 68.91 166.49 68.19 165.31 67.83 164.72 C 67.19 165.85 66.55 166.97 65.95 168.13 C 65.92 166.05 65.97 163.98 66.09 161.91 Z" />
<path fill="#9d856d" opacity="1.00" d=" M 53.57 170.86 C 54.25 169.49 55.70 168.90 56.93 168.13 C 57.08 168.55 57.38 169.38 57.53 169.80 C 57.95 170.86 58.47 171.88 59.07 172.85 C 57.98 172.51 55.64 173.33 56.61 174.78 C 57.60 175.48 58.66 175.59 59.81 175.09 C 59.59 177.97 59.35 181.13 57.31 183.39 L 56.22 183.57 C 56.71 181.69 57.37 179.87 57.87 178.00 C 57.34 176.52 55.23 176.34 54.70 174.83 C 54.25 173.53 53.83 172.21 53.57 170.86 Z" />
<path fill="#9d856d" opacity="1.00" d=" M 92.12 172.92 C 92.61 172.57 93.58 171.86 94.06 171.51 C 94.79 171.69 96.25 172.04 96.99 172.21 C 96.89 172.76 96.70 173.86 96.61 174.41 C 93.92 176.45 93.25 179.90 92.14 182.90 C 91.43 181.45 90.12 179.98 90.52 178.26 C 91.16 177.13 92.09 176.19 92.99 175.26 C 94.71 174.65 93.93 171.83 92.12 172.92 Z" />
<path fill="#9d856d" opacity="1.00" d=" M 70.23 182.24 C 70.81 182.81 70.81 182.81 70.23 182.24 Z" />
<path fill="#9d856d" opacity="1.00" d=" M 51.18 185.60 C 51.30 184.94 51.56 183.63 51.68 182.98 C 51.73 183.48 51.84 184.49 51.89 185.00 C 53.27 184.77 54.81 183.94 56.03 185.07 C 54.94 186.32 53.88 188.05 51.99 187.98 C 47.39 188.33 42.50 188.86 38.18 186.86 C 42.28 184.95 46.84 186.04 51.18 185.60 Z" />
<path fill="#9d856d" opacity="1.00" d=" M 92.51 183.51 C 93.67 183.06 94.77 183.19 95.82 183.89 C 95.86 185.89 92.85 184.83 92.51 183.51 Z" />
<path fill="#9d856d" opacity="1.00" d=" M 36.73 195.41 C 43.77 194.25 50.91 194.88 58.01 194.79 C 72.34 194.74 86.67 194.95 101.01 194.79 C 103.83 194.77 106.64 195.15 109.42 195.65 C 89.95 195.94 70.46 195.94 50.98 196.06 C 46.23 196.01 41.35 196.91 36.73 195.41 Z" />
</g>
<g id="#ccc1b9ff">
<path fill="#ccc1b9" opacity="1.00" d=" M 66.71 73.65 C 69.42 72.12 70.69 69.05 72.47 66.63 C 75.96 68.20 74.87 72.10 74.42 75.06 C 75.92 75.14 77.49 75.61 78.95 75.08 C 80.89 73.90 82.16 71.85 84.18 70.79 C 89.50 70.47 94.86 71.45 99.96 72.93 C 103.63 74.27 107.80 75.80 109.84 79.39 C 111.12 81.29 108.89 82.94 108.26 84.65 C 106.86 83.80 105.47 82.92 103.92 82.36 C 102.37 82.79 101.08 83.81 99.72 84.62 C 92.97 82.86 85.91 84.12 79.13 85.05 C 77.75 84.13 76.46 83.05 74.93 82.38 C 72.66 81.96 70.29 82.01 68.15 81.01 C 64.06 79.21 58.79 79.16 56.33 74.83 C 59.79 74.44 63.35 74.64 66.71 73.65 Z" />
<path fill="#ccc1b9" opacity="1.00" d=" M 11.84 87.30 C 16.48 88.67 21.15 90.28 26.03 90.39 C 29.11 90.35 31.95 91.66 34.97 92.07 C 36.72 92.43 38.84 92.26 40.05 93.85 C 43.64 96.55 44.90 100.89 44.36 105.23 C 38.99 103.17 34.06 99.83 28.25 99.06 C 29.80 101.62 31.24 104.47 33.87 106.09 C 36.65 107.94 40.12 107.58 43.28 107.56 C 43.18 108.68 43.09 109.81 43.00 110.93 C 40.61 111.10 38.22 111.27 35.82 111.28 C 30.92 109.67 27.50 105.55 23.62 102.37 C 19.87 98.76 15.71 95.63 11.82 92.18 C 10.30 90.92 11.56 88.82 11.84 87.30 Z" />
<path fill="#ccc1b9" opacity="1.00" d=" M 93.32 124.00 C 96.07 123.11 98.94 122.34 101.86 122.73 C 104.13 123.51 105.99 125.05 107.72 126.68 C 107.24 127.27 106.29 128.46 105.81 129.06 C 102.54 128.89 99.26 128.80 95.98 128.94 C 95.09 127.30 94.21 125.65 93.32 124.00 Z" />
<path fill="#ccc1b9" opacity="1.00" d=" M 83.89 143.23 C 89.69 142.38 95.65 142.27 101.37 143.71 C 99.89 145.96 98.64 148.36 97.16 150.60 C 92.15 150.06 85.17 149.14 83.89 143.23 Z" />
<path fill="#ccc1b9" opacity="1.00" d=" M 67.77 150.20 C 68.05 148.30 69.08 146.77 70.84 145.96 C 70.32 147.74 70.20 150.19 67.77 150.20 Z" />
<path fill="#ccc1b9" opacity="1.00" d=" M 64.97 156.11 C 64.89 153.96 65.40 151.04 68.10 150.93 C 67.63 152.91 67.60 155.83 64.97 156.11 Z" />
<path fill="#ccc1b9" opacity="1.00" d=" M 70.77 152.62 C 71.82 152.11 72.88 151.61 73.99 151.22 C 76.08 152.59 78.50 153.85 79.66 156.21 C 81.08 158.90 81.55 161.94 82.23 164.87 C 80.97 165.37 79.68 165.82 78.39 166.27 C 78.72 165.25 79.07 164.25 79.41 163.25 C 76.57 159.66 74.35 155.56 70.77 152.62 Z" />
<path fill="#ccc1b9" opacity="1.00" d=" M 60.07 156.32 C 61.67 156.86 63.28 157.34 64.92 157.74 C 63.87 162.31 62.58 166.90 62.75 171.64 C 61.09 170.82 59.33 170.23 57.53 169.80 C 57.38 169.38 57.08 168.55 56.93 168.13 C 57.23 167.83 57.83 167.23 58.13 166.93 C 59.74 165.21 61.07 163.26 62.38 161.30 C 61.35 160.46 60.32 159.62 59.28 158.78 C 59.55 157.96 59.81 157.14 60.07 156.32 Z" />
<path fill="#ccc1b9" opacity="1.00" d=" M 65.95 168.13 C 66.55 166.97 67.19 165.85 67.83 164.72 C 68.19 165.31 68.91 166.49 69.27 167.08 C 68.60 168.05 67.94 169.03 67.24 169.97 C 66.53 170.73 65.76 171.42 64.93 172.05 C 65.20 170.73 65.45 169.39 65.95 168.13 Z" />
<path fill="#ccc1b9" opacity="1.00" d=" M 56.61 174.78 C 55.64 173.33 57.98 172.51 59.07 172.85 C 59.25 173.41 59.62 174.53 59.81 175.09 C 58.66 175.59 57.60 175.48 56.61 174.78 Z" />
<path fill="#ccc1b9" opacity="1.00" d=" M 92.12 172.92 C 93.93 171.83 94.71 174.65 92.99 175.26 C 92.69 174.89 92.08 174.16 91.78 173.79 L 92.12 172.92 Z" />
</g>
<g id="#292431fe">
<path fill="#292431" opacity="1.00" d=" M 58.32 79.36 C 59.54 77.79 61.68 79.93 60.11 81.14 C 58.89 82.72 56.74 80.59 58.32 79.36 Z" />
<path fill="#292431" opacity="1.00" d=" M 67.10 81.00 C 68.82 82.71 69.65 85.65 67.18 87.14 C 67.08 85.09 67.05 83.05 67.10 81.00 Z" />
<path fill="#292431" opacity="1.00" d=" M 79.30 101.19 C 79.67 100.85 80.40 100.18 80.77 99.84 C 80.81 100.33 80.90 101.29 80.94 101.78 C 81.12 104.49 81.42 107.20 81.93 109.88 C 79.44 112.20 78.62 115.77 76.11 118.00 C 76.53 113.28 78.85 108.97 79.08 104.22 C 79.14 103.46 79.25 101.95 79.30 101.19 Z" />
<path fill="#292431" opacity="1.00" d=" M 128.84 108.36 C 129.59 108.38 131.09 108.42 131.83 108.45 C 131.81 109.07 131.75 110.31 131.73 110.93 C 131.49 111.37 131.01 112.23 130.77 112.66 C 130.13 111.23 129.49 109.79 128.84 108.36 Z" />
<path fill="#292431" opacity="1.00" d=" M 50.39 124.82 C 51.83 125.65 53.33 126.40 54.83 127.13 C 60.50 130.56 66.35 133.68 72.02 137.10 C 76.52 140.10 81.37 142.97 84.40 147.59 C 82.70 147.17 81.01 146.64 79.28 146.33 C 78.46 147.61 77.82 148.99 77.14 150.35 C 76.08 150.63 75.03 150.91 73.99 151.22 C 72.88 151.61 71.82 152.11 70.77 152.62 C 74.35 155.56 76.57 159.66 79.41 163.25 C 79.07 164.25 78.72 165.25 78.39 166.27 C 79.68 165.82 80.97 165.37 82.23 164.87 C 83.81 163.30 85.18 161.55 86.57 159.82 C 87.72 160.88 88.85 161.95 89.90 163.12 C 91.28 165.92 92.83 168.64 94.06 171.51 C 93.58 171.86 92.61 172.57 92.12 172.92 L 91.78 173.79 C 92.08 174.16 92.69 174.89 92.99 175.26 C 92.09 176.19 91.16 177.13 90.52 178.26 C 90.12 179.98 91.43 181.45 92.14 182.90 L 92.51 183.51 C 92.85 184.83 95.86 185.89 95.82 183.89 C 96.03 180.73 96.10 177.55 96.61 174.41 C 96.70 173.86 96.89 172.76 96.99 172.21 C 97.70 168.87 97.20 165.42 95.71 162.36 C 94.05 162.14 92.40 161.91 90.75 161.71 C 90.74 159.09 90.46 156.49 90.26 153.88 C 88.83 155.55 87.75 158.42 85.05 157.87 C 82.02 157.95 80.76 154.83 79.74 152.53 C 81.39 152.52 83.05 152.54 84.71 152.57 C 85.39 151.55 86.07 150.53 86.76 149.51 C 90.00 151.13 93.82 153.26 97.16 150.60 C 98.64 148.36 99.89 145.96 101.37 143.71 C 101.67 143.33 102.27 142.57 102.57 142.18 C 103.29 141.39 104.05 140.63 104.80 139.87 C 105.56 141.73 105.21 143.64 104.43 145.42 C 103.54 147.35 104.36 149.43 104.69 151.39 L 104.23 152.03 C 101.40 155.24 101.35 159.66 100.55 163.64 C 99.09 170.98 98.61 178.47 98.14 185.93 C 103.51 189.93 110.39 189.29 116.69 188.99 C 117.48 188.98 119.05 188.96 119.84 188.95 C 119.99 191.28 120.20 193.60 120.54 195.91 C 116.84 195.87 113.10 196.23 109.42 195.65 C 106.64 195.15 103.83 194.77 101.01 194.79 C 86.67 194.95 72.34 194.74 58.01 194.79 C 50.91 194.88 43.77 194.25 36.73 195.41 C 35.44 195.11 34.32 194.37 33.14 193.82 C 34.45 191.37 35.61 188.85 36.77 186.33 C 37.12 186.46 37.83 186.73 38.18 186.86 C 42.50 188.86 47.39 188.33 51.99 187.98 C 53.88 188.05 54.94 186.32 56.03 185.07 C 56.35 184.65 56.99 183.81 57.31 183.39 C 59.35 181.13 59.59 177.97 59.81 175.09 C 59.62 174.53 59.25 173.41 59.07 172.85 C 58.47 171.88 57.95 170.86 57.53 169.80 C 59.33 170.23 61.09 170.82 62.75 171.64 C 62.58 166.90 63.87 162.31 64.92 157.74 C 63.28 157.34 61.67 156.86 60.07 156.32 C 59.81 157.14 59.55 157.96 59.28 158.78 C 58.93 159.83 58.54 160.87 58.12 161.90 C 57.71 161.58 56.89 160.93 56.48 160.60 C 57.54 156.56 56.63 152.38 55.66 148.42 C 54.34 146.11 52.69 143.99 51.45 141.64 C 50.25 139.00 50.28 135.85 48.24 133.61 C 49.78 130.92 50.27 127.88 50.39 124.82 M 67.77 150.20 C 70.20 150.19 70.32 147.74 70.84 145.96 C 69.08 146.77 68.05 148.30 67.77 150.20 M 64.97 156.11 C 67.60 155.83 67.63 152.91 68.10 150.93 C 65.40 151.04 64.89 153.96 64.97 156.11 M 66.09 161.91 C 65.97 163.98 65.92 166.05 65.95 168.13 C 65.45 169.39 65.20 170.73 64.93 172.05 C 65.76 171.42 66.53 170.73 67.24 169.97 C 67.45 170.39 67.87 171.22 68.08 171.63 C 69.77 170.93 71.44 170.20 73.10 169.43 C 70.60 167.08 70.00 162.22 66.09 161.91 M 72.59 176.78 C 71.20 176.95 69.81 177.13 68.41 177.29 C 68.57 176.14 68.74 175.00 68.92 173.86 C 67.15 173.91 65.39 173.94 63.63 173.98 C 64.83 177.03 66.01 180.11 66.44 183.39 C 65.80 184.52 65.50 185.79 65.51 187.18 C 66.18 187.35 67.52 187.67 68.19 187.84 C 73.07 188.37 77.99 188.19 82.90 188.07 C 82.84 186.63 82.78 185.20 82.74 183.76 C 82.70 183.37 82.64 182.59 82.61 182.20 C 83.26 180.44 83.91 178.58 85.36 177.30 C 86.82 175.93 89.00 175.12 89.48 172.96 C 88.03 172.92 86.57 172.89 85.12 172.87 C 84.54 174.06 83.99 175.27 83.34 176.43 C 81.86 177.54 79.91 177.70 78.18 178.21 C 78.76 177.12 79.37 176.04 79.99 174.97 C 79.50 174.69 78.51 174.11 78.01 173.83 C 77.43 175.29 76.82 176.75 76.18 178.20 C 76.14 175.61 76.04 173.03 75.87 170.45 C 72.91 171.22 72.77 174.25 72.59 176.78 Z" />
<path fill="#292431" opacity="1.00" d=" M 100.51 137.92 C 105.18 134.91 108.27 130.15 112.38 126.50 C 112.62 126.92 113.11 127.77 113.35 128.20 C 109.73 131.61 106.51 135.46 102.64 138.60 C 101.23 140.01 99.24 139.00 97.58 138.77 C 97.61 136.81 97.59 134.86 97.56 132.91 C 98.56 134.57 99.52 136.25 100.51 137.92 Z" />
</g>
</svg>
