<?xml version="1.0" encoding="UTF-8" ?>
<!DOCTYPE svg PUBLIC "-//W3C//DTD SVG 1.1//EN" "http://www.w3.org/Graphics/SVG/1.1/DTD/svg11.dtd">
<svg width="155pt" height="210pt" viewBox="0 0 155 210" version="1.1" xmlns="http://www.w3.org/2000/svg">
	<g id="#67421eff">
		<path fill="#67421e" opacity="1.00" d=" M 69.98 52.96 C 77.57 48.96 85.78 46.11 94.22 44.56 C 105.98 42.63 118.16 47.22 126.69 55.30 C 131.88 60.15 135.13 66.95 135.55 74.05 C 135.51 78.60 138.84 82.08 139.70 86.38 C 140.60 93.37 138.51 100.59 134.37 106.26 C 133.03 108.35 131.34 110.44 131.20 113.03 C 130.93 117.27 132.03 121.42 132.69 125.57 C 133.20 130.38 133.28 135.98 129.76 139.76 C 126.32 143.45 119.63 145.21 115.79 141.18 C 118.62 139.53 121.19 137.45 123.38 135.01 C 126.94 130.99 126.52 125.51 125.15 120.69 C 124.81 113.49 128.78 107.04 129.39 99.95 C 125.80 102.38 122.44 105.14 119.21 108.04 C 118.94 108.14 118.41 108.35 118.14 108.46 C 117.00 108.89 115.86 109.30 114.69 109.64 C 113.51 109.83 112.33 110.01 111.15 110.16 C 111.26 108.86 111.26 107.55 111.17 106.25 C 117.22 103.76 123.19 101.02 128.86 97.72 C 128.66 97.43 128.25 96.85 128.04 96.57 C 126.46 94.16 124.86 91.76 123.16 89.44 C 122.66 89.62 121.66 89.98 121.16 90.16 C 115.09 92.28 108.41 94.45 102.04 92.22 C 96.58 90.98 94.88 84.97 93.41 80.31 C 92.39 77.72 93.31 75.05 94.13 72.55 C 93.74 72.60 92.97 72.69 92.58 72.73 C 95.46 72.31 98.33 71.85 101.22 71.45 C 101.27 69.29 101.31 67.13 101.33 64.98 C 91.14 65.10 80.79 67.67 72.18 73.22 C 70.10 74.32 70.48 76.87 70.12 78.82 C 70.57 78.72 71.48 78.52 71.93 78.43 C 76.83 77.52 81.64 76.19 86.56 75.39 C 86.16 77.89 86.45 80.73 85.00 82.94 C 81.17 87.30 75.27 88.85 69.71 89.47 C 69.82 90.58 69.94 91.68 70.05 92.79 C 67.11 94.38 64.15 95.93 61.16 97.44 C 61.33 107.00 65.66 116.67 62.26 126.11 C 61.29 129.23 57.60 131.67 54.50 129.80 C 52.53 128.18 52.16 125.37 51.55 123.02 C 51.86 118.57 52.26 114.12 52.42 109.65 C 48.86 108.73 45.19 108.27 41.51 108.43 C 41.49 107.93 41.43 106.95 41.41 106.45 C 45.38 106.35 49.31 107.04 53.20 107.77 C 51.36 105.32 49.65 102.67 47.24 100.72 C 44.60 98.71 41.05 99.23 37.96 99.49 C 36.86 91.47 36.28 82.42 41.67 75.71 C 44.37 72.38 48.46 70.47 50.83 66.82 C 55.42 60.11 62.97 56.56 69.98 52.96 M 101.36 61.03 C 101.73 65.05 101.82 69.19 102.92 73.10 C 104.08 73.86 105.57 73.67 106.88 73.91 C 111.92 74.29 116.83 75.70 121.89 75.87 L 122.05 74.89 C 124.84 76.40 127.77 77.76 130.24 79.78 C 132.48 81.81 133.61 84.72 135.13 87.27 C 138.35 78.85 130.50 71.02 122.90 68.84 C 123.47 64.76 122.76 60.60 120.79 56.98 C 119.44 57.47 118.09 57.97 116.74 58.47 C 115.47 57.33 114.24 56.14 112.82 55.19 C 111.21 55.44 110.19 56.90 108.96 57.82 C 108.12 56.48 107.27 55.13 106.42 53.79 C 103.36 54.84 101.08 57.69 101.36 61.03 Z" />
		<path fill="#67421e" opacity="1.00" d=" M 73.84 92.01 C 75.10 91.68 76.38 91.43 77.66 91.17 C 85.45 96.19 94.15 99.70 101.46 105.50 C 100.39 106.89 99.33 108.31 98.00 109.48 C 95.85 108.36 93.99 106.78 92.13 105.24 C 89.65 102.98 87.09 100.80 84.22 99.04 C 80.65 96.87 77.16 94.55 73.84 92.01 Z" />
		<path fill="#67421e" opacity="1.00" d=" M 38.99 120.95 C 40.30 121.46 41.62 121.94 42.99 122.24 C 45.81 122.75 48.69 122.89 51.55 123.02 C 48.16 123.77 45.25 125.64 43.04 128.30 C 40.74 126.46 39.25 123.91 38.99 120.95 Z" />
		<path fill="#67421e" opacity="1.00" d=" M 69.54 152.49 C 71.47 150.87 73.10 148.47 75.66 147.86 C 79.82 147.79 83.84 149.15 87.77 150.35 C 88.23 150.50 89.14 150.80 89.59 150.95 C 88.36 151.63 87.13 152.31 85.90 152.99 C 85.40 152.92 84.90 152.85 84.41 152.78 C 83.67 151.64 81.89 150.80 80.86 152.08 C 79.33 153.40 77.86 154.79 76.39 156.18 C 74.00 155.17 71.62 154.06 69.54 152.49 Z" />
		<path fill="#67421e" opacity="1.00" d=" M 61.05 160.92 C 61.44 160.90 62.22 160.88 62.61 160.87 C 64.47 161.33 66.28 161.91 68.11 162.49 C 66.57 163.17 65.04 163.85 63.51 164.52 C 63.20 168.71 63.08 172.92 62.56 177.09 C 60.47 181.25 58.00 185.21 55.26 188.97 C 53.48 189.57 51.70 190.17 49.97 190.89 C 48.26 191.75 46.99 193.24 45.62 194.54 C 44.12 194.29 42.63 194.03 41.14 193.77 L 41.43 193.14 C 43.13 189.13 45.10 185.25 46.83 181.26 C 51.48 174.42 57.53 168.49 61.05 160.92 Z" />
		<path fill="#67421e" opacity="1.00" d=" M 54.23 161.71 C 55.57 162.23 56.90 162.80 58.22 163.36 C 57.24 164.88 56.26 166.41 55.20 167.88 C 54.91 165.82 54.58 163.76 54.23 161.71 Z" />
		<path fill="#67421e" opacity="1.00" d=" M 22.35 174.06 C 23.01 173.81 24.32 173.31 24.98 173.07 C 24.00 174.45 23.10 175.94 21.77 177.02 C 20.07 178.06 18.28 176.84 16.70 176.23 C 18.59 175.51 20.46 174.77 22.35 174.06 Z" />
		<path fill="#67421e" opacity="1.00" d=" M 95.67 176.25 C 96.87 176.39 98.08 176.52 99.29 176.66 C 101.20 178.91 101.45 181.92 101.73 184.73 C 101.19 184.90 100.12 185.24 99.58 185.41 C 98.27 182.36 96.98 179.30 95.67 176.25 Z" />
		<path fill="#67421e" opacity="1.00" d=" M 72.93 179.61 C 76.80 178.08 81.31 176.64 85.02 179.37 L 84.85 180.24 C 84.01 183.37 83.69 186.63 84.12 189.85 C 82.33 190.12 80.54 190.40 78.75 190.66 C 78.91 190.08 79.07 189.50 79.23 188.93 C 77.60 187.11 76.45 184.94 75.88 182.56 C 74.91 181.57 73.92 180.59 72.93 179.61 Z" />
	</g>
	<g id="#e1ca1bff">
		<path fill="#e1ca1b" opacity="1.00" d=" M 101.36 61.03 C 101.08 57.69 103.36 54.84 106.42 53.79 C 107.27 55.13 108.12 56.48 108.96 57.82 C 110.19 56.90 111.21 55.44 112.82 55.19 C 114.24 56.14 115.47 57.33 116.74 58.47 C 118.09 57.97 119.44 57.47 120.79 56.98 C 122.76 60.60 123.47 64.76 122.90 68.84 C 122.67 70.87 122.36 72.88 122.05 74.89 L 121.89 75.87 C 116.83 75.70 111.92 74.29 106.88 73.91 C 105.57 73.67 104.08 73.86 102.92 73.10 C 101.82 69.19 101.73 65.05 101.36 61.03 Z" />
		<path fill="#e1ca1b" opacity="1.00" d=" M 79.16 133.35 C 80.99 132.29 82.81 129.62 85.16 130.91 C 90.61 133.53 93.80 139.91 92.41 145.86 C 92.25 146.82 92.06 147.78 91.88 148.73 C 90.51 149.27 89.14 149.81 87.77 150.35 C 83.84 149.15 79.82 147.79 75.66 147.86 C 73.10 148.47 71.47 150.87 69.54 152.49 C 69.17 151.82 68.83 151.14 68.51 150.46 C 67.69 148.68 66.93 146.88 66.20 145.06 C 66.00 144.55 65.61 143.52 65.41 143.01 C 66.39 142.08 67.36 141.15 68.39 140.28 C 72.14 138.23 75.92 136.18 79.16 133.35 M 82.83 133.78 C 79.68 135.98 81.62 140.26 83.24 142.81 C 84.74 145.51 87.66 146.74 90.62 146.94 C 90.88 143.32 91.09 139.30 88.65 136.30 C 87.42 134.59 85.01 132.27 82.83 133.78 Z" />
		<path fill="#e1ca1b" opacity="1.00" d=" M 17.39 169.19 C 18.70 168.87 20.05 168.84 21.38 168.78 C 21.68 170.54 22.00 172.30 22.35 174.06 C 20.46 174.77 18.59 175.51 16.70 176.23 L 15.74 176.59 C 15.73 174.09 14.82 170.80 17.39 169.19 Z" />
	</g>
	<g id="#e4d8c2ff">
		<path fill="#e4d8c2" opacity="1.00" d=" M 72.18 73.22 C 80.79 67.67 91.14 65.10 101.33 64.98 C 101.31 67.13 101.27 69.29 101.22 71.45 C 98.33 71.85 95.46 72.31 92.58 72.73 C 85.41 73.41 78.53 75.63 71.93 78.43 C 71.48 78.52 70.57 78.72 70.12 78.82 C 70.48 76.87 70.10 74.32 72.18 73.22 Z" />
		<path fill="#e4d8c2" opacity="1.00" d=" M 77.66 91.17 C 81.57 90.53 85.45 89.28 88.55 86.72 C 91.01 87.90 93.49 89.04 95.86 90.37 C 98.39 93.20 101.28 95.84 104.88 97.20 C 112.31 100.76 120.46 97.87 128.04 96.57 C 128.25 96.85 128.66 97.43 128.86 97.72 C 123.19 101.02 117.22 103.76 111.17 106.25 C 111.26 107.55 111.26 108.86 111.15 110.16 C 112.33 110.01 113.51 109.83 114.69 109.64 C 113.55 111.81 112.38 113.95 111.27 116.13 C 115.77 118.02 120.42 119.52 125.15 120.69 C 126.52 125.51 126.94 130.99 123.38 135.01 C 119.31 134.36 115.18 134.43 111.11 134.97 C 113.64 133.79 116.13 132.52 118.60 131.20 C 108.21 128.88 97.88 126.34 87.76 123.01 C 83.83 121.51 79.77 122.96 75.84 123.59 C 72.94 124.11 70.31 122.41 67.74 121.34 C 67.47 116.66 67.28 111.90 65.67 107.45 C 65.19 105.27 63.87 102.90 64.66 100.69 C 67.31 97.41 70.73 94.84 73.84 92.01 C 77.16 94.55 80.65 96.87 84.22 99.04 C 81.46 99.36 78.70 99.67 75.94 99.99 C 75.48 104.22 75.24 108.47 75.19 112.72 C 78.10 112.90 81.02 113.10 83.95 113.09 C 86.70 112.95 89.43 112.63 92.17 112.37 C 91.82 110.00 91.43 107.63 90.99 105.27 C 91.28 105.26 91.85 105.25 92.13 105.24 C 93.99 106.78 95.85 108.36 98.00 109.48 C 99.33 108.31 100.39 106.89 101.46 105.50 C 94.15 99.70 85.45 96.19 77.66 91.17 Z" />
		<path fill="#e4d8c2" opacity="1.00" d=" M 37.96 99.49 C 41.05 99.23 44.60 98.71 47.24 100.72 C 49.65 102.67 51.36 105.32 53.20 107.77 C 49.31 107.04 45.38 106.35 41.41 106.45 C 39.76 108.55 38.37 111.44 40.01 113.97 C 42.30 117.29 46.45 118.50 49.75 120.52 C 47.52 121.18 45.28 121.81 42.99 122.24 C 41.62 121.94 40.30 121.46 38.99 120.95 C 36.27 118.30 34.03 114.89 33.75 111.00 C 33.37 106.87 34.06 101.81 37.96 99.49 Z" />
		<path fill="#e4d8c2" opacity="1.00" d=" M 76.86 102.82 C 80.01 102.87 83.17 102.94 86.32 103.04 C 86.51 104.00 86.70 104.97 86.89 105.93 C 85.90 108.03 84.78 110.07 83.95 112.24 C 81.15 112.12 78.35 112.08 75.55 112.01 C 75.92 108.93 76.35 105.87 76.86 102.82 Z" />
		<path fill="#e4d8c2" opacity="1.00" d=" M 118.14 108.46 C 118.41 108.35 118.94 108.14 119.21 108.04 C 119.93 107.99 121.36 107.90 122.07 107.85 C 122.05 110.82 121.96 113.79 121.82 116.76 C 120.51 116.72 119.19 116.68 117.88 116.63 C 117.70 116.40 117.34 115.95 117.15 115.73 C 117.55 113.31 117.87 110.89 118.14 108.46 Z" />
		<path fill="#e4d8c2" opacity="1.00" d=" M 87.73 129.10 C 89.10 128.04 90.39 126.19 92.37 126.86 C 99.53 128.30 106.63 130.02 113.82 131.35 C 110.20 133.23 106.41 136.08 102.09 134.99 C 97.02 133.95 91.59 132.83 87.73 129.10 Z" />
		<path fill="#e4d8c2" opacity="1.00" d=" M 57.80 140.55 C 61.19 144.74 60.37 150.27 60.25 155.26 C 59.41 155.23 57.72 155.16 56.88 155.13 C 55.88 152.08 54.91 149.03 53.89 145.99 C 54.22 150.61 55.71 155.04 58.26 158.90 C 57.22 159.10 56.16 159.24 55.11 159.38 C 53.65 157.70 51.42 157.82 49.41 157.85 C 49.68 158.86 49.95 159.86 50.23 160.87 C 45.02 164.03 39.31 166.21 33.91 169.02 C 31.92 169.95 29.94 170.90 27.95 171.83 C 26.97 172.27 25.98 172.68 24.98 173.07 C 24.32 173.31 23.01 173.81 22.35 174.06 C 22.00 172.30 21.68 170.54 21.38 168.78 C 29.61 165.63 37.16 160.99 45.00 157.01 C 44.83 154.69 44.68 152.36 44.57 150.03 C 48.88 147.68 53.06 145.03 56.60 141.60 C 56.90 141.34 57.50 140.81 57.80 140.55 Z" />
		<path fill="#e4d8c2" opacity="1.00" d=" M 62.56 147.78 C 63.68 146.75 64.96 145.93 66.20 145.06 C 66.93 146.88 67.69 148.68 68.51 150.46 C 66.44 152.20 64.06 153.49 61.56 154.47 C 61.82 152.25 61.51 149.82 62.56 147.78 Z" />
		<path fill="#e4d8c2" opacity="1.00" d=" M 63.71 154.29 C 66.45 154.67 69.27 155.41 69.72 158.56 C 68.25 159.03 66.78 159.50 65.31 159.99 C 64.95 159.56 64.25 158.70 63.89 158.27 C 63.85 157.27 63.76 155.28 63.71 154.29 Z" />
		<path fill="#e4d8c2" opacity="1.00" d=" M 38.73 191.94 C 41.02 187.58 43.12 182.96 46.78 179.56 C 46.80 179.99 46.82 180.84 46.83 181.26 C 45.10 185.25 43.13 189.13 41.43 193.14 C 40.75 192.84 39.41 192.24 38.73 191.94 Z" />
	</g>
	<g id="#869e97ff">
		<path fill="#869e97" opacity="1.00" d=" M 122.90 68.84 C 130.50 71.02 138.35 78.85 135.13 87.27 C 133.61 84.72 132.48 81.81 130.24 79.78 C 127.77 77.76 124.84 76.40 122.05 74.89 C 122.36 72.88 122.67 70.87 122.90 68.84 Z" />
		<path fill="#869e97" opacity="1.00" d=" M 57.80 140.55 C 58.75 139.77 59.74 139.04 60.72 138.30 C 62.29 139.86 63.86 141.43 65.41 143.01 C 65.61 143.52 66.00 144.55 66.20 145.06 C 64.96 145.93 63.68 146.75 62.56 147.78 C 61.51 149.82 61.82 152.25 61.56 154.47 C 64.06 153.49 66.44 152.20 68.51 150.46 C 68.83 151.14 69.17 151.82 69.54 152.49 C 71.62 154.06 74.00 155.17 76.39 156.18 C 77.06 158.06 77.70 159.95 78.32 161.85 C 75.24 163.88 72.02 165.70 68.71 167.34 C 68.51 165.72 68.31 164.11 68.11 162.49 C 66.28 161.91 64.47 161.33 62.61 160.87 C 63.51 160.58 64.41 160.29 65.31 159.99 C 66.78 159.50 68.25 159.03 69.72 158.56 C 69.27 155.41 66.45 154.67 63.71 154.29 C 63.76 155.28 63.85 157.27 63.89 158.27 C 63.25 157.55 62.61 156.83 61.95 156.13 C 60.74 157.08 59.54 158.03 58.26 158.90 C 55.71 155.04 54.22 150.61 53.89 145.99 C 54.91 149.03 55.88 152.08 56.88 155.13 C 57.72 155.16 59.41 155.23 60.25 155.26 C 60.37 150.27 61.19 144.74 57.80 140.55 Z" />
		<path fill="#869e97" opacity="1.00" d=" M 111.00 156.66 C 115.43 153.41 115.06 147.74 115.24 142.86 C 117.76 146.10 117.38 150.20 117.06 154.03 C 119.20 153.95 121.35 153.89 123.49 153.85 C 122.96 155.62 123.85 158.80 121.38 159.21 C 117.49 160.02 113.49 160.41 109.80 162.01 C 110.21 160.23 110.59 158.44 111.00 156.66 Z" />
		<path fill="#869e97" opacity="1.00" d=" M 87.77 150.35 C 89.14 149.81 90.51 149.27 91.88 148.73 C 93.23 153.25 92.04 158.01 89.87 162.07 C 89.11 163.81 86.88 163.60 85.37 164.21 C 85.21 160.46 85.38 156.70 85.90 152.99 C 87.13 152.31 88.36 151.63 89.59 150.95 C 89.14 150.80 88.23 150.50 87.77 150.35 Z" />
		<path fill="#869e97" opacity="1.00" d=" M 80.86 152.08 C 81.89 150.80 83.67 151.64 84.41 152.78 C 83.49 154.87 80.60 154.62 80.86 152.08 Z" />
		<path fill="#869e97" opacity="1.00" d=" M 49.41 157.85 C 51.42 157.82 53.65 157.70 55.11 159.38 C 55.37 159.58 55.91 159.98 56.17 160.19 C 57.77 160.60 59.41 160.80 61.05 160.92 C 57.53 168.49 51.48 174.42 46.83 181.26 C 46.82 180.84 46.80 179.99 46.78 179.56 C 47.93 174.83 52.56 171.83 55.20 167.88 C 56.26 166.41 57.24 164.88 58.22 163.36 C 56.90 162.80 55.57 162.23 54.23 161.71 C 52.95 161.20 51.58 161.05 50.23 160.87 C 49.95 159.86 49.68 158.86 49.41 157.85 Z" />
		<path fill="#869e97" opacity="1.00" d=" M 62.56 177.09 C 67.16 171.89 74.18 170.06 79.73 166.13 C 80.48 167.24 81.14 168.48 82.28 169.26 C 84.67 169.55 86.61 167.67 88.60 166.63 C 91.31 170.48 95.03 173.36 98.75 176.17 L 99.29 176.66 C 98.08 176.52 96.87 176.39 95.67 176.25 C 96.98 179.30 98.27 182.36 99.58 185.41 C 97.48 185.93 95.32 186.50 93.13 186.32 C 89.91 184.71 87.73 181.67 85.02 179.37 C 81.31 176.64 76.80 178.08 72.93 179.61 C 73.92 180.59 74.91 181.57 75.88 182.56 C 76.45 184.94 77.60 187.11 79.23 188.93 C 79.07 189.50 78.91 190.08 78.75 190.66 C 78.04 193.05 77.31 195.45 76.20 197.69 C 73.26 196.97 69.53 197.01 67.60 194.30 C 66.75 192.20 67.19 189.85 67.13 187.65 C 64.74 186.65 62.35 185.65 59.97 184.62 C 59.44 186.11 58.92 187.60 58.41 189.09 C 61.82 190.72 64.92 192.96 67.36 195.87 C 64.67 196.44 61.96 197.30 59.18 197.13 C 55.52 196.31 55.91 191.82 55.26 188.97 C 58.00 185.21 60.47 181.25 62.56 177.09 M 69.32 190.31 C 69.04 191.17 68.71 192.03 68.36 192.87 C 69.39 193.66 70.42 194.46 71.45 195.26 C 72.05 193.62 72.63 191.97 73.15 190.30 C 71.87 190.30 70.60 190.30 69.32 190.31 Z" />
		<path fill="#869e97" opacity="1.00" d=" M 84.12 189.85 C 83.69 186.63 84.01 183.37 84.85 180.24 C 87.32 183.55 90.62 186.71 91.13 191.02 C 91.00 194.26 88.22 196.55 86.05 198.64 C 85.72 197.47 85.42 196.30 85.13 195.12 C 85.84 194.93 87.26 194.55 87.97 194.35 C 87.65 193.03 87.32 191.71 87.00 190.39 C 86.08 190.47 85.15 190.56 84.23 190.64 L 84.12 189.85 Z" />
		<path fill="#869e97" opacity="1.00" d=" M 102.46 180.71 C 103.24 183.19 103.94 185.70 104.81 188.15 C 106.30 191.43 108.61 194.34 109.20 197.99 C 102.91 198.42 96.44 198.78 90.54 196.10 C 91.98 194.05 93.20 191.71 95.31 190.26 C 97.45 189.15 99.88 188.89 102.21 188.42 C 102.11 187.70 102.01 186.98 101.93 186.27 C 102.04 184.41 102.25 182.56 102.46 180.71 Z" />
	</g>
	<g id="#312e2bff">
		<path fill="#312e2b" opacity="1.00" d=" M 71.93 78.43 C 78.53 75.63 85.41 73.41 92.58 72.73 C 92.97 72.69 93.74 72.60 94.13 72.55 C 93.31 75.05 92.39 77.72 93.41 80.31 C 94.88 84.97 96.58 90.98 102.04 92.22 C 108.41 94.45 115.09 92.28 121.16 90.16 C 117.49 95.45 111.04 97.26 104.88 97.20 C 101.28 95.84 98.39 93.20 95.86 90.37 C 94.64 88.07 93.50 85.73 92.30 83.42 C 91.06 84.53 89.83 85.65 88.55 86.72 C 85.45 89.28 81.57 90.53 77.66 91.17 C 76.38 91.43 75.10 91.68 73.84 92.01 C 70.73 94.84 67.31 97.41 64.66 100.69 C 63.87 102.90 65.19 105.27 65.67 107.45 C 67.28 111.90 67.47 116.66 67.74 121.34 C 68.15 124.64 68.96 127.88 70.05 131.02 C 69.44 132.37 68.83 133.73 68.22 135.08 C 66.42 135.54 64.61 136.00 62.80 136.47 C 64.66 137.74 66.53 139.01 68.39 140.28 C 67.36 141.15 66.39 142.08 65.41 143.01 C 63.86 141.43 62.29 139.86 60.72 138.30 C 59.74 139.04 58.75 139.77 57.80 140.55 C 57.50 140.81 56.90 141.34 56.60 141.60 C 53.73 139.51 50.24 137.88 48.57 134.56 C 47.28 132.02 45.45 129.83 43.04 128.30 C 45.25 125.64 48.16 123.77 51.55 123.02 C 52.16 125.37 52.53 128.18 54.50 129.80 C 57.60 131.67 61.29 129.23 62.26 126.11 C 65.66 116.67 61.33 107.00 61.16 97.44 C 64.15 95.93 67.11 94.38 70.05 92.79 C 69.94 91.68 69.82 90.58 69.71 89.47 C 75.27 88.85 81.17 87.30 85.00 82.94 C 86.45 80.73 86.16 77.89 86.56 75.39 C 81.64 76.19 76.83 77.52 71.93 78.43 Z" />
		<path fill="#312e2b" opacity="1.00" d=" M 86.89 105.93 C 88.26 105.72 89.63 105.50 90.99 105.27 C 91.43 107.63 91.82 110.00 92.17 112.37 C 89.43 112.63 86.70 112.95 83.95 113.09 L 83.95 112.24 C 84.78 110.07 85.90 108.03 86.89 105.93 Z" />
		<path fill="#312e2b" opacity="1.00" d=" M 114.69 109.64 C 115.86 109.30 117.00 108.89 118.14 108.46 C 117.87 110.89 117.55 113.31 117.15 115.73 C 117.34 115.95 117.70 116.40 117.88 116.63 C 115.67 116.53 113.47 116.32 111.27 116.13 C 112.38 113.95 113.55 111.81 114.69 109.64 Z" />
		<path fill="#312e2b" opacity="1.00" d=" M 102.81 151.26 C 104.33 151.55 106.39 150.94 107.53 152.26 C 108.74 153.68 109.86 155.18 111.00 156.66 C 110.59 158.44 110.21 160.23 109.80 162.01 C 108.99 166.50 104.40 169.02 100.11 168.95 C 102.23 166.58 104.52 164.05 105.17 160.85 C 105.42 157.83 104.25 154.93 103.17 152.18 L 102.81 151.26 Z" />
		<path fill="#312e2b" opacity="1.00" d=" M 58.26 158.90 C 59.54 158.03 60.74 157.08 61.95 156.13 C 62.61 156.83 63.25 157.55 63.89 158.27 C 64.25 158.70 64.95 159.56 65.31 159.99 C 64.41 160.29 63.51 160.58 62.61 160.87 C 62.22 160.88 61.44 160.90 61.05 160.92 C 59.41 160.80 57.77 160.60 56.17 160.19 C 55.91 159.98 55.37 159.58 55.11 159.38 C 56.16 159.24 57.22 159.10 58.26 158.90 Z" />
		<path fill="#312e2b" opacity="1.00" d=" M 68.71 167.34 C 72.02 165.70 75.24 163.88 78.32 161.85 C 78.78 163.28 79.22 164.71 79.73 166.13 C 74.18 170.06 67.16 171.89 62.56 177.09 C 63.08 172.92 63.20 168.71 63.51 164.52 C 65.04 163.85 66.57 163.17 68.11 162.49 C 68.31 164.11 68.51 165.72 68.71 167.34 Z" />
		<path fill="#312e2b" opacity="1.00" d=" M 27.95 171.83 C 29.94 170.90 31.92 169.95 33.91 169.02 C 32.15 170.38 30.11 171.30 27.95 171.83 Z" />
		<path fill="#312e2b" opacity="1.00" d=" M 85.02 179.37 C 87.73 181.67 89.91 184.71 93.13 186.32 C 95.32 186.50 97.48 185.93 99.58 185.41 C 100.12 185.24 101.19 184.90 101.73 184.73 C 101.78 185.11 101.88 185.88 101.93 186.27 C 102.01 186.98 102.11 187.70 102.21 188.42 C 99.88 188.89 97.45 189.15 95.31 190.26 C 93.20 191.71 91.98 194.05 90.54 196.10 C 96.44 198.78 102.91 198.42 109.20 197.99 C 116.67 200.62 124.67 198.01 132.25 199.74 C 132.73 202.38 132.68 205.08 132.77 207.75 C 96.63 207.83 60.48 207.85 24.33 207.74 C 24.38 205.16 24.40 202.58 24.38 200.01 C 31.99 198.24 39.84 199.81 47.54 198.87 C 48.24 196.18 49.03 193.51 49.97 190.89 C 51.70 190.17 53.48 189.57 55.26 188.97 C 55.91 191.82 55.52 196.31 59.18 197.13 C 61.96 197.30 64.67 196.44 67.36 195.87 C 64.92 192.96 61.82 190.72 58.41 189.09 C 58.92 187.60 59.44 186.11 59.97 184.62 C 62.35 185.65 64.74 186.65 67.13 187.65 C 67.19 189.85 66.75 192.20 67.60 194.30 C 69.53 197.01 73.26 196.97 76.20 197.69 C 75.51 198.20 74.80 198.69 74.09 199.18 C 78.08 199.03 82.08 199.06 86.05 198.64 C 88.22 196.55 91.00 194.26 91.13 191.02 C 90.62 186.71 87.32 183.55 84.85 180.24 L 85.02 179.37 Z" />
		<path fill="#312e2b" opacity="1.00" d=" M 69.32 190.31 C 70.60 190.30 71.87 190.30 73.15 190.30 C 72.63 191.97 72.05 193.62 71.45 195.26 C 70.42 194.46 69.39 193.66 68.36 192.87 C 68.71 192.03 69.04 191.17 69.32 190.31 Z" />
		<path fill="#312e2b" opacity="1.00" d=" M 84.23 190.64 C 85.15 190.56 86.08 190.47 87.00 190.39 C 87.32 191.71 87.65 193.03 87.97 194.35 C 87.26 194.55 85.84 194.93 85.13 195.12 C 84.80 193.63 84.49 192.14 84.23 190.64 Z" />
	</g>
	<g id="#c3a87aff">
		<path fill="#c3a87a" opacity="1.00" d=" M 88.55 86.72 C 89.83 85.65 91.06 84.53 92.30 83.42 C 93.50 85.73 94.64 88.07 95.86 90.37 C 93.49 89.04 91.01 87.90 88.55 86.72 Z" />
		<path fill="#c3a87a" opacity="1.00" d=" M 121.16 90.16 C 121.66 89.98 122.66 89.62 123.16 89.44 C 124.86 91.76 126.46 94.16 128.04 96.57 C 120.46 97.87 112.31 100.76 104.88 97.20 C 111.04 97.26 117.49 95.45 121.16 90.16 Z" />
		<path fill="#c3a87a" opacity="1.00" d=" M 75.94 99.99 C 78.70 99.67 81.46 99.36 84.22 99.04 C 87.09 100.80 89.65 102.98 92.13 105.24 C 91.85 105.25 91.28 105.26 90.99 105.27 C 89.63 105.50 88.26 105.72 86.89 105.93 C 86.70 104.97 86.51 104.00 86.32 103.04 C 83.17 102.94 80.01 102.87 76.86 102.82 C 76.35 105.87 75.92 108.93 75.55 112.01 C 78.35 112.08 81.15 112.12 83.95 112.24 L 83.95 113.09 C 81.02 113.10 78.10 112.90 75.19 112.72 C 75.24 108.47 75.48 104.22 75.94 99.99 Z" />
		<path fill="#c3a87a" opacity="1.00" d=" M 119.21 108.04 C 122.44 105.14 125.80 102.38 129.39 99.95 C 128.78 107.04 124.81 113.49 125.15 120.69 C 120.42 119.52 115.77 118.02 111.27 116.13 C 113.47 116.32 115.67 116.53 117.88 116.63 C 119.19 116.68 120.51 116.72 121.82 116.76 C 121.96 113.79 122.05 110.82 122.07 107.85 C 121.36 107.90 119.93 107.99 119.21 108.04 Z" />
		<path fill="#c3a87a" opacity="1.00" d=" M 40.01 113.97 C 38.37 111.44 39.76 108.55 41.41 106.45 C 41.43 106.95 41.49 107.93 41.51 108.43 C 45.19 108.27 48.86 108.73 52.42 109.65 C 52.26 114.12 51.86 118.57 51.55 123.02 C 48.69 122.89 45.81 122.75 42.99 122.24 C 45.28 121.81 47.52 121.18 49.75 120.52 C 46.45 118.50 42.30 117.29 40.01 113.97 Z" />
		<path fill="#c3a87a" opacity="1.00" d=" M 131.20 113.03 C 131.34 110.44 133.03 108.35 134.37 106.26 C 136.52 112.47 136.88 120.11 132.69 125.57 C 132.03 121.42 130.93 117.27 131.20 113.03 Z" />
		<path fill="#c3a87a" opacity="1.00" d=" M 67.74 121.34 C 70.31 122.41 72.94 124.11 75.84 123.59 C 79.77 122.96 83.83 121.51 87.76 123.01 C 97.88 126.34 108.21 128.88 118.60 131.20 C 116.13 132.52 113.64 133.79 111.11 134.97 C 115.18 134.43 119.31 134.36 123.38 135.01 C 121.19 137.45 118.62 139.53 115.79 141.18 C 108.48 144.49 100.43 146.09 92.41 145.86 C 93.80 139.91 90.61 133.53 85.16 130.91 C 82.81 129.62 80.99 132.29 79.16 133.35 C 77.62 133.80 76.04 134.39 74.40 134.25 C 72.71 133.54 71.38 132.24 70.05 131.02 C 68.96 127.88 68.15 124.64 67.74 121.34 M 87.73 129.10 C 91.59 132.83 97.02 133.95 102.09 134.99 C 106.41 136.08 110.20 133.23 113.82 131.35 C 106.63 130.02 99.53 128.30 92.37 126.86 C 90.39 126.19 89.10 128.04 87.73 129.10 Z" />
	</g>
	<g id="#8b5527ff">
		<path fill="#8b5527" opacity="1.00" d=" M 70.05 131.02 C 71.38 132.24 72.71 133.54 74.40 134.25 C 76.04 134.39 77.62 133.80 79.16 133.35 C 75.92 136.18 72.14 138.23 68.39 140.28 C 66.53 139.01 64.66 137.74 62.80 136.47 C 64.61 136.00 66.42 135.54 68.22 135.08 C 68.83 133.73 69.44 132.37 70.05 131.02 Z" />
		<path fill="#8b5527" opacity="1.00" d=" M 82.83 133.78 C 85.01 132.27 87.42 134.59 88.65 136.30 C 91.09 139.30 90.88 143.32 90.62 146.94 C 87.66 146.74 84.74 145.51 83.24 142.81 C 81.62 140.26 79.68 135.98 82.83 133.78 Z" />
		<path fill="#8b5527" opacity="1.00" d=" M 107.53 152.26 C 109.18 148.46 110.44 143.54 115.24 142.86 C 115.06 147.74 115.43 153.41 111.00 156.66 C 109.86 155.18 108.74 153.68 107.53 152.26 Z" />
		<path fill="#8b5527" opacity="1.00" d=" M 91.88 148.73 C 92.06 147.78 92.25 146.82 92.41 145.86 C 93.21 147.64 94.03 149.41 94.86 151.17 C 96.57 150.63 98.28 150.09 99.99 149.56 C 101.06 150.42 102.15 151.25 103.17 152.18 C 104.25 154.93 105.42 157.83 105.17 160.85 C 104.52 164.05 102.23 166.58 100.11 168.95 C 98.92 170.13 97.64 171.29 96.07 171.94 C 95.16 171.50 94.28 171.00 93.44 170.45 C 94.01 169.18 94.59 167.92 95.17 166.66 C 93.00 166.33 90.49 164.81 88.60 166.63 C 86.61 167.67 84.67 169.55 82.28 169.26 C 81.14 168.48 80.48 167.24 79.73 166.13 C 79.22 164.71 78.78 163.28 78.32 161.85 C 77.70 159.95 77.06 158.06 76.39 156.18 C 77.86 154.79 79.33 153.40 80.86 152.08 C 80.60 154.62 83.49 154.87 84.41 152.78 C 84.90 152.85 85.40 152.92 85.90 152.99 C 85.38 156.70 85.21 160.46 85.37 164.21 C 86.88 163.60 89.11 163.81 89.87 162.07 C 92.04 158.01 93.23 153.25 91.88 148.73 Z" />
		<path fill="#8b5527" opacity="1.00" d=" M 98.75 176.17 C 102.23 178.07 105.57 180.23 108.65 182.74 C 107.48 183.27 106.30 183.81 105.13 184.33 C 105.02 185.60 104.91 186.88 104.81 188.15 C 103.94 185.70 103.24 183.19 102.46 180.71 C 102.25 182.56 102.04 184.41 101.93 186.27 C 101.88 185.88 101.78 185.11 101.73 184.73 C 101.45 181.92 101.20 178.91 99.29 176.66 L 98.75 176.17 Z" />
	</g>
</svg>
