<?xml version="1.0" encoding="UTF-8" ?>
<!DOCTYPE svg PUBLIC "-//W3C//DTD SVG 1.1//EN" "http://www.w3.org/Graphics/SVG/1.1/DTD/svg11.dtd">
<svg width="155pt" height="210pt" viewBox="0 0 155 210" version="1.1" xmlns="http://www.w3.org/2000/svg">
<g id="#2a2823ff">
<path fill="#2a2823" opacity="1.00" d=" M 101.20 28.11 C 100.78 26.50 104.33 26.80 103.79 28.32 C 103.14 28.27 101.85 28.17 101.20 28.11 Z" />
<path fill="#2a2823" opacity="1.00" d=" M 88.53 69.51 C 89.70 67.84 91.58 67.15 93.56 67.57 C 91.65 73.10 90.30 78.81 88.37 84.34 C 88.81 84.68 89.69 85.38 90.12 85.72 C 87.01 84.87 83.84 85.37 81.14 87.13 C 82.02 85.28 84.44 83.24 82.41 81.31 C 81.78 82.36 81.16 83.41 80.55 84.46 C 76.89 84.77 73.27 85.41 69.67 86.11 C 71.93 85.17 74.34 84.73 76.76 84.43 C 77.47 80.84 78.01 77.21 79.07 73.70 C 78.54 76.98 78.29 80.30 78.13 83.62 C 80.43 78.13 84.91 74.09 88.53 69.51 Z" />
<path fill="#2a2823" opacity="1.00" d=" M 47.13 83.61 C 49.56 86.17 51.67 89.03 54.14 91.57 C 55.33 91.08 56.53 90.59 57.72 90.10 C 58.73 90.89 59.74 91.67 60.76 92.44 C 61.47 96.03 58.15 99.37 54.56 98.40 C 51.11 94.01 48.18 89.17 47.13 83.61 Z" />
<path fill="#2a2823" opacity="1.00" d=" M 89.34 97.01 C 90.78 94.38 92.42 91.87 94.32 89.55 C 94.20 92.62 92.45 95.33 90.73 97.78 C 88.66 99.22 86.00 98.76 84.55 96.71 C 84.72 96.27 85.07 95.40 85.24 94.96 C 86.50 95.84 87.85 96.59 89.34 97.01 Z" />
<path fill="#2a2823" opacity="1.00" d=" M 96.15 90.33 C 97.54 91.14 98.92 91.96 100.28 92.81 C 100.81 92.61 101.85 92.21 102.37 92.01 C 102.30 94.51 101.64 96.94 101.29 99.40 C 100.34 98.46 99.39 97.52 98.44 96.58 C 96.98 96.45 95.53 96.31 94.08 96.18 C 95.12 94.38 96.98 92.59 96.15 90.33 Z" />
<path fill="#2a2823" opacity="1.00" d=" M 121.13 99.07 C 121.17 97.38 123.59 95.57 124.57 97.65 C 123.69 98.67 122.54 99.15 121.13 99.07 Z" />
<path fill="#2a2823" opacity="1.00" d=" M 118.93 99.80 C 119.30 99.67 120.05 99.43 120.42 99.30 C 118.66 102.46 117.91 106.03 118.37 109.63 C 120.24 109.19 122.42 109.28 123.95 107.94 C 125.87 106.48 126.21 103.93 126.80 101.76 C 127.10 101.62 127.69 101.35 127.99 101.22 C 127.51 103.25 127.26 105.39 126.26 107.25 C 124.99 108.80 123.17 109.73 121.55 110.86 C 121.04 113.17 120.56 115.49 120.12 117.81 C 120.85 117.64 122.30 117.31 123.02 117.14 C 120.94 118.71 118.63 119.91 116.44 121.32 C 116.45 121.72 116.46 122.51 116.47 122.91 C 114.97 120.50 113.25 118.08 110.34 117.33 C 114.80 113.54 115.00 107.22 116.89 102.05 C 117.54 101.27 118.21 100.51 118.93 99.80 Z" />
<path fill="#2a2823" opacity="1.00" d=" M 27.96 103.63 C 28.97 103.38 29.94 103.53 30.87 104.09 L 29.17 104.13 C 29.36 105.68 29.55 107.22 29.74 108.77 C 29.00 109.51 28.27 110.25 27.53 110.98 L 27.55 110.62 C 27.65 108.29 27.69 105.95 27.96 103.63 Z" />
<path fill="#2a2823" opacity="1.00" d=" M 84.36 125.46 C 90.17 120.63 94.49 112.29 103.06 112.41 C 103.35 112.71 103.91 113.30 104.20 113.60 C 100.41 114.71 96.53 115.87 93.29 118.23 C 89.29 120.83 86.82 125.17 82.73 127.65 C 81.82 126.82 80.92 125.99 80.01 125.17 C 81.45 125.30 82.91 125.58 84.36 125.46 Z" />
<path fill="#2a2823" opacity="1.00" d=" M 91.07 130.06 C 94.25 126.96 97.88 123.66 102.41 122.92 C 98.61 125.26 94.88 127.73 91.07 130.06 Z" />
<path fill="#2a2823" opacity="1.00" d=" M 84.66 138.31 C 82.99 136.06 81.96 133.37 82.59 130.55 C 85.42 133.96 88.24 137.38 91.25 140.64 C 89.02 139.96 86.83 139.15 84.66 138.31 Z" />
<path fill="#2a2823" opacity="1.00" d=" M 69.31 133.45 C 72.25 132.60 75.47 132.65 78.36 133.69 C 79.59 137.42 73.65 141.61 70.75 138.27 C 69.48 137.28 67.30 134.70 69.31 133.45 Z" />
<path fill="#2a2823" opacity="1.00" d=" M 66.45 139.29 C 67.73 140.83 69.09 142.30 70.54 143.70 C 73.19 142.30 76.09 142.65 78.82 143.62 C 79.61 142.45 80.40 141.27 81.20 140.11 C 83.09 142.42 84.76 145.24 84.42 148.35 C 83.43 147.89 82.72 147.15 82.30 146.12 C 81.38 143.68 79.56 146.44 80.23 147.87 L 80.28 148.82 C 76.57 148.67 72.08 150.01 68.83 148.11 C 69.33 146.87 67.90 143.76 66.90 146.10 C 66.96 146.58 67.09 147.55 67.16 148.03 L 67.46 148.98 C 66.67 148.92 65.09 148.79 64.30 148.72 C 64.56 145.49 65.50 142.38 66.45 139.29 Z" />
<path fill="#2a2823" opacity="1.00" d=" M 39.13 141.08 C 46.26 144.34 54.59 147.46 62.34 144.39 C 62.36 144.81 62.41 145.66 62.43 146.08 C 62.50 147.32 62.59 148.55 62.69 149.78 C 58.25 151.83 53.44 150.56 49.23 148.63 C 47.35 149.68 45.26 149.39 43.30 148.84 C 38.78 151.89 33.45 153.79 29.56 157.72 C 26.86 158.38 23.01 156.47 24.38 153.27 C 24.87 150.68 27.74 150.72 29.72 150.01 C 33.05 148.33 36.14 146.23 39.22 144.12 C 39.20 143.36 39.15 141.84 39.13 141.08 Z" />
<path fill="#2a2823" opacity="1.00" d=" M 87.55 146.04 C 89.45 146.42 91.37 146.74 93.31 146.90 C 92.57 147.12 91.08 147.55 90.34 147.77 C 90.33 148.15 90.31 148.92 90.30 149.31 C 89.84 152.60 88.48 156.30 90.63 159.30 C 92.71 157.38 93.93 154.75 93.20 151.90 C 94.04 153.52 93.78 155.28 93.42 157.00 C 97.62 161.75 101.66 166.71 104.81 172.23 C 105.70 173.66 105.72 175.37 105.90 176.99 C 110.39 177.80 115.14 179.14 118.40 182.51 C 118.89 184.81 118.76 187.24 118.46 189.56 C 116.14 192.26 112.29 192.66 109.06 193.54 C 94.92 196.27 80.41 196.17 66.08 195.51 C 58.51 194.82 50.68 194.37 43.58 191.44 C 39.82 190.24 40.50 185.28 41.34 182.39 C 46.72 177.22 54.74 176.65 61.80 175.98 C 61.65 176.47 61.35 177.46 61.19 177.95 C 58.59 178.75 56.00 179.98 56.15 183.15 C 57.14 182.06 58.22 181.06 59.16 179.94 C 59.30 180.99 59.56 183.09 59.70 184.14 C 61.07 182.17 62.61 180.33 64.26 178.59 C 64.49 180.14 64.71 181.69 64.93 183.24 C 65.28 183.22 65.98 183.18 66.33 183.16 C 66.22 181.04 65.72 178.97 65.01 176.99 C 64.43 176.71 63.26 176.15 62.68 175.87 C 62.52 174.40 62.22 172.92 62.29 171.44 C 65.56 166.78 69.85 163.03 73.41 158.63 C 74.45 159.19 75.52 159.70 76.59 160.22 C 76.25 159.25 75.91 158.27 75.57 157.31 C 77.42 155.95 79.31 154.51 80.23 152.32 C 76.19 152.15 72.13 152.01 68.11 152.46 L 68.05 152.46 C 67.83 152.21 67.39 151.72 67.17 151.47 C 74.01 152.20 81.22 152.45 87.71 149.78 C 87.66 148.53 87.63 147.28 87.55 146.04 M 82.70 164.95 C 82.88 168.00 80.92 170.31 79.26 172.64 L 78.77 173.06 C 78.64 172.04 78.39 169.99 78.27 168.97 C 75.94 170.36 73.87 172.61 73.54 175.40 C 74.56 175.06 76.59 174.39 77.61 174.05 C 77.51 174.77 77.32 176.23 77.22 176.95 C 77.59 176.49 78.31 175.57 78.67 175.11 C 79.21 176.30 79.78 177.48 80.32 178.67 C 81.03 177.78 81.82 176.96 82.69 176.23 C 84.86 177.45 87.42 177.08 89.55 178.27 L 89.92 179.65 L 91.16 179.54 C 90.31 176.67 89.51 173.39 86.43 172.13 C 86.40 170.91 86.34 169.69 86.32 168.48 C 87.34 168.02 88.36 167.56 89.39 167.11 C 91.25 164.81 90.37 162.10 88.97 159.83 C 86.78 161.40 84.87 163.34 82.70 164.95 M 83.25 180.89 C 82.69 182.51 83.23 183.05 84.87 182.52 C 85.44 180.89 84.90 180.35 83.25 180.89 Z" />
</g>
<g id="#747366ff">
<path fill="#747366" opacity="1.00" d=" M 100.25 27.74 L 101.20 28.11 C 101.85 28.17 103.14 28.27 103.79 28.32 L 104.79 28.11 C 106.85 29.83 109.16 31.45 110.38 33.92 C 110.82 36.28 109.49 38.42 108.49 40.44 C 104.35 47.93 100.04 55.32 95.72 62.70 C 94.81 64.23 94.10 65.89 93.56 67.57 C 91.58 67.15 89.70 67.84 88.53 69.51 C 84.91 74.09 80.43 78.13 78.13 83.62 C 78.29 80.30 78.54 76.98 79.07 73.70 C 81.06 61.05 86.89 49.49 92.47 38.11 C 94.32 34.15 96.91 30.57 100.25 27.74 Z" />
<path fill="#747366" opacity="1.00" d=" M 124.67 44.47 C 125.84 45.23 126.34 46.51 125.81 47.84 C 123.65 57.42 123.54 67.29 122.09 76.97 C 120.95 85.44 118.82 93.73 116.89 102.05 C 115.00 107.22 114.80 113.54 110.34 117.33 C 113.25 118.08 114.97 120.50 116.47 122.91 C 118.57 126.35 121.48 129.87 121.52 134.05 C 114.75 142.38 103.34 144.81 93.31 146.90 C 91.37 146.74 89.45 146.42 87.55 146.04 C 87.29 143.25 86.23 140.62 84.66 138.31 C 86.83 139.15 89.02 139.96 91.25 140.64 C 100.93 142.57 110.07 132.75 108.56 123.30 C 108.24 119.67 106.65 116.27 104.20 113.60 C 103.91 113.30 103.35 112.71 103.06 112.41 C 94.49 112.29 90.17 120.63 84.36 125.46 C 82.91 125.58 81.45 125.30 80.01 125.17 C 80.92 125.99 81.82 126.82 82.73 127.65 C 82.42 128.16 81.81 129.18 81.50 129.69 C 76.86 128.04 71.89 127.17 67.12 128.88 C 67.11 128.20 67.09 126.86 67.08 126.19 C 67.64 125.58 68.20 124.96 68.76 124.35 C 68.11 124.13 66.82 123.68 66.17 123.45 C 67.93 120.23 67.93 116.44 68.39 112.88 C 67.96 112.74 67.09 112.46 66.66 112.32 C 66.67 114.50 66.65 116.68 66.61 118.87 C 63.15 116.20 61.90 111.89 60.95 107.84 C 60.50 107.70 59.58 107.42 59.13 107.28 C 60.10 109.88 61.43 112.32 62.90 114.67 C 61.39 114.96 59.89 115.26 58.38 115.52 C 60.56 117.36 62.48 119.48 64.01 121.88 C 57.51 119.63 54.79 111.30 47.28 111.03 C 44.78 114.25 42.02 117.62 41.86 121.91 C 40.18 129.64 45.36 138.06 52.97 140.09 C 56.67 141.20 60.34 139.64 63.74 138.32 C 63.15 140.88 62.65 143.46 62.43 146.08 C 62.41 145.66 62.36 144.81 62.34 144.39 C 54.59 147.46 46.26 144.34 39.13 141.08 C 35.63 139.30 32.28 136.69 30.55 133.08 C 30.53 128.44 33.42 124.35 35.90 120.61 C 35.82 120.35 35.65 119.81 35.57 119.55 C 37.35 118.16 39.10 116.73 40.80 115.24 C 37.31 112.20 37.84 107.26 36.83 103.15 C 33.80 87.64 30.98 72.09 28.65 56.46 C 28.15 56.51 27.16 56.61 26.66 56.66 C 27.17 54.68 26.82 49.20 30.15 51.75 C 35.10 62.72 39.61 74.06 47.13 83.61 C 48.18 89.17 51.11 94.01 54.56 98.40 C 58.15 99.37 61.47 96.03 60.76 92.44 C 59.74 91.67 58.73 90.89 57.72 90.10 C 61.70 88.77 65.56 87.04 69.67 86.11 C 73.27 85.41 76.89 84.77 80.55 84.46 C 81.16 83.41 81.78 82.36 82.41 81.31 C 84.44 83.24 82.02 85.28 81.14 87.13 C 80.01 89.21 78.51 91.42 79.00 93.92 C 81.59 95.89 83.81 92.23 86.21 91.41 C 85.94 92.61 85.62 93.79 85.24 94.96 C 85.07 95.40 84.72 96.27 84.55 96.71 C 86.00 98.76 88.66 99.22 90.73 97.78 C 92.45 95.33 94.20 92.62 94.32 89.55 L 94.19 88.94 C 94.68 89.29 95.66 89.98 96.15 90.33 C 96.98 92.59 95.12 94.38 94.08 96.18 C 95.53 96.31 96.98 96.45 98.44 96.58 C 99.39 97.52 100.34 98.46 101.29 99.40 C 101.64 96.94 102.30 94.51 102.37 92.01 L 102.40 91.25 C 105.60 85.87 109.68 81.03 112.43 75.37 C 116.75 66.67 119.14 57.21 122.35 48.08 C 122.94 46.78 123.08 44.97 124.67 44.47 M 63.27 95.14 C 61.40 95.48 61.67 98.82 63.77 98.03 C 65.57 97.65 65.32 94.36 63.27 95.14 M 58.22 100.21 C 56.44 101.22 54.83 102.56 55.15 104.82 C 56.55 104.69 57.96 104.53 59.36 104.40 C 59.50 103.33 59.64 102.27 59.78 101.20 C 59.39 100.96 58.61 100.46 58.22 100.21 M 68.16 106.16 C 69.68 108.13 71.10 110.34 73.33 111.60 C 74.65 111.89 75.97 111.39 77.28 111.26 C 77.31 110.46 77.35 109.66 77.39 108.87 C 74.27 108.10 71.21 107.13 68.16 106.16 Z" />
<path fill="#747366" opacity="1.00" d=" M 24.75 83.04 C 25.26 74.96 25.70 66.85 26.81 58.82 C 27.42 63.88 26.64 68.95 26.59 74.02 C 25.97 85.06 25.80 96.12 25.78 107.17 C 23.96 99.26 24.68 91.08 24.75 83.04 Z" />
<path fill="#747366" opacity="1.00" d=" M 128.00 63.78 C 129.95 75.18 131.90 86.62 132.80 98.17 C 135.31 98.91 137.78 99.80 140.15 100.91 C 139.47 100.75 138.10 100.44 137.42 100.28 C 137.01 103.24 136.46 106.19 135.62 109.07 C 136.59 108.83 138.51 108.36 139.47 108.13 L 139.99 108.01 C 137.62 109.10 135.13 109.84 132.72 110.81 C 130.51 112.00 128.67 113.78 126.41 114.90 C 128.28 112.46 131.07 110.28 131.28 106.99 C 131.97 98.91 130.14 90.90 129.36 82.89 C 128.80 76.53 126.87 70.18 128.00 63.78 Z" />
<path fill="#747366" opacity="1.00" d=" M 124.57 97.65 C 125.43 98.95 126.17 100.33 126.80 101.76 C 126.21 103.93 125.87 106.48 123.95 107.94 C 122.42 109.28 120.24 109.19 118.37 109.63 C 117.91 106.03 118.66 102.46 120.42 99.30 C 120.59 99.25 120.95 99.13 121.13 99.07 C 122.54 99.15 123.69 98.67 124.57 97.65 Z" />
<path fill="#747366" opacity="1.00" d=" M 82.70 164.95 C 84.87 163.34 86.78 161.40 88.97 159.83 C 90.37 162.10 91.25 164.81 89.39 167.11 C 88.36 167.56 87.34 168.02 86.32 168.48 C 86.34 169.69 86.40 170.91 86.43 172.13 C 89.51 173.39 90.31 176.67 91.16 179.54 L 89.92 179.65 L 89.55 178.27 C 88.65 175.25 84.91 175.71 82.44 175.53 C 81.41 174.87 80.39 174.21 79.39 173.52 L 79.26 172.64 C 80.92 170.31 82.88 168.00 82.70 164.95 Z" />
<path fill="#747366" opacity="1.00" d=" M 83.25 180.89 C 84.90 180.35 85.44 180.89 84.87 182.52 C 83.23 183.05 82.69 182.51 83.25 180.89 Z" />
</g>
<g id="#85593eff">
<path fill="#85593e" opacity="1.00" d=" M 124.35 44.16 C 124.80 44.28 125.70 44.54 126.15 44.67 C 127.29 50.97 127.62 57.40 128.00 63.78 C 126.87 70.18 128.80 76.53 129.36 82.89 C 130.14 90.90 131.97 98.91 131.28 106.99 C 131.07 110.28 128.28 112.46 126.41 114.90 C 125.41 115.82 124.24 116.54 123.02 117.14 C 122.30 117.31 120.85 117.64 120.12 117.81 C 120.56 115.49 121.04 113.17 121.55 110.86 C 123.17 109.73 124.99 108.80 126.26 107.25 C 127.26 105.39 127.51 103.25 127.99 101.22 C 127.69 101.35 127.10 101.62 126.80 101.76 C 126.17 100.33 125.43 98.95 124.57 97.65 C 123.59 95.57 121.17 97.38 121.13 99.07 C 120.95 99.13 120.59 99.25 120.42 99.30 C 120.05 99.43 119.30 99.67 118.93 99.80 C 118.21 100.51 117.54 101.27 116.89 102.05 C 118.82 93.73 120.95 85.44 122.09 76.97 C 123.54 67.29 123.65 57.42 125.81 47.84 C 126.34 46.51 125.84 45.23 124.67 44.47 L 124.35 44.16 Z" />
<path fill="#85593e" opacity="1.00" d=" M 26.66 56.66 C 27.16 56.61 28.15 56.51 28.65 56.46 C 30.98 72.09 33.80 87.64 36.83 103.15 C 37.84 107.26 37.31 112.20 40.80 115.24 C 39.10 116.73 37.35 118.16 35.57 119.55 C 34.41 118.83 33.28 118.06 32.19 117.23 C 34.23 115.42 35.65 112.69 35.00 109.92 C 34.24 107.61 32.42 105.88 30.87 104.09 C 29.94 103.53 28.97 103.38 27.96 103.63 C 27.69 105.95 27.65 108.29 27.55 110.62 C 26.63 109.62 26.04 108.47 25.78 107.17 C 25.80 96.12 25.97 85.06 26.59 74.02 C 26.64 68.95 27.42 63.88 26.81 58.82 C 26.77 58.28 26.70 57.20 26.66 56.66 Z" />
<path fill="#85593e" opacity="1.00" d=" M 81.14 87.13 C 83.84 85.37 87.01 84.87 90.12 85.72 C 91.66 86.53 93.23 87.45 94.19 88.94 L 94.32 89.55 C 92.42 91.87 90.78 94.38 89.34 97.01 C 87.85 96.59 86.50 95.84 85.24 94.96 C 85.62 93.79 85.94 92.61 86.21 91.41 C 83.81 92.23 81.59 95.89 79.00 93.92 C 78.51 91.42 80.01 89.21 81.14 87.13 Z" />
<path fill="#85593e" opacity="1.00" d=" M 63.27 95.14 C 65.32 94.36 65.57 97.65 63.77 98.03 C 61.67 98.82 61.40 95.48 63.27 95.14 Z" />
<path fill="#85593e" opacity="1.00" d=" M 58.22 100.21 C 58.61 100.46 59.39 100.96 59.78 101.20 C 59.64 102.27 59.50 103.33 59.36 104.40 C 57.96 104.53 56.55 104.69 55.15 104.82 C 54.83 102.56 56.44 101.22 58.22 100.21 Z" />
<path fill="#85593e" opacity="1.00" d=" M 41.86 121.91 C 42.02 117.62 44.78 114.25 47.28 111.03 C 54.79 111.30 57.51 119.63 64.01 121.88 C 64.73 122.41 65.44 122.95 66.17 123.45 C 66.82 123.68 68.11 124.13 68.76 124.35 C 68.20 124.96 67.64 125.58 67.08 126.19 C 67.09 126.86 67.11 128.20 67.12 128.88 C 71.89 127.17 76.86 128.04 81.50 129.69 C 81.81 129.18 82.42 128.16 82.73 127.65 C 86.82 125.17 89.29 120.83 93.29 118.23 C 96.53 115.87 100.41 114.71 104.20 113.60 C 106.65 116.27 108.24 119.67 108.56 123.30 C 110.07 132.75 100.93 142.57 91.25 140.64 C 88.24 137.38 85.42 133.96 82.59 130.55 C 81.96 133.37 82.99 136.06 84.66 138.31 C 86.23 140.62 87.29 143.25 87.55 146.04 C 87.63 147.28 87.66 148.53 87.71 149.78 C 81.22 152.45 74.01 152.20 67.17 151.47 C 65.69 151.21 64.22 150.92 62.75 150.60 L 62.69 149.78 C 62.59 148.55 62.50 147.32 62.43 146.08 C 62.65 143.46 63.15 140.88 63.74 138.32 C 60.34 139.64 56.67 141.20 52.97 140.09 C 45.36 138.06 40.18 129.64 41.86 121.91 M 45.73 123.80 C 48.33 125.28 50.95 126.70 53.54 128.18 C 53.11 126.19 53.82 124.46 55.15 123.04 C 52.55 120.07 47.52 119.92 45.73 123.80 M 91.07 130.06 C 94.88 127.73 98.61 125.26 102.41 122.92 C 97.88 123.66 94.25 126.96 91.07 130.06 M 54.27 128.68 C 56.21 129.66 58.17 130.63 60.29 131.16 C 59.56 129.05 58.68 127.00 57.80 124.95 C 56.77 126.32 55.63 127.61 54.27 128.68 M 69.31 133.45 C 67.30 134.70 69.48 137.28 70.75 138.27 C 73.65 141.61 79.59 137.42 78.36 133.69 C 75.47 132.65 72.25 132.60 69.31 133.45 M 66.45 139.29 C 65.50 142.38 64.56 145.49 64.30 148.72 C 65.09 148.79 66.67 148.92 67.46 148.98 L 67.16 148.03 C 67.57 148.05 68.41 148.09 68.83 148.11 C 72.08 150.01 76.57 148.67 80.28 148.82 L 80.23 147.87 C 81.70 148.30 82.39 147.72 82.30 146.12 C 82.72 147.15 83.43 147.89 84.42 148.35 C 84.76 145.24 83.09 142.42 81.20 140.11 C 80.40 141.27 79.61 142.45 78.82 143.62 C 76.09 142.65 73.19 142.30 70.54 143.70 C 69.09 142.30 67.73 140.83 66.45 139.29 Z" />
<path fill="#85593e" opacity="1.00" d=" M 90.63 159.30 C 88.48 156.30 89.84 152.60 90.30 149.31 C 91.29 150.14 92.26 151.00 93.20 151.90 C 93.93 154.75 92.71 157.38 90.63 159.30 Z" />
<path fill="#85593e" opacity="1.00" d=" M 68.11 152.46 C 72.13 152.01 76.19 152.15 80.23 152.32 C 79.31 154.51 77.42 155.95 75.57 157.31 C 75.91 158.27 76.25 159.25 76.59 160.22 C 75.52 159.70 74.45 159.19 73.41 158.63 C 71.52 156.68 69.84 154.55 68.11 152.46 Z" />
<path fill="#85593e" opacity="1.00" d=" M 61.80 175.98 L 61.94 175.52 L 62.68 175.87 C 63.26 176.15 64.43 176.71 65.01 176.99 C 65.72 178.97 66.22 181.04 66.33 183.16 C 65.98 183.18 65.28 183.22 64.93 183.24 C 64.71 181.69 64.49 180.14 64.26 178.59 C 62.61 180.33 61.07 182.17 59.70 184.14 C 59.56 183.09 59.30 180.99 59.16 179.94 C 58.22 181.06 57.14 182.06 56.15 183.15 C 56.00 179.98 58.59 178.75 61.19 177.95 C 61.35 177.46 61.65 176.47 61.80 175.98 Z" />
</g>
<g id="#c5c4b8ff">
<path fill="#c5c4b8" opacity="1.00" d=" M 137.42 100.28 C 138.10 100.44 139.47 100.75 140.15 100.91 C 142.15 101.46 144.08 102.26 146.04 102.96 C 146.42 103.89 147.75 105.68 145.92 105.97 C 143.80 106.78 141.65 107.51 139.47 108.13 C 138.51 108.36 136.59 108.83 135.62 109.07 C 136.46 106.19 137.01 103.24 137.42 100.28 Z" />
<path fill="#c5c4b8" opacity="1.00" d=" M 68.16 106.16 C 71.21 107.13 74.27 108.10 77.39 108.87 C 77.35 109.66 77.31 110.46 77.28 111.26 C 75.97 111.39 74.65 111.89 73.33 111.60 C 71.10 110.34 69.68 108.13 68.16 106.16 Z" />
<path fill="#c5c4b8" opacity="1.00" d=" M 59.13 107.28 C 59.58 107.42 60.50 107.70 60.95 107.84 C 61.90 111.89 63.15 116.20 66.61 118.87 C 66.65 116.68 66.67 114.50 66.66 112.32 C 67.09 112.46 67.96 112.74 68.39 112.88 C 67.93 116.44 67.93 120.23 66.17 123.45 C 65.44 122.95 64.73 122.41 64.01 121.88 C 62.48 119.48 60.56 117.36 58.38 115.52 C 59.89 115.26 61.39 114.96 62.90 114.67 C 61.43 112.32 60.10 109.88 59.13 107.28 Z" />
<path fill="#c5c4b8" opacity="1.00" d=" M 66.90 146.10 C 67.90 143.76 69.33 146.87 68.83 148.11 C 68.41 148.09 67.57 148.05 67.16 148.03 C 67.09 147.55 66.96 146.58 66.90 146.10 Z" />
<path fill="#c5c4b8" opacity="1.00" d=" M 80.23 147.87 C 79.56 146.44 81.38 143.68 82.30 146.12 C 82.39 147.72 81.70 148.30 80.23 147.87 Z" />
</g>
<g id="#fff05dff">
<path fill="#fff05d" opacity="1.00" d=" M 45.73 123.80 C 47.52 119.92 52.55 120.07 55.15 123.04 C 53.82 124.46 53.11 126.19 53.54 128.18 C 50.95 126.70 48.33 125.28 45.73 123.80 Z" />
<path fill="#fff05d" opacity="1.00" d=" M 54.27 128.68 C 55.63 127.61 56.77 126.32 57.80 124.95 C 58.68 127.00 59.56 129.05 60.29 131.16 C 58.17 130.63 56.21 129.66 54.27 128.68 Z" />
<path fill="#fff05d" opacity="1.00" d=" M 78.77 173.06 L 79.26 172.64 L 79.39 173.52 C 80.39 174.21 81.41 174.87 82.44 175.53 C 84.91 175.71 88.65 175.25 89.55 178.27 C 87.42 177.08 84.86 177.45 82.69 176.23 C 81.82 176.96 81.03 177.78 80.32 178.67 C 79.78 177.48 79.21 176.30 78.67 175.11 C 78.31 175.57 77.59 176.49 77.22 176.95 C 77.32 176.23 77.51 174.77 77.61 174.05 C 77.99 173.71 78.38 173.38 78.77 173.06 Z" />
</g>
</svg>
