<?xml version="1.0" encoding="UTF-8" ?>
<!DOCTYPE svg PUBLIC "-//W3C//DTD SVG 1.1//EN" "http://www.w3.org/Graphics/SVG/1.1/DTD/svg11.dtd">
<svg width="155pt" height="210pt" viewBox="0 0 155 210" version="1.1" xmlns="http://www.w3.org/2000/svg">
<g id="#d8d3b0ff">
<path fill="#d8d3b0" opacity="1.00" d=" M 56.72 59.64 C 62.52 55.30 69.85 53.20 77.00 52.71 C 88.53 53.81 100.78 58.71 106.99 69.03 C 109.89 74.08 113.35 79.08 114.10 85.02 C 111.87 84.28 109.60 83.69 107.34 83.07 C 108.87 88.72 110.49 94.35 111.61 100.10 C 111.66 100.53 111.77 101.39 111.82 101.82 C 112.42 108.56 112.64 115.37 111.90 122.12 C 111.81 122.77 111.63 124.08 111.54 124.73 C 110.54 131.41 107.69 137.86 102.90 142.69 C 101.80 143.32 100.67 143.90 99.53 144.45 C 95.80 145.68 91.88 146.55 87.93 146.31 C 88.24 144.79 88.56 143.27 88.89 141.75 C 89.13 140.65 89.38 139.55 89.63 138.45 C 94.54 138.36 97.10 133.91 99.16 130.10 C 96.22 131.98 93.37 134.04 90.92 136.53 C 89.98 132.94 89.76 129.03 91.78 125.76 C 94.79 120.41 96.76 114.53 97.09 108.37 C 97.27 102.06 102.42 96.65 100.91 90.24 C 100.32 86.79 98.72 83.64 96.99 80.64 C 97.79 86.06 99.10 91.38 100.06 96.76 C 96.15 95.21 92.32 93.47 88.58 91.55 C 87.89 88.65 87.13 85.76 86.33 82.88 C 86.35 85.41 86.39 87.94 86.41 90.47 C 81.74 89.39 80.17 84.73 78.50 80.82 C 78.72 83.27 78.91 85.71 79.11 88.16 C 72.24 86.53 64.82 87.95 58.25 85.19 C 54.33 86.59 50.40 87.94 46.38 89.01 C 46.50 86.97 46.60 84.92 46.72 82.88 C 45.84 85.18 44.91 87.45 43.96 89.72 C 41.78 90.97 38.48 92.06 38.66 95.15 C 38.81 100.90 39.73 106.61 39.69 112.37 C 36.57 107.81 32.46 103.54 31.61 97.85 C 34.00 89.78 35.32 81.18 39.89 73.94 C 41.16 71.83 43.09 70.28 45.09 68.90 C 43.45 72.20 42.23 75.68 41.12 79.19 C 45.74 75.69 50.13 71.54 55.80 69.83 C 63.62 67.48 72.20 68.21 79.76 71.18 C 85.05 73.23 89.27 77.14 94.05 80.07 C 92.61 72.33 88.70 64.25 81.35 60.62 C 73.64 56.89 64.83 58.39 56.72 59.64 Z" />
<path fill="#d8d3b0" opacity="1.00" d=" M 48.42 90.80 C 59.05 89.59 70.19 87.76 80.49 91.78 C 84.28 93.12 86.79 96.43 89.09 99.54 C 86.74 100.61 84.39 101.68 82.03 102.71 C 84.44 102.42 86.85 102.14 89.26 101.87 C 83.83 106.20 77.59 109.51 70.71 110.78 C 71.20 113.48 71.16 116.66 73.36 118.66 C 75.08 120.59 77.84 120.59 80.22 120.72 C 82.62 120.78 85.01 120.52 87.40 120.33 C 86.99 122.73 85.96 125.11 83.34 125.63 C 81.81 127.72 80.60 130.67 77.66 130.96 C 72.98 131.43 68.44 129.73 63.86 129.03 C 58.82 128.27 54.02 125.77 48.83 126.42 C 46.74 123.40 44.57 120.42 42.73 117.24 C 42.63 110.80 41.28 104.41 41.65 97.97 C 41.67 94.12 45.35 92.13 48.42 90.80 M 43.15 103.67 C 43.39 106.16 43.76 108.64 44.18 111.11 C 44.97 110.06 45.74 109.01 46.51 107.95 C 47.81 108.77 49.16 109.54 50.32 110.57 C 50.84 112.22 51.05 113.95 51.41 115.65 C 52.90 114.56 54.25 113.30 55.41 111.86 C 51.42 109.00 47.39 106.17 43.15 103.67 M 45.78 117.27 C 47.87 119.88 51.14 120.03 54.21 119.58 C 51.54 118.39 48.69 117.63 45.78 117.27 Z" />
<path fill="#d8d3b0" opacity="1.00" d=" M 130.25 105.24 C 135.13 102.41 137.52 96.77 142.47 94.00 C 139.05 98.33 136.06 103.20 131.51 106.49 C 126.84 109.41 121.04 108.95 115.80 108.32 C 120.69 107.87 125.79 107.46 130.25 105.24 Z" />
<path fill="#d8d3b0" opacity="1.00" d=" M 83.09 111.94 C 85.39 110.30 88.19 109.63 90.82 108.69 L 90.81 109.76 C 90.42 113.27 89.17 116.86 86.05 118.85 C 83.84 119.33 81.64 119.83 79.45 120.38 C 76.98 118.99 75.11 116.82 73.54 114.51 C 75.59 115.22 77.61 116.03 79.62 116.84 C 80.72 115.17 81.62 113.32 83.09 111.94 Z" />
<path fill="#d8d3b0" opacity="1.00" d=" M 128.05 116.36 C 131.86 116.46 135.20 114.42 138.57 112.92 C 136.53 115.98 134.31 119.23 130.85 120.79 C 125.51 123.23 119.45 122.88 113.76 122.28 C 114.62 120.04 115.35 117.75 116.07 115.46 C 120.07 115.70 124.04 116.32 128.05 116.36 Z" />
<path fill="#d8d3b0" opacity="1.00" d=" M 33.17 125.72 C 35.22 128.73 37.24 131.77 39.01 134.95 C 40.42 138.71 42.10 142.42 42.80 146.40 C 37.54 141.23 33.44 134.28 33.24 126.76 L 33.17 125.72 Z" />
<path fill="#d8d3b0" opacity="1.00" d=" M 39.74 152.49 C 42.36 150.62 44.86 148.59 47.38 146.59 C 49.91 150.72 54.19 153.14 57.87 156.08 C 58.32 158.89 58.98 161.74 60.74 164.04 C 61.06 164.48 61.70 165.36 62.02 165.80 C 60.51 168.96 59.08 172.16 57.68 175.36 C 52.91 170.36 52.12 163.15 48.55 157.43 C 46.70 154.34 42.82 153.76 39.74 152.49 Z" />
</g>
<g id="#346972ff">
<path fill="#346972" opacity="1.00" d=" M 56.72 59.64 C 64.83 58.39 73.64 56.89 81.35 60.62 C 88.70 64.25 92.61 72.33 94.05 80.07 C 89.27 77.14 85.05 73.23 79.76 71.18 C 72.20 68.21 63.62 67.48 55.80 69.83 C 50.13 71.54 45.74 75.69 41.12 79.19 C 42.23 75.68 43.45 72.20 45.09 68.90 C 48.58 65.42 52.23 61.78 56.72 59.64 Z" />
<path fill="#346972" opacity="1.00" d=" M 134.39 92.39 C 138.47 91.05 142.05 87.94 146.55 88.18 C 146.98 98.84 143.49 109.59 137.07 118.08 C 131.95 124.32 123.10 124.64 115.67 124.85 C 114.29 124.82 112.92 124.78 111.54 124.73 C 111.63 124.08 111.81 122.77 111.90 122.12 C 112.36 122.16 113.29 122.24 113.76 122.28 C 119.45 122.88 125.51 123.23 130.85 120.79 C 134.31 119.23 136.53 115.98 138.57 112.92 C 142.33 106.72 145.13 99.74 145.10 92.38 C 144.21 92.90 143.33 93.43 142.47 94.00 C 137.52 96.77 135.13 102.41 130.25 105.24 C 125.79 107.46 120.69 107.87 115.80 108.32 C 115.16 108.25 113.89 108.12 113.26 108.05 C 112.76 105.98 112.23 103.91 111.82 101.82 C 111.77 101.39 111.66 100.53 111.61 100.10 C 111.81 98.97 112.04 97.85 112.28 96.74 C 113.51 96.32 114.75 95.90 115.99 95.49 C 116.01 94.86 116.04 93.60 116.06 92.97 C 116.47 93.87 116.88 94.78 117.30 95.68 C 122.99 94.61 128.87 94.28 134.39 92.39 Z" />
<path fill="#346972" opacity="1.00" d=" M 9.98 88.86 C 12.16 89.59 14.45 90.26 16.27 91.73 C 18.96 97.51 21.51 103.35 24.29 109.09 C 21.50 108.45 18.01 108.39 16.25 105.75 C 14.17 102.67 13.24 98.85 10.38 96.31 C 9.71 93.88 9.64 91.35 9.98 88.86 Z" />
<path fill="#346972" opacity="1.00" d=" M 87.22 92.86 C 90.15 94.12 93.33 95.08 95.81 97.16 C 97.38 100.62 96.93 104.65 97.09 108.37 C 96.76 114.53 94.79 120.41 91.78 125.76 C 89.76 129.03 89.98 132.94 90.92 136.53 C 90.59 137.01 89.95 137.97 89.63 138.45 C 88.50 139.00 87.37 139.55 86.25 140.12 C 86.44 139.55 86.82 138.41 87.01 137.84 C 80.40 139.72 73.57 140.71 66.71 140.99 C 66.77 142.64 66.82 144.30 66.94 145.95 C 66.19 144.26 65.52 142.54 64.73 140.87 C 63.93 140.26 63.11 139.69 62.27 139.14 C 60.35 138.78 58.41 138.53 56.48 138.29 C 54.53 135.55 52.69 132.73 51.00 129.82 C 56.27 131.07 59.36 135.96 64.16 138.02 C 70.47 139.48 76.94 137.20 82.73 134.81 C 87.86 132.82 89.04 126.87 91.58 122.59 C 94.03 118.42 94.82 113.63 94.82 108.86 C 94.93 107.58 95.11 106.31 95.33 105.06 C 95.63 103.41 96.01 101.78 96.15 100.11 C 94.07 96.78 90.31 95.09 87.22 92.86 Z" />
<path fill="#346972" opacity="1.00" d=" M 39.01 134.95 C 42.01 138.68 44.87 142.51 47.38 146.59 C 44.86 148.59 42.36 150.62 39.74 152.49 L 39.03 152.99 C 40.10 150.69 41.58 148.61 42.80 146.40 C 42.10 142.42 40.42 138.71 39.01 134.95 Z" />
<path fill="#346972" opacity="1.00" d=" M 70.92 151.18 C 73.18 149.48 75.04 147.35 77.05 145.38 C 79.04 145.53 81.11 145.47 83.00 146.21 C 84.47 147.62 85.47 149.43 86.60 151.11 C 83.88 153.72 80.62 155.64 77.20 157.20 C 74.84 159.16 73.21 161.82 70.88 163.79 C 67.55 164.47 64.11 163.93 60.74 164.04 C 58.98 161.74 58.32 158.89 57.87 156.08 C 60.68 154.89 62.91 152.79 63.94 149.87 C 66.28 150.21 68.60 150.72 70.92 151.18 Z" />
<path fill="#346972" opacity="1.00" d=" M 110.68 149.94 C 111.22 148.42 111.91 146.96 112.75 145.58 C 119.40 147.50 126.09 149.42 133.00 150.09 C 137.73 150.55 142.48 150.71 147.20 151.22 C 146.99 153.17 147.47 155.42 146.22 157.10 C 144.55 158.29 142.90 159.65 140.90 160.23 C 138.15 160.15 135.61 158.90 133.06 158.00 C 125.72 155.00 118.10 152.75 110.68 149.94 Z" />
<path fill="#346972" opacity="1.00" d=" M 85.54 165.51 C 86.85 164.56 89.00 164.51 90.32 165.47 C 89.84 166.97 86.12 166.77 85.54 165.51 Z" />
<path fill="#346972" opacity="1.00" d=" M 82.26 166.32 C 85.06 165.99 87.93 166.50 90.63 167.27 C 93.49 168.01 93.63 171.39 93.73 173.80 C 92.84 179.85 95.62 185.40 97.03 191.12 C 97.15 191.62 97.39 192.62 97.51 193.11 C 84.96 194.32 72.19 194.83 59.74 192.44 C 67.86 191.06 76.09 191.99 84.27 191.55 C 84.49 190.89 84.94 189.57 85.16 188.91 C 86.18 187.76 87.27 186.69 88.38 185.63 C 89.36 184.68 90.36 183.74 91.25 182.71 C 89.83 178.34 85.46 176.18 81.85 173.89 C 81.92 174.33 82.05 175.20 82.12 175.64 C 82.39 177.78 82.60 179.94 82.82 182.10 C 81.60 181.70 80.39 181.30 79.18 180.91 C 77.75 178.39 75.67 176.34 73.64 174.31 C 75.17 173.26 76.71 172.21 78.18 171.09 C 78.92 172.39 79.65 173.71 80.36 175.03 C 80.48 172.13 79.56 168.32 82.26 166.32 Z" />
</g>
<g id="#00d3b2ff">
<path fill="#00d3b2" opacity="1.00" d=" M 7.02 64.80 C 10.23 66.72 11.75 70.25 13.78 73.22 C 18.04 79.65 22.26 86.11 26.35 92.65 C 27.62 94.83 29.55 96.47 31.61 97.85 C 32.46 103.54 36.57 107.81 39.69 112.37 C 40.70 114.00 41.72 115.61 42.73 117.24 C 44.57 120.42 46.74 123.40 48.83 126.42 C 49.57 127.54 50.29 128.67 51.00 129.82 C 52.69 132.73 54.53 135.55 56.48 138.29 C 56.84 138.83 57.55 139.90 57.91 140.44 C 58.58 141.48 59.23 142.53 59.88 143.59 C 61.16 145.73 62.50 147.83 63.94 149.87 C 62.91 152.79 60.68 154.89 57.87 156.08 C 54.19 153.14 49.91 150.72 47.38 146.59 C 44.87 142.51 42.01 138.68 39.01 134.95 C 37.24 131.77 35.22 128.73 33.17 125.72 C 30.57 119.99 27.24 114.64 24.29 109.09 C 21.51 103.35 18.96 97.51 16.27 91.73 C 12.81 82.92 8.12 74.32 7.02 64.80 Z" />
</g>
<g id="#959589ff">
<path fill="#959589" opacity="1.00" d=" M 78.50 80.82 C 80.17 84.73 81.74 89.39 86.41 90.47 C 86.39 87.94 86.35 85.41 86.33 82.88 C 87.13 85.76 87.89 88.65 88.58 91.55 C 92.32 93.47 96.15 95.21 100.06 96.76 C 99.10 91.38 97.79 86.06 96.99 80.64 C 98.72 83.64 100.32 86.79 100.91 90.24 C 102.42 96.65 97.27 102.06 97.09 108.37 C 96.93 104.65 97.38 100.62 95.81 97.16 C 93.33 95.08 90.15 94.12 87.22 92.86 C 90.31 95.09 94.07 96.78 96.15 100.11 C 96.01 101.78 95.63 103.41 95.33 105.06 C 87.44 107.90 79.72 111.23 71.76 113.88 C 72.20 114.04 73.10 114.35 73.54 114.51 C 75.11 116.82 76.98 118.99 79.45 120.38 L 80.22 120.72 C 77.84 120.59 75.08 120.59 73.36 118.66 C 71.16 116.66 71.20 113.48 70.71 110.78 C 77.59 109.51 83.83 106.20 89.26 101.87 C 86.85 102.14 84.44 102.42 82.03 102.71 C 84.39 101.68 86.74 100.61 89.09 99.54 C 86.79 96.43 84.28 93.12 80.49 91.78 C 70.19 87.76 59.05 89.59 48.42 90.80 C 46.92 90.49 45.44 90.11 43.96 89.72 C 44.91 87.45 45.84 85.18 46.72 82.88 C 46.60 84.92 46.50 86.97 46.38 89.01 C 50.40 87.94 54.33 86.59 58.25 85.19 C 64.82 87.95 72.24 86.53 79.11 88.16 C 78.91 85.71 78.72 83.27 78.50 80.82 Z" />
<path fill="#959589" opacity="1.00" d=" M 107.34 83.07 C 109.60 83.69 111.87 84.28 114.10 85.02 C 115.80 87.18 115.96 90.28 116.06 92.97 C 116.04 93.60 116.01 94.86 115.99 95.49 C 114.75 95.90 113.51 96.32 112.28 96.74 C 112.04 97.85 111.81 98.97 111.61 100.10 C 110.49 94.35 108.87 88.72 107.34 83.07 Z" />
<path fill="#959589" opacity="1.00" d=" M 142.47 94.00 C 143.33 93.43 144.21 92.90 145.10 92.38 C 145.13 99.74 142.33 106.72 138.57 112.92 C 135.20 114.42 131.86 116.46 128.05 116.36 C 124.04 116.32 120.07 115.70 116.07 115.46 C 115.35 117.75 114.62 120.04 113.76 122.28 C 113.29 122.24 112.36 122.16 111.90 122.12 C 112.64 115.37 112.42 108.56 111.82 101.82 C 112.23 103.91 112.76 105.98 113.26 108.05 C 113.89 108.12 115.16 108.25 115.80 108.32 C 121.04 108.95 126.84 109.41 131.51 106.49 C 136.06 103.20 139.05 98.33 142.47 94.00 Z" />
<path fill="#959589" opacity="1.00" d=" M 10.38 96.31 C 13.24 98.85 14.17 102.67 16.25 105.75 C 18.01 108.39 21.50 108.45 24.29 109.09 C 27.24 114.64 30.57 119.99 33.17 125.72 L 33.24 126.76 L 32.53 126.47 C 27.56 124.04 21.13 122.87 18.42 117.48 C 15.57 111.76 13.64 105.64 11.28 99.71 C 11.06 98.86 10.61 97.16 10.38 96.31 Z" />
<path fill="#959589" opacity="1.00" d=" M 90.87 113.02 C 92.17 111.62 93.48 110.22 94.82 108.86 C 94.82 113.63 94.03 118.42 91.58 122.59 C 89.04 126.87 87.86 132.82 82.73 134.81 C 76.94 137.20 70.47 139.48 64.16 138.02 C 59.36 135.96 56.27 131.07 51.00 129.82 C 50.29 128.67 49.57 127.54 48.83 126.42 C 54.02 125.77 58.82 128.27 63.86 129.03 C 68.44 129.73 72.98 131.43 77.66 130.96 C 80.60 130.67 81.81 127.72 83.34 125.63 C 85.96 125.11 86.99 122.73 87.40 120.33 C 87.06 119.96 86.39 119.22 86.05 118.85 C 89.17 116.86 90.42 113.27 90.81 109.76 C 90.82 110.57 90.86 112.20 90.87 113.02 Z" />
<path fill="#959589" opacity="1.00" d=" M 102.90 142.69 C 107.69 137.86 110.54 131.41 111.54 124.73 C 112.92 124.78 114.29 124.82 115.67 124.85 C 116.60 127.80 119.69 128.50 122.24 129.49 C 121.90 132.60 119.54 134.96 116.83 136.26 C 114.25 136.47 112.18 134.36 110.04 133.19 C 109.18 136.79 108.15 140.35 106.92 143.85 C 105.58 143.46 104.24 143.07 102.90 142.69 Z" />
<path fill="#959589" opacity="1.00" d=" M 86.25 140.12 C 87.37 139.55 88.50 139.00 89.63 138.45 C 89.38 139.55 89.13 140.65 88.89 141.75 C 87.22 142.76 85.56 143.79 83.91 144.84 C 85.25 145.34 86.58 145.85 87.93 146.31 C 91.88 146.55 95.80 145.68 99.53 144.45 C 102.83 147.03 106.75 148.60 110.68 149.94 C 118.10 152.75 125.72 155.00 133.06 158.00 C 135.61 158.90 138.15 160.15 140.90 160.23 C 142.90 159.65 144.55 158.29 146.22 157.10 C 143.97 164.76 140.90 172.24 136.68 179.03 C 130.60 177.36 126.10 172.36 120.03 170.83 C 111.15 170.09 102.54 173.20 93.73 173.80 C 93.63 171.39 93.49 168.01 90.63 167.27 C 87.93 166.50 85.06 165.99 82.26 166.32 C 79.56 168.32 80.48 172.13 80.36 175.03 C 79.65 173.71 78.92 172.39 78.18 171.09 C 81.71 166.81 79.12 161.54 77.20 157.20 C 80.62 155.64 83.88 153.72 86.60 151.11 C 85.47 149.43 84.47 147.62 83.00 146.21 C 81.11 145.47 79.04 145.53 77.05 145.38 C 79.96 143.37 83.11 141.74 86.25 140.12 M 85.54 165.51 C 86.12 166.77 89.84 166.97 90.32 165.47 C 89.00 164.51 86.85 164.56 85.54 165.51 Z" />
<path fill="#959589" opacity="1.00" d=" M 64.73 140.87 C 65.52 142.54 66.19 144.26 66.94 145.95 C 67.76 148.03 69.40 149.60 70.92 151.18 C 68.60 150.72 66.28 150.21 63.94 149.87 C 62.50 147.83 61.16 145.73 59.88 143.59 C 61.50 142.69 63.12 141.79 64.73 140.87 Z" />
<path fill="#959589" opacity="1.00" d=" M 62.02 165.80 C 63.12 167.44 64.53 169.06 64.80 171.08 C 64.42 173.35 63.18 175.35 62.18 177.38 C 60.68 176.70 59.18 176.03 57.68 175.36 C 59.08 172.16 60.51 168.96 62.02 165.80 Z" />
</g>
<g id="#2a2d2dff">
<path fill="#2a2d2d" opacity="1.00" d=" M 38.66 95.15 C 38.48 92.06 41.78 90.97 43.96 89.72 C 45.44 90.11 46.92 90.49 48.42 90.80 C 45.35 92.13 41.67 94.12 41.65 97.97 C 41.28 104.41 42.63 110.80 42.73 117.24 C 41.72 115.61 40.70 114.00 39.69 112.37 C 39.73 106.61 38.81 100.90 38.66 95.15 Z" />
<path fill="#2a2d2d" opacity="1.00" d=" M 11.28 99.71 C 13.64 105.64 15.57 111.76 18.42 117.48 C 21.13 122.87 27.56 124.04 32.53 126.47 C 26.75 127.00 20.79 124.13 17.99 118.98 C 14.70 113.02 12.11 106.51 11.28 99.71 Z" />
<path fill="#2a2d2d" opacity="1.00" d=" M 43.15 103.67 C 47.39 106.17 51.42 109.00 55.41 111.86 C 54.25 113.30 52.90 114.56 51.41 115.65 C 51.05 113.95 50.84 112.22 50.32 110.57 C 49.16 109.54 47.81 108.77 46.51 107.95 C 45.74 109.01 44.97 110.06 44.18 111.11 C 43.76 108.64 43.39 106.16 43.15 103.67 Z" />
<path fill="#2a2d2d" opacity="1.00" d=" M 71.76 113.88 C 79.72 111.23 87.44 107.90 95.33 105.06 C 95.11 106.31 94.93 107.58 94.82 108.86 C 93.48 110.22 92.17 111.62 90.87 113.02 C 90.86 112.20 90.82 110.57 90.81 109.76 L 90.82 108.69 C 88.19 109.63 85.39 110.30 83.09 111.94 C 81.62 113.32 80.72 115.17 79.62 116.84 C 77.61 116.03 75.59 115.22 73.54 114.51 C 73.10 114.35 72.20 114.04 71.76 113.88 Z" />
<path fill="#2a2d2d" opacity="1.00" d=" M 45.78 117.27 C 48.69 117.63 51.54 118.39 54.21 119.58 C 51.14 120.03 47.87 119.88 45.78 117.27 Z" />
<path fill="#2a2d2d" opacity="1.00" d=" M 79.45 120.38 C 81.64 119.83 83.84 119.33 86.05 118.85 C 86.39 119.22 87.06 119.96 87.40 120.33 C 85.01 120.52 82.62 120.78 80.22 120.72 L 79.45 120.38 Z" />
<path fill="#2a2d2d" opacity="1.00" d=" M 90.92 136.53 C 93.37 134.04 96.22 131.98 99.16 130.10 C 97.10 133.91 94.54 138.36 89.63 138.45 C 89.95 137.97 90.59 137.01 90.92 136.53 Z" />
<path fill="#2a2d2d" opacity="1.00" d=" M 66.71 140.99 C 73.57 140.71 80.40 139.72 87.01 137.84 C 86.82 138.41 86.44 139.55 86.25 140.12 C 83.11 141.74 79.96 143.37 77.05 145.38 C 75.04 147.35 73.18 149.48 70.92 151.18 C 69.40 149.60 67.76 148.03 66.94 145.95 C 66.82 144.30 66.77 142.64 66.71 140.99 Z" />
<path fill="#2a2d2d" opacity="1.00" d=" M 62.27 139.14 C 63.11 139.69 63.93 140.26 64.73 140.87 C 63.12 141.79 61.50 142.69 59.88 143.59 C 59.23 142.53 58.58 141.48 57.91 140.44 C 59.36 140.01 60.81 139.58 62.27 139.14 Z" />
<path fill="#2a2d2d" opacity="1.00" d=" M 83.91 144.84 C 85.56 143.79 87.22 142.76 88.89 141.75 C 88.56 143.27 88.24 144.79 87.93 146.31 C 86.58 145.85 85.25 145.34 83.91 144.84 Z" />
<path fill="#2a2d2d" opacity="1.00" d=" M 99.53 144.45 C 100.67 143.90 101.80 143.32 102.90 142.69 C 104.24 143.07 105.58 143.46 106.92 143.85 C 108.87 144.41 110.81 145.00 112.75 145.58 C 111.91 146.96 111.22 148.42 110.68 149.94 C 106.75 148.60 102.83 147.03 99.53 144.45 Z" />
<path fill="#2a2d2d" opacity="1.00" d=" M 70.88 163.79 C 73.21 161.82 74.84 159.16 77.20 157.20 C 79.12 161.54 81.71 166.81 78.18 171.09 C 76.71 172.21 75.17 173.26 73.64 174.31 C 75.67 176.34 77.75 178.39 79.18 180.91 C 80.16 184.52 81.26 188.10 82.69 191.56 C 83.52 190.68 84.34 189.79 85.16 188.91 C 84.94 189.57 84.49 190.89 84.27 191.55 C 76.09 191.99 67.86 191.06 59.74 192.44 C 72.19 194.83 84.96 194.32 97.51 193.11 C 97.39 192.62 97.15 191.62 97.03 191.12 C 106.02 191.64 115.03 191.25 124.03 191.35 C 125.66 191.38 127.97 191.48 128.40 193.46 C 128.83 195.85 128.70 198.29 128.76 200.71 C 95.25 200.78 61.74 200.76 28.22 200.72 C 28.69 197.71 26.84 191.99 31.22 191.48 C 41.14 191.08 51.10 191.64 61.03 191.27 C 60.41 190.08 59.79 188.88 59.17 187.69 C 63.60 187.68 68.16 187.70 72.22 185.64 C 69.26 182.42 65.43 180.25 62.18 177.38 C 63.18 175.35 64.42 173.35 64.80 171.08 C 64.53 169.06 63.12 167.44 62.02 165.80 C 61.70 165.36 61.06 164.48 60.74 164.04 C 64.11 163.93 67.55 164.47 70.88 163.79 Z" />
<path fill="#2a2d2d" opacity="1.00" d=" M 81.85 173.89 C 85.46 176.18 89.83 178.34 91.25 182.71 C 90.36 183.74 89.36 184.68 88.38 185.63 C 85.90 182.56 83.67 179.27 82.12 175.64 C 82.05 175.20 81.92 174.33 81.85 173.89 Z" />
</g>
</svg>
