<?xml version="1.0" encoding="UTF-8" ?>
<!DOCTYPE svg PUBLIC "-//W3C//DTD SVG 1.1//EN" "http://www.w3.org/Graphics/SVG/1.1/DTD/svg11.dtd">
<svg width="155pt" height="210pt" viewBox="0 0 155 210" version="1.1" xmlns="http://www.w3.org/2000/svg">
<g id="#a9bd90ff">
<path fill="#a9bd90" opacity="1.00" d=" M 23.23 72.24 C 30.63 59.90 41.53 49.97 53.93 42.79 C 58.38 45.02 62.78 47.38 67.05 49.94 C 77.01 55.85 87.15 61.57 96.29 68.71 C 98.53 70.56 100.92 72.45 102.18 75.13 C 102.88 77.05 101.77 79.02 100.84 80.66 C 98.18 85.53 91.68 89.52 92.94 95.67 C 96.41 98.95 101.34 99.83 105.62 101.63 C 106.49 103.27 107.39 104.89 108.28 106.52 C 111.76 104.85 116.34 102.66 116.17 98.11 C 114.27 92.12 108.14 89.08 103.21 85.89 C 102.88 84.89 102.56 83.89 102.19 82.91 C 106.54 85.87 110.53 89.35 115.16 91.90 C 117.50 93.46 121.21 95.49 119.89 98.89 C 118.65 103.09 116.16 108.10 111.70 109.40 C 109.32 109.72 106.84 109.65 104.55 110.45 C 102.67 111.68 101.22 113.44 99.67 115.05 C 98.41 114.72 97.15 114.39 95.89 114.04 C 97.48 111.08 99.07 108.12 100.56 105.10 C 95.95 103.09 91.47 100.72 86.73 99.02 C 86.80 97.06 86.87 95.11 87.04 93.16 C 88.93 87.11 94.19 82.92 96.25 76.98 C 95.47 74.85 93.36 73.66 91.60 72.41 C 81.20 65.98 70.45 60.12 59.71 54.27 C 57.28 53.21 54.46 51.11 51.82 52.76 C 43.15 57.37 36.29 64.59 29.66 71.69 C 28.38 73.22 26.85 74.74 26.46 76.77 C 29.92 82.07 36.08 86.72 34.82 93.87 C 35.21 99.51 29.24 101.46 26.32 105.19 C 26.84 109.05 29.74 111.98 31.86 115.06 C 31.11 115.20 29.63 115.49 28.89 115.63 C 25.88 112.24 22.34 108.78 21.66 104.08 C 24.39 99.96 29.75 97.42 30.23 91.99 C 30.61 86.32 25.33 82.74 22.52 78.45 C 21.06 76.52 22.28 74.09 23.23 72.24 Z" />
<path fill="#a9bd90" opacity="1.00" d=" M 44.30 109.19 C 53.27 109.20 62.24 109.39 71.20 109.21 C 67.11 109.85 63.28 111.97 59.11 112.02 C 54.54 111.13 49.84 108.89 45.31 111.36 C 44.98 110.64 44.64 109.91 44.30 109.19 Z" />
<path fill="#a9bd90" opacity="1.00" d=" M 40.98 111.76 C 41.62 111.25 42.26 110.73 42.90 110.22 C 43.18 113.13 43.27 116.11 44.14 118.93 C 45.06 121.65 47.38 123.52 49.32 125.52 C 46.59 126.64 43.68 127.25 40.82 127.93 C 44.41 129.40 48.28 130.00 52.13 129.41 C 51.70 132.60 51.85 135.85 52.65 138.97 C 52.07 138.37 50.90 137.16 50.31 136.56 C 50.07 138.30 49.89 140.09 50.22 141.84 C 50.75 142.10 51.80 142.61 52.33 142.87 C 51.73 145.37 51.13 147.87 50.49 150.36 C 51.98 149.86 53.47 149.35 54.98 148.91 C 59.14 151.66 64.04 152.78 68.96 153.08 C 70.27 158.69 71.19 164.39 71.39 170.15 C 65.89 169.14 59.86 169.01 55.02 165.93 C 52.56 163.05 53.95 158.70 53.32 155.23 C 51.90 158.22 51.12 161.44 50.51 164.68 C 48.44 163.93 47.20 162.36 47.37 160.10 C 47.33 159.00 47.31 157.91 47.29 156.82 C 46.95 152.47 47.33 148.05 48.97 143.97 C 48.40 143.14 47.81 142.33 47.21 141.53 C 45.18 139.55 42.85 137.90 40.60 136.19 C 38.99 134.92 36.77 133.34 37.19 130.99 C 37.73 128.12 38.42 125.26 38.23 122.31 C 39.34 121.37 40.51 120.48 41.51 119.42 C 42.28 116.91 41.31 114.27 40.98 111.76 M 38.69 128.24 C 39.82 131.91 42.73 134.40 46.01 136.16 C 47.39 134.47 48.78 132.78 50.18 131.10 C 48.25 131.26 46.32 131.62 44.38 131.41 C 42.31 130.70 40.56 129.33 38.69 128.24 Z" />
<path fill="#a9bd90" opacity="1.00" d=" M 85.68 113.41 C 90.30 116.14 94.25 120.18 99.74 121.14 C 100.32 122.26 100.91 123.36 101.53 124.46 C 100.34 126.36 98.60 127.80 96.68 128.91 C 96.26 129.00 95.42 129.17 95.00 129.26 C 96.02 127.40 97.06 125.55 98.13 123.71 C 93.96 123.03 89.83 121.83 86.33 119.40 C 86.12 117.40 85.93 115.40 85.68 113.41 Z" />
<path fill="#a9bd90" opacity="1.00" d=" M 96.70 141.91 C 95.99 137.62 96.47 133.27 98.11 129.25 C 99.44 130.20 100.71 131.24 101.93 132.33 C 100.60 135.09 98.10 138.20 99.25 141.40 C 101.59 143.69 104.39 145.84 104.63 149.41 C 102.53 149.98 100.37 150.35 98.19 150.36 C 97.80 149.78 97.02 148.64 96.63 148.07 C 96.69 146.01 96.84 143.96 96.70 141.91 Z" />
<path fill="#a9bd90" opacity="1.00" d=" M 30.84 139.28 C 31.38 139.32 32.45 139.40 32.99 139.44 C 33.67 139.63 35.04 140.00 35.72 140.18 C 35.70 143.54 35.89 147.09 34.33 150.18 C 31.73 155.56 26.56 158.99 21.78 162.26 C 20.33 162.51 18.63 162.72 17.35 161.82 C 16.06 159.16 16.25 156.07 16.32 153.19 C 16.37 152.78 16.47 151.94 16.52 151.52 C 16.77 149.61 17.05 147.71 17.39 145.82 C 17.40 150.29 17.77 154.76 18.23 159.22 C 22.13 158.08 25.93 156.46 29.16 153.94 C 32.44 150.54 33.63 145.87 33.86 141.27 C 33.11 140.77 31.60 139.78 30.84 139.28 Z" />
<path fill="#a9bd90" opacity="1.00" d=" M 84.13 148.80 C 87.12 148.51 90.09 148.11 93.06 147.69 C 94.28 152.64 95.32 157.63 96.43 162.61 C 89.99 168.15 81.24 169.52 73.03 169.96 C 72.63 168.18 72.24 166.39 71.87 164.60 C 76.03 164.42 80.19 164.82 84.29 165.59 C 84.29 165.22 84.29 164.49 84.29 164.13 C 84.65 159.02 84.49 153.90 84.13 148.80 Z" />
<path fill="#a9bd90" opacity="1.00" d=" M 102.46 152.13 C 103.09 151.78 104.36 151.06 105.00 150.71 C 106.74 154.13 109.92 156.38 113.24 158.10 C 114.00 159.16 114.77 160.21 115.53 161.27 C 114.02 162.82 112.49 164.35 110.94 165.85 C 109.21 163.67 107.85 161.20 107.46 158.41 C 105.85 156.27 104.16 154.20 102.46 152.13 Z" />
<path fill="#a9bd90" opacity="1.00" d=" M 137.11 150.90 C 139.12 151.82 141.38 152.55 142.81 154.34 C 142.94 155.68 142.75 157.04 142.40 158.33 C 140.93 158.84 139.35 158.94 137.81 158.83 C 134.86 158.65 131.94 158.30 129.02 157.88 C 127.56 157.66 126.10 157.43 124.65 157.14 C 124.88 156.48 125.34 155.16 125.57 154.50 C 129.20 154.61 132.83 154.65 136.46 154.68 C 136.68 153.42 136.90 152.16 137.11 150.90 Z" />
<path fill="#a9bd90" opacity="1.00" d=" M 41.91 169.28 C 40.79 167.44 41.18 165.41 41.78 163.48 C 42.43 164.67 43.08 165.86 43.73 167.06 C 43.12 167.79 42.52 168.54 41.91 169.28 Z" />
<path fill="#a9bd90" opacity="1.00" d=" M 46.13 164.50 C 48.02 165.03 49.92 165.56 51.80 166.18 C 51.81 166.60 51.83 167.45 51.84 167.88 C 51.30 167.97 50.21 168.17 49.67 168.26 C 49.87 169.05 50.06 169.83 50.26 170.62 C 49.16 170.97 48.05 171.33 46.95 171.69 C 45.88 174.05 44.77 176.40 43.60 178.71 C 43.63 176.73 43.69 174.75 43.92 172.79 C 44.52 169.99 45.35 167.25 46.13 164.50 Z" />
<path fill="#a9bd90" opacity="1.00" d=" M 113.92 164.33 C 116.28 166.43 117.71 169.26 118.12 172.39 C 114.03 172.49 111.89 167.61 113.92 164.33 Z" />
<path fill="#a9bd90" opacity="1.00" d=" M 97.38 167.39 C 98.55 166.31 100.28 166.38 101.74 165.97 C 102.19 167.98 102.61 170.00 102.99 172.02 C 101.16 172.31 99.33 172.56 97.49 172.78 C 97.40 170.99 97.21 169.19 97.38 167.39 Z" />
<path fill="#a9bd90" opacity="1.00" d=" M 54.22 170.94 C 57.66 169.67 60.36 175.71 57.52 177.53 C 53.81 178.81 51.75 173.33 54.22 170.94 Z" />
<path fill="#a9bd90" opacity="1.00" d=" M 115.90 174.63 C 117.70 173.29 119.52 171.97 121.36 170.68 C 121.57 173.80 121.62 176.93 121.76 180.06 C 121.83 180.85 121.97 182.44 122.04 183.23 C 121.40 183.78 120.76 184.33 120.12 184.88 C 119.69 184.87 118.83 184.85 118.40 184.84 C 117.81 181.38 116.95 177.98 115.90 174.63 Z" />
<path fill="#a9bd90" opacity="1.00" d=" M 40.32 172.36 C 40.74 172.41 41.57 172.49 41.99 172.54 C 41.21 174.99 40.38 177.43 39.57 179.87 C 40.49 178.92 41.42 177.97 42.34 177.03 C 43.14 181.24 41.09 185.07 39.00 188.56 C 37.27 186.70 34.45 185.17 34.19 182.44 C 34.19 181.07 34.18 179.69 33.94 178.34 L 33.79 177.36 C 35.66 179.48 37.55 181.59 39.49 183.65 C 39.02 179.88 38.23 175.82 40.32 172.36 Z" />
<path fill="#a9bd90" opacity="1.00" d=" M 76.73 173.78 C 78.62 172.42 82.52 171.99 83.38 174.70 C 83.96 176.35 83.14 178.09 82.90 179.74 C 80.75 179.63 78.59 179.53 76.44 179.43 C 76.38 177.56 75.60 175.48 76.73 173.78 Z" />
<path fill="#a9bd90" opacity="1.00" d=" M 125.05 174.78 C 126.14 174.36 127.23 173.93 128.32 173.49 C 129.67 175.33 131.21 177.04 132.28 179.06 C 132.47 181.67 129.57 182.43 127.84 183.61 C 126.94 180.65 125.99 177.72 125.05 174.78 Z" />
<path fill="#a9bd90" opacity="1.00" d=" M 88.34 181.42 C 92.43 180.11 96.43 178.52 100.15 176.36 C 101.78 178.18 103.33 180.06 104.85 181.98 C 103.79 182.58 102.73 183.16 101.66 183.72 L 100.83 184.16 C 99.64 182.88 97.70 182.11 96.36 183.64 C 94.59 184.89 92.76 186.07 90.77 186.93 C 90.00 187.25 89.22 187.54 88.44 187.82 C 88.40 185.68 88.37 183.55 88.34 181.42 Z" />
<path fill="#a9bd90" opacity="1.00" d=" M 56.87 181.04 C 61.88 182.82 67.21 183.42 72.50 183.52 C 72.74 185.17 72.98 186.81 73.23 188.45 C 71.51 188.93 69.78 189.32 68.03 189.66 C 66.14 188.48 64.14 187.45 62.01 186.76 C 59.96 186.23 57.61 185.19 57.30 182.81 C 57.19 182.37 56.98 181.48 56.87 181.04 Z" />
<path fill="#a9bd90" opacity="1.00" d=" M 80.17 184.13 C 82.14 183.87 84.12 183.71 86.10 183.55 C 86.23 185.18 86.35 186.81 86.47 188.45 C 84.37 189.05 82.26 189.61 80.14 190.16 C 80.13 188.15 80.10 186.14 80.17 184.13 Z" />
</g>
<g id="#1d1910ff">
<path fill="#1d1910" opacity="1.00" d=" M 51.82 52.76 C 54.46 51.11 57.28 53.21 59.71 54.27 C 70.45 60.12 81.20 65.98 91.60 72.41 C 93.36 73.66 95.47 74.85 96.25 76.98 C 94.19 82.92 88.93 87.11 87.04 93.16 C 85.94 93.58 84.84 94.00 83.74 94.42 C 81.19 92.21 79.26 89.37 78.88 85.95 C 78.47 82.14 75.88 79.30 73.42 76.60 C 73.05 72.94 71.95 69.23 69.58 66.36 C 68.23 66.47 66.90 66.76 65.57 67.02 C 65.34 69.03 65.57 71.17 64.77 73.06 C 62.73 75.89 59.80 77.90 57.19 80.16 C 53.79 77.44 50.43 74.58 47.97 70.95 C 46.87 69.20 45.16 68.05 43.36 67.12 C 42.38 69.72 41.32 72.31 40.68 75.02 C 42.85 76.75 45.74 77.23 47.86 79.03 C 49.86 80.73 51.51 82.79 53.23 84.76 C 50.63 87.92 48.06 91.21 44.59 93.47 C 43.05 94.60 40.40 95.90 41.62 98.23 C 44.06 100.65 47.56 101.49 50.90 101.57 C 51.29 98.96 51.04 96.01 52.81 93.85 C 54.16 92.01 55.76 90.38 57.30 88.70 C 57.69 89.00 58.47 89.60 58.86 89.91 C 58.50 92.10 57.92 94.32 58.24 96.56 C 59.99 97.91 62.06 98.73 64.12 99.51 C 67.18 99.66 70.13 98.74 73.15 98.38 C 77.68 98.32 82.21 98.61 86.73 99.02 C 91.47 100.72 95.95 103.09 100.56 105.10 C 99.07 108.12 97.48 111.08 95.89 114.04 C 91.48 112.83 87.16 111.33 82.78 110.01 C 83.73 111.15 84.69 112.29 85.68 113.41 C 85.93 115.40 86.12 117.40 86.33 119.40 C 83.97 121.62 81.50 124.40 77.97 124.35 C 74.46 124.60 69.99 122.97 69.77 118.89 C 68.88 115.70 71.52 113.39 73.42 111.27 C 72.56 114.32 69.80 117.88 72.02 120.93 C 74.69 122.85 78.54 123.08 81.50 121.71 C 85.08 119.88 85.30 114.24 82.17 111.91 C 80.29 111.29 78.31 111.10 76.36 110.79 C 76.81 110.21 77.25 109.63 77.70 109.06 C 75.53 109.09 73.37 109.12 71.20 109.21 C 62.24 109.39 53.27 109.20 44.30 109.19 C 44.64 109.91 44.98 110.64 45.31 111.36 C 45.18 115.00 44.78 119.47 48.02 121.99 C 49.70 122.68 51.55 122.82 53.33 123.14 C 52.00 123.94 50.68 124.76 49.32 125.52 C 47.38 123.52 45.06 121.65 44.14 118.93 C 43.27 116.11 43.18 113.13 42.90 110.22 C 42.26 110.73 41.62 111.25 40.98 111.76 C 38.43 113.66 35.94 115.84 32.88 116.86 C 31.48 116.70 30.19 116.10 28.89 115.63 C 29.63 115.49 31.11 115.20 31.86 115.06 C 29.74 111.98 26.84 109.05 26.32 105.19 C 29.24 101.46 35.21 99.51 34.82 93.87 C 36.08 86.72 29.92 82.07 26.46 76.77 C 26.85 74.74 28.38 73.22 29.66 71.69 C 36.29 64.59 43.15 57.37 51.82 52.76 Z" />
<path fill="#1d1910" opacity="1.00" d=" M 92.94 95.67 C 91.68 89.52 98.18 85.53 100.84 80.66 C 101.33 81.39 101.78 82.14 102.19 82.91 C 102.56 83.89 102.88 84.89 103.21 85.89 C 104.32 89.99 106.35 93.79 107.27 97.94 C 107.04 99.29 106.20 100.42 105.62 101.63 C 101.34 99.83 96.41 98.95 92.94 95.67 Z" />
<path fill="#1d1910" opacity="1.00" d=" M 104.55 110.45 C 106.84 109.65 109.32 109.72 111.70 109.40 L 111.86 110.51 C 109.61 110.57 107.37 110.62 105.12 110.68 C 105.03 111.09 104.84 111.91 104.74 112.32 C 103.72 116.38 102.79 120.47 101.53 124.46 C 100.91 123.36 100.32 122.26 99.74 121.14 C 99.61 119.11 99.65 117.08 99.67 115.05 C 101.22 113.44 102.67 111.68 104.55 110.45 Z" />
<path fill="#1d1910" opacity="1.00" d=" M 38.69 128.24 C 40.56 129.33 42.31 130.70 44.38 131.41 C 46.32 131.62 48.25 131.26 50.18 131.10 C 48.78 132.78 47.39 134.47 46.01 136.16 C 42.73 134.40 39.82 131.91 38.69 128.24 Z" />
<path fill="#1d1910" opacity="1.00" d=" M 77.85 129.29 C 83.55 129.78 89.36 130.82 95.00 129.26 C 95.42 129.17 96.26 129.00 96.68 128.91 C 97.04 128.99 97.75 129.16 98.11 129.25 C 96.47 133.27 95.99 137.62 96.70 141.91 C 95.54 141.63 94.16 140.37 93.04 141.39 C 91.58 142.79 90.56 144.58 89.42 146.24 C 89.91 141.78 91.32 137.15 90.19 132.72 C 89.12 130.63 87.05 131.90 85.44 132.43 C 82.87 131.49 80.33 130.44 77.85 129.29 Z" />
<path fill="#1d1910" opacity="1.00" d=" M 99.25 141.40 C 98.10 138.20 100.60 135.09 101.93 132.33 C 105.52 135.80 109.64 138.67 114.15 140.81 C 113.34 140.88 111.72 141.01 110.91 141.08 C 111.43 143.76 111.32 146.98 113.68 148.83 C 117.00 151.99 120.32 155.39 124.65 157.14 C 126.10 157.43 127.56 157.66 129.02 157.88 C 129.86 158.62 130.70 159.36 131.54 160.10 C 131.13 161.23 130.72 162.37 130.31 163.50 C 127.50 161.15 124.62 157.64 120.49 158.87 C 121.78 161.37 124.20 162.56 126.90 162.84 C 126.40 164.18 125.89 165.52 125.44 166.89 C 124.48 170.36 123.93 173.94 123.76 177.53 C 123.09 178.37 122.42 179.21 121.76 180.06 C 121.62 176.93 121.57 173.80 121.36 170.68 C 120.99 164.63 121.76 157.48 116.40 153.28 C 115.34 154.89 114.29 156.50 113.24 158.10 C 109.92 156.38 106.74 154.13 105.00 150.71 C 104.90 150.38 104.72 149.73 104.63 149.41 C 104.39 145.84 101.59 143.69 99.25 141.40 Z" />
<path fill="#1d1910" opacity="1.00" d=" M 50.22 141.84 C 49.89 140.09 50.07 138.30 50.31 136.56 C 50.90 137.16 52.07 138.37 52.65 138.97 C 52.05 139.69 50.83 141.12 50.22 141.84 Z" />
<path fill="#1d1910" opacity="1.00" d=" M 28.65 139.13 C 29.20 139.16 30.30 139.24 30.84 139.28 C 31.60 139.78 33.11 140.77 33.86 141.27 C 32.24 142.17 30.62 143.07 28.98 143.95 C 28.87 142.34 28.76 140.73 28.65 139.13 Z" />
<path fill="#1d1910" opacity="1.00" d=" M 19.17 139.20 C 23.36 143.52 24.88 149.67 29.16 153.94 C 25.93 156.46 22.13 158.08 18.23 159.22 C 17.77 154.76 17.40 150.29 17.39 145.82 C 17.77 143.56 18.48 141.37 19.17 139.20 Z" />
<path fill="#1d1910" opacity="1.00" d=" M 40.70 144.51 C 42.24 142.63 45.05 142.43 47.21 141.53 C 47.81 142.33 48.40 143.14 48.97 143.97 C 47.33 148.05 46.95 152.47 47.29 156.82 C 43.37 158.30 39.29 159.72 35.04 159.07 C 38.73 155.04 39.07 149.45 40.70 144.51 Z" />
<path fill="#1d1910" opacity="1.00" d=" M 52.33 142.87 C 53.24 143.28 54.15 143.67 55.07 144.05 C 57.31 145.03 59.49 146.15 61.66 147.28 C 61.74 147.84 61.89 148.95 61.97 149.51 C 59.66 149.15 57.33 148.77 54.98 148.91 C 53.47 149.35 51.98 149.86 50.49 150.36 C 51.13 147.87 51.73 145.37 52.33 142.87 Z" />
<path fill="#1d1910" opacity="1.00" d=" M 98.94 158.83 C 98.43 155.19 96.81 151.77 96.63 148.07 C 97.02 148.64 97.80 149.78 98.19 150.36 C 99.20 151.81 100.30 153.20 101.16 154.76 C 102.72 157.67 102.17 161.26 103.77 164.15 C 105.39 166.04 107.60 167.28 109.61 168.71 C 109.40 170.93 108.34 173.40 109.54 175.50 C 111.18 178.44 112.87 181.36 113.95 184.57 C 115.43 184.68 116.91 184.76 118.40 184.84 C 118.83 184.85 119.69 184.87 120.12 184.88 C 114.06 187.48 107.89 182.91 101.66 183.72 C 102.73 183.16 103.79 182.58 104.85 181.98 C 106.16 179.11 106.29 175.92 106.42 172.82 C 104.31 173.98 102.24 175.18 100.15 176.36 C 96.43 178.52 92.43 180.11 88.34 181.42 C 88.37 183.55 88.40 185.68 88.44 187.82 C 87.79 188.04 87.13 188.25 86.47 188.45 C 86.56 186.07 86.53 183.69 86.43 181.32 C 84.82 181.71 83.21 182.07 81.64 182.59 C 79.45 183.02 78.83 185.44 77.74 187.06 C 76.24 187.54 74.74 188.02 73.23 188.45 C 72.98 186.81 72.74 185.17 72.50 183.52 C 67.21 183.42 61.88 182.82 56.87 181.04 C 55.34 179.96 53.80 178.91 52.26 177.87 C 51.77 178.44 50.80 179.60 50.31 180.18 C 50.02 179.06 49.71 177.94 49.52 176.80 C 49.90 173.73 51.07 170.85 51.84 167.88 C 51.83 167.45 51.81 166.60 51.80 166.18 C 49.92 165.56 48.02 165.03 46.13 164.50 C 45.35 167.25 44.52 169.99 43.92 172.79 C 43.43 172.73 42.47 172.60 41.99 172.54 C 41.57 172.49 40.74 172.41 40.32 172.36 C 38.23 175.82 39.02 179.88 39.49 183.65 C 37.55 181.59 35.66 179.48 33.79 177.36 C 36.55 174.72 39.58 172.33 41.91 169.28 C 42.52 168.54 43.12 167.79 43.73 167.06 C 43.08 165.86 42.43 164.67 41.78 163.48 C 43.57 162.23 45.43 161.09 47.37 160.10 C 47.20 162.36 48.44 163.93 50.51 164.68 C 51.12 161.44 51.90 158.22 53.32 155.23 C 53.95 158.70 52.56 163.05 55.02 165.93 C 59.86 169.01 65.89 169.14 71.39 170.15 C 71.19 164.39 70.27 158.69 68.96 153.08 L 69.86 153.21 C 70.51 157.01 71.11 160.82 71.87 164.60 C 72.24 166.39 72.63 168.18 73.03 169.96 C 81.24 169.52 89.99 168.15 96.43 162.61 C 97.37 161.42 98.33 160.22 98.94 158.83 M 97.38 167.39 C 97.21 169.19 97.40 170.99 97.49 172.78 C 99.33 172.56 101.16 172.31 102.99 172.02 C 102.61 170.00 102.19 167.98 101.74 165.97 C 100.28 166.38 98.55 166.31 97.38 167.39 M 54.22 170.94 C 51.75 173.33 53.81 178.81 57.52 177.53 C 60.36 175.71 57.66 169.67 54.22 170.94 M 76.73 173.78 C 75.60 175.48 76.38 177.56 76.44 179.43 C 78.59 179.53 80.75 179.63 82.90 179.74 C 83.14 178.09 83.96 176.35 83.38 174.70 C 82.52 171.99 78.62 172.42 76.73 173.78 Z" />
<path fill="#1d1910" opacity="1.00" d=" M 104.38 160.66 C 105.91 161.75 107.23 163.10 108.27 164.67 C 107.62 164.55 106.34 164.32 105.70 164.20 C 105.25 163.02 104.80 161.84 104.38 160.66 Z" />
<path fill="#1d1910" opacity="1.00" d=" M 28.91 199.91 C 39.80 198.50 50.82 200.12 61.74 199.01 C 54.84 200.47 47.73 199.44 40.77 200.43 C 45.14 201.67 49.52 202.87 53.88 204.14 C 53.36 204.89 52.83 205.64 52.31 206.39 C 44.55 206.84 36.79 207.12 29.02 207.09 C 28.99 205.05 28.96 203.02 28.93 200.99 L 28.91 199.91 Z" />
<path fill="#1d1910" opacity="1.00" d=" M 101.45 198.94 C 109.25 199.87 117.11 199.07 124.93 199.39 C 125.98 199.54 128.17 199.59 127.93 201.16 C 128.02 203.12 128.04 205.09 128.08 207.06 C 121.68 206.95 115.28 207.01 108.89 206.69 C 106.64 206.65 104.63 205.59 102.69 204.58 C 107.19 203.10 111.79 201.92 116.30 200.44 C 111.42 199.91 106.51 199.87 101.61 199.69 L 101.45 198.94 Z" />
</g>
<g id="#e9e7e2ff">
<path fill="#e9e7e2" opacity="1.00" d=" M 65.57 67.02 C 66.90 66.76 68.23 66.47 69.58 66.36 C 71.95 69.23 73.05 72.94 73.42 76.60 C 68.13 76.39 64.88 80.66 61.74 84.20 C 64.64 87.94 68.58 90.54 72.88 92.40 C 75.81 93.41 73.81 96.48 73.15 98.38 C 70.13 98.74 67.18 99.66 64.12 99.51 C 64.40 95.42 62.30 91.97 58.86 89.91 C 58.47 89.60 57.69 89.00 57.30 88.70 C 55.76 90.38 54.16 92.01 52.81 93.85 C 51.04 96.01 51.29 98.96 50.90 101.57 C 47.56 101.49 44.06 100.65 41.62 98.23 C 40.40 95.90 43.05 94.60 44.59 93.47 C 48.06 91.21 50.63 87.92 53.23 84.76 C 51.51 82.79 49.86 80.73 47.86 79.03 C 45.74 77.23 42.85 76.75 40.68 75.02 C 41.32 72.31 42.38 69.72 43.36 67.12 C 45.16 68.05 46.87 69.20 47.97 70.95 C 50.43 74.58 53.79 77.44 57.19 80.16 C 59.80 77.90 62.73 75.89 64.77 73.06 C 65.57 71.17 65.34 69.03 65.57 67.02 Z" />
</g>
<g id="#8da8b8ff">
<path fill="#8da8b8" opacity="1.00" d=" M 118.88 75.56 C 122.98 74.73 126.74 76.94 130.22 78.78 C 139.79 84.18 146.17 93.74 150.54 103.56 C 152.71 107.45 150.01 111.47 148.79 115.18 C 148.06 115.13 146.61 115.02 145.88 114.96 C 144.48 114.50 143.48 114.85 142.89 116.02 C 143.53 117.21 144.53 117.45 145.92 116.76 C 147.95 118.35 146.34 120.83 145.77 122.74 C 142.06 131.83 138.07 141.01 137.11 150.90 C 136.90 152.16 136.68 153.42 136.46 154.68 C 133.75 153.85 130.81 153.45 128.39 151.89 C 126.19 143.33 122.83 134.72 124.09 125.70 C 124.23 124.97 124.51 123.51 124.65 122.78 C 125.11 121.37 125.40 119.89 125.25 118.41 C 125.80 107.25 125.57 95.97 122.97 85.05 C 122.14 81.68 120.42 78.64 118.88 75.56 Z" />
<path fill="#8da8b8" opacity="1.00" d=" M 16.06 129.87 C 19.57 128.60 24.05 129.50 26.18 132.75 C 28.00 135.41 30.30 137.66 32.99 139.44 C 32.45 139.40 31.38 139.32 30.84 139.28 C 30.30 139.24 29.20 139.16 28.65 139.13 C 28.76 140.73 28.87 142.34 28.98 143.95 C 30.62 143.07 32.24 142.17 33.86 141.27 C 33.63 145.87 32.44 150.54 29.16 153.94 C 24.88 149.67 23.36 143.52 19.17 139.20 C 18.81 138.96 18.10 138.48 17.75 138.24 C 15.68 139.65 13.41 141.10 12.35 143.47 C 11.27 145.74 11.71 148.32 11.74 150.73 C 13.33 151.00 14.93 151.26 16.52 151.52 C 16.47 151.94 16.37 152.78 16.32 153.19 C 12.94 154.62 9.59 153.03 6.92 150.96 C 8.50 147.46 9.59 143.75 11.24 140.28 C 13.02 136.39 17.11 134.54 20.59 132.49 C 20.26 131.85 19.92 131.22 19.58 130.59 C 18.40 130.35 17.23 130.11 16.06 129.87 Z" />
<path fill="#8da8b8" opacity="1.00" d=" M 120.49 158.87 C 124.62 157.64 127.50 161.15 130.31 163.50 C 130.72 162.37 131.13 161.23 131.54 160.10 C 130.70 159.36 129.86 158.62 129.02 157.88 C 131.94 158.30 134.86 158.65 137.81 158.83 C 134.02 162.67 133.76 168.49 130.64 172.74 C 130.25 172.86 129.45 173.08 129.06 173.20 C 127.76 173.10 126.46 172.99 125.17 172.86 C 127.02 170.72 128.85 168.55 130.65 166.36 C 128.91 166.51 127.18 166.70 125.44 166.89 C 125.89 165.52 126.40 164.18 126.90 162.84 C 124.20 162.56 121.78 161.37 120.49 158.87 Z" />
</g>
<g id="#36443cff">
<path fill="#36443c" opacity="1.00" d=" M 61.74 84.20 C 64.88 80.66 68.13 76.39 73.42 76.60 C 75.88 79.30 78.47 82.14 78.88 85.95 C 79.26 89.37 81.19 92.21 83.74 94.42 C 84.84 94.00 85.94 93.58 87.04 93.16 C 86.87 95.11 86.80 97.06 86.73 99.02 C 82.21 98.61 77.68 98.32 73.15 98.38 C 73.81 96.48 75.81 93.41 72.88 92.40 C 68.58 90.54 64.64 87.94 61.74 84.20 Z" />
<path fill="#36443c" opacity="1.00" d=" M 103.21 85.89 C 108.14 89.08 114.27 92.12 116.17 98.11 C 116.34 102.66 111.76 104.85 108.28 106.52 C 107.39 104.89 106.49 103.27 105.62 101.63 C 106.20 100.42 107.04 99.29 107.27 97.94 C 106.35 93.79 104.32 89.99 103.21 85.89 Z" />
<path fill="#36443c" opacity="1.00" d=" M 58.86 89.91 C 62.30 91.97 64.40 95.42 64.12 99.51 C 62.06 98.73 59.99 97.91 58.24 96.56 C 57.92 94.32 58.50 92.10 58.86 89.91 Z" />
<path fill="#36443c" opacity="1.00" d=" M 82.78 110.01 C 87.16 111.33 91.48 112.83 95.89 114.04 C 97.15 114.39 98.41 114.72 99.67 115.05 C 99.65 117.08 99.61 119.11 99.74 121.14 C 94.25 120.18 90.30 116.14 85.68 113.41 C 84.69 112.29 83.73 111.15 82.78 110.01 Z" />
<path fill="#36443c" opacity="1.00" d=" M 101.53 124.46 C 102.79 120.47 103.72 116.38 104.74 112.32 C 109.32 117.71 106.00 124.91 103.24 130.31 C 108.51 131.16 112.60 134.68 116.52 138.02 C 115.98 139.08 115.43 140.13 114.88 141.18 L 114.15 140.81 C 109.64 138.67 105.52 135.80 101.93 132.33 C 100.71 131.24 99.44 130.20 98.11 129.25 C 97.75 129.16 97.04 128.99 96.68 128.91 C 98.60 127.80 100.34 126.36 101.53 124.46 Z" />
<path fill="#36443c" opacity="1.00" d=" M 142.89 116.02 C 143.48 114.85 144.48 114.50 145.88 114.96 C 145.89 115.41 145.91 116.31 145.92 116.76 C 144.53 117.45 143.53 117.21 142.89 116.02 Z" />
<path fill="#36443c" opacity="1.00" d=" M 124.65 122.78 C 123.14 121.94 123.27 118.36 125.25 118.41 C 125.40 119.89 125.11 121.37 124.65 122.78 Z" />
<path fill="#36443c" opacity="1.00" d=" M 60.34 124.10 C 63.08 125.26 65.65 126.77 68.10 128.45 C 64.73 128.08 61.34 128.03 57.98 128.49 C 58.77 127.03 59.56 125.56 60.34 124.10 Z" />
<path fill="#36443c" opacity="1.00" d=" M 120.68 146.48 C 122.39 139.64 122.57 132.56 124.09 125.70 C 122.83 134.72 126.19 143.33 128.39 151.89 C 130.81 153.45 133.75 153.85 136.46 154.68 C 132.83 154.65 129.20 154.61 125.57 154.50 C 125.34 155.16 124.88 156.48 124.65 157.14 C 120.32 155.39 117.00 151.99 113.68 148.83 C 115.88 147.69 118.27 147.01 120.68 146.48 Z" />
<path fill="#36443c" opacity="1.00" d=" M 85.44 132.43 C 87.05 131.90 89.12 130.63 90.19 132.72 C 91.32 137.15 89.91 141.78 89.42 146.24 C 90.56 144.58 91.58 142.79 93.04 141.39 C 94.16 140.37 95.54 141.63 96.70 141.91 C 96.84 143.96 96.69 146.01 96.63 148.07 C 96.81 151.77 98.43 155.19 98.94 158.83 C 98.33 160.22 97.37 161.42 96.43 162.61 C 95.32 157.63 94.28 152.64 93.06 147.69 C 90.09 148.11 87.12 148.51 84.13 148.80 C 84.49 153.90 84.65 159.02 84.29 164.13 C 83.66 158.46 82.65 152.84 81.69 147.22 C 77.51 147.29 73.33 147.33 69.14 147.39 C 69.36 149.33 69.58 151.27 69.86 153.21 L 68.96 153.08 C 64.04 152.78 59.14 151.66 54.98 148.91 C 57.33 148.77 59.66 149.15 61.97 149.51 C 61.89 148.95 61.74 147.84 61.66 147.28 C 59.49 146.15 57.31 145.03 55.07 144.05 C 56.57 144.00 58.06 143.90 59.56 143.80 C 59.83 141.70 60.10 139.60 60.36 137.51 C 62.11 137.85 63.86 138.18 65.62 138.51 C 66.04 140.28 66.47 142.07 66.89 143.85 C 69.88 143.49 72.83 142.90 75.73 142.09 C 75.30 140.32 74.87 138.55 74.43 136.79 C 75.45 136.62 76.47 136.46 77.48 136.31 C 78.44 137.67 79.39 139.03 80.35 140.39 C 83.26 138.62 85.29 135.94 85.44 132.43 Z" />
<path fill="#36443c" opacity="1.00" d=" M 40.60 136.19 C 42.85 137.90 45.18 139.55 47.21 141.53 C 45.05 142.43 42.24 142.63 40.70 144.51 C 39.07 149.45 38.73 155.04 35.04 159.07 C 31.65 162.80 26.41 162.86 21.78 162.26 C 26.56 158.99 31.73 155.56 34.33 150.18 C 35.89 147.09 35.70 143.54 35.72 140.18 C 37.52 139.09 39.20 137.78 40.60 136.19 Z" />
<path fill="#36443c" opacity="1.00" d=" M 98.19 150.36 C 100.37 150.35 102.53 149.98 104.63 149.41 C 104.72 149.73 104.90 150.38 105.00 150.71 C 104.36 151.06 103.09 151.78 102.46 152.13 C 104.16 154.20 105.85 156.27 107.46 158.41 C 107.85 161.20 109.21 163.67 110.94 165.85 C 112.49 164.35 114.02 162.82 115.53 161.27 C 114.77 160.21 114.00 159.16 113.24 158.10 C 114.29 156.50 115.34 154.89 116.40 153.28 C 121.76 157.48 120.99 164.63 121.36 170.68 C 119.52 171.97 117.70 173.29 115.90 174.63 C 116.95 177.98 117.81 181.38 118.40 184.84 C 116.91 184.76 115.43 184.68 113.95 184.57 C 112.87 181.36 111.18 178.44 109.54 175.50 C 108.34 173.40 109.40 170.93 109.61 168.71 C 107.60 167.28 105.39 166.04 103.77 164.15 C 102.17 161.26 102.72 157.67 101.16 154.76 C 100.30 153.20 99.20 151.81 98.19 150.36 M 104.38 160.66 C 104.80 161.84 105.25 163.02 105.70 164.20 C 106.34 164.32 107.62 164.55 108.27 164.67 C 107.23 163.10 105.91 161.75 104.38 160.66 M 113.92 164.33 C 111.89 167.61 114.03 172.49 118.12 172.39 C 117.71 169.26 116.28 166.43 113.92 164.33 Z" />
<path fill="#36443c" opacity="1.00" d=" M 125.44 166.89 C 127.18 166.70 128.91 166.51 130.65 166.36 C 128.85 168.55 127.02 170.72 125.17 172.86 C 126.46 172.99 127.76 173.10 129.06 173.20 L 128.32 173.49 C 127.23 173.93 126.14 174.36 125.05 174.78 C 125.99 177.72 126.94 180.65 127.84 183.61 C 126.00 181.97 124.13 180.09 123.76 177.53 C 123.93 173.94 124.48 170.36 125.44 166.89 Z" />
<path fill="#36443c" opacity="1.00" d=" M 49.67 168.26 C 50.21 168.17 51.30 167.97 51.84 167.88 C 51.07 170.85 49.90 173.73 49.52 176.80 C 48.94 179.34 49.37 182.40 47.37 184.39 C 45.82 186.16 44.17 187.83 42.61 189.58 C 41.41 189.23 40.20 188.89 39.00 188.56 C 41.09 185.07 43.14 181.24 42.34 177.03 C 41.42 177.97 40.49 178.92 39.57 179.87 C 40.38 177.43 41.21 174.99 41.99 172.54 C 42.47 172.60 43.43 172.73 43.92 172.79 C 43.69 174.75 43.63 176.73 43.60 178.71 C 44.77 176.40 45.88 174.05 46.95 171.69 C 48.05 171.33 49.16 170.97 50.26 170.62 C 50.06 169.83 49.87 169.05 49.67 168.26 Z" />
<path fill="#36443c" opacity="1.00" d=" M 100.15 176.36 C 102.24 175.18 104.31 173.98 106.42 172.82 C 106.29 175.92 106.16 179.11 104.85 181.98 C 103.33 180.06 101.78 178.18 100.15 176.36 Z" />
<path fill="#36443c" opacity="1.00" d=" M 34.19 182.44 C 32.21 182.72 32.03 178.34 33.94 178.34 C 34.18 179.69 34.19 181.07 34.19 182.44 Z" />
<path fill="#36443c" opacity="1.00" d=" M 50.31 180.18 C 50.80 179.60 51.77 178.44 52.26 177.87 C 53.80 178.91 55.34 179.96 56.87 181.04 C 56.98 181.48 57.19 182.37 57.30 182.81 C 54.51 184.07 52.34 181.67 50.31 180.18 Z" />
<path fill="#36443c" opacity="1.00" d=" M 81.64 182.59 C 83.21 182.07 84.82 181.71 86.43 181.32 C 86.53 183.69 86.56 186.07 86.47 188.45 C 86.35 186.81 86.23 185.18 86.10 183.55 C 84.12 183.71 82.14 183.87 80.17 184.13 C 80.10 186.14 80.13 188.15 80.14 190.16 C 82.26 189.61 84.37 189.05 86.47 188.45 C 87.13 188.25 87.79 188.04 88.44 187.82 C 89.22 187.54 90.00 187.25 90.77 186.93 C 91.43 188.33 92.10 189.73 92.78 191.13 C 94.99 191.53 97.27 191.73 99.36 192.58 C 101.27 194.06 100.81 196.85 101.45 198.94 L 101.61 199.69 C 106.51 199.87 111.42 199.91 116.30 200.44 C 111.79 201.92 107.19 203.10 102.69 204.58 C 104.63 205.59 106.64 206.65 108.89 206.69 C 115.28 207.01 121.68 206.95 128.08 207.06 C 128.04 205.09 128.02 203.12 127.93 201.16 L 128.78 201.11 C 128.74 203.65 128.71 206.19 128.71 208.73 C 95.22 208.74 61.74 208.72 28.25 208.74 C 28.24 206.19 28.20 203.65 28.15 201.11 L 28.93 200.99 C 28.96 203.02 28.99 205.05 29.02 207.09 C 36.79 207.12 44.55 206.84 52.31 206.39 C 52.83 205.64 53.36 204.89 53.88 204.14 C 49.52 202.87 45.14 201.67 40.77 200.43 C 47.73 199.44 54.84 200.47 61.74 199.01 C 63.53 197.56 65.21 195.99 66.96 194.49 C 65.43 191.83 63.71 189.30 62.01 186.76 C 64.14 187.45 66.14 188.48 68.03 189.66 C 69.78 189.32 71.51 188.93 73.23 188.45 C 74.74 188.02 76.24 187.54 77.74 187.06 C 78.83 185.44 79.45 183.02 81.64 182.59 Z" />
<path fill="#36443c" opacity="1.00" d=" M 96.36 183.64 C 97.70 182.11 99.64 182.88 100.83 184.16 C 100.16 185.89 97.03 185.05 96.36 183.64 Z" />
</g>
<g id="#cbc7b4ff">
<path fill="#cbc7b4" opacity="1.00" d=" M 71.20 109.21 C 73.37 109.12 75.53 109.09 77.70 109.06 C 77.25 109.63 76.81 110.21 76.36 110.79 C 78.31 111.10 80.29 111.29 82.17 111.91 C 85.30 114.24 85.08 119.88 81.50 121.71 C 78.54 123.08 74.69 122.85 72.02 120.93 C 69.80 117.88 72.56 114.32 73.42 111.27 C 71.52 113.39 68.88 115.70 69.77 118.89 C 69.99 122.97 74.46 124.60 77.97 124.35 C 81.50 124.40 83.97 121.62 86.33 119.40 C 89.83 121.83 93.96 123.03 98.13 123.71 C 97.06 125.55 96.02 127.40 95.00 129.26 C 89.36 130.82 83.55 129.78 77.85 129.29 C 80.33 130.44 82.87 131.49 85.44 132.43 C 85.29 135.94 83.26 138.62 80.35 140.39 C 79.39 139.03 78.44 137.67 77.48 136.31 C 76.47 136.46 75.45 136.62 74.43 136.79 C 74.87 138.55 75.30 140.32 75.73 142.09 C 72.83 142.90 69.88 143.49 66.89 143.85 C 66.47 142.07 66.04 140.28 65.62 138.51 C 63.86 138.18 62.11 137.85 60.36 137.51 C 60.10 139.60 59.83 141.70 59.56 143.80 C 58.06 143.90 56.57 144.00 55.07 144.05 C 54.15 143.67 53.24 143.28 52.33 142.87 C 51.80 142.61 50.75 142.10 50.22 141.84 C 50.83 141.12 52.05 139.69 52.65 138.97 C 51.85 135.85 51.70 132.60 52.13 129.41 C 48.28 130.00 44.41 129.40 40.82 127.93 C 43.68 127.25 46.59 126.64 49.32 125.52 C 50.68 124.76 52.00 123.94 53.33 123.14 C 51.55 122.82 49.70 122.68 48.02 121.99 C 44.78 119.47 45.18 115.00 45.31 111.36 C 49.84 108.89 54.54 111.13 59.11 112.02 C 63.28 111.97 67.11 109.85 71.20 109.21 M 60.34 124.10 C 59.56 125.56 58.77 127.03 57.98 128.49 C 61.34 128.03 64.73 128.08 68.10 128.45 C 65.65 126.77 63.08 125.26 60.34 124.10 Z" />
<path fill="#cbc7b4" opacity="1.00" d=" M 6.62 139.58 C 7.82 135.03 11.32 130.85 16.06 129.87 C 17.23 130.11 18.40 130.35 19.58 130.59 C 19.92 131.22 20.26 131.85 20.59 132.49 C 17.11 134.54 13.02 136.39 11.24 140.28 C 9.59 143.75 8.50 147.46 6.92 150.96 C 4.62 147.55 5.70 143.26 6.62 139.58 Z" />
<path fill="#cbc7b4" opacity="1.00" d=" M 69.14 147.39 C 73.33 147.33 77.51 147.29 81.69 147.22 C 82.65 152.84 83.66 158.46 84.29 164.13 C 84.29 164.49 84.29 165.22 84.29 165.59 C 80.19 164.82 76.03 164.42 71.87 164.60 C 71.11 160.82 70.51 157.01 69.86 153.21 C 69.58 151.27 69.36 149.33 69.14 147.39 Z" />
</g>
</svg>
