<?xml version="1.0" encoding="UTF-8" ?>
<!DOCTYPE svg PUBLIC "-//W3C//DTD SVG 1.1//EN" "http://www.w3.org/Graphics/SVG/1.1/DTD/svg11.dtd">
<svg width="155pt" height="210pt" viewBox="0 0 155 210" version="1.1" xmlns="http://www.w3.org/2000/svg">
<g id="#767a82ff">
<path fill="#767a82" opacity="1.00" d=" M 61.34 24.14 C 72.29 22.40 83.85 24.08 93.67 29.26 C 97.57 31.96 103.04 35.42 101.96 40.94 C 100.31 53.22 102.30 65.64 101.06 77.93 C 99.94 85.23 100.82 92.63 99.93 99.95 C 99.58 102.11 100.14 104.24 100.48 106.36 C 100.68 107.93 100.81 109.50 100.92 111.08 C 100.06 109.65 99.12 108.27 98.18 106.89 C 96.94 107.99 95.69 109.09 94.44 110.19 C 95.10 112.37 95.75 114.55 96.41 116.73 C 97.71 116.63 99.01 116.54 100.31 116.45 C 100.54 114.95 100.78 113.46 100.97 111.95 C 102.99 111.92 105.00 111.91 107.02 111.94 C 108.24 111.97 109.47 112.00 110.70 112.05 C 109.91 114.71 108.88 117.30 108.26 120.00 C 108.63 121.52 110.65 121.84 111.80 122.70 C 105.78 121.66 101.56 126.98 97.05 130.00 C 101.53 132.01 106.26 133.41 111.12 134.09 C 107.83 137.85 103.20 141.25 103.11 146.72 C 105.88 145.79 108.65 144.88 111.47 144.12 C 111.29 142.43 111.10 140.74 110.92 139.05 C 112.38 139.09 113.84 139.13 115.30 139.19 C 113.42 136.34 111.92 133.21 111.67 129.76 C 115.06 131.19 117.37 134.06 119.19 137.15 C 119.56 136.71 120.32 135.84 120.70 135.40 L 121.13 134.90 C 120.88 137.01 120.04 139.20 120.60 141.31 C 121.92 143.28 123.84 144.72 125.63 146.24 C 121.16 148.45 117.89 152.33 113.77 155.04 C 112.01 156.05 110.17 156.91 108.34 157.78 C 99.97 152.60 88.97 152.98 80.32 157.29 C 79.85 154.84 80.19 152.35 80.88 149.96 C 74.54 150.45 68.27 152.81 61.88 151.25 C 61.94 150.25 61.99 149.25 62.04 148.25 C 62.12 146.89 62.20 145.52 62.29 144.16 C 67.62 145.82 72.88 147.80 78.39 148.81 C 81.67 149.55 84.88 148.26 87.96 147.28 C 85.63 145.92 83.43 144.25 82.25 141.73 C 86.01 142.10 89.66 143.13 93.17 144.50 C 95.59 140.11 96.69 135.15 96.21 130.15 C 90.58 131.43 84.84 132.89 79.03 132.13 C 72.85 131.31 66.63 130.98 60.41 130.66 C 55.31 130.41 49.82 129.25 45.12 131.89 C 41.98 132.00 39.81 129.46 37.32 127.97 C 36.38 127.48 35.43 127.04 34.45 126.65 C 34.42 124.08 34.39 121.50 34.40 118.92 C 39.27 120.80 44.44 121.82 49.66 121.66 C 50.00 119.40 50.33 117.13 50.84 114.90 C 50.72 116.98 50.73 119.06 50.72 121.14 C 53.16 121.43 55.61 121.71 58.05 121.99 C 58.19 119.21 58.31 116.44 58.41 113.66 C 58.67 116.45 58.93 119.24 59.18 122.04 C 61.11 122.03 63.04 122.03 64.97 122.03 C 65.14 119.21 65.32 116.39 65.49 113.57 C 65.62 116.34 65.77 119.11 65.93 121.88 C 68.85 121.41 71.76 120.91 74.69 120.44 C 79.32 123.44 85.13 121.53 90.16 120.78 C 89.55 120.49 88.32 119.92 87.71 119.64 C 88.72 119.30 89.73 118.95 90.73 118.59 C 90.66 115.92 90.61 113.26 90.57 110.59 C 89.42 110.66 88.27 110.73 87.12 110.81 C 87.26 110.30 87.53 109.30 87.67 108.79 C 84.82 109.09 81.97 109.40 79.12 109.70 C 79.60 101.77 82.72 93.17 78.25 85.78 C 75.51 79.69 67.81 79.38 62.10 80.22 C 57.38 81.05 51.79 82.90 49.75 87.65 C 48.28 94.11 49.94 100.76 49.97 107.30 C 47.55 107.04 45.13 106.76 42.73 106.42 C 42.99 100.58 41.66 94.83 41.84 88.99 C 41.94 84.34 41.54 79.70 40.98 75.08 C 44.78 75.82 48.63 76.36 52.50 76.71 C 52.86 70.07 52.87 63.42 52.39 56.79 C 48.38 55.69 44.44 54.33 40.68 52.54 C 41.27 46.39 39.33 39.46 42.95 33.97 C 47.52 28.47 54.40 25.36 61.34 24.14 M 84.27 33.13 C 82.27 33.52 83.25 36.61 85.10 36.03 C 87.10 35.64 86.12 32.53 84.27 33.13 M 88.29 32.76 C 88.41 33.49 88.64 34.95 88.76 35.68 C 89.96 35.38 91.15 35.08 92.35 34.78 C 91.00 34.10 89.63 33.45 88.29 32.76 M 90.75 64.76 C 90.59 65.27 90.29 66.30 90.14 66.82 C 90.81 66.83 92.15 66.87 92.81 66.88 C 92.81 66.19 92.79 64.81 92.79 64.12 C 92.28 64.28 91.26 64.60 90.75 64.76 M 85.17 65.24 C 85.18 65.88 85.21 67.15 85.22 67.79 C 85.85 67.79 87.10 67.79 87.73 67.79 C 87.74 67.15 87.76 65.88 87.77 65.24 C 87.12 65.24 85.82 65.24 85.17 65.24 M 89.90 99.30 C 90.33 100.63 90.79 101.95 91.24 103.27 C 91.77 101.95 92.59 100.77 93.11 99.44 C 92.31 99.40 90.70 99.33 89.90 99.30 M 85.22 100.16 C 84.69 101.79 85.25 102.34 86.88 101.83 C 87.40 100.20 86.85 99.64 85.22 100.16 M 106.14 149.78 C 107.35 150.57 108.60 151.29 109.86 152.00 C 109.48 150.61 109.08 149.23 108.68 147.84 C 107.82 148.47 106.96 149.10 106.14 149.78 Z" />
<path fill="#767a82" opacity="1.00" d=" M 39.03 143.29 C 39.71 139.99 41.08 136.88 43.48 134.48 C 44.88 136.03 46.27 137.59 47.67 139.14 C 46.44 141.09 45.02 142.90 43.62 144.73 C 41.41 144.46 39.21 144.19 37.00 143.94 L 35.81 143.81 C 35.75 143.37 35.62 142.48 35.55 142.04 C 35.84 141.03 36.16 140.04 36.51 139.06 C 37.36 140.46 38.20 141.88 39.03 143.29 Z" />
<path fill="#767a82" opacity="1.00" d=" M 37.21 149.80 C 37.64 153.66 39.77 156.99 40.97 160.61 C 41.91 163.37 42.72 166.17 43.71 168.92 C 41.62 169.95 39.60 171.39 37.23 171.59 C 35.02 171.37 33.30 169.76 31.59 168.50 C 33.37 168.09 35.15 167.70 36.93 167.32 C 35.85 166.00 34.77 164.68 33.71 163.35 C 36.24 163.32 38.77 163.27 41.30 163.14 C 39.83 160.10 38.06 157.22 36.05 154.50 C 36.43 152.93 36.82 151.36 37.21 149.80 Z" />
<path fill="#767a82" opacity="1.00" d=" M 85.88 156.91 C 87.70 154.34 91.22 154.48 94.03 154.51 C 97.98 154.74 102.56 155.51 105.10 158.88 C 106.00 161.93 105.00 165.24 105.89 168.30 C 106.75 170.16 108.16 171.68 109.41 173.29 C 109.10 175.68 108.56 178.11 106.48 179.59 C 103.65 181.72 103.17 185.29 103.04 188.59 C 105.15 188.98 107.38 189.13 109.20 190.39 C 103.40 190.55 97.94 187.97 92.11 188.59 C 89.01 188.90 88.76 185.54 88.99 183.31 C 87.77 183.33 86.55 183.36 85.33 183.39 C 85.22 179.51 85.32 175.63 85.62 171.77 C 84.35 171.34 83.07 170.91 81.80 170.49 C 82.40 165.81 83.02 160.83 85.88 156.91 M 88.08 166.49 C 88.43 169.05 88.75 171.62 89.08 174.19 C 92.03 173.96 94.98 174.13 97.90 174.58 C 98.36 171.88 98.71 169.17 98.99 166.45 C 95.39 167.26 91.69 167.26 88.08 166.49 Z" />
<path fill="#767a82" opacity="1.00" d=" M 46.86 164.70 C 47.43 159.77 52.50 157.36 56.54 155.60 C 57.58 160.17 59.37 164.74 59.13 169.48 C 58.17 171.15 56.46 172.18 55.04 173.40 C 55.85 170.41 57.97 167.09 55.98 164.09 C 54.66 160.98 50.67 161.75 48.00 162.05 C 47.93 165.33 48.45 168.57 48.87 171.81 C 48.15 171.90 46.70 172.09 45.98 172.18 C 46.19 169.68 46.38 167.17 46.86 164.70 Z" />
<path fill="#767a82" opacity="1.00" d=" M 63.24 175.23 C 70.16 169.00 83.43 174.41 83.06 184.01 C 80.60 184.41 77.83 186.12 75.46 184.57 C 72.39 182.81 69.90 180.27 67.24 177.99 C 66.42 178.43 65.61 178.88 64.79 179.33 C 64.43 179.53 63.71 179.92 63.35 180.12 C 63.31 178.49 63.28 176.86 63.24 175.23 Z" />
<path fill="#767a82" opacity="1.00" d=" M 50.13 182.14 C 50.93 178.99 52.85 176.28 55.11 173.99 C 55.40 176.38 55.73 178.76 56.07 181.14 C 53.93 182.15 51.79 183.13 49.63 184.07 C 49.75 183.59 50.01 182.63 50.13 182.14 Z" />
<path fill="#767a82" opacity="1.00" d=" M 30.53 191.92 C 33.78 189.92 37.43 188.67 41.19 188.07 C 43.65 187.83 46.14 187.90 48.61 188.04 C 44.15 190.98 38.56 188.84 33.82 190.70 C 31.46 191.91 32.80 194.87 32.69 196.92 C 46.55 197.79 60.45 196.76 74.29 197.75 C 60.02 198.02 45.74 198.21 31.47 197.82 C 31.19 195.84 30.88 193.88 30.53 191.92 Z" />
</g>
<g id="#d1d1d6ff">
<path fill="#d1d1d6" opacity="1.00" d=" M 84.27 33.13 C 86.12 32.53 87.10 35.64 85.10 36.03 C 83.25 36.61 82.27 33.52 84.27 33.13 Z" />
<path fill="#d1d1d6" opacity="1.00" d=" M 88.29 32.76 C 89.63 33.45 91.00 34.10 92.35 34.78 C 91.15 35.08 89.96 35.38 88.76 35.68 C 88.64 34.95 88.41 33.49 88.29 32.76 Z" />
<path fill="#d1d1d6" opacity="1.00" d=" M 38.69 55.94 C 40.69 56.48 42.69 57.00 44.69 57.54 C 45.05 59.19 45.43 60.85 45.79 62.52 C 44.94 62.97 44.08 63.43 43.23 63.88 C 44.16 66.20 44.87 68.60 45.31 71.06 C 43.48 71.26 41.68 71.60 39.86 71.78 C 39.91 71.30 40.01 70.32 40.05 69.83 C 40.08 69.20 40.13 67.95 40.16 67.33 C 40.18 63.49 40.03 59.58 38.69 55.94 Z" />
<path fill="#d1d1d6" opacity="1.00" d=" M 90.75 64.76 C 91.26 64.60 92.28 64.28 92.79 64.12 C 92.79 64.81 92.81 66.19 92.81 66.88 C 92.15 66.87 90.81 66.83 90.14 66.82 C 90.29 66.30 90.59 65.27 90.75 64.76 Z" />
<path fill="#d1d1d6" opacity="1.00" d=" M 85.17 65.24 C 85.82 65.24 87.12 65.24 87.77 65.24 C 87.76 65.88 87.74 67.15 87.73 67.79 C 87.10 67.79 85.85 67.79 85.22 67.79 C 85.21 67.15 85.18 65.88 85.17 65.24 Z" />
<path fill="#d1d1d6" opacity="1.00" d=" M 89.90 99.30 C 90.70 99.33 92.31 99.40 93.11 99.44 C 92.59 100.77 91.77 101.95 91.24 103.27 C 90.79 101.95 90.33 100.63 89.90 99.30 Z" />
<path fill="#d1d1d6" opacity="1.00" d=" M 85.22 100.16 C 86.85 99.64 87.40 100.20 86.88 101.83 C 85.25 102.34 84.69 101.79 85.22 100.16 Z" />
<path fill="#d1d1d6" opacity="1.00" d=" M 39.33 107.37 C 39.82 107.32 40.80 107.22 41.29 107.17 C 40.81 108.29 40.34 109.42 39.85 110.54 C 41.36 110.29 42.87 110.04 44.37 109.78 C 45.23 112.94 45.79 116.72 43.13 119.22 C 40.78 118.24 38.73 116.73 36.48 115.56 C 37.56 112.87 38.00 109.95 39.33 107.37 Z" />
<path fill="#d1d1d6" opacity="1.00" d=" M 94.44 110.19 C 95.69 109.09 96.94 107.99 98.18 106.89 C 99.12 108.27 100.06 109.65 100.92 111.08 L 100.97 111.95 C 100.78 113.46 100.54 114.95 100.31 116.45 C 99.01 116.54 97.71 116.63 96.41 116.73 C 95.75 114.55 95.10 112.37 94.44 110.19 Z" />
<path fill="#d1d1d6" opacity="1.00" d=" M 87.12 110.81 C 88.27 110.73 89.42 110.66 90.57 110.59 C 90.61 113.26 90.66 115.92 90.73 118.59 C 89.73 118.95 88.72 119.30 87.71 119.64 C 86.43 119.66 85.14 119.68 83.86 119.70 C 83.67 118.00 83.39 116.30 83.56 114.60 C 84.58 113.18 85.89 112.02 87.12 110.81 Z" />
<path fill="#d1d1d6" opacity="1.00" d=" M 65.49 113.57 C 68.52 112.64 71.57 111.81 74.65 111.04 C 74.67 114.17 74.63 117.31 74.69 120.44 C 71.76 120.91 68.85 121.41 65.93 121.88 C 65.77 119.11 65.62 116.34 65.49 113.57 Z" />
<path fill="#d1d1d6" opacity="1.00" d=" M 50.84 114.90 C 52.03 111.31 55.85 112.90 58.41 113.66 C 58.31 116.44 58.19 119.21 58.05 121.99 C 55.61 121.71 53.16 121.43 50.72 121.14 C 50.73 119.06 50.72 116.98 50.84 114.90 Z" />
<path fill="#d1d1d6" opacity="1.00" d=" M 97.05 130.00 C 101.56 126.98 105.78 121.66 111.80 122.70 C 114.87 126.86 118.01 130.98 120.70 135.40 C 120.32 135.84 119.56 136.71 119.19 137.15 C 117.37 134.06 115.06 131.19 111.67 129.76 C 111.92 133.21 113.42 136.34 115.30 139.19 C 113.84 139.13 112.38 139.09 110.92 139.05 C 111.10 140.74 111.29 142.43 111.47 144.12 C 108.65 144.88 105.88 145.79 103.11 146.72 C 103.20 141.25 107.83 137.85 111.12 134.09 C 106.26 133.41 101.53 132.01 97.05 130.00 Z" />
<path fill="#d1d1d6" opacity="1.00" d=" M 45.12 131.89 C 49.82 129.25 55.31 130.41 60.41 130.66 C 66.63 130.98 72.85 131.31 79.03 132.13 C 84.84 132.89 90.58 131.43 96.21 130.15 C 96.69 135.15 95.59 140.11 93.17 144.50 C 89.66 143.13 86.01 142.10 82.25 141.73 C 83.43 144.25 85.63 145.92 87.96 147.28 C 84.88 148.26 81.67 149.55 78.39 148.81 C 72.88 147.80 67.62 145.82 62.29 144.16 C 62.20 145.52 62.12 146.89 62.04 148.25 C 56.43 145.06 54.10 138.75 50.10 134.02 C 49.32 135.74 48.55 137.46 47.67 139.14 C 46.27 137.59 44.88 136.03 43.48 134.48 C 41.08 136.88 39.71 139.99 39.03 143.29 C 38.20 141.88 37.36 140.46 36.51 139.06 C 39.18 136.44 42.10 134.09 45.12 131.89 Z" />
<path fill="#d1d1d6" opacity="1.00" d=" M 106.14 149.78 C 106.96 149.10 107.82 148.47 108.68 147.84 C 109.08 149.23 109.48 150.61 109.86 152.00 C 108.60 151.29 107.35 150.57 106.14 149.78 Z" />
<path fill="#d1d1d6" opacity="1.00" d=" M 31.00 167.96 C 27.59 163.38 30.47 155.84 36.05 154.50 C 38.06 157.22 39.83 160.10 41.30 163.14 C 38.77 163.27 36.24 163.32 33.71 163.35 C 34.77 164.68 35.85 166.00 36.93 167.32 C 35.15 167.70 33.37 168.09 31.59 168.50 L 31.00 167.96 Z" />
<path fill="#d1d1d6" opacity="1.00" d=" M 88.08 166.49 C 91.69 167.26 95.39 167.26 98.99 166.45 C 98.71 169.17 98.36 171.88 97.90 174.58 C 94.98 174.13 92.03 173.96 89.08 174.19 C 88.75 171.62 88.43 169.05 88.08 166.49 Z" />
</g>
<g id="#3e3d49ff">
<path fill="#3e3d49" opacity="1.00" d=" M 39.92 52.20 L 40.68 52.54 C 44.44 54.33 48.38 55.69 52.39 56.79 C 52.87 63.42 52.86 70.07 52.50 76.71 C 48.63 76.36 44.78 75.82 40.98 75.08 L 40.21 74.94 C 40.12 74.15 39.95 72.57 39.86 71.78 C 41.68 71.60 43.48 71.26 45.31 71.06 C 44.87 68.60 44.16 66.20 43.23 63.88 C 44.08 63.43 44.94 62.97 45.79 62.52 C 45.43 60.85 45.05 59.19 44.69 57.54 C 42.69 57.00 40.69 56.48 38.69 55.94 C 39.09 54.69 39.50 53.44 39.92 52.20 Z" />
<path fill="#3e3d49" opacity="1.00" d=" M 40.05 69.83 C 37.49 71.39 37.69 65.74 40.16 67.33 C 40.13 67.95 40.08 69.20 40.05 69.83 Z" />
<path fill="#3e3d49" opacity="1.00" d=" M 49.75 87.65 C 51.79 82.90 57.38 81.05 62.10 80.22 C 67.81 79.38 75.51 79.69 78.25 85.78 C 82.72 93.17 79.60 101.77 79.12 109.70 C 81.97 109.40 84.82 109.09 87.67 108.79 C 87.53 109.30 87.26 110.30 87.12 110.81 C 85.89 112.02 84.58 113.18 83.56 114.60 C 83.39 116.30 83.67 118.00 83.86 119.70 C 85.14 119.68 86.43 119.66 87.71 119.64 C 88.32 119.92 89.55 120.49 90.16 120.78 C 85.13 121.53 79.32 123.44 74.69 120.44 C 74.63 117.31 74.67 114.17 74.65 111.04 C 71.57 111.81 68.52 112.64 65.49 113.57 C 65.32 116.39 65.14 119.21 64.97 122.03 C 63.04 122.03 61.11 122.03 59.18 122.04 C 58.93 119.24 58.67 116.45 58.41 113.66 C 55.85 112.90 52.03 111.31 50.84 114.90 C 50.33 117.13 50.00 119.40 49.66 121.66 C 44.44 121.82 39.27 120.80 34.40 118.92 C 35.08 117.79 35.78 116.67 36.48 115.56 C 38.73 116.73 40.78 118.24 43.13 119.22 C 45.79 116.72 45.23 112.94 44.37 109.78 C 42.87 110.04 41.36 110.29 39.85 110.54 C 40.34 109.42 40.81 108.29 41.29 107.17 C 41.39 106.94 41.59 106.49 41.69 106.27 L 42.73 106.42 C 45.13 106.76 47.55 107.04 49.97 107.30 C 49.94 100.76 48.28 94.11 49.75 87.65 Z" />
<path fill="#3e3d49" opacity="1.00" d=" M 100.48 106.36 C 102.19 106.01 103.91 105.66 105.62 105.30 C 106.06 107.52 106.53 109.73 107.02 111.94 C 105.00 111.91 102.99 111.92 100.97 111.95 L 100.92 111.08 C 100.81 109.50 100.68 107.93 100.48 106.36 Z" />
<path fill="#3e3d49" opacity="1.00" d=" M 37.32 127.97 C 39.81 129.46 41.98 132.00 45.12 131.89 C 42.10 134.09 39.18 136.44 36.51 139.06 C 36.16 140.04 35.84 141.03 35.55 142.04 C 35.18 137.26 37.86 132.81 37.32 127.97 Z" />
<path fill="#3e3d49" opacity="1.00" d=" M 50.10 134.02 C 54.10 138.75 56.43 145.06 62.04 148.25 C 61.99 149.25 61.94 150.25 61.88 151.25 C 68.27 152.81 74.54 150.45 80.88 149.96 C 80.19 152.35 79.85 154.84 80.32 157.29 C 88.97 152.98 99.97 152.60 108.34 157.78 C 110.17 156.91 112.01 156.05 113.77 155.04 C 112.23 158.09 113.05 161.28 114.56 164.15 C 113.28 167.42 111.62 170.55 109.41 173.29 C 108.16 171.68 106.75 170.16 105.89 168.30 C 105.00 165.24 106.00 161.93 105.10 158.88 C 102.56 155.51 97.98 154.74 94.03 154.51 C 91.22 154.48 87.70 154.34 85.88 156.91 C 83.02 160.83 82.40 165.81 81.80 170.49 C 83.07 170.91 84.35 171.34 85.62 171.77 C 85.32 175.63 85.22 179.51 85.33 183.39 C 86.55 183.36 87.77 183.33 88.99 183.31 C 88.76 185.54 89.01 188.90 92.11 188.59 C 97.94 187.97 103.40 190.55 109.20 190.39 C 112.49 191.20 115.78 192.09 119.02 193.12 C 120.59 194.18 120.12 196.33 120.51 197.94 C 105.11 197.96 89.68 198.33 74.29 197.75 C 60.45 196.76 46.55 197.79 32.69 196.92 C 32.80 194.87 31.46 191.91 33.82 190.70 C 38.56 188.84 44.15 190.98 48.61 188.04 C 46.14 187.90 43.65 187.83 41.19 188.07 L 41.08 187.19 C 43.34 187.18 45.59 187.16 47.85 187.10 C 48.57 185.43 49.33 183.77 50.13 182.14 C 50.01 182.63 49.75 183.59 49.63 184.07 C 51.79 183.13 53.93 182.15 56.07 181.14 C 55.73 178.76 55.40 176.38 55.11 173.99 L 55.04 173.40 C 56.46 172.18 58.17 171.15 59.13 169.48 C 59.37 164.74 57.58 160.17 56.54 155.60 C 52.50 157.36 47.43 159.77 46.86 164.70 C 46.38 167.17 46.19 169.68 45.98 172.18 C 42.77 175.09 38.45 172.86 34.89 171.95 C 32.76 171.64 31.82 169.70 31.00 167.96 L 31.59 168.50 C 33.30 169.76 35.02 171.37 37.23 171.59 C 39.60 171.39 41.62 169.95 43.71 168.92 C 42.72 166.17 41.91 163.37 40.97 160.61 C 39.77 156.99 37.64 153.66 37.21 149.80 C 37.05 147.85 37.07 145.89 37.00 143.94 C 39.21 144.19 41.41 144.46 43.62 144.73 C 45.02 142.90 46.44 141.09 47.67 139.14 C 48.55 137.46 49.32 135.74 50.10 134.02 M 63.24 175.23 C 63.28 176.86 63.31 178.49 63.35 180.12 C 63.71 179.92 64.43 179.53 64.79 179.33 C 65.87 182.55 65.89 186.34 68.17 189.04 C 73.00 189.78 77.92 189.35 82.78 189.16 C 82.84 187.44 82.93 185.73 83.06 184.01 C 83.43 174.41 70.16 169.00 63.24 175.23 Z" />
</g>
</svg>
