<?xml version="1.0" encoding="UTF-8" ?>
<!DOCTYPE svg PUBLIC "-//W3C//DTD SVG 1.1//EN" "http://www.w3.org/Graphics/SVG/1.1/DTD/svg11.dtd">
<svg width="155pt" height="210pt" viewBox="0 0 155 210" version="1.1" xmlns="http://www.w3.org/2000/svg">
<g id="#c23918fe">
<path fill="#c23918" opacity="1.00" d=" M 89.49 67.93 C 89.79 66.23 90.11 64.53 90.50 62.84 C 91.76 63.97 93.01 65.12 94.26 66.26 C 97.99 64.31 103.05 63.65 106.41 66.66 C 102.74 67.17 99.07 67.65 95.42 68.27 C 98.10 71.51 101.78 73.56 105.35 75.64 C 108.13 77.97 109.76 81.33 111.51 84.44 C 113.95 88.72 113.41 93.83 114.04 98.55 C 114.09 99.87 114.03 101.19 114.00 102.51 C 111.44 100.60 108.77 97.63 105.23 98.41 C 100.03 99.46 95.83 102.96 91.08 105.12 C 86.82 107.19 82.07 107.79 77.49 108.75 C 79.15 106.50 80.50 104.03 81.45 101.39 C 75.14 100.94 68.80 101.45 62.59 102.61 C 62.57 104.88 62.56 107.15 62.56 109.42 C 60.39 109.41 58.21 109.51 56.06 109.14 C 52.24 108.19 49.27 105.18 45.38 104.42 C 43.12 106.21 41.43 108.57 39.55 110.72 C 39.03 107.97 38.99 105.16 39.61 102.42 C 46.81 102.01 54.01 101.53 61.13 100.35 C 54.26 98.63 47.06 97.79 40.10 99.51 C 40.03 99.04 39.89 98.12 39.82 97.66 C 41.31 91.80 40.52 85.26 44.01 80.01 C 48.60 72.09 58.11 69.23 66.71 68.50 C 69.17 68.03 71.67 68.27 74.15 68.33 C 71.76 70.84 68.00 70.32 64.83 70.79 C 64.62 71.24 64.21 72.16 64.01 72.62 C 70.85 72.72 77.73 73.09 84.54 72.16 C 81.25 71.12 77.87 70.26 74.91 68.44 C 77.67 67.94 80.46 67.48 83.28 67.60 C 85.35 67.66 87.42 67.78 89.49 67.93 M 64.31 85.50 C 64.29 86.92 64.28 88.34 64.26 89.77 C 69.44 89.46 74.59 88.88 79.73 88.27 C 79.43 86.73 80.20 84.55 78.56 83.61 C 73.76 83.66 69.06 84.91 64.31 85.50 Z" />
<path fill="#c23918" opacity="1.00" d=" M 83.61 148.98 C 86.05 148.69 88.49 148.42 90.93 148.17 C 90.23 151.97 89.13 155.69 87.81 159.32 C 81.96 158.89 75.87 159.24 70.38 156.79 C 70.35 156.11 70.29 154.76 70.26 154.08 C 71.98 153.79 73.70 153.40 75.46 153.42 C 76.73 154.44 77.79 155.69 78.90 156.88 C 79.15 155.81 79.40 154.73 79.65 153.66 C 81.06 153.41 82.47 153.17 83.88 152.92 C 83.79 151.60 83.70 150.29 83.61 148.98 Z" />
<path fill="#c23918" opacity="1.00" d=" M 53.34 157.92 C 56.07 159.20 58.84 160.41 61.55 161.73 C 61.66 162.43 61.86 163.83 61.96 164.53 C 62.20 166.19 62.52 167.84 62.85 169.49 C 63.33 171.95 63.82 174.41 64.13 176.91 C 63.97 181.15 60.03 183.23 56.72 184.91 C 53.34 184.43 53.64 179.57 55.16 177.31 C 52.94 175.07 50.25 173.17 48.74 170.35 C 47.38 166.79 47.18 162.81 47.97 159.10 C 49.69 160.51 51.59 161.67 53.51 162.79 C 53.48 161.16 53.45 159.54 53.34 157.92 Z" />
</g>
<g id="#392d24fe">
<path fill="#392d24" opacity="1.00" d=" M 66.71 68.50 C 70.70 66.07 75.52 66.06 80.04 66.30 C 81.27 66.27 82.27 67.02 83.28 67.60 C 80.46 67.48 77.67 67.94 74.91 68.44 C 77.87 70.26 81.25 71.12 84.54 72.16 C 77.73 73.09 70.85 72.72 64.01 72.62 C 64.21 72.16 64.62 71.24 64.83 70.79 C 68.00 70.32 71.76 70.84 74.15 68.33 C 71.67 68.27 69.17 68.03 66.71 68.50 Z" />
<path fill="#392d24" opacity="1.00" d=" M 95.42 68.27 C 99.07 67.65 102.74 67.17 106.41 66.66 C 105.70 67.68 104.99 68.69 104.26 69.70 C 106.44 69.07 108.62 68.48 110.83 67.95 C 110.93 68.64 111.13 70.01 111.23 70.69 C 109.08 72.09 107.02 73.66 105.35 75.64 C 101.78 73.56 98.10 71.51 95.42 68.27 Z" />
<path fill="#392d24" opacity="1.00" d=" M 64.31 85.50 C 69.06 84.91 73.76 83.66 78.56 83.61 C 80.20 84.55 79.43 86.73 79.73 88.27 C 74.59 88.88 69.44 89.46 64.26 89.77 C 64.28 88.34 64.29 86.92 64.31 85.50 Z" />
<path fill="#392d24" opacity="1.00" d=" M 39.91 96.82 L 39.82 97.66 C 39.89 98.12 40.03 99.04 40.10 99.51 C 47.06 97.79 54.26 98.63 61.13 100.35 C 54.01 101.53 46.81 102.01 39.61 102.42 C 39.55 100.55 39.66 98.67 39.91 96.82 Z" />
<path fill="#392d24" opacity="1.00" d=" M 91.08 105.12 C 95.83 102.96 100.03 99.46 105.23 98.41 C 108.77 97.63 111.44 100.60 114.00 102.51 C 114.03 101.19 114.09 99.87 114.04 98.55 L 113.98 97.63 C 114.97 101.47 115.07 105.74 113.42 109.40 C 112.39 111.57 109.97 112.36 107.99 113.37 C 107.30 109.64 107.55 105.83 107.61 102.07 C 101.55 103.04 96.37 106.43 90.73 108.56 C 78.34 111.94 65.36 111.24 52.69 112.47 C 55.84 116.82 60.77 119.02 65.13 121.86 C 67.74 123.40 68.13 126.61 68.99 129.24 C 65.51 129.92 62.00 130.44 58.48 130.91 C 59.20 132.36 59.85 133.88 60.92 135.12 C 63.26 135.93 65.79 135.89 68.23 136.21 C 73.02 136.65 77.62 138.20 82.12 139.82 C 78.93 140.10 75.42 141.06 72.48 139.27 C 70.09 137.77 67.29 137.43 64.52 137.68 C 65.24 140.09 64.94 144.25 68.39 144.40 C 77.54 145.64 86.87 143.42 95.97 145.54 C 95.18 149.13 93.41 152.96 95.20 156.56 C 96.14 160.26 99.03 163.13 102.54 164.45 C 105.00 165.15 107.56 165.41 110.06 165.91 C 107.72 165.98 105.38 166.16 103.04 166.31 C 104.41 168.10 105.78 169.90 107.15 171.70 C 107.80 170.86 108.45 170.03 109.11 169.20 C 109.15 171.16 109.21 173.13 109.24 175.09 C 107.59 173.91 105.95 172.71 104.29 171.54 C 104.00 173.47 103.71 175.40 103.42 177.33 C 100.82 173.42 97.48 170.12 94.10 166.90 C 93.18 166.16 92.25 164.99 90.92 165.19 C 81.61 166.91 72.36 169.21 62.85 169.49 C 62.52 167.84 62.20 166.19 61.96 164.53 C 62.37 162.30 62.90 160.10 63.47 157.90 C 62.67 157.61 61.88 157.32 61.09 157.04 C 61.23 158.60 61.37 160.17 61.55 161.73 C 58.84 160.41 56.07 159.20 53.34 157.92 C 53.27 157.67 53.12 157.18 53.05 156.93 C 55.95 156.00 58.15 153.39 57.82 150.22 C 56.44 147.67 53.96 146.01 51.78 144.20 C 51.68 146.54 51.60 148.89 51.69 151.24 C 50.19 140.92 50.93 130.33 48.57 120.13 C 48.29 118.32 47.02 116.95 45.66 115.82 C 43.59 114.16 41.50 112.53 39.55 110.72 C 41.43 108.57 43.12 106.21 45.38 104.42 C 49.27 105.18 52.24 108.19 56.06 109.14 C 58.21 109.51 60.39 109.41 62.56 109.42 C 62.56 107.15 62.57 104.88 62.59 102.61 C 68.80 101.45 75.14 100.94 81.45 101.39 C 80.50 104.03 79.15 106.50 77.49 108.75 C 82.07 107.79 86.82 107.19 91.08 105.12 M 51.23 118.22 C 51.40 120.92 50.39 124.34 52.52 126.48 C 56.87 129.07 62.31 129.31 67.18 128.24 C 66.55 127.08 65.93 125.92 65.29 124.77 C 64.07 124.95 62.86 125.20 61.62 125.21 C 59.94 123.31 59.34 120.12 56.53 119.54 C 54.80 118.96 53.00 118.61 51.23 118.22 M 83.61 148.98 C 83.70 150.29 83.79 151.60 83.88 152.92 C 82.47 153.17 81.06 153.41 79.65 153.66 C 79.40 154.73 79.15 155.81 78.90 156.88 C 77.79 155.69 76.73 154.44 75.46 153.42 C 73.70 153.40 71.98 153.79 70.26 154.08 C 70.29 154.76 70.35 156.11 70.38 156.79 C 75.87 159.24 81.96 158.89 87.81 159.32 C 89.13 155.69 90.23 151.97 90.93 148.17 C 88.49 148.42 86.05 148.69 83.61 148.98 Z" />
<path fill="#392d24" opacity="1.00" d=" M 85.02 122.08 C 89.64 117.98 95.34 115.27 101.15 113.32 C 102.72 117.10 104.56 122.07 101.57 125.63 C 96.28 128.93 89.72 129.34 83.63 129.31 C 83.84 126.91 82.93 123.87 85.02 122.08 M 90.98 119.72 C 90.36 121.66 89.71 123.58 89.03 125.49 C 87.68 125.40 86.33 125.31 84.98 125.23 C 84.96 125.96 84.91 127.42 84.89 128.15 C 90.56 128.04 96.23 126.91 101.15 123.98 C 101.17 121.27 100.92 118.56 100.22 115.93 C 97.07 117.02 93.99 118.29 90.98 119.72 Z" />
<path fill="#392d24" opacity="1.00" d=" M 70.64 132.88 C 72.06 131.09 73.05 127.81 75.89 128.17 C 78.23 128.40 79.26 130.87 80.62 132.46 C 77.30 132.66 73.97 132.81 70.64 132.88 Z" />
<path fill="#392d24" opacity="1.00" d=" M 107.84 132.38 C 108.05 130.63 108.54 128.71 110.22 127.80 C 111.30 129.23 109.66 132.68 107.84 132.38 Z" />
<path fill="#392d24" opacity="1.00" d=" M 96.55 138.70 C 98.63 135.13 101.00 131.73 103.73 128.62 C 103.26 131.72 102.63 134.80 101.91 137.85 C 100.12 138.14 98.34 138.42 96.55 138.70 Z" />
<path fill="#392d24" opacity="1.00" d=" M 81.71 172.70 C 84.02 170.43 87.08 169.18 89.92 167.71 C 87.62 172.52 85.42 177.39 83.83 182.50 C 86.83 182.01 89.82 181.42 92.86 181.26 C 96.42 182.47 97.63 186.63 99.37 189.61 C 98.26 190.36 97.15 191.12 96.03 191.87 C 96.61 193.49 97.17 195.12 97.68 196.76 C 96.14 193.80 94.07 197.75 97.38 197.52 C 106.79 201.68 117.37 197.87 127.18 199.86 C 129.94 201.73 128.39 205.88 128.82 208.73 C 95.28 208.76 61.74 208.80 28.20 208.71 C 28.66 205.84 27.30 201.90 29.79 199.83 C 35.37 198.59 41.18 200.10 46.80 199.11 C 47.59 198.25 48.22 197.28 48.87 196.33 C 50.29 196.50 51.71 196.66 53.14 196.83 C 52.82 196.28 52.17 195.19 51.85 194.65 C 50.96 193.16 49.98 191.72 49.01 190.28 C 53.46 192.30 58.35 193.13 63.22 192.58 C 61.94 191.96 60.64 191.39 59.33 190.84 C 59.41 189.68 59.51 188.51 59.59 187.35 C 58.63 186.54 57.67 185.73 56.72 184.91 C 60.03 183.23 63.97 181.15 64.13 176.91 C 65.98 176.54 67.85 175.75 69.77 176.03 C 72.64 177.02 75.01 179.02 77.45 180.77 C 78.67 177.99 79.64 174.99 81.71 172.70 M 75.40 187.65 C 75.44 191.73 76.37 195.72 77.97 199.47 C 78.68 199.38 80.11 199.21 80.82 199.12 C 81.11 198.60 81.69 197.57 81.98 197.06 C 84.02 197.04 86.06 197.01 88.10 196.99 C 87.75 196.50 87.05 195.52 86.70 195.03 C 85.52 195.01 84.33 195.00 83.15 194.99 C 83.62 194.18 84.09 193.37 84.55 192.56 C 83.82 191.94 83.08 191.31 82.36 190.69 C 82.44 189.22 82.61 187.77 82.69 186.30 C 80.27 186.77 77.84 187.24 75.40 187.65 M 89.40 196.84 C 91.15 196.90 92.89 196.93 94.64 196.91 C 94.07 194.17 90.09 194.18 89.40 196.84 Z" />
</g>
<g id="#acaa93fe">
<path fill="#acaa93" opacity="1.00" d=" M 21.84 83.48 C 25.91 85.75 27.66 90.26 30.04 94.01 C 35.05 101.88 38.54 110.57 42.40 119.04 C 43.51 117.99 44.57 116.89 45.66 115.82 C 47.02 116.95 48.29 118.32 48.57 120.13 C 50.93 130.33 50.19 140.92 51.69 151.24 C 51.97 153.17 52.51 155.05 53.05 156.93 C 53.12 157.18 53.27 157.67 53.34 157.92 C 53.45 159.54 53.48 161.16 53.51 162.79 C 51.59 161.67 49.69 160.51 47.97 159.10 C 45.54 150.26 40.86 142.28 38.35 133.48 C 33.73 118.44 28.65 103.54 23.21 88.78 C 22.62 87.05 22.20 85.27 21.84 83.48 Z" />
<path fill="#acaa93" opacity="1.00" d=" M 90.73 108.56 C 96.37 106.43 101.55 103.04 107.61 102.07 C 107.55 105.83 107.30 109.64 107.99 113.37 C 109.01 115.21 110.47 116.79 111.30 118.74 C 112.07 121.36 111.66 124.13 111.56 126.81 C 111.22 127.06 110.56 127.55 110.22 127.80 C 108.54 128.71 108.05 130.63 107.84 132.38 C 106.98 138.40 102.39 145.00 95.97 145.54 C 86.87 143.42 77.54 145.64 68.39 144.40 C 64.94 144.25 65.24 140.09 64.52 137.68 C 67.29 137.43 70.09 137.77 72.48 139.27 C 75.42 141.06 78.93 140.10 82.12 139.82 C 77.62 138.20 73.02 136.65 68.23 136.21 C 65.79 135.89 63.26 135.93 60.92 135.12 C 59.85 133.88 59.20 132.36 58.48 130.91 C 62.00 130.44 65.51 129.92 68.99 129.24 C 68.13 126.61 67.74 123.40 65.13 121.86 C 60.77 119.02 55.84 116.82 52.69 112.47 C 65.36 111.24 78.34 111.94 90.73 108.56 M 85.02 122.08 C 82.93 123.87 83.84 126.91 83.63 129.31 C 89.72 129.34 96.28 128.93 101.57 125.63 C 104.56 122.07 102.72 117.10 101.15 113.32 C 95.34 115.27 89.64 117.98 85.02 122.08 M 70.64 132.88 C 73.97 132.81 77.30 132.66 80.62 132.46 C 79.26 130.87 78.23 128.40 75.89 128.17 C 73.05 127.81 72.06 131.09 70.64 132.88 M 96.55 138.70 C 98.34 138.42 100.12 138.14 101.91 137.85 C 102.63 134.80 103.26 131.72 103.73 128.62 C 101.00 131.73 98.63 135.13 96.55 138.70 Z" />
<path fill="#acaa93" opacity="1.00" d=" M 90.98 119.72 C 93.99 118.29 97.07 117.02 100.22 115.93 C 100.92 118.56 101.17 121.27 101.15 123.98 C 96.23 126.91 90.56 128.04 84.89 128.15 C 84.91 127.42 84.96 125.96 84.98 125.23 C 86.33 125.31 87.68 125.40 89.03 125.49 C 89.71 123.58 90.36 121.66 90.98 119.72 Z" />
<path fill="#acaa93" opacity="1.00" d=" M 51.23 118.22 C 53.00 118.61 54.80 118.96 56.53 119.54 C 59.34 120.12 59.94 123.31 61.62 125.21 C 62.86 125.20 64.07 124.95 65.29 124.77 C 65.93 125.92 66.55 127.08 67.18 128.24 C 62.31 129.31 56.87 129.07 52.52 126.48 C 50.39 124.34 51.40 120.92 51.23 118.22 Z" />
<path fill="#acaa93" opacity="1.00" d=" M 62.85 169.49 C 72.36 169.21 81.61 166.91 90.92 165.19 C 93.94 170.18 91.77 175.88 92.86 181.26 C 89.82 181.42 86.83 182.01 83.83 182.50 C 85.42 177.39 87.62 172.52 89.92 167.71 C 87.08 169.18 84.02 170.43 81.71 172.70 C 79.64 174.99 78.67 177.99 77.45 180.77 C 75.01 179.02 72.64 177.02 69.77 176.03 C 67.85 175.75 65.98 176.54 64.13 176.91 C 63.82 174.41 63.33 171.95 62.85 169.49 Z" />
<path fill="#acaa93" opacity="1.00" d=" M 103.04 166.31 C 105.38 166.16 107.72 165.98 110.06 165.91 C 111.75 166.42 113.04 167.71 114.43 168.73 C 114.01 169.22 113.15 170.19 112.72 170.68 C 111.52 170.17 110.31 169.69 109.11 169.20 C 108.45 170.03 107.80 170.86 107.15 171.70 C 105.78 169.90 104.41 168.10 103.04 166.31 Z" />
<path fill="#acaa93" opacity="1.00" d=" M 48.87 196.33 C 49.85 195.75 50.85 195.19 51.85 194.65 C 52.17 195.19 52.82 196.28 53.14 196.83 C 51.71 196.66 50.29 196.50 48.87 196.33 Z" />
<path fill="#acaa93" opacity="1.00" d=" M 83.15 194.99 C 84.33 195.00 85.52 195.01 86.70 195.03 C 87.05 195.52 87.75 196.50 88.10 196.99 C 86.06 197.01 84.02 197.04 81.98 197.06 C 82.27 196.54 82.86 195.51 83.15 194.99 Z" />
<path fill="#acaa93" opacity="1.00" d=" M 89.40 196.84 C 90.09 194.18 94.07 194.17 94.64 196.91 C 92.89 196.93 91.15 196.90 89.40 196.84 Z" />
<path fill="#acaa93" opacity="1.00" d=" M 97.38 197.52 C 94.07 197.75 96.14 193.80 97.68 196.76 L 97.38 197.52 Z" />
</g>
</svg>
