<?xml version="1.0" encoding="UTF-8" ?>
<!DOCTYPE svg PUBLIC "-//W3C//DTD SVG 1.1//EN" "http://www.w3.org/Graphics/SVG/1.1/DTD/svg11.dtd">
<svg width="155pt" height="210pt" viewBox="0 0 155 210" version="1.1" xmlns="http://www.w3.org/2000/svg">
<g id="#321f2fff">
<path fill="#321f2f" opacity="1.00" d=" M 71.94 31.40 C 75.65 28.89 79.84 27.23 84.11 25.93 C 84.60 28.98 84.66 32.07 84.55 35.16 C 87.53 37.12 89.59 40.14 90.44 43.60 C 92.41 50.77 94.37 58.92 90.93 65.97 C 87.69 70.97 81.54 73.25 78.55 78.52 C 77.29 74.07 78.54 69.55 78.98 65.09 C 75.93 64.59 72.87 64.20 69.80 63.92 C 69.93 66.65 70.54 69.34 71.95 71.69 C 70.45 73.46 68.93 75.21 67.67 77.15 C 62.60 75.69 56.28 74.12 54.79 68.23 C 52.96 60.31 52.88 52.05 52.92 43.94 C 52.80 40.51 51.73 37.22 51.27 33.84 C 53.64 36.47 56.41 39.03 57.20 42.65 C 59.03 49.40 60.14 56.95 65.93 61.63 C 66.90 59.90 67.85 58.17 68.80 56.43 C 72.35 58.05 76.03 59.37 79.80 60.37 C 80.15 56.53 80.49 52.56 79.18 48.85 C 77.55 44.12 76.24 39.29 75.62 34.32 C 74.40 33.34 73.17 32.37 71.94 31.40 M 83.85 48.77 C 82.01 53.20 82.03 58.15 81.19 62.83 C 81.69 63.24 82.70 64.05 83.20 64.46 C 84.34 63.09 85.83 61.83 86.13 59.97 C 87.03 55.74 88.02 51.13 86.16 47.00 C 85.58 47.45 84.43 48.33 83.85 48.77 Z" />
<path fill="#321f2f" opacity="1.00" d=" M 94.00 166.17 C 94.66 165.18 95.50 164.33 96.29 163.44 C 96.24 165.14 96.27 166.86 95.95 168.55 L 95.53 168.84 C 94.82 168.06 94.30 167.17 94.00 166.17 Z" />
</g>
<g id="#50324eff">
<path fill="#50324e" opacity="1.00" d=" M 60.33 30.63 C 62.59 32.11 64.71 33.79 66.73 35.58 C 68.47 34.20 70.21 32.81 71.94 31.40 C 73.17 32.37 74.40 33.34 75.62 34.32 C 76.24 39.29 77.55 44.12 79.18 48.85 C 80.49 52.56 80.15 56.53 79.80 60.37 C 76.03 59.37 72.35 58.05 68.80 56.43 C 67.85 58.17 66.90 59.90 65.93 61.63 C 60.14 56.95 59.03 49.40 57.20 42.65 C 56.41 39.03 53.64 36.47 51.27 33.84 C 50.90 33.38 50.18 32.47 49.82 32.01 C 53.04 32.41 55.87 34.03 58.56 35.74 C 59.14 34.04 59.71 32.33 60.33 30.63 Z" />
<path fill="#50324e" opacity="1.00" d=" M 83.85 48.77 C 84.43 48.33 85.58 47.45 86.16 47.00 C 88.02 51.13 87.03 55.74 86.13 59.97 C 85.83 61.83 84.34 63.09 83.20 64.46 C 82.70 64.05 81.69 63.24 81.19 62.83 C 82.03 58.15 82.01 53.20 83.85 48.77 Z" />
<path fill="#50324e" opacity="1.00" d=" M 78.55 78.52 C 83.37 78.69 88.19 79.76 92.49 82.00 C 86.56 82.28 80.98 84.37 75.30 85.70 C 69.15 84.13 63.01 82.36 56.65 81.76 C 59.74 80.10 63.15 79.06 66.67 78.92 C 70.63 78.79 74.59 78.58 78.55 78.52 Z" />
<path fill="#50324e" opacity="1.00" d=" M 54.92 183.61 L 55.35 183.90 C 59.24 187.08 64.64 185.62 69.15 187.14 C 62.26 189.48 55.16 186.71 48.16 187.93 C 48.13 189.21 48.11 190.49 48.10 191.78 C 62.70 192.89 77.37 192.04 92.00 192.33 C 98.79 192.39 105.59 192.43 112.35 191.64 C 111.67 190.06 110.94 188.50 110.20 186.95 C 111.91 186.84 113.62 186.64 115.32 186.42 L 116.15 186.31 C 115.95 188.49 115.78 190.66 115.63 192.85 C 97.42 193.15 79.21 192.76 61.00 192.94 C 55.35 192.98 49.69 193.12 44.04 192.79 C 44.50 190.56 43.63 187.17 46.25 186.08 C 48.96 185.48 51.76 185.59 54.52 185.45 C 54.62 184.99 54.82 184.07 54.92 183.61 Z" />
</g>
<g id="#5d5f5dff">
<path fill="#5d5f5d" opacity="1.00" d=" M 69.80 63.92 C 72.87 64.20 75.93 64.59 78.98 65.09 C 78.54 69.55 77.29 74.07 78.55 78.52 C 74.59 78.58 70.63 78.79 66.67 78.92 C 66.92 78.48 67.42 77.59 67.67 77.15 C 68.93 75.21 70.45 73.46 71.95 71.69 C 70.54 69.34 69.93 66.65 69.80 63.92 Z" />
<path fill="#5d5f5d" opacity="1.00" d=" M 129.47 140.08 C 128.91 132.22 127.02 123.81 130.93 116.46 C 133.71 125.62 135.35 135.07 136.54 144.55 C 137.17 150.46 137.42 156.43 138.65 162.27 C 138.83 158.45 138.98 154.64 139.00 150.82 C 140.20 156.63 140.51 163.06 137.29 168.32 C 133.96 174.18 130.94 181.21 124.34 184.03 L 124.83 183.26 C 126.85 180.16 129.22 177.32 131.60 174.49 C 130.43 173.94 129.26 173.39 128.09 172.84 C 131.29 171.00 135.29 168.94 135.59 164.75 C 136.32 160.92 130.00 161.46 129.84 157.92 C 129.16 152.00 130.04 146.02 129.47 140.08 Z" />
<path fill="#5d5f5d" opacity="1.00" d=" M 34.18 119.46 C 36.23 122.50 34.61 126.05 34.12 129.30 C 35.91 129.86 35.92 131.55 34.96 132.87 C 33.54 135.05 31.92 137.11 30.06 138.94 C 28.59 139.82 27.03 140.58 25.71 141.69 C 24.73 143.37 24.36 145.31 23.78 147.16 C 22.50 147.01 21.22 146.86 19.93 146.71 C 21.00 145.43 22.07 144.15 23.14 142.88 C 23.07 140.04 22.83 137.00 24.37 134.46 C 27.13 129.53 31.56 125.68 33.73 120.38 L 34.18 119.46 Z" />
<path fill="#5d5f5d" opacity="1.00" d=" M 136.85 134.19 C 138.52 134.74 138.75 135.68 137.55 136.99 C 136.89 136.16 136.65 135.22 136.85 134.19 Z" />
<path fill="#5d5f5d" opacity="1.00" d=" M 40.56 135.50 C 42.54 138.41 42.23 141.97 41.07 145.13 C 39.67 143.87 38.26 142.61 36.84 141.36 C 38.10 139.42 39.33 137.46 40.56 135.50 Z" />
<path fill="#5d5f5d" opacity="1.00" d=" M 104.34 149.71 C 108.64 149.74 112.95 149.69 117.25 149.73 C 117.65 149.75 118.45 149.79 118.85 149.81 C 118.90 152.77 119.57 155.68 119.62 158.64 C 118.64 160.55 116.99 162.00 115.55 163.56 C 116.60 165.55 117.63 167.56 118.64 169.58 C 117.97 169.90 116.61 170.54 115.93 170.86 C 113.19 170.57 110.44 170.36 107.68 170.35 C 106.09 166.04 105.99 161.42 106.89 156.96 C 108.23 156.91 109.58 156.86 110.92 156.83 C 110.72 158.78 110.49 160.74 110.44 162.71 C 109.66 163.12 108.12 163.93 107.35 164.34 C 109.12 165.07 110.90 165.79 112.67 166.53 C 112.19 165.74 111.71 164.95 111.24 164.15 C 111.82 161.32 112.32 158.46 112.77 155.61 C 111.14 155.52 109.52 155.42 107.89 155.31 C 106.94 153.60 105.98 151.88 104.78 150.32 L 104.34 149.71 Z" />
<path fill="#5d5f5d" opacity="1.00" d=" M 66.72 174.71 C 67.90 171.53 70.46 169.25 72.99 167.13 C 73.04 170.47 72.99 173.82 72.83 177.17 C 70.77 176.40 68.73 175.59 66.72 174.71 Z" />
</g>
<g id="#b5b047ff">
<path fill="#b5b047" opacity="1.00" d=" M 50.48 84.80 C 52.00 82.88 53.97 80.98 56.65 81.76 C 63.01 82.36 69.15 84.13 75.30 85.70 C 80.98 84.37 86.56 82.28 92.49 82.00 C 94.44 81.91 96.70 81.24 98.39 82.55 C 99.96 84.11 100.51 86.42 102.10 87.94 C 107.77 86.92 113.57 84.69 119.35 86.45 C 112.90 89.12 104.55 89.17 100.40 95.61 C 106.81 92.80 113.02 89.04 120.21 88.77 C 118.85 91.98 116.50 94.61 113.93 96.91 C 109.85 100.43 106.29 105.38 100.45 105.79 C 99.49 107.15 98.56 108.53 97.61 109.90 C 96.86 110.97 96.11 112.04 95.36 113.11 C 92.62 110.30 90.02 107.37 87.45 104.41 C 87.82 104.18 88.55 103.71 88.92 103.48 C 89.93 101.98 90.55 100.28 91.11 98.58 C 88.89 98.21 86.67 97.88 84.45 97.60 C 82.29 100.57 79.34 102.94 75.55 103.24 C 69.64 97.21 62.02 93.19 54.15 90.34 C 53.29 90.03 52.42 89.71 51.56 89.40 C 51.20 87.87 50.84 86.33 50.48 84.80 Z" />
<path fill="#b5b047" opacity="1.00" d=" M 46.42 98.42 C 47.72 97.19 49.02 95.95 50.31 94.70 C 52.41 95.74 54.64 96.52 56.94 96.99 C 58.49 97.08 60.05 97.06 61.61 97.11 C 61.55 99.17 60.16 102.18 62.60 103.38 C 64.62 104.45 66.17 101.95 67.78 101.10 C 69.53 104.17 73.04 105.20 76.09 106.49 C 82.38 109.06 85.52 115.44 89.71 120.35 C 92.34 122.36 95.58 123.21 98.74 123.98 C 98.57 122.24 98.41 120.51 98.17 118.78 C 101.67 118.58 105.82 117.66 108.66 120.36 C 111.54 122.51 112.29 126.18 112.89 129.51 C 107.93 129.75 102.94 128.61 99.18 125.20 C 97.90 128.51 96.47 131.77 94.87 134.95 C 89.71 133.35 84.49 131.49 79.01 131.66 C 75.92 131.53 72.71 132.09 69.71 131.20 C 67.73 129.53 66.35 127.24 64.21 125.74 C 62.31 124.56 60.16 123.88 58.06 123.13 C 58.06 122.22 58.06 121.30 58.08 120.39 C 60.83 121.93 63.95 122.47 67.06 122.09 C 66.28 118.82 65.39 115.04 61.85 113.71 C 59.29 112.61 56.63 111.46 54.92 109.13 C 52.16 105.51 47.89 102.92 46.42 98.42 Z" />
<path fill="#b5b047" opacity="1.00" d=" M 107.29 132.35 C 109.31 132.02 111.38 131.64 113.44 131.90 C 116.21 134.94 113.82 139.42 113.25 142.93 C 114.54 145.22 115.82 147.52 117.25 149.73 C 112.95 149.69 108.64 149.74 104.34 149.71 C 103.68 148.75 102.98 147.80 102.46 146.76 C 103.04 144.99 104.03 143.41 104.92 141.80 C 103.76 140.17 101.61 138.61 102.27 136.35 C 102.66 133.96 105.56 133.51 107.29 132.35 Z" />
</g>
<g id="#908d37ff">
<path fill="#908d37" opacity="1.00" d=" M 50.03 89.68 C 50.19 88.06 50.33 86.43 50.48 84.80 C 50.84 86.33 51.20 87.87 51.56 89.40 C 52.42 89.71 53.29 90.03 54.15 90.34 C 53.58 90.74 52.43 91.54 51.86 91.93 C 53.56 93.62 55.25 95.30 56.94 96.99 C 54.64 96.52 52.41 95.74 50.31 94.70 C 43.35 90.54 35.39 87.33 27.14 87.82 C 33.19 92.10 41.27 92.71 46.42 98.42 C 47.89 102.92 52.16 105.51 54.92 109.13 C 56.63 111.46 59.29 112.61 61.85 113.71 C 60.42 115.83 59.05 118.02 58.08 120.39 C 58.06 121.30 58.06 122.22 58.06 123.13 C 60.16 123.88 62.31 124.56 64.21 125.74 C 66.35 127.24 67.73 129.53 69.71 131.20 C 72.71 132.09 75.92 131.53 79.01 131.66 C 84.49 131.49 89.71 133.35 94.87 134.95 C 96.47 131.77 97.90 128.51 99.18 125.20 C 102.94 128.61 107.93 129.75 112.89 129.51 C 112.29 126.18 111.54 122.51 108.66 120.36 C 105.82 117.66 101.67 118.58 98.17 118.78 C 96.77 116.87 95.11 115.17 93.43 113.52 C 92.16 115.79 90.93 118.07 89.71 120.35 C 85.52 115.44 82.38 109.06 76.09 106.49 C 75.90 105.41 75.72 104.32 75.55 103.24 C 79.34 102.94 82.29 100.57 84.45 97.60 C 84.50 100.53 86.02 102.73 88.92 103.48 C 88.55 103.71 87.82 104.18 87.45 104.41 C 90.02 107.37 92.62 110.30 95.36 113.11 C 96.11 112.04 96.86 110.97 97.61 109.90 C 97.82 111.09 98.02 112.28 98.23 113.47 C 104.39 114.41 110.56 117.74 113.40 123.50 C 114.87 128.48 115.27 133.70 116.34 138.78 C 116.93 141.57 118.63 144.09 118.74 146.99 C 118.77 147.70 118.83 149.11 118.85 149.81 C 118.45 149.79 117.65 149.75 117.25 149.73 C 115.82 147.52 114.54 145.22 113.25 142.93 C 113.82 139.42 116.21 134.94 113.44 131.90 C 111.38 131.64 109.31 132.02 107.29 132.35 C 105.48 131.96 103.52 130.66 101.69 131.52 C 99.23 133.42 97.87 136.45 95.31 138.24 C 90.62 139.50 85.70 138.44 80.94 138.17 C 74.06 137.49 67.17 138.34 60.31 138.82 C 59.42 135.72 58.73 132.54 57.40 129.59 C 56.66 127.74 54.44 127.38 52.90 126.44 C 52.88 125.69 52.83 124.19 52.80 123.44 C 52.91 119.86 50.01 117.63 46.96 116.47 C 48.81 115.11 50.53 113.57 52.21 112.00 C 50.84 112.38 49.47 112.74 48.11 113.19 C 49.77 110.95 52.15 108.45 50.57 105.49 C 47.22 104.89 43.32 105.90 40.58 103.35 C 36.37 99.93 32.12 96.53 28.09 92.89 C 26.28 91.36 25.34 89.16 24.50 87.00 C 32.84 83.59 41.97 86.98 50.03 89.68 Z" />
<path fill="#908d37" opacity="1.00" d=" M 30.06 138.94 C 30.87 138.49 31.68 138.05 32.49 137.62 C 33.94 138.87 35.40 140.11 36.84 141.36 C 38.26 142.61 39.67 143.87 41.07 145.13 C 40.01 147.18 38.79 149.14 37.59 151.11 C 38.89 151.22 40.19 151.33 41.49 151.44 C 40.79 153.96 40.05 156.46 39.26 158.95 C 40.64 157.02 42.05 155.12 43.54 153.27 C 44.63 157.14 43.39 161.01 41.45 164.37 C 34.25 165.42 28.47 160.17 23.15 156.14 C 20.81 157.93 18.05 158.95 15.13 159.26 L 15.75 158.85 C 20.30 156.58 22.72 151.92 23.78 147.16 C 24.36 145.31 24.73 143.37 25.71 141.69 C 27.03 140.58 28.59 139.82 30.06 138.94 Z" />
<path fill="#908d37" opacity="1.00" d=" M 86.05 155.00 C 87.93 153.82 90.02 155.07 91.88 155.62 L 91.70 156.60 C 90.55 161.44 90.51 166.51 92.33 171.21 C 91.43 172.57 90.62 173.98 89.79 175.39 C 87.87 175.70 85.95 176.00 84.07 176.53 C 83.28 175.12 82.49 173.72 81.69 172.32 C 83.49 171.66 85.30 171.01 87.11 170.36 C 84.18 168.15 80.93 166.09 79.00 162.88 C 79.98 159.34 82.90 156.66 86.05 155.00 Z" />
<path fill="#908d37" opacity="1.00" d=" M 107.17 176.92 C 106.09 171.80 115.81 170.24 116.72 175.34 C 117.58 178.54 117.44 181.90 117.33 185.18 C 117.03 185.46 116.44 186.03 116.15 186.31 L 115.32 186.42 C 113.77 185.80 112.24 185.13 110.71 184.48 C 109.22 182.14 107.59 179.72 107.17 176.92 Z" />
<path fill="#908d37" opacity="1.00" d=" M 77.47 180.11 C 78.03 179.83 79.14 179.29 79.70 179.01 C 84.00 179.39 88.42 180.05 92.26 182.16 C 92.61 183.06 92.95 183.96 93.28 184.88 C 89.13 185.19 84.97 185.45 80.83 185.80 C 79.20 184.89 77.56 183.99 75.93 183.10 C 76.44 182.10 76.96 181.10 77.47 180.11 Z" />
</g>
<g id="#6c6a26ff">
<path fill="#6c6a26" opacity="1.00" d=" M 119.35 86.45 C 119.65 86.35 120.25 86.16 120.54 86.06 C 120.69 86.71 120.98 88.01 121.13 88.66 L 120.21 88.77 C 113.02 89.04 106.81 92.80 100.40 95.61 C 104.55 89.17 112.90 89.12 119.35 86.45 Z" />
<path fill="#6c6a26" opacity="1.00" d=" M 27.14 87.82 C 35.39 87.33 43.35 90.54 50.31 94.70 C 49.02 95.95 47.72 97.19 46.42 98.42 C 41.27 92.71 33.19 92.10 27.14 87.82 Z" />
<path fill="#6c6a26" opacity="1.00" d=" M 51.86 91.93 C 52.43 91.54 53.58 90.74 54.15 90.34 C 62.02 93.19 69.64 97.21 75.55 103.24 C 75.72 104.32 75.90 105.41 76.09 106.49 C 73.04 105.20 69.53 104.17 67.78 101.10 C 66.46 98.70 64.60 96.69 61.61 97.11 C 60.05 97.06 58.49 97.08 56.94 96.99 C 55.25 95.30 53.56 93.62 51.86 91.93 Z" />
<path fill="#6c6a26" opacity="1.00" d=" M 44.83 115.97 L 45.45 116.07 C 45.83 116.17 46.58 116.37 46.96 116.47 C 50.01 117.63 52.91 119.86 52.80 123.44 C 49.23 125.27 47.00 128.63 44.52 131.63 C 43.70 132.88 42.22 133.13 40.84 133.23 C 40.99 132.21 41.15 131.20 41.30 130.19 C 40.79 129.62 40.27 129.06 39.76 128.50 C 43.50 125.41 44.06 120.44 44.83 115.97 Z" />
<path fill="#6c6a26" opacity="1.00" d=" M 52.90 126.44 C 54.44 127.38 56.66 127.74 57.40 129.59 C 58.73 132.54 59.42 135.72 60.31 138.82 C 67.17 138.34 74.06 137.49 80.94 138.17 C 85.70 138.44 90.62 139.50 95.31 138.24 C 97.87 136.45 99.23 133.42 101.69 131.52 C 103.52 130.66 105.48 131.96 107.29 132.35 C 105.56 133.51 102.66 133.96 102.27 136.35 C 101.61 138.61 103.76 140.17 104.92 141.80 C 104.03 143.41 103.04 144.99 102.46 146.76 C 102.98 147.80 103.68 148.75 104.34 149.71 L 104.78 150.32 C 103.12 148.92 101.41 147.57 99.79 146.12 C 100.96 143.63 99.98 141.01 99.19 138.59 C 97.03 140.12 95.03 141.96 93.93 144.44 C 88.86 148.79 82.04 149.65 75.94 151.84 C 71.56 153.43 66.89 153.87 62.25 153.68 C 61.81 152.04 61.36 150.40 60.98 148.75 C 60.60 146.83 60.51 144.85 59.96 142.97 C 58.81 141.05 56.54 140.24 54.74 139.08 C 53.09 135.07 52.70 130.74 52.90 126.44 Z" />
<path fill="#6c6a26" opacity="1.00" d=" M 104.46 170.41 C 105.53 170.38 106.60 170.35 107.68 170.35 C 110.44 170.36 113.19 170.57 115.93 170.86 L 116.95 170.97 C 118.24 175.61 118.15 180.47 117.33 185.18 C 117.44 181.90 117.58 178.54 116.72 175.34 C 115.81 170.24 106.09 171.80 107.17 176.92 C 107.59 179.72 109.22 182.14 110.71 184.48 C 107.21 183.48 102.25 183.21 101.23 178.89 C 101.54 175.84 103.24 173.16 104.46 170.41 Z" />
</g>
<g id="#090a08ff">
<path fill="#090a08" opacity="1.00" d=" M 61.61 97.11 C 64.60 96.69 66.46 98.70 67.78 101.10 C 66.17 101.95 64.62 104.45 62.60 103.38 C 60.16 102.18 61.55 99.17 61.61 97.11 Z" />
<path fill="#090a08" opacity="1.00" d=" M 84.45 97.60 C 86.67 97.88 88.89 98.21 91.11 98.58 C 90.55 100.28 89.93 101.98 88.92 103.48 C 86.02 102.73 84.50 100.53 84.45 97.60 Z" />
<path fill="#090a08" opacity="1.00" d=" M 92.33 171.21 C 90.51 166.51 90.55 161.44 91.70 156.60 C 92.04 159.88 92.93 163.06 94.00 166.17 C 94.30 167.17 94.82 168.06 95.53 168.84 C 94.45 169.61 93.37 170.38 92.33 171.21 Z" />
<path fill="#090a08" opacity="1.00" d=" M 69.15 187.14 C 73.10 187.52 77.06 187.06 80.83 185.80 C 81.22 186.37 82.02 187.50 82.42 188.07 C 86.50 188.74 90.69 188.71 94.72 187.74 C 99.80 186.52 105.04 186.96 110.20 186.95 C 110.94 188.50 111.67 190.06 112.35 191.64 C 105.59 192.43 98.79 192.39 92.00 192.33 C 77.37 192.04 62.70 192.89 48.10 191.78 C 48.11 190.49 48.13 189.21 48.16 187.93 C 55.16 186.71 62.26 189.48 69.15 187.14 Z" />
</g>
<g id="#45432bff">
<path fill="#45432b" opacity="1.00" d=" M 125.66 125.48 C 126.50 119.15 126.36 112.56 128.80 106.54 C 129.43 109.86 130.09 113.18 130.93 116.46 C 127.02 123.81 128.91 132.22 129.47 140.08 C 130.04 146.02 129.16 152.00 129.84 157.92 C 130.00 161.46 136.32 160.92 135.59 164.75 C 135.29 168.94 131.29 171.00 128.09 172.84 C 129.26 173.39 130.43 173.94 131.60 174.49 C 129.22 177.32 126.85 180.16 124.83 183.26 C 123.27 179.55 122.76 175.52 121.33 171.78 C 119.91 171.33 118.42 171.15 116.95 170.97 L 115.93 170.86 C 116.61 170.54 117.97 169.90 118.64 169.58 C 117.63 167.56 116.60 165.55 115.55 163.56 C 116.99 162.00 118.64 160.55 119.62 158.64 C 119.57 155.68 118.90 152.77 118.85 149.81 C 118.83 149.11 118.77 147.70 118.74 146.99 C 119.44 147.97 120.13 148.97 120.82 149.96 C 123.32 142.00 124.84 133.77 125.66 125.48 Z" />
<path fill="#45432b" opacity="1.00" d=" M 44.52 131.63 C 47.00 128.63 49.23 125.27 52.80 123.44 C 52.83 124.19 52.88 125.69 52.90 126.44 C 52.70 130.74 53.09 135.07 54.74 139.08 C 55.85 142.10 56.62 145.80 54.60 148.64 C 52.41 151.78 49.86 154.68 48.15 158.14 C 46.85 161.08 44.05 162.74 41.45 164.37 C 43.39 161.01 44.63 157.14 43.54 153.27 C 42.05 155.12 40.64 157.02 39.26 158.95 C 40.05 156.46 40.79 153.96 41.49 151.44 C 40.19 151.33 38.89 151.22 37.59 151.11 C 38.79 149.14 40.01 147.18 41.07 145.13 C 42.23 141.97 42.54 138.41 40.56 135.50 C 37.62 134.81 34.94 136.16 32.49 137.62 C 31.68 138.05 30.87 138.49 30.06 138.94 C 31.92 137.11 33.54 135.05 34.96 132.87 C 36.92 133.00 38.88 133.20 40.84 133.23 C 42.22 133.13 43.70 132.88 44.52 131.63 Z" />
<path fill="#45432b" opacity="1.00" d=" M 137.86 140.33 C 139.87 140.35 139.95 143.96 138.37 144.77 C 137.99 143.32 137.79 141.82 137.86 140.33 Z" />
<path fill="#45432b" opacity="1.00" d=" M 75.94 151.84 C 82.04 149.65 88.86 148.79 93.93 144.44 C 95.12 146.22 96.24 148.05 97.37 149.87 C 98.18 148.63 99.02 147.39 99.79 146.12 C 101.41 147.57 103.12 148.92 104.78 150.32 C 105.98 151.88 106.94 153.60 107.89 155.31 C 109.52 155.42 111.14 155.52 112.77 155.61 C 112.32 158.46 111.82 161.32 111.24 164.15 C 111.04 163.79 110.64 163.07 110.44 162.71 C 110.49 160.74 110.72 158.78 110.92 156.83 C 109.58 156.86 108.23 156.91 106.89 156.96 C 105.99 161.42 106.09 166.04 107.68 170.35 C 106.60 170.35 105.53 170.38 104.46 170.41 C 103.24 173.16 101.54 175.84 101.23 178.89 C 102.25 183.21 107.21 183.48 110.71 184.48 C 112.24 185.13 113.77 185.80 115.32 186.42 C 113.62 186.64 111.91 186.84 110.20 186.95 C 105.04 186.96 99.80 186.52 94.72 187.74 C 90.69 188.71 86.50 188.74 82.42 188.07 C 82.02 187.50 81.22 186.37 80.83 185.80 C 84.97 185.45 89.13 185.19 93.28 184.88 C 93.95 184.83 95.31 184.73 95.98 184.68 C 94.39 179.37 94.71 173.88 95.95 168.55 C 96.27 166.86 96.24 165.14 96.29 163.44 C 97.99 159.38 96.17 155.38 94.36 151.75 C 93.50 153.02 92.65 154.29 91.88 155.62 C 90.02 155.07 87.93 153.82 86.05 155.00 C 82.90 156.66 79.98 159.34 79.00 162.88 C 80.93 166.09 84.18 168.15 87.11 170.36 C 85.30 171.01 83.49 171.66 81.69 172.32 C 82.49 173.72 83.28 175.12 84.07 176.53 C 83.08 177.08 82.10 177.64 81.13 178.21 C 78.67 173.11 78.51 167.42 78.02 161.89 C 76.82 162.08 75.63 162.27 74.44 162.47 C 75.01 168.40 74.32 174.75 77.47 180.11 C 76.96 181.10 76.44 182.10 75.93 183.10 C 77.56 183.99 79.20 184.89 80.83 185.80 C 77.06 187.06 73.10 187.52 69.15 187.14 C 64.64 185.62 59.24 187.08 55.35 183.90 C 57.76 182.15 60.17 180.40 62.60 178.68 C 61.15 175.85 59.48 173.08 58.64 169.99 C 58.18 166.83 59.15 163.69 59.68 160.60 C 60.51 156.67 58.83 152.42 60.98 148.75 C 61.36 150.40 61.81 152.04 62.25 153.68 C 66.89 153.87 71.56 153.43 75.94 151.84 M 66.72 174.71 C 68.73 175.59 70.77 176.40 72.83 177.17 C 72.99 173.82 73.04 170.47 72.99 167.13 C 70.46 169.25 67.90 171.53 66.72 174.71 Z" />
</g>
<g id="#b1b4adff">
<path fill="#b1b4ad" opacity="1.00" d=" M 128.80 106.54 C 132.12 109.84 132.72 114.67 133.90 118.97 C 134.96 124.02 136.71 128.99 136.85 134.19 C 136.65 135.22 136.89 136.16 137.55 136.99 C 137.63 137.82 137.78 139.49 137.86 140.33 C 137.79 141.82 137.99 143.32 138.37 144.77 C 138.77 146.76 138.95 148.79 139.00 150.82 C 138.98 154.64 138.83 158.45 138.65 162.27 C 137.42 156.43 137.17 150.46 136.54 144.55 C 135.35 135.07 133.71 125.62 130.93 116.46 C 130.09 113.18 129.43 109.86 128.80 106.54 Z" />
<path fill="#b1b4ad" opacity="1.00" d=" M 48.11 113.19 C 49.47 112.74 50.84 112.38 52.21 112.00 C 50.53 113.57 48.81 115.11 46.96 116.47 C 46.58 116.37 45.83 116.17 45.45 116.07 C 46.33 115.13 46.79 113.61 48.11 113.19 Z" />
<path fill="#b1b4ad" opacity="1.00" d=" M 58.08 120.39 C 59.05 118.02 60.42 115.83 61.85 113.71 C 65.39 115.04 66.28 118.82 67.06 122.09 C 63.95 122.47 60.83 121.93 58.08 120.39 Z" />
<path fill="#b1b4ad" opacity="1.00" d=" M 93.43 113.52 C 95.11 115.17 96.77 116.87 98.17 118.78 C 98.41 120.51 98.57 122.24 98.74 123.98 C 95.58 123.21 92.34 122.36 89.71 120.35 C 90.93 118.07 92.16 115.79 93.43 113.52 Z" />
<path fill="#b1b4ad" opacity="1.00" d=" M 8.99 149.96 C 14.99 138.47 23.84 128.65 33.73 120.38 C 31.56 125.68 27.13 129.53 24.37 134.46 C 22.83 137.00 23.07 140.04 23.14 142.88 C 22.07 144.15 21.00 145.43 19.93 146.71 C 21.22 146.86 22.50 147.01 23.78 147.16 C 22.72 151.92 20.30 156.58 15.75 158.85 C 12.87 156.40 10.56 153.39 8.99 149.96 Z" />
<path fill="#b1b4ad" opacity="1.00" d=" M 32.49 137.62 C 34.94 136.16 37.62 134.81 40.56 135.50 C 39.33 137.46 38.10 139.42 36.84 141.36 C 35.40 140.11 33.94 138.87 32.49 137.62 Z" />
<path fill="#b1b4ad" opacity="1.00" d=" M 107.35 164.34 C 108.12 163.93 109.66 163.12 110.44 162.71 C 110.64 163.07 111.04 163.79 111.24 164.15 C 111.71 164.95 112.19 165.74 112.67 166.53 C 110.90 165.79 109.12 165.07 107.35 164.34 Z" />
<path fill="#b1b4ad" opacity="1.00" d=" M 84.07 176.53 C 85.95 176.00 87.87 175.70 89.79 175.39 C 90.61 177.65 91.42 179.91 92.26 182.16 C 88.42 180.05 84.00 179.39 79.70 179.01 C 80.05 178.81 80.77 178.41 81.13 178.21 C 82.10 177.64 83.08 177.08 84.07 176.53 Z" />
</g>
</svg>
