<?xml version="1.0" encoding="UTF-8" ?>
<!DOCTYPE svg PUBLIC "-//W3C//DTD SVG 1.1//EN" "http://www.w3.org/Graphics/SVG/1.1/DTD/svg11.dtd">
<svg width="155pt" height="210pt" viewBox="0 0 155 210" version="1.1" xmlns="http://www.w3.org/2000/svg">
<g id="#56544cff">
<path fill="#56544c" opacity="1.00" d=" M 2.10 73.05 C 4.37 68.52 6.99 64.15 9.89 60.00 C 9.95 60.46 10.05 61.37 10.11 61.83 C 10.66 68.40 11.89 75.03 15.14 80.85 C 24.77 98.32 34.17 115.93 43.48 133.56 C 44.79 136.24 48.17 136.22 50.38 137.79 C 51.20 139.04 51.79 140.42 52.44 141.77 C 50.88 143.64 49.36 145.55 47.83 147.45 C 48.96 148.99 50.08 150.54 51.20 152.10 C 46.40 153.38 42.02 155.78 37.40 157.52 C 35.00 158.65 33.98 155.56 32.93 154.03 C 30.09 149.71 33.05 144.13 30.23 139.80 C 21.81 124.48 13.81 108.94 5.31 93.66 C 2.45 89.09 3.37 83.49 2.24 78.44 C 2.04 76.67 1.11 74.74 2.10 73.05 Z" />
<path fill="#56544c" opacity="1.00" d=" M 64.49 75.96 C 67.12 74.38 69.87 73.00 72.72 71.87 C 71.69 75.82 70.43 79.83 70.69 83.96 C 70.88 87.10 72.53 89.86 73.97 92.56 C 71.11 92.99 68.25 93.40 65.39 93.81 C 65.24 88.13 65.14 82.44 64.57 76.79 L 64.49 75.96 Z" />
<path fill="#56544c" opacity="1.00" d=" M 122.56 73.80 C 123.53 74.66 124.54 75.49 125.41 76.47 C 126.12 80.72 125.77 85.07 125.93 89.36 C 128.35 89.24 130.77 89.07 133.18 88.74 L 132.95 89.36 C 130.62 89.73 128.17 89.88 126.09 91.13 C 124.58 92.31 122.95 93.60 120.88 93.17 C 121.54 93.06 122.87 92.85 123.53 92.74 C 124.00 86.41 124.05 80.01 122.56 73.80 Z" />
<path fill="#56544c" opacity="1.00" d=" M 63.08 88.23 C 63.20 88.51 63.45 89.08 63.57 89.36 C 63.50 90.87 63.39 92.38 63.37 93.89 C 62.72 98.74 66.01 102.65 68.49 106.43 C 68.68 112.66 67.79 119.09 69.97 125.09 C 71.90 120.33 71.82 115.09 70.96 110.12 C 72.59 112.63 74.01 115.26 75.56 117.82 C 75.08 120.13 74.68 122.45 74.00 124.72 C 73.67 125.08 73.00 125.80 72.66 126.16 C 66.97 130.63 69.78 138.85 73.44 143.74 C 74.10 145.97 74.44 148.42 73.77 150.69 C 72.70 152.78 70.61 154.05 68.89 155.54 C 68.45 153.04 68.40 150.44 67.48 148.05 L 67.20 147.55 C 65.03 144.41 63.48 140.73 60.37 138.37 C 59.17 137.14 58.09 135.80 56.99 134.49 C 59.79 135.43 62.56 136.45 65.35 137.41 C 63.02 134.84 60.36 132.59 57.52 130.60 C 59.04 128.21 60.68 125.76 61.11 122.90 C 61.79 118.16 60.71 113.41 60.07 108.73 C 51.66 108.40 43.24 108.92 34.82 108.69 C 34.33 107.58 33.91 106.45 33.50 105.31 C 33.57 103.50 33.78 101.71 33.94 99.91 C 36.78 102.68 39.59 106.39 43.94 106.48 C 47.99 106.65 52.56 106.51 55.90 103.91 C 59.51 99.86 61.53 94.62 62.76 89.39 L 63.08 88.23 Z" />
<path fill="#56544c" opacity="1.00" d=" M 121.65 102.92 C 121.44 99.59 123.58 96.93 125.69 94.63 C 126.30 96.76 127.05 98.85 127.87 100.91 C 128.26 101.89 128.69 102.86 129.13 103.83 C 132.76 110.34 141.43 107.70 147.47 107.92 C 148.12 107.97 149.40 108.07 150.04 108.12 C 143.48 109.70 136.71 108.16 130.07 108.84 C 129.73 111.81 129.48 114.78 129.05 117.73 C 128.46 121.65 127.41 125.48 126.34 129.29 C 125.69 129.59 124.39 130.18 123.73 130.48 C 122.51 128.89 121.05 127.42 120.37 125.50 C 122.18 118.08 121.62 110.47 121.65 102.92 Z" />
<path fill="#56544c" opacity="1.00" d=" M 122.04 159.95 C 123.06 159.36 124.10 158.79 125.14 158.23 C 125.82 159.49 126.54 160.72 127.27 161.95 C 127.08 165.43 126.96 168.97 126.03 172.35 C 124.26 170.53 122.05 168.85 121.32 166.31 C 120.99 164.17 121.63 162.04 122.04 159.95 Z" />
<path fill="#56544c" opacity="1.00" d=" M 141.88 163.11 C 142.80 163.21 143.71 163.31 144.63 163.41 C 145.45 167.17 147.65 170.31 150.42 172.91 C 146.96 174.79 143.72 177.04 140.68 179.54 C 137.82 178.55 134.93 177.62 131.99 176.90 C 134.34 176.79 136.69 176.54 139.04 176.31 C 138.93 171.74 140.22 167.33 141.88 163.11 M 141.09 168.88 C 140.76 170.27 140.46 171.67 140.17 173.07 C 141.44 172.53 143.24 172.59 143.85 171.10 C 143.15 170.11 142.02 169.58 141.09 168.88 Z" />
<path fill="#56544c" opacity="1.00" d=" M 59.31 168.13 C 59.65 167.79 60.33 167.10 60.67 166.76 C 61.96 170.82 63.11 174.96 63.10 179.25 C 59.38 178.40 57.07 175.30 54.78 172.53 C 56.34 171.12 57.82 169.62 59.31 168.13 Z" />
<path fill="#56544c" opacity="1.00" d=" M 88.80 184.02 C 89.24 180.00 89.26 175.65 91.91 172.33 C 92.54 176.26 92.49 180.25 92.21 184.22 C 91.35 184.17 89.65 184.07 88.80 184.02 Z" />
<path fill="#56544c" opacity="1.00" d=" M 70.85 192.55 C 72.98 191.70 74.83 190.30 76.76 189.08 C 76.90 189.62 77.18 190.69 77.33 191.23 C 78.78 190.92 80.24 190.62 81.70 190.34 C 80.65 191.78 79.70 193.33 78.37 194.55 C 76.27 195.13 74.09 194.41 71.96 194.35 C 69.36 193.94 66.88 194.99 64.46 195.77 C 64.62 197.18 64.76 198.59 64.87 200.02 C 70.58 200.34 76.29 200.39 82.00 200.30 C 101.09 200.27 120.18 200.43 139.26 200.04 C 137.56 200.59 135.80 200.96 134.01 200.88 C 109.69 200.58 85.36 200.89 61.04 200.74 C 61.32 198.56 60.26 195.70 62.05 194.03 C 64.77 192.73 67.96 193.25 70.85 192.55 Z" />
</g>
<g id="#1d190fff">
<path fill="#1d190f" opacity="1.00" d=" M 10.11 61.83 C 15.41 70.41 19.89 79.46 24.73 88.30 C 27.66 93.96 31.18 99.35 33.50 105.31 C 33.91 106.45 34.33 107.58 34.82 108.69 C 38.14 114.97 41.88 121.03 45.98 126.83 C 47.40 126.43 48.83 126.03 50.25 125.63 C 51.48 127.42 52.69 129.22 53.65 131.18 C 54.35 132.84 54.88 134.58 55.79 136.15 C 57.21 137.09 58.83 137.65 60.37 138.37 C 63.48 140.73 65.03 144.41 67.20 147.55 L 67.48 148.05 C 67.16 148.29 66.53 148.77 66.21 149.01 C 66.25 153.45 69.00 156.88 71.27 160.44 C 67.11 161.37 63.41 163.49 60.67 166.76 C 60.33 167.10 59.65 167.79 59.31 168.13 C 59.24 167.42 59.09 165.99 59.02 165.27 C 57.44 166.15 55.87 167.04 54.30 167.95 C 55.79 166.08 57.75 164.39 58.44 162.04 C 58.13 158.27 56.46 154.79 55.35 151.21 C 53.96 151.49 52.57 151.76 51.20 152.10 C 50.08 150.54 48.96 148.99 47.83 147.45 C 49.36 145.55 50.88 143.64 52.44 141.77 C 51.79 140.42 51.20 139.04 50.38 137.79 C 48.17 136.22 44.79 136.24 43.48 133.56 C 34.17 115.93 24.77 98.32 15.14 80.85 C 11.89 75.03 10.66 68.40 10.11 61.83 M 52.49 144.39 C 51.55 145.32 51.32 146.71 50.72 147.85 C 52.49 148.93 54.50 149.01 56.49 148.71 C 56.62 147.45 56.75 146.20 56.88 144.95 C 55.43 144.72 53.97 144.14 52.49 144.39 Z" />
<path fill="#1d190f" opacity="1.00" d=" M 64.57 76.79 C 65.14 82.44 65.24 88.13 65.39 93.81 C 68.25 93.40 71.11 92.99 73.97 92.56 C 84.17 90.73 94.57 90.55 104.90 90.85 C 105.16 88.75 105.41 86.65 105.67 84.55 C 106.93 84.17 108.20 83.78 109.46 83.38 C 107.65 85.49 106.45 88.01 106.49 90.84 C 111.30 91.54 116.03 92.77 120.88 93.17 C 122.95 93.60 124.58 92.31 126.09 91.13 C 125.94 92.29 125.80 93.46 125.69 94.63 C 123.58 96.93 121.44 99.59 121.65 102.92 C 121.62 110.47 122.18 118.08 120.37 125.50 C 120.14 124.86 119.69 123.59 119.46 122.95 C 118.89 121.28 118.34 119.61 117.86 117.92 C 117.46 112.30 119.70 106.97 119.86 101.39 C 119.48 99.38 118.98 97.40 118.51 95.41 C 112.75 94.14 106.90 93.32 101.00 93.25 C 100.59 94.41 100.18 95.57 99.75 96.73 C 96.32 96.46 92.87 96.84 89.57 97.82 C 89.70 96.21 89.94 94.62 90.16 93.03 C 84.73 93.52 79.19 93.57 73.93 95.12 C 71.18 96.47 69.76 99.44 67.85 101.69 C 66.12 99.24 64.44 96.71 63.37 93.89 C 63.39 92.38 63.50 90.87 63.57 89.36 C 64.01 85.18 64.24 80.98 64.57 76.79 Z" />
<path fill="#1d190f" opacity="1.00" d=" M 80.17 94.80 C 82.50 94.41 86.18 95.96 85.26 98.87 C 84.94 102.24 80.11 103.26 78.46 100.33 C 76.66 98.43 78.45 95.97 80.17 94.80 Z" />
<path fill="#1d190f" opacity="1.00" d=" M 103.52 99.91 C 104.27 98.26 105.12 96.65 105.96 95.05 C 108.07 96.63 110.09 98.31 111.96 100.16 C 110.60 100.95 109.25 101.75 107.89 102.55 C 106.43 101.67 104.98 100.79 103.52 99.91 Z" />
<path fill="#1d190f" opacity="1.00" d=" M 68.49 106.43 C 68.76 106.83 69.29 107.61 69.55 108.00 C 69.90 108.53 70.61 109.59 70.96 110.12 C 71.82 115.09 71.90 120.33 69.97 125.09 C 67.79 119.09 68.68 112.66 68.49 106.43 Z" />
<path fill="#1d190f" opacity="1.00" d=" M 109.75 146.56 C 111.37 145.98 112.99 145.40 114.59 144.77 C 115.78 147.34 117.47 149.84 117.69 152.73 C 116.59 155.31 114.57 157.40 113.64 160.06 C 113.33 162.21 113.64 164.39 113.79 166.54 C 115.65 165.16 117.53 163.79 119.29 162.28 C 120.20 161.50 121.10 160.70 122.04 159.95 C 121.63 162.04 120.99 164.17 121.32 166.31 C 122.05 168.85 124.26 170.53 126.03 172.35 C 125.61 173.36 125.18 174.36 124.74 175.35 C 126.35 175.71 127.97 176.06 129.58 176.41 C 126.12 178.75 123.70 182.19 122.26 186.09 C 125.82 190.75 131.64 191.75 136.97 193.06 C 137.51 193.37 138.59 193.99 139.13 194.30 C 139.14 196.21 139.18 198.13 139.26 200.04 C 120.18 200.43 101.09 200.27 82.00 200.30 C 76.29 200.39 70.58 200.34 64.87 200.02 C 64.76 198.59 64.62 197.18 64.46 195.77 C 66.88 194.99 69.36 193.94 71.96 194.35 C 74.09 194.41 76.27 195.13 78.37 194.55 C 79.70 193.33 80.65 191.78 81.70 190.34 C 80.24 190.62 78.78 190.92 77.33 191.23 C 77.18 190.69 76.90 189.62 76.76 189.08 C 78.32 187.91 79.87 186.73 81.42 185.55 C 79.84 182.73 78.13 179.94 77.08 176.87 C 76.06 172.51 77.81 168.19 78.30 163.88 C 78.49 160.89 78.10 157.91 77.87 154.94 L 78.53 155.52 C 80.41 157.20 82.49 159.04 85.19 158.96 C 91.94 159.11 98.11 155.77 104.24 153.37 C 107.32 152.38 108.40 149.15 109.75 146.56 M 98.68 168.06 C 98.07 170.76 101.27 171.81 102.82 173.42 L 102.96 174.54 C 103.39 175.81 103.81 177.08 104.23 178.36 L 103.47 178.73 C 103.52 180.23 103.58 181.73 103.65 183.23 C 103.34 183.32 102.72 183.50 102.41 183.59 C 101.38 182.02 100.36 180.46 99.36 178.87 C 98.41 174.58 98.58 169.96 96.06 166.12 C 95.22 167.61 93.04 168.89 93.71 170.82 C 95.36 176.23 93.84 182.31 97.30 187.17 C 96.91 187.30 96.12 187.57 95.72 187.70 C 97.34 189.58 98.65 192.54 101.51 192.57 C 105.49 192.84 109.47 192.47 113.45 192.60 C 115.12 192.79 116.80 192.99 118.47 193.19 C 117.51 189.80 116.42 186.40 116.16 182.87 C 116.37 180.16 117.41 177.61 118.10 175.00 C 116.00 175.82 113.49 176.24 112.04 178.14 C 112.63 176.53 112.96 174.84 113.35 173.17 L 112.57 173.66 C 111.97 172.08 111.39 170.49 110.82 168.90 L 111.37 168.27 C 111.85 165.75 112.36 163.25 112.92 160.75 C 107.40 156.06 99.34 161.75 98.68 168.06 M 88.80 184.02 C 89.65 184.07 91.35 184.17 92.21 184.22 C 92.49 180.25 92.54 176.26 91.91 172.33 C 89.26 175.65 89.24 180.00 88.80 184.02 Z" />
</g>
<g id="#b8a986ff">
<path fill="#b8a986" opacity="1.00" d=" M 45.53 64.56 C 46.49 62.86 48.32 62.11 50.00 61.33 C 52.25 68.29 52.58 75.66 53.07 82.91 C 53.03 88.01 54.85 92.81 57.19 97.25 C 53.90 100.57 50.13 104.49 45.08 104.38 C 42.81 104.54 42.17 102.07 41.33 100.46 C 38.87 94.27 37.51 87.60 37.66 80.93 C 39.30 75.07 42.16 69.59 45.53 64.56 Z" />
<path fill="#b8a986" opacity="1.00" d=" M 127.87 100.91 C 136.37 100.19 144.63 102.74 152.23 106.35 C 151.49 106.93 150.76 107.52 150.04 108.12 C 149.40 108.07 148.12 107.97 147.47 107.92 C 142.16 104.05 135.50 103.45 129.13 103.83 C 128.69 102.86 128.26 101.89 127.87 100.91 Z" />
<path fill="#b8a986" opacity="1.00" d=" M 75.56 117.82 C 77.30 116.75 79.03 115.67 80.77 114.59 C 83.06 117.63 84.62 121.13 85.45 124.85 C 81.63 124.84 77.82 124.85 74.00 124.72 C 74.68 122.45 75.08 120.13 75.56 117.82 Z" />
<path fill="#b8a986" opacity="1.00" d=" M 53.65 131.18 C 54.62 131.03 56.55 130.74 57.52 130.60 C 60.36 132.59 63.02 134.84 65.35 137.41 C 62.56 136.45 59.79 135.43 56.99 134.49 C 58.09 135.80 59.17 137.14 60.37 138.37 C 58.83 137.65 57.21 137.09 55.79 136.15 C 54.88 134.58 54.35 132.84 53.65 131.18 Z" />
<path fill="#b8a986" opacity="1.00" d=" M 122.51 152.36 C 123.27 151.58 124.04 150.80 124.81 150.02 L 125.74 149.87 C 127.25 152.73 128.14 155.89 129.77 158.68 C 132.49 160.78 135.99 161.62 139.18 162.82 C 135.21 162.53 131.24 162.27 127.27 161.95 C 126.54 160.72 125.82 159.49 125.14 158.23 C 124.16 156.32 123.34 154.34 122.51 152.36 Z" />
<path fill="#b8a986" opacity="1.00" d=" M 99.36 178.87 C 100.36 180.46 101.38 182.02 102.41 183.59 C 102.72 183.50 103.34 183.32 103.65 183.23 C 105.78 182.61 107.91 182.03 110.06 181.46 C 110.79 183.86 111.56 186.26 112.30 188.66 C 108.73 187.46 105.10 186.37 101.37 185.80 C 100.76 183.47 100.04 181.18 99.36 178.87 Z" />
</g>
<g id="#aaa544ff">
<path fill="#aaa544" opacity="1.00" d=" M 133.18 88.74 C 135.48 79.97 134.69 70.51 138.25 62.08 C 139.35 66.18 140.07 70.37 140.35 74.61 C 140.84 82.12 142.14 89.62 141.41 97.17 C 138.17 95.06 135.35 92.39 132.95 89.36 L 133.18 88.74 Z" />
<path fill="#aaa544" opacity="1.00" d=" M 89.57 97.82 C 92.87 96.84 96.32 96.46 99.75 96.73 C 100.65 98.80 101.56 100.86 102.45 102.94 C 102.78 101.92 103.14 100.91 103.52 99.91 C 104.98 100.79 106.43 101.67 107.89 102.55 C 109.25 101.75 110.60 100.95 111.96 100.16 C 114.58 100.66 117.22 101.04 119.86 101.39 C 119.70 106.97 117.46 112.30 117.86 117.92 C 116.44 116.88 115.02 115.83 113.60 114.78 C 111.25 117.71 109.74 121.17 108.96 124.82 C 112.20 125.26 115.46 125.61 118.73 125.86 C 118.91 125.13 119.27 123.68 119.46 122.95 C 119.69 123.59 120.14 124.86 120.37 125.50 C 121.05 127.42 122.51 128.89 123.73 130.48 C 124.39 130.18 125.69 129.59 126.34 129.29 C 127.41 125.48 128.46 121.65 129.05 117.73 C 132.80 120.15 136.96 123.32 137.46 128.11 C 138.03 132.13 139.44 135.98 139.80 140.03 C 140.06 144.63 142.68 148.56 144.07 152.85 C 138.54 149.64 131.97 149.05 125.74 149.87 L 124.81 150.02 C 125.49 148.69 126.49 147.42 126.65 145.90 C 126.15 143.96 125.18 142.18 124.61 140.27 C 125.94 137.72 128.08 135.72 129.93 133.56 C 127.46 133.75 124.82 133.33 122.50 134.33 C 120.43 136.04 119.01 138.37 117.44 140.51 C 110.06 140.28 102.73 139.41 95.43 138.37 C 90.67 137.62 86.00 139.16 81.28 139.28 C 79.72 138.33 79.31 136.26 78.45 134.75 C 77.16 131.50 75.14 128.62 72.66 126.16 C 73.00 125.80 73.67 125.08 74.00 124.72 C 77.82 124.85 81.63 124.84 85.45 124.85 C 84.62 121.13 83.06 117.63 80.77 114.59 C 79.03 115.67 77.30 116.75 75.56 117.82 C 74.01 115.26 72.59 112.63 70.96 110.12 C 70.61 109.59 69.90 108.53 69.55 108.00 C 70.59 106.58 71.33 104.79 72.91 103.87 C 74.81 104.71 76.51 105.92 78.27 107.01 C 84.09 105.62 90.11 105.63 95.93 107.03 C 93.45 104.24 90.88 101.38 89.57 97.82 Z" />
<path fill="#aaa544" opacity="1.00" d=" M 52.49 144.39 C 53.97 144.14 55.43 144.72 56.88 144.95 C 56.75 146.20 56.62 147.45 56.49 148.71 C 54.50 149.01 52.49 148.93 50.72 147.85 C 51.32 146.71 51.55 145.32 52.49 144.39 Z" />
<path fill="#aaa544" opacity="1.00" d=" M 51.20 152.10 C 52.57 151.76 53.96 151.49 55.35 151.21 C 56.46 154.79 58.13 158.27 58.44 162.04 C 57.75 164.39 55.79 166.08 54.30 167.95 C 55.87 167.04 57.44 166.15 59.02 165.27 C 59.09 165.99 59.24 167.42 59.31 168.13 C 57.82 169.62 56.34 171.12 54.78 172.53 C 53.35 173.90 51.19 175.00 49.23 174.08 C 42.54 171.35 38.06 164.63 37.40 157.52 C 42.02 155.78 46.40 153.38 51.20 152.10 Z" />
<path fill="#aaa544" opacity="1.00" d=" M 102.82 173.42 C 101.73 168.75 102.67 162.09 108.59 161.69 C 109.50 163.89 110.44 166.08 111.37 168.27 L 110.82 168.90 C 108.85 171.58 106.08 173.45 102.96 174.54 L 102.82 173.42 Z" />
<path fill="#aaa544" opacity="1.00" d=" M 130.82 181.88 C 133.60 178.45 138.21 181.40 141.41 182.60 C 141.11 186.55 141.74 190.97 139.13 194.30 C 138.59 193.99 137.51 193.37 136.97 193.06 C 133.38 190.68 128.47 186.74 130.82 181.88 Z" />
<path fill="#aaa544" opacity="1.00" d=" M 97.30 187.17 C 98.65 186.70 100.00 186.22 101.37 185.80 C 105.10 186.37 108.73 187.46 112.30 188.66 C 112.69 189.97 113.07 191.28 113.45 192.60 C 109.47 192.47 105.49 192.84 101.51 192.57 C 98.65 192.54 97.34 189.58 95.72 187.70 C 96.12 187.57 96.91 187.30 97.30 187.17 Z" />
</g>
<g id="#d2c298ff">
<path fill="#d2c298" opacity="1.00" d=" M 138.25 62.08 C 140.46 62.88 142.70 63.98 143.89 66.14 C 151.54 77.87 153.85 92.59 152.23 106.35 C 144.63 102.74 136.37 100.19 127.87 100.91 C 127.05 98.85 126.30 96.76 125.69 94.63 C 125.80 93.46 125.94 92.29 126.09 91.13 C 128.17 89.88 130.62 89.73 132.95 89.36 C 135.35 92.39 138.17 95.06 141.41 97.17 C 142.14 89.62 140.84 82.12 140.35 74.61 C 140.07 70.37 139.35 66.18 138.25 62.08 Z" />
<path fill="#d2c298" opacity="1.00" d=" M 108.96 124.82 C 109.74 121.17 111.25 117.71 113.60 114.78 C 115.02 115.83 116.44 116.88 117.86 117.92 C 118.34 119.61 118.89 121.28 119.46 122.95 C 119.27 123.68 118.91 125.13 118.73 125.86 C 115.46 125.61 112.20 125.26 108.96 124.82 Z" />
<path fill="#d2c298" opacity="1.00" d=" M 125.74 149.87 C 131.97 149.05 138.54 149.64 144.07 152.85 C 146.54 155.85 145.02 159.97 144.63 163.41 C 143.71 163.31 142.80 163.21 141.88 163.11 C 140.98 163.02 140.08 162.92 139.18 162.82 C 135.99 161.62 132.49 160.78 129.77 158.68 C 128.14 155.89 127.25 152.73 125.74 149.87 Z" />
</g>
<g id="#7c7e77ff">
<path fill="#7c7e77" opacity="1.00" d=" M 72.72 71.87 C 80.68 69.61 88.60 66.30 97.00 66.51 C 105.89 67.36 114.27 70.69 122.56 73.80 C 124.05 80.01 124.00 86.41 123.53 92.74 C 122.87 92.85 121.54 93.06 120.88 93.17 C 116.03 92.77 111.30 91.54 106.49 90.84 C 106.45 88.01 107.65 85.49 109.46 83.38 C 108.20 83.78 106.93 84.17 105.67 84.55 C 105.41 86.65 105.16 88.75 104.90 90.85 C 94.57 90.55 84.17 90.73 73.97 92.56 C 72.53 89.86 70.88 87.10 70.69 83.96 C 70.43 79.83 71.69 75.82 72.72 71.87 Z" />
<path fill="#7c7e77" opacity="1.00" d=" M 33.94 99.91 C 34.11 93.42 35.44 87.02 37.66 80.93 C 37.51 87.60 38.87 94.27 41.33 100.46 C 42.17 102.07 42.81 104.54 45.08 104.38 C 50.13 104.49 53.90 100.57 57.19 97.25 C 54.85 92.81 53.03 88.01 53.07 82.91 C 53.49 85.22 53.85 87.53 54.21 89.84 C 57.06 89.75 59.91 89.60 62.76 89.39 C 61.53 94.62 59.51 99.86 55.90 103.91 C 52.56 106.51 47.99 106.65 43.94 106.48 C 39.59 106.39 36.78 102.68 33.94 99.91 Z" />
<path fill="#7c7e77" opacity="1.00" d=" M 129.13 103.83 C 135.50 103.45 142.16 104.05 147.47 107.92 C 141.43 107.70 132.76 110.34 129.13 103.83 Z" />
<path fill="#7c7e77" opacity="1.00" d=" M 127.27 161.95 C 131.24 162.27 135.21 162.53 139.18 162.82 C 140.08 162.92 140.98 163.02 141.88 163.11 C 140.22 167.33 138.93 171.74 139.04 176.31 C 136.69 176.54 134.34 176.79 131.99 176.90 C 131.39 176.78 130.18 176.53 129.58 176.41 C 127.97 176.06 126.35 175.71 124.74 175.35 C 125.18 174.36 125.61 173.36 126.03 172.35 C 126.96 168.97 127.08 165.43 127.27 161.95 Z" />
<path fill="#7c7e77" opacity="1.00" d=" M 141.09 168.88 C 142.02 169.58 143.15 170.11 143.85 171.10 C 143.24 172.59 141.44 172.53 140.17 173.07 C 140.46 171.67 140.76 170.27 141.09 168.88 Z" />
<path fill="#7c7e77" opacity="1.00" d=" M 112.57 173.66 L 113.35 173.17 C 112.96 174.84 112.63 176.53 112.04 178.14 C 111.38 179.25 110.72 180.35 110.06 181.46 C 107.91 182.03 105.78 182.61 103.65 183.23 C 103.58 181.73 103.52 180.23 103.47 178.73 L 104.23 178.36 C 107.12 176.99 109.90 175.40 112.57 173.66 Z" />
</g>
<g id="#6d6a26ff">
<path fill="#6d6a26" opacity="1.00" d=" M 73.93 95.12 C 79.19 93.57 84.73 93.52 90.16 93.03 C 89.94 94.62 89.70 96.21 89.57 97.82 C 90.88 101.38 93.45 104.24 95.93 107.03 C 90.11 105.63 84.09 105.62 78.27 107.01 C 76.51 105.92 74.81 104.71 72.91 103.87 C 71.33 104.79 70.59 106.58 69.55 108.00 C 69.29 107.61 68.76 106.83 68.49 106.43 C 66.01 102.65 62.72 98.74 63.37 93.89 C 64.44 96.71 66.12 99.24 67.85 101.69 C 69.76 99.44 71.18 96.47 73.93 95.12 M 80.17 94.80 C 78.45 95.97 76.66 98.43 78.46 100.33 C 80.11 103.26 84.94 102.24 85.26 98.87 C 86.18 95.96 82.50 94.41 80.17 94.80 Z" />
<path fill="#6d6a26" opacity="1.00" d=" M 101.00 93.25 C 106.90 93.32 112.75 94.14 118.51 95.41 C 118.98 97.40 119.48 99.38 119.86 101.39 C 117.22 101.04 114.58 100.66 111.96 100.16 C 110.09 98.31 108.07 96.63 105.96 95.05 C 105.12 96.65 104.27 98.26 103.52 99.91 C 103.14 100.91 102.78 101.92 102.45 102.94 C 101.56 100.86 100.65 98.80 99.75 96.73 C 100.18 95.57 100.59 94.41 101.00 93.25 Z" />
<path fill="#6d6a26" opacity="1.00" d=" M 73.44 143.74 C 69.78 138.85 66.97 130.63 72.66 126.16 C 75.14 128.62 77.16 131.50 78.45 134.75 C 79.31 136.26 79.72 138.33 81.28 139.28 C 86.00 139.16 90.67 137.62 95.43 138.37 C 102.73 139.41 110.06 140.28 117.44 140.51 C 119.01 138.37 120.43 136.04 122.50 134.33 C 124.82 133.33 127.46 133.75 129.93 133.56 C 128.08 135.72 125.94 137.72 124.61 140.27 C 125.18 142.18 126.15 143.96 126.65 145.90 C 126.49 147.42 125.49 148.69 124.81 150.02 C 124.04 150.80 123.27 151.58 122.51 152.36 C 123.34 154.34 124.16 156.32 125.14 158.23 C 124.10 158.79 123.06 159.36 122.04 159.95 C 121.10 160.70 120.20 161.50 119.29 162.28 C 119.02 160.26 118.51 158.24 118.68 156.19 C 119.49 153.16 121.72 150.76 122.75 147.82 C 122.97 145.59 122.20 143.41 121.82 141.23 C 119.44 142.48 117.07 143.73 114.59 144.77 C 112.99 145.40 111.37 145.98 109.75 146.56 C 108.40 149.15 107.32 152.38 104.24 153.37 C 98.11 155.77 91.94 159.11 85.19 158.96 C 82.49 159.04 80.41 157.20 78.53 155.52 C 78.62 152.47 79.32 149.12 77.85 146.29 C 76.46 145.31 74.90 144.61 73.44 143.74 Z" />
<path fill="#6d6a26" opacity="1.00" d=" M 98.68 168.06 C 99.34 161.75 107.40 156.06 112.92 160.75 C 112.36 163.25 111.85 165.75 111.37 168.27 C 110.44 166.08 109.50 163.89 108.59 161.69 C 102.67 162.09 101.73 168.75 102.82 173.42 C 101.27 171.81 98.07 170.76 98.68 168.06 Z" />
<path fill="#6d6a26" opacity="1.00" d=" M 102.96 174.54 C 106.08 173.45 108.85 171.58 110.82 168.90 C 111.39 170.49 111.97 172.08 112.57 173.66 C 109.90 175.40 107.12 176.99 104.23 178.36 C 103.81 177.08 103.39 175.81 102.96 174.54 Z" />
<path fill="#6d6a26" opacity="1.00" d=" M 129.58 176.41 C 130.18 176.53 131.39 176.78 131.99 176.90 C 134.93 177.62 137.82 178.55 140.68 179.54 C 140.86 180.30 141.23 181.83 141.41 182.60 C 138.21 181.40 133.60 178.45 130.82 181.88 C 128.47 186.74 133.38 190.68 136.97 193.06 C 131.64 191.75 125.82 190.75 122.26 186.09 C 123.70 182.19 126.12 178.75 129.58 176.41 Z" />
</g>
</svg>
