<?xml version="1.0" encoding="UTF-8" ?>
<!DOCTYPE svg PUBLIC "-//W3C//DTD SVG 1.1//EN" "http://www.w3.org/Graphics/SVG/1.1/DTD/svg11.dtd">
<svg width="155pt" height="210pt" viewBox="0 0 155 210" version="1.1" xmlns="http://www.w3.org/2000/svg">
<g id="#7b7e77ff">
<path fill="#7b7e77" opacity="1.00" d=" M 75.60 55.73 C 81.54 54.48 87.48 56.30 93.18 57.84 C 99.31 59.71 105.62 61.49 111.07 64.94 C 111.24 71.55 111.21 78.16 110.77 84.75 C 104.25 83.91 97.74 83.03 91.26 81.97 C 91.44 79.16 92.30 76.47 94.51 74.59 C 93.29 74.57 92.07 74.54 90.86 74.51 C 90.56 76.99 90.27 79.46 89.98 81.93 C 77.67 81.24 65.38 82.29 53.21 84.11 C 51.82 84.00 50.43 83.88 49.04 83.73 C 48.14 77.53 48.21 71.27 48.23 65.02 L 48.23 64.23 C 57.08 60.63 66.21 57.59 75.60 55.73 Z" />
<path fill="#7b7e77" opacity="1.00" d=" M 105.14 150.57 C 106.01 149.34 106.89 148.13 107.79 146.93 C 109.46 149.65 110.91 152.49 112.22 155.40 C 112.90 156.70 113.53 158.39 115.15 158.71 C 118.46 159.53 121.91 159.35 125.28 159.67 C 126.97 160.04 128.66 160.41 130.36 160.73 C 130.19 160.94 129.84 161.36 129.66 161.57 C 127.57 165.65 126.73 170.24 126.33 174.77 C 121.14 174.80 115.96 174.35 110.83 173.57 C 111.27 172.19 111.90 170.85 112.03 169.39 C 111.32 168.19 110.40 167.13 109.54 166.03 C 109.97 165.37 110.41 164.72 110.85 164.07 C 110.45 161.81 110.33 159.51 110.37 157.21 C 108.60 155.02 106.74 152.89 105.14 150.57 Z" />
<path fill="#7b7e77" opacity="1.00" d=" M 129.22 166.36 C 130.37 167.43 131.45 168.57 132.45 169.79 C 130.96 169.82 129.46 169.85 127.97 169.87 C 128.38 168.69 128.80 167.53 129.22 166.36 Z" />
<path fill="#7b7e77" opacity="1.00" d=" M 32.69 193.72 C 36.00 194.15 39.50 193.86 42.63 195.18 C 43.46 196.61 44.00 198.17 44.62 199.70 C 45.16 199.76 46.24 199.89 46.78 199.95 C 56.83 200.83 66.93 200.13 77.01 200.35 C 92.40 200.15 107.80 200.77 123.18 199.99 C 123.83 199.95 125.12 199.86 125.77 199.82 C 125.94 197.49 126.13 195.17 126.32 192.85 L 126.86 193.50 C 126.95 195.90 126.77 198.30 126.70 200.70 C 101.13 200.81 75.56 200.62 50.00 200.79 C 43.60 201.11 37.05 198.39 32.69 193.72 Z" />
</g>
<g id="#5a4b2dff">
<path fill="#5a4b2d" opacity="1.00" d=" M 45.87 66.86 C 46.62 66.20 47.41 65.59 48.23 65.02 C 48.21 71.27 48.14 77.53 49.04 83.73 C 50.43 83.88 51.82 84.00 53.21 84.11 C 51.23 84.37 49.26 84.66 47.29 84.96 C 47.39 80.51 47.09 76.08 46.50 71.68 C 45.89 76.37 45.18 81.17 46.00 85.89 C 46.47 88.70 48.63 90.75 50.26 92.93 C 51.62 90.94 52.85 88.87 53.98 86.74 C 60.78 85.36 67.65 84.39 74.57 83.86 C 74.20 85.58 73.70 87.27 73.33 88.99 C 74.57 88.54 75.81 88.07 77.07 87.66 C 75.82 88.91 74.38 90.16 73.86 91.93 C 75.39 94.65 77.58 96.92 79.62 99.26 C 78.95 99.16 77.60 98.95 76.93 98.85 C 76.50 98.79 75.65 98.67 75.23 98.61 C 72.35 98.21 69.48 97.81 66.60 97.46 C 67.33 96.02 68.07 94.59 68.73 93.12 C 68.85 91.53 68.98 89.90 68.59 88.33 C 67.24 87.30 65.65 86.62 64.00 86.25 C 62.37 87.94 61.50 90.18 60.38 92.21 C 57.74 94.64 54.03 96.53 50.38 95.65 C 47.63 94.56 44.90 92.18 44.71 89.04 C 44.45 86.03 44.81 83.02 45.06 80.02 C 45.66 75.66 45.05 71.19 45.87 66.86 Z" />
<path fill="#5a4b2d" opacity="1.00" d=" M 85.03 83.93 C 92.59 85.02 101.62 83.82 107.48 89.71 C 108.56 89.29 109.64 88.87 110.71 88.43 C 112.87 90.63 114.56 93.22 115.98 95.95 C 116.65 97.19 117.38 98.39 118.11 99.59 C 116.78 103.38 116.66 107.42 116.09 111.35 C 114.72 116.11 114.45 121.94 109.95 124.97 C 108.66 123.54 107.37 122.11 106.06 120.70 C 105.77 119.41 105.42 118.13 105.08 116.85 C 104.54 114.77 103.85 112.74 103.29 110.67 C 103.56 104.41 106.07 98.46 106.02 92.14 C 104.39 92.26 102.76 92.37 101.14 92.55 C 99.61 92.74 98.08 92.99 96.58 93.35 C 96.31 91.63 96.02 89.91 95.74 88.19 C 94.04 87.89 92.34 87.58 90.65 87.26 C 89.92 88.53 89.19 89.80 88.47 91.07 C 88.25 91.45 88.03 91.83 87.82 92.22 C 85.25 88.82 81.28 87.28 77.07 87.66 C 79.96 87.34 82.86 87.71 85.69 88.26 C 85.47 86.82 85.25 85.37 85.03 83.93 Z" />
<path fill="#5a4b2d" opacity="1.00" d=" M 41.20 100.00 C 44.68 100.66 48.42 100.72 51.34 98.42 C 51.43 98.71 51.61 99.30 51.71 99.59 C 50.15 105.76 50.41 112.22 52.21 118.30 C 52.96 115.22 53.68 112.12 54.04 108.96 C 55.22 110.03 56.42 111.09 57.60 112.17 C 57.35 113.52 57.10 114.86 56.84 116.21 C 55.56 119.51 52.95 122.05 51.53 125.26 C 51.15 130.53 54.08 135.24 56.04 139.94 C 56.22 142.15 56.58 144.49 55.82 146.64 C 54.66 148.37 52.73 149.38 51.08 150.59 C 50.55 147.51 50.33 144.39 50.20 141.28 C 49.02 141.74 47.84 142.20 46.66 142.66 C 46.09 140.38 45.52 138.10 44.94 135.82 C 42.17 134.48 39.38 133.16 36.59 131.86 C 35.79 132.68 34.99 133.49 34.18 134.29 C 33.42 133.89 31.90 133.08 31.14 132.68 C 32.47 131.32 33.69 129.81 35.29 128.76 C 39.34 128.73 43.07 130.60 46.79 132.00 C 44.53 129.37 42.31 126.72 40.11 124.05 C 43.52 116.42 42.54 107.98 41.20 100.00 Z" />
<path fill="#5a4b2d" opacity="1.00" d=" M 8.03 114.03 C 10.97 114.08 14.46 113.23 16.93 115.27 C 17.30 119.47 16.98 123.74 17.94 127.88 C 18.55 131.26 20.25 134.26 21.64 137.35 C 22.11 138.44 22.54 139.56 22.98 140.67 C 26.75 138.02 31.06 135.41 35.88 136.12 C 39.53 136.23 42.35 138.95 44.10 141.93 C 46.48 145.74 47.88 150.40 46.95 154.89 C 46.35 158.15 43.37 160.07 41.09 162.15 C 41.79 157.79 43.38 153.29 42.12 148.88 C 41.32 146.30 40.17 143.72 38.28 141.75 C 34.47 140.20 30.37 141.81 26.55 142.53 C 26.44 143.40 26.35 144.27 26.28 145.14 C 26.94 148.13 29.67 149.74 32.01 151.33 C 32.30 149.40 32.56 147.47 32.83 145.55 C 31.87 144.93 30.90 144.31 29.92 143.70 C 33.29 142.85 37.85 142.84 39.36 146.66 C 42.24 151.07 39.36 155.92 38.17 160.33 C 37.37 162.38 38.86 164.28 39.73 166.03 C 41.17 166.75 42.64 167.37 44.10 168.03 C 45.55 174.94 47.04 182.06 51.16 187.95 C 55.53 185.75 60.54 186.56 65.12 185.16 C 63.49 181.11 61.07 177.32 60.24 173.00 C 59.95 167.84 61.67 162.82 61.59 157.67 C 61.49 151.69 63.59 145.17 59.89 139.83 C 62.93 140.06 65.92 140.66 68.92 141.16 C 69.11 144.82 68.19 149.13 70.67 152.21 C 73.80 155.30 78.43 153.06 81.92 151.87 C 88.35 148.98 96.38 148.45 100.78 142.27 C 102.23 145.04 103.57 147.86 105.14 150.57 C 106.74 152.89 108.60 155.02 110.37 157.21 C 110.33 159.51 110.45 161.81 110.85 164.07 C 110.41 164.72 109.97 165.37 109.54 166.03 C 110.40 167.13 111.32 168.19 112.03 169.39 C 111.90 170.85 111.27 172.19 110.83 173.57 C 115.96 174.35 121.14 174.80 126.33 174.77 C 126.73 170.24 127.57 165.65 129.66 161.57 C 129.84 161.36 130.19 160.94 130.36 160.73 C 133.10 158.25 132.94 154.29 133.39 150.92 C 134.03 155.33 131.97 159.93 133.82 164.15 C 135.28 166.74 137.68 168.67 139.17 171.26 C 135.24 172.58 131.83 174.95 128.90 177.84 C 124.61 176.86 119.98 175.19 115.65 176.80 C 112.32 179.39 110.58 185.69 114.35 188.63 C 118.06 190.73 122.42 191.20 126.32 192.85 C 126.13 195.17 125.94 197.49 125.77 199.82 C 125.12 199.86 123.83 199.95 123.18 199.99 C 122.95 198.49 122.72 197.00 122.48 195.50 C 117.64 194.18 113.11 191.84 108.19 190.84 C 104.46 192.90 101.38 196.11 97.16 197.29 C 93.82 196.43 90.54 195.36 87.22 194.44 C 81.82 193.01 76.24 194.18 70.77 194.34 C 67.07 194.45 63.34 195.09 60.15 197.07 C 59.48 195.94 59.20 194.21 57.68 193.96 C 54.17 193.11 50.52 193.21 46.94 193.05 C 46.88 195.35 46.82 197.65 46.78 199.95 C 46.24 199.89 45.16 199.76 44.62 199.70 C 44.00 198.17 43.46 196.61 42.63 195.18 C 39.50 193.86 36.00 194.15 32.69 193.72 C 32.42 193.63 31.87 193.44 31.59 193.34 C 30.75 190.76 30.55 188.00 29.59 185.45 C 28.29 184.19 26.60 183.46 25.06 182.56 C 25.03 181.90 24.97 180.58 24.94 179.92 C 29.23 179.16 33.66 178.45 37.56 176.44 C 39.30 174.16 40.32 170.72 38.80 168.08 C 37.64 165.84 36.69 163.49 36.15 161.02 C 34.89 164.26 33.61 167.49 32.46 170.78 C 27.18 170.92 21.91 170.68 16.66 170.09 C 16.63 168.23 16.58 166.37 16.52 164.52 C 14.49 163.23 11.94 162.08 11.48 159.45 C 8.72 150.25 8.67 140.50 8.77 130.98 C 8.78 125.30 6.27 119.68 8.03 114.03 M 99.97 152.83 C 98.48 155.98 99.20 159.64 99.10 163.01 C 100.44 163.14 101.79 163.28 103.13 163.43 C 105.69 159.64 105.49 155.20 104.36 150.96 C 102.88 151.54 101.36 152.04 99.97 152.83 M 91.46 157.30 C 87.62 158.21 83.92 161.00 83.30 165.09 C 82.95 168.17 86.38 169.45 88.24 171.21 L 88.64 172.34 C 88.76 173.45 88.88 174.55 88.99 175.67 C 88.33 175.90 87.01 176.37 86.35 176.61 C 87.60 178.47 88.58 180.55 88.48 182.85 C 87.99 183.17 87.02 183.81 86.53 184.13 C 85.75 180.54 83.11 177.42 83.53 173.60 C 83.67 170.37 83.00 167.14 81.64 164.22 C 79.49 162.90 78.30 165.87 77.52 167.43 C 77.47 169.68 78.92 171.71 78.89 173.98 C 78.90 176.16 78.42 178.32 78.62 180.50 C 79.38 182.30 80.76 183.74 81.93 185.29 C 80.91 186.85 79.86 188.40 78.80 189.94 C 85.38 192.16 92.48 192.59 99.26 191.01 C 99.90 192.77 102.47 191.86 103.92 192.26 C 103.55 189.00 102.89 185.79 102.33 182.56 C 101.55 179.27 103.77 176.38 104.91 173.48 C 102.55 173.63 100.26 174.26 98.05 175.08 C 98.21 174.57 98.52 173.54 98.68 173.03 C 97.33 170.44 95.73 167.85 96.39 164.78 C 97.05 161.91 96.68 158.93 96.65 156.02 C 94.94 156.39 92.84 156.06 91.46 157.30 M 101.84 163.60 C 101.53 166.16 101.67 168.77 102.50 171.22 C 102.77 168.66 102.66 166.06 101.84 163.60 M 129.22 166.36 C 128.80 167.53 128.38 168.69 127.97 169.87 C 129.46 169.85 130.96 169.82 132.45 169.79 C 131.45 168.57 130.37 167.43 129.22 166.36 Z" />
</g>
<g id="#0e0d09ff">
<path fill="#0e0d09" opacity="1.00" d=" M 111.07 64.94 C 113.86 69.43 112.53 74.98 112.83 79.97 C 112.80 82.50 112.74 85.03 112.65 87.56 C 112.17 87.77 111.20 88.21 110.71 88.43 C 109.64 88.87 108.56 89.29 107.48 89.71 C 101.62 83.82 92.59 85.02 85.03 83.93 C 85.25 85.37 85.47 86.82 85.69 88.26 C 82.86 87.71 79.96 87.34 77.07 87.66 C 75.81 88.07 74.57 88.54 73.33 88.99 C 73.70 87.27 74.20 85.58 74.57 83.86 C 67.65 84.39 60.78 85.36 53.98 86.74 C 52.85 88.87 51.62 90.94 50.26 92.93 C 48.63 90.75 46.47 88.70 46.00 85.89 C 45.18 81.17 45.89 76.37 46.50 71.68 C 47.09 76.08 47.39 80.51 47.29 84.96 C 49.26 84.66 51.23 84.37 53.21 84.11 C 65.38 82.29 77.67 81.24 89.98 81.93 C 90.27 79.46 90.56 76.99 90.86 74.51 C 92.07 74.54 93.29 74.57 94.51 74.59 C 92.30 76.47 91.44 79.16 91.26 81.97 C 97.74 83.03 104.25 83.91 110.77 84.75 C 111.21 78.16 111.24 71.55 111.07 64.94 Z" />
<path fill="#0e0d09" opacity="1.00" d=" M 64.00 86.25 C 65.65 86.62 67.24 87.30 68.59 88.33 C 68.98 89.90 68.85 91.53 68.73 93.12 C 65.89 93.65 63.02 93.38 60.38 92.21 C 61.50 90.18 62.37 87.94 64.00 86.25 Z" />
<path fill="#0e0d09" opacity="1.00" d=" M 90.65 87.26 C 92.34 87.58 94.04 87.89 95.74 88.19 C 96.02 89.91 96.31 91.63 96.58 93.35 C 96.18 93.46 95.36 93.67 94.95 93.78 C 92.40 94.14 90.39 92.47 88.47 91.07 C 89.19 89.80 89.92 88.53 90.65 87.26 Z" />
<path fill="#0e0d09" opacity="1.00" d=" M 52.21 118.30 C 50.41 112.22 50.15 105.76 51.71 99.59 C 52.68 102.66 53.58 105.77 54.04 108.96 C 53.68 112.12 52.96 115.22 52.21 118.30 Z" />
<path fill="#0e0d09" opacity="1.00" d=" M 36.59 131.86 C 39.38 133.16 42.17 134.48 44.94 135.82 C 45.52 138.10 46.09 140.38 46.66 142.66 C 47.84 142.20 49.02 141.74 50.20 141.28 C 50.33 144.39 50.55 147.51 51.08 150.59 C 51.49 152.71 52.11 154.78 52.72 156.86 C 47.35 158.19 43.12 161.80 39.73 166.03 C 38.86 164.28 37.37 162.38 38.17 160.33 C 39.36 155.92 42.24 151.07 39.36 146.66 C 37.85 142.84 33.29 142.85 29.92 143.70 C 28.70 144.15 27.48 144.63 26.28 145.14 C 26.35 144.27 26.44 143.40 26.55 142.53 C 30.37 141.81 34.47 140.20 38.28 141.75 C 40.17 143.72 41.32 146.30 42.12 148.88 C 43.38 153.29 41.79 157.79 41.09 162.15 C 43.37 160.07 46.35 158.15 46.95 154.89 C 47.88 150.40 46.48 145.74 44.10 141.93 C 42.35 138.95 39.53 136.23 35.88 136.12 C 31.06 135.41 26.75 138.02 22.98 140.67 C 22.54 139.56 22.11 138.44 21.64 137.35 C 23.00 137.39 24.36 137.50 25.72 137.56 C 26.95 136.59 28.18 135.62 29.31 134.54 C 29.94 133.93 30.54 133.31 31.14 132.68 C 31.90 133.08 33.42 133.89 34.18 134.29 C 34.99 133.49 35.79 132.68 36.59 131.86 Z" />
<path fill="#0e0d09" opacity="1.00" d=" M 97.16 197.29 C 101.38 196.11 104.46 192.90 108.19 190.84 C 113.11 191.84 117.64 194.18 122.48 195.50 C 122.72 197.00 122.95 198.49 123.18 199.99 C 107.80 200.77 92.40 200.15 77.01 200.35 C 66.93 200.13 56.83 200.83 46.78 199.95 C 46.82 197.65 46.88 195.35 46.94 193.05 C 50.52 193.21 54.17 193.11 57.68 193.96 C 59.20 194.21 59.48 195.94 60.15 197.07 C 63.34 195.09 67.07 194.45 70.77 194.34 C 76.24 194.18 81.82 193.01 87.22 194.44 C 90.54 195.36 93.82 196.43 97.16 197.29 Z" />
</g>
<g id="#827f30ff">
<path fill="#827f30" opacity="1.00" d=" M 13.16 77.75 C 12.10 76.21 13.62 73.75 15.47 74.47 C 19.53 75.84 23.61 77.16 27.80 78.09 C 32.61 79.11 37.54 81.31 42.48 79.71 L 43.14 79.58 C 43.62 79.69 44.58 79.91 45.06 80.02 C 44.81 83.02 44.45 86.03 44.71 89.04 C 44.90 92.18 47.63 94.56 50.38 95.65 C 54.03 96.53 57.74 94.64 60.38 92.21 C 63.02 93.38 65.89 93.65 68.73 93.12 C 68.07 94.59 67.33 96.02 66.60 97.46 C 69.48 97.81 72.35 98.21 75.23 98.61 C 70.15 99.92 65.42 102.60 62.66 107.19 C 61.19 109.05 59.66 110.86 58.13 112.66 L 57.60 112.17 C 56.42 111.09 55.22 110.03 54.04 108.96 C 53.58 105.77 52.68 102.66 51.71 99.59 C 51.61 99.30 51.43 98.71 51.34 98.42 C 48.42 100.72 44.68 100.66 41.20 100.00 C 34.10 99.14 28.74 93.88 23.58 89.41 C 19.93 85.71 15.72 82.34 13.16 77.75 Z" />
<path fill="#827f30" opacity="1.00" d=" M 137.49 75.25 C 137.83 75.12 138.51 74.85 138.85 74.72 C 139.30 75.71 139.75 76.70 140.20 77.69 L 139.29 77.85 C 131.79 79.05 124.23 81.41 118.17 86.12 C 115.00 88.34 115.52 92.62 115.98 95.95 C 114.56 93.22 112.87 90.63 110.71 88.43 C 111.20 88.21 112.17 87.77 112.65 87.56 C 116.65 85.33 119.64 81.53 124.05 80.01 C 128.51 78.36 133.09 77.06 137.49 75.25 Z" />
<path fill="#827f30" opacity="1.00" d=" M 77.07 87.66 C 81.28 87.28 85.25 88.82 87.82 92.22 C 88.03 91.83 88.25 91.45 88.47 91.07 C 90.39 92.47 92.40 94.14 94.95 93.78 C 93.47 94.34 92.02 94.97 90.56 95.60 C 92.49 97.06 94.28 99.36 96.92 99.29 C 99.77 98.40 100.05 94.88 101.14 92.55 C 102.76 92.37 104.39 92.26 106.02 92.14 C 106.07 98.46 103.56 104.41 103.29 110.67 C 101.83 109.78 100.37 108.87 98.92 107.98 C 97.83 109.94 96.72 111.89 95.77 113.93 C 92.98 105.85 85.79 99.10 76.93 98.85 C 77.60 98.95 78.95 99.16 79.62 99.26 C 77.58 96.92 75.39 94.65 73.86 91.93 C 74.38 90.16 75.82 88.91 77.07 87.66 Z" />
<path fill="#827f30" opacity="1.00" d=" M 51.53 125.26 C 52.95 122.05 55.56 119.51 56.84 116.21 C 58.82 120.63 64.67 120.76 67.15 124.76 C 68.68 126.47 69.71 129.23 72.35 129.42 C 77.16 130.18 82.06 129.71 86.89 130.21 C 91.78 130.66 96.45 132.28 101.06 133.86 C 103.15 129.65 105.14 125.34 106.06 120.70 C 107.37 122.11 108.66 123.54 109.95 124.97 C 110.21 125.27 110.73 125.86 110.99 126.15 C 114.07 126.81 117.15 127.44 120.24 128.02 C 117.37 129.82 114.00 131.25 112.01 134.12 C 110.63 136.82 113.54 139.19 114.22 141.71 C 112.93 142.95 111.28 143.71 109.70 144.53 C 108.88 141.74 108.03 138.95 107.16 136.17 C 104.93 138.09 102.76 140.08 100.78 142.27 C 96.38 148.45 88.35 148.98 81.92 151.87 C 78.43 153.06 73.80 155.30 70.67 152.21 C 68.19 149.13 69.11 144.82 68.92 141.16 C 65.92 140.66 62.93 140.06 59.89 139.83 C 58.60 139.84 57.32 139.88 56.04 139.94 C 54.08 135.24 51.15 130.53 51.53 125.26 Z" />
<path fill="#827f30" opacity="1.00" d=" M 83.30 165.09 C 83.92 161.00 87.62 158.21 91.46 157.30 C 89.74 159.86 87.95 162.46 87.00 165.42 C 86.64 167.41 87.72 169.33 88.24 171.21 C 86.38 169.45 82.95 168.17 83.30 165.09 Z" />
<path fill="#827f30" opacity="1.00" d=" M 32.46 170.78 C 33.61 167.49 34.89 164.26 36.15 161.02 C 36.69 163.49 37.64 165.84 38.80 168.08 C 40.32 170.72 39.30 174.16 37.56 176.44 C 33.66 178.45 29.23 179.16 24.94 179.92 C 20.30 179.02 17.53 174.44 16.66 170.09 C 21.91 170.68 27.18 170.92 32.46 170.78 Z" />
<path fill="#827f30" opacity="1.00" d=" M 88.64 172.34 C 92.51 171.48 95.33 168.56 96.39 164.78 C 95.73 167.85 97.33 170.44 98.68 173.03 C 98.52 173.54 98.21 174.57 98.05 175.08 C 97.32 177.43 95.99 179.82 96.58 182.35 C 97.17 185.32 98.21 188.17 99.26 191.01 C 92.48 192.59 85.38 192.16 78.80 189.94 C 79.86 188.40 80.91 186.85 81.93 185.29 C 83.20 185.06 84.48 184.84 85.76 184.62 C 89.64 185.31 93.47 186.25 97.25 187.38 C 96.24 184.87 95.29 182.34 94.36 179.81 C 92.34 180.70 90.33 181.63 88.48 182.85 C 88.58 180.55 87.60 178.47 86.35 176.61 C 87.01 176.37 88.33 175.90 88.99 175.67 C 88.88 174.55 88.76 173.45 88.64 172.34 Z" />
<path fill="#827f30" opacity="1.00" d=" M 115.65 176.80 C 119.98 175.19 124.61 176.86 128.90 177.84 C 129.13 182.96 131.19 189.57 126.86 193.50 L 126.32 192.85 C 122.42 191.20 118.06 190.73 114.35 188.63 C 110.58 185.69 112.32 179.39 115.65 176.80 Z" />
</g>
<g id="#b2ad46ff">
<path fill="#b2ad46" opacity="1.00" d=" M 15.47 74.47 C 24.72 73.27 34.05 76.11 42.48 79.71 C 37.54 81.31 32.61 79.11 27.80 78.09 C 23.61 77.16 19.53 75.84 15.47 74.47 Z" />
<path fill="#b2ad46" opacity="1.00" d=" M 112.83 79.97 C 120.74 77.37 128.97 73.45 137.49 75.25 C 133.09 77.06 128.51 78.36 124.05 80.01 C 119.64 81.53 116.65 85.33 112.65 87.56 C 112.74 85.03 112.80 82.50 112.83 79.97 Z" />
<path fill="#b2ad46" opacity="1.00" d=" M 118.17 86.12 C 124.23 81.41 131.79 79.05 139.29 77.85 C 137.19 83.15 132.83 86.97 128.96 90.96 C 125.73 94.29 122.14 97.27 118.11 99.59 C 117.38 98.39 116.65 97.19 115.98 95.95 C 115.52 92.62 115.00 88.34 118.17 86.12 Z" />
<path fill="#b2ad46" opacity="1.00" d=" M 96.58 93.35 C 98.08 92.99 99.61 92.74 101.14 92.55 C 100.05 94.88 99.77 98.40 96.92 99.29 C 94.28 99.36 92.49 97.06 90.56 95.60 C 92.02 94.97 93.47 94.34 94.95 93.78 C 95.36 93.67 96.18 93.46 96.58 93.35 Z" />
<path fill="#b2ad46" opacity="1.00" d=" M 62.66 107.19 C 65.42 102.60 70.15 99.92 75.23 98.61 C 75.65 98.67 76.50 98.79 76.93 98.85 C 85.79 99.10 92.98 105.85 95.77 113.93 C 95.57 115.53 95.38 117.13 95.19 118.73 C 98.46 119.11 101.72 119.49 104.99 119.84 C 105.01 119.09 105.05 117.60 105.08 116.85 C 105.42 118.13 105.77 119.41 106.06 120.70 C 105.14 125.34 103.15 129.65 101.06 133.86 C 96.45 132.28 91.78 130.66 86.89 130.21 C 82.06 129.71 77.16 130.18 72.35 129.42 C 69.71 129.23 68.68 126.47 67.15 124.76 C 64.67 120.76 58.82 120.63 56.84 116.21 C 57.10 114.86 57.35 113.52 57.60 112.17 L 58.13 112.66 C 60.98 115.51 64.46 117.63 68.27 118.95 C 67.60 114.55 65.75 110.42 62.66 107.19 Z" />
<path fill="#b2ad46" opacity="1.00" d=" M 109.95 124.97 C 114.45 121.94 114.72 116.11 116.09 111.35 C 118.42 112.80 120.78 114.35 122.46 116.57 C 125.22 119.78 124.70 124.31 125.95 128.14 C 127.04 131.56 127.28 135.15 127.76 138.69 C 128.83 142.08 130.75 145.15 131.50 148.66 C 125.30 145.53 118.01 144.10 111.43 146.98 C 112.93 148.81 114.47 150.62 116.04 152.39 C 115.62 153.35 115.19 154.31 114.78 155.28 C 118.26 156.78 121.72 158.35 125.28 159.67 C 121.91 159.35 118.46 159.53 115.15 158.71 C 113.53 158.39 112.90 156.70 112.22 155.40 C 110.91 152.49 109.46 149.65 107.79 146.93 C 108.42 146.12 109.06 145.32 109.70 144.53 C 111.28 143.71 112.93 142.95 114.22 141.71 C 113.54 139.19 110.63 136.82 112.01 134.12 C 114.00 131.25 117.37 129.82 120.24 128.02 C 117.15 127.44 114.07 126.81 110.99 126.15 C 110.73 125.86 110.21 125.27 109.95 124.97 Z" />
<path fill="#b2ad46" opacity="1.00" d=" M 32.48 125.40 C 34.93 124.52 37.57 124.48 40.11 124.05 C 42.31 126.72 44.53 129.37 46.79 132.00 C 43.07 130.60 39.34 128.73 35.29 128.76 C 33.69 129.81 32.47 131.32 31.14 132.68 C 30.54 133.31 29.94 133.93 29.31 134.54 C 29.85 131.40 29.99 127.70 32.48 125.40 Z" />
<path fill="#b2ad46" opacity="1.00" d=" M 26.28 145.14 C 27.48 144.63 28.70 144.15 29.92 143.70 C 30.90 144.31 31.87 144.93 32.83 145.55 C 32.56 147.47 32.30 149.40 32.01 151.33 C 29.67 149.74 26.94 148.13 26.28 145.14 Z" />
<path fill="#b2ad46" opacity="1.00" d=" M 91.46 157.30 C 92.84 156.06 94.94 156.39 96.65 156.02 C 96.68 158.93 97.05 161.91 96.39 164.78 C 95.33 168.56 92.51 171.48 88.64 172.34 L 88.24 171.21 C 87.72 169.33 86.64 167.41 87.00 165.42 C 87.95 162.46 89.74 159.86 91.46 157.30 Z" />
</g>
<g id="#d5c59aff">
<path fill="#d5c59a" opacity="1.00" d=" M 58.13 112.66 C 59.66 110.86 61.19 109.05 62.66 107.19 C 65.75 110.42 67.60 114.55 68.27 118.95 C 64.46 117.63 60.98 115.51 58.13 112.66 Z" />
<path fill="#d5c59a" opacity="1.00" d=" M 98.92 107.98 C 100.37 108.87 101.83 109.78 103.29 110.67 C 103.85 112.74 104.54 114.77 105.08 116.85 C 105.05 117.60 105.01 119.09 104.99 119.84 C 101.72 119.49 98.46 119.11 95.19 118.73 C 95.38 117.13 95.57 115.53 95.77 113.93 C 96.72 111.89 97.83 109.94 98.92 107.98 Z" />
<path fill="#d5c59a" opacity="1.00" d=" M 111.43 146.98 C 118.01 144.10 125.30 145.53 131.50 148.66 C 132.24 149.32 132.87 150.07 133.39 150.92 C 132.94 154.29 133.10 158.25 130.36 160.73 C 128.66 160.41 126.97 160.04 125.28 159.67 C 121.72 158.35 118.26 156.78 114.78 155.28 C 115.19 154.31 115.62 153.35 116.04 152.39 C 114.47 150.62 112.93 148.81 111.43 146.98 Z" />
<path fill="#d5c59a" opacity="1.00" d=" M 101.84 163.60 C 102.66 166.06 102.77 168.66 102.50 171.22 C 101.67 168.77 101.53 166.16 101.84 163.60 Z" />
<path fill="#d5c59a" opacity="1.00" d=" M 88.48 182.85 C 90.33 181.63 92.34 180.70 94.36 179.81 C 95.29 182.34 96.24 184.87 97.25 187.38 C 93.47 186.25 89.64 185.31 85.76 184.62 L 86.53 184.13 C 87.02 183.81 87.99 183.17 88.48 182.85 Z" />
</g>
</svg>
