<?xml version="1.0" encoding="UTF-8" ?>
<!DOCTYPE svg PUBLIC "-//W3C//DTD SVG 1.1//EN" "http://www.w3.org/Graphics/SVG/1.1/DTD/svg11.dtd">
<svg width="155pt" height="210pt" viewBox="0 0 155 210" version="1.1" xmlns="http://www.w3.org/2000/svg">
<g id="#262b2bff">
<path fill="#262b2b" opacity="1.00" d=" M 76.29 47.27 C 84.11 40.40 93.85 34.12 104.73 35.05 C 104.56 36.58 104.39 38.11 104.23 39.65 C 110.86 41.30 117.64 43.51 122.83 48.16 C 134.00 58.28 140.29 73.12 141.33 88.02 C 141.83 99.69 141.37 111.63 137.82 122.83 C 137.32 125.07 134.26 126.13 132.53 124.59 C 128.77 121.31 126.47 116.74 123.00 113.18 C 121.84 111.88 120.66 110.60 119.48 109.31 C 118.09 110.91 116.68 112.48 115.25 114.05 C 113.99 109.89 113.27 105.49 111.21 101.62 C 109.12 98.58 105.58 97.06 102.64 95.00 C 103.66 97.53 104.71 100.07 105.84 102.56 C 103.72 104.33 101.63 107.69 98.40 106.67 C 94.98 105.88 94.95 101.77 94.11 99.04 C 92.67 99.42 91.22 99.80 89.78 100.17 C 89.40 97.86 89.21 95.53 88.92 93.21 C 90.03 90.99 91.50 88.80 91.70 86.26 C 90.31 82.96 86.49 81.92 83.75 80.04 C 80.27 77.29 76.54 74.87 72.64 72.75 C 72.16 76.13 71.28 79.52 71.56 82.95 C 72.57 86.45 75.62 88.90 76.94 92.26 C 77.34 94.36 77.07 96.51 77.00 98.63 C 75.19 98.74 73.39 98.85 71.59 98.97 C 69.63 101.27 67.30 106.17 63.71 103.56 C 60.33 100.63 63.04 95.89 64.23 92.50 C 62.91 93.24 61.59 93.95 60.27 94.67 C 60.30 93.53 60.34 92.40 60.38 91.27 C 58.73 91.27 57.09 91.27 55.44 91.28 C 55.49 96.01 55.28 100.74 54.77 105.45 C 51.46 100.19 49.28 94.34 47.49 88.42 C 46.09 83.64 47.56 78.58 50.09 74.46 C 50.47 75.65 50.87 76.83 51.29 78.00 C 52.59 75.39 53.83 72.76 55.02 70.10 C 53.94 70.71 52.85 71.33 51.79 71.98 C 50.44 70.01 49.10 68.04 47.76 66.07 C 50.35 64.42 53.02 62.62 56.18 62.39 C 58.77 61.75 62.12 62.32 63.90 59.90 C 67.62 55.30 71.67 50.98 76.29 47.27 M 58.28 80.04 C 57.11 82.59 55.96 85.15 54.87 87.74 C 57.92 86.36 60.64 84.40 63.24 82.32 C 61.57 81.60 59.91 80.85 58.28 80.04 Z" />
<path fill="#262b2b" opacity="1.00" d=" M 78.94 132.02 C 80.35 131.82 81.76 131.62 83.17 131.42 C 83.97 132.91 84.78 134.39 85.58 135.88 C 86.72 134.60 87.86 133.33 89.00 132.06 C 89.87 135.33 90.65 138.63 91.41 141.93 C 90.18 142.85 88.96 143.79 87.71 144.69 C 84.38 140.76 81.43 136.52 78.94 132.02 Z" />
<path fill="#262b2b" opacity="1.00" d=" M 76.75 168.70 C 80.78 168.91 84.81 168.83 88.84 168.82 C 89.01 170.05 89.18 171.29 89.34 172.52 C 89.45 173.68 89.48 174.85 89.54 176.01 C 88.22 177.00 86.99 178.10 85.75 179.19 C 89.90 179.85 94.03 180.83 98.27 180.71 C 98.18 182.06 98.10 183.41 98.01 184.76 C 93.51 186.09 89.21 188.56 87.53 193.21 C 83.57 193.72 79.60 193.36 75.68 192.72 C 75.67 187.88 75.58 183.04 75.52 178.21 C 75.54 175.00 76.11 171.83 76.75 168.70 Z" />
</g>
<g id="#40413dff">
<path fill="#40413d" opacity="1.00" d=" M 51.79 71.98 C 52.85 71.33 53.94 70.71 55.02 70.10 C 53.83 72.76 52.59 75.39 51.29 78.00 C 50.87 76.83 50.47 75.65 50.09 74.46 C 50.29 73.44 50.80 72.44 51.79 71.98 Z" />
<path fill="#40413d" opacity="1.00" d=" M 83.75 80.04 C 86.49 81.92 90.31 82.96 91.70 86.26 C 91.50 88.80 90.03 90.99 88.92 93.21 C 88.42 88.43 86.36 84.01 83.75 80.04 Z" />
<path fill="#40413d" opacity="1.00" d=" M 102.64 95.00 C 105.58 97.06 109.12 98.58 111.21 101.62 C 113.27 105.49 113.99 109.89 115.25 114.05 C 112.49 114.01 113.04 117.07 112.60 118.95 C 107.63 116.31 102.81 113.39 97.97 110.52 C 101.33 109.42 104.43 107.71 107.28 105.63 C 106.79 104.61 106.31 103.58 105.84 102.56 C 104.71 100.07 103.66 97.53 102.64 95.00 Z" />
<path fill="#40413d" opacity="1.00" d=" M 66.51 128.84 C 72.08 129.64 77.67 130.24 83.17 131.42 C 81.76 131.62 80.35 131.82 78.94 132.02 C 81.43 136.52 84.38 140.76 87.71 144.69 C 84.40 146.26 81.36 143.69 78.66 142.06 C 77.91 143.70 77.17 145.34 76.40 146.97 C 75.57 148.74 74.71 150.50 73.85 152.27 C 76.93 153.08 80.01 153.88 83.08 154.74 C 82.98 157.84 83.54 160.91 84.52 163.84 C 87.50 162.37 90.51 160.96 93.64 159.82 L 94.44 159.98 C 94.54 160.37 94.75 161.15 94.85 161.54 C 93.06 162.96 91.02 164.04 89.04 165.19 C 89.45 167.96 89.71 170.76 89.49 173.57 L 89.34 172.52 C 89.18 171.29 89.01 170.05 88.84 168.82 C 84.81 168.83 80.78 168.91 76.75 168.70 C 74.09 168.19 71.57 167.14 69.06 166.12 C 67.60 165.51 66.15 164.89 64.70 164.26 C 63.69 162.82 63.25 160.65 61.51 159.91 C 60.25 160.46 59.09 161.22 57.93 161.98 C 57.07 161.70 56.22 161.43 55.36 161.15 C 56.98 157.49 56.10 153.47 56.53 149.62 C 56.87 146.34 57.42 143.08 57.60 139.78 L 57.74 140.49 C 58.85 146.45 60.43 152.32 62.42 158.05 C 66.61 152.38 69.90 146.13 73.35 140.00 C 71.49 137.58 70.16 134.24 67.08 133.17 C 63.46 134.88 60.68 137.86 57.74 140.49 C 58.37 135.23 63.36 132.53 66.51 128.84 Z" />
<path fill="#40413d" opacity="1.00" d=" M 46.49 173.22 C 48.19 171.50 49.86 169.76 51.46 167.96 C 54.65 168.95 57.85 169.89 61.03 170.88 C 62.41 171.31 63.79 171.76 65.16 172.21 C 64.06 174.33 63.07 176.50 62.06 178.67 C 60.59 178.71 59.11 178.73 57.64 178.74 C 57.09 177.75 56.59 176.70 55.83 175.84 C 53.71 175.29 51.50 175.32 49.35 175.02 C 48.36 174.47 47.41 173.87 46.49 173.22 Z" />
<path fill="#40413d" opacity="1.00" d=" M 89.54 176.01 C 90.81 175.54 92.14 175.26 93.46 174.94 C 95.91 181.16 103.32 180.77 108.29 183.74 C 111.96 185.61 113.08 190.06 113.30 193.85 C 111.69 197.15 107.87 198.50 104.62 199.62 C 89.17 204.21 72.90 204.06 56.94 203.70 C 48.62 203.53 40.46 201.78 32.38 199.93 L 32.32 199.05 C 32.20 197.13 32.07 195.22 31.95 193.31 C 30.63 192.10 29.33 190.89 28.03 189.67 C 33.44 187.72 38.99 190.08 44.34 191.10 C 44.56 188.02 44.73 184.94 45.08 181.88 C 49.84 184.91 55.54 184.86 60.71 182.98 C 61.53 185.84 61.99 188.96 63.72 191.45 C 67.56 192.71 71.71 192.16 75.68 192.72 C 79.60 193.36 83.57 193.72 87.53 193.21 C 89.21 188.56 93.51 186.09 98.01 184.76 C 98.10 183.41 98.18 182.06 98.27 180.71 C 94.03 180.83 89.90 179.85 85.75 179.19 C 86.99 178.10 88.22 177.00 89.54 176.01 Z" />
</g>
<g id="#ac824cff">
<path fill="#ac824c" opacity="1.00" d=" M 72.64 72.75 C 76.54 74.87 80.27 77.29 83.75 80.04 C 86.36 84.01 88.42 88.43 88.92 93.21 C 89.21 95.53 89.40 97.86 89.78 100.17 C 90.68 104.78 93.85 108.43 97.97 110.52 C 102.81 113.39 107.63 116.31 112.60 118.95 C 111.52 122.36 109.98 125.81 107.01 127.99 C 101.95 132.03 95.09 131.60 89.00 132.06 C 87.86 133.33 86.72 134.60 85.58 135.88 C 84.78 134.39 83.97 132.91 83.17 131.42 C 77.67 130.24 72.08 129.64 66.51 128.84 C 61.56 127.91 57.28 124.15 55.63 119.40 C 54.57 116.15 54.78 112.68 54.77 109.31 C 51.23 109.23 47.27 109.08 44.61 106.40 C 40.77 102.65 38.23 96.25 41.20 91.26 C 42.37 88.91 45.30 89.01 47.49 88.42 C 49.28 94.34 51.46 100.19 54.77 105.45 C 55.28 100.74 55.49 96.01 55.44 91.28 C 57.09 91.27 58.73 91.27 60.38 91.27 C 60.34 92.40 60.30 93.53 60.27 94.67 C 61.59 93.95 62.91 93.24 64.23 92.50 C 63.04 95.89 60.33 100.63 63.71 103.56 C 67.30 106.17 69.63 101.27 71.59 98.97 C 73.39 98.85 75.19 98.74 77.00 98.63 C 77.07 96.51 77.34 94.36 76.94 92.26 C 75.62 88.90 72.57 86.45 71.56 82.95 C 71.28 79.52 72.16 76.13 72.64 72.75 M 67.60 120.40 C 70.32 124.13 75.42 123.85 79.50 123.37 C 83.55 122.72 88.22 122.82 91.28 119.66 C 83.60 118.09 75.87 116.34 68.06 115.65 C 65.11 115.56 66.62 118.97 67.60 120.40 Z" />
<path fill="#ac824c" opacity="1.00" d=" M 58.28 80.04 C 59.91 80.85 61.57 81.60 63.24 82.32 C 60.64 84.40 57.92 86.36 54.87 87.74 C 55.96 85.15 57.11 82.59 58.28 80.04 Z" />
<path fill="#ac824c" opacity="1.00" d=" M 119.48 109.31 C 120.66 110.60 121.84 111.88 123.00 113.18 C 120.40 114.43 117.54 114.97 114.65 114.72 L 115.25 114.05 C 116.68 112.48 118.09 110.91 119.48 109.31 Z" />
<path fill="#ac824c" opacity="1.00" d=" M 93.78 143.55 C 96.51 142.33 99.70 144.81 101.05 147.17 C 102.15 152.44 99.10 158.53 93.64 159.82 C 90.51 160.96 87.50 162.37 84.52 163.84 C 83.54 160.91 82.98 157.84 83.08 154.74 C 80.01 153.88 76.93 153.08 73.85 152.27 C 74.71 150.50 75.57 148.74 76.40 146.97 C 77.86 146.54 79.31 146.11 80.76 145.68 C 80.57 147.53 80.38 149.38 80.21 151.23 C 85.25 149.68 89.68 146.80 93.78 143.55 Z" />
<path fill="#ac824c" opacity="1.00" d=" M 64.70 164.26 C 66.15 164.89 67.60 165.51 69.06 166.12 C 67.67 168.09 66.31 170.09 65.16 172.21 C 63.79 171.76 62.41 171.31 61.03 170.88 C 62.24 168.67 63.45 166.45 64.70 164.26 Z" />
<path fill="#ac824c" opacity="1.00" d=" M 45.08 181.88 C 49.22 178.16 55.05 179.92 60.04 180.00 C 60.21 180.74 60.54 182.23 60.71 182.98 C 55.54 184.86 49.84 184.91 45.08 181.88 Z" />
</g>
<g id="#827e75ff">
<path fill="#827e75" opacity="1.00" d=" M 89.78 100.17 C 91.22 99.80 92.67 99.42 94.11 99.04 C 94.95 101.77 94.98 105.88 98.40 106.67 C 101.63 107.69 103.72 104.33 105.84 102.56 C 106.31 103.58 106.79 104.61 107.28 105.63 C 104.43 107.71 101.33 109.42 97.97 110.52 C 93.85 108.43 90.68 104.78 89.78 100.17 Z" />
<path fill="#827e75" opacity="1.00" d=" M 67.60 120.40 C 66.62 118.97 65.11 115.56 68.06 115.65 C 75.87 116.34 83.60 118.09 91.28 119.66 C 88.22 122.82 83.55 122.72 79.50 123.37 C 75.42 123.85 70.32 124.13 67.60 120.40 Z" />
<path fill="#827e75" opacity="1.00" d=" M 49.35 175.02 C 51.50 175.32 53.71 175.29 55.83 175.84 C 56.59 176.70 57.09 177.75 57.64 178.74 C 59.11 178.73 60.59 178.71 62.06 178.67 C 66.55 178.53 71.04 178.32 75.52 178.21 C 75.58 183.04 75.67 187.88 75.68 192.72 C 71.71 192.16 67.56 192.71 63.72 191.45 C 61.99 188.96 61.53 185.84 60.71 182.98 C 60.54 182.23 60.21 180.74 60.04 180.00 C 55.05 179.92 49.22 178.16 45.08 181.88 C 44.73 184.94 44.56 188.02 44.34 191.10 C 38.99 190.08 33.44 187.72 28.03 189.67 C 29.33 190.89 30.63 192.10 31.95 193.31 C 32.07 195.22 32.20 197.13 32.32 199.05 C 30.14 198.41 27.28 198.13 26.23 195.76 C 26.02 193.10 25.83 190.23 26.81 187.71 C 30.54 181.94 37.98 181.53 44.02 180.06 C 46.70 179.65 48.03 177.08 49.35 175.02 Z" />
</g>
<g id="#c5a820ff">
<path fill="#c5a820" opacity="1.00" d=" M 57.74 140.49 C 60.68 137.86 63.46 134.88 67.08 133.17 C 70.16 134.24 71.49 137.58 73.35 140.00 C 69.90 146.13 66.61 152.38 62.42 158.05 C 60.43 152.32 58.85 146.45 57.74 140.49 Z" />
<path fill="#c5a820" opacity="1.00" d=" M 78.66 142.06 C 81.36 143.69 84.40 146.26 87.71 144.69 C 88.96 143.79 90.18 142.85 91.41 141.93 C 92.00 142.33 93.19 143.14 93.78 143.55 C 89.68 146.80 85.25 149.68 80.21 151.23 C 80.38 149.38 80.57 147.53 80.76 145.68 C 79.31 146.11 77.86 146.54 76.40 146.97 C 77.17 145.34 77.91 143.70 78.66 142.06 Z" />
<path fill="#c5a820" opacity="1.00" d=" M 61.51 159.91 C 63.25 160.65 63.69 162.82 64.70 164.26 C 63.45 166.45 62.24 168.67 61.03 170.88 C 57.85 169.89 54.65 168.95 51.46 167.96 C 53.34 165.68 55.46 163.60 57.93 161.98 C 59.09 161.22 60.25 160.46 61.51 159.91 Z" />
</g>
</svg>
