<?xml version="1.0" encoding="UTF-8" ?>
<!DOCTYPE svg PUBLIC "-//W3C//DTD SVG 1.1//EN" "http://www.w3.org/Graphics/SVG/1.1/DTD/svg11.dtd">
<svg width="155pt" height="210pt" viewBox="0 0 155 210" version="1.1" xmlns="http://www.w3.org/2000/svg">
<g id="#393a48fe">
<path fill="#393a48" opacity="1.00" d=" M 81.12 34.01 C 81.66 34.14 82.76 34.39 83.30 34.52 C 85.52 39.81 88.10 45.02 89.09 50.73 C 92.55 52.11 96.05 53.81 98.10 57.09 C 92.16 52.96 85.12 50.19 77.81 50.13 C 73.48 50.11 70.12 53.34 67.03 55.99 C 68.71 52.80 71.64 50.66 74.23 48.28 C 78.84 48.31 83.45 48.51 88.05 48.88 C 86.26 43.91 84.15 39.06 81.42 34.54 L 81.12 34.01 Z" />
<path fill="#393a48" opacity="1.00" d=" M 51.56 88.82 C 51.93 88.64 52.65 88.28 53.02 88.09 C 59.38 88.75 65.78 88.40 72.16 88.33 C 71.00 88.73 69.84 89.13 68.66 89.47 C 65.31 89.70 61.97 90.09 58.66 90.65 C 59.37 96.82 59.52 103.03 59.83 109.22 C 67.88 109.04 76.11 109.78 83.26 113.80 C 81.75 115.77 80.40 117.97 78.35 119.44 C 74.06 120.08 69.85 118.44 65.87 117.05 C 65.52 116.77 64.84 116.20 64.49 115.92 C 64.78 114.08 65.07 112.24 65.34 110.40 C 63.30 110.50 61.24 110.57 59.23 110.95 C 57.35 112.82 56.78 115.55 55.80 117.93 C 54.05 118.77 52.30 119.59 50.54 120.42 C 50.99 121.42 51.45 122.42 51.90 123.43 C 53.68 126.80 54.45 130.76 53.09 134.42 C 52.50 134.49 51.32 134.62 50.74 134.68 C 49.68 134.75 48.62 134.81 47.56 134.87 C 47.13 133.10 46.71 131.34 46.30 129.57 C 48.12 124.74 47.96 119.53 48.17 114.46 C 51.41 113.02 54.91 111.84 57.60 109.44 C 57.74 102.25 56.13 94.57 51.56 88.82 Z" />
<path fill="#393a48" opacity="1.00" d=" M 99.88 117.02 C 105.30 115.58 111.22 114.61 116.68 116.43 C 114.93 121.57 112.99 126.67 111.60 131.92 C 111.31 133.82 111.14 135.73 110.91 137.63 C 110.47 140.74 109.55 143.74 108.77 146.77 C 108.44 144.30 108.25 141.82 108.17 139.33 C 106.69 141.01 105.20 142.69 103.68 144.34 C 103.86 142.87 104.06 141.40 104.17 139.93 C 104.96 134.37 98.81 131.11 98.32 125.81 C 98.11 122.88 97.89 119.43 99.88 117.02 M 107.71 133.60 C 111.60 132.94 110.65 128.23 111.16 125.39 C 109.57 127.92 108.36 130.68 107.71 133.60 Z" />
<path fill="#393a48" opacity="1.00" d=" M 89.00 122.88 L 89.62 122.39 C 91.06 122.26 92.89 124.53 91.06 125.37 C 89.61 125.26 88.93 124.43 89.00 122.88 Z" />
<path fill="#393a48" opacity="1.00" d=" M 58.07 131.64 C 58.51 131.37 58.96 131.09 59.40 130.82 C 61.02 133.10 62.69 135.35 64.42 137.55 C 62.38 137.15 60.38 136.54 58.37 135.99 C 56.41 140.45 56.31 146.37 60.33 149.73 C 64.60 152.74 69.98 150.90 74.36 149.16 C 74.30 148.51 74.19 147.22 74.14 146.58 C 71.95 146.25 69.76 145.90 67.58 145.50 C 70.19 143.77 73.26 143.31 76.23 144.33 C 77.46 143.90 78.68 143.44 79.90 142.98 C 81.38 143.38 82.90 143.78 84.45 143.75 C 85.39 142.38 86.13 140.88 86.90 139.41 C 88.12 139.29 89.34 139.19 90.57 139.10 C 90.86 141.14 91.16 143.18 91.46 145.23 C 94.12 145.01 96.78 144.81 99.44 144.65 C 99.73 142.57 100.02 140.49 100.33 138.41 C 101.33 144.34 104.80 149.30 107.65 154.45 C 105.36 163.72 104.97 174.07 98.55 181.70 C 98.20 181.18 97.50 180.13 97.15 179.61 C 101.97 171.73 102.96 162.25 103.29 153.21 C 98.01 155.19 92.50 156.50 87.40 158.93 C 88.91 161.61 91.02 164.03 91.98 166.99 C 91.83 168.72 91.09 170.34 90.48 171.95 C 88.65 169.33 87.04 166.38 84.37 164.50 C 82.03 163.74 79.52 164.18 77.10 164.18 C 76.85 163.87 76.33 163.25 76.07 162.94 C 76.36 162.72 76.94 162.28 77.23 162.06 C 78.82 161.79 80.42 161.57 81.96 161.09 C 82.82 157.26 83.12 153.33 83.88 149.48 C 81.18 149.76 78.29 149.58 75.79 150.78 C 72.99 153.14 74.15 157.23 74.13 160.44 C 70.89 159.33 67.59 158.12 64.12 158.13 C 62.65 159.95 61.71 162.12 60.62 164.17 C 63.24 163.46 65.83 162.67 68.49 162.12 C 67.58 163.27 66.68 164.42 65.79 165.59 C 64.50 165.82 63.21 166.08 61.94 166.36 C 60.99 165.48 59.92 164.71 59.17 163.65 C 59.03 161.79 59.72 159.84 58.98 158.06 C 57.70 158.10 56.43 158.25 55.16 158.39 C 54.43 157.43 53.71 156.48 52.98 155.53 C 52.59 155.87 51.81 156.53 51.42 156.87 C 50.86 155.06 50.28 153.25 49.52 151.51 C 47.46 148.25 46.79 144.45 47.06 140.63 C 49.77 140.50 52.51 140.22 55.05 139.19 C 56.66 136.95 57.52 134.32 58.07 131.64 Z" />
<path fill="#393a48" opacity="1.00" d=" M 65.09 142.06 C 68.29 140.14 71.59 138.39 75.04 136.97 C 74.00 141.62 68.87 141.51 65.09 142.06 Z" />
<path fill="#393a48" opacity="1.00" d=" M 118.32 140.47 C 119.89 139.24 121.83 138.69 123.73 138.20 C 123.38 140.97 122.98 143.75 122.17 146.43 C 121.96 146.90 121.54 147.86 121.33 148.33 C 120.88 153.84 118.52 159.12 119.05 164.71 C 119.02 167.55 120.41 170.08 121.10 172.77 C 121.23 174.57 120.75 176.35 120.49 178.13 C 120.23 175.55 119.79 173.00 119.39 170.45 C 118.87 170.42 117.84 170.36 117.32 170.33 C 116.95 172.01 116.58 173.68 116.21 175.36 C 115.18 174.75 114.14 174.15 113.10 173.55 C 111.58 162.18 116.07 151.40 118.32 140.47 Z" />
<path fill="#393a48" opacity="1.00" d=" M 37.47 152.19 L 38.57 152.39 C 38.41 153.98 38.34 155.57 38.31 157.16 C 38.30 158.88 38.29 160.68 38.96 162.30 C 40.77 163.63 42.94 164.32 44.99 165.20 C 45.88 163.53 46.76 161.86 47.75 160.25 C 48.03 165.85 48.53 171.44 48.98 177.03 C 49.06 179.53 50.52 181.61 51.81 183.65 C 51.54 183.98 51.02 184.65 50.76 184.99 C 54.66 184.92 58.56 184.81 62.46 184.86 C 68.54 185.18 74.66 185.38 80.69 184.39 C 78.78 182.83 76.82 181.32 74.85 179.82 C 73.91 178.73 71.93 177.69 72.44 175.98 C 72.91 173.61 73.74 171.34 74.33 169.00 C 74.60 167.81 74.84 166.62 75.09 165.44 C 76.20 166.63 77.40 167.76 78.28 169.14 C 78.23 170.95 77.67 172.69 77.30 174.45 C 79.48 174.25 81.66 174.06 83.84 173.82 C 82.81 175.33 81.77 176.83 80.73 178.34 C 81.91 179.40 83.10 180.48 84.33 181.49 C 88.04 185.42 93.89 187.61 99.00 185.03 C 99.35 184.92 100.05 184.70 100.40 184.59 C 106.22 185.51 111.84 187.55 117.75 187.89 C 117.46 188.75 117.17 189.61 116.87 190.48 C 115.98 190.31 115.09 190.15 114.19 189.99 C 114.02 190.66 113.66 191.99 113.48 192.65 C 87.68 192.71 61.87 192.70 36.08 192.68 C 33.49 193.09 32.66 190.23 32.47 188.23 C 34.32 182.98 42.60 186.31 43.82 180.69 C 44.73 175.47 44.66 169.98 43.21 164.86 C 41.64 165.01 40.07 165.16 38.50 165.31 C 37.35 161.03 37.37 156.58 37.47 152.19 Z" />
</g>
<g id="#87c0efff">
<path fill="#87c0ef" opacity="1.00" d=" M 81.42 34.54 C 84.15 39.06 86.26 43.91 88.05 48.88 C 83.45 48.51 78.84 48.31 74.23 48.28 C 75.00 43.07 78.16 38.53 81.42 34.54 Z" />
<path fill="#87c0ef" opacity="1.00" d=" M 60.94 60.08 C 63.04 58.81 64.97 57.30 67.03 55.99 C 66.34 56.93 65.70 57.90 65.04 58.87 C 70.26 58.25 75.84 56.85 80.88 59.03 C 85.69 61.22 89.92 65.14 91.77 70.18 C 93.35 74.82 93.93 79.72 94.85 84.52 C 95.42 87.34 95.08 90.22 94.60 93.03 C 85.96 91.78 77.36 90.22 68.66 89.47 C 69.84 89.13 71.00 88.73 72.16 88.33 C 65.78 88.40 59.38 88.75 53.02 88.09 C 49.95 81.94 49.95 74.87 47.33 68.56 C 45.67 71.58 44.01 74.61 42.22 77.56 C 42.38 72.63 44.21 67.24 48.61 64.55 C 52.52 62.52 57.13 62.33 60.94 60.08 Z" />
<path fill="#87c0ef" opacity="1.00" d=" M 104.99 66.28 C 105.36 65.96 106.10 65.31 106.47 64.99 C 110.59 68.27 116.26 70.98 117.19 76.73 C 118.19 82.84 119.72 89.04 118.86 95.27 C 114.77 95.21 110.64 95.43 106.60 94.71 C 106.45 89.43 108.26 84.28 108.04 78.98 C 108.17 74.54 106.77 70.29 104.99 66.28 Z" />
<path fill="#87c0ef" opacity="1.00" d=" M 42.07 128.60 C 43.48 128.93 44.89 129.26 46.30 129.57 C 46.71 131.34 47.13 133.10 47.56 134.87 C 48.62 134.81 49.68 134.75 50.74 134.68 C 49.80 136.12 48.87 137.55 47.94 138.99 C 50.31 139.04 52.68 139.10 55.05 139.19 C 52.51 140.22 49.77 140.50 47.06 140.63 C 46.79 144.45 47.46 148.25 49.52 151.51 C 47.01 154.05 43.41 153.80 40.15 153.44 C 39.51 154.67 38.89 155.90 38.31 157.16 C 38.34 155.57 38.41 153.98 38.57 152.39 C 39.38 150.25 40.96 148.37 41.14 146.03 C 41.53 140.22 40.52 134.30 42.07 128.60 Z" />
<path fill="#87c0ef" opacity="1.00" d=" M 61.94 166.36 C 63.21 166.08 64.50 165.82 65.79 165.59 C 68.74 166.44 71.55 167.70 74.33 169.00 C 73.74 171.34 72.91 173.61 72.44 175.98 C 71.93 177.69 73.91 178.73 74.85 179.82 C 70.93 179.56 65.02 178.62 63.29 183.26 C 63.09 183.66 62.67 184.46 62.46 184.86 C 58.56 184.81 54.66 184.92 50.76 184.99 C 51.02 184.65 51.54 183.98 51.81 183.65 C 53.99 180.84 55.93 177.85 57.60 174.71 C 59.06 171.93 60.54 169.17 61.94 166.36 Z" />
</g>
<g id="#dad3a4ff">
<path fill="#dad3a4" opacity="1.00" d=" M 139.20 40.61 C 140.63 40.28 140.87 42.72 139.80 43.28 C 138.36 43.61 138.13 41.17 139.20 40.61 Z" />
<path fill="#dad3a4" opacity="1.00" d=" M 67.03 55.99 C 70.12 53.34 73.48 50.11 77.81 50.13 C 85.12 50.19 92.16 52.96 98.10 57.09 C 100.97 59.64 103.56 62.48 106.47 64.99 C 106.10 65.31 105.36 65.96 104.99 66.28 C 106.77 70.29 108.17 74.54 108.04 78.98 C 108.26 84.28 106.45 89.43 106.60 94.71 C 110.64 95.43 114.77 95.21 118.86 95.27 C 120.52 95.28 122.18 95.36 123.84 95.44 C 123.40 100.80 121.37 106.24 123.32 111.55 C 121.75 111.38 120.17 111.30 118.59 111.21 C 117.95 112.95 117.31 114.69 116.68 116.43 C 111.22 114.61 105.30 115.58 99.88 117.02 C 97.89 119.43 98.11 122.88 98.32 125.81 C 98.81 131.11 104.96 134.37 104.17 139.93 C 104.06 141.40 103.86 142.87 103.68 144.34 C 105.20 142.69 106.69 141.01 108.17 139.33 C 108.25 141.82 108.44 144.30 108.77 146.77 C 108.51 149.35 108.16 151.91 107.65 154.45 C 104.80 149.30 101.33 144.34 100.33 138.41 C 100.02 140.49 99.73 142.57 99.44 144.65 C 96.87 138.68 95.54 132.26 92.74 126.39 C 90.74 126.55 88.75 126.71 86.76 126.87 C 86.80 126.29 86.86 125.13 86.90 124.54 C 87.42 124.13 88.48 123.30 89.00 122.88 C 88.93 124.43 89.61 125.26 91.06 125.37 C 92.89 124.53 91.06 122.26 89.62 122.39 C 89.99 122.08 90.73 121.46 91.11 121.15 C 88.54 120.94 85.91 120.35 83.35 120.88 C 80.72 121.85 78.63 123.81 76.39 125.43 C 76.30 124.38 76.20 123.33 76.11 122.29 C 72.33 121.36 68.65 119.86 65.87 117.05 C 69.85 118.44 74.06 120.08 78.35 119.44 C 80.40 117.97 81.75 115.77 83.26 113.80 C 76.11 109.78 67.88 109.04 59.83 109.22 C 59.52 103.03 59.37 96.82 58.66 90.65 C 61.97 90.09 65.31 89.70 68.66 89.47 C 77.36 90.22 85.96 91.78 94.60 93.03 C 95.08 90.22 95.42 87.34 94.85 84.52 C 93.93 79.72 93.35 74.82 91.77 70.18 C 89.92 65.14 85.69 61.22 80.88 59.03 C 75.84 56.85 70.26 58.25 65.04 58.87 C 65.70 57.90 66.34 56.93 67.03 55.99 Z" />
<path fill="#dad3a4" opacity="1.00" d=" M 59.23 110.95 C 61.24 110.57 63.30 110.50 65.34 110.40 C 65.07 112.24 64.78 114.08 64.49 115.92 C 60.01 117.90 55.83 120.49 51.90 123.43 C 51.45 122.42 50.99 121.42 50.54 120.42 C 52.30 119.59 54.05 118.77 55.80 117.93 C 56.78 115.55 57.35 112.82 59.23 110.95 Z" />
<path fill="#dad3a4" opacity="1.00" d=" M 107.71 133.60 C 108.36 130.68 109.57 127.92 111.16 125.39 C 110.65 128.23 111.60 132.94 107.71 133.60 Z" />
<path fill="#dad3a4" opacity="1.00" d=" M 53.09 134.42 C 54.80 133.59 56.43 132.61 58.07 131.64 C 57.52 134.32 56.66 136.95 55.05 139.19 C 52.68 139.10 50.31 139.04 47.94 138.99 C 48.87 137.55 49.80 136.12 50.74 134.68 C 51.32 134.62 52.50 134.49 53.09 134.42 Z" />
<path fill="#dad3a4" opacity="1.00" d=" M 110.91 137.63 C 111.14 135.73 111.31 133.82 111.60 131.92 C 111.90 133.11 112.20 134.30 112.51 135.49 C 117.57 136.17 122.61 136.99 127.61 138.01 C 126.92 140.72 126.26 143.45 125.26 146.07 L 124.73 146.83 C 124.09 146.73 122.81 146.53 122.17 146.43 C 122.98 143.75 123.38 140.97 123.73 138.20 C 121.83 138.69 119.89 139.24 118.32 140.47 C 115.85 139.51 113.39 138.55 110.91 137.63 Z" />
<path fill="#dad3a4" opacity="1.00" d=" M 64.42 137.55 C 68.21 136.86 71.91 135.63 75.79 135.51 C 75.82 137.18 75.80 138.85 75.81 140.52 C 77.16 141.36 78.52 142.19 79.90 142.98 C 78.68 143.44 77.46 143.90 76.23 144.33 C 73.26 143.31 70.19 143.77 67.58 145.50 C 69.76 145.90 71.95 146.25 74.14 146.58 C 74.19 147.22 74.30 148.51 74.36 149.16 C 69.98 150.90 64.60 152.74 60.33 149.73 C 56.31 146.37 56.41 140.45 58.37 135.99 C 60.38 136.54 62.38 137.15 64.42 137.55 M 65.09 142.06 C 68.87 141.51 74.00 141.62 75.04 136.97 C 71.59 138.39 68.29 140.14 65.09 142.06 Z" />
<path fill="#dad3a4" opacity="1.00" d=" M 75.79 150.78 C 78.29 149.58 81.18 149.76 83.88 149.48 C 83.12 153.33 82.82 157.26 81.96 161.09 C 80.42 161.57 78.82 161.79 77.23 162.06 C 76.94 162.28 76.36 162.72 76.07 162.94 C 76.33 163.25 76.85 163.87 77.10 164.18 C 79.52 164.18 82.03 163.74 84.37 164.50 C 87.04 166.38 88.65 169.33 90.48 171.95 C 88.46 173.14 86.13 173.54 83.84 173.82 C 81.66 174.06 79.48 174.25 77.30 174.45 C 77.67 172.69 78.23 170.95 78.28 169.14 C 77.40 167.76 76.20 166.63 75.09 165.44 C 74.84 166.62 74.60 167.81 74.33 169.00 C 72.99 166.25 71.22 163.64 68.49 162.12 C 65.83 162.67 63.24 163.46 60.62 164.17 C 61.71 162.12 62.65 159.95 64.12 158.13 C 67.59 158.12 70.89 159.33 74.13 160.44 C 74.15 157.23 72.99 153.14 75.79 150.78 Z" />
<path fill="#dad3a4" opacity="1.00" d=" M 55.16 158.39 C 56.43 158.25 57.70 158.10 58.98 158.06 C 59.72 159.84 59.03 161.79 59.17 163.65 C 59.92 164.71 60.99 165.48 61.94 166.36 C 60.54 169.17 59.06 171.93 57.60 174.71 C 55.83 173.34 53.90 172.11 52.50 170.35 C 51.97 166.19 54.15 162.32 55.16 158.39 Z" />
<path fill="#dad3a4" opacity="1.00" d=" M 84.33 181.49 C 89.12 183.05 93.99 184.45 99.00 185.03 C 93.89 187.61 88.04 185.42 84.33 181.49 Z" />
</g>
<g id="#f6f4fcff">
<path fill="#f6f4fc" opacity="1.00" d=" M 42.22 77.56 C 44.01 74.61 45.67 71.58 47.33 68.56 C 49.95 74.87 49.95 81.94 53.02 88.09 C 52.65 88.28 51.93 88.64 51.56 88.82 C 56.13 94.57 57.74 102.25 57.60 109.44 C 54.91 111.84 51.41 113.02 48.17 114.46 C 47.96 119.53 48.12 124.74 46.30 129.57 C 44.89 129.26 43.48 128.93 42.07 128.60 C 40.87 128.27 39.91 127.40 38.94 126.66 C 37.88 121.41 38.66 115.98 38.63 110.66 C 36.71 110.63 34.79 110.57 32.88 110.49 C 32.56 106.62 32.26 102.71 30.98 99.01 C 37.59 93.51 37.34 84.17 42.22 77.56 Z" />
<path fill="#f6f4fc" opacity="1.00" d=" M 118.59 111.21 C 120.17 111.30 121.75 111.38 123.32 111.55 C 126.22 112.11 129.01 113.23 131.62 114.59 C 133.98 115.88 134.02 118.92 134.71 121.21 C 132.64 122.67 129.88 124.02 129.74 126.92 C 129.17 133.12 129.29 139.42 127.81 145.52 C 127.17 145.66 125.90 145.93 125.26 146.07 C 126.26 143.45 126.92 140.72 127.61 138.01 C 122.61 136.99 117.57 136.17 112.51 135.49 C 112.20 134.30 111.90 133.11 111.60 131.92 C 112.99 126.67 114.93 121.57 116.68 116.43 C 117.31 114.69 117.95 112.95 118.59 111.21 Z" />
<path fill="#f6f4fc" opacity="1.00" d=" M 51.90 123.43 C 55.83 120.49 60.01 117.90 64.49 115.92 C 64.84 116.20 65.52 116.77 65.87 117.05 C 68.65 119.86 72.33 121.36 76.11 122.29 C 76.20 123.33 76.30 124.38 76.39 125.43 C 78.63 123.81 80.72 121.85 83.35 120.88 C 85.91 120.35 88.54 120.94 91.11 121.15 C 90.73 121.46 89.99 122.08 89.62 122.39 L 89.00 122.88 C 88.48 123.30 87.42 124.13 86.90 124.54 C 86.86 125.13 86.80 126.29 86.76 126.87 C 88.75 126.71 90.74 126.55 92.74 126.39 C 95.54 132.26 96.87 138.68 99.44 144.65 C 96.78 144.81 94.12 145.01 91.46 145.23 C 91.16 143.18 90.86 141.14 90.57 139.10 C 89.34 139.19 88.12 139.29 86.90 139.41 C 86.13 140.88 85.39 142.38 84.45 143.75 C 82.90 143.78 81.38 143.38 79.90 142.98 C 78.52 142.19 77.16 141.36 75.81 140.52 C 75.80 138.85 75.82 137.18 75.79 135.51 C 71.91 135.63 68.21 136.86 64.42 137.55 C 62.69 135.35 61.02 133.10 59.40 130.82 C 58.96 131.09 58.51 131.37 58.07 131.64 C 56.43 132.61 54.80 133.59 53.09 134.42 C 54.45 130.76 53.68 126.80 51.90 123.43 Z" />
<path fill="#f6f4fc" opacity="1.00" d=" M 110.91 137.63 C 113.39 138.55 115.85 139.51 118.32 140.47 C 116.07 151.40 111.58 162.18 113.10 173.55 C 114.14 174.15 115.18 174.75 116.21 175.36 C 116.58 173.68 116.95 172.01 117.32 170.33 C 117.84 170.36 118.87 170.42 119.39 170.45 C 119.79 173.00 120.23 175.55 120.49 178.13 C 119.74 181.37 119.29 184.68 119.33 188.02 C 118.93 187.99 118.15 187.92 117.75 187.89 C 111.84 187.55 106.22 185.51 100.40 184.59 C 99.79 183.62 99.17 182.66 98.55 181.70 C 104.97 174.07 105.36 163.72 107.65 154.45 C 108.16 151.91 108.51 149.35 108.77 146.77 C 109.55 143.74 110.47 140.74 110.91 137.63 Z" />
<path fill="#f6f4fc" opacity="1.00" d=" M 40.15 153.44 C 43.41 153.80 47.01 154.05 49.52 151.51 C 50.28 153.25 50.86 155.06 51.42 156.87 C 50.17 157.97 48.93 159.08 47.75 160.25 C 46.76 161.86 45.88 163.53 44.99 165.20 C 42.94 164.32 40.77 163.63 38.96 162.30 C 38.29 160.68 38.30 158.88 38.31 157.16 C 38.89 155.90 39.51 154.67 40.15 153.44 Z" />
<path fill="#f6f4fc" opacity="1.00" d=" M 65.79 165.59 C 66.68 164.42 67.58 163.27 68.49 162.12 C 71.22 163.64 72.99 166.25 74.33 169.00 C 71.55 167.70 68.74 166.44 65.79 165.59 Z" />
<path fill="#f6f4fc" opacity="1.00" d=" M 63.29 183.26 C 65.02 178.62 70.93 179.56 74.85 179.82 C 76.82 181.32 78.78 182.83 80.69 184.39 C 74.66 185.38 68.54 185.18 62.46 184.86 C 62.67 184.46 63.09 183.66 63.29 183.26 Z" />
</g>
</svg>
