<?xml version="1.0" encoding="UTF-8" ?>
<!DOCTYPE svg PUBLIC "-//W3C//DTD SVG 1.1//EN" "http://www.w3.org/Graphics/SVG/1.1/DTD/svg11.dtd">
<svg width="155pt" height="210pt" viewBox="0 0 155 210" version="1.1" xmlns="http://www.w3.org/2000/svg">
<g id="#d7c271ff">
<path fill="#d7c271" opacity="1.00" d=" M 71.89 19.79 C 77.09 16.70 82.05 21.99 86.40 24.37 C 90.98 27.88 95.50 31.47 100.13 34.91 C 101.43 35.96 102.70 37.07 103.70 38.42 C 103.67 42.09 101.57 45.37 100.65 48.86 C 100.22 50.69 99.63 52.65 100.35 54.49 C 102.48 60.68 106.80 65.85 108.94 72.04 C 109.75 74.07 108.94 76.20 108.24 78.12 C 106.90 81.56 105.29 84.87 103.81 88.24 C 101.22 87.97 98.73 87.16 96.36 86.09 C 97.33 82.27 98.63 78.35 98.22 74.36 C 96.83 67.71 91.31 62.67 90.20 55.95 C 90.52 50.38 94.52 45.76 94.89 40.19 C 93.03 35.85 88.92 33.08 85.18 30.46 C 86.64 34.26 89.32 37.75 89.62 41.89 C 88.83 47.33 85.63 52.01 84.00 57.21 C 78.25 58.70 72.12 58.78 66.62 56.29 C 65.50 51.36 63.16 46.80 62.14 41.85 C 62.18 37.51 64.74 33.69 65.94 29.61 C 62.93 32.40 59.49 35.20 58.15 39.22 C 58.08 44.58 61.97 49.26 61.59 54.65 C 58.86 61.08 52.46 65.16 49.73 71.60 C 48.96 76.84 50.41 82.14 50.40 87.41 C 48.64 87.39 46.88 87.36 45.13 87.34 C 44.96 86.76 44.63 85.60 44.46 85.03 C 43.31 80.20 41.27 75.22 42.02 70.21 C 46.21 63.22 52.73 57.90 57.03 51.01 C 55.66 46.20 52.77 41.94 51.74 37.02 C 52.11 35.02 54.17 33.90 55.54 32.56 C 61.03 28.37 65.77 23.13 71.89 19.79 M 69.19 31.19 C 69.24 34.14 71.47 36.54 72.74 39.07 C 72.28 42.01 72.52 45.23 70.77 47.80 C 70.10 49.19 68.74 50.71 69.63 52.33 C 71.00 56.30 77.31 56.98 79.13 53.03 C 80.51 51.02 78.60 49.17 77.61 47.52 C 75.11 44.48 76.09 40.33 76.17 36.73 L 76.84 36.75 C 78.37 35.07 80.73 33.14 79.49 30.60 C 78.24 25.59 69.91 26.08 69.19 31.19 Z" />
<path fill="#d7c271" opacity="1.00" d=" M 57.63 71.11 C 60.86 66.70 63.72 62.03 67.06 57.70 C 72.62 59.04 78.36 58.71 84.02 58.74 C 85.46 63.90 88.56 68.59 89.08 73.99 C 88.37 78.99 85.96 83.54 84.40 88.31 C 82.09 88.56 79.78 88.76 77.48 89.00 C 77.15 87.60 76.83 86.20 76.51 84.80 C 75.63 86.27 74.74 87.74 73.86 89.21 C 72.52 89.24 71.18 89.27 69.84 89.29 C 67.37 81.92 67.90 74.11 69.28 66.59 C 65.23 73.28 67.40 81.28 67.31 88.62 C 65.31 88.58 63.31 88.52 61.31 88.61 C 60.12 84.72 58.96 80.82 57.77 76.92 C 58.09 75.00 58.33 72.99 57.63 71.11 Z" />
<path fill="#d7c271" opacity="1.00" d=" M 40.22 88.07 L 41.00 88.12 C 45.93 88.41 50.85 88.87 55.77 89.20 C 65.09 90.09 74.46 89.62 83.80 89.78 C 86.29 89.81 88.77 89.90 91.26 90.00 C 90.89 92.86 90.72 95.82 89.64 98.54 C 86.00 100.54 81.63 99.84 77.70 100.86 C 76.54 103.51 76.51 106.46 76.35 109.30 C 77.40 106.94 78.33 104.53 79.21 102.10 C 83.35 101.51 88.74 102.33 91.60 98.62 C 92.26 95.81 92.14 92.90 92.25 90.03 C 92.97 90.06 94.41 90.11 95.13 90.14 C 99.27 90.27 103.41 90.33 107.56 90.38 C 106.90 96.37 107.34 102.43 108.88 108.27 C 107.55 108.44 106.23 108.63 104.91 108.80 L 103.98 108.89 C 103.36 108.96 102.12 109.09 101.50 109.15 C 96.56 109.73 91.60 110.15 86.63 110.23 C 85.40 110.28 84.18 110.34 82.96 110.41 C 76.77 110.74 70.57 111.47 64.38 110.94 C 61.63 110.55 58.93 109.95 56.20 109.47 C 54.51 109.14 52.80 108.86 51.09 108.72 L 50.21 108.66 C 47.56 108.46 44.90 108.21 42.28 107.71 C 41.60 107.50 40.25 107.08 39.57 106.87 C 40.67 100.67 40.94 94.33 40.22 88.07 Z" />
<path fill="#d7c271" opacity="1.00" d=" M 63.73 114.14 C 68.78 115.30 73.98 115.06 79.06 114.34 C 79.71 116.77 80.34 119.19 80.97 121.62 C 76.40 121.67 71.82 121.70 67.25 121.73 C 65.50 121.35 63.76 120.88 62.06 120.30 C 62.34 119.38 62.62 118.47 62.89 117.56 C 63.19 116.42 63.47 115.29 63.73 114.14 Z" />
</g>
<g id="#0e8daaff">
<path fill="#0e8daa" opacity="1.00" d=" M 86.40 24.37 C 89.60 24.08 93.56 23.27 96.05 25.89 C 97.65 28.78 98.80 31.89 100.13 34.91 C 95.50 31.47 90.98 27.88 86.40 24.37 Z" />
<path fill="#0e8daa" opacity="1.00" d=" M 58.15 39.22 C 59.49 35.20 62.93 32.40 65.94 29.61 C 64.74 33.69 62.18 37.51 62.14 41.85 C 63.16 46.80 65.50 51.36 66.62 56.29 C 66.73 56.64 66.95 57.35 67.06 57.70 C 63.72 62.03 60.86 66.70 57.63 71.11 C 55.81 72.74 56.45 75.22 57.77 76.92 C 58.96 80.82 60.12 84.72 61.31 88.61 C 59.46 88.77 57.62 89.03 55.77 89.20 C 50.85 88.87 45.93 88.41 41.00 88.12 C 42.16 87.09 43.32 86.07 44.46 85.03 C 44.63 85.60 44.96 86.76 45.13 87.34 C 46.88 87.36 48.64 87.39 50.40 87.41 C 50.41 82.14 48.96 76.84 49.73 71.60 C 52.46 65.16 58.86 61.08 61.59 54.65 C 61.97 49.26 58.08 44.58 58.15 39.22 Z" />
<path fill="#0e8daa" opacity="1.00" d=" M 85.18 30.46 C 88.92 33.08 93.03 35.85 94.89 40.19 C 94.52 45.76 90.52 50.38 90.20 55.95 C 91.31 62.67 96.83 67.71 98.22 74.36 C 98.63 78.35 97.33 82.27 96.36 86.09 C 95.97 87.45 95.55 88.79 95.13 90.14 C 94.41 90.11 92.97 90.06 92.25 90.03 L 91.26 90.00 C 88.77 89.90 86.29 89.81 83.80 89.78 C 83.95 89.41 84.25 88.68 84.40 88.31 C 85.96 83.54 88.37 78.99 89.08 73.99 C 88.56 68.59 85.46 63.90 84.02 58.74 C 84.02 58.36 84.01 57.59 84.00 57.21 C 85.63 52.01 88.83 47.33 89.62 41.89 C 89.32 37.75 86.64 34.26 85.18 30.46 Z" />
<path fill="#0e8daa" opacity="1.00" d=" M 100.35 54.49 C 99.63 52.65 100.22 50.69 100.65 48.86 C 102.28 51.99 102.99 55.45 103.43 58.92 C 107.24 60.70 111.30 61.94 114.96 64.04 C 117.07 65.17 117.57 67.72 118.16 69.83 C 119.44 75.62 120.11 81.54 120.54 87.45 C 114.99 88.15 109.40 88.70 103.81 88.24 C 105.29 84.87 106.90 81.56 108.24 78.12 C 108.94 76.20 109.75 74.07 108.94 72.04 C 106.80 65.85 102.48 60.68 100.35 54.49 Z" />
<path fill="#0e8daa" opacity="1.00" d=" M 40.01 136.53 C 41.51 135.92 43.01 135.32 44.51 134.73 C 47.38 137.87 48.12 142.19 49.79 145.98 C 48.01 147.49 46.22 148.97 44.40 150.42 C 41.70 146.37 39.50 141.96 38.19 137.26 C 38.65 137.08 39.56 136.71 40.01 136.53 Z" />
<path fill="#0e8daa" opacity="1.00" d=" M 48.21 155.84 C 49.56 155.13 51.29 156.40 50.87 157.92 C 49.71 159.32 47.08 157.32 48.21 155.84 Z" />
<path fill="#0e8daa" opacity="1.00" d=" M 64.99 170.06 C 69.23 172.31 73.83 173.79 78.65 173.99 C 78.79 174.38 79.05 175.16 79.19 175.55 C 74.99 176.76 70.65 176.13 66.62 174.64 C 69.40 176.10 72.09 177.71 74.74 179.40 C 72.19 179.47 69.64 179.48 67.10 179.46 C 69.36 180.52 71.60 181.60 73.85 182.70 C 72.90 184.77 72.02 186.88 71.05 188.94 L 70.28 189.01 C 69.53 187.14 69.05 184.56 66.59 184.39 C 62.26 182.92 58.20 185.56 55.41 188.65 C 56.45 186.41 58.04 184.52 59.96 182.98 C 59.62 181.68 59.27 180.38 58.93 179.08 C 60.41 177.75 61.97 176.48 63.26 174.96 C 63.95 173.36 64.46 171.70 64.99 170.06 Z" />
<path fill="#0e8daa" opacity="1.00" d=" M 114.40 171.09 C 115.32 172.29 116.28 173.48 116.97 174.84 C 115.91 176.03 114.71 177.08 113.55 178.16 C 109.60 177.51 105.68 176.65 101.85 175.47 C 102.96 175.04 104.07 174.62 105.19 174.21 C 106.97 174.70 108.77 175.18 110.58 175.55 C 112.67 174.88 113.93 173.18 114.40 171.09 Z" />
</g>
<g id="#7e754eff">
<path fill="#7e754e" opacity="1.00" d=" M 69.19 31.19 C 69.91 26.08 78.24 25.59 79.49 30.60 C 80.73 33.14 78.37 35.07 76.84 36.75 L 76.17 36.73 C 75.13 36.69 74.10 36.66 73.06 36.63 C 72.95 37.44 72.85 38.26 72.74 39.07 C 71.47 36.54 69.24 34.14 69.19 31.19 Z" />
<path fill="#7e754e" opacity="1.00" d=" M 67.31 88.62 C 67.40 81.28 65.23 73.28 69.28 66.59 C 67.90 74.11 67.37 81.92 69.84 89.29 C 71.18 89.27 72.52 89.24 73.86 89.21 C 74.74 87.74 75.63 86.27 76.51 84.80 C 76.83 86.20 77.15 87.60 77.48 89.00 C 79.78 88.76 82.09 88.56 84.40 88.31 C 84.25 88.68 83.95 89.41 83.80 89.78 C 74.46 89.62 65.09 90.09 55.77 89.20 C 57.62 89.03 59.46 88.77 61.31 88.61 C 63.31 88.52 65.31 88.58 67.31 88.62 Z" />
<path fill="#7e754e" opacity="1.00" d=" M 21.71 92.17 C 22.60 89.27 23.56 86.39 24.68 83.57 C 28.01 88.94 29.59 95.12 32.14 100.86 C 33.07 103.33 34.43 105.76 34.50 108.45 C 33.31 116.86 36.97 124.88 41.63 131.63 C 40.85 132.79 40.08 133.95 39.36 135.15 C 36.54 130.14 34.83 124.60 32.02 119.59 C 31.70 119.52 31.07 119.38 30.75 119.31 L 30.26 119.22 C 30.25 118.82 30.23 118.04 30.22 117.65 C 30.27 114.32 29.28 111.10 27.98 108.07 C 25.77 102.82 23.77 97.48 21.71 92.17 Z" />
<path fill="#7e754e" opacity="1.00" d=" M 91.26 90.00 L 92.25 90.03 C 92.14 92.90 92.26 95.81 91.60 98.62 C 88.74 102.33 83.35 101.51 79.21 102.10 C 78.33 104.53 77.40 106.94 76.35 109.30 C 76.51 106.46 76.54 103.51 77.70 100.86 C 81.63 99.84 86.00 100.54 89.64 98.54 C 90.72 95.82 90.89 92.86 91.26 90.00 Z" />
<path fill="#7e754e" opacity="1.00" d=" M 108.88 108.27 C 113.18 107.65 117.52 107.41 121.83 106.88 C 121.92 108.42 122.01 109.95 122.10 111.49 C 120.40 111.05 118.70 110.60 116.99 110.23 C 115.46 110.14 113.24 109.11 112.32 110.86 C 110.59 113.68 109.06 116.64 107.56 119.60 C 106.05 122.48 106.87 125.83 107.00 128.92 C 106.27 128.51 105.53 128.13 104.77 127.77 C 106.68 121.43 104.83 113.81 109.52 108.51 C 107.98 108.61 106.44 108.68 104.91 108.80 C 106.23 108.63 107.55 108.44 108.88 108.27 Z" />
<path fill="#7e754e" opacity="1.00" d=" M 42.28 107.71 C 44.90 108.21 47.56 108.46 50.21 108.66 C 48.96 108.65 47.71 108.66 46.46 108.68 C 46.64 112.47 46.80 116.26 46.92 120.05 C 45.28 118.67 43.62 117.31 41.97 115.93 C 41.72 116.52 41.22 117.69 40.96 118.27 C 41.25 114.73 41.71 111.21 42.28 107.71 Z" />
<path fill="#7e754e" opacity="1.00" d=" M 51.09 108.72 C 52.80 108.86 54.51 109.14 56.20 109.47 C 55.67 109.59 54.62 109.84 54.09 109.96 C 54.80 112.07 55.33 114.50 57.19 115.93 C 58.86 117.07 60.95 117.20 62.89 117.56 C 62.62 118.47 62.34 119.38 62.06 120.30 C 59.42 119.23 56.92 117.85 54.48 116.38 C 54.64 118.88 55.59 121.70 54.15 123.98 C 51.92 126.27 48.79 127.32 46.11 128.97 L 45.99 127.96 C 45.69 127.35 45.08 126.13 44.78 125.51 L 45.49 125.34 C 45.89 125.24 46.69 125.04 47.08 124.94 C 48.96 123.89 51.23 122.91 52.14 120.81 C 52.67 116.76 51.66 112.71 51.09 108.72 Z" />
<path fill="#7e754e" opacity="1.00" d=" M 101.50 109.15 C 102.12 109.09 103.36 108.96 103.98 108.89 C 103.37 115.09 105.05 121.29 104.05 127.47 C 103.33 127.21 101.90 126.69 101.18 126.43 C 100.92 124.40 100.67 122.36 100.42 120.32 C 96.23 121.29 91.81 122.35 87.60 120.89 C 90.98 120.31 94.59 120.33 97.71 118.76 C 101.02 116.80 101.01 112.53 101.50 109.15 Z" />
<path fill="#7e754e" opacity="1.00" d=" M 64.38 110.94 C 70.57 111.47 76.77 110.74 82.96 110.41 C 82.67 114.51 82.27 118.60 81.87 122.69 C 78.84 123.67 75.74 125.57 72.45 124.72 C 70.19 124.22 68.00 123.47 65.77 122.89 L 64.85 122.68 C 65.45 122.44 66.65 121.97 67.25 121.73 C 71.82 121.70 76.40 121.67 80.97 121.62 C 80.34 119.19 79.71 116.77 79.06 114.34 C 73.98 115.06 68.78 115.30 63.73 114.14 C 63.89 113.34 64.22 111.74 64.38 110.94 Z" />
<path fill="#7e754e" opacity="1.00" d=" M 69.17 137.18 C 71.37 137.29 73.58 137.42 75.78 137.52 C 76.36 139.59 76.94 141.66 77.53 143.72 C 75.23 144.42 73.01 145.33 70.76 146.19 C 70.35 145.00 69.92 143.80 69.54 142.60 C 69.34 140.80 69.26 138.99 69.17 137.18 M 70.27 138.47 C 69.32 139.16 69.17 141.38 70.66 141.45 C 72.62 141.30 72.36 137.17 70.27 138.47 Z" />
<path fill="#7e754e" opacity="1.00" d=" M 87.83 141.29 C 91.17 142.98 94.43 144.83 97.72 146.63 C 98.18 144.92 98.79 143.23 99.91 141.82 C 100.56 144.41 101.33 146.98 102.16 149.52 C 101.27 150.87 100.47 152.28 99.66 153.68 C 98.80 153.47 97.94 153.27 97.10 153.00 C 97.37 152.01 97.67 151.03 98.00 150.06 C 95.35 148.53 92.67 147.06 90.01 145.54 C 90.41 145.27 91.19 144.73 91.59 144.46 C 90.64 143.35 89.34 142.65 88.06 141.98 L 87.83 141.29 Z" />
<path fill="#7e754e" opacity="1.00" d=" M 74.67 155.95 C 81.06 158.07 87.80 157.33 94.31 156.31 C 96.74 156.48 99.17 156.72 101.60 156.98 C 102.03 157.98 102.48 158.98 102.94 159.97 C 103.73 161.89 104.75 163.71 105.43 165.68 C 105.56 167.53 105.59 169.39 105.63 171.26 C 107.29 172.67 108.95 174.10 110.58 175.55 C 108.77 175.18 106.97 174.70 105.19 174.21 C 103.90 172.09 102.60 169.99 101.31 167.88 C 101.15 168.33 100.84 169.24 100.69 169.70 C 99.83 170.87 98.94 172.02 98.02 173.14 C 94.50 172.95 90.70 173.62 87.38 172.13 C 84.68 170.38 83.14 167.39 81.09 164.98 C 78.81 163.91 76.30 163.49 73.82 163.19 C 74.07 160.77 74.32 158.36 74.67 155.95 Z" />
</g>
<g id="#302f29ff">
<path fill="#302f29" opacity="1.00" d=" M 73.06 36.63 C 74.10 36.66 75.13 36.69 76.17 36.73 C 76.09 40.33 75.11 44.48 77.61 47.52 C 78.60 49.17 80.51 51.02 79.13 53.03 C 77.31 56.98 71.00 56.30 69.63 52.33 C 68.74 50.71 70.10 49.19 70.77 47.80 C 72.52 45.23 72.28 42.01 72.74 39.07 C 72.85 38.26 72.95 37.44 73.06 36.63 Z" />
<path fill="#302f29" opacity="1.00" d=" M 66.62 56.29 C 72.12 58.78 78.25 58.70 84.00 57.21 C 84.01 57.59 84.02 58.36 84.02 58.74 C 78.36 58.71 72.62 59.04 67.06 57.70 C 66.95 57.35 66.73 56.64 66.62 56.29 Z" />
<path fill="#302f29" opacity="1.00" d=" M 121.83 106.88 L 122.67 106.75 C 122.56 110.26 122.83 113.81 124.00 117.15 C 122.25 117.69 120.52 118.26 118.79 118.83 C 117.71 116.08 117.15 113.17 116.99 110.23 C 118.70 110.60 120.40 111.05 122.10 111.49 C 122.01 109.95 121.92 108.42 121.83 106.88 Z" />
<path fill="#302f29" opacity="1.00" d=" M 41.63 131.63 C 36.97 124.88 33.31 116.86 34.50 108.45 C 35.46 109.98 36.50 111.50 37.11 113.22 C 37.21 113.64 37.41 114.47 37.51 114.89 C 37.65 116.43 39.16 117.21 40.36 117.88 L 40.96 118.27 C 40.63 120.56 40.49 122.87 40.31 125.18 C 42.03 125.24 43.76 125.32 45.49 125.34 L 44.78 125.51 C 42.01 125.67 44.01 129.36 45.99 127.96 L 46.11 128.97 C 45.98 129.35 45.72 130.10 45.59 130.48 C 45.11 131.73 44.57 132.96 44.02 134.19 C 43.21 133.34 42.42 132.49 41.63 131.63 Z" />
<path fill="#302f29" opacity="1.00" d=" M 103.98 108.89 L 104.91 108.80 C 106.44 108.68 107.98 108.61 109.52 108.51 C 104.83 113.81 106.68 121.43 104.77 127.77 L 104.05 127.47 C 105.05 121.29 103.37 115.09 103.98 108.89 Z" />
<path fill="#302f29" opacity="1.00" d=" M 100.40 135.57 C 101.52 134.86 102.61 134.08 103.82 133.55 C 105.33 134.26 106.71 135.20 108.21 135.93 C 109.54 135.29 110.68 134.35 111.87 133.50 C 112.54 134.25 113.21 135.00 113.88 135.75 C 113.35 136.54 112.81 137.33 112.27 138.12 C 112.86 138.83 113.44 139.55 114.03 140.27 C 112.71 140.56 111.40 140.91 110.09 141.26 C 112.80 142.46 115.53 143.64 118.27 144.78 C 119.36 150.24 118.11 156.24 114.71 160.68 C 113.52 162.39 111.37 162.78 109.57 163.52 C 110.35 161.07 110.60 158.46 110.11 155.92 C 109.79 154.03 109.50 152.10 108.72 150.33 C 107.54 148.71 105.54 148.05 103.83 147.18 C 104.47 146.28 105.11 145.39 105.76 144.51 C 104.11 143.20 102.47 141.87 100.76 140.64 C 100.55 140.94 100.12 141.53 99.91 141.82 C 98.79 143.23 98.18 144.92 97.72 146.63 C 94.43 144.83 91.17 142.98 87.83 141.29 C 87.27 139.64 86.67 138.02 86.07 136.40 C 88.09 136.84 90.11 137.31 92.15 137.70 C 92.62 139.14 93.08 140.58 93.55 142.01 C 96.60 141.18 99.62 140.22 102.60 139.14 C 101.89 137.93 101.15 136.74 100.40 135.57 Z" />
<path fill="#302f29" opacity="1.00" d=" M 49.79 145.98 C 50.57 147.28 51.45 148.52 52.31 149.78 C 50.57 150.91 48.84 152.05 47.10 153.19 C 49.71 152.41 52.33 151.62 54.94 150.83 C 55.55 151.94 56.15 153.05 56.77 154.16 C 56.58 155.70 56.42 157.25 56.29 158.80 C 54.48 158.51 52.68 158.21 50.87 157.92 C 51.29 156.40 49.56 155.13 48.21 155.84 L 47.38 156.01 C 46.40 154.14 45.43 152.27 44.40 150.42 C 46.22 148.97 48.01 147.49 49.79 145.98 Z" />
<path fill="#302f29" opacity="1.00" d=" M 56.76 164.23 C 58.66 163.29 60.57 162.35 62.47 161.41 C 62.99 163.02 63.61 164.59 64.34 166.12 C 64.53 166.33 64.92 166.77 65.11 166.98 C 66.11 167.53 67.14 168.03 68.16 168.55 C 69.80 170.00 71.28 171.77 73.36 172.60 C 74.93 172.77 76.47 172.31 77.98 171.94 C 78.15 172.45 78.48 173.48 78.65 173.99 C 73.83 173.79 69.23 172.31 64.99 170.06 C 64.46 171.70 63.95 173.36 63.26 174.96 C 62.06 174.35 60.87 173.75 59.67 173.15 C 60.05 172.05 60.43 170.95 60.81 169.85 C 58.76 169.73 56.71 169.60 54.66 169.46 L 55.42 169.38 C 56.98 169.21 58.54 169.05 60.10 168.88 C 59.24 168.40 58.39 167.92 57.54 167.44 C 58.40 166.52 59.27 165.61 60.13 164.69 C 59.01 164.54 57.88 164.38 56.76 164.23 Z" />
<path fill="#302f29" opacity="1.00" d=" M 81.09 164.98 C 83.14 167.39 84.68 170.38 87.38 172.13 C 90.70 173.62 94.50 172.95 98.02 173.14 C 95.10 176.43 90.37 177.10 86.21 176.62 C 83.13 175.75 80.70 173.51 77.98 171.94 L 78.43 171.27 C 79.46 169.23 80.28 167.11 81.09 164.98 Z" />
<path fill="#302f29" opacity="1.00" d=" M 101.31 167.88 C 102.60 169.99 103.90 172.09 105.19 174.21 C 104.07 174.62 102.96 175.04 101.85 175.47 C 105.68 176.65 109.60 177.51 113.55 178.16 C 113.67 180.30 113.83 182.44 113.99 184.58 C 110.23 183.65 106.30 184.30 103.56 187.19 C 100.65 189.83 96.53 189.25 92.91 189.37 C 94.67 182.48 98.50 176.42 100.69 169.70 C 100.84 169.24 101.15 168.33 101.31 167.88 Z" />
<path fill="#302f29" opacity="1.00" d=" M 66.62 174.64 C 70.65 176.13 74.99 176.76 79.19 175.55 L 79.26 175.86 C 78.59 177.56 77.69 179.18 77.31 180.98 C 77.32 183.83 78.37 186.55 79.04 189.29 C 76.38 189.16 73.72 188.97 71.05 188.94 C 72.02 186.88 72.90 184.77 73.85 182.70 C 71.60 181.60 69.36 180.52 67.10 179.46 C 69.64 179.48 72.19 179.47 74.74 179.40 C 72.09 177.71 69.40 176.10 66.62 174.64 Z" />
<path fill="#302f29" opacity="1.00" d=" M 70.23 191.31 C 77.78 191.25 85.33 191.16 92.87 191.38 C 92.21 193.65 91.57 195.91 90.92 198.18 C 84.98 198.49 79.04 198.49 73.11 198.19 C 72.16 195.89 71.20 193.60 70.23 191.31 Z" />
</g>
<g id="#e6dfd1ff">
<path fill="#e6dfd1" opacity="1.00" d=" M 9.28 51.52 C 11.89 53.40 13.21 56.62 13.65 59.71 C 13.75 63.21 13.94 66.74 14.89 70.14 C 16.90 77.56 18.78 85.04 21.71 92.17 C 23.77 97.48 25.77 102.82 27.98 108.07 C 29.28 111.10 30.27 114.32 30.22 117.65 C 26.75 112.45 24.73 106.49 22.17 100.83 C 19.72 94.66 15.93 88.98 14.70 82.37 C 12.58 72.15 10.20 61.93 9.28 51.52 Z" />
<path fill="#e6dfd1" opacity="1.00" d=" M 30.75 119.31 C 31.07 119.38 31.70 119.52 32.02 119.59 C 34.83 124.60 36.54 130.14 39.36 135.15 C 39.52 135.50 39.85 136.18 40.01 136.53 C 39.56 136.71 38.65 137.08 38.19 137.26 C 35.91 131.19 32.60 125.54 30.75 119.31 Z" />
<path fill="#e6dfd1" opacity="1.00" d=" M 51.37 130.31 C 55.72 127.54 60.12 124.78 64.85 122.68 L 65.77 122.89 C 65.09 125.57 64.44 128.26 63.82 130.96 C 70.65 131.85 77.55 131.61 84.33 130.43 C 89.97 130.19 96.46 131.11 100.40 135.57 C 101.15 136.74 101.89 137.93 102.60 139.14 C 99.62 140.22 96.60 141.18 93.55 142.01 C 93.08 140.58 92.62 139.14 92.15 137.70 C 90.11 137.31 88.09 136.84 86.07 136.40 C 86.67 138.02 87.27 139.64 87.83 141.29 L 88.06 141.98 L 88.10 142.63 C 84.59 143.12 81.05 143.28 77.53 143.72 C 76.94 141.66 76.36 139.59 75.78 137.52 C 73.58 137.42 71.37 137.29 69.17 137.18 C 69.26 138.99 69.34 140.80 69.54 142.60 C 68.76 142.66 67.18 142.78 66.40 142.84 C 63.87 142.11 61.44 141.09 59.03 140.05 C 59.29 138.44 59.56 136.84 59.81 135.24 C 58.63 134.85 57.46 134.45 56.28 134.05 C 55.37 135.49 54.45 136.93 53.52 138.37 C 52.22 137.08 50.83 135.88 49.45 134.67 C 49.54 133.54 49.63 132.41 49.72 131.28 C 50.13 131.04 50.96 130.55 51.37 130.31 Z" />
<path fill="#e6dfd1" opacity="1.00" d=" M 110.09 141.26 C 111.40 140.91 112.71 140.56 114.03 140.27 C 116.56 139.81 117.16 143.16 118.27 144.78 C 115.53 143.64 112.80 142.46 110.09 141.26 Z" />
<path fill="#e6dfd1" opacity="1.00" d=" M 103.83 147.18 C 105.54 148.05 107.54 148.71 108.72 150.33 C 109.50 152.10 109.79 154.03 110.11 155.92 C 106.93 155.84 103.74 155.71 100.56 155.51 C 100.34 155.05 99.89 154.14 99.66 153.68 C 100.47 152.28 101.27 150.87 102.16 149.52 C 102.58 148.93 103.41 147.76 103.83 147.18 Z" />
<path fill="#e6dfd1" opacity="1.00" d=" M 68.16 168.55 C 69.47 167.28 70.79 166.02 72.12 164.78 C 73.53 166.24 74.93 167.70 76.33 169.16 C 74.72 169.31 73.11 169.47 71.50 169.64 C 73.80 170.20 76.11 170.74 78.43 171.27 L 77.98 171.94 C 76.47 172.31 74.93 172.77 73.36 172.60 C 71.28 171.77 69.80 170.00 68.16 168.55 Z" />
<path fill="#e6dfd1" opacity="1.00" d=" M 55.41 188.65 C 58.20 185.56 62.26 182.92 66.59 184.39 C 69.05 184.56 69.53 187.14 70.28 189.01 C 65.33 189.54 60.32 189.49 55.41 188.65 Z" />
</g>
<g id="#aba79fff">
<path fill="#aba79f" opacity="1.00" d=" M 13.65 59.71 C 18.20 67.02 20.88 75.31 24.94 82.90 L 24.68 83.57 C 23.56 86.39 22.60 89.27 21.71 92.17 C 18.78 85.04 16.90 77.56 14.89 70.14 C 13.94 66.74 13.75 63.21 13.65 59.71 Z" />
<path fill="#aba79f" opacity="1.00" d=" M 82.96 110.41 C 84.18 110.34 85.40 110.28 86.63 110.23 C 85.88 111.78 85.05 113.32 84.66 115.01 C 84.63 117.30 86.38 119.10 87.60 120.89 C 91.81 122.35 96.23 121.29 100.42 120.32 C 100.67 122.36 100.92 124.40 101.18 126.43 C 101.90 126.69 103.33 127.21 104.05 127.47 L 104.77 127.77 C 105.53 128.13 106.27 128.51 107.00 128.92 C 107.87 129.48 108.72 130.07 109.54 130.72 C 110.12 131.41 111.29 132.81 111.87 133.50 C 110.68 134.35 109.54 135.29 108.21 135.93 C 106.71 135.20 105.33 134.26 103.82 133.55 C 102.61 134.08 101.52 134.86 100.40 135.57 C 96.46 131.11 89.97 130.19 84.33 130.43 C 77.55 131.61 70.65 131.85 63.82 130.96 C 64.44 128.26 65.09 125.57 65.77 122.89 C 68.00 123.47 70.19 124.22 72.45 124.72 C 75.74 125.57 78.84 123.67 81.87 122.69 C 82.27 118.60 82.67 114.51 82.96 110.41 Z" />
<path fill="#aba79f" opacity="1.00" d=" M 39.36 135.15 C 40.08 133.95 40.85 132.79 41.63 131.63 C 42.42 132.49 43.21 133.34 44.02 134.19 L 44.51 134.73 C 43.01 135.32 41.51 135.92 40.01 136.53 C 39.85 136.18 39.52 135.50 39.36 135.15 Z" />
<path fill="#aba79f" opacity="1.00" d=" M 77.53 143.72 C 81.05 143.28 84.59 143.12 88.10 142.63 C 88.29 143.93 88.93 144.90 90.01 145.54 C 92.67 147.06 95.35 148.53 98.00 150.06 C 97.67 151.03 97.37 152.01 97.10 153.00 C 97.94 153.27 98.80 153.47 99.66 153.68 C 99.89 154.14 100.34 155.05 100.56 155.51 C 103.74 155.71 106.93 155.84 110.11 155.92 C 110.60 158.46 110.35 161.07 109.57 163.52 C 106.93 163.26 104.30 162.45 102.94 159.97 C 102.48 158.98 102.03 157.98 101.60 156.98 C 99.17 156.72 96.74 156.48 94.31 156.31 C 91.05 154.60 88.21 152.22 85.69 149.55 C 88.31 150.07 90.94 150.60 93.59 151.01 C 91.28 148.49 88.30 146.77 85.13 145.57 C 84.63 146.46 84.14 147.36 83.65 148.25 C 81.71 147.37 79.69 144.89 77.47 146.23 C 76.20 147.14 75.19 148.35 74.12 149.48 C 76.51 149.53 78.91 149.54 81.30 149.56 C 79.29 151.55 77.13 153.37 74.83 155.02 L 74.16 155.46 C 72.90 152.42 71.84 149.30 70.76 146.19 C 73.01 145.33 75.23 144.42 77.53 143.72 Z" />
<path fill="#aba79f" opacity="1.00" d=" M 56.29 158.80 C 58.32 157.50 60.35 156.19 62.36 154.87 C 62.36 157.05 62.33 159.23 62.47 161.41 C 60.57 162.35 58.66 163.29 56.76 164.23 C 57.88 164.38 59.01 164.54 60.13 164.69 C 59.27 165.61 58.40 166.52 57.54 167.44 C 58.39 167.92 59.24 168.40 60.10 168.88 C 58.54 169.05 56.98 169.21 55.42 169.38 C 51.82 166.70 50.38 162.27 50.87 157.92 C 52.68 158.21 54.48 158.51 56.29 158.80 Z" />
<path fill="#aba79f" opacity="1.00" d=" M 73.82 163.19 C 76.30 163.49 78.81 163.91 81.09 164.98 C 80.28 167.11 79.46 169.23 78.43 171.27 C 76.11 170.74 73.80 170.20 71.50 169.64 C 73.11 169.47 74.72 169.31 76.33 169.16 C 74.93 167.70 73.53 166.24 72.12 164.78 C 72.55 164.39 73.40 163.59 73.82 163.19 Z" />
<path fill="#aba79f" opacity="1.00" d=" M 105.43 165.68 C 108.36 166.12 111.18 167.06 113.92 168.19 C 114.04 168.92 114.28 170.37 114.40 171.09 C 113.93 173.18 112.67 174.88 110.58 175.55 C 108.95 174.10 107.29 172.67 105.63 171.26 C 105.59 169.39 105.56 167.53 105.43 165.68 Z" />
<path fill="#aba79f" opacity="1.00" d=" M 103.56 187.19 C 106.30 184.30 110.23 183.65 113.99 184.58 C 115.67 185.86 116.81 187.69 117.97 189.42 C 113.08 189.59 107.96 189.65 103.56 187.19 Z" />
</g>
<g id="#151515ff">
<path fill="#151515" opacity="1.00" d=" M 57.77 76.92 C 56.45 75.22 55.81 72.74 57.63 71.11 C 58.33 72.99 58.09 75.00 57.77 76.92 Z" />
<path fill="#151515" opacity="1.00" d=" M 37.11 113.22 C 37.32 110.91 38.37 108.81 39.57 106.87 C 40.25 107.08 41.60 107.50 42.28 107.71 C 41.71 111.21 41.25 114.73 40.96 118.27 L 40.36 117.88 C 40.82 116.16 39.55 113.24 37.51 114.89 C 37.41 114.47 37.21 113.64 37.11 113.22 Z" />
<path fill="#151515" opacity="1.00" d=" M 46.46 108.68 C 47.71 108.66 48.96 108.65 50.21 108.66 L 51.09 108.72 C 51.66 112.71 52.67 116.76 52.14 120.81 C 51.23 122.91 48.96 123.89 47.08 124.94 C 47.03 123.31 46.98 121.68 46.92 120.05 C 46.80 116.26 46.64 112.47 46.46 108.68 Z" />
<path fill="#151515" opacity="1.00" d=" M 86.63 110.23 C 91.60 110.15 96.56 109.73 101.50 109.15 C 101.01 112.53 101.02 116.80 97.71 118.76 C 94.59 120.33 90.98 120.31 87.60 120.89 C 86.38 119.10 84.63 117.30 84.66 115.01 C 85.05 113.32 85.88 111.78 86.63 110.23 Z" />
<path fill="#151515" opacity="1.00" d=" M 54.09 109.96 C 54.62 109.84 55.67 109.59 56.20 109.47 C 58.93 109.95 61.63 110.55 64.38 110.94 C 64.22 111.74 63.89 113.34 63.73 114.14 C 63.47 115.29 63.19 116.42 62.89 117.56 C 60.95 117.20 58.86 117.07 57.19 115.93 C 55.33 114.50 54.80 112.07 54.09 109.96 Z" />
<path fill="#151515" opacity="1.00" d=" M 44.02 134.19 C 44.57 132.96 45.11 131.73 45.59 130.48 C 46.41 130.63 48.03 130.93 48.85 131.09 L 49.72 131.28 C 49.63 132.41 49.54 133.54 49.45 134.67 C 50.83 135.88 52.22 137.08 53.52 138.37 C 56.62 143.03 57.46 148.68 56.77 154.16 C 56.15 153.05 55.55 151.94 54.94 150.83 C 52.33 151.62 49.71 152.41 47.10 153.19 C 48.84 152.05 50.57 150.91 52.31 149.78 C 51.45 148.52 50.57 147.28 49.79 145.98 C 48.12 142.19 47.38 137.87 44.51 134.73 L 44.02 134.19 Z" />
<path fill="#151515" opacity="1.00" d=" M 70.27 138.47 C 72.36 137.17 72.62 141.30 70.66 141.45 C 69.17 141.38 69.32 139.16 70.27 138.47 Z" />
<path fill="#151515" opacity="1.00" d=" M 88.06 141.98 C 89.34 142.65 90.64 143.35 91.59 144.46 C 91.19 144.73 90.41 145.27 90.01 145.54 C 88.93 144.90 88.29 143.93 88.10 142.63 L 88.06 141.98 Z" />
<path fill="#151515" opacity="1.00" d=" M 66.40 142.84 C 67.18 142.78 68.76 142.66 69.54 142.60 C 69.92 143.80 70.35 145.00 70.76 146.19 C 71.84 149.30 72.90 152.42 74.16 155.46 C 69.64 157.69 66.48 161.64 64.34 166.12 C 63.61 164.59 62.99 163.02 62.47 161.41 C 62.33 159.23 62.36 157.05 62.36 154.87 C 60.35 156.19 58.32 157.50 56.29 158.80 C 56.42 157.25 56.58 155.70 56.77 154.16 C 58.86 153.16 61.11 152.38 62.95 150.95 C 64.68 148.54 65.38 145.58 66.40 142.84 Z" />
<path fill="#151515" opacity="1.00" d=" M 77.47 146.23 C 79.69 144.89 81.71 147.37 83.65 148.25 C 84.14 147.36 84.63 146.46 85.13 145.57 C 88.30 146.77 91.28 148.49 93.59 151.01 C 90.94 150.60 88.31 150.07 85.69 149.55 C 88.21 152.22 91.05 154.60 94.31 156.31 C 87.80 157.33 81.06 158.07 74.67 155.95 L 74.83 155.02 C 77.13 153.37 79.29 151.55 81.30 149.56 C 78.91 149.54 76.51 149.53 74.12 149.48 C 75.19 148.35 76.20 147.14 77.47 146.23 Z" />
<path fill="#151515" opacity="1.00" d=" M 92.91 189.37 C 96.53 189.25 100.65 189.83 103.56 187.19 C 107.96 189.65 113.08 189.59 117.97 189.42 C 121.17 189.51 124.50 189.29 127.56 190.38 C 130.48 191.88 129.08 195.60 129.32 198.20 C 116.53 198.45 103.71 198.54 90.92 198.18 C 91.57 195.91 92.21 193.65 92.87 191.38 C 85.33 191.16 77.78 191.25 70.23 191.31 C 71.20 193.60 72.16 195.89 73.11 198.19 C 62.80 198.39 52.45 198.70 42.15 198.00 C 42.62 195.45 41.43 191.64 44.44 190.38 C 47.98 189.22 51.90 190.06 55.41 188.65 C 60.32 189.49 65.33 189.54 70.28 189.01 L 71.05 188.94 C 73.72 188.97 76.38 189.16 79.04 189.29 C 83.66 189.50 88.29 189.39 92.91 189.37 Z" />
</g>
<g id="#b6ae69ff">
<path fill="#b6ae69" opacity="1.00" d=" M 95.13 90.14 C 95.55 88.79 95.97 87.45 96.36 86.09 C 98.73 87.16 101.22 87.97 103.81 88.24 C 109.40 88.70 114.99 88.15 120.54 87.45 C 121.96 87.32 123.37 87.68 124.76 87.90 C 124.79 93.99 125.28 100.06 125.98 106.11 C 124.88 106.35 123.78 106.56 122.67 106.75 L 121.83 106.88 C 117.52 107.41 113.18 107.65 108.88 108.27 C 107.34 102.43 106.90 96.37 107.56 90.38 C 103.41 90.33 99.27 90.27 95.13 90.14 Z" />
<path fill="#b6ae69" opacity="1.00" d=" M 112.32 110.86 C 113.24 109.11 115.46 110.14 116.99 110.23 C 117.15 113.17 117.71 116.08 118.79 118.83 C 120.52 118.26 122.25 117.69 124.00 117.15 C 123.69 118.59 123.29 120.11 121.99 120.99 C 117.91 124.31 113.64 127.42 109.54 130.72 C 108.72 130.07 107.87 129.48 107.00 128.92 C 106.87 125.83 106.05 122.48 107.56 119.60 C 109.06 116.64 110.59 113.68 112.32 110.86 Z" />
<path fill="#b6ae69" opacity="1.00" d=" M 41.97 115.93 C 43.62 117.31 45.28 118.67 46.92 120.05 C 46.98 121.68 47.03 123.31 47.08 124.94 C 46.69 125.04 45.89 125.24 45.49 125.34 C 43.76 125.32 42.03 125.24 40.31 125.18 C 40.49 122.87 40.63 120.56 40.96 118.27 C 41.22 117.69 41.72 116.52 41.97 115.93 Z" />
<path fill="#b6ae69" opacity="1.00" d=" M 54.48 116.38 C 56.92 117.85 59.42 119.23 62.06 120.30 C 63.76 120.88 65.50 121.35 67.25 121.73 C 66.65 121.97 65.45 122.44 64.85 122.68 C 60.12 124.78 55.72 127.54 51.37 130.31 C 51.13 128.24 47.91 129.22 48.85 131.09 C 48.03 130.93 46.41 130.63 45.59 130.48 C 45.72 130.10 45.98 129.35 46.11 128.97 C 48.79 127.32 51.92 126.27 54.15 123.98 C 55.59 121.70 54.64 118.88 54.48 116.38 Z" />
</g>
</svg>
