<?xml version="1.0" encoding="UTF-8" ?>
<!DOCTYPE svg PUBLIC "-//W3C//DTD SVG 1.1//EN" "http://www.w3.org/Graphics/SVG/1.1/DTD/svg11.dtd">
<svg width="155pt" height="210pt" viewBox="0 0 155 210" version="1.1" xmlns="http://www.w3.org/2000/svg">
<g id="#a8b9dfff">
<path fill="#a8b9df" opacity="1.00" d=" M 15.25 52.98 C 20.17 53.86 22.78 58.66 25.89 62.08 C 29.08 65.68 30.21 70.41 31.80 74.82 C 26.64 82.88 27.09 92.81 27.66 101.97 C 28.31 109.10 25.70 115.94 25.62 123.03 C 25.34 126.83 25.64 131.50 22.09 133.94 C 18.62 126.33 15.69 118.45 13.66 110.34 C 13.08 108.38 13.92 106.41 13.86 104.43 C 13.39 102.13 12.66 99.86 12.63 97.49 C 12.50 91.33 10.81 85.24 11.68 79.06 C 11.89 70.26 12.66 61.43 15.25 52.98 Z" />
<path fill="#a8b9df" opacity="1.00" d=" M 43.56 111.59 C 42.22 105.84 40.28 99.50 43.01 93.85 C 43.09 96.97 43.39 100.08 43.72 103.18 C 46.21 104.59 48.72 105.99 50.96 107.78 C 50.17 107.84 48.58 107.96 47.79 108.02 C 48.59 111.93 49.39 115.85 50.42 119.71 C 49.79 121.09 49.23 122.50 48.63 123.90 C 47.42 127.43 43.61 128.86 41.10 131.30 C 41.95 127.56 41.78 123.74 41.83 119.94 C 41.77 117.02 44.54 114.55 43.56 111.59 Z" />
<path fill="#a8b9df" opacity="1.00" d=" M 91.74 111.32 C 94.57 110.46 97.67 108.99 100.64 110.05 C 103.21 112.10 104.88 115.03 106.77 117.68 C 107.08 117.65 107.69 117.59 107.99 117.56 C 108.55 118.32 109.12 119.07 109.66 119.85 C 112.97 123.14 111.91 129.05 107.50 130.76 C 102.83 127.51 96.37 124.82 90.97 127.96 C 83.49 132.30 80.02 141.36 79.97 149.69 C 76.22 149.71 72.47 149.75 68.72 149.85 C 68.74 150.32 68.78 151.26 68.80 151.73 C 70.48 151.78 72.16 151.83 73.83 151.90 C 72.20 154.53 69.56 155.99 66.45 156.01 C 66.04 153.57 65.65 151.13 65.30 148.69 C 66.90 147.81 68.48 146.94 70.08 146.07 C 70.23 146.71 70.52 148.00 70.67 148.64 C 71.99 148.66 73.30 148.68 74.62 148.70 C 76.29 142.75 74.62 136.69 72.93 130.96 C 72.40 130.96 71.33 130.97 70.80 130.97 C 70.59 129.87 70.37 128.77 70.16 127.67 C 71.34 127.53 72.52 127.37 73.69 127.20 C 72.95 124.68 72.06 122.21 71.03 119.80 C 72.50 118.65 73.81 117.09 75.66 116.56 C 76.98 116.62 78.26 116.95 79.54 117.24 C 79.09 120.20 78.78 123.17 78.63 126.15 C 83.21 126.39 88.43 127.28 92.41 124.41 C 95.70 121.28 95.47 116.29 95.06 112.13 C 94.23 111.93 92.57 111.53 91.74 111.32 Z" />
<path fill="#a8b9df" opacity="1.00" d=" M 61.58 171.70 C 63.12 168.66 66.02 166.87 68.98 165.43 C 68.06 168.72 68.97 172.02 70.52 174.96 C 67.25 174.83 64.07 173.88 61.58 171.70 Z" />
<path fill="#a8b9df" opacity="1.00" d=" M 115.00 184.46 C 117.92 181.25 118.09 176.73 120.00 173.01 C 119.35 177.14 119.39 182.40 115.00 184.46 Z" />
<path fill="#a8b9df" opacity="1.00" d=" M 70.39 185.59 C 71.58 187.40 72.76 189.28 74.47 190.66 C 76.63 191.48 78.96 191.66 81.24 191.93 C 78.27 191.86 75.31 191.64 72.34 191.48 C 71.66 189.53 70.97 187.58 70.39 185.59 Z" />
</g>
<g id="#f1effaff">
<path fill="#f1effa" opacity="1.00" d=" M 50.37 80.24 C 57.74 72.59 67.67 67.36 78.24 66.02 C 74.80 69.36 71.25 72.66 68.71 76.77 C 66.01 81.11 62.50 85.18 61.65 90.39 C 65.80 87.05 67.64 81.89 70.81 77.76 C 74.57 72.70 79.29 67.40 85.99 66.80 C 90.91 68.51 95.47 71.14 99.72 74.13 C 104.84 77.66 107.74 83.38 110.22 88.90 C 113.68 96.24 113.52 104.98 110.65 112.48 C 109.70 114.82 109.32 117.33 109.66 119.85 C 109.12 119.07 108.55 118.32 107.99 117.56 C 107.69 117.59 107.08 117.65 106.77 117.68 C 104.88 115.03 103.21 112.10 100.64 110.05 C 97.67 108.99 94.57 110.46 91.74 111.32 C 87.45 112.80 83.32 114.72 79.54 117.24 C 78.26 116.95 76.98 116.62 75.66 116.56 C 73.81 117.09 72.50 118.65 71.03 119.80 C 72.06 122.21 72.95 124.68 73.69 127.20 C 72.52 127.37 71.34 127.53 70.16 127.67 C 68.76 127.52 67.37 127.29 65.98 127.07 C 65.56 127.63 64.72 128.74 64.30 129.30 C 66.32 130.34 68.50 131.05 70.80 130.97 C 71.33 130.97 72.40 130.96 72.93 130.96 C 74.62 136.69 76.29 142.75 74.62 148.70 C 73.30 148.68 71.99 148.66 70.67 148.64 C 70.52 148.00 70.23 146.71 70.08 146.07 C 69.93 145.42 69.64 144.13 69.49 143.48 C 67.37 143.13 65.24 142.81 63.10 142.58 C 63.18 143.58 63.35 145.59 63.43 146.59 C 62.71 147.31 61.97 148.00 61.22 148.69 C 58.75 148.22 56.28 147.63 53.96 146.65 C 53.59 146.46 52.86 146.08 52.49 145.88 C 52.84 143.98 53.17 142.07 53.42 140.15 C 51.21 140.80 49.10 141.70 47.07 142.77 C 45.71 142.11 44.36 141.46 43.00 140.80 C 43.72 138.75 44.55 136.74 45.31 134.70 C 43.86 134.82 42.41 134.95 40.96 135.10 C 40.47 134.29 39.99 133.48 39.52 132.66 C 39.92 132.32 40.70 131.64 41.10 131.30 C 43.61 128.86 47.42 127.43 48.63 123.90 C 49.23 122.50 49.79 121.09 50.42 119.71 C 51.84 121.32 53.20 123.20 55.28 123.98 C 57.25 124.97 58.83 122.96 60.49 122.23 C 58.87 117.68 56.16 113.64 52.96 110.06 C 52.31 109.29 51.64 108.53 50.96 107.78 C 48.72 105.99 46.21 104.59 43.72 103.18 C 43.39 100.08 43.09 96.97 43.01 93.85 C 43.80 91.00 45.14 88.32 46.66 85.79 C 47.71 85.05 48.70 84.08 50.00 83.82 C 51.88 84.85 53.47 86.33 55.06 87.75 C 53.31 85.36 51.76 82.84 50.37 80.24 M 64.91 89.25 C 70.06 90.94 75.66 90.83 80.63 93.16 C 77.09 95.75 72.51 96.36 69.02 99.02 C 67.84 100.66 68.40 103.02 68.03 104.96 C 68.78 103.11 69.36 101.17 70.44 99.49 C 74.47 96.33 79.85 95.64 83.97 92.62 C 77.68 91.23 71.42 89.22 64.91 89.25 Z" />
<path fill="#f1effa" opacity="1.00" d=" M 53.17 185.92 C 56.48 185.08 59.87 185.81 62.98 187.04 C 62.52 188.27 62.06 189.50 61.61 190.73 C 53.44 191.60 44.82 189.09 37.04 192.52 C 37.16 192.01 37.38 191.01 37.49 190.51 C 40.61 190.46 43.77 190.69 46.85 190.08 C 49.16 189.02 51.03 187.25 53.17 185.92 Z" />
</g>
<g id="#6d7b9eff">
<path fill="#6d7b9e" opacity="1.00" d=" M 78.24 66.02 C 80.84 66.05 83.47 66.07 85.99 66.80 C 79.29 67.40 74.57 72.70 70.81 77.76 C 67.64 81.89 65.80 87.05 61.65 90.39 C 62.50 85.18 66.01 81.11 68.71 76.77 C 71.25 72.66 74.80 69.36 78.24 66.02 Z" />
<path fill="#6d7b9e" opacity="1.00" d=" M 31.80 74.82 C 34.39 78.28 34.03 82.90 34.13 86.99 C 33.39 99.31 34.32 111.75 36.97 123.81 C 37.63 126.80 37.92 129.98 39.52 132.66 C 39.99 133.48 40.47 134.29 40.96 135.10 C 42.41 134.95 43.86 134.82 45.31 134.70 C 44.55 136.74 43.72 138.75 43.00 140.80 C 44.76 144.89 48.14 148.06 49.72 152.27 C 47.77 157.35 43.12 160.48 39.02 163.71 C 39.06 163.21 39.14 162.19 39.18 161.69 C 39.86 159.09 41.69 156.36 40.32 153.67 C 38.07 148.86 36.92 142.89 32.07 139.92 C 29.54 137.96 26.46 136.99 23.38 136.31 C 22.95 135.52 22.51 134.73 22.09 133.94 C 25.64 131.50 25.34 126.83 25.62 123.03 C 25.70 115.94 28.31 109.10 27.66 101.97 C 27.09 92.81 26.64 82.88 31.80 74.82 Z" />
<path fill="#6d7b9e" opacity="1.00" d=" M 63.10 142.58 C 65.24 142.81 67.37 143.13 69.49 143.48 C 67.46 144.49 65.43 145.50 63.43 146.59 C 63.35 145.59 63.18 143.58 63.10 142.58 Z" />
<path fill="#6d7b9e" opacity="1.00" d=" M 62.82 161.85 C 64.97 159.95 67.63 158.80 70.17 157.52 C 70.49 158.06 71.14 159.13 71.46 159.67 C 72.78 159.81 74.10 159.94 75.43 160.05 C 75.82 163.89 72.82 166.65 71.70 170.05 C 71.12 174.23 75.34 176.56 78.02 178.93 C 76.07 178.89 74.12 178.77 72.18 178.63 C 71.64 177.40 71.08 176.18 70.52 174.96 C 68.97 172.02 68.06 168.72 68.98 165.43 C 66.02 166.87 63.12 168.66 61.58 171.70 C 60.61 170.99 59.66 170.26 58.71 169.54 C 59.79 166.85 60.64 163.89 62.82 161.85 Z" />
<path fill="#6d7b9e" opacity="1.00" d=" M 45.35 168.56 C 47.21 163.99 50.81 160.52 54.97 158.01 C 55.11 161.61 53.94 165.02 51.96 167.99 C 52.42 169.07 52.89 170.15 53.37 171.23 C 51.92 170.89 50.48 170.53 49.02 170.23 C 46.36 169.62 43.63 169.54 40.91 169.53 L 41.56 169.39 C 42.82 169.12 44.08 168.84 45.35 168.56 Z" />
<path fill="#6d7b9e" opacity="1.00" d=" M 52.36 174.81 C 53.46 176.00 54.63 177.11 55.81 178.23 C 55.64 178.33 55.30 178.54 55.14 178.64 C 54.12 178.64 53.10 178.54 52.08 178.47 C 52.17 177.25 52.27 176.03 52.36 174.81 Z" />
<path fill="#6d7b9e" opacity="1.00" d=" M 86.71 178.70 C 87.07 178.70 87.79 178.70 88.15 178.70 C 88.48 179.75 88.77 180.82 89.02 181.91 C 88.63 183.77 88.10 185.60 87.45 187.40 C 87.25 184.49 86.98 181.59 86.71 178.70 Z" />
<path fill="#6d7b9e" opacity="1.00" d=" M 110.29 188.69 C 110.84 185.68 111.50 182.70 112.39 179.78 C 112.49 181.02 112.59 182.27 112.67 183.52 C 112.53 185.84 111.63 188.22 112.25 190.53 C 113.13 190.94 114.01 191.34 114.89 191.75 C 110.16 191.17 105.40 190.89 100.64 191.07 C 100.64 189.62 100.66 188.17 100.68 186.73 C 101.77 186.43 102.87 186.15 103.98 185.89 C 104.19 187.01 104.41 188.13 104.63 189.26 C 106.51 189.07 108.40 188.89 110.29 188.69 Z" />
</g>
<g id="#7b3b3cff">
<path fill="#7b3b3c" opacity="1.00" d=" M 46.66 85.79 C 47.80 83.87 49.05 82.03 50.37 80.24 C 51.76 82.84 53.31 85.36 55.06 87.75 C 53.47 86.33 51.88 84.85 50.00 83.82 C 48.70 84.08 47.71 85.05 46.66 85.79 Z" />
<path fill="#7b3b3c" opacity="1.00" d=" M 64.91 89.25 C 71.42 89.22 77.68 91.23 83.97 92.62 C 79.85 95.64 74.47 96.33 70.44 99.49 C 69.36 101.17 68.78 103.11 68.03 104.96 C 68.40 103.02 67.84 100.66 69.02 99.02 C 72.51 96.36 77.09 95.75 80.63 93.16 C 75.66 90.83 70.06 90.94 64.91 89.25 Z" />
<path fill="#7b3b3c" opacity="1.00" d=" M 52.96 110.06 C 56.16 113.64 58.87 117.68 60.49 122.23 C 58.09 121.13 55.31 120.53 53.37 118.64 C 51.79 116.06 52.78 112.88 52.96 110.06 Z" />
<path fill="#7b3b3c" opacity="1.00" d=" M 82.81 117.80 C 84.91 115.80 88.04 116.38 90.68 116.34 C 91.02 119.17 91.29 122.78 88.10 124.11 C 85.47 126.42 82.53 123.90 80.61 121.99 C 81.30 120.58 81.86 119.07 82.81 117.80 Z" />
<path fill="#7b3b3c" opacity="1.00" d=" M 90.97 127.96 C 96.37 124.82 102.83 127.51 107.50 130.76 C 110.12 132.68 112.24 135.20 114.02 137.91 C 117.10 142.55 120.26 147.16 122.82 152.12 C 123.63 153.62 123.26 155.38 123.35 157.00 C 123.24 161.20 124.14 165.42 123.52 169.59 C 122.70 171.03 121.11 171.81 120.00 173.01 C 118.09 176.73 117.92 181.25 115.00 184.46 C 114.42 184.23 113.25 183.76 112.67 183.52 C 112.59 182.27 112.49 181.02 112.39 179.78 C 111.50 182.70 110.84 185.68 110.29 188.69 C 108.40 188.89 106.51 189.07 104.63 189.26 C 104.41 188.13 104.19 187.01 103.98 185.89 C 102.87 186.15 101.77 186.43 100.68 186.73 C 100.66 188.17 100.64 189.62 100.64 191.07 C 94.89 191.65 92.95 184.31 94.18 179.78 C 92.46 180.48 90.73 181.18 89.02 181.91 C 88.77 180.82 88.48 179.75 88.15 178.70 C 87.79 178.70 87.07 178.70 86.71 178.70 C 83.81 178.77 80.92 178.93 78.02 178.93 C 75.34 176.56 71.12 174.23 71.70 170.05 C 72.82 166.65 75.82 163.89 75.43 160.05 C 77.21 159.93 78.97 159.70 80.75 159.49 C 80.44 156.23 80.00 152.97 79.97 149.69 C 80.02 141.36 83.49 132.30 90.97 127.96 M 108.10 140.27 C 107.74 146.08 107.81 152.64 111.73 157.34 C 112.86 158.92 116.68 159.49 116.55 156.77 C 116.97 153.98 116.98 151.10 116.45 148.32 C 115.35 144.37 111.91 141.51 108.10 140.27 M 95.38 149.30 C 93.95 151.64 93.74 154.51 93.38 157.18 C 92.71 161.65 95.29 165.62 96.71 169.68 C 98.52 169.59 100.47 169.97 102.16 169.16 C 103.99 167.11 104.67 164.31 105.26 161.70 C 106.22 157.81 103.58 154.32 101.73 151.16 C 100.61 149.03 97.35 147.16 95.38 149.30 Z" />
<path fill="#7b3b3c" opacity="1.00" d=" M 47.07 142.77 C 49.10 141.70 51.21 140.80 53.42 140.15 C 53.17 142.07 52.84 143.98 52.49 145.88 C 52.86 146.08 53.59 146.46 53.96 146.65 C 53.05 147.02 52.14 147.39 51.23 147.76 C 50.74 149.27 50.26 150.78 49.72 152.27 C 48.14 148.06 44.76 144.89 43.00 140.80 C 44.36 141.46 45.71 142.11 47.07 142.77 Z" />
</g>
<g id="#2f2533ff">
<path fill="#2f2533" opacity="1.00" d=" M 47.79 108.02 C 48.58 107.96 50.17 107.84 50.96 107.78 C 51.64 108.53 52.31 109.29 52.96 110.06 C 52.78 112.88 51.79 116.06 53.37 118.64 C 55.31 120.53 58.09 121.13 60.49 122.23 C 58.83 122.96 57.25 124.97 55.28 123.98 C 53.20 123.20 51.84 121.32 50.42 119.71 C 49.39 115.85 48.59 111.93 47.79 108.02 Z" />
<path fill="#2f2533" opacity="1.00" d=" M 79.54 117.24 C 83.32 114.72 87.45 112.80 91.74 111.32 C 92.57 111.53 94.23 111.93 95.06 112.13 C 95.47 116.29 95.70 121.28 92.41 124.41 C 88.43 127.28 83.21 126.39 78.63 126.15 C 78.78 123.17 79.09 120.20 79.54 117.24 M 82.81 117.80 C 81.86 119.07 81.30 120.58 80.61 121.99 C 82.53 123.90 85.47 126.42 88.10 124.11 C 91.29 122.78 91.02 119.17 90.68 116.34 C 88.04 116.38 84.91 115.80 82.81 117.80 Z" />
<path fill="#2f2533" opacity="1.00" d=" M 65.98 127.07 C 67.37 127.29 68.76 127.52 70.16 127.67 C 70.37 128.77 70.59 129.87 70.80 130.97 C 68.50 131.05 66.32 130.34 64.30 129.30 C 64.72 128.74 65.56 127.63 65.98 127.07 Z" />
<path fill="#2f2533" opacity="1.00" d=" M 108.10 140.27 C 111.91 141.51 115.35 144.37 116.45 148.32 C 116.98 151.10 116.97 153.98 116.55 156.77 C 116.68 159.49 112.86 158.92 111.73 157.34 C 107.81 152.64 107.74 146.08 108.10 140.27 Z" />
<path fill="#2f2533" opacity="1.00" d=" M 63.43 146.59 C 65.43 145.50 67.46 144.49 69.49 143.48 C 69.64 144.13 69.93 145.42 70.08 146.07 C 68.48 146.94 66.90 147.81 65.30 148.69 C 65.65 151.13 66.04 153.57 66.45 156.01 C 69.56 155.99 72.20 154.53 73.83 151.90 C 72.16 151.83 70.48 151.78 68.80 151.73 C 68.78 151.26 68.74 150.32 68.72 149.85 C 72.47 149.75 76.22 149.71 79.97 149.69 C 80.00 152.97 80.44 156.23 80.75 159.49 C 78.97 159.70 77.21 159.93 75.43 160.05 C 74.10 159.94 72.78 159.81 71.46 159.67 C 71.14 159.13 70.49 158.06 70.17 157.52 C 67.63 158.80 64.97 159.95 62.82 161.85 C 60.64 163.89 59.79 166.85 58.71 169.54 C 59.66 170.26 60.61 170.99 61.58 171.70 C 64.07 173.88 67.25 174.83 70.52 174.96 C 71.08 176.18 71.64 177.40 72.18 178.63 C 71.39 180.86 69.75 183.13 70.39 185.59 C 70.97 187.58 71.66 189.53 72.34 191.48 C 75.31 191.64 78.27 191.86 81.24 191.93 C 84.45 192.67 86.82 190.39 87.45 187.40 C 88.10 185.60 88.63 183.77 89.02 181.91 C 90.73 181.18 92.46 180.48 94.18 179.78 C 92.95 184.31 94.89 191.65 100.64 191.07 C 105.40 190.89 110.16 191.17 114.89 191.75 C 116.61 191.91 118.34 192.02 120.07 192.17 C 120.08 194.37 120.05 196.56 119.98 198.75 C 92.01 198.75 64.04 198.91 36.07 198.67 C 36.36 196.61 36.68 194.56 37.04 192.52 C 44.82 189.09 53.44 191.60 61.61 190.73 C 62.06 189.50 62.52 188.27 62.98 187.04 C 59.87 185.81 56.48 185.08 53.17 185.92 C 52.41 183.16 52.25 180.19 55.14 178.64 C 55.30 178.54 55.64 178.33 55.81 178.23 C 54.63 177.11 53.46 176.00 52.36 174.81 C 51.12 173.38 50.10 171.78 49.02 170.23 C 50.48 170.53 51.92 170.89 53.37 171.23 C 52.89 170.15 52.42 169.07 51.96 167.99 C 53.94 165.02 55.11 161.61 54.97 158.01 C 50.81 160.52 47.21 163.99 45.35 168.56 C 44.08 168.84 42.82 169.12 41.56 169.39 C 39.36 167.10 37.86 164.11 38.61 160.87 L 39.18 161.69 C 39.14 162.19 39.06 163.21 39.02 163.71 C 43.12 160.48 47.77 157.35 49.72 152.27 C 50.26 150.78 50.74 149.27 51.23 147.76 C 52.14 147.39 53.05 147.02 53.96 146.65 C 56.28 147.63 58.75 148.22 61.22 148.69 C 61.97 148.00 62.71 147.31 63.43 146.59 Z" />
<path fill="#2f2533" opacity="1.00" d=" M 95.38 149.30 C 97.35 147.16 100.61 149.03 101.73 151.16 C 103.58 154.32 106.22 157.81 105.26 161.70 C 104.67 164.31 103.99 167.11 102.16 169.16 C 100.47 169.97 98.52 169.59 96.71 169.68 C 95.29 165.62 92.71 161.65 93.38 157.18 C 93.74 154.51 93.95 151.64 95.38 149.30 Z" />
</g>
</svg>
