<?xml version="1.0" encoding="UTF-8" ?>
<!DOCTYPE svg PUBLIC "-//W3C//DTD SVG 1.1//EN" "http://www.w3.org/Graphics/SVG/1.1/DTD/svg11.dtd">
<svg width="155pt" height="210pt" viewBox="0 0 155 210" version="1.1" xmlns="http://www.w3.org/2000/svg">
<g id="#829ab1ff">
<path fill="#829ab1" opacity="1.00" d=" M 14.67 46.48 C 15.41 45.74 16.16 45.01 16.92 44.29 C 17.76 45.39 18.57 46.65 20.02 46.99 C 23.69 51.45 27.18 56.04 30.81 60.53 C 28.93 68.82 26.51 77.15 27.71 85.75 C 27.10 91.84 28.31 97.86 29.43 103.82 C 28.62 107.73 27.82 111.70 28.34 115.71 C 25.51 117.16 22.42 117.85 19.37 118.64 C 19.23 118.97 18.95 119.64 18.80 119.97 C 18.49 119.49 17.85 118.53 17.53 118.05 C 17.53 117.40 17.53 116.10 17.52 115.44 L 16.28 115.43 C 16.40 114.96 16.65 114.02 16.77 113.55 L 15.68 113.53 C 15.67 112.27 15.39 111.11 14.81 110.03 C 13.17 106.11 12.50 101.66 14.85 97.88 C 10.72 97.80 12.39 92.38 11.63 89.66 C 11.95 89.00 12.60 87.66 12.92 86.99 C 12.43 86.66 11.46 86.01 10.98 85.68 C 10.31 76.10 10.97 66.37 13.04 56.99 C 13.66 53.50 14.40 50.02 14.67 46.48 Z" />
<path fill="#829ab1" opacity="1.00" d=" M 47.41 80.77 C 48.50 77.57 50.54 74.83 52.68 72.27 C 52.75 72.84 52.89 73.96 52.95 74.53 C 53.53 74.41 54.69 74.18 55.27 74.06 C 55.06 74.88 54.84 75.70 54.63 76.53 C 58.01 76.31 61.38 76.70 64.73 77.10 C 67.60 77.50 70.13 75.34 72.99 75.60 C 76.43 75.98 79.77 76.97 83.14 77.73 C 83.29 78.65 83.46 79.58 83.62 80.51 C 85.98 81.86 89.75 82.63 89.75 86.00 C 90.08 89.45 91.68 92.86 91.39 96.31 C 88.55 98.52 85.45 100.44 83.13 103.26 C 83.31 104.09 83.49 104.92 83.66 105.75 C 79.39 106.69 75.00 106.54 70.66 106.56 C 70.28 103.20 69.33 99.95 67.99 96.85 C 62.32 95.23 56.40 95.52 50.57 95.52 C 50.22 96.44 49.87 97.36 49.52 98.28 C 52.08 99.62 54.57 101.29 55.43 104.22 C 52.23 102.61 49.15 100.77 46.02 99.03 C 45.92 100.98 45.83 102.93 45.75 104.88 C 45.27 104.69 44.31 104.31 43.83 104.11 C 43.24 101.09 42.48 98.09 42.29 95.01 C 42.78 95.34 43.76 96.00 44.25 96.32 C 49.12 94.23 53.31 90.74 56.57 86.59 C 58.74 83.87 62.18 82.22 63.61 78.93 C 61.66 76.16 58.62 79.00 56.22 79.67 C 55.20 79.26 54.17 78.85 53.15 78.45 C 51.25 79.25 49.33 80.01 47.41 80.77 M 71.71 78.67 C 70.79 79.35 68.63 80.47 69.85 81.84 C 74.19 83.16 78.72 83.67 83.18 84.44 C 82.32 82.47 80.60 81.10 79.32 79.41 C 76.97 78.36 74.11 76.89 71.71 78.67 M 68.87 84.04 C 67.74 87.09 67.16 90.56 69.45 93.25 C 70.19 93.34 71.67 93.52 72.41 93.62 L 71.77 94.41 C 72.32 94.43 73.41 94.47 73.95 94.48 C 73.61 95.65 73.27 96.82 72.94 97.99 C 73.82 97.61 74.71 97.23 75.60 96.85 C 77.43 97.18 79.26 97.63 81.13 97.56 C 84.15 95.97 84.58 92.03 84.87 88.97 C 84.45 88.81 83.61 88.49 83.18 88.34 C 82.57 88.13 81.36 87.72 80.75 87.51 C 81.06 87.35 81.68 87.04 81.99 86.89 C 80.03 86.23 78.08 85.52 76.10 84.92 C 73.86 83.77 71.30 84.05 68.87 84.04 Z" />
<path fill="#829ab1" opacity="1.00" d=" M 44.12 111.87 C 44.92 111.04 45.76 110.27 46.64 109.54 C 47.05 110.78 47.46 112.02 47.88 113.25 C 48.89 113.45 49.90 113.66 50.91 113.87 C 52.04 115.71 53.08 117.96 55.31 118.66 C 57.20 119.11 59.18 118.93 61.11 118.97 C 61.15 119.48 61.23 120.50 61.27 121.00 C 59.13 121.41 56.98 121.78 54.82 122.06 C 50.95 122.81 46.74 120.46 43.27 122.98 C 43.00 121.01 42.86 119.03 42.75 117.04 C 44.07 116.41 45.40 115.77 46.72 115.13 C 45.85 114.04 44.99 112.95 44.12 111.87 Z" />
<path fill="#829ab1" opacity="1.00" d=" M 102.42 126.31 C 106.74 123.92 108.61 118.95 112.85 116.44 C 113.15 116.90 113.74 117.82 114.04 118.28 C 113.95 118.83 113.77 119.92 113.68 120.47 C 111.37 122.67 109.09 124.92 106.51 126.83 C 106.30 128.24 106.11 129.65 105.86 131.06 L 105.67 132.04 C 101.92 131.82 98.27 132.60 95.26 134.96 C 96.06 135.58 96.87 136.20 97.69 136.83 C 97.62 137.38 97.49 138.50 97.42 139.06 C 95.85 139.26 94.28 139.46 92.71 139.66 C 91.73 141.17 90.75 142.68 89.77 144.18 C 89.36 143.13 88.95 142.07 88.58 141.01 L 88.34 140.21 C 88.18 139.45 87.86 137.93 87.70 137.17 C 84.70 137.76 81.58 137.88 78.79 136.44 C 78.77 138.48 78.73 140.53 78.70 142.57 C 77.24 142.53 75.79 142.48 74.34 142.44 C 74.28 141.89 74.17 140.80 74.11 140.25 C 75.23 139.99 76.35 139.72 77.48 139.46 C 77.60 137.27 77.77 135.09 78.00 132.91 C 77.80 132.44 77.40 131.51 77.20 131.05 C 80.08 132.26 83.29 132.46 86.27 131.50 C 91.67 129.82 97.24 128.62 102.42 126.31 M 90.28 131.32 C 88.75 132.37 87.48 133.72 86.48 135.28 C 90.20 134.64 89.58 138.63 90.25 141.05 C 90.05 137.80 91.02 134.52 90.28 131.32 Z" />
<path fill="#829ab1" opacity="1.00" d=" M 41.78 127.38 C 43.51 126.01 45.18 124.60 46.80 123.11 C 44.95 126.15 46.34 129.70 45.28 132.85 C 45.36 131.98 45.51 130.25 45.59 129.38 C 43.90 130.17 42.24 131.00 40.56 131.78 C 40.05 129.30 40.88 126.96 41.98 124.78 C 41.93 125.43 41.83 126.73 41.78 127.38 Z" />
<path fill="#829ab1" opacity="1.00" d=" M 56.95 123.79 C 57.68 123.77 59.16 123.74 59.89 123.72 C 59.56 125.23 59.22 126.73 58.89 128.24 C 60.31 128.87 61.77 129.42 63.24 129.95 C 63.55 130.09 64.16 130.36 64.47 130.50 C 65.08 131.64 64.58 133.06 64.70 134.30 C 64.47 133.55 63.99 132.03 63.76 131.27 C 60.41 130.22 58.14 134.19 56.41 136.49 C 56.15 135.99 55.63 134.99 55.37 134.49 C 51.65 134.02 48.15 135.86 44.86 137.32 C 44.67 136.85 44.29 135.90 44.10 135.42 C 44.29 135.05 44.67 134.30 44.87 133.92 C 44.88 134.57 44.91 135.86 44.93 136.50 C 47.25 134.66 49.11 132.33 50.44 129.69 C 51.25 130.58 51.53 132.34 52.96 132.41 C 55.21 131.09 57.13 129.18 58.39 126.89 C 58.05 125.79 57.57 124.76 56.95 123.79 Z" />
<path fill="#829ab1" opacity="1.00" d=" M 62.08 142.98 C 62.69 144.08 63.28 145.18 63.88 146.29 C 64.69 146.43 65.50 146.56 66.31 146.70 C 66.96 147.80 67.58 148.92 68.19 150.05 C 68.53 151.32 68.79 152.61 69.06 153.89 C 67.22 155.45 65.02 156.56 63.27 158.23 C 61.15 161.41 60.01 165.20 57.41 168.09 C 56.96 168.47 56.05 169.23 55.59 169.61 C 54.27 167.42 56.63 165.99 57.79 164.44 C 56.98 163.94 56.18 163.44 55.37 162.94 C 56.83 161.59 58.09 160.05 58.80 158.17 C 56.28 158.80 53.74 159.42 51.14 159.59 C 52.38 157.95 53.33 155.82 55.42 155.10 C 55.35 154.43 55.29 153.77 55.25 153.10 C 58.09 151.37 61.56 149.32 61.64 145.57 C 61.75 144.92 61.97 143.63 62.08 142.98 Z" />
<path fill="#829ab1" opacity="1.00" d=" M 54.36 175.23 C 53.32 171.61 57.75 171.31 59.98 170.03 C 59.69 170.52 59.11 171.49 58.82 171.98 C 59.06 172.55 59.53 173.70 59.76 174.27 C 58.65 175.03 57.54 175.78 56.45 176.57 C 57.73 175.18 59.58 173.58 57.28 171.93 C 56.55 172.76 55.09 174.40 54.36 175.23 Z" />
<path fill="#829ab1" opacity="1.00" d=" M 76.72 175.65 C 77.06 174.23 78.56 173.17 79.99 173.80 C 80.78 175.76 78.06 176.83 76.72 175.65 Z" />
<path fill="#829ab1" opacity="1.00" d=" M 68.05 177.42 C 68.67 177.52 69.89 177.72 70.50 177.83 L 71.03 179.04 C 71.58 180.85 71.86 182.74 72.24 184.60 C 72.42 186.10 72.75 187.59 72.98 189.09 C 71.89 190.58 69.75 190.48 68.10 190.55 C 68.19 188.08 68.90 185.74 70.82 184.10 C 69.69 183.72 68.56 183.33 67.44 182.95 C 68.13 182.28 68.82 181.61 69.51 180.94 C 68.96 179.79 68.48 178.62 68.05 177.42 Z" />
</g>
<g id="#658b9dff">
<path fill="#658b9d" opacity="1.00" d=" M 77.46 58.38 C 79.81 57.68 82.31 57.76 84.72 57.93 C 88.47 59.42 91.91 61.64 95.86 62.62 C 97.00 62.94 98.16 63.24 99.32 63.55 C 99.68 64.88 100.99 65.18 102.11 65.67 C 102.69 66.49 103.40 67.19 104.22 67.77 L 104.63 68.56 C 106.35 72.48 109.90 75.22 111.50 79.20 C 113.50 83.94 115.84 88.77 115.95 94.01 C 116.07 99.72 114.44 105.25 112.79 110.66 C 112.16 112.55 111.98 114.60 112.85 116.44 C 108.61 118.95 106.74 123.92 102.42 126.31 C 102.11 125.24 101.79 124.18 101.48 123.12 C 104.03 120.73 104.57 117.19 106.39 114.35 C 107.80 112.27 107.95 109.62 107.67 107.20 C 105.05 104.57 101.53 103.16 98.32 101.42 C 93.71 103.69 88.66 104.75 83.66 105.75 C 83.49 104.92 83.31 104.09 83.13 103.26 C 85.45 100.44 88.55 98.52 91.39 96.31 C 91.68 92.86 90.08 89.45 89.75 86.00 C 89.75 82.63 85.98 81.86 83.62 80.51 C 83.46 79.58 83.29 78.65 83.14 77.73 C 79.77 76.97 76.43 75.98 72.99 75.60 C 70.13 75.34 67.60 77.50 64.73 77.10 C 61.38 76.70 58.01 76.31 54.63 76.53 C 54.84 75.70 55.06 74.88 55.27 74.06 C 54.69 74.18 53.53 74.41 52.95 74.53 C 52.89 73.96 52.75 72.84 52.68 72.27 C 59.36 65.38 68.16 60.61 77.46 58.38 M 93.95 80.19 C 95.01 82.32 96.23 84.43 98.12 85.94 C 99.39 87.41 101.27 85.90 102.79 85.72 C 102.54 84.15 103.14 82.22 102.17 80.90 C 99.60 79.81 96.65 79.17 93.95 80.19 Z" />
<path fill="#658b9d" opacity="1.00" d=" M 29.43 103.82 C 30.74 110.73 33.09 117.54 33.59 124.56 C 31.87 128.39 27.59 130.75 23.59 131.50 L 22.81 131.64 C 22.65 130.11 22.37 128.59 21.80 127.16 C 20.53 124.89 19.29 122.55 18.80 119.97 C 18.95 119.64 19.23 118.97 19.37 118.64 C 22.42 117.85 25.51 117.16 28.34 115.71 C 27.82 111.70 28.62 107.73 29.43 103.82 Z" />
<path fill="#658b9d" opacity="1.00" d=" M 98.11 104.68 C 98.84 106.41 99.67 108.13 99.95 110.00 C 100.57 112.46 98.23 114.06 97.17 115.97 C 97.60 113.28 97.41 110.55 97.40 107.84 C 97.61 106.78 97.85 105.72 98.11 104.68 Z" />
<path fill="#658b9d" opacity="1.00" d=" M 78.31 118.57 C 79.56 116.88 80.84 115.22 82.23 113.64 C 81.55 116.20 81.97 118.81 82.79 121.27 C 84.59 121.59 86.38 121.94 88.18 122.27 C 87.95 122.59 87.49 123.23 87.27 123.55 C 88.00 123.54 89.48 123.53 90.22 123.53 C 88.60 124.34 87.02 125.22 85.44 126.10 C 87.16 126.81 88.82 128.37 90.77 128.12 C 92.21 127.19 93.43 125.97 94.72 124.85 C 93.95 124.44 92.41 123.62 91.64 123.20 C 93.39 122.64 95.13 122.01 96.82 121.26 C 96.88 123.11 96.88 124.96 96.79 126.81 C 98.66 126.63 100.54 126.46 102.42 126.31 C 97.24 128.62 91.67 129.82 86.27 131.50 C 83.29 132.46 80.08 132.26 77.20 131.05 C 75.07 129.82 73.31 128.08 71.81 126.14 C 72.23 126.00 73.07 125.70 73.49 125.55 C 73.14 124.41 72.76 123.28 72.39 122.15 C 70.54 122.79 68.68 123.42 66.83 124.06 C 66.78 123.91 66.70 123.61 66.66 123.46 C 67.47 121.99 68.37 120.58 69.25 119.17 C 72.27 118.92 75.29 118.72 78.31 118.57 Z" />
<path fill="#658b9d" opacity="1.00" d=" M 114.04 118.28 C 116.33 121.16 112.77 123.97 111.37 126.37 C 109.32 127.66 107.43 129.20 105.86 131.06 C 106.11 129.65 106.30 128.24 106.51 126.83 C 109.09 124.92 111.37 122.67 113.68 120.47 C 113.77 119.92 113.95 118.83 114.04 118.28 Z" />
<path fill="#658b9d" opacity="1.00" d=" M 63.24 129.95 C 64.16 128.70 65.11 127.47 66.11 126.28 C 67.13 127.52 68.17 128.75 69.17 130.01 C 69.46 132.71 71.21 134.58 73.54 135.76 C 73.75 137.26 73.94 138.75 74.11 140.25 C 74.17 140.80 74.28 141.89 74.34 142.44 C 75.79 142.48 77.24 142.53 78.70 142.57 C 78.73 140.53 78.77 138.48 78.79 136.44 C 81.58 137.88 84.70 137.76 87.70 137.17 C 87.86 137.93 88.18 139.45 88.34 140.21 C 87.57 139.52 86.78 138.84 86.00 138.17 C 83.94 139.38 82.99 141.28 83.43 143.65 C 83.09 144.03 82.41 144.77 82.07 145.14 C 81.91 144.17 81.76 143.21 81.61 142.25 C 80.88 143.62 80.72 145.70 78.93 146.15 C 77.07 146.67 75.12 146.07 73.24 145.96 C 73.04 144.84 72.84 143.73 72.64 142.63 C 71.94 142.98 71.26 143.35 70.51 143.58 C 70.61 142.26 70.71 140.93 70.80 139.60 C 70.25 139.54 69.15 139.42 68.60 139.35 C 67.89 137.86 67.19 136.37 66.48 134.89 C 65.05 137.15 63.71 139.47 62.47 141.84 C 61.59 140.40 60.71 138.97 59.83 137.53 C 59.29 137.54 58.21 137.56 57.67 137.56 C 58.53 136.54 59.33 135.47 60.15 134.40 C 61.66 134.38 63.18 134.35 64.70 134.30 C 64.58 133.06 65.08 131.64 64.47 130.50 C 64.16 130.36 63.55 130.09 63.24 129.95 Z" />
<path fill="#658b9d" opacity="1.00" d=" M 95.26 134.96 C 98.27 132.60 101.92 131.82 105.67 132.04 L 106.89 131.96 C 107.09 133.76 107.19 135.57 106.84 137.36 C 103.87 136.44 100.75 136.39 97.69 136.83 C 96.87 136.20 96.06 135.58 95.26 134.96 Z" />
<path fill="#658b9d" opacity="1.00" d=" M 92.71 139.66 C 94.28 139.46 95.85 139.26 97.42 139.06 C 97.75 139.59 98.39 140.65 98.72 141.19 C 95.73 144.59 90.90 145.90 86.52 145.02 C 87.22 143.69 87.93 142.36 88.58 141.01 C 88.95 142.07 89.36 143.13 89.77 144.18 C 90.75 142.68 91.73 141.17 92.71 139.66 Z" />
<path fill="#658b9d" opacity="1.00" d=" M 42.72 151.04 C 44.47 152.23 46.19 153.46 47.93 154.68 L 47.58 155.44 C 45.73 155.58 43.87 155.66 42.01 155.71 C 42.25 154.15 42.48 152.59 42.72 151.04 Z" />
<path fill="#658b9d" opacity="1.00" d=" M 99.35 167.20 C 99.97 167.08 101.21 166.83 101.82 166.71 L 102.85 166.46 C 103.50 167.82 104.56 168.87 105.72 169.81 C 104.37 171.05 102.98 172.38 103.48 174.46 L 102.04 174.60 C 100.14 173.78 98.22 173.00 96.28 172.29 C 97.48 170.70 98.43 168.95 99.35 167.20 Z" />
</g>
<g id="#4a5a68ff">
<path fill="#4a5a68" opacity="1.00" d=" M 84.72 57.93 C 86.51 58.13 89.22 57.07 89.86 59.45 C 92.30 59.16 93.53 61.67 95.90 61.59 L 95.86 62.62 C 91.91 61.64 88.47 59.42 84.72 57.93 Z" />
<path fill="#4a5a68" opacity="1.00" d=" M 104.63 68.56 C 105.02 68.52 105.81 68.43 106.21 68.39 C 106.49 69.56 107.19 70.30 108.31 70.62 C 108.61 71.64 109.28 72.29 110.33 72.56 C 110.44 73.97 110.55 75.37 110.68 76.78 C 112.65 78.03 113.19 80.64 115.31 81.68 C 115.68 83.51 114.59 86.59 117.36 86.66 C 117.54 90.65 117.56 94.64 117.57 98.63 C 117.14 98.90 116.27 99.44 115.84 99.71 C 115.83 102.89 116.25 106.29 114.27 109.04 C 113.93 111.79 114.17 114.57 114.22 117.34 C 117.59 118.42 115.29 122.98 114.45 125.29 C 114.83 125.56 115.58 126.11 115.95 126.38 C 115.09 126.40 113.37 126.43 112.51 126.44 C 111.91 127.16 111.31 127.86 110.69 128.55 C 110.15 129.70 109.45 130.76 108.75 131.82 C 108.28 131.85 107.35 131.92 106.89 131.96 L 105.67 132.04 L 105.86 131.06 C 107.43 129.20 109.32 127.66 111.37 126.37 C 112.77 123.97 116.33 121.16 114.04 118.28 C 113.74 117.82 113.15 116.90 112.85 116.44 C 111.98 114.60 112.16 112.55 112.79 110.66 C 114.44 105.25 116.07 99.72 115.95 94.01 C 115.84 88.77 113.50 83.94 111.50 79.20 C 109.90 75.22 106.35 72.48 104.63 68.56 Z" />
<path fill="#4a5a68" opacity="1.00" d=" M 33.85 70.84 L 34.53 69.83 C 35.16 76.52 35.13 83.37 33.88 90.00 C 33.79 98.56 36.10 106.93 36.65 115.44 C 37.21 116.54 37.75 117.65 38.31 118.74 C 38.29 119.41 38.25 120.75 38.23 121.42 C 39.45 121.43 40.67 121.45 41.90 121.48 C 41.92 122.30 41.96 123.95 41.98 124.78 C 40.88 126.96 40.05 129.30 40.56 131.78 C 42.24 131.00 43.90 130.17 45.59 129.38 C 45.51 130.25 45.36 131.98 45.28 132.85 L 44.87 133.92 C 44.67 134.30 44.29 135.05 44.10 135.42 C 44.29 135.90 44.67 136.85 44.86 137.32 C 46.34 138.53 48.20 139.00 50.02 139.44 C 48.85 139.79 47.68 140.15 46.51 140.52 C 46.12 145.32 47.57 149.94 47.93 154.68 C 46.19 153.46 44.47 152.23 42.72 151.04 C 42.48 152.59 42.25 154.15 42.01 155.71 C 41.92 156.25 41.75 157.35 41.66 157.89 C 41.95 158.53 42.25 159.18 42.55 159.82 C 41.31 160.62 40.07 161.41 38.84 162.23 C 40.36 162.61 42.39 164.55 43.62 162.72 C 45.15 160.92 46.17 158.77 47.33 156.72 C 48.43 157.73 49.56 158.72 50.76 159.63 C 50.54 160.96 50.32 162.30 50.08 163.63 C 48.95 164.74 47.69 165.79 47.04 167.28 C 47.07 168.05 47.14 169.58 47.18 170.35 C 46.03 170.88 44.88 171.41 43.73 171.93 C 43.70 171.12 43.64 169.48 43.61 168.67 C 42.79 168.68 41.16 168.69 40.35 168.70 C 40.37 167.87 40.42 166.19 40.45 165.35 C 39.95 165.37 38.95 165.41 38.45 165.43 C 38.46 164.97 38.48 164.03 38.48 163.56 C 38.00 163.57 37.04 163.58 36.56 163.58 C 36.57 160.17 36.54 156.76 36.44 153.35 C 36.92 153.31 37.88 153.24 38.35 153.21 C 38.32 152.56 38.25 151.25 38.22 150.60 C 38.71 150.58 39.71 150.53 40.21 150.51 C 40.08 149.69 39.84 148.06 39.71 147.24 C 39.39 146.88 38.75 146.16 38.43 145.80 C 37.68 143.38 36.84 140.88 35.06 139.00 C 32.98 136.72 31.77 133.53 28.79 132.22 C 27.04 132.08 24.64 133.58 23.59 131.50 C 27.59 130.75 31.87 128.39 33.59 124.56 C 33.09 117.54 30.74 110.73 29.43 103.82 C 28.31 97.86 27.10 91.84 27.71 85.75 C 28.80 84.03 29.39 82.12 29.54 80.10 C 29.74 81.19 29.94 82.28 30.15 83.38 C 30.98 82.58 31.77 81.74 32.54 80.89 C 32.93 80.84 33.71 80.75 34.11 80.70 C 34.40 77.41 34.39 74.10 33.85 70.84 Z" />
<path fill="#4a5a68" opacity="1.00" d=" M 71.64 91.98 C 74.59 90.31 77.72 89.03 80.75 87.51 C 81.36 87.72 82.57 88.13 83.18 88.34 C 82.00 88.76 80.83 89.21 79.67 89.67 C 77.19 90.83 74.21 91.39 72.41 93.62 C 71.67 93.52 70.19 93.34 69.45 93.25 C 70.18 92.82 70.90 92.39 71.64 91.98 Z" />
<path fill="#4a5a68" opacity="1.00" d=" M 57.52 102.69 C 60.99 104.30 64.85 103.66 68.53 104.13 C 68.66 108.33 68.73 112.54 68.66 116.75 C 67.28 117.31 65.89 117.88 64.51 118.45 C 63.51 119.99 62.48 121.51 61.44 123.03 C 61.40 122.52 61.31 121.51 61.27 121.00 C 61.23 120.50 61.15 119.48 61.11 118.97 C 59.18 118.93 57.20 119.11 55.31 118.66 C 53.08 117.96 52.04 115.71 50.91 113.87 C 50.46 111.84 50.21 109.77 49.98 107.70 C 50.42 108.81 50.86 109.92 51.31 111.02 C 51.50 110.82 51.89 110.42 52.09 110.22 C 52.98 112.96 54.79 115.20 56.96 117.06 C 58.19 115.70 60.39 114.78 60.56 112.75 C 60.26 111.11 59.49 109.61 58.92 108.06 C 58.28 106.32 57.86 104.51 57.52 102.69 M 59.45 116.21 C 58.35 115.74 56.41 117.67 58.18 118.13 C 59.32 118.66 61.29 116.65 59.45 116.21 Z" />
<path fill="#4a5a68" opacity="1.00" d=" M 66.83 124.06 C 68.68 123.42 70.54 122.79 72.39 122.15 C 72.76 123.28 73.14 124.41 73.49 125.55 C 73.07 125.70 72.23 126.00 71.81 126.14 C 70.38 126.15 68.96 126.16 67.53 126.17 C 67.35 125.64 67.00 124.59 66.83 124.06 Z" />
<path fill="#4a5a68" opacity="1.00" d=" M 97.69 136.83 C 100.75 136.39 103.87 136.44 106.84 137.36 C 108.17 138.35 109.40 139.48 110.85 140.29 C 108.20 140.11 105.44 140.60 103.84 142.93 C 101.59 145.43 98.82 147.40 96.68 150.00 C 96.01 151.08 95.42 152.21 94.81 153.33 C 93.90 153.07 93.00 152.75 92.13 152.38 C 92.54 154.05 93.82 155.35 94.83 156.71 C 94.36 156.80 93.43 156.99 92.96 157.09 C 91.72 156.79 90.48 156.48 89.22 156.25 C 89.96 154.95 90.83 153.65 91.03 152.14 C 88.81 151.93 86.75 153.02 84.67 153.63 C 81.28 154.80 77.66 154.90 74.14 155.46 C 72.57 155.66 71.02 155.97 69.47 156.27 C 69.10 157.87 68.73 159.47 68.36 161.08 C 69.77 161.48 71.18 161.88 72.57 162.36 C 70.11 163.64 67.61 164.86 65.31 166.42 C 64.52 167.40 63.79 168.42 63.00 169.39 C 62.40 169.49 61.20 169.68 60.60 169.77 C 60.98 169.47 61.72 168.88 62.10 168.58 C 60.54 168.41 58.98 168.25 57.41 168.09 C 60.01 165.20 61.15 161.41 63.27 158.23 C 65.02 156.56 67.22 155.45 69.06 153.89 C 70.25 152.10 71.66 150.47 73.49 149.31 C 73.10 148.71 72.70 148.11 72.31 147.52 C 76.22 147.43 80.18 147.29 83.98 146.23 C 83.84 145.58 83.57 144.30 83.43 143.65 C 82.99 141.28 83.94 139.38 86.00 138.17 C 86.78 138.84 87.57 139.52 88.34 140.21 L 88.58 141.01 C 87.93 142.36 87.22 143.69 86.52 145.02 C 90.90 145.90 95.73 144.59 98.72 141.19 C 98.39 140.65 97.75 139.59 97.42 139.06 C 97.49 138.50 97.62 137.38 97.69 136.83 Z" />
<path fill="#4a5a68" opacity="1.00" d=" M 66.31 146.70 C 67.95 145.54 69.92 145.19 71.87 144.91 C 70.67 146.65 69.44 148.36 68.19 150.05 C 67.58 148.92 66.96 147.80 66.31 146.70 Z" />
<path fill="#4a5a68" opacity="1.00" d=" M 98.35 160.66 C 98.75 160.60 99.56 160.49 99.96 160.43 C 100.45 160.55 101.43 160.78 101.92 160.90 C 101.86 162.83 101.82 164.77 101.82 166.71 C 101.21 166.83 99.97 167.08 99.35 167.20 C 98.43 168.95 97.48 170.70 96.28 172.29 C 94.93 173.86 93.85 175.63 93.29 177.63 C 92.55 178.40 91.81 179.16 91.09 179.94 L 92.16 178.09 C 88.48 178.06 84.81 178.52 81.29 179.61 C 79.70 178.19 77.59 178.10 75.57 178.06 C 75.86 177.46 76.44 176.25 76.72 175.65 C 78.06 176.83 80.78 175.76 79.99 173.80 C 84.21 174.66 88.62 173.93 92.66 172.63 C 97.07 170.31 97.68 165.06 98.35 160.66 Z" />
</g>
<g id="#567482ff">
<path fill="#567482" opacity="1.00" d=" M 27.71 85.75 C 26.51 77.15 28.93 68.82 30.81 60.53 C 31.03 61.89 31.24 63.25 31.44 64.62 C 31.76 64.99 32.39 65.74 32.70 66.12 C 33.07 67.70 33.45 69.27 33.85 70.84 C 34.39 74.10 34.40 77.41 34.11 80.70 C 33.71 80.75 32.93 80.84 32.54 80.89 C 31.77 81.74 30.98 82.58 30.15 83.38 C 29.94 82.28 29.74 81.19 29.54 80.10 C 29.39 82.12 28.80 84.03 27.71 85.75 Z" />
<path fill="#567482" opacity="1.00" d=" M 93.95 80.19 C 96.65 79.17 99.60 79.81 102.17 80.90 C 103.14 82.22 102.54 84.15 102.79 85.72 C 101.27 85.90 99.39 87.41 98.12 85.94 C 96.23 84.43 95.01 82.32 93.95 80.19 Z" />
<path fill="#567482" opacity="1.00" d=" M 50.57 95.52 C 56.40 95.52 62.32 95.23 67.99 96.85 C 69.33 99.95 70.28 103.20 70.66 106.56 C 75.00 106.54 79.39 106.69 83.66 105.75 C 88.66 104.75 93.71 103.69 98.32 101.42 C 101.53 103.16 105.05 104.57 107.67 107.20 C 107.95 109.62 107.80 112.27 106.39 114.35 C 104.57 117.19 104.03 120.73 101.48 123.12 C 101.79 124.18 102.11 125.24 102.42 126.31 C 100.54 126.46 98.66 126.63 96.79 126.81 C 96.88 124.96 96.88 123.11 96.82 121.26 C 97.28 120.72 97.74 120.17 98.18 119.61 C 97.45 119.52 96.00 119.32 95.27 119.23 C 95.91 118.14 96.54 117.06 97.17 115.97 C 98.23 114.06 100.57 112.46 99.95 110.00 C 99.67 108.13 98.84 106.41 98.11 104.68 C 97.85 105.72 97.61 106.78 97.40 107.84 C 96.35 107.49 95.41 106.22 94.22 106.64 C 89.78 108.02 85.17 109.84 82.23 113.64 C 80.84 115.22 79.56 116.88 78.31 118.57 C 75.29 118.72 72.27 118.92 69.25 119.17 C 68.37 120.58 67.47 121.99 66.66 123.46 C 66.70 123.61 66.78 123.91 66.83 124.06 C 67.00 124.59 67.35 125.64 67.53 126.17 L 66.11 126.28 C 65.11 127.47 64.16 128.70 63.24 129.95 C 61.77 129.42 60.31 128.87 58.89 128.24 C 59.22 126.73 59.56 125.23 59.89 123.72 C 59.16 123.74 57.68 123.77 56.95 123.79 C 56.25 123.20 55.54 122.62 54.82 122.06 C 56.98 121.78 59.13 121.41 61.27 121.00 C 61.31 121.51 61.40 122.52 61.44 123.03 C 62.48 121.51 63.51 119.99 64.51 118.45 C 65.89 117.88 67.28 117.31 68.66 116.75 C 68.73 112.54 68.66 108.33 68.53 104.13 C 64.85 103.66 60.99 104.30 57.52 102.69 C 57.86 104.51 58.28 106.32 58.92 108.06 C 57.70 107.65 56.49 107.24 55.31 106.75 C 53.52 105.28 51.75 103.70 49.46 103.05 C 49.60 104.60 49.77 106.15 49.98 107.70 C 50.21 109.77 50.46 111.84 50.91 113.87 C 49.90 113.66 48.89 113.45 47.88 113.25 C 47.46 112.02 47.05 110.78 46.64 109.54 C 45.76 110.27 44.92 111.04 44.12 111.87 C 44.99 112.95 45.85 114.04 46.72 115.13 C 45.40 115.77 44.07 116.41 42.75 117.04 C 42.86 119.03 43.00 121.01 43.27 122.98 C 42.82 123.57 42.39 124.17 41.98 124.78 C 41.96 123.95 41.92 122.30 41.90 121.48 C 41.81 119.67 41.83 117.85 42.06 116.05 L 42.33 115.74 C 43.51 113.65 42.79 110.77 44.49 108.75 C 44.31 107.20 44.10 105.65 43.83 104.11 C 44.31 104.31 45.27 104.69 45.75 104.88 C 45.83 102.93 45.92 100.98 46.02 99.03 C 49.15 100.77 52.23 102.61 55.43 104.22 C 54.57 101.29 52.08 99.62 49.52 98.28 C 49.87 97.36 50.22 96.44 50.57 95.52 Z" />
<path fill="#567482" opacity="1.00" d=" M 90.22 123.53 C 90.57 123.45 91.28 123.28 91.64 123.20 C 92.41 123.62 93.95 124.44 94.72 124.85 C 93.43 125.97 92.21 127.19 90.77 128.12 C 88.82 128.37 87.16 126.81 85.44 126.10 C 87.02 125.22 88.60 124.34 90.22 123.53 Z" />
<path fill="#567482" opacity="1.00" d=" M 44.86 137.32 C 48.15 135.86 51.65 134.02 55.37 134.49 C 55.63 134.99 56.15 135.99 56.41 136.49 C 56.14 136.91 55.59 137.74 55.32 138.16 C 54.85 137.75 53.92 136.95 53.45 136.55 C 52.62 136.58 51.79 136.61 50.96 136.64 C 50.73 137.34 50.26 138.74 50.02 139.44 C 48.20 139.00 46.34 138.53 44.86 137.32 Z" />
<path fill="#567482" opacity="1.00" d=" M 62.47 141.84 C 63.71 139.47 65.05 137.15 66.48 134.89 C 67.19 136.37 67.89 137.86 68.60 139.35 C 69.15 139.42 70.25 139.54 70.80 139.60 C 70.71 140.93 70.61 142.26 70.51 143.58 C 71.26 143.35 71.94 142.98 72.64 142.63 C 72.84 143.73 73.04 144.84 73.24 145.96 C 75.12 146.07 77.07 146.67 78.93 146.15 C 80.72 145.70 80.88 143.62 81.61 142.25 C 81.76 143.21 81.91 144.17 82.07 145.14 C 82.41 144.77 83.09 144.03 83.43 143.65 C 83.57 144.30 83.84 145.58 83.98 146.23 C 80.18 147.29 76.22 147.43 72.31 147.52 C 72.70 148.11 73.10 148.71 73.49 149.31 C 71.66 150.47 70.25 152.10 69.06 153.89 C 68.79 152.61 68.53 151.32 68.19 150.05 C 69.44 148.36 70.67 146.65 71.87 144.91 C 69.92 145.19 67.95 145.54 66.31 146.70 C 65.50 146.56 64.69 146.43 63.88 146.29 C 63.28 145.18 62.69 144.08 62.08 142.98 C 61.97 143.63 61.75 144.92 61.64 145.57 C 58.32 144.72 55.00 143.86 51.65 143.14 C 52.74 141.71 53.83 140.28 54.88 138.83 L 54.99 140.05 C 55.90 139.24 56.80 138.42 57.67 137.56 C 58.21 137.56 59.29 137.54 59.83 137.53 C 60.71 138.97 61.59 140.40 62.47 141.84 Z" />
<path fill="#567482" opacity="1.00" d=" M 94.81 153.33 C 95.42 152.21 96.01 151.08 96.68 150.00 C 96.53 150.75 96.22 152.24 96.06 152.99 C 99.41 151.79 102.93 151.22 106.48 151.34 C 104.47 152.17 101.68 152.07 100.61 154.35 C 102.68 154.38 104.76 154.38 106.84 154.34 C 106.84 154.91 106.84 156.05 106.84 156.62 C 104.13 157.17 101.39 157.62 98.66 158.12 C 101.55 158.32 104.45 158.44 107.35 158.50 C 107.49 159.19 107.78 160.59 107.92 161.28 C 105.92 161.19 103.88 161.37 101.92 160.90 C 101.43 160.78 100.45 160.55 99.96 160.43 C 99.56 160.49 98.75 160.60 98.35 160.66 C 98.12 160.21 97.66 159.29 97.43 158.84 C 95.94 158.25 94.46 157.64 92.96 157.09 C 93.43 156.99 94.36 156.80 94.83 156.71 C 93.82 155.35 92.54 154.05 92.13 152.38 C 93.00 152.75 93.90 153.07 94.81 153.33 M 96.86 153.60 C 96.01 154.97 98.67 155.49 99.42 154.66 C 100.19 153.31 97.61 152.88 96.86 153.60 Z" />
<path fill="#567482" opacity="1.00" d=" M 84.67 153.63 C 86.75 153.02 88.81 151.93 91.03 152.14 C 90.83 153.65 89.96 154.95 89.22 156.25 C 86.14 156.28 83.13 157.19 80.05 157.16 C 78.02 156.80 76.10 156.04 74.14 155.46 C 77.66 154.90 81.28 154.80 84.67 153.63 Z" />
<path fill="#567482" opacity="1.00" d=" M 51.14 159.59 C 53.74 159.42 56.28 158.80 58.80 158.17 C 58.09 160.05 56.83 161.59 55.37 162.94 C 56.18 163.44 56.98 163.94 57.79 164.44 C 56.63 165.99 54.27 167.42 55.59 169.61 C 55.28 169.79 54.67 170.16 54.36 170.34 C 54.16 166.18 49.83 167.44 47.04 167.28 C 47.69 165.79 48.95 164.74 50.08 163.63 C 50.32 162.30 50.54 160.96 50.76 159.63 L 51.14 159.59 Z" />
</g>
<g id="#95c1cdff">
<path fill="#95c1cd" opacity="1.00" d=" M 47.41 80.77 C 49.33 80.01 51.25 79.25 53.15 78.45 C 54.17 78.85 55.20 79.26 56.22 79.67 C 58.62 79.00 61.66 76.16 63.61 78.93 C 62.18 82.22 58.74 83.87 56.57 86.59 C 53.31 90.74 49.12 94.23 44.25 96.32 C 43.76 96.00 42.78 95.34 42.29 95.01 C 42.81 90.91 44.10 86.98 45.74 83.20 C 46.22 82.36 46.55 81.29 47.41 80.77 Z" />
<path fill="#95c1cd" opacity="1.00" d=" M 71.71 78.67 C 74.11 76.89 76.97 78.36 79.32 79.41 C 80.60 81.10 82.32 82.47 83.18 84.44 C 78.72 83.67 74.19 83.16 69.85 81.84 C 68.63 80.47 70.79 79.35 71.71 78.67 Z" />
<path fill="#95c1cd" opacity="1.00" d=" M 68.87 84.04 C 71.30 84.05 73.86 83.77 76.10 84.92 C 74.48 84.81 71.88 84.15 71.22 86.23 C 70.20 88.10 71.07 90.13 71.64 91.98 C 70.90 92.39 70.18 92.82 69.45 93.25 C 67.16 90.56 67.74 87.09 68.87 84.04 Z" />
<path fill="#95c1cd" opacity="1.00" d=" M 79.67 89.67 C 80.83 89.21 82.00 88.76 83.18 88.34 C 83.61 88.49 84.45 88.81 84.87 88.97 C 84.58 92.03 84.15 95.97 81.13 97.56 C 79.26 97.63 77.43 97.18 75.60 96.85 C 74.71 97.23 73.82 97.61 72.94 97.99 C 73.27 96.82 73.61 95.65 73.95 94.48 C 77.15 94.63 79.25 91.94 81.66 90.31 C 81.16 90.15 80.17 89.83 79.67 89.67 Z" />
<path fill="#95c1cd" opacity="1.00" d=" M 43.27 122.98 C 46.74 120.46 50.95 122.81 54.82 122.06 C 55.54 122.62 56.25 123.20 56.95 123.79 C 57.57 124.76 58.05 125.79 58.39 126.89 C 57.13 129.18 55.21 131.09 52.96 132.41 C 51.53 132.34 51.25 130.58 50.44 129.69 C 49.11 132.33 47.25 134.66 44.93 136.50 C 44.91 135.86 44.88 134.57 44.87 133.92 L 45.28 132.85 C 46.34 129.70 44.95 126.15 46.80 123.11 C 45.18 124.60 43.51 126.01 41.78 127.38 C 41.83 126.73 41.93 125.43 41.98 124.78 C 42.39 124.17 42.82 123.57 43.27 122.98 Z" />
<path fill="#95c1cd" opacity="1.00" d=" M 66.11 126.28 L 67.53 126.17 C 68.96 126.16 70.38 126.15 71.81 126.14 C 73.31 128.08 75.07 129.82 77.20 131.05 C 77.40 131.51 77.80 132.44 78.00 132.91 C 77.77 135.09 77.60 137.27 77.48 139.46 C 76.35 139.72 75.23 139.99 74.11 140.25 C 73.94 138.75 73.75 137.26 73.54 135.76 C 71.21 134.58 69.46 132.71 69.17 130.01 C 68.17 128.75 67.13 127.52 66.11 126.28 Z" />
<path fill="#95c1cd" opacity="1.00" d=" M 56.41 136.49 C 58.14 134.19 60.41 130.22 63.76 131.27 C 63.99 132.03 64.47 133.55 64.70 134.30 C 63.18 134.35 61.66 134.38 60.15 134.40 C 59.33 135.47 58.53 136.54 57.67 137.56 C 56.80 138.42 55.90 139.24 54.99 140.05 L 54.88 138.83 L 55.32 138.16 C 55.59 137.74 56.14 136.91 56.41 136.49 Z" />
<path fill="#95c1cd" opacity="1.00" d=" M 96.68 150.00 C 98.82 147.40 101.59 145.43 103.84 142.93 C 103.77 144.85 103.80 146.77 103.84 148.69 C 105.86 149.98 107.30 151.81 106.84 154.34 C 104.76 154.38 102.68 154.38 100.61 154.35 C 101.68 152.07 104.47 152.17 106.48 151.34 C 102.93 151.22 99.41 151.79 96.06 152.99 C 96.22 152.24 96.53 150.75 96.68 150.00 Z" />
<path fill="#95c1cd" opacity="1.00" d=" M 96.86 153.60 C 97.61 152.88 100.19 153.31 99.42 154.66 C 98.67 155.49 96.01 154.97 96.86 153.60 Z" />
<path fill="#95c1cd" opacity="1.00" d=" M 65.31 166.42 C 67.61 164.86 70.11 163.64 72.57 162.36 C 74.98 163.79 76.97 165.99 76.78 168.98 C 75.30 170.68 72.75 172.06 72.76 174.60 C 72.25 174.65 71.22 174.75 70.70 174.80 C 69.84 173.42 68.97 172.04 68.10 170.67 C 68.56 170.12 69.01 169.58 69.47 169.04 C 68.09 168.16 66.70 167.29 65.31 166.42 Z" />
<path fill="#95c1cd" opacity="1.00" d=" M 93.29 177.63 C 93.85 175.63 94.93 173.86 96.28 172.29 C 98.22 173.00 100.14 173.78 102.04 174.60 C 102.86 176.11 103.95 177.87 105.95 177.76 C 106.76 177.21 107.54 176.62 108.31 176.00 C 108.72 176.37 109.55 177.11 109.96 177.48 C 109.55 178.26 109.14 179.05 108.74 179.84 C 108.99 182.38 108.90 184.98 107.58 187.24 C 108.24 187.46 109.55 187.89 110.21 188.10 C 110.16 189.25 110.11 190.40 110.06 191.55 C 105.76 191.23 101.45 191.04 97.15 190.81 C 99.03 187.88 101.56 184.95 100.99 181.22 C 97.59 179.00 93.75 180.11 90.22 181.37 L 91.09 179.94 C 91.81 179.16 92.55 178.40 93.29 177.63 M 94.39 176.00 C 97.00 177.92 100.15 178.86 103.37 178.12 C 101.50 176.23 99.35 174.64 97.01 173.39 C 96.13 174.25 95.26 175.12 94.39 176.00 Z" />
<path fill="#95c1cd" opacity="1.00" d=" M 54.59 183.47 C 54.75 183.72 55.07 184.21 55.23 184.45 C 59.28 185.11 66.32 185.00 66.57 190.52 C 60.67 190.36 54.77 190.70 48.87 190.41 C 49.63 188.75 50.34 187.07 50.96 185.36 C 51.65 185.12 53.03 184.65 53.72 184.41 C 53.93 184.18 54.37 183.70 54.59 183.47 Z" />
</g>
<g id="#212122ff">
<path fill="#212122" opacity="1.00" d=" M 41.91 94.23 C 42.68 90.41 43.20 86.34 45.74 83.20 C 44.10 86.98 42.81 90.91 42.29 95.01 C 42.48 98.09 43.24 101.09 43.83 104.11 C 44.10 105.65 44.31 107.20 44.49 108.75 C 42.79 110.77 43.51 113.65 42.33 115.74 C 42.00 113.10 41.91 110.35 43.06 107.89 C 45.15 103.30 40.93 98.88 41.91 94.23 Z" />
<path fill="#212122" opacity="1.00" d=" M 49.46 103.05 C 51.75 103.70 53.52 105.28 55.31 106.75 C 54.21 107.89 53.15 109.05 52.09 110.22 C 51.89 110.42 51.50 110.82 51.31 111.02 C 50.86 109.92 50.42 108.81 49.98 107.70 C 49.77 106.15 49.60 104.60 49.46 103.05 Z" />
<path fill="#212122" opacity="1.00" d=" M 82.23 113.64 C 85.17 109.84 89.78 108.02 94.22 106.64 C 95.41 106.22 96.35 107.49 97.40 107.84 C 97.41 110.55 97.60 113.28 97.17 115.97 C 96.54 117.06 95.91 118.14 95.27 119.23 C 93.11 120.63 90.86 122.22 88.18 122.27 C 86.38 121.94 84.59 121.59 82.79 121.27 C 81.97 118.81 81.55 116.20 82.23 113.64 M 83.35 116.02 C 82.98 118.29 85.52 119.34 86.78 120.76 C 90.42 120.37 94.75 118.13 94.64 113.92 C 95.12 111.53 92.56 110.57 91.18 109.20 C 87.51 109.66 84.03 112.31 83.35 116.02 Z" />
<path fill="#212122" opacity="1.00" d=" M 59.45 116.21 C 61.29 116.65 59.32 118.66 58.18 118.13 C 56.41 117.67 58.35 115.74 59.45 116.21 Z" />
<path fill="#212122" opacity="1.00" d=" M 50.96 136.64 C 51.79 136.61 52.62 136.58 53.45 136.55 C 53.92 136.95 54.85 137.75 55.32 138.16 L 54.88 138.83 C 53.83 140.28 52.74 141.71 51.65 143.14 C 55.00 143.86 58.32 144.72 61.64 145.57 C 61.56 149.32 58.09 151.37 55.25 153.10 C 55.29 153.77 55.35 154.43 55.42 155.10 C 53.33 155.82 52.38 157.95 51.14 159.59 L 50.76 159.63 C 49.56 158.72 48.43 157.73 47.33 156.72 C 47.39 156.40 47.52 155.76 47.58 155.44 L 47.93 154.68 C 47.57 149.94 46.12 145.32 46.51 140.52 C 47.68 140.15 48.85 139.79 50.02 139.44 C 50.26 138.74 50.73 137.34 50.96 136.64 Z" />
<path fill="#212122" opacity="1.00" d=" M 55.59 169.61 C 56.05 169.23 56.96 168.47 57.41 168.09 C 58.98 168.25 60.54 168.41 62.10 168.58 C 61.72 168.88 60.98 169.47 60.60 169.77 L 59.98 170.03 C 57.75 171.31 53.32 171.61 54.36 175.23 C 55.09 174.40 56.55 172.76 57.28 171.93 C 59.58 173.58 57.73 175.18 56.45 176.57 C 54.46 178.33 51.70 180.96 54.59 183.47 C 54.37 183.70 53.93 184.18 53.72 184.41 C 53.39 183.22 53.10 182.01 52.74 180.83 C 54.33 178.60 54.66 175.57 52.27 173.78 C 52.25 173.08 52.21 171.69 52.20 170.99 C 52.74 170.83 53.82 170.51 54.36 170.34 C 54.67 170.16 55.28 169.79 55.59 169.61 Z" />
<path fill="#212122" opacity="1.00" d=" M 48.55 191.00 C 48.54 188.86 49.47 186.87 50.96 185.36 C 50.34 187.07 49.63 188.75 48.87 190.41 C 54.77 190.70 60.67 190.36 66.57 190.52 C 66.95 190.52 67.72 190.54 68.10 190.55 C 69.75 190.48 71.89 190.58 72.98 189.09 C 72.75 187.59 72.42 186.10 72.24 184.60 C 73.20 186.73 73.88 188.97 74.31 191.27 C 78.44 190.91 82.59 191.03 86.73 190.86 C 90.20 190.75 93.68 190.76 97.15 190.81 C 101.45 191.04 105.76 191.23 110.06 191.55 C 110.11 190.40 110.16 189.25 110.21 188.10 C 110.57 189.15 110.90 190.22 111.23 191.28 C 115.00 191.24 119.61 189.76 122.73 192.60 C 122.59 194.70 122.55 196.81 122.48 198.92 C 93.54 198.93 64.60 198.99 35.67 198.89 C 35.66 196.63 35.66 194.37 35.67 192.12 C 39.65 190.09 44.27 191.32 48.55 191.00 Z" />
</g>
<g id="#e1ebf6ff">
<path fill="#e1ebf6" opacity="1.00" d=" M 71.22 86.23 C 71.88 84.15 74.48 84.81 76.10 84.92 C 78.08 85.52 80.03 86.23 81.99 86.89 C 81.68 87.04 81.06 87.35 80.75 87.51 C 77.72 89.03 74.59 90.31 71.64 91.98 C 71.07 90.13 70.20 88.10 71.22 86.23 Z" />
<path fill="#e1ebf6" opacity="1.00" d=" M 72.41 93.62 C 74.21 91.39 77.19 90.83 79.67 89.67 C 80.17 89.83 81.16 90.15 81.66 90.31 C 79.25 91.94 77.15 94.63 73.95 94.48 C 73.41 94.47 72.32 94.43 71.77 94.41 L 72.41 93.62 Z" />
<path fill="#e1ebf6" opacity="1.00" d=" M 88.18 122.27 C 90.86 122.22 93.11 120.63 95.27 119.23 C 96.00 119.32 97.45 119.52 98.18 119.61 C 97.74 120.17 97.28 120.72 96.82 121.26 C 95.13 122.01 93.39 122.64 91.64 123.20 C 91.28 123.28 90.57 123.45 90.22 123.53 C 89.48 123.53 88.00 123.54 87.27 123.55 C 87.49 123.23 87.95 122.59 88.18 122.27 Z" />
<path fill="#e1ebf6" opacity="1.00" d=" M 90.28 131.32 C 91.02 134.52 90.05 137.80 90.25 141.05 C 89.58 138.63 90.20 134.64 86.48 135.28 C 87.48 133.72 88.75 132.37 90.28 131.32 Z" />
<path fill="#e1ebf6" opacity="1.00" d=" M 103.84 142.93 C 105.44 140.60 108.20 140.11 110.85 140.29 C 113.27 141.17 114.61 143.47 115.22 145.85 C 114.52 148.93 114.19 152.06 114.28 155.22 C 112.17 157.64 111.21 160.87 108.76 163.02 C 108.55 162.59 108.13 161.72 107.92 161.28 C 107.78 160.59 107.49 159.19 107.35 158.50 C 104.45 158.44 101.55 158.32 98.66 158.12 C 101.39 157.62 104.13 157.17 106.84 156.62 C 106.84 156.05 106.84 154.91 106.84 154.34 C 107.30 151.81 105.86 149.98 103.84 148.69 C 103.80 146.77 103.77 144.85 103.84 142.93 Z" />
<path fill="#e1ebf6" opacity="1.00" d=" M 63.00 169.39 C 63.79 168.42 64.52 167.40 65.31 166.42 C 66.70 167.29 68.09 168.16 69.47 169.04 C 69.01 169.58 68.56 170.12 68.10 170.67 C 68.97 172.04 69.84 173.42 70.70 174.80 C 71.22 174.75 72.25 174.65 72.76 174.60 C 73.48 175.45 74.19 176.31 74.92 177.16 C 73.45 177.40 71.97 177.64 70.50 177.83 C 69.89 177.72 68.67 177.52 68.05 177.42 C 68.48 178.62 68.96 179.79 69.51 180.94 C 68.82 181.61 68.13 182.28 67.44 182.95 C 68.56 183.33 69.69 183.72 70.82 184.10 C 68.90 185.74 68.19 188.08 68.10 190.55 C 67.72 190.54 66.95 190.52 66.57 190.52 C 66.32 185.00 59.28 185.11 55.23 184.45 C 55.07 184.21 54.75 183.72 54.59 183.47 C 51.70 180.96 54.46 178.33 56.45 176.57 C 57.54 175.78 58.65 175.03 59.76 174.27 C 59.53 173.70 59.06 172.55 58.82 171.98 C 59.11 171.49 59.69 170.52 59.98 170.03 L 60.60 169.77 C 61.20 169.68 62.40 169.49 63.00 169.39 Z" />
<path fill="#e1ebf6" opacity="1.00" d=" M 94.39 176.00 C 95.26 175.12 96.13 174.25 97.01 173.39 C 99.35 174.64 101.50 176.23 103.37 178.12 C 100.15 178.86 97.00 177.92 94.39 176.00 Z" />
<path fill="#e1ebf6" opacity="1.00" d=" M 90.22 181.37 C 93.75 180.11 97.59 179.00 100.99 181.22 C 101.56 184.95 99.03 187.88 97.15 190.81 C 93.68 190.76 90.20 190.75 86.73 190.86 C 87.95 188.37 89.36 185.94 91.48 184.10 C 91.16 183.42 90.53 182.05 90.22 181.37 Z" />
</g>
<g id="#7a7958ff">
<path fill="#7a7958" opacity="1.00" d=" M 55.31 106.75 C 56.49 107.24 57.70 107.65 58.92 108.06 C 59.49 109.61 60.26 111.11 60.56 112.75 C 60.39 114.78 58.19 115.70 56.96 117.06 C 54.79 115.20 52.98 112.96 52.09 110.22 C 53.15 109.05 54.21 107.89 55.31 106.75 Z" />
<path fill="#7a7958" opacity="1.00" d=" M 83.35 116.02 C 84.03 112.31 87.51 109.66 91.18 109.20 C 92.56 110.57 95.12 111.53 94.64 113.92 C 94.75 118.13 90.42 120.37 86.78 120.76 C 85.52 119.34 82.98 118.29 83.35 116.02 Z" />
<path fill="#7a7958" opacity="1.00" d=" M 42.01 155.71 C 43.87 155.66 45.73 155.58 47.58 155.44 C 47.52 155.76 47.39 156.40 47.33 156.72 C 46.17 158.77 45.15 160.92 43.62 162.72 C 42.39 164.55 40.36 162.61 38.84 162.23 C 40.07 161.41 41.31 160.62 42.55 159.82 C 42.25 159.18 41.95 158.53 41.66 157.89 C 41.75 157.35 41.92 156.25 42.01 155.71 Z" />
<path fill="#7a7958" opacity="1.00" d=" M 69.47 156.27 C 71.02 155.97 72.57 155.66 74.14 155.46 C 76.10 156.04 78.02 156.80 80.05 157.16 C 83.13 157.19 86.14 156.28 89.22 156.25 C 90.48 156.48 91.72 156.79 92.96 157.09 C 94.46 157.64 95.94 158.25 97.43 158.84 C 97.66 159.29 98.12 160.21 98.35 160.66 C 97.68 165.06 97.07 170.31 92.66 172.63 C 88.62 173.93 84.21 174.66 79.99 173.80 C 78.56 173.17 77.06 174.23 76.72 175.65 C 76.44 176.25 75.86 177.46 75.57 178.06 C 74.07 178.42 72.55 178.73 71.03 179.04 L 70.50 177.83 C 71.97 177.64 73.45 177.40 74.92 177.16 C 74.19 176.31 73.48 175.45 72.76 174.60 C 72.75 172.06 75.30 170.68 76.78 168.98 C 76.97 165.99 74.98 163.79 72.57 162.36 C 71.18 161.88 69.77 161.48 68.36 161.08 C 68.73 159.47 69.10 157.87 69.47 156.27 Z" />
</g>
</svg>
