<?xml version="1.0" encoding="UTF-8" ?>
<!DOCTYPE svg PUBLIC "-//W3C//DTD SVG 1.1//EN" "http://www.w3.org/Graphics/SVG/1.1/DTD/svg11.dtd">
<svg width="155pt" height="210pt" viewBox="0 0 155 210" version="1.1" xmlns="http://www.w3.org/2000/svg">
<g id="#e1d29cff">
<path fill="#e1d29c" opacity="1.00" d=" M 54.67 33.73 C 58.34 32.28 62.34 32.46 66.16 33.14 C 70.99 33.95 76.04 32.82 80.74 34.48 C 87.64 36.62 93.91 40.33 100.81 42.49 C 107.04 45.16 113.84 49.27 115.54 56.33 C 116.85 60.33 119.46 63.78 120.39 67.92 C 119.44 68.20 118.49 68.47 117.55 68.74 C 115.82 66.26 113.58 64.10 110.60 63.24 C 110.29 63.15 109.65 62.96 109.34 62.87 C 108.61 63.96 107.92 65.09 107.06 66.09 C 103.25 66.93 99.30 66.86 95.47 67.62 C 92.15 65.08 88.21 61.03 83.69 63.46 C 83.33 65.17 84.03 66.83 84.40 68.47 C 78.90 73.00 72.67 76.76 68.58 82.77 C 64.41 85.59 62.28 90.32 58.88 93.88 C 54.27 98.58 50.35 103.92 47.33 109.76 C 45.94 110.00 44.56 110.24 43.18 110.48 C 42.85 112.24 42.46 113.99 41.99 115.73 C 43.58 116.03 45.17 116.32 46.77 116.62 C 46.22 117.12 45.66 117.63 45.10 118.12 C 45.58 119.40 46.02 120.69 46.42 121.99 C 45.01 121.95 43.59 121.90 42.18 121.86 C 41.38 121.07 40.62 120.24 39.90 119.38 C 37.67 115.77 34.57 112.41 33.92 108.07 C 33.36 104.77 32.06 101.47 32.63 98.07 C 33.24 94.26 35.57 90.90 35.71 86.99 C 35.45 83.00 39.42 80.46 39.62 76.57 C 39.80 72.37 38.09 68.34 38.22 64.13 C 38.34 60.48 37.79 56.27 40.40 53.33 C 42.96 50.21 40.45 45.63 42.47 42.35 C 45.90 38.74 49.63 34.90 54.67 33.73 Z" />
<path fill="#e1d29c" opacity="1.00" d=" M 108.50 88.14 C 113.45 90.47 118.17 93.27 123.21 95.42 C 123.23 96.96 122.97 98.49 122.44 99.94 C 122.29 98.85 122.15 97.77 122.00 96.69 C 116.81 95.76 110.63 96.30 106.82 91.96 C 107.40 90.69 107.98 89.43 108.50 88.14 Z" />
<path fill="#e1d29c" opacity="1.00" d=" M 61.07 141.28 C 61.45 140.91 62.22 140.17 62.60 139.80 C 65.13 141.72 68.17 142.93 71.38 142.26 C 72.69 142.12 74.00 141.96 75.30 141.81 C 75.03 143.24 74.76 144.67 74.50 146.10 C 76.85 145.98 79.20 145.86 81.55 145.81 C 78.37 151.86 68.91 153.65 64.41 148.15 C 66.47 147.73 68.55 147.40 70.63 147.10 C 67.36 145.29 64.17 143.35 61.07 141.28 Z" />
<path fill="#e1d29c" opacity="1.00" d=" M 51.01 140.67 C 54.88 142.90 54.85 147.53 53.42 151.26 C 53.34 148.74 53.11 146.22 52.91 143.71 C 52.26 145.55 51.63 147.39 50.97 149.22 C 51.01 146.37 50.94 143.52 51.01 140.67 Z" />
<path fill="#e1d29c" opacity="1.00" d=" M 83.13 142.08 C 85.11 141.91 87.07 141.52 89.01 141.06 C 90.82 142.13 92.82 143.06 94.21 144.71 C 94.98 148.08 93.96 151.60 94.14 155.03 C 93.99 158.65 95.70 161.92 97.16 165.10 C 97.59 166.63 99.14 168.44 97.92 169.94 C 96.66 171.64 94.92 172.91 93.30 174.24 C 90.31 175.25 87.24 176.01 84.20 176.89 C 84.67 174.13 85.81 170.72 82.65 169.19 C 80.10 166.91 77.69 164.48 75.02 162.34 C 71.72 162.06 68.72 163.57 65.83 164.96 C 66.34 163.12 66.76 161.26 67.55 159.52 C 71.39 157.92 75.64 159.10 79.61 159.53 C 79.53 156.95 78.23 153.62 80.75 151.79 C 83.82 148.87 87.70 147.00 91.19 144.65 C 88.28 143.67 85.21 143.55 82.30 144.64 C 82.58 143.78 82.85 142.93 83.13 142.08 Z" />
<path fill="#e1d29c" opacity="1.00" d=" M 68.45 168.78 C 71.83 167.31 75.01 169.40 77.09 171.97 C 73.97 171.68 71.00 170.60 68.45 168.78 Z" />
<path fill="#e1d29c" opacity="1.00" d=" M 62.09 176.02 C 65.44 174.28 69.30 170.51 73.22 172.73 C 75.29 173.68 77.10 175.10 78.96 176.39 C 75.58 176.96 72.66 178.69 70.94 181.72 L 70.53 182.25 C 67.55 180.19 64.27 178.64 61.00 177.12 C 61.27 176.84 61.82 176.29 62.09 176.02 Z" />
</g>
<g id="#3e3c44ff">
<path fill="#3e3c44" opacity="1.00" d=" M 83.69 63.46 C 88.21 61.03 92.15 65.08 95.47 67.62 C 95.09 70.39 95.72 74.70 91.89 75.06 C 89.13 74.59 86.79 72.83 84.08 72.21 C 77.73 73.83 74.99 81.12 68.58 82.77 C 72.67 76.76 78.90 73.00 84.40 68.47 C 84.03 66.83 83.33 65.17 83.69 63.46 Z" />
<path fill="#3e3c44" opacity="1.00" d=" M 111.75 71.12 C 110.49 68.78 107.75 65.45 110.60 63.24 C 113.58 64.10 115.82 66.26 117.55 68.74 C 117.33 70.68 117.11 72.62 116.89 74.55 C 114.85 73.98 112.73 73.16 111.75 71.12 Z" />
<path fill="#3e3c44" opacity="1.00" d=" M 120.74 68.35 C 123.47 68.29 125.00 70.63 124.77 73.16 C 123.46 71.53 122.08 69.96 120.74 68.35 Z" />
<path fill="#3e3c44" opacity="1.00" d=" M 105.89 86.74 C 106.55 86.78 107.86 86.86 108.51 86.90 C 108.51 87.21 108.50 87.83 108.50 88.14 C 107.98 89.43 107.40 90.69 106.82 91.96 C 106.29 93.12 105.76 94.29 105.24 95.46 C 104.83 92.52 104.64 89.51 105.89 86.74 Z" />
<path fill="#3e3c44" opacity="1.00" d=" M 117.37 87.83 C 121.15 87.39 124.97 87.50 128.73 88.08 C 129.42 90.19 130.16 92.30 130.77 94.44 C 130.04 98.70 130.79 102.99 130.50 107.27 L 129.67 106.50 C 129.64 104.28 129.64 102.06 129.62 99.84 C 124.70 108.78 123.20 119.06 119.53 128.48 C 118.83 130.62 116.26 130.76 114.50 131.55 C 113.29 126.52 109.48 121.19 112.09 115.99 C 114.86 110.24 118.63 105.03 122.44 99.94 C 122.97 98.49 123.23 96.96 123.21 95.42 C 121.33 92.84 119.32 90.36 117.37 87.83 Z" />
<path fill="#3e3c44" opacity="1.00" d=" M 68.54 107.06 C 68.32 102.49 71.23 98.78 74.86 96.38 C 76.18 96.88 77.51 97.37 78.82 97.91 C 83.50 99.58 87.76 103.60 87.09 108.99 C 87.09 114.42 80.50 115.99 76.20 114.85 C 72.92 113.24 67.70 111.71 68.54 107.06 Z" />
<path fill="#3e3c44" opacity="1.00" d=" M 56.78 111.84 C 57.82 108.85 59.84 106.37 62.06 104.16 C 62.91 106.79 64.13 109.53 63.58 112.35 C 63.28 114.59 61.27 115.98 59.86 117.55 C 60.16 118.33 60.47 119.11 60.77 119.90 C 57.86 121.35 54.31 124.42 56.75 127.85 C 60.02 126.77 63.47 126.63 66.88 127.01 C 65.42 128.80 63.93 130.57 62.43 132.33 C 59.21 130.62 54.12 130.79 52.69 126.85 C 52.94 121.63 54.99 116.69 56.78 111.84 Z" />
<path fill="#3e3c44" opacity="1.00" d=" M 104.96 119.03 C 104.23 112.95 109.46 108.88 114.01 106.00 C 112.06 110.93 109.93 116.39 104.96 119.03 Z" />
<path fill="#3e3c44" opacity="1.00" d=" M 43.18 110.48 C 44.56 110.24 45.94 110.00 47.33 109.76 C 47.90 112.06 48.70 114.70 46.77 116.62 C 45.17 116.32 43.58 116.03 41.99 115.73 C 42.46 113.99 42.85 112.24 43.18 110.48 Z" />
<path fill="#3e3c44" opacity="1.00" d=" M 85.23 115.40 C 87.04 116.09 84.79 119.28 83.32 118.41 C 82.63 117.18 83.94 115.51 85.23 115.40 Z" />
<path fill="#3e3c44" opacity="1.00" d=" M 39.90 119.38 C 40.62 120.24 41.38 121.07 42.18 121.86 C 44.41 122.49 46.69 122.94 48.95 123.41 C 49.40 128.22 49.54 133.06 49.42 137.89 C 53.75 137.17 58.03 136.17 62.23 134.87 C 61.83 137.01 61.44 139.14 61.07 141.28 C 64.17 143.35 67.36 145.29 70.63 147.10 C 68.55 147.40 66.47 147.73 64.41 148.15 C 68.91 153.65 78.37 151.86 81.55 145.81 C 79.20 145.86 76.85 145.98 74.50 146.10 C 74.76 144.67 75.03 143.24 75.30 141.81 C 74.00 141.96 72.69 142.12 71.38 142.26 C 68.13 139.64 64.60 136.96 63.33 132.79 C 65.75 134.01 68.21 135.16 70.70 136.25 C 71.89 135.01 73.09 133.77 74.29 132.54 C 75.66 133.12 77.04 133.70 78.42 134.27 C 77.76 135.82 77.10 137.38 76.44 138.94 C 78.67 139.99 80.87 141.10 83.13 142.08 C 82.85 142.93 82.58 143.78 82.30 144.64 C 85.21 143.55 88.28 143.67 91.19 144.65 C 87.70 147.00 83.82 148.87 80.75 151.79 C 78.23 153.62 79.53 156.95 79.61 159.53 C 75.64 159.10 71.39 157.92 67.55 159.52 C 66.76 161.26 66.34 163.12 65.83 164.96 C 68.72 163.57 71.72 162.06 75.02 162.34 C 74.13 163.41 72.47 164.13 72.44 165.71 C 75.06 168.22 78.93 171.98 82.65 169.19 C 85.81 170.72 84.67 174.13 84.20 176.89 C 87.24 176.01 90.31 175.25 93.30 174.24 C 91.29 176.21 89.66 178.53 88.06 180.84 C 91.97 183.55 95.52 187.20 100.26 188.39 C 106.24 189.22 112.32 188.98 118.34 188.63 C 120.51 188.44 122.90 188.87 124.48 190.49 C 124.85 192.56 124.83 194.67 124.91 196.77 C 116.93 196.50 108.97 197.64 101.01 196.89 C 90.72 197.73 80.32 198.24 70.04 197.09 C 58.31 195.15 46.30 199.52 34.72 196.18 C 33.06 193.96 33.36 191.08 33.27 188.48 C 37.31 186.50 41.80 186.81 46.16 187.01 C 46.59 183.49 45.98 179.98 44.26 176.87 C 42.87 173.73 41.75 170.48 40.72 167.21 C 43.05 167.65 45.37 168.11 47.69 168.61 C 51.33 165.22 54.96 161.29 55.01 155.99 C 53.33 158.04 51.92 160.41 49.74 161.98 C 45.83 163.35 41.68 162.11 37.95 160.77 C 38.06 162.59 38.14 164.41 38.18 166.23 L 37.91 167.23 C 37.43 164.56 37.53 161.82 37.04 159.15 C 36.29 157.00 34.92 155.10 34.35 152.88 C 34.12 150.61 34.29 148.33 34.26 146.05 C 35.82 145.22 37.34 144.30 38.84 143.36 C 38.06 148.06 38.02 152.85 38.35 157.60 C 41.39 157.68 44.51 158.15 47.48 157.35 C 50.31 156.43 52.29 153.90 53.42 151.26 C 54.85 147.53 54.88 142.90 51.01 140.67 C 50.94 143.52 51.01 146.37 50.97 149.22 C 50.27 151.55 48.90 153.84 46.55 154.80 C 44.37 155.94 42.04 154.54 39.89 154.03 C 39.90 149.23 39.84 144.42 39.57 139.63 C 39.22 134.97 38.74 130.22 39.91 125.63 C 40.52 123.58 40.30 121.44 39.90 119.38 M 57.31 161.41 C 56.21 162.14 56.22 164.48 57.77 164.61 C 59.97 164.54 59.55 160.18 57.31 161.41 M 55.20 174.26 C 56.35 174.66 57.50 175.07 58.65 175.48 C 58.72 179.74 57.72 183.91 56.26 187.89 C 56.90 187.84 58.18 187.74 58.83 187.69 C 60.04 184.27 59.24 180.31 61.00 177.12 C 64.27 178.64 67.55 180.19 70.53 182.25 C 69.60 183.44 68.59 184.57 67.55 185.67 C 68.65 186.35 69.69 187.33 71.08 187.28 C 76.03 187.46 81.00 187.26 85.96 187.32 C 82.99 182.22 76.30 181.41 70.94 181.72 C 72.66 178.69 75.58 176.96 78.96 176.39 C 77.10 175.10 75.29 173.68 73.22 172.73 C 69.30 170.51 65.44 174.28 62.09 176.02 C 60.56 173.12 58.79 170.35 56.77 167.76 C 55.98 169.85 55.47 172.04 55.20 174.26 M 68.45 168.78 C 71.00 170.60 73.97 171.68 77.09 171.97 C 75.01 169.40 71.83 167.31 68.45 168.78 Z" />
<path fill="#3e3c44" opacity="1.00" d=" M 91.52 122.26 C 93.28 120.67 95.28 119.30 97.68 118.96 C 97.71 120.26 97.74 121.56 97.76 122.86 C 95.66 122.93 93.56 122.82 91.52 122.26 Z" />
<path fill="#3e3c44" opacity="1.00" d=" M 120.18 137.32 C 122.13 133.66 123.08 129.58 124.34 125.66 C 125.40 130.76 122.93 135.79 123.91 140.87 C 124.33 143.34 125.95 145.32 127.54 147.17 C 124.71 147.35 121.88 147.59 119.05 147.84 C 120.33 146.60 121.61 145.35 122.87 144.09 C 120.37 144.54 117.07 144.00 115.51 146.49 C 113.65 148.54 114.59 151.34 115.00 153.73 C 120.06 154.23 125.34 154.72 130.12 152.61 C 129.25 150.80 128.39 148.99 127.54 147.17 C 129.40 148.94 131.25 150.72 133.24 152.36 C 131.79 155.10 131.17 158.18 129.87 160.99 C 126.53 162.08 122.95 161.47 119.50 161.52 C 119.38 160.80 119.13 159.37 119.01 158.66 C 120.94 161.12 124.58 161.64 127.23 160.12 C 128.47 158.54 129.24 156.67 130.12 154.89 C 126.03 154.59 121.52 154.43 118.34 157.49 C 116.17 154.89 112.72 154.27 109.71 153.12 C 107.20 152.35 104.55 150.52 101.92 151.99 C 103.49 158.00 107.00 163.29 108.37 169.37 L 107.61 169.03 C 104.24 167.43 100.73 166.17 97.16 165.10 C 95.70 161.92 93.99 158.65 94.14 155.03 C 93.96 151.60 94.98 148.08 94.21 144.71 C 92.82 143.06 90.82 142.13 89.01 141.06 C 89.51 139.81 90.02 138.56 90.54 137.32 C 91.76 137.31 92.98 137.31 94.21 137.30 C 94.62 139.05 94.95 140.82 95.56 142.51 C 97.98 144.61 101.38 144.21 104.30 143.76 C 104.89 141.07 105.54 138.39 106.37 135.77 C 106.66 138.14 106.91 140.51 107.18 142.88 C 109.06 141.62 110.94 140.35 112.81 139.08 C 115.25 138.88 118.87 140.15 120.18 137.32 Z" />
</g>
<g id="#85bdf4ff">
<path fill="#85bdf4" opacity="1.00" d=" M 107.06 66.09 C 107.92 65.09 108.61 63.96 109.34 62.87 C 109.65 62.96 110.29 63.15 110.60 63.24 C 107.75 65.45 110.49 68.78 111.75 71.12 C 112.73 73.16 114.85 73.98 116.89 74.55 C 117.11 72.62 117.33 70.68 117.55 68.74 C 118.49 68.47 119.44 68.20 120.39 67.92 L 120.74 68.35 C 122.08 69.96 123.46 71.53 124.77 73.16 C 127.92 79.68 134.57 86.87 130.77 94.44 C 130.16 92.30 129.42 90.19 128.73 88.08 C 124.97 87.50 121.15 87.39 117.37 87.83 C 119.32 90.36 121.33 92.84 123.21 95.42 C 118.17 93.27 113.45 90.47 108.50 88.14 C 108.50 87.83 108.51 87.21 108.51 86.90 C 107.86 86.86 106.55 86.78 105.89 86.74 C 104.64 89.51 104.83 92.52 105.24 95.46 L 104.97 96.47 C 104.37 94.70 103.71 92.96 103.00 91.23 C 94.85 94.05 85.83 91.06 77.94 94.92 C 78.23 95.92 78.52 96.91 78.82 97.91 C 77.51 97.37 76.18 96.88 74.86 96.38 C 71.23 98.78 68.32 102.49 68.54 107.06 C 67.70 111.71 72.92 113.24 76.20 114.85 C 73.67 114.50 71.14 114.12 68.62 113.75 C 66.48 116.35 63.81 118.44 60.77 119.90 C 60.47 119.11 60.16 118.33 59.86 117.55 C 61.27 115.98 63.28 114.59 63.58 112.35 C 64.13 109.53 62.91 106.79 62.06 104.16 C 59.84 106.37 57.82 108.85 56.78 111.84 C 54.99 116.69 52.94 121.63 52.69 126.85 C 54.12 130.79 59.21 130.62 62.43 132.33 C 62.66 132.45 63.10 132.68 63.33 132.79 C 64.60 136.96 68.13 139.64 71.38 142.26 C 68.17 142.93 65.13 141.72 62.60 139.80 C 62.22 140.17 61.45 140.91 61.07 141.28 C 61.44 139.14 61.83 137.01 62.23 134.87 C 58.03 136.17 53.75 137.17 49.42 137.89 C 49.54 133.06 49.40 128.22 48.95 123.41 C 46.69 122.94 44.41 122.49 42.18 121.86 C 43.59 121.90 45.01 121.95 46.42 121.99 C 46.02 120.69 45.58 119.40 45.10 118.12 C 45.66 117.63 46.22 117.12 46.77 116.62 C 48.70 114.70 47.90 112.06 47.33 109.76 C 50.35 103.92 54.27 98.58 58.88 93.88 C 62.28 90.32 64.41 85.59 68.58 82.77 C 74.99 81.12 77.73 73.83 84.08 72.21 C 86.79 72.83 89.13 74.59 91.89 75.06 C 95.72 74.70 95.09 70.39 95.47 67.62 C 99.30 66.86 103.25 66.93 107.06 66.09 Z" />
<path fill="#85bdf4" opacity="1.00" d=" M 119.53 128.48 C 123.20 119.06 124.70 108.78 129.62 99.84 C 129.64 102.06 129.64 104.28 129.67 106.50 C 129.11 109.76 128.77 113.08 127.87 116.27 C 126.64 119.38 125.11 122.38 124.34 125.66 C 123.08 129.58 122.13 133.66 120.18 137.32 C 118.87 140.15 115.25 138.88 112.81 139.08 C 112.79 136.47 113.31 133.89 114.50 131.55 C 116.26 130.76 118.83 130.62 119.53 128.48 Z" />
<path fill="#85bdf4" opacity="1.00" d=" M 49.74 161.98 C 51.92 160.41 53.33 158.04 55.01 155.99 C 54.96 161.29 51.33 165.22 47.69 168.61 C 45.37 168.11 43.05 167.65 40.72 167.21 C 41.75 170.48 42.87 173.73 44.26 176.87 C 42.98 176.52 41.70 176.17 40.41 175.82 C 40.61 172.43 40.18 169.06 38.18 166.23 C 38.14 164.41 38.06 162.59 37.95 160.77 C 41.68 162.11 45.83 163.35 49.74 161.98 Z" />
<path fill="#85bdf4" opacity="1.00" d=" M 57.31 161.41 C 59.55 160.18 59.97 164.54 57.77 164.61 C 56.22 164.48 56.21 162.14 57.31 161.41 Z" />
<path fill="#85bdf4" opacity="1.00" d=" M 97.16 165.10 C 100.73 166.17 104.24 167.43 107.61 169.03 C 103.39 169.50 100.01 172.34 97.15 175.26 C 96.10 176.45 94.41 176.58 93.01 177.15 C 92.37 181.05 94.88 184.18 98.28 185.74 C 100.81 186.27 103.44 186.39 105.90 187.24 C 109.90 188.70 114.22 187.88 118.34 188.63 C 112.32 188.98 106.24 189.22 100.26 188.39 C 95.52 187.20 91.97 183.55 88.06 180.84 C 89.66 178.53 91.29 176.21 93.30 174.24 C 94.92 172.91 96.66 171.64 97.92 169.94 C 99.14 168.44 97.59 166.63 97.16 165.10 Z" />
<path fill="#85bdf4" opacity="1.00" d=" M 55.20 174.26 C 55.47 172.04 55.98 169.85 56.77 167.76 C 58.79 170.35 60.56 173.12 62.09 176.02 C 61.82 176.29 61.27 176.84 61.00 177.12 C 59.24 180.31 60.04 184.27 58.83 187.69 C 58.18 187.74 56.90 187.84 56.26 187.89 C 57.72 183.91 58.72 179.74 58.65 175.48 C 57.50 175.07 56.35 174.66 55.20 174.26 Z" />
</g>
<g id="#eeecfaff">
<path fill="#eeecfa" opacity="1.00" d=" M 77.94 94.92 C 85.83 91.06 94.85 94.05 103.00 91.23 C 103.71 92.96 104.37 94.70 104.97 96.47 L 105.24 95.46 C 105.76 94.29 106.29 93.12 106.82 91.96 C 110.63 96.30 116.81 95.76 122.00 96.69 C 122.15 97.77 122.29 98.85 122.44 99.94 C 118.63 105.03 114.86 110.24 112.09 115.99 C 109.48 121.19 113.29 126.52 114.50 131.55 C 113.31 133.89 112.79 136.47 112.81 139.08 C 110.94 140.35 109.06 141.62 107.18 142.88 C 106.91 140.51 106.66 138.14 106.37 135.77 C 105.54 138.39 104.89 141.07 104.30 143.76 C 101.38 144.21 97.98 144.61 95.56 142.51 C 94.95 140.82 94.62 139.05 94.21 137.30 C 92.98 137.31 91.76 137.31 90.54 137.32 C 90.02 138.56 89.51 139.81 89.01 141.06 C 87.07 141.52 85.11 141.91 83.13 142.08 C 80.87 141.10 78.67 139.99 76.44 138.94 C 77.10 137.38 77.76 135.82 78.42 134.27 C 77.04 133.70 75.66 133.12 74.29 132.54 C 73.09 133.77 71.89 135.01 70.70 136.25 C 68.21 135.16 65.75 134.01 63.33 132.79 C 63.10 132.68 62.66 132.45 62.43 132.33 C 63.93 130.57 65.42 128.80 66.88 127.01 C 63.47 126.63 60.02 126.77 56.75 127.85 C 54.31 124.42 57.86 121.35 60.77 119.90 C 63.81 118.44 66.48 116.35 68.62 113.75 C 71.14 114.12 73.67 114.50 76.20 114.85 C 80.50 115.99 87.09 114.42 87.09 108.99 C 87.76 103.60 83.50 99.58 78.82 97.91 C 78.52 96.91 78.23 95.92 77.94 94.92 M 104.96 119.03 C 109.93 116.39 112.06 110.93 114.01 106.00 C 109.46 108.88 104.23 112.95 104.96 119.03 M 85.23 115.40 C 83.94 115.51 82.63 117.18 83.32 118.41 C 84.79 119.28 87.04 116.09 85.23 115.40 M 91.52 122.26 C 93.56 122.82 95.66 122.93 97.76 122.86 C 97.74 121.56 97.71 120.26 97.68 118.96 C 95.28 119.30 93.28 120.67 91.52 122.26 Z" />
<path fill="#eeecfa" opacity="1.00" d=" M 39.57 139.63 C 39.84 144.42 39.90 149.23 39.89 154.03 C 42.04 154.54 44.37 155.94 46.55 154.80 C 48.90 153.84 50.27 151.55 50.97 149.22 C 51.63 147.39 52.26 145.55 52.91 143.71 C 53.11 146.22 53.34 148.74 53.42 151.26 C 52.29 153.90 50.31 156.43 47.48 157.35 C 44.51 158.15 41.39 157.68 38.35 157.60 C 38.02 152.85 38.06 148.06 38.84 143.36 C 37.34 144.30 35.82 145.22 34.26 146.05 L 33.38 146.52 C 33.93 143.11 37.01 141.41 39.57 139.63 Z" />
<path fill="#eeecfa" opacity="1.00" d=" M 115.51 146.49 C 117.07 144.00 120.37 144.54 122.87 144.09 C 121.61 145.35 120.33 146.60 119.05 147.84 C 121.88 147.59 124.71 147.35 127.54 147.17 C 128.39 148.99 129.25 150.80 130.12 152.61 C 125.34 154.72 120.06 154.23 115.00 153.73 C 114.59 151.34 113.65 148.54 115.51 146.49 Z" />
<path fill="#eeecfa" opacity="1.00" d=" M 118.34 157.49 C 121.52 154.43 126.03 154.59 130.12 154.89 C 129.24 156.67 128.47 158.54 127.23 160.12 C 124.58 161.64 120.94 161.12 119.01 158.66 L 118.34 157.49 Z" />
<path fill="#eeecfa" opacity="1.00" d=" M 72.44 165.71 C 72.47 164.13 74.13 163.41 75.02 162.34 C 77.69 164.48 80.10 166.91 82.65 169.19 C 78.93 171.98 75.06 168.22 72.44 165.71 Z" />
</g>
</svg>
