<?xml version="1.0" encoding="UTF-8" ?>
<!DOCTYPE svg PUBLIC "-//W3C//DTD SVG 1.1//EN" "http://www.w3.org/Graphics/SVG/1.1/DTD/svg11.dtd">
<svg width="155pt" height="210pt" viewBox="0 0 155 210" version="1.1" xmlns="http://www.w3.org/2000/svg">
<g id="#a1997eff">
<path fill="#a1997e" opacity="1.00" d=" M 66.09 40.30 C 67.89 40.75 69.69 41.23 71.48 41.74 C 66.52 45.21 66.74 51.76 65.05 56.98 C 64.25 60.23 62.25 63.24 62.30 66.65 C 63.37 70.83 66.23 74.22 68.51 77.79 C 65.93 81.47 64.77 85.82 65.15 90.30 C 64.92 90.86 64.47 91.97 64.24 92.53 C 62.45 96.04 59.84 99.22 56.21 100.92 C 53.92 101.44 51.61 101.84 49.30 102.27 C 49.17 102.90 48.91 104.14 48.78 104.76 C 48.20 103.21 47.63 101.66 46.95 100.16 C 45.59 97.83 43.56 95.85 42.83 93.19 C 41.58 89.13 41.89 84.80 40.99 80.68 C 39.71 77.89 37.65 75.19 38.85 71.94 C 41.67 71.49 45.96 72.84 47.41 69.54 C 48.08 65.13 46.98 60.63 47.81 56.24 C 48.82 55.57 49.85 54.94 50.91 54.36 C 51.28 57.72 51.69 61.08 52.10 64.45 C 53.63 64.29 55.17 64.20 56.68 63.88 C 58.26 62.70 58.68 60.59 59.41 58.86 C 61.45 52.61 63.68 46.42 66.09 40.30 M 49.28 74.26 C 45.16 79.73 44.18 88.42 49.66 93.37 C 51.77 95.65 54.94 94.80 57.48 93.90 L 57.90 94.53 C 58.99 88.33 60.75 82.17 60.42 75.82 L 59.73 76.23 C 58.77 74.85 58.31 72.85 56.66 72.11 C 54.08 71.54 51.03 72.15 49.28 74.26 Z" />
<path fill="#a1997e" opacity="1.00" d=" M 74.25 60.89 C 73.82 58.56 76.32 57.55 77.75 56.28 C 81.55 57.32 85.35 58.35 89.10 59.58 C 87.07 63.20 85.19 66.90 82.84 70.33 C 79.17 68.19 74.54 65.69 74.25 60.89 Z" />
<path fill="#a1997e" opacity="1.00" d=" M 90.22 73.16 C 92.34 68.76 94.37 64.32 96.54 59.95 C 97.62 61.38 98.51 63.11 100.13 64.02 C 103.91 65.96 107.95 67.31 111.78 69.13 C 119.48 73.02 126.83 77.94 132.56 84.45 C 135.40 87.58 136.60 91.85 136.63 96.01 C 136.72 104.28 136.01 112.80 132.36 120.35 C 128.84 127.74 125.16 135.09 120.74 141.98 C 118.74 145.16 115.76 147.71 111.93 148.28 L 112.32 147.12 C 113.00 145.06 113.87 143.06 115.02 141.22 C 118.15 138.02 121.82 135.25 124.17 131.36 C 126.63 127.29 128.33 122.82 130.38 118.53 C 132.19 114.45 134.45 110.29 134.28 105.68 C 134.05 98.97 133.61 91.45 128.54 86.42 C 126.26 83.45 122.45 82.80 118.99 82.26 C 113.45 81.69 109.63 77.03 104.33 75.68 C 105.60 75.15 106.86 74.61 108.13 74.07 C 103.83 71.31 99.36 74.38 94.99 75.12 C 93.28 74.80 91.77 73.88 90.22 73.16 Z" />
<path fill="#a1997e" opacity="1.00" d=" M 88.13 94.19 C 88.59 93.77 89.51 92.94 89.97 92.52 C 89.97 94.55 90.15 96.63 89.68 98.63 C 88.19 103.32 83.82 106.81 83.39 111.88 C 84.43 114.23 86.41 116.00 87.66 118.24 C 87.71 120.97 84.57 122.28 82.89 124.00 C 80.77 122.74 78.69 121.40 76.62 120.05 C 78.61 110.78 81.65 101.35 88.13 94.19 Z" />
<path fill="#a1997e" opacity="1.00" d=" M 89.01 139.69 C 83.36 136.59 75.57 133.23 75.51 125.69 C 83.34 130.68 90.78 137.00 100.11 138.86 C 102.34 139.79 104.36 141.14 106.39 142.44 C 104.95 143.94 103.09 144.90 101.23 145.77 C 98.60 144.22 95.86 142.86 93.09 141.60 C 91.73 140.97 90.36 140.34 89.01 139.69 Z" />
<path fill="#a1997e" opacity="1.00" d=" M 77.76 179.28 C 79.83 179.29 81.89 179.31 83.96 179.33 C 83.68 181.59 83.31 183.84 82.76 186.05 C 78.84 186.24 77.60 182.54 77.76 179.28 Z" />
</g>
<g id="#756c51ff">
<path fill="#756c51" opacity="1.00" d=" M 71.48 41.74 L 72.29 41.05 C 72.54 45.98 71.38 50.80 70.82 55.67 C 73.13 55.89 75.44 56.11 77.75 56.28 C 76.32 57.55 73.82 58.56 74.25 60.89 C 74.54 65.69 79.17 68.19 82.84 70.33 C 80.94 73.21 79.04 76.09 77.19 79.01 C 76.43 78.56 75.68 78.10 74.93 77.65 C 69.70 80.03 67.18 85.25 65.15 90.30 C 64.77 85.82 65.93 81.47 68.51 77.79 C 66.23 74.22 63.37 70.83 62.30 66.65 C 62.25 63.24 64.25 60.23 65.05 56.98 C 66.74 51.76 66.52 45.21 71.48 41.74 M 68.63 68.86 C 69.29 69.22 70.60 69.92 71.26 70.27 C 71.41 66.68 71.38 63.08 70.91 59.51 C 68.47 62.05 68.53 65.58 68.63 68.86 Z" />
<path fill="#756c51" opacity="1.00" d=" M 108.47 44.15 C 110.96 44.23 114.50 44.77 114.49 48.01 C 113.70 55.05 111.31 61.93 111.78 69.13 C 107.95 67.31 103.91 65.96 100.13 64.02 C 100.56 63.92 101.41 63.72 101.84 63.62 C 102.96 63.41 103.48 62.70 103.38 61.49 C 104.09 55.47 106.54 49.84 108.47 44.15 Z" />
<path fill="#756c51" opacity="1.00" d=" M 50.91 54.36 C 54.16 54.99 56.76 57.04 59.41 58.86 C 58.68 60.59 58.26 62.70 56.68 63.88 C 55.17 64.20 53.63 64.29 52.10 64.45 C 51.69 61.08 51.28 57.72 50.91 54.36 Z" />
<path fill="#756c51" opacity="1.00" d=" M 94.99 75.12 C 99.36 74.38 103.83 71.31 108.13 74.07 C 106.86 74.61 105.60 75.15 104.33 75.68 C 102.96 78.68 101.81 81.96 99.25 84.18 C 96.12 86.92 92.99 89.65 89.97 92.52 C 89.51 92.94 88.59 93.77 88.13 94.19 C 88.40 92.02 88.57 89.84 88.75 87.67 C 87.39 86.97 86.04 86.28 84.68 85.59 C 86.45 81.41 88.26 77.25 90.22 73.16 C 91.77 73.88 93.28 74.80 94.99 75.12 Z" />
<path fill="#756c51" opacity="1.00" d=" M 59.73 76.23 L 60.42 75.82 C 60.75 82.17 58.99 88.33 57.90 94.53 L 57.48 93.90 C 55.16 90.56 52.36 86.74 53.46 82.42 C 53.91 79.16 57.34 77.86 59.73 76.23 Z" />
<path fill="#756c51" opacity="1.00" d=" M 103.53 124.41 C 105.31 125.63 107.34 127.18 106.77 129.65 C 105.78 131.87 103.47 130.56 101.85 130.02 C 103.03 129.34 104.22 128.66 105.41 127.99 C 104.78 126.80 104.15 125.60 103.53 124.41 Z" />
</g>
<g id="#0c1516ff">
<path fill="#0c1516" opacity="1.00" d=" M 95.85 49.73 C 97.12 47.26 101.11 49.38 100.36 51.75 C 99.42 54.62 97.84 57.23 96.54 59.95 C 94.37 64.32 92.34 68.76 90.22 73.16 C 88.26 77.25 86.45 81.41 84.68 85.59 C 79.92 96.15 77.33 107.51 74.58 118.71 C 75.09 119.05 76.11 119.72 76.62 120.05 C 78.69 121.40 80.77 122.74 82.89 124.00 C 85.52 125.54 88.19 127.01 90.85 128.49 C 91.31 126.98 91.75 125.48 92.19 123.97 C 92.96 126.11 93.43 128.44 94.75 130.34 C 96.89 132.38 99.69 133.50 102.26 134.88 C 101.54 136.20 100.82 137.53 100.11 138.86 C 90.78 137.00 83.34 130.68 75.51 125.69 C 74.19 124.79 72.84 123.91 71.49 123.05 C 71.28 127.85 74.28 131.56 77.68 134.55 C 76.50 134.79 75.32 135.03 74.14 135.28 C 76.02 137.52 77.71 140.09 80.31 141.56 C 83.31 141.61 86.16 140.47 89.01 139.69 C 90.36 140.34 91.73 140.97 93.09 141.60 C 88.71 143.42 84.25 145.34 80.85 148.76 C 75.89 147.23 70.92 145.74 65.94 144.29 C 65.74 145.83 65.54 147.39 65.35 148.94 C 63.93 148.94 62.51 148.96 61.09 148.98 C 61.72 147.72 62.36 146.46 62.99 145.20 C 57.94 146.09 52.86 146.76 47.73 146.93 C 48.82 145.68 49.92 144.44 51.02 143.21 C 53.16 142.09 55.34 141.07 57.49 139.99 C 56.15 139.89 54.81 139.79 53.47 139.70 C 51.38 137.47 49.21 135.31 46.78 133.46 C 47.48 132.75 48.19 132.04 48.89 131.33 C 46.15 131.13 43.41 130.86 40.68 130.49 C 42.30 129.17 44.01 127.95 45.76 126.79 C 40.38 123.87 36.28 119.25 32.16 114.84 C 30.63 113.11 28.91 111.28 28.79 108.84 C 36.42 110.05 43.75 113.72 49.72 118.61 C 49.73 116.31 49.83 114.01 50.06 111.72 C 50.73 112.77 51.44 113.80 52.14 114.84 C 52.87 109.99 56.58 105.95 56.21 100.92 C 59.84 99.22 62.45 96.04 64.24 92.53 C 70.52 90.28 73.90 84.37 77.19 79.01 C 79.04 76.09 80.94 73.21 82.84 70.33 C 85.19 66.90 87.07 63.20 89.10 59.58 C 91.34 56.29 93.53 52.96 95.85 49.73 Z" />
<path fill="#0c1516" opacity="1.00" d=" M 101.84 63.62 C 101.27 62.09 101.78 61.39 103.38 61.49 C 103.48 62.70 102.96 63.41 101.84 63.62 Z" />
<path fill="#0c1516" opacity="1.00" d=" M 106.39 142.44 C 107.00 140.92 107.55 139.38 108.12 137.84 C 110.40 138.99 112.71 140.10 115.02 141.22 C 113.87 143.06 113.00 145.06 112.32 147.12 C 109.41 143.80 104.97 145.31 101.23 145.77 C 103.09 144.90 104.95 143.94 106.39 142.44 Z" />
<path fill="#0c1516" opacity="1.00" d=" M 111.93 148.28 C 115.76 147.71 118.74 145.16 120.74 141.98 C 122.13 142.81 123.52 143.63 124.92 144.44 C 124.91 148.97 123.08 154.62 118.16 155.65 C 115.30 154.30 114.01 150.66 111.93 148.28 Z" />
<path fill="#0c1516" opacity="1.00" d=" M 42.89 145.44 C 44.50 145.93 46.12 146.43 47.73 146.93 C 44.86 152.83 41.50 158.49 37.85 163.94 C 36.89 163.24 35.94 162.53 34.99 161.83 C 37.43 156.27 40.69 151.11 42.89 145.44 Z" />
<path fill="#0c1516" opacity="1.00" d=" M 50.02 161.74 C 51.08 154.81 58.94 151.73 65.09 150.98 C 68.36 151.03 71.66 151.27 74.83 152.09 C 78.12 152.50 78.55 156.31 79.81 158.73 C 77.36 162.35 75.06 166.07 72.76 169.79 C 73.92 170.75 75.11 171.69 76.31 172.61 C 74.48 172.75 72.65 172.89 70.83 173.04 C 69.12 174.96 67.24 176.71 65.27 178.37 C 67.97 178.29 70.67 178.34 73.36 178.45 C 70.51 180.43 67.47 182.23 64.04 182.97 C 64.28 181.64 64.53 180.32 64.77 179.01 C 63.89 178.38 63.01 177.76 62.13 177.13 C 60.60 179.00 59.09 180.88 57.62 182.79 C 55.21 181.92 52.97 180.66 50.78 179.33 C 53.66 178.41 50.97 174.50 49.29 177.19 C 47.63 171.96 50.27 166.99 52.76 162.56 C 52.08 162.35 50.71 161.94 50.02 161.74 M 64.17 172.19 C 62.66 172.57 63.53 174.89 64.93 174.31 C 66.45 173.93 65.56 171.60 64.17 172.19 Z" />
<path fill="#0c1516" opacity="1.00" d=" M 53.20 185.15 C 58.74 185.94 64.33 185.26 69.87 184.83 C 73.99 184.45 77.99 185.74 82.04 186.19 C 84.86 186.29 87.69 185.87 90.51 186.24 C 98.19 187.48 106.04 185.79 113.70 187.14 C 117.25 188.09 116.12 192.31 116.31 195.04 C 95.55 195.46 74.77 195.13 54.00 195.23 C 47.03 195.20 40.06 195.41 33.10 194.89 C 33.45 192.12 32.29 187.62 36.17 187.05 C 41.88 186.15 47.70 186.83 53.45 186.80 C 53.39 186.38 53.26 185.56 53.20 185.15 Z" />
</g>
<g id="#484130fe">
<path fill="#484130" opacity="1.00" d=" M 68.63 68.86 C 68.53 65.58 68.47 62.05 70.91 59.51 C 71.38 63.08 71.41 66.68 71.26 70.27 C 70.60 69.92 69.29 69.22 68.63 68.86 Z" />
<path fill="#484130" opacity="1.00" d=" M 49.28 74.26 C 51.03 72.15 54.08 71.54 56.66 72.11 C 58.31 72.85 58.77 74.85 59.73 76.23 C 57.34 77.86 53.91 79.16 53.46 82.42 C 52.36 86.74 55.16 90.56 57.48 93.90 C 54.94 94.80 51.77 95.65 49.66 93.37 C 44.18 88.42 45.16 79.73 49.28 74.26 Z" />
<path fill="#484130" opacity="1.00" d=" M 74.93 77.65 C 75.68 78.10 76.43 78.56 77.19 79.01 C 73.90 84.37 70.52 90.28 64.24 92.53 C 64.47 91.97 64.92 90.86 65.15 90.30 C 67.18 85.25 69.70 80.03 74.93 77.65 Z" />
<path fill="#484130" opacity="1.00" d=" M 74.58 118.71 C 77.33 107.51 79.92 96.15 84.68 85.59 C 86.04 86.28 87.39 86.97 88.75 87.67 C 88.57 89.84 88.40 92.02 88.13 94.19 C 81.65 101.35 78.61 110.78 76.62 120.05 C 76.11 119.72 75.09 119.05 74.58 118.71 Z" />
<path fill="#484130" opacity="1.00" d=" M 46.95 100.16 C 47.63 101.66 48.20 103.21 48.78 104.76 C 48.91 104.14 49.17 102.90 49.30 102.27 C 51.61 101.84 53.92 101.44 56.21 100.92 C 56.58 105.95 52.87 109.99 52.14 114.84 C 51.44 113.80 50.73 112.77 50.06 111.72 C 47.88 108.27 47.48 104.11 46.95 100.16 Z" />
<path fill="#484130" opacity="1.00" d=" M 71.49 123.05 C 72.84 123.91 74.19 124.79 75.51 125.69 C 75.57 133.23 83.36 136.59 89.01 139.69 C 86.16 140.47 83.31 141.61 80.31 141.56 C 77.71 140.09 76.02 137.52 74.14 135.28 C 75.32 135.03 76.50 134.79 77.68 134.55 C 74.28 131.56 71.28 127.85 71.49 123.05 Z" />
<path fill="#484130" opacity="1.00" d=" M 102.26 134.88 C 104.21 135.86 106.16 136.86 108.12 137.84 C 107.55 139.38 107.00 140.92 106.39 142.44 C 104.36 141.14 102.34 139.79 100.11 138.86 C 100.82 137.53 101.54 136.20 102.26 134.88 Z" />
<path fill="#484130" opacity="1.00" d=" M 65.94 144.29 C 70.92 145.74 75.89 147.23 80.85 148.76 C 80.05 152.62 81.61 156.22 83.15 159.65 C 82.04 159.32 80.93 159.01 79.81 158.73 C 78.55 156.31 78.12 152.50 74.83 152.09 C 71.66 151.27 68.36 151.03 65.09 150.98 C 65.16 150.47 65.28 149.45 65.35 148.94 C 65.54 147.39 65.74 145.83 65.94 144.29 Z" />
</g>
<g id="#b3ae95ff">
<path fill="#b3ae95" opacity="1.00" d=" M 104.33 75.68 C 109.63 77.03 113.45 81.69 118.99 82.26 C 122.45 82.80 126.26 83.45 128.54 86.42 C 133.61 91.45 134.05 98.97 134.28 105.68 C 134.45 110.29 132.19 114.45 130.38 118.53 C 128.33 122.82 126.63 127.29 124.17 131.36 C 121.82 135.25 118.15 138.02 115.02 141.22 C 112.71 140.10 110.40 138.99 108.12 137.84 C 106.16 136.86 104.21 135.86 102.26 134.88 C 99.69 133.50 96.89 132.38 94.75 130.34 C 93.43 128.44 92.96 126.11 92.19 123.97 C 91.75 125.48 91.31 126.98 90.85 128.49 C 88.19 127.01 85.52 125.54 82.89 124.00 C 84.57 122.28 87.71 120.97 87.66 118.24 C 86.41 116.00 84.43 114.23 83.39 111.88 C 83.82 106.81 88.19 103.32 89.68 98.63 C 90.15 96.63 89.97 94.55 89.97 92.52 C 92.99 89.65 96.12 86.92 99.25 84.18 C 101.81 81.96 102.96 78.68 104.33 75.68 M 103.53 124.41 C 104.15 125.60 104.78 126.80 105.41 127.99 C 104.22 128.66 103.03 129.34 101.85 130.02 C 103.47 130.56 105.78 131.87 106.77 129.65 C 107.34 127.18 105.31 125.63 103.53 124.41 Z" />
</g>
<g id="#234548fe">
<path fill="#234548" opacity="1.00" d=" M 45.32 132.36 C 45.69 132.63 46.41 133.18 46.78 133.46 C 49.21 135.31 51.38 137.47 53.47 139.70 C 52.66 140.87 51.87 142.06 51.02 143.21 C 49.92 144.44 48.82 145.68 47.73 146.93 C 46.12 146.43 44.50 145.93 42.89 145.44 C 41.32 140.91 43.33 136.38 45.32 132.36 Z" />
<path fill="#234548" opacity="1.00" d=" M 79.81 158.73 C 80.93 159.01 82.04 159.32 83.15 159.65 C 83.82 165.24 84.43 170.84 84.51 176.48 C 86.04 177.57 87.71 178.55 88.94 180.00 C 90.04 181.88 90.12 184.15 90.51 186.24 C 87.69 185.87 84.86 186.29 82.04 186.19 C 77.99 185.74 73.99 184.45 69.87 184.83 C 64.33 185.26 58.74 185.94 53.20 185.15 C 47.82 184.71 43.62 179.30 44.12 174.01 C 44.29 169.26 47.45 165.47 50.02 161.74 C 50.71 161.94 52.08 162.35 52.76 162.56 C 50.27 166.99 47.63 171.96 49.29 177.19 C 49.66 177.72 50.41 178.79 50.78 179.33 C 52.97 180.66 55.21 181.92 57.62 182.79 C 59.76 182.95 61.90 183.00 64.04 182.97 C 67.47 182.23 70.51 180.43 73.36 178.45 C 70.67 178.34 67.97 178.29 65.27 178.37 C 67.24 176.71 69.12 174.96 70.83 173.04 C 72.65 172.89 74.48 172.75 76.31 172.61 C 75.11 171.69 73.92 170.75 72.76 169.79 C 75.06 166.07 77.36 162.35 79.81 158.73 M 77.76 179.28 C 77.60 182.54 78.84 186.24 82.76 186.05 C 83.31 183.84 83.68 181.59 83.96 179.33 C 81.89 179.31 79.83 179.29 77.76 179.28 Z" />
</g>
</svg>
