<?xml version="1.0" encoding="UTF-8" ?>
<!DOCTYPE svg PUBLIC "-//W3C//DTD SVG 1.1//EN" "http://www.w3.org/Graphics/SVG/1.1/DTD/svg11.dtd">
<svg width="155pt" height="210pt" viewBox="0 0 155 210" version="1.1" xmlns="http://www.w3.org/2000/svg">
<g id="#cdba99ff">
<path fill="#cdba99" opacity="1.00" d=" M 80.80 43.77 C 83.17 39.97 86.80 37.00 91.03 35.51 C 92.40 36.23 94.01 37.31 93.72 39.10 C 93.44 47.16 88.89 54.32 87.99 62.30 C 85.67 63.16 83.32 64.52 80.75 64.15 C 77.74 63.82 74.74 63.35 71.70 63.54 C 73.92 56.61 76.91 49.92 80.80 43.77 Z" />
<path fill="#cdba99" opacity="1.00" d=" M 97.28 44.74 C 100.41 47.52 103.71 50.12 107.28 52.31 C 106.42 54.68 105.53 57.04 104.65 59.40 C 99.34 59.91 94.02 60.63 88.85 61.98 C 91.49 56.15 94.02 50.26 97.28 44.74 Z" />
<path fill="#cdba99" opacity="1.00" d=" M 38.07 67.08 C 38.75 64.94 40.92 64.85 42.80 64.67 C 44.33 70.23 45.35 75.91 47.09 81.41 C 47.35 84.05 48.50 87.24 46.48 89.48 C 43.26 93.20 38.30 94.52 33.88 96.25 C 33.46 94.83 33.04 93.41 32.68 91.97 C 32.28 83.45 34.28 74.72 38.07 67.08 Z" />
<path fill="#cdba99" opacity="1.00" d=" M 95.23 90.69 C 96.08 85.58 99.82 81.57 102.86 77.59 C 106.28 83.61 107.39 90.93 105.65 97.65 C 104.68 101.14 102.27 104.53 98.69 105.63 C 96.93 106.25 95.63 104.49 94.67 103.32 C 92.55 100.37 90.25 96.53 92.30 92.95 C 93.09 95.47 93.98 97.96 94.86 100.45 C 95.02 97.20 95.07 93.94 95.23 90.69 Z" />
<path fill="#cdba99" opacity="1.00" d=" M 92.87 112.38 C 96.71 114.61 100.34 117.19 103.59 120.22 C 103.27 120.28 102.64 120.40 102.32 120.47 C 96.76 121.07 89.96 122.05 87.68 128.05 C 86.07 132.48 85.30 137.15 84.82 141.81 C 84.53 143.73 84.19 145.67 83.45 147.47 C 77.61 149.50 71.35 148.62 65.36 147.97 C 62.62 147.49 60.12 148.88 57.74 149.99 C 56.83 149.24 55.92 148.49 55.01 147.75 C 54.02 148.56 53.03 149.37 52.03 150.18 C 51.90 149.22 51.65 147.30 51.52 146.34 C 52.68 146.02 53.85 145.71 55.01 145.39 C 54.97 144.36 54.92 143.32 54.88 142.29 C 53.29 141.86 51.70 141.42 50.12 141.00 C 49.90 140.58 49.48 139.74 49.27 139.32 C 56.78 137.52 65.60 138.61 71.75 133.16 C 73.11 134.73 74.42 136.35 75.66 138.03 C 77.60 135.85 79.66 133.76 81.34 131.36 C 83.86 127.78 84.27 123.23 86.43 119.47 C 88.21 116.80 90.66 114.68 92.87 112.38 Z" />
<path fill="#cdba99" opacity="1.00" d=" M 106.94 124.48 C 114.19 121.53 122.13 117.62 130.08 120.30 C 129.79 120.96 129.23 122.28 128.94 122.94 C 128.38 124.27 127.82 125.60 127.27 126.93 C 120.48 126.20 113.76 124.83 106.94 124.48 Z" />
<path fill="#cdba99" opacity="1.00" d=" M 76.67 127.91 C 78.55 125.76 80.48 123.65 82.43 121.56 C 82.83 123.34 83.35 125.12 83.37 126.96 C 82.63 128.90 80.79 130.15 79.44 131.66 C 78.51 130.41 77.59 129.16 76.67 127.91 Z" />
<path fill="#cdba99" opacity="1.00" d=" M 104.63 130.33 C 109.72 129.97 114.68 131.23 119.22 133.46 C 118.58 133.76 117.30 134.36 116.66 134.66 C 116.52 135.37 116.23 136.77 116.08 137.47 C 111.77 135.95 108.02 133.37 104.63 130.33 Z" />
<path fill="#cdba99" opacity="1.00" d=" M 42.97 151.27 C 43.04 149.87 43.85 148.67 44.78 147.68 C 46.60 149.03 45.17 152.00 42.97 151.27 Z" />
<path fill="#cdba99" opacity="1.00" d=" M 64.47 152.32 C 71.89 151.78 80.43 153.27 84.86 159.89 C 85.55 162.43 84.21 165.11 83.96 167.67 C 86.63 166.98 88.90 165.44 90.75 163.42 C 91.16 165.05 91.59 166.68 92.02 168.30 C 92.68 168.23 94.00 168.07 94.66 168.00 C 95.49 165.53 96.31 163.05 96.91 160.52 C 97.83 167.56 96.09 174.75 93.13 181.12 C 90.20 185.90 87.15 190.62 85.08 195.87 C 76.25 194.97 67.36 195.86 58.53 194.99 C 59.02 193.30 59.55 191.63 60.17 189.99 C 62.48 186.99 65.55 184.69 68.19 182.00 C 69.70 180.74 71.14 178.85 73.32 178.94 C 79.38 178.98 86.11 180.53 91.33 176.50 C 83.64 175.35 75.81 176.23 68.12 174.94 L 67.06 174.81 C 65.20 171.08 63.00 167.27 62.93 163.00 C 62.98 159.39 63.85 155.86 64.47 152.32 Z" />
<path fill="#cdba99" opacity="1.00" d=" M 50.17 179.99 C 52.10 180.92 54.03 181.88 55.94 182.84 C 56.25 182.38 56.87 181.44 57.18 180.97 C 58.22 181.70 59.26 182.42 60.30 183.15 C 58.35 184.29 56.45 185.55 54.68 186.96 C 52.75 184.94 51.01 182.70 50.17 179.99 Z" />
<path fill="#cdba99" opacity="1.00" d=" M 104.39 183.97 C 105.42 184.90 106.45 185.84 107.47 186.79 C 106.25 187.72 105.02 188.63 103.77 189.52 L 103.97 188.47 C 104.14 186.97 104.24 185.47 104.39 183.97 Z" />
<path fill="#cdba99" opacity="1.00" d=" M 108.50 187.76 C 108.37 186.21 109.85 184.70 111.34 185.73 C 112.37 187.32 109.41 189.86 108.50 187.76 Z" />
<path fill="#cdba99" opacity="1.00" d=" M 61.26 200.41 C 68.11 200.23 74.95 198.76 81.82 199.65 C 87.19 200.33 92.62 200.59 98.03 200.47 C 95.62 200.87 93.22 201.46 90.76 201.48 C 80.92 201.50 71.02 202.05 61.25 200.57 L 61.26 200.41 Z" />
</g>
<g id="#c91919ff">
<path fill="#c91919" opacity="1.00" d=" M 88.85 61.98 C 94.02 60.63 99.34 59.91 104.65 59.40 C 108.76 62.61 111.27 67.23 111.93 72.39 C 114.66 68.90 117.36 65.28 121.09 62.78 C 121.66 67.88 120.63 73.10 117.27 77.09 C 117.90 79.46 119.19 82.20 117.60 84.49 C 116.60 85.53 115.42 86.39 114.29 87.28 C 114.80 88.21 115.31 89.14 115.82 90.08 C 114.53 92.68 113.15 95.25 112.14 97.99 C 114.98 99.83 118.14 101.10 121.01 102.88 C 119.86 106.15 118.96 109.62 116.81 112.41 C 113.37 116.35 108.77 119.27 103.59 120.22 C 100.34 117.19 96.71 114.61 92.87 112.38 C 88.93 114.89 85.40 117.96 82.43 121.56 C 80.48 123.65 78.55 125.76 76.67 127.91 C 75.09 129.71 73.48 131.50 71.75 133.16 C 65.60 138.61 56.78 137.52 49.27 139.32 C 49.48 139.74 49.90 140.58 50.12 141.00 C 48.35 143.24 46.60 145.49 44.78 147.68 C 43.85 148.67 43.04 149.87 42.97 151.27 C 42.32 149.84 40.79 148.35 41.61 146.67 C 43.25 144.09 45.64 142.10 47.72 139.89 C 39.59 135.82 31.03 132.02 24.58 125.42 C 20.53 121.37 20.68 115.18 19.87 109.89 C 19.92 101.83 26.79 96.40 32.68 91.97 C 33.04 93.41 33.46 94.83 33.88 96.25 C 38.30 94.52 43.26 93.20 46.48 89.48 C 48.50 87.24 47.35 84.05 47.09 81.41 C 47.49 76.29 50.83 71.82 54.85 68.84 C 57.11 67.32 59.75 65.68 62.60 66.23 C 64.09 68.10 65.20 70.23 66.38 72.31 C 67.42 69.07 68.74 65.50 71.70 63.54 C 74.74 63.35 77.74 63.82 80.75 64.15 C 83.32 64.52 85.67 63.16 87.99 62.30 L 88.85 61.98 M 95.23 90.69 C 93.67 90.76 92.70 91.51 92.30 92.95 C 90.25 96.53 92.55 100.37 94.67 103.32 C 95.63 104.49 96.93 106.25 98.69 105.63 C 102.27 104.53 104.68 101.14 105.65 97.65 C 107.39 90.93 106.28 83.61 102.86 77.59 C 99.82 81.57 96.08 85.58 95.23 90.69 M 70.39 102.22 C 70.48 103.54 70.76 104.84 70.99 106.14 C 72.83 104.87 74.71 103.67 76.64 102.54 C 76.58 99.96 76.57 97.38 76.60 94.80 C 74.10 96.83 71.04 98.82 70.39 102.22 Z" />
<path fill="#c91919" opacity="1.00" d=" M 90.81 134.38 C 92.45 133.64 94.03 132.70 95.81 132.36 C 97.25 132.89 98.20 134.23 99.35 135.18 C 98.53 139.38 99.41 144.31 103.32 146.68 C 104.57 151.90 109.88 154.86 110.87 160.17 C 111.78 163.69 111.28 167.36 111.01 170.94 C 110.40 175.99 111.96 180.96 112.11 186.00 L 111.34 185.73 C 109.85 184.70 108.37 186.21 108.50 187.76 C 108.24 187.51 107.73 187.03 107.47 186.79 C 106.45 185.84 105.42 184.90 104.39 183.97 C 104.23 179.29 109.74 176.85 108.69 171.97 C 106.08 170.33 101.39 169.02 102.14 165.07 C 102.83 160.33 103.77 155.52 102.54 150.76 C 99.06 152.89 97.23 156.51 96.91 160.52 C 96.31 163.05 95.49 165.53 94.66 168.00 C 94.00 168.07 92.68 168.23 92.02 168.30 C 91.59 166.68 91.16 165.05 90.75 163.42 C 88.90 165.44 86.63 166.98 83.96 167.67 C 84.21 165.11 85.55 162.43 84.86 159.89 C 80.43 153.27 71.89 151.78 64.47 152.32 C 62.80 151.83 61.14 151.32 59.52 150.71 C 59.07 150.53 58.18 150.17 57.74 149.99 C 60.12 148.88 62.62 147.49 65.36 147.97 C 71.35 148.62 77.61 149.50 83.45 147.47 C 84.19 145.67 84.53 143.73 84.82 141.81 C 84.81 145.45 86.40 148.74 88.72 151.45 C 90.55 149.29 92.40 147.14 94.37 145.10 C 93.52 141.42 92.17 137.89 90.81 134.38 Z" />
<path fill="#c91919" opacity="1.00" d=" M 52.47 165.55 C 51.27 160.80 54.15 156.28 57.59 153.27 C 58.44 154.99 60.29 156.62 59.73 158.71 C 59.00 162.01 57.38 165.01 56.00 168.07 C 54.78 167.35 52.81 167.19 52.47 165.55 Z" />
<path fill="#c91919" opacity="1.00" d=" M 50.17 179.99 C 50.65 175.27 55.05 172.95 58.52 170.54 C 61.04 173.96 59.61 178.00 57.18 180.97 C 56.87 181.44 56.25 182.38 55.94 182.84 C 54.03 181.88 52.10 180.92 50.17 179.99 Z" />
<path fill="#c91919" opacity="1.00" d=" M 68.12 174.94 C 75.81 176.23 83.64 175.35 91.33 176.50 C 86.11 180.53 79.38 178.98 73.32 178.94 C 71.14 178.85 69.70 180.74 68.19 182.00 C 68.45 179.65 68.47 177.28 68.12 174.94 Z" />
<path fill="#c91919" opacity="1.00" d=" M 99.30 182.87 C 99.88 182.96 101.04 183.14 101.62 183.23 C 101.52 184.41 101.43 185.59 101.33 186.77 C 102.21 187.34 103.09 187.90 103.97 188.47 L 103.77 189.52 L 103.56 190.32 C 103.02 191.97 102.73 193.68 102.65 195.41 C 102.34 196.77 101.65 197.94 100.57 198.92 C 97.75 196.87 98.57 193.39 98.87 190.44 C 99.12 187.92 99.12 185.39 99.30 182.87 Z" />
<path fill="#c91919" opacity="1.00" d=" M 58.53 194.99 C 67.36 195.86 76.25 194.97 85.08 195.87 C 83.99 197.56 81.99 198.07 80.08 198.04 C 72.64 198.19 65.17 198.60 57.74 197.85 C 57.94 197.13 58.33 195.70 58.53 194.99 Z" />
</g>
<g id="#3e2626ff">
<path fill="#3e2626" opacity="1.00" d=" M 92.30 92.95 C 92.70 91.51 93.67 90.76 95.23 90.69 C 95.07 93.94 95.02 97.20 94.86 100.45 C 93.98 97.96 93.09 95.47 92.30 92.95 Z" />
<path fill="#3e2626" opacity="1.00" d=" M 70.39 102.22 C 71.04 98.82 74.10 96.83 76.60 94.80 C 76.57 97.38 76.58 99.96 76.64 102.54 C 74.71 103.67 72.83 104.87 70.99 106.14 C 70.76 104.84 70.48 103.54 70.39 102.22 Z" />
<path fill="#3e2626" opacity="1.00" d=" M 116.81 112.41 C 123.41 110.92 130.29 109.02 137.04 110.88 C 138.96 111.36 141.71 112.50 141.31 114.95 C 140.41 117.81 138.23 120.17 135.77 121.82 C 133.81 121.58 131.97 120.82 130.08 120.30 C 122.13 117.62 114.19 121.53 106.94 124.48 C 113.76 124.83 120.48 126.20 127.27 126.93 C 127.82 125.60 128.38 124.27 128.94 122.94 C 129.45 125.44 130.91 128.09 129.73 130.61 C 128.82 132.71 127.27 134.44 125.92 136.27 C 123.69 135.33 121.46 134.39 119.22 133.46 C 114.68 131.23 109.72 129.97 104.63 130.33 C 108.02 133.37 111.77 135.95 116.08 137.47 L 116.85 137.81 C 116.62 139.46 117.26 141.60 115.63 142.69 C 113.60 144.31 110.03 145.17 108.22 142.77 C 105.68 139.79 102.87 137.01 99.35 135.18 C 98.20 134.23 97.25 132.89 95.81 132.36 C 94.03 132.70 92.45 133.64 90.81 134.38 C 92.17 137.89 93.52 141.42 94.37 145.10 C 92.40 147.14 90.55 149.29 88.72 151.45 C 86.40 148.74 84.81 145.45 84.82 141.81 C 85.30 137.15 86.07 132.48 87.68 128.05 C 92.02 130.71 96.30 127.24 99.56 124.51 C 100.81 123.41 101.53 121.89 102.32 120.47 C 102.64 120.40 103.27 120.28 103.59 120.22 C 108.77 119.27 113.37 116.35 116.81 112.41 Z" />
<path fill="#3e2626" opacity="1.00" d=" M 82.43 121.56 C 85.40 117.96 88.93 114.89 92.87 112.38 C 90.66 114.68 88.21 116.80 86.43 119.47 C 84.27 123.23 83.86 127.78 81.34 131.36 C 79.66 133.76 77.60 135.85 75.66 138.03 C 74.42 136.35 73.11 134.73 71.75 133.16 C 73.48 131.50 75.09 129.71 76.67 127.91 C 77.59 129.16 78.51 130.41 79.44 131.66 C 80.79 130.15 82.63 128.90 83.37 126.96 C 83.35 125.12 82.83 123.34 82.43 121.56 Z" />
<path fill="#3e2626" opacity="1.00" d=" M 50.12 141.00 C 51.70 141.42 53.29 141.86 54.88 142.29 C 54.92 143.32 54.97 144.36 55.01 145.39 C 53.85 145.71 52.68 146.02 51.52 146.34 C 50.08 146.72 48.64 147.12 47.21 147.53 C 46.93 148.96 46.66 150.38 46.40 151.82 C 45.25 151.62 44.11 151.44 42.97 151.27 C 45.17 152.00 46.60 149.03 44.78 147.68 C 46.60 145.49 48.35 143.24 50.12 141.00 Z" />
<path fill="#3e2626" opacity="1.00" d=" M 59.52 150.71 C 61.14 151.32 62.80 151.83 64.47 152.32 C 63.85 155.86 62.98 159.39 62.93 163.00 C 63.00 167.27 65.20 171.08 67.06 174.81 C 65.11 177.83 62.87 180.64 60.30 183.15 C 59.26 182.42 58.22 181.70 57.18 180.97 C 59.61 178.00 61.04 173.96 58.52 170.54 C 57.74 169.65 56.86 168.86 56.00 168.07 C 57.38 165.01 59.00 162.01 59.73 158.71 C 60.29 156.62 58.44 154.99 57.59 153.27 C 58.23 152.42 58.87 151.56 59.52 150.71 Z" />
<path fill="#3e2626" opacity="1.00" d=" M 96.91 160.52 C 97.23 156.51 99.06 152.89 102.54 150.76 C 103.77 155.52 102.83 160.33 102.14 165.07 C 101.39 169.02 106.08 170.33 108.69 171.97 C 109.74 176.85 104.23 179.29 104.39 183.97 C 104.24 185.47 104.14 186.97 103.97 188.47 C 103.09 187.90 102.21 187.34 101.33 186.77 C 101.43 185.59 101.52 184.41 101.62 183.23 C 101.04 183.14 99.88 182.96 99.30 182.87 C 100.35 180.08 102.04 177.48 102.51 174.49 C 102.17 172.52 101.41 170.65 100.78 168.76 C 98.25 176.99 94.61 184.79 90.26 192.21 C 91.33 192.04 92.41 191.86 93.48 191.69 C 93.99 189.83 94.50 187.97 95.02 186.11 C 96.31 187.55 97.59 188.99 98.87 190.44 C 98.57 193.39 97.75 196.87 100.57 198.92 C 109.17 200.21 117.92 198.67 126.53 199.62 C 129.95 201.08 128.25 205.82 128.78 208.74 C 95.26 208.75 61.74 208.73 28.22 208.74 C 28.51 205.88 27.59 202.57 29.35 200.08 C 38.28 198.88 47.37 199.87 56.37 199.63 C 56.66 196.10 57.36 192.43 60.17 189.99 C 59.55 191.63 59.02 193.30 58.53 194.99 C 58.33 195.70 57.94 197.13 57.74 197.85 C 65.17 198.60 72.64 198.19 80.08 198.04 C 81.99 198.07 83.99 197.56 85.08 195.87 C 87.15 190.62 90.20 185.90 93.13 181.12 C 96.09 174.75 97.83 167.56 96.91 160.52 M 61.26 200.41 L 61.25 200.57 C 71.02 202.05 80.92 201.50 90.76 201.48 C 93.22 201.46 95.62 200.87 98.03 200.47 C 92.62 200.59 87.19 200.33 81.82 199.65 C 74.95 198.76 68.11 200.23 61.26 200.41 Z" />
<path fill="#3e2626" opacity="1.00" d=" M 102.65 195.41 C 102.73 193.68 103.02 191.97 103.56 190.32 C 105.01 191.46 104.82 195.53 102.65 195.41 Z" />
</g>
</svg>
