<?xml version="1.0" encoding="UTF-8" ?>
<!DOCTYPE svg PUBLIC "-//W3C//DTD SVG 1.1//EN" "http://www.w3.org/Graphics/SVG/1.1/DTD/svg11.dtd">
<svg width="155pt" height="210pt" viewBox="0 0 155 210" version="1.1" xmlns="http://www.w3.org/2000/svg">
<g id="#292929fe">
<path fill="#292929" opacity="1.00" d=" M 76.86 64.81 C 79.53 61.82 82.28 58.91 85.03 55.98 C 89.04 60.98 89.23 67.44 90.41 73.43 C 94.38 77.17 99.32 79.98 102.30 84.71 C 106.02 89.66 106.63 96.08 109.84 101.29 C 108.40 101.73 106.98 102.20 105.58 102.73 C 104.07 103.78 102.41 104.83 101.53 106.51 C 100.90 108.35 102.87 109.67 103.68 111.09 C 103.92 111.46 104.40 112.21 104.64 112.58 C 104.78 113.32 104.93 114.07 105.08 114.81 C 106.29 116.25 107.87 117.50 108.59 119.27 C 108.01 121.05 106.77 122.50 105.83 124.08 C 104.58 126.65 104.58 129.57 104.53 132.36 C 104.29 132.84 104.06 133.31 103.83 133.79 C 101.84 130.88 99.81 127.12 95.88 126.74 C 89.80 125.90 84.61 129.73 79.79 132.82 C 75.30 135.98 69.53 134.40 64.50 135.68 C 62.56 136.40 60.86 137.62 59.10 138.68 C 55.65 137.24 51.96 136.67 48.25 136.50 C 44.51 136.33 41.14 134.58 37.87 132.91 C 38.51 131.69 39.18 130.49 39.63 129.19 C 38.21 126.43 35.24 124.91 33.62 122.30 C 32.47 119.72 32.47 116.83 32.30 114.07 C 33.33 112.85 34.48 111.69 35.28 110.29 C 35.79 107.76 35.45 105.15 35.51 102.59 C 36.11 95.40 39.66 88.67 44.14 83.14 C 50.58 75.72 60.24 72.19 69.68 70.57 C 70.37 67.73 71.12 64.91 71.97 62.12 C 73.61 63.00 75.23 63.90 76.86 64.81 M 71.67 124.39 C 72.98 126.19 74.25 128.01 75.53 129.83 C 73.91 133.55 70.26 131.12 67.99 129.54 C 67.71 130.44 67.43 131.35 67.15 132.26 C 74.98 134.71 82.28 129.59 88.10 124.94 C 84.02 120.09 76.54 121.55 71.67 124.39 M 42.76 129.94 C 45.18 132.75 48.44 134.61 52.11 135.14 C 49.19 133.08 46.06 131.33 42.76 129.94 Z" />
<path fill="#292929" opacity="1.00" d=" M 104.67 145.37 C 107.01 143.28 109.01 140.45 112.07 139.38 C 115.13 139.10 118.93 139.35 120.96 141.99 C 122.66 145.70 122.40 150.18 120.87 153.90 C 119.05 157.29 115.32 159.12 113.40 162.45 C 112.96 166.62 114.44 170.69 115.15 174.75 C 113.79 173.41 112.38 172.12 110.99 170.82 C 110.40 171.17 109.22 171.87 108.63 172.22 C 108.72 172.78 108.90 173.92 108.99 174.48 C 111.43 176.31 113.84 178.17 116.24 180.06 C 115.43 181.45 114.59 182.82 113.76 184.20 C 108.18 184.61 102.57 183.69 97.61 181.03 C 96.35 182.63 95.10 184.25 93.89 185.89 C 95.59 185.31 97.27 184.70 98.96 184.09 C 99.02 185.73 99.07 187.37 99.13 189.02 C 100.29 189.06 101.44 189.10 102.60 189.15 C 101.11 192.61 102.21 196.17 103.84 199.35 C 110.25 199.47 116.65 199.33 123.06 199.34 C 124.85 199.45 126.92 199.31 128.34 200.64 C 128.89 203.31 128.79 206.06 128.88 208.77 C 95.30 208.73 61.71 208.73 28.12 208.77 C 28.50 206.00 27.53 202.47 29.20 200.19 C 33.97 198.49 39.31 199.73 44.30 199.28 C 43.25 197.71 42.18 196.16 41.12 194.60 C 42.88 193.85 44.63 193.09 46.35 192.28 C 46.92 193.16 47.52 194.03 48.16 194.87 C 49.33 195.83 50.55 196.72 51.77 197.61 C 52.53 196.43 53.29 195.25 54.05 194.07 C 52.83 193.02 51.62 191.96 50.40 190.91 C 50.57 188.41 49.37 184.46 52.63 183.58 C 56.20 182.50 58.34 186.69 60.42 188.84 C 59.77 190.24 59.12 191.63 58.47 193.03 C 61.60 194.88 64.93 196.70 68.68 196.69 C 71.59 195.72 74.47 194.64 77.39 193.72 C 77.26 192.12 77.13 190.52 77.01 188.92 C 78.26 189.82 79.52 190.72 80.78 191.61 C 81.18 190.52 81.60 189.43 82.03 188.34 C 82.92 187.95 83.81 187.58 84.70 187.19 C 84.73 186.92 84.78 186.38 84.80 186.11 C 84.97 184.17 85.14 182.24 85.21 180.30 C 87.84 178.05 89.54 175.01 90.75 171.81 C 89.07 171.95 87.39 172.11 85.72 172.27 C 85.29 171.08 84.87 169.90 84.43 168.72 C 83.68 166.60 82.77 164.53 81.72 162.53 C 80.53 161.83 79.30 161.19 78.03 160.64 C 77.65 160.55 76.89 160.39 76.51 160.31 C 76.03 157.81 75.51 155.32 75.03 152.83 C 70.27 152.96 65.45 153.01 60.77 151.97 C 66.51 151.78 72.26 151.87 78.00 151.58 C 83.84 151.32 89.33 148.93 94.18 145.80 C 96.45 144.33 98.65 142.74 100.86 141.18 C 102.12 142.59 103.38 143.99 104.67 145.37 M 91.62 155.61 C 91.06 158.48 92.20 161.35 92.76 164.14 L 91.83 164.03 C 92.96 165.43 94.10 166.83 95.23 168.23 C 95.90 167.05 96.58 165.89 97.29 164.73 C 97.85 164.80 98.98 164.93 99.54 164.99 C 100.60 162.86 101.66 160.72 102.69 158.58 C 100.14 158.20 97.57 157.97 95.00 157.81 C 95.24 155.80 95.47 153.78 95.68 151.76 C 94.25 152.96 92.76 154.12 91.62 155.61 M 102.41 169.35 C 100.55 169.70 101.12 171.40 101.54 172.71 C 103.84 174.31 106.11 172.41 108.05 171.18 C 106.26 170.56 104.40 168.24 102.41 169.35 M 100.13 174.11 C 100.55 175.55 100.97 177.00 101.40 178.45 C 103.51 178.67 105.63 178.89 107.76 179.12 C 108.21 180.10 108.66 181.08 109.11 182.06 C 110.18 182.25 111.25 182.43 112.32 182.61 C 111.36 180.71 110.78 178.38 108.83 177.21 C 106.21 175.51 103.09 174.93 100.13 174.11 M 94.60 175.67 C 93.87 177.12 93.94 178.81 93.66 180.37 C 95.32 180.15 96.99 179.93 98.62 179.55 C 98.69 177.74 98.40 175.94 98.28 174.14 C 97.03 174.58 95.80 175.09 94.60 175.67 Z" />
</g>
<g id="#bdbbb3fe">
<path fill="#bdbbb3" opacity="1.00" d=" M 109.84 101.29 C 113.72 99.99 118.49 99.31 121.94 102.06 C 125.84 105.36 127.00 111.04 126.14 115.90 C 125.33 120.75 122.13 124.64 119.09 128.31 C 118.34 128.05 116.85 127.53 116.10 127.27 C 117.54 124.70 119.18 122.17 120.00 119.30 C 120.65 116.19 121.35 112.51 119.25 109.78 C 118.10 108.20 115.97 107.92 114.18 108.27 C 110.70 108.91 107.67 110.86 104.64 112.58 C 104.40 112.21 103.92 111.46 103.68 111.09 C 104.15 108.26 104.88 105.50 105.58 102.73 C 106.98 102.20 108.40 101.73 109.84 101.29 Z" />
<path fill="#bdbbb3" opacity="1.00" d=" M 79.79 132.82 C 84.61 129.73 89.80 125.90 95.88 126.74 C 99.81 127.12 101.84 130.88 103.83 133.79 C 102.77 136.04 101.81 138.34 100.75 140.60 C 100.69 140.26 100.56 139.57 100.49 139.23 C 100.17 137.56 99.84 135.90 99.51 134.24 C 96.70 135.31 94.18 137.01 92.42 139.47 C 89.57 139.09 86.80 138.29 83.98 137.75 C 76.91 139.51 71.34 144.82 64.20 146.40 C 57.16 148.25 49.86 146.62 42.94 145.00 C 38.55 142.95 35.80 137.54 37.87 132.91 C 41.14 134.58 44.51 136.33 48.25 136.50 C 51.96 136.67 55.65 137.24 59.10 138.68 C 60.86 137.62 62.56 136.40 64.50 135.68 C 69.53 134.40 75.30 135.98 79.79 132.82 M 89.15 134.18 C 92.05 135.61 95.63 134.96 97.95 132.73 C 99.08 130.61 96.40 129.49 94.98 128.55 C 92.59 129.91 90.89 132.11 89.15 134.18 Z" />
<path fill="#bdbbb3" opacity="1.00" d=" M 42.76 129.94 C 46.06 131.33 49.19 133.08 52.11 135.14 C 48.44 134.61 45.18 132.75 42.76 129.94 Z" />
<path fill="#bdbbb3" opacity="1.00" d=" M 71.32 164.59 C 72.59 166.31 73.46 168.28 74.11 170.31 C 72.44 169.00 70.77 167.68 69.12 166.34 C 69.67 165.90 70.77 165.02 71.32 164.59 Z" />
<path fill="#bdbbb3" opacity="1.00" d=" M 102.41 169.35 C 104.40 168.24 106.26 170.56 108.05 171.18 C 106.11 172.41 103.84 174.31 101.54 172.71 C 101.12 171.40 100.55 169.70 102.41 169.35 Z" />
<path fill="#bdbbb3" opacity="1.00" d=" M 108.63 172.22 C 109.22 171.87 110.40 171.17 110.99 170.82 C 112.38 172.12 113.79 173.41 115.15 174.75 C 116.05 175.65 116.89 176.62 117.48 177.76 C 117.17 178.33 116.55 179.48 116.24 180.06 C 113.84 178.17 111.43 176.31 108.99 174.48 C 108.90 173.92 108.72 172.78 108.63 172.22 Z" />
<path fill="#bdbbb3" opacity="1.00" d=" M 66.59 173.27 C 68.39 176.05 70.06 179.03 70.76 182.30 C 71.54 186.56 70.23 190.82 69.18 194.91 C 65.59 194.03 62.54 191.85 60.42 188.84 C 58.34 186.69 56.20 182.50 52.63 183.58 C 49.37 184.46 50.57 188.41 50.40 190.91 C 49.66 192.23 48.91 193.55 48.16 194.87 C 47.52 194.03 46.92 193.16 46.35 192.28 C 44.78 189.49 43.20 186.62 42.44 183.49 C 42.10 181.44 41.87 179.37 41.59 177.31 C 49.92 176.54 59.36 178.49 66.59 173.27 Z" />
</g>
<g id="#e6e1d6fe">
<path fill="#e6e1d6" opacity="1.00" d=" M 31.27 107.38 C 32.02 105.29 33.87 103.94 35.51 102.59 C 35.45 105.15 35.79 107.76 35.28 110.29 C 34.48 111.69 33.33 112.85 32.30 114.07 C 31.75 111.92 30.15 109.60 31.27 107.38 Z" />
<path fill="#e6e1d6" opacity="1.00" d=" M 54.50 171.13 C 58.64 170.74 63.05 170.75 66.59 173.27 C 59.36 178.49 49.92 176.54 41.59 177.31 C 41.87 179.37 42.10 181.44 42.44 183.49 C 40.68 180.58 38.03 177.26 39.92 173.74 C 44.32 171.16 49.61 171.62 54.50 171.13 Z" />
</g>
<g id="#5a5a59fe">
<path fill="#5a5a59" opacity="1.00" d=" M 101.53 106.51 C 102.41 104.83 104.07 103.78 105.58 102.73 C 104.88 105.50 104.15 108.26 103.68 111.09 C 102.87 109.67 100.90 108.35 101.53 106.51 Z" />
<path fill="#5a5a59" opacity="1.00" d=" M 104.64 112.58 C 107.67 110.86 110.70 108.91 114.18 108.27 C 115.97 107.92 118.10 108.20 119.25 109.78 C 121.35 112.51 120.65 116.19 120.00 119.30 C 119.72 117.17 119.34 115.06 118.95 112.95 C 117.45 112.86 115.95 112.77 114.45 112.69 C 115.16 118.60 111.75 123.64 109.59 128.84 C 108.72 128.67 107.85 128.51 106.99 128.34 C 106.60 126.92 106.20 125.50 105.83 124.08 C 106.77 122.50 108.01 121.05 108.59 119.27 C 107.87 117.50 106.29 116.25 105.08 114.81 C 104.93 114.07 104.78 113.32 104.64 112.58 Z" />
<path fill="#5a5a59" opacity="1.00" d=" M 64.20 146.40 C 71.34 144.82 76.91 139.51 83.98 137.75 C 83.94 140.46 83.87 143.16 83.81 145.88 C 87.26 145.82 90.72 145.78 94.18 145.80 C 89.33 148.93 83.84 151.32 78.00 151.58 C 72.26 151.87 66.51 151.78 60.77 151.97 C 54.30 151.61 48.07 148.89 42.94 145.00 C 49.86 146.62 57.16 148.25 64.20 146.40 Z" />
<path fill="#5a5a59" opacity="1.00" d=" M 91.62 155.61 C 92.76 154.12 94.25 152.96 95.68 151.76 C 95.47 153.78 95.24 155.80 95.00 157.81 C 97.57 157.97 100.14 158.20 102.69 158.58 C 101.66 160.72 100.60 162.86 99.54 164.99 C 98.98 164.93 97.85 164.80 97.29 164.73 C 95.78 164.55 94.27 164.34 92.76 164.14 C 92.20 161.35 91.06 158.48 91.62 155.61 Z" />
<path fill="#5a5a59" opacity="1.00" d=" M 55.87 163.97 C 62.74 162.73 69.60 161.28 76.51 160.31 C 76.89 160.39 77.65 160.55 78.03 160.64 C 75.88 161.08 73.73 161.50 71.57 161.91 C 73.37 164.98 74.75 168.28 75.81 171.68 C 75.39 171.34 74.54 170.66 74.11 170.31 C 73.46 168.28 72.59 166.31 71.32 164.59 C 65.34 165.17 59.39 166.08 53.46 167.04 C 53.90 166.50 54.34 165.97 54.77 165.43 C 54.95 165.19 55.31 164.72 55.49 164.48 L 55.87 163.97 Z" />
<path fill="#5a5a59" opacity="1.00" d=" M 84.43 168.72 C 84.87 169.90 85.29 171.08 85.72 172.27 C 87.39 172.11 89.07 171.95 90.75 171.81 C 89.54 175.01 87.84 178.05 85.21 180.30 C 85.00 176.43 84.79 172.57 84.43 168.72 Z" />
<path fill="#5a5a59" opacity="1.00" d=" M 100.13 174.11 C 103.09 174.93 106.21 175.51 108.83 177.21 C 110.78 178.38 111.36 180.71 112.32 182.61 C 111.25 182.43 110.18 182.25 109.11 182.06 C 108.66 181.08 108.21 180.10 107.76 179.12 C 105.63 178.89 103.51 178.67 101.40 178.45 C 100.97 177.00 100.55 175.55 100.13 174.11 Z" />
<path fill="#5a5a59" opacity="1.00" d=" M 76.26 180.30 C 76.88 180.29 78.13 180.28 78.76 180.27 C 78.75 181.42 78.75 182.57 78.75 183.72 C 78.12 183.72 76.86 183.72 76.24 183.73 C 76.24 182.58 76.25 181.44 76.26 180.30 Z" />
<path fill="#5a5a59" opacity="1.00" d=" M 60.42 188.84 C 62.54 191.85 65.59 194.03 69.18 194.91 C 69.05 195.36 68.81 196.24 68.68 196.69 C 64.93 196.70 61.60 194.88 58.47 193.03 C 59.12 191.63 59.77 190.24 60.42 188.84 Z" />
</g>
<g id="#8c8b82fe">
<path fill="#8c8b82" opacity="1.00" d=" M 114.45 112.69 C 115.95 112.77 117.45 112.86 118.95 112.95 C 119.34 115.06 119.72 117.17 120.00 119.30 C 119.18 122.17 117.54 124.70 116.10 127.27 C 116.85 127.53 118.34 128.05 119.09 128.31 C 115.10 131.92 109.78 133.03 104.53 132.36 C 104.58 129.57 104.58 126.65 105.83 124.08 C 106.20 125.50 106.60 126.92 106.99 128.34 C 107.85 128.51 108.72 128.67 109.59 128.84 C 111.75 123.64 115.16 118.60 114.45 112.69 Z" />
<path fill="#8c8b82" opacity="1.00" d=" M 71.67 124.39 C 76.54 121.55 84.02 120.09 88.10 124.94 C 82.28 129.59 74.98 134.71 67.15 132.26 C 67.43 131.35 67.71 130.44 67.99 129.54 C 70.26 131.12 73.91 133.55 75.53 129.83 C 74.25 128.01 72.98 126.19 71.67 124.39 Z" />
<path fill="#8c8b82" opacity="1.00" d=" M 83.98 137.75 C 86.80 138.29 89.57 139.09 92.42 139.47 C 95.11 139.57 97.81 139.41 100.49 139.23 C 100.56 139.57 100.69 140.26 100.75 140.60 L 100.86 141.18 C 98.65 142.74 96.45 144.33 94.18 145.80 C 90.72 145.78 87.26 145.82 83.81 145.88 C 83.87 143.16 83.94 140.46 83.98 137.75 Z" />
<path fill="#8c8b82" opacity="1.00" d=" M 81.72 162.53 C 82.77 164.53 83.68 166.60 84.43 168.72 C 84.79 172.57 85.00 176.43 85.21 180.30 C 85.14 182.24 84.97 184.17 84.80 186.11 C 82.98 183.38 80.08 180.81 80.42 177.22 C 80.61 172.31 81.46 167.45 81.72 162.53 Z" />
<path fill="#8c8b82" opacity="1.00" d=" M 94.60 175.67 C 95.80 175.09 97.03 174.58 98.28 174.14 C 98.40 175.94 98.69 177.74 98.62 179.55 C 96.99 179.93 95.32 180.15 93.66 180.37 C 93.94 178.81 93.87 177.12 94.60 175.67 Z" />
<path fill="#8c8b82" opacity="1.00" d=" M 117.48 177.76 C 117.74 180.32 117.99 182.87 118.20 185.44 C 116.73 185.00 115.25 184.59 113.76 184.20 C 114.59 182.82 115.43 181.45 116.24 180.06 C 116.55 179.48 117.17 178.33 117.48 177.76 Z" />
<path fill="#8c8b82" opacity="1.00" d=" M 50.40 190.91 C 51.62 191.96 52.83 193.02 54.05 194.07 C 53.29 195.25 52.53 196.43 51.77 197.61 C 50.55 196.72 49.33 195.83 48.16 194.87 C 48.91 193.55 49.66 192.23 50.40 190.91 Z" />
</g>
<g id="#6a40affe">
<path fill="#6a40af" opacity="1.00" d=" M 89.15 134.18 C 90.89 132.11 92.59 129.91 94.98 128.55 C 96.40 129.49 99.08 130.61 97.95 132.73 C 95.63 134.96 92.05 135.61 89.15 134.18 Z" />
<path fill="#6a40af" opacity="1.00" d=" M 92.42 139.47 C 94.18 137.01 96.70 135.31 99.51 134.24 C 99.84 135.90 100.17 137.56 100.49 139.23 C 97.81 139.41 95.11 139.57 92.42 139.47 Z" />
<path fill="#6a40af" opacity="1.00" d=" M 78.03 160.64 C 79.30 161.19 80.53 161.83 81.72 162.53 C 81.46 167.45 80.61 172.31 80.42 177.22 C 80.08 180.81 82.98 183.38 84.80 186.11 C 84.78 186.38 84.73 186.92 84.70 187.19 C 83.81 187.58 82.92 187.95 82.03 188.34 C 81.60 189.43 81.18 190.52 80.78 191.61 C 79.52 190.72 78.26 189.82 77.01 188.92 C 77.13 190.52 77.26 192.12 77.39 193.72 C 74.47 194.64 71.59 195.72 68.68 196.69 C 68.81 196.24 69.05 195.36 69.18 194.91 C 70.23 190.82 71.54 186.56 70.76 182.30 C 70.06 179.03 68.39 176.05 66.59 173.27 C 63.05 170.75 58.64 170.74 54.50 171.13 C 49.61 171.62 44.32 171.16 39.92 173.74 C 40.04 172.53 40.15 171.31 40.25 170.10 C 44.92 167.18 50.48 166.58 55.49 164.48 C 55.31 164.72 54.95 165.19 54.77 165.43 C 54.34 165.97 53.90 166.50 53.46 167.04 C 59.39 166.08 65.34 165.17 71.32 164.59 C 70.77 165.02 69.67 165.90 69.12 166.34 C 70.77 167.68 72.44 169.00 74.11 170.31 C 74.54 170.66 75.39 171.34 75.81 171.68 C 74.75 168.28 73.37 164.98 71.57 161.91 C 73.73 161.50 75.88 161.08 78.03 160.64 M 76.26 180.30 C 76.25 181.44 76.24 182.58 76.24 183.73 C 76.86 183.72 78.12 183.72 78.75 183.72 C 78.75 182.57 78.75 181.42 78.76 180.27 C 78.13 180.28 76.88 180.29 76.26 180.30 Z" />
</g>
</svg>
