<?xml version="1.0" encoding="UTF-8" ?>
<!DOCTYPE svg PUBLIC "-//W3C//DTD SVG 1.1//EN" "http://www.w3.org/Graphics/SVG/1.1/DTD/svg11.dtd">
<svg width="155pt" height="210pt" viewBox="0 0 155 210" version="1.1" xmlns="http://www.w3.org/2000/svg">
<g id="#ebb528ff">
<path fill="#ebb528" opacity="1.00" d=" M 62.82 32.56 C 68.66 32.27 72.01 37.72 75.64 41.36 C 79.02 44.67 81.49 48.79 84.92 52.02 C 87.47 53.09 90.19 53.67 92.83 54.45 C 94.04 56.14 95.23 57.83 96.41 59.54 C 97.83 59.81 99.25 60.08 100.67 60.36 C 101.75 63.64 102.91 67.05 105.53 69.47 C 110.30 74.18 114.27 80.12 114.62 87.02 C 112.76 85.77 111.04 84.18 108.88 83.48 C 106.50 83.29 104.19 84.12 101.90 84.62 C 101.55 85.98 101.21 87.34 100.86 88.71 C 99.79 87.25 98.78 85.72 97.47 84.46 C 94.57 84.11 90.97 84.50 89.25 87.17 C 86.59 90.79 83.76 94.28 81.11 97.91 C 75.39 95.28 74.98 88.16 71.22 83.71 C 70.58 82.73 69.91 81.77 69.23 80.82 C 69.67 85.16 70.50 89.45 71.17 93.76 C 70.67 95.59 70.08 97.39 69.49 99.19 C 66.48 97.88 63.57 96.00 62.24 92.85 C 60.84 91.05 60.41 87.69 57.80 87.37 C 55.37 87.73 53.25 89.09 51.07 90.12 C 49.93 89.50 48.79 88.88 47.66 88.26 C 50.08 83.39 50.14 77.71 52.89 72.96 C 55.39 68.92 55.57 63.67 59.43 60.53 C 59.69 57.61 53.04 57.11 55.47 54.03 C 57.50 54.07 59.53 54.13 61.56 54.12 C 62.43 54.15 64.18 54.22 65.06 54.25 C 65.78 53.00 66.48 51.74 67.18 50.47 C 69.47 50.15 71.92 50.12 73.99 48.98 C 75.33 47.58 76.11 45.77 77.02 44.10 C 74.05 44.98 71.08 45.95 68.29 47.33 C 64.09 43.66 61.50 38.19 62.82 32.56 Z" />
<path fill="#ebb528" opacity="1.00" d=" M 45.25 106.79 C 47.08 105.00 48.96 103.23 51.06 101.75 C 51.70 102.32 52.32 102.93 52.90 103.57 C 52.12 105.25 51.26 106.89 50.50 108.57 C 49.78 110.65 49.90 112.86 50.14 115.00 C 48.87 115.69 47.60 116.36 46.34 117.03 C 46.41 114.96 46.50 112.88 46.57 110.81 C 45.00 113.10 43.43 115.39 42.09 117.83 C 41.29 121.56 41.74 125.37 41.98 129.13 C 42.03 130.34 42.08 131.56 42.11 132.77 C 37.43 134.81 32.95 137.40 29.40 141.13 C 30.43 131.55 34.45 122.66 38.97 114.27 C 40.74 111.52 42.95 109.10 45.25 106.79 Z" />
</g>
<g id="#c65d28ff">
<path fill="#c65d28" opacity="1.00" d=" M 68.29 47.33 C 71.08 45.95 74.05 44.98 77.02 44.10 C 76.11 45.77 75.33 47.58 73.99 48.98 C 71.92 50.12 69.47 50.15 67.18 50.47 C 67.51 49.41 67.87 48.36 68.29 47.33 Z" />
<path fill="#c65d28" opacity="1.00" d=" M 55.47 54.03 C 56.05 52.02 61.05 52.12 61.56 54.12 C 59.53 54.13 57.50 54.07 55.47 54.03 Z" />
<path fill="#c65d28" opacity="1.00" d=" M 69.23 80.82 C 69.91 81.77 70.58 82.73 71.22 83.71 C 72.06 89.45 73.51 95.07 75.04 100.66 C 74.41 102.73 74.07 105.21 72.06 106.45 C 70.38 107.54 69.53 109.38 68.74 111.15 C 67.00 109.82 65.25 108.50 63.50 107.19 C 63.32 107.55 62.95 108.28 62.77 108.64 C 58.80 114.75 58.53 122.20 56.39 128.98 C 55.58 131.65 54.24 134.12 52.54 136.32 C 51.41 131.41 49.39 126.18 51.09 121.15 C 52.14 118.87 53.80 116.73 54.01 114.16 C 53.17 112.11 51.77 110.37 50.50 108.57 C 51.26 106.89 52.12 105.25 52.90 103.57 C 54.73 105.58 56.75 107.42 58.89 109.11 C 59.50 107.07 60.09 105.02 60.68 102.98 C 62.92 104.48 65.16 105.98 67.43 107.43 C 67.70 105.66 67.97 103.89 68.24 102.12 C 69.77 103.28 71.31 104.42 72.89 105.52 C 72.59 101.56 71.82 97.66 71.17 93.76 C 70.50 89.45 69.67 85.16 69.23 80.82 Z" />
<path fill="#c65d28" opacity="1.00" d=" M 105.89 105.93 C 106.82 104.40 107.83 102.92 108.87 101.46 C 110.65 104.71 111.95 108.20 112.71 111.83 C 111.09 114.60 110.30 117.81 111.12 120.98 C 112.64 127.61 112.40 134.44 113.02 141.17 C 111.38 139.94 109.13 138.63 109.11 136.31 C 109.66 131.70 109.97 127.02 109.16 122.42 C 108.21 117.11 109.77 111.84 109.99 106.54 C 108.62 106.34 107.25 106.13 105.89 105.93 Z" />
<path fill="#c65d28" opacity="1.00" d=" M 68.30 119.29 C 73.47 120.28 77.62 124.03 80.93 127.93 C 76.63 127.75 72.23 126.89 68.60 124.46 C 66.56 123.67 66.52 120.39 68.30 119.29 Z" />
<path fill="#c65d28" opacity="1.00" d=" M 93.92 128.12 C 96.90 125.38 100.15 122.96 103.67 120.96 C 103.72 122.01 103.76 123.06 103.78 124.12 C 100.94 126.41 97.52 127.66 93.92 128.12 Z" />
<path fill="#c65d28" opacity="1.00" d=" M 68.01 132.24 C 76.03 137.20 85.96 136.97 95.03 136.26 C 90.79 140.26 84.64 140.25 79.22 139.46 C 74.73 138.61 70.73 135.87 68.01 132.24 Z" />
<path fill="#c65d28" opacity="1.00" d=" M 50.02 137.52 C 52.58 140.63 54.77 144.04 56.15 147.84 C 55.44 150.23 54.97 152.75 53.80 154.98 C 50.97 157.35 47.29 158.41 44.33 160.62 C 42.43 162.14 40.12 163.76 37.64 162.42 C 35.27 161.92 35.29 159.33 34.78 157.45 C 35.82 157.45 36.85 157.46 37.89 157.47 C 38.18 156.70 38.47 155.93 38.76 155.16 C 38.14 154.57 37.52 153.98 36.90 153.39 C 35.39 153.86 33.87 154.33 32.35 154.77 C 31.55 153.20 30.75 151.63 29.93 150.07 C 34.86 147.01 40.09 144.48 45.56 142.57 C 48.10 142.03 49.18 139.71 50.02 137.52 Z" />
<path fill="#c65d28" opacity="1.00" d=" M 95.88 144.16 C 97.23 143.57 98.53 141.82 100.12 142.60 C 102.72 143.87 102.48 147.18 103.13 149.57 C 100.55 149.79 97.97 150.14 95.38 150.27 C 92.76 147.58 89.72 145.36 86.74 143.08 C 88.88 143.19 91.04 143.29 93.17 143.56 C 94.08 143.73 94.98 143.93 95.88 144.16 Z" />
<path fill="#c65d28" opacity="1.00" d=" M 71.22 152.93 C 73.04 151.35 74.82 149.61 77.19 148.90 C 77.48 149.61 78.07 151.03 78.36 151.74 C 79.57 152.06 80.78 152.39 81.99 152.71 C 79.60 154.46 78.37 157.23 76.26 159.21 C 74.83 156.92 73.28 154.70 71.22 152.93 Z" />
<path fill="#c65d28" opacity="1.00" d=" M 81.27 160.59 C 83.22 159.73 84.99 158.54 86.66 157.24 C 86.84 157.89 87.21 159.20 87.39 159.86 C 85.44 161.36 83.45 162.82 81.41 164.20 C 81.36 163.00 81.32 161.79 81.27 160.59 Z" />
<path fill="#c65d28" opacity="1.00" d=" M 66.56 158.70 C 68.69 159.15 70.80 159.72 72.93 160.19 C 72.81 161.05 72.57 162.76 72.44 163.61 C 70.21 162.33 67.86 161.02 66.56 158.70 Z" />
<path fill="#c65d28" opacity="1.00" d=" M 64.43 165.45 C 66.73 164.81 69.36 165.27 71.12 166.93 C 74.21 169.36 71.61 173.68 70.32 176.44 C 67.49 177.66 64.39 176.64 61.51 176.20 C 61.79 177.66 61.69 179.14 61.30 180.57 C 63.77 180.93 66.26 181.20 68.75 181.39 C 68.71 181.69 68.62 182.29 68.58 182.59 L 67.70 182.66 C 65.21 182.85 62.74 183.09 60.27 183.37 C 59.57 182.83 58.88 182.28 58.15 181.79 C 57.95 179.69 57.55 177.62 56.96 175.60 C 57.15 175.18 57.52 174.34 57.70 173.92 C 58.25 174.11 59.36 174.50 59.92 174.69 C 61.09 171.51 61.59 167.66 64.43 165.45 M 65.23 166.01 C 63.37 168.18 61.21 170.73 61.99 173.82 C 63.45 176.17 66.54 175.82 68.91 176.26 C 70.06 174.04 71.67 171.76 71.30 169.13 C 70.42 166.63 67.34 166.72 65.23 166.01 Z" />
<path fill="#c65d28" opacity="1.00" d=" M 76.95 166.30 C 77.31 166.29 78.01 166.27 78.37 166.26 L 79.20 166.34 C 79.62 167.68 80.01 169.03 80.36 170.40 C 80.54 174.73 80.78 179.35 78.66 183.30 C 78.20 177.62 78.18 171.89 76.95 166.30 Z" />
<path fill="#c65d28" opacity="1.00" d=" M 85.10 173.07 C 86.50 170.65 88.60 168.80 90.86 167.22 C 91.55 168.25 92.23 169.28 92.92 170.31 C 90.68 170.72 88.51 171.43 86.47 172.44 C 86.13 172.60 85.45 172.91 85.10 173.07 Z" />
</g>
<g id="#e7712cff">
<path fill="#e7712c" opacity="1.00" d=" M 101.90 84.62 C 104.19 84.12 106.50 83.29 108.88 83.48 C 111.04 84.18 112.76 85.77 114.62 87.02 C 113.68 94.37 116.15 102.00 113.99 109.14 C 113.57 110.04 113.15 110.94 112.71 111.83 C 111.95 108.20 110.65 104.71 108.87 101.46 C 107.83 102.92 106.82 104.40 105.89 105.93 C 103.36 110.13 101.07 115.02 96.55 117.41 C 93.10 118.39 89.49 117.47 86.04 117.00 C 81.58 112.15 77.68 106.72 75.04 100.66 C 73.51 95.07 72.06 89.45 71.22 83.71 C 74.98 88.16 75.39 95.28 81.11 97.91 C 83.76 94.28 86.59 90.79 89.25 87.17 C 90.97 84.50 94.57 84.11 97.47 84.46 C 98.78 85.72 99.79 87.25 100.86 88.71 C 101.21 87.34 101.55 85.98 101.90 84.62 Z" />
<path fill="#e7712c" opacity="1.00" d=" M 51.07 90.12 C 53.25 89.09 55.37 87.73 57.80 87.37 C 60.41 87.69 60.84 91.05 62.24 92.85 C 63.57 96.00 66.48 97.88 69.49 99.19 C 70.08 97.39 70.67 95.59 71.17 93.76 C 71.82 97.66 72.59 101.56 72.89 105.52 C 71.31 104.42 69.77 103.28 68.24 102.12 C 67.97 103.89 67.70 105.66 67.43 107.43 C 65.16 105.98 62.92 104.48 60.68 102.98 C 60.09 105.02 59.50 107.07 58.89 109.11 C 56.75 107.42 54.73 105.58 52.90 103.57 C 52.32 102.93 51.70 102.32 51.06 101.75 C 48.96 103.23 47.08 105.00 45.25 106.79 C 44.17 106.41 43.08 106.05 41.99 105.70 C 40.83 99.38 43.77 93.08 47.66 88.26 C 48.79 88.88 49.93 89.50 51.07 90.12 Z" />
<path fill="#e7712c" opacity="1.00" d=" M 41.98 129.13 C 42.30 129.42 42.95 130.00 43.28 130.29 C 44.29 129.94 45.30 129.58 46.32 129.23 C 46.86 132.27 47.89 135.23 50.02 137.52 C 49.18 139.71 48.10 142.03 45.56 142.57 C 40.09 144.48 34.86 147.01 29.93 150.07 C 29.48 147.11 29.31 144.12 29.40 141.13 C 32.95 137.40 37.43 134.81 42.11 132.77 C 42.08 131.56 42.03 130.34 41.98 129.13 Z" />
</g>
<g id="#9a867dff">
<path fill="#9a867d" opacity="1.00" d=" M 72.06 106.45 C 74.07 105.21 74.41 102.73 75.04 100.66 C 77.68 106.72 81.58 112.15 86.04 117.00 C 87.59 118.70 89.10 120.44 90.59 122.20 C 87.91 123.39 84.82 124.80 82.07 122.97 C 75.85 119.64 69.50 116.40 62.44 115.29 C 62.53 113.07 62.60 110.85 62.77 108.64 C 62.95 108.28 63.32 107.55 63.50 107.19 C 65.25 108.50 67.00 109.82 68.74 111.15 C 69.53 109.38 70.38 107.54 72.06 106.45 Z" />
<path fill="#9a867d" opacity="1.00" d=" M 31.28 105.25 C 32.17 103.33 36.74 103.37 37.59 105.18 C 35.49 105.32 33.38 105.41 31.28 105.25 Z" />
<path fill="#9a867d" opacity="1.00" d=" M 63.17 124.49 C 62.59 122.35 64.14 120.55 65.08 118.78 C 65.53 120.73 65.96 122.69 66.36 124.65 C 70.52 127.09 74.93 129.75 79.92 129.73 C 83.90 129.71 87.88 129.32 91.86 129.58 C 93.52 129.68 95.18 129.82 96.84 129.97 C 97.79 130.42 98.72 130.89 99.66 131.38 C 99.94 132.60 100.23 133.82 100.53 135.04 C 99.14 136.51 97.74 138.10 95.77 138.79 C 91.40 140.59 86.84 142.53 82.01 142.32 C 75.83 141.89 70.02 138.59 65.96 133.99 C 64.24 131.14 63.85 127.70 63.17 124.49 M 68.01 132.24 C 70.73 135.87 74.73 138.61 79.22 139.46 C 84.64 140.25 90.79 140.26 95.03 136.26 C 85.96 136.97 76.03 137.20 68.01 132.24 Z" />
<path fill="#9a867d" opacity="1.00" d=" M 95.38 150.27 C 97.97 150.14 100.55 149.79 103.13 149.57 C 104.43 149.49 105.68 149.90 106.94 150.13 C 106.71 150.86 106.48 151.60 106.24 152.34 C 101.70 150.04 96.90 152.91 92.35 153.77 C 92.16 154.68 91.97 155.60 91.79 156.53 C 91.69 157.03 91.49 158.03 91.39 158.53 C 90.28 158.66 89.18 158.80 88.08 158.93 C 88.63 155.89 89.65 152.96 91.07 150.22 C 92.51 150.32 93.94 150.32 95.38 150.27 Z" />
</g>
<g id="#735d5eff">
<path fill="#735d5e" opacity="1.00" d=" M 31.28 105.25 C 33.38 105.41 35.49 105.32 37.59 105.18 C 39.07 105.06 40.58 105.19 41.99 105.70 C 43.08 106.05 44.17 106.41 45.25 106.79 C 42.95 109.10 40.74 111.52 38.97 114.27 C 35.81 111.93 32.08 109.38 31.28 105.25 Z" />
<path fill="#735d5e" opacity="1.00" d=" M 105.89 105.93 C 107.25 106.13 108.62 106.34 109.99 106.54 C 109.77 111.84 108.21 117.11 109.16 122.42 C 109.97 127.02 109.66 131.70 109.11 136.31 C 107.19 134.14 105.89 131.55 104.68 128.94 C 103.22 130.92 101.81 132.94 100.53 135.04 C 100.23 133.82 99.94 132.60 99.66 131.38 C 98.72 130.89 97.79 130.42 96.84 129.97 C 99.59 128.69 103.05 127.44 103.78 124.12 C 103.76 123.06 103.72 122.01 103.67 120.96 C 100.15 122.96 96.90 125.38 93.92 128.12 C 93.23 128.60 92.55 129.09 91.86 129.58 C 87.88 129.32 83.90 129.71 79.92 129.73 C 74.93 129.75 70.52 127.09 66.36 124.65 C 65.96 122.69 65.53 120.73 65.08 118.78 C 64.14 120.55 62.59 122.35 63.17 124.49 C 63.85 127.70 64.24 131.14 65.96 133.99 C 70.02 138.59 75.83 141.89 82.01 142.32 C 86.84 142.53 91.40 140.59 95.77 138.79 C 94.35 140.04 93.42 141.67 93.17 143.56 C 91.04 143.29 88.88 143.19 86.74 143.08 C 79.74 143.31 72.91 141.76 66.66 138.62 C 65.51 140.38 64.03 141.94 62.11 142.86 C 62.19 140.60 62.48 138.32 62.20 136.07 C 60.92 133.26 58.42 131.25 56.39 128.98 C 58.53 122.20 58.80 114.75 62.77 108.64 C 62.60 110.85 62.53 113.07 62.44 115.29 C 69.50 116.40 75.85 119.64 82.07 122.97 C 84.82 124.80 87.91 123.39 90.59 122.20 C 89.10 120.44 87.59 118.70 86.04 117.00 C 89.49 117.47 93.10 118.39 96.55 117.41 C 101.07 115.02 103.36 110.13 105.89 105.93 M 68.30 119.29 C 66.52 120.39 66.56 123.67 68.60 124.46 C 72.23 126.89 76.63 127.75 80.93 127.93 C 77.62 124.03 73.47 120.28 68.30 119.29 Z" />
<path fill="#735d5e" opacity="1.00" d=" M 50.14 115.00 C 49.90 112.86 49.78 110.65 50.50 108.57 C 51.77 110.37 53.17 112.11 54.01 114.16 C 53.80 116.73 52.14 118.87 51.09 121.15 C 48.14 119.92 45.14 118.78 42.09 117.83 C 43.43 115.39 45.00 113.10 46.57 110.81 C 46.50 112.88 46.41 114.96 46.34 117.03 C 47.60 116.36 48.87 115.69 50.14 115.00 Z" />
<path fill="#735d5e" opacity="1.00" d=" M 113.99 109.14 C 117.38 108.58 120.88 108.57 124.09 109.95 C 120.34 114.24 116.05 118.09 111.12 120.98 C 110.30 117.81 111.09 114.60 112.71 111.83 C 113.15 110.94 113.57 110.04 113.99 109.14 Z" />
<path fill="#735d5e" opacity="1.00" d=" M 56.15 147.84 C 56.92 148.34 57.68 148.85 58.45 149.36 C 59.02 152.68 59.76 156.02 59.62 159.41 C 58.23 160.34 56.68 161.02 55.16 161.70 C 54.83 162.36 54.51 163.01 54.19 163.67 C 52.82 163.28 51.45 162.88 50.08 162.48 C 49.77 162.81 49.16 163.45 48.85 163.78 C 50.00 164.79 51.16 165.81 52.29 166.86 C 52.14 167.58 51.85 169.02 51.71 169.74 C 51.08 169.74 49.84 169.75 49.22 169.76 C 48.74 168.39 48.26 167.01 47.79 165.64 C 46.61 165.65 45.44 165.65 44.26 165.65 C 44.28 163.97 44.32 162.30 44.33 160.62 C 47.29 158.41 50.97 157.35 53.80 154.98 C 54.97 152.75 55.44 150.23 56.15 147.84 Z" />
<path fill="#735d5e" opacity="1.00" d=" M 92.35 153.77 C 96.90 152.91 101.70 150.04 106.24 152.34 C 105.17 154.40 104.16 156.50 103.21 158.63 C 99.14 158.89 95.95 155.05 91.79 156.53 C 91.97 155.60 92.16 154.68 92.35 153.77 Z" />
<path fill="#735d5e" opacity="1.00" d=" M 72.93 160.19 C 75.70 160.46 78.49 160.60 81.27 160.59 C 81.32 161.79 81.36 163.00 81.41 164.20 C 80.40 164.89 79.38 165.58 78.37 166.26 C 78.01 166.27 77.31 166.29 76.95 166.30 C 75.46 165.39 73.96 164.49 72.44 163.61 C 72.57 162.76 72.81 161.05 72.93 160.19 Z" />
<path fill="#735d5e" opacity="1.00" d=" M 52.81 174.66 C 54.76 171.20 58.02 168.77 60.89 166.12 C 59.78 168.70 58.75 171.32 57.70 173.92 C 57.52 174.34 57.15 175.18 56.96 175.60 C 56.20 176.81 54.97 177.62 53.91 178.56 C 53.46 177.30 51.89 176.05 52.81 174.66 Z" />
<path fill="#735d5e" opacity="1.00" d=" M 65.23 166.01 C 67.34 166.72 70.42 166.63 71.30 169.13 C 71.67 171.76 70.06 174.04 68.91 176.26 C 66.54 175.82 63.45 176.17 61.99 173.82 C 61.21 170.73 63.37 168.18 65.23 166.01 Z" />
<path fill="#735d5e" opacity="1.00" d=" M 79.20 166.34 C 80.54 166.56 81.90 166.69 83.26 166.82 C 82.29 168.01 81.33 169.21 80.36 170.40 C 80.01 169.03 79.62 167.68 79.20 166.34 Z" />
<path fill="#735d5e" opacity="1.00" d=" M 86.47 172.44 C 88.51 171.43 90.68 170.72 92.92 170.31 C 93.23 172.16 93.54 174.02 93.84 175.88 C 90.93 178.91 87.08 175.80 86.47 172.44 Z" />
<path fill="#735d5e" opacity="1.00" d=" M 60.27 183.37 C 62.74 183.09 65.21 182.85 67.70 182.66 C 68.20 183.66 68.70 184.66 69.20 185.66 C 68.11 185.13 67.03 184.59 65.94 184.06 C 63.54 184.76 61.12 185.41 58.67 185.94 L 59.21 185.05 C 59.48 184.63 60.00 183.79 60.27 183.37 Z" />
</g>
<g id="#252525fe">
<path fill="#252525" opacity="1.00" d=" M 103.78 124.12 C 103.05 127.44 99.59 128.69 96.84 129.97 C 95.18 129.82 93.52 129.68 91.86 129.58 C 92.55 129.09 93.23 128.60 93.92 128.12 C 97.52 127.66 100.94 126.41 103.78 124.12 Z" />
<path fill="#252525" opacity="1.00" d=" M 66.66 138.62 C 72.91 141.76 79.74 143.31 86.74 143.08 C 89.72 145.36 92.76 147.58 95.38 150.27 C 93.94 150.32 92.51 150.32 91.07 150.22 C 90.32 150.08 89.58 149.90 88.85 149.70 C 87.27 151.91 86.36 154.49 86.66 157.24 C 84.99 158.54 83.22 159.73 81.27 160.59 C 78.49 160.60 75.70 160.46 72.93 160.19 C 70.80 159.72 68.69 159.15 66.56 158.70 C 67.86 161.02 70.21 162.33 72.44 163.61 C 73.96 164.49 75.46 165.39 76.95 166.30 C 78.18 171.89 78.20 177.62 78.66 183.30 C 80.78 179.35 80.54 174.73 80.36 170.40 C 81.33 169.21 82.29 168.01 83.26 166.82 C 81.90 166.69 80.54 166.56 79.20 166.34 L 78.37 166.26 C 79.38 165.58 80.40 164.89 81.41 164.20 C 83.45 162.82 85.44 161.36 87.39 159.86 C 94.87 164.24 101.66 170.36 106.11 177.85 C 108.19 181.59 103.51 184.10 101.65 186.73 C 105.88 187.14 110.25 186.53 114.39 187.64 C 117.21 188.52 116.00 192.16 116.32 194.36 C 99.89 194.82 83.44 194.44 67.00 194.56 C 56.54 194.44 46.06 194.78 35.60 194.38 C 35.80 192.03 34.58 188.58 37.55 187.57 C 42.35 186.59 47.33 187.20 52.19 186.78 C 49.22 184.33 45.28 182.62 43.53 179.02 C 45.37 174.51 50.10 172.51 53.53 169.47 C 54.13 168.30 53.01 167.57 52.29 166.86 C 51.16 165.81 50.00 164.79 48.85 163.78 C 49.16 163.45 49.77 162.81 50.08 162.48 C 51.45 162.88 52.82 163.28 54.19 163.67 C 54.51 163.01 54.83 162.36 55.16 161.70 C 56.68 161.02 58.23 160.34 59.62 159.41 C 59.76 156.02 59.02 152.68 58.45 149.36 C 58.09 147.44 57.69 145.54 57.29 143.63 C 58.90 143.39 60.51 143.18 62.11 142.86 C 64.03 141.94 65.51 140.38 66.66 138.62 M 71.22 152.93 C 73.28 154.70 74.83 156.92 76.26 159.21 C 78.37 157.23 79.60 154.46 81.99 152.71 C 80.78 152.39 79.57 152.06 78.36 151.74 C 78.07 151.03 77.48 149.61 77.19 148.90 C 74.82 149.61 73.04 151.35 71.22 152.93 M 60.81 157.44 C 61.28 159.33 61.78 161.21 62.31 163.08 C 67.20 161.24 66.72 155.32 67.88 151.11 C 65.93 153.63 63.56 155.80 60.81 157.44 M 64.43 165.45 C 61.59 167.66 61.09 171.51 59.92 174.69 C 59.36 174.50 58.25 174.11 57.70 173.92 C 58.75 171.32 59.78 168.70 60.89 166.12 C 58.02 168.77 54.76 171.20 52.81 174.66 C 51.89 176.05 53.46 177.30 53.91 178.56 C 54.97 177.62 56.20 176.81 56.96 175.60 C 57.55 177.62 57.95 179.69 58.15 181.79 C 54.83 179.41 54.15 184.98 53.03 187.07 C 55.16 186.75 57.95 187.28 59.21 185.05 L 58.67 185.94 C 61.12 185.41 63.54 184.76 65.94 184.06 C 67.03 184.59 68.11 185.13 69.20 185.66 C 68.70 184.66 68.20 183.66 67.70 182.66 L 68.58 182.59 C 68.62 182.29 68.71 181.69 68.75 181.39 C 66.26 181.20 63.77 180.93 61.30 180.57 C 61.69 179.14 61.79 177.66 61.51 176.20 C 64.39 176.64 67.49 177.66 70.32 176.44 C 71.61 173.68 74.21 169.36 71.12 166.93 C 69.36 165.27 66.73 164.81 64.43 165.45 M 85.10 173.07 C 85.45 172.91 86.13 172.60 86.47 172.44 C 87.08 175.80 90.93 178.91 93.84 175.88 C 93.54 174.02 93.23 172.16 92.92 170.31 C 92.23 169.28 91.55 168.25 90.86 167.22 C 88.60 168.80 86.50 170.65 85.10 173.07 M 96.27 180.07 C 96.69 181.29 97.11 182.51 97.54 183.74 C 98.98 183.51 100.43 183.27 101.88 183.04 C 101.87 182.33 101.84 180.91 101.83 180.20 C 99.97 180.15 98.12 180.11 96.27 180.07 Z" />
</g>
</svg>
