<?xml version="1.0" encoding="UTF-8" ?>
<!DOCTYPE svg PUBLIC "-//W3C//DTD SVG 1.1//EN" "http://www.w3.org/Graphics/SVG/1.1/DTD/svg11.dtd">
<svg width="155pt" height="210pt" viewBox="0 0 155 210" version="1.1" xmlns="http://www.w3.org/2000/svg">
<g id="#4d4237ff">
<path fill="#4d4237" opacity="1.00" d=" M 66.45 36.10 C 68.06 35.89 69.74 35.18 71.35 35.62 C 73.88 39.09 74.95 43.36 76.89 47.15 C 78.61 45.34 80.32 43.53 82.06 41.74 C 82.95 42.20 83.84 42.66 84.73 43.12 C 82.99 48.43 80.06 53.94 81.25 59.65 C 85.23 62.23 90.14 62.46 94.64 63.51 C 101.09 65.06 107.76 64.23 114.32 64.47 C 107.95 65.72 101.44 65.19 95.00 65.17 C 97.54 67.82 100.05 71.28 104.06 71.51 C 110.47 72.06 116.94 71.71 123.36 72.34 C 121.06 73.19 118.77 74.03 116.47 74.87 C 116.41 75.37 116.29 76.38 116.22 76.88 C 118.98 78.08 121.75 79.27 124.61 80.20 L 125.46 80.48 C 122.66 80.75 119.85 80.96 117.04 81.13 C 119.83 82.88 122.62 84.97 123.46 88.35 C 120.28 86.59 116.90 85.19 113.41 84.16 C 115.88 89.24 117.70 95.02 115.81 100.62 C 114.91 106.52 108.29 108.96 103.02 108.82 C 96.67 108.28 90.58 105.43 85.83 101.23 C 84.07 99.87 82.44 98.06 80.14 97.70 C 78.04 99.43 75.86 102.54 77.68 105.21 C 82.23 112.25 90.53 116.78 98.92 116.88 C 104.54 116.91 110.15 118.32 115.76 117.67 C 116.20 117.28 117.08 116.49 117.52 116.10 C 116.90 119.90 118.69 123.15 121.46 125.61 C 122.94 127.35 123.50 129.75 123.31 132.00 C 122.60 134.97 120.63 137.41 119.12 140.01 C 116.56 142.12 114.25 144.52 111.64 146.56 C 109.61 148.19 106.83 147.89 104.40 147.95 C 103.59 147.88 101.98 147.74 101.18 147.66 C 91.57 146.89 81.78 146.43 72.58 143.32 C 70.49 142.46 68.10 141.52 66.95 139.44 C 66.81 137.98 66.99 136.52 67.08 135.06 C 64.74 134.43 62.33 133.94 60.14 132.87 C 58.03 128.38 58.01 122.87 60.55 118.54 C 61.88 115.49 64.40 111.97 62.57 108.62 C 59.60 106.51 56.09 105.38 52.78 103.93 C 55.56 101.14 59.07 98.77 60.70 95.08 C 61.92 90.71 62.37 86.14 64.17 81.94 C 65.39 85.61 65.94 89.46 67.09 93.14 C 67.73 95.45 70.35 96.06 72.33 96.77 C 75.34 96.46 78.85 96.04 80.97 93.64 C 82.34 89.57 80.36 85.39 78.83 81.66 C 77.29 79.71 75.54 77.33 72.83 77.19 C 69.28 77.05 65.81 77.94 62.33 78.45 C 64.76 74.86 68.10 71.98 70.45 68.34 C 70.93 67.55 71.41 66.76 71.87 65.96 C 65.78 63.40 59.08 64.28 52.69 63.34 C 58.28 63.62 63.90 63.35 69.33 61.91 C 67.20 55.07 64.11 48.57 61.24 42.01 C 61.87 41.40 62.49 40.79 63.11 40.18 C 64.43 41.11 65.74 42.04 67.06 42.97 C 66.87 40.68 66.66 38.39 66.45 36.10 M 73.44 113.39 C 69.91 116.25 69.24 121.07 68.64 125.30 C 72.67 125.03 76.51 123.72 79.98 121.68 C 79.55 118.19 77.95 112.67 73.44 113.39 Z" />
<path fill="#4d4237" opacity="1.00" d=" M 49.29 79.53 C 53.09 78.50 57.06 78.07 60.97 78.72 C 56.64 82.96 50.26 84.59 46.65 89.62 C 42.63 95.05 39.58 101.14 35.28 106.37 C 34.06 105.95 32.84 105.54 31.63 105.13 C 33.10 100.48 34.65 95.70 37.97 91.99 C 41.66 87.78 44.61 82.77 49.29 79.53 Z" />
<path fill="#4d4237" opacity="1.00" d=" M 120.69 119.27 C 122.42 119.76 122.68 120.66 121.49 121.98 C 120.80 121.19 120.54 120.29 120.69 119.27 Z" />
<path fill="#4d4237" opacity="1.00" d=" M 15.25 130.49 C 18.75 127.16 23.75 127.82 28.16 128.14 C 23.28 132.35 17.78 136.46 15.75 142.88 C 14.52 143.35 13.28 143.80 12.05 144.24 C 13.07 139.80 15.79 136.12 19.09 133.09 C 17.80 132.23 16.52 131.37 15.25 130.49 Z" />
<path fill="#4d4237" opacity="1.00" d=" M 32.17 136.20 C 36.66 132.98 42.60 134.15 47.44 135.87 C 47.32 137.95 47.19 140.04 47.07 142.13 C 42.97 141.64 38.90 140.95 34.81 140.40 C 38.49 142.11 42.55 142.57 46.41 143.68 C 47.48 144.85 47.00 146.66 47.33 148.10 C 44.18 148.34 41.03 148.45 37.88 148.53 C 40.58 149.24 43.29 149.91 46.00 150.55 C 46.05 152.00 46.10 153.46 46.15 154.91 C 43.36 154.78 40.57 154.66 37.78 154.56 C 40.30 155.76 42.84 156.92 45.40 158.05 C 44.95 158.50 44.04 159.38 43.59 159.83 C 39.19 159.27 33.58 159.27 31.13 154.86 C 27.96 149.25 27.47 141.12 32.17 136.20 Z" />
<path fill="#4d4237" opacity="1.00" d=" M 121.37 166.61 C 121.18 161.60 126.82 158.76 130.89 157.26 C 132.45 158.06 133.39 159.61 134.38 161.00 C 134.73 164.40 134.79 167.89 135.81 171.19 C 136.90 174.58 140.00 176.86 141.21 180.17 C 141.09 183.89 140.67 187.63 140.16 191.33 C 138.69 192.65 136.35 192.25 134.53 192.80 C 133.75 189.40 133.82 185.90 134.14 182.45 C 134.53 178.03 132.68 173.88 131.36 169.78 C 128.02 169.22 123.34 170.01 121.37 166.61 Z" />
<path fill="#4d4237" opacity="1.00" d=" M 47.31 176.80 C 47.89 180.18 48.38 183.78 47.09 187.07 C 46.10 190.20 43.59 192.43 41.24 194.57 C 41.37 191.18 41.14 187.80 40.70 184.44 C 42.25 184.03 43.81 183.68 45.37 183.32 C 45.58 181.72 45.79 180.11 45.99 178.50 C 46.32 178.08 46.98 177.22 47.31 176.80 Z" />
<path fill="#4d4237" opacity="1.00" d=" M 40.92 200.37 C 46.51 200.23 52.10 200.08 57.69 200.16 C 71.09 202.39 85.06 203.51 98.35 200.04 C 104.60 199.79 110.85 200.09 117.09 200.46 C 112.19 201.57 107.29 202.75 102.57 204.50 C 104.53 205.63 106.56 206.82 108.88 206.96 C 115.23 207.55 121.62 207.29 127.98 207.16 C 128.18 204.94 128.37 202.72 128.57 200.50 C 128.61 203.24 128.67 205.98 128.74 208.72 C 95.24 208.75 61.73 208.72 28.22 208.73 C 28.28 205.97 28.32 203.21 28.36 200.46 C 28.58 202.69 28.80 204.92 29.02 207.16 C 35.38 207.30 41.77 207.58 48.12 207.01 C 50.47 206.92 52.49 205.65 54.42 204.46 C 50.06 202.68 45.50 201.45 40.92 200.37 Z" />
</g>
<g id="#4b5b59ff">
<path fill="#4b5b59" opacity="1.00" d=" M 47.48 50.41 C 49.38 49.08 51.37 50.25 53.15 51.14 C 51.35 54.80 49.49 58.44 47.81 62.17 C 49.43 62.60 51.04 63.05 52.69 63.34 C 59.08 64.28 65.78 63.40 71.87 65.96 C 71.41 66.76 70.93 67.55 70.45 68.34 C 67.13 69.45 64.09 71.18 61.16 73.06 C 58.23 74.94 54.65 75.02 51.30 75.39 C 46.79 75.74 42.31 76.46 37.81 76.91 C 33.32 77.32 29.67 72.58 31.28 68.35 C 33.98 60.59 40.18 54.07 47.48 50.41 Z" />
<path fill="#4b5b59" opacity="1.00" d=" M 118.60 50.51 C 121.39 48.88 123.77 51.65 125.33 53.67 C 129.44 59.50 131.04 66.96 130.42 74.00 C 130.28 77.15 128.02 80.30 124.61 80.20 C 121.75 79.27 118.98 78.08 116.22 76.88 C 116.29 76.38 116.41 75.37 116.47 74.87 C 118.77 74.03 121.06 73.19 123.36 72.34 C 116.94 71.71 110.47 72.06 104.06 71.51 C 100.05 71.28 97.54 67.82 95.00 65.17 C 101.44 65.19 107.95 65.72 114.32 64.47 C 115.84 64.11 117.46 63.31 118.10 61.78 C 118.92 58.07 117.72 54.22 118.60 50.51 Z" />
<path fill="#4b5b59" opacity="1.00" d=" M 67.37 84.43 C 68.81 83.10 70.25 81.60 72.13 80.91 C 74.39 80.83 76.61 81.32 78.83 81.66 C 80.36 85.39 82.34 89.57 80.97 93.64 C 78.85 96.04 75.34 96.46 72.33 96.77 C 72.02 96.51 71.40 95.98 71.09 95.71 C 73.89 94.07 77.42 92.78 78.80 89.59 C 80.00 87.28 78.08 84.82 76.06 83.79 C 73.31 82.08 70.15 83.72 67.37 84.43 Z" />
<path fill="#4b5b59" opacity="1.00" d=" M 72.07 172.58 C 75.74 172.70 79.54 172.30 83.11 173.34 C 84.63 177.18 84.92 181.54 87.43 184.95 C 89.06 186.20 90.85 187.21 92.60 188.27 C 92.56 189.18 92.53 190.10 92.49 191.02 C 87.52 195.00 81.13 195.90 74.99 196.47 C 74.61 192.04 74.12 187.62 73.26 183.27 C 73.15 182.73 72.94 181.64 72.84 181.10 C 72.50 178.27 72.31 175.42 72.07 172.58 Z" />
<path fill="#4b5b59" opacity="1.00" d=" M 57.69 200.16 C 71.22 199.32 84.81 199.50 98.35 200.04 C 85.06 203.51 71.09 202.39 57.69 200.16 Z" />
</g>
<g id="#201c1bff">
<path fill="#201c1b" opacity="1.00" d=" M 61.16 73.06 C 64.09 71.18 67.13 69.45 70.45 68.34 C 68.10 71.98 64.76 74.86 62.33 78.45 C 65.81 77.94 69.28 77.05 72.83 77.19 C 75.54 77.33 77.29 79.71 78.83 81.66 C 76.61 81.32 74.39 80.83 72.13 80.91 C 70.25 81.60 68.81 83.10 67.37 84.43 C 66.88 88.58 67.91 92.83 71.09 95.71 C 71.40 95.98 72.02 96.51 72.33 96.77 C 70.35 96.06 67.73 95.45 67.09 93.14 C 65.94 89.46 65.39 85.61 64.17 81.94 C 62.37 86.14 61.92 90.71 60.70 95.08 C 59.07 98.77 55.56 101.14 52.78 103.93 C 56.09 105.38 59.60 106.51 62.57 108.62 C 64.40 111.97 61.88 115.49 60.55 118.54 C 58.01 122.87 58.03 128.38 60.14 132.87 C 62.33 133.94 64.74 134.43 67.08 135.06 C 66.99 136.52 66.81 137.98 66.95 139.44 C 68.10 141.52 70.49 142.46 72.58 143.32 C 81.78 146.43 91.57 146.89 101.18 147.66 C 97.85 148.06 96.37 151.21 94.36 153.43 C 92.57 155.48 90.03 156.61 87.72 157.95 C 89.02 161.09 88.02 164.44 88.32 167.68 C 91.17 171.78 95.31 175.49 95.33 180.89 C 92.91 182.62 90.07 183.62 87.43 184.95 C 84.92 181.54 84.63 177.18 83.11 173.34 C 79.54 172.30 75.74 172.70 72.07 172.58 C 72.31 175.42 72.50 178.27 72.84 181.10 C 72.05 179.37 71.17 177.69 70.30 176.00 C 68.69 179.56 66.33 182.93 65.74 186.86 C 65.82 191.16 67.26 195.30 67.97 199.52 C 69.47 199.36 70.97 199.20 72.47 199.04 C 71.31 195.19 69.25 191.71 67.85 187.97 C 67.89 185.20 71.43 184.65 73.26 183.27 C 74.12 187.62 74.61 192.04 74.99 196.47 C 81.13 195.90 87.52 195.00 92.49 191.02 C 94.86 193.40 96.74 196.19 98.25 199.19 C 106.18 199.63 114.12 199.30 122.06 199.30 C 124.30 199.23 126.48 199.76 128.57 200.50 C 128.37 202.72 128.18 204.94 127.98 207.16 C 121.62 207.29 115.23 207.55 108.88 206.96 C 106.56 206.82 104.53 205.63 102.57 204.50 C 107.29 202.75 112.19 201.57 117.09 200.46 C 110.85 200.09 104.60 199.79 98.35 200.04 C 84.81 199.50 71.22 199.32 57.69 200.16 C 52.10 200.08 46.51 200.23 40.92 200.37 C 45.50 201.45 50.06 202.68 54.42 204.46 C 52.49 205.65 50.47 206.92 48.12 207.01 C 41.77 207.58 35.38 207.30 29.02 207.16 C 28.80 204.92 28.58 202.69 28.36 200.46 C 34.94 198.14 42.03 200.16 48.80 199.02 C 47.21 195.83 43.28 196.14 40.29 195.47 L 40.78 195.01 L 41.24 194.57 C 43.59 192.43 46.10 190.20 47.09 187.07 C 48.38 183.78 47.89 180.18 47.31 176.80 C 50.25 173.24 52.52 168.87 52.37 164.14 C 52.27 159.51 52.36 154.83 53.67 150.34 C 52.75 149.33 51.84 148.31 50.93 147.30 C 49.25 153.83 46.43 160.10 45.83 166.88 C 45.31 170.74 45.61 174.64 45.99 178.50 C 45.79 180.11 45.58 181.72 45.37 183.32 C 43.81 183.68 42.25 184.03 40.70 184.44 C 40.08 184.64 38.83 185.02 38.20 185.22 C 37.41 177.77 38.54 170.17 36.31 162.88 C 30.44 162.06 25.32 158.82 20.68 155.31 C 16.60 152.53 17.28 147.04 15.75 142.88 C 17.78 136.46 23.28 132.35 28.16 128.14 C 29.93 126.39 32.49 125.14 33.54 122.83 C 32.79 116.94 30.35 111.17 31.63 105.13 C 32.84 105.54 34.06 105.95 35.28 106.37 C 39.58 101.14 42.63 95.05 46.65 89.62 C 50.26 84.59 56.64 82.96 60.97 78.72 C 57.06 78.07 53.09 78.50 49.29 79.53 C 45.34 79.39 41.52 78.17 37.81 76.91 C 42.31 76.46 46.79 75.74 51.30 75.39 C 54.65 75.02 58.23 74.94 61.16 73.06 M 32.17 136.20 C 27.47 141.12 27.96 149.25 31.13 154.86 C 33.58 159.27 39.19 159.27 43.59 159.83 C 44.04 159.38 44.95 158.50 45.40 158.05 C 42.84 156.92 40.30 155.76 37.78 154.56 C 40.57 154.66 43.36 154.78 46.15 154.91 C 46.10 153.46 46.05 152.00 46.00 150.55 C 43.29 149.91 40.58 149.24 37.88 148.53 C 41.03 148.45 44.18 148.34 47.33 148.10 C 47.00 146.66 47.48 144.85 46.41 143.68 C 42.55 142.57 38.49 142.11 34.81 140.40 C 38.90 140.95 42.97 141.64 47.07 142.13 C 47.19 140.04 47.32 137.95 47.44 135.87 C 42.60 134.15 36.66 132.98 32.17 136.20 Z" />
<path fill="#201c1b" opacity="1.00" d=" M 113.41 84.16 C 116.90 85.19 120.28 86.59 123.46 88.35 L 123.86 88.57 C 124.29 91.93 124.70 95.31 125.53 98.61 C 126.39 102.09 128.88 104.81 130.36 108.01 C 129.86 109.17 128.99 109.71 127.73 109.65 C 124.39 109.82 121.18 108.67 118.02 107.77 C 116.15 109.09 114.03 110.21 112.66 112.11 C 113.12 114.23 114.53 115.94 115.76 117.67 C 110.15 118.32 104.54 116.91 98.92 116.88 C 90.53 116.78 82.23 112.25 77.68 105.21 C 75.86 102.54 78.04 99.43 80.14 97.70 C 82.44 98.06 84.07 99.87 85.83 101.23 C 90.58 105.43 96.67 108.28 103.02 108.82 C 108.29 108.96 114.91 106.52 115.81 100.62 C 117.70 95.02 115.88 89.24 113.41 84.16 Z" />
<path fill="#201c1b" opacity="1.00" d=" M 119.12 140.01 C 122.50 142.31 126.56 143.08 130.16 144.88 C 133.15 149.57 134.80 155.41 134.38 161.00 C 133.39 159.61 132.45 158.06 130.89 157.26 C 126.82 158.76 121.18 161.60 121.37 166.61 C 123.34 170.01 128.02 169.22 131.36 169.78 C 132.68 173.88 134.53 178.03 134.14 182.45 C 133.82 185.90 133.75 189.40 134.53 192.80 C 133.64 193.75 132.76 194.73 131.72 195.52 C 124.90 193.08 116.85 191.52 112.61 184.99 C 113.38 181.09 117.49 182.60 120.25 182.84 C 118.69 178.93 118.02 174.67 116.09 170.92 C 114.30 168.71 111.31 169.86 108.96 170.05 C 106.11 170.56 103.24 170.09 100.43 169.61 C 100.38 166.33 100.47 163.06 100.69 159.80 C 98.65 160.10 96.61 160.41 94.57 160.68 C 96.05 155.24 100.35 151.53 104.40 147.95 C 106.83 147.89 109.61 148.19 111.64 146.56 C 114.25 144.52 116.56 142.12 119.12 140.01 Z" />
</g>
<g id="#ccc0a5ff">
<path fill="#ccc0a5" opacity="1.00" d=" M 67.37 84.43 C 70.15 83.72 73.31 82.08 76.06 83.79 C 78.08 84.82 80.00 87.28 78.80 89.59 C 77.42 92.78 73.89 94.07 71.09 95.71 C 67.91 92.83 66.88 88.58 67.37 84.43 Z" />
<path fill="#ccc0a5" opacity="1.00" d=" M 73.44 113.39 C 77.95 112.67 79.55 118.19 79.98 121.68 C 76.51 123.72 72.67 125.03 68.64 125.30 C 69.24 121.07 69.91 116.25 73.44 113.39 Z" />
<path fill="#ccc0a5" opacity="1.00" d=" M 117.52 116.10 C 118.30 116.25 119.87 116.55 120.66 116.69 C 120.66 117.34 120.68 118.63 120.69 119.27 C 120.54 120.29 120.80 121.19 121.49 121.98 C 121.48 122.88 121.46 124.70 121.46 125.61 C 118.69 123.15 116.90 119.90 117.52 116.10 Z" />
<path fill="#ccc0a5" opacity="1.00" d=" M 38.20 185.22 C 38.83 185.02 40.08 184.64 40.70 184.44 C 41.14 187.80 41.37 191.18 41.24 194.57 L 40.78 195.01 C 38.22 192.71 35.33 190.85 32.45 188.99 C 34.31 187.64 36.09 186.15 38.20 185.22 Z" />
</g>
</svg>
