<?xml version="1.0" encoding="UTF-8" ?>
<!DOCTYPE svg PUBLIC "-//W3C//DTD SVG 1.1//EN" "http://www.w3.org/Graphics/SVG/1.1/DTD/svg11.dtd">
<svg width="155pt" height="210pt" viewBox="0 0 155 210" version="1.1" xmlns="http://www.w3.org/2000/svg">
<g id="#2e1b28ff">
<path fill="#2e1b28" opacity="1.00" d=" M 121.41 34.38 C 123.45 33.64 126.04 34.09 126.25 36.66 C 127.35 42.74 129.25 48.81 129.15 55.03 C 127.73 62.66 122.21 68.68 117.36 74.44 C 116.43 75.53 116.03 76.94 115.51 78.24 C 113.93 81.38 113.24 84.89 115.29 88.02 L 115.02 88.63 C 113.34 91.95 112.17 95.85 113.52 99.50 C 114.74 101.36 116.83 102.37 118.60 103.62 C 119.54 102.85 120.47 102.09 121.43 101.35 L 122.06 100.87 C 122.70 103.55 123.21 106.28 124.28 108.84 C 125.47 111.58 127.97 113.40 130.11 115.36 C 132.38 113.55 133.49 110.90 133.24 108.00 C 133.84 110.32 135.05 112.39 136.56 114.23 L 136.58 114.81 C 136.65 117.12 136.72 119.43 136.79 121.74 C 134.77 121.67 132.75 121.60 130.73 121.54 C 131.36 122.73 132.00 123.92 132.64 125.10 C 131.11 126.31 129.68 127.64 128.35 129.07 C 125.97 128.67 123.59 128.28 121.21 127.88 C 120.35 125.75 118.66 124.18 116.98 122.69 C 117.83 124.78 118.92 126.79 119.48 128.98 C 119.13 130.31 118.50 131.54 117.94 132.80 C 113.74 131.81 109.03 129.28 104.95 131.93 C 103.14 132.89 101.37 133.92 99.59 134.92 C 99.24 134.39 98.53 133.32 98.18 132.79 C 97.38 131.86 96.75 130.35 95.28 130.54 C 91.53 130.40 87.88 131.45 84.27 132.27 C 83.61 134.83 83.02 137.41 82.55 140.01 C 84.45 140.79 87.45 140.82 87.60 143.47 C 88.48 148.44 87.28 153.48 86.91 158.45 C 86.18 164.58 85.77 170.74 85.03 176.87 C 88.13 178.26 91.18 180.29 94.68 180.33 C 98.19 180.10 101.58 179.02 104.92 177.99 C 105.33 178.84 105.83 179.67 106.07 180.60 C 106.52 182.72 106.95 184.97 108.71 186.43 C 113.62 187.43 118.73 186.31 123.62 187.45 C 126.39 188.65 125.26 192.02 125.45 194.36 C 107.64 194.77 89.82 194.43 72.00 194.54 C 62.90 194.42 53.80 194.79 44.71 194.33 C 44.81 192.36 44.46 190.25 45.28 188.39 C 49.02 186.15 53.66 187.16 57.82 186.78 C 58.15 185.88 58.48 184.98 58.82 184.08 C 58.93 184.67 59.16 185.84 59.27 186.43 L 59.47 187.46 C 63.89 186.20 66.26 182.20 68.78 178.71 C 69.05 181.47 69.29 184.24 69.51 187.02 C 72.27 186.47 75.00 185.80 77.74 185.21 C 80.73 186.88 84.17 187.09 87.51 187.28 C 83.89 182.56 83.88 175.90 79.22 171.86 C 78.11 174.92 77.23 178.05 76.54 181.23 C 75.80 176.71 73.47 172.82 71.16 168.97 C 71.91 166.65 73.33 164.64 74.63 162.61 C 75.19 162.55 76.29 162.43 76.84 162.37 C 80.26 162.15 84.36 159.24 83.76 155.49 C 78.71 152.74 74.20 149.16 69.22 146.32 C 69.47 145.39 69.73 144.46 69.99 143.53 C 75.88 142.79 81.04 145.83 86.25 148.01 C 83.52 142.10 76.80 140.69 71.19 138.86 C 71.60 133.84 72.50 128.62 71.18 123.68 C 67.90 119.61 64.01 125.51 61.13 127.39 C 60.69 129.26 60.23 131.14 59.78 133.01 C 58.05 134.00 56.29 134.93 54.50 135.80 C 54.04 133.15 53.00 130.58 50.91 128.81 C 53.60 128.04 54.73 125.61 55.36 123.11 C 53.11 122.99 50.86 122.88 48.61 122.79 C 49.31 119.89 49.82 116.94 50.21 113.97 C 48.41 114.84 46.63 115.74 44.86 116.65 C 45.17 113.00 45.39 109.35 45.52 105.68 C 46.31 106.49 47.12 107.28 47.82 108.17 C 49.87 111.23 51.00 114.87 53.46 117.66 C 55.44 118.10 57.27 117.05 57.94 115.16 C 59.22 112.56 61.03 110.30 63.38 108.60 C 66.47 106.81 65.62 102.92 64.73 100.09 C 63.66 97.13 61.66 94.66 59.91 92.09 C 61.01 91.40 62.11 90.72 63.20 90.04 C 61.29 87.70 59.46 85.28 57.44 83.03 C 59.05 83.27 60.65 83.51 62.26 83.73 C 61.70 82.11 60.96 80.50 59.47 79.55 C 53.75 75.23 47.73 71.32 42.01 67.01 C 39.13 64.85 36.57 62.08 35.41 58.61 C 33.76 53.61 32.41 48.35 32.92 43.04 C 34.69 43.16 36.79 42.43 38.27 43.72 C 41.39 46.25 43.72 49.72 47.29 51.72 C 50.94 53.95 55.37 53.82 59.45 54.57 C 66.09 55.70 72.86 57.55 78.29 61.71 C 80.78 63.57 82.46 66.23 84.68 68.35 C 85.97 68.65 87.30 68.70 88.62 68.82 C 90.62 65.52 92.41 61.95 95.38 59.37 C 100.54 54.80 107.01 52.24 113.02 49.03 C 118.31 45.94 117.47 38.55 121.41 34.38 M 75.73 81.08 C 78.48 83.26 81.91 84.10 85.36 84.25 C 84.68 79.91 78.90 81.29 75.73 81.08 M 97.53 87.84 C 98.18 88.11 99.48 88.67 100.13 88.95 C 103.06 87.61 105.15 85.18 106.03 82.08 C 102.66 83.00 98.92 84.29 97.53 87.84 M 73.79 84.99 C 74.38 86.37 74.60 88.08 75.92 89.01 C 77.99 90.78 80.91 89.98 83.38 90.01 C 82.02 86.05 77.30 85.65 73.79 84.99 M 82.61 100.93 C 86.22 100.73 89.76 99.94 93.14 98.67 C 91.81 97.10 90.30 95.24 87.98 95.58 C 84.85 95.20 82.86 98.15 82.61 100.93 M 88.85 102.01 C 85.10 103.08 80.15 103.21 78.25 107.25 C 74.25 114.39 72.64 122.80 73.23 130.94 C 77.15 131.06 81.06 130.72 84.90 129.91 C 90.38 128.78 96.13 128.51 101.31 126.22 C 105.24 124.57 107.43 120.20 107.63 116.12 C 106.24 111.93 103.63 108.26 101.45 104.45 C 98.93 99.96 93.00 101.17 88.85 102.01 M 62.05 116.02 C 58.29 119.01 56.58 123.61 55.12 128.03 C 58.28 125.86 60.30 122.58 62.65 119.64 C 64.85 116.84 68.18 115.37 71.29 113.83 C 71.15 112.12 71.01 110.41 70.86 108.70 C 66.68 109.18 65.11 113.70 62.05 116.02 Z" />
<path fill="#2e1b28" opacity="1.00" d=" M 27.93 123.63 C 29.47 124.26 31.03 124.86 32.46 125.71 C 33.16 128.32 32.42 131.11 32.24 133.76 C 31.99 137.20 29.80 140.00 28.30 142.97 C 25.98 142.51 23.60 141.80 21.22 142.15 C 18.90 143.52 16.70 145.27 13.86 145.33 C 13.98 143.65 14.11 141.97 14.27 140.30 C 13.78 140.19 12.80 139.99 12.32 139.89 C 11.93 138.78 11.29 137.77 10.41 137.01 C 8.45 134.06 4.69 135.85 1.82 135.88 C 2.69 133.74 3.70 131.65 4.84 129.64 C 6.14 129.75 7.43 129.86 8.72 129.96 C 10.62 128.43 12.67 127.09 14.88 126.06 C 16.22 128.52 17.61 130.96 19.07 133.36 C 23.13 131.34 27.07 128.37 27.93 123.63 M 15.17 137.17 C 14.72 138.58 15.19 139.05 16.59 138.59 C 17.05 137.17 16.58 136.70 15.17 137.17 Z" />
<path fill="#2e1b28" opacity="1.00" d=" M 97.86 137.05 C 100.31 136.74 102.74 136.39 105.18 136.02 C 106.06 136.53 106.94 137.05 107.82 137.57 C 106.67 138.42 104.84 138.87 104.46 140.43 C 104.25 142.92 104.34 145.45 103.82 147.92 C 101.44 144.60 97.21 141.65 97.86 137.05 Z" />
<path fill="#2e1b28" opacity="1.00" d=" M 129.47 143.42 C 131.69 141.96 134.25 141.20 136.92 141.36 C 137.48 143.29 138.06 145.21 138.64 147.14 C 141.23 148.89 143.61 151.32 146.82 151.84 C 147.34 151.87 148.39 151.93 148.91 151.97 C 149.48 150.98 150.05 150.00 150.62 149.02 C 152.15 150.41 152.80 152.25 152.40 154.28 L 151.56 154.33 C 150.32 154.43 149.05 154.41 147.86 154.81 C 145.79 156.93 144.57 160.04 141.61 161.13 C 141.33 159.62 141.40 157.90 140.31 156.70 C 138.37 153.50 132.61 155.76 132.29 151.12 C 131.45 148.52 130.54 145.94 129.47 143.42 Z" />
<path fill="#2e1b28" opacity="1.00" d=" M 103.57 148.88 C 108.81 153.24 108.65 160.77 108.07 166.95 C 108.10 169.29 105.56 169.93 103.95 170.96 C 101.06 167.55 98.93 163.01 100.00 158.46 C 101.81 155.53 102.76 152.20 103.57 148.88 Z" />
<path fill="#2e1b28" opacity="1.00" d=" M 151.43 156.72 C 152.13 160.09 149.61 163.33 146.63 164.60 C 144.26 165.75 141.58 165.63 139.02 165.69 C 141.22 165.08 143.56 164.74 145.57 163.59 C 148.01 161.79 149.74 159.21 151.43 156.72 Z" />
</g>
<g id="#806e64ff">
<path fill="#806e64" opacity="1.00" d=" M 121.75 74.76 C 125.09 72.94 128.93 71.48 132.79 72.00 C 134.83 72.93 133.33 75.07 132.32 76.20 C 129.90 78.55 127.13 80.51 124.71 82.86 C 129.76 82.91 134.94 81.96 139.91 83.24 L 140.43 84.05 C 140.22 84.43 139.81 85.18 139.61 85.56 C 135.89 88.44 131.11 89.43 127.22 92.06 C 128.26 92.95 129.31 93.85 130.34 94.76 C 129.16 95.71 127.98 96.67 126.75 97.55 C 125.19 98.67 123.60 99.74 122.06 100.87 L 121.43 101.35 C 119.32 100.74 117.21 100.13 115.10 99.53 C 115.84 97.33 116.63 95.13 117.46 92.96 C 116.66 91.51 115.85 90.06 115.02 88.63 L 115.29 88.02 C 117.33 83.55 118.05 78.32 121.75 74.76 Z" />
<path fill="#806e64" opacity="1.00" d=" M 35.54 79.01 C 39.05 76.85 43.44 77.83 47.03 79.25 C 47.80 79.96 48.70 80.25 49.73 80.13 C 52.47 80.29 55.49 80.95 57.44 83.03 C 59.46 85.28 61.29 87.70 63.20 90.04 C 62.11 90.72 61.01 91.40 59.91 92.09 C 61.66 94.66 63.66 97.13 64.73 100.09 C 65.62 102.92 66.47 106.81 63.38 108.60 C 61.37 104.28 56.61 103.20 52.27 103.26 C 52.00 102.37 51.73 101.48 51.46 100.60 C 49.40 99.29 47.47 97.79 45.75 96.05 C 48.15 94.87 50.64 93.90 53.12 92.91 C 48.20 87.05 40.08 85.16 35.54 79.01 Z" />
<path fill="#806e64" opacity="1.00" d=" M 35.40 111.28 C 37.16 110.44 39.14 110.25 41.03 109.88 C 41.63 116.90 44.66 123.70 50.24 128.15 C 50.97 130.14 51.54 132.17 52.11 134.20 C 49.22 132.12 46.58 129.71 44.15 127.12 C 44.89 131.13 45.86 135.10 46.79 139.08 C 47.22 140.28 46.32 141.59 45.00 141.38 C 41.89 141.79 38.63 142.08 35.68 140.75 C 36.58 140.34 37.49 139.93 38.39 139.53 C 38.58 135.46 38.86 131.06 36.56 127.47 C 34.37 123.44 30.01 121.29 25.67 120.45 C 26.60 119.46 27.54 118.48 28.49 117.51 C 28.30 116.49 28.11 115.47 27.93 114.44 C 29.47 114.61 31.01 114.87 32.56 114.81 C 33.55 113.66 34.37 112.38 35.40 111.28 Z" />
<path fill="#806e64" opacity="1.00" d=" M 82.36 115.44 C 85.57 114.75 89.17 114.44 92.24 115.79 C 95.43 117.37 96.35 123.21 92.37 124.35 C 87.97 125.49 82.71 125.71 78.70 123.28 C 76.77 120.17 78.79 116.01 82.36 115.44 Z" />
<path fill="#806e64" opacity="1.00" d=" M 61.13 127.39 C 64.01 125.51 67.90 119.61 71.18 123.68 C 72.50 128.62 71.60 133.84 71.19 138.86 C 70.04 140.16 68.36 139.71 66.86 139.53 C 66.66 138.27 66.45 137.01 66.23 135.75 C 63.71 135.85 61.22 135.28 59.78 133.01 C 60.23 131.14 60.69 129.26 61.13 127.39 Z" />
<path fill="#806e64" opacity="1.00" d=" M 133.27 124.67 C 137.31 122.05 142.86 120.18 146.95 123.77 C 148.48 125.71 149.78 127.82 151.07 129.93 C 152.69 132.52 152.16 135.83 153.72 138.47 C 152.58 140.79 151.37 143.08 150.06 145.31 C 149.45 143.06 148.60 140.88 147.41 138.87 C 146.15 137.72 144.85 136.58 143.38 135.71 C 141.18 134.60 138.90 133.44 136.43 133.16 C 134.09 133.47 132.12 134.96 130.03 135.97 C 129.31 135.42 128.59 134.87 127.87 134.33 C 131.18 132.43 134.24 130.14 136.85 127.35 C 135.64 127.22 134.42 127.09 133.21 126.97 C 133.23 126.39 133.26 125.24 133.27 124.67 M 142.03 131.05 C 145.10 132.56 148.19 134.03 151.31 135.46 C 149.20 132.33 145.60 131.31 142.03 131.05 Z" />
<path fill="#806e64" opacity="1.00" d=" M 116.98 122.69 C 118.66 124.18 120.35 125.75 121.21 127.88 C 121.33 128.53 121.58 129.84 121.70 130.50 C 122.85 130.95 124.00 131.40 125.15 131.85 C 122.80 133.93 120.55 136.15 118.65 138.67 C 117.59 141.24 115.17 140.32 113.24 139.47 C 111.72 141.18 109.65 142.02 107.39 142.12 C 107.74 140.73 108.11 139.34 108.47 137.95 L 107.82 137.57 C 106.94 137.05 106.06 136.53 105.18 136.02 C 105.10 134.65 105.02 133.29 104.95 131.93 C 109.03 129.28 113.74 131.81 117.94 132.80 C 118.50 131.54 119.13 130.31 119.48 128.98 C 118.92 126.79 117.83 124.78 116.98 122.69 M 108.39 132.28 C 106.82 132.82 107.11 134.69 106.76 135.97 C 107.90 136.22 109.04 136.44 110.19 136.61 C 112.03 137.12 112.96 135.04 114.18 134.09 C 112.33 133.33 110.49 132.01 108.39 132.28 Z" />
<path fill="#806e64" opacity="1.00" d=" M 95.28 130.54 C 96.75 130.35 97.38 131.86 98.18 132.79 C 98.06 134.21 97.95 135.63 97.86 137.05 C 97.21 141.65 101.44 144.60 103.82 147.92 L 103.57 148.88 C 102.76 152.20 101.81 155.53 100.00 158.46 C 97.58 160.39 94.77 161.80 91.68 162.21 C 91.62 161.14 91.57 160.07 91.51 159.00 C 89.97 158.85 88.44 158.66 86.91 158.45 C 87.28 153.48 88.48 148.44 87.60 143.47 C 87.45 140.82 84.45 140.79 82.55 140.01 C 83.02 137.41 83.61 134.83 84.27 132.27 C 87.88 131.45 91.53 130.40 95.28 130.54 M 97.94 154.23 C 99.39 153.60 101.23 153.34 102.08 151.83 C 102.42 150.07 102.17 148.28 102.10 146.51 C 99.48 148.26 98.65 151.35 97.94 154.23 Z" />
<path fill="#806e64" opacity="1.00" d=" M 10.41 137.01 C 11.29 137.77 11.93 138.78 12.32 139.89 C 11.01 142.48 8.34 138.18 10.41 137.01 Z" />
<path fill="#806e64" opacity="1.00" d=" M 145.03 147.77 C 145.91 147.13 146.80 146.50 147.69 145.87 C 148.66 146.92 149.64 147.97 150.62 149.02 C 150.05 150.00 149.48 150.98 148.91 151.97 C 148.39 151.93 147.34 151.87 146.82 151.84 C 146.22 150.48 145.63 149.12 145.03 147.77 Z" />
<path fill="#806e64" opacity="1.00" d=" M 75.08 153.75 C 76.45 154.61 78.73 155.05 78.75 157.07 C 78.82 159.00 77.68 160.71 76.84 162.37 C 76.29 162.43 75.19 162.55 74.63 162.61 C 74.53 159.65 74.68 156.69 75.08 153.75 Z" />
<path fill="#806e64" opacity="1.00" d=" M 147.86 154.81 C 149.05 154.41 150.32 154.43 151.56 154.33 C 151.52 154.93 151.46 156.12 151.43 156.72 C 149.74 159.21 148.01 161.79 145.57 163.59 C 143.56 164.74 141.22 165.08 139.02 165.69 C 138.42 165.18 137.22 164.14 136.62 163.63 C 138.25 162.73 139.92 161.92 141.61 161.13 C 144.57 160.04 145.79 156.93 147.86 154.81 Z" />
<path fill="#806e64" opacity="1.00" d=" M 58.82 184.08 C 58.44 181.21 60.77 178.75 63.60 178.63 C 63.41 180.55 63.72 182.72 62.60 184.41 C 61.60 185.25 60.40 185.80 59.27 186.43 C 59.16 185.84 58.93 184.67 58.82 184.08 Z" />
<path fill="#806e64" opacity="1.00" d=" M 69.78 186.01 C 69.78 183.53 68.79 178.26 72.84 179.05 C 75.45 180.57 74.14 184.03 73.06 186.15 C 72.24 186.11 70.60 186.04 69.78 186.01 Z" />
</g>
<g id="#53393fff">
<path fill="#53393f" opacity="1.00" d=" M 115.51 78.24 C 117.38 76.74 119.57 75.73 121.75 74.76 C 118.05 78.32 117.33 83.55 115.29 88.02 C 113.24 84.89 113.93 81.38 115.51 78.24 Z" />
<path fill="#53393f" opacity="1.00" d=" M 47.03 79.25 C 48.44 78.13 49.34 78.42 49.73 80.13 C 48.70 80.25 47.80 79.96 47.03 79.25 Z" />
<path fill="#53393f" opacity="1.00" d=" M 75.73 81.08 C 78.90 81.29 84.68 79.91 85.36 84.25 C 81.91 84.10 78.48 83.26 75.73 81.08 Z" />
<path fill="#53393f" opacity="1.00" d=" M 113.52 99.50 C 112.17 95.85 113.34 91.95 115.02 88.63 C 115.85 90.06 116.66 91.51 117.46 92.96 C 116.63 95.13 115.84 97.33 115.10 99.53 C 117.21 100.13 119.32 100.74 121.43 101.35 C 120.47 102.09 119.54 102.85 118.60 103.62 C 116.83 102.37 114.74 101.36 113.52 99.50 Z" />
<path fill="#53393f" opacity="1.00" d=" M 82.61 100.93 C 82.86 98.15 84.85 95.20 87.98 95.58 C 90.30 95.24 91.81 97.10 93.14 98.67 C 89.76 99.94 86.22 100.73 82.61 100.93 Z" />
<path fill="#53393f" opacity="1.00" d=" M 122.06 100.87 C 123.60 99.74 125.19 98.67 126.75 97.55 C 129.71 100.39 132.96 103.67 133.24 108.00 C 133.49 110.90 132.38 113.55 130.11 115.36 C 127.97 113.40 125.47 111.58 124.28 108.84 C 123.21 106.28 122.70 103.55 122.06 100.87 Z" />
<path fill="#53393f" opacity="1.00" d=" M 88.85 102.01 C 93.00 101.17 98.93 99.96 101.45 104.45 C 103.63 108.26 106.24 111.93 107.63 116.12 C 107.43 120.20 105.24 124.57 101.31 126.22 C 96.13 128.51 90.38 128.78 84.90 129.91 C 81.06 130.72 77.15 131.06 73.23 130.94 C 72.64 122.80 74.25 114.39 78.25 107.25 C 80.15 103.21 85.10 103.08 88.85 102.01 M 82.36 115.44 C 78.79 116.01 76.77 120.17 78.70 123.28 C 82.71 125.71 87.97 125.49 92.37 124.35 C 96.35 123.21 95.43 117.37 92.24 115.79 C 89.17 114.44 85.57 114.75 82.36 115.44 Z" />
<path fill="#53393f" opacity="1.00" d=" M 52.27 103.26 C 56.61 103.20 61.37 104.28 63.38 108.60 C 61.03 110.30 59.22 112.56 57.94 115.16 C 57.27 117.05 55.44 118.10 53.46 117.66 C 51.00 114.87 49.87 111.23 47.82 108.17 C 49.28 106.52 50.78 104.89 52.27 103.26 Z" />
<path fill="#53393f" opacity="1.00" d=" M 62.05 116.02 C 65.11 113.70 66.68 109.18 70.86 108.70 C 71.01 110.41 71.15 112.12 71.29 113.83 C 68.18 115.37 64.85 116.84 62.65 119.64 C 60.30 122.58 58.28 125.86 55.12 128.03 C 56.58 123.61 58.29 119.01 62.05 116.02 Z" />
<path fill="#53393f" opacity="1.00" d=" M 12.12 122.98 C 16.24 121.77 20.61 125.26 24.32 122.06 C 25.50 122.63 26.71 123.13 27.93 123.63 C 27.07 128.37 23.13 131.34 19.07 133.36 C 17.61 130.96 16.22 128.52 14.88 126.06 C 12.67 127.09 10.62 128.43 8.72 129.96 C 7.43 129.86 6.14 129.75 4.84 129.64 C 3.52 129.53 2.19 129.43 0.87 129.33 C 2.84 124.88 7.80 123.81 12.12 122.98 Z" />
<path fill="#53393f" opacity="1.00" d=" M 128.35 129.07 C 129.68 127.64 131.11 126.31 132.64 125.10 L 133.27 124.67 C 133.26 125.24 133.23 126.39 133.21 126.97 C 134.42 127.09 135.64 127.22 136.85 127.35 C 134.24 130.14 131.18 132.43 127.87 134.33 C 128.59 134.87 129.31 135.42 130.03 135.97 C 132.12 134.96 134.09 133.47 136.43 133.16 C 138.90 133.44 141.18 134.60 143.38 135.71 C 140.30 135.03 137.15 134.87 134.01 134.73 C 133.66 135.91 133.30 137.09 132.94 138.27 C 134.82 138.22 136.74 137.98 138.60 138.36 C 141.61 139.89 144.32 141.94 147.41 143.32 C 147.41 141.84 147.41 140.35 147.41 138.87 C 148.60 140.88 149.45 143.06 150.06 145.31 C 150.33 146.53 150.46 147.78 150.62 149.02 C 149.64 147.97 148.66 146.92 147.69 145.87 C 146.80 146.50 145.91 147.13 145.03 147.77 C 145.63 149.12 146.22 150.48 146.82 151.84 C 143.61 151.32 141.23 148.89 138.64 147.14 C 138.06 145.21 137.48 143.29 136.92 141.36 C 134.25 141.20 131.69 141.96 129.47 143.42 C 130.54 145.94 131.45 148.52 132.29 151.12 C 128.70 149.45 125.41 146.98 123.30 143.58 C 122.23 142.22 122.73 140.44 123.29 139.00 C 124.65 135.53 126.32 132.19 128.35 129.07 Z" />
<path fill="#53393f" opacity="1.00" d=" M 44.15 127.12 C 46.58 129.71 49.22 132.12 52.11 134.20 C 51.54 132.17 50.97 130.14 50.24 128.15 L 50.91 128.81 C 53.00 130.58 54.04 133.15 54.50 135.80 C 52.91 137.52 51.08 138.99 49.39 140.61 C 48.52 140.10 47.66 139.58 46.79 139.08 C 45.86 135.10 44.89 131.13 44.15 127.12 Z" />
<path fill="#53393f" opacity="1.00" d=" M 142.03 131.05 C 145.60 131.31 149.20 132.33 151.31 135.46 C 148.19 134.03 145.10 132.56 142.03 131.05 Z" />
<path fill="#53393f" opacity="1.00" d=" M 99.59 134.92 C 101.37 133.92 103.14 132.89 104.95 131.93 C 105.02 133.29 105.10 134.65 105.18 136.02 C 102.74 136.39 100.31 136.74 97.86 137.05 C 97.95 135.63 98.06 134.21 98.18 132.79 C 98.53 133.32 99.24 134.39 99.59 134.92 Z" />
<path fill="#53393f" opacity="1.00" d=" M 108.39 132.28 C 110.49 132.01 112.33 133.33 114.18 134.09 C 112.96 135.04 112.03 137.12 110.19 136.61 C 109.04 136.44 107.90 136.22 106.76 135.97 C 107.11 134.69 106.82 132.82 108.39 132.28 Z" />
<path fill="#53393f" opacity="1.00" d=" M 71.19 138.86 C 76.80 140.69 83.52 142.10 86.25 148.01 C 81.04 145.83 75.88 142.79 69.99 143.53 C 67.67 143.83 67.28 141.19 66.86 139.53 C 68.36 139.71 70.04 140.16 71.19 138.86 Z" />
<path fill="#53393f" opacity="1.00" d=" M 66.80 151.02 C 66.98 149.21 68.33 147.82 69.22 146.32 C 74.20 149.16 78.71 152.74 83.76 155.49 C 84.36 159.24 80.26 162.15 76.84 162.37 C 77.68 160.71 78.82 159.00 78.75 157.07 C 78.73 155.05 76.45 154.61 75.08 153.75 C 74.68 156.69 74.53 159.65 74.63 162.61 C 73.33 164.64 71.91 166.65 71.16 168.97 C 73.47 172.82 75.80 176.71 76.54 181.23 C 76.93 182.56 77.34 183.88 77.74 185.21 C 75.00 185.80 72.27 186.47 69.51 187.02 C 69.29 184.24 69.05 181.47 68.78 178.71 C 66.26 182.20 63.89 186.20 59.47 187.46 L 59.27 186.43 C 60.40 185.80 61.60 185.25 62.60 184.41 C 63.72 182.72 63.41 180.55 63.60 178.63 C 64.34 178.04 65.08 177.44 65.82 176.84 C 67.65 168.45 70.03 159.35 66.80 151.02 M 69.78 186.01 C 70.60 186.04 72.24 186.11 73.06 186.15 C 74.14 184.03 75.45 180.57 72.84 179.05 C 68.79 178.26 69.78 183.53 69.78 186.01 Z" />
<path fill="#53393f" opacity="1.00" d=" M 97.94 154.23 C 98.65 151.35 99.48 148.26 102.10 146.51 C 102.17 148.28 102.42 150.07 102.08 151.83 C 101.23 153.34 99.39 153.60 97.94 154.23 Z" />
<path fill="#53393f" opacity="1.00" d=" M 108.71 186.43 C 106.95 184.97 106.52 182.72 106.07 180.60 C 108.49 181.66 109.34 183.95 108.71 186.43 Z" />
</g>
<g id="#8a1615ff">
<path fill="#8a1615" opacity="1.00" d=" M 97.53 87.84 C 98.92 84.29 102.66 83.00 106.03 82.08 C 105.15 85.18 103.06 87.61 100.13 88.95 C 99.48 88.67 98.18 88.11 97.53 87.84 Z" />
<path fill="#8a1615" opacity="1.00" d=" M 73.79 84.99 C 77.30 85.65 82.02 86.05 83.38 90.01 C 80.91 89.98 77.99 90.78 75.92 89.01 C 74.60 88.08 74.38 86.37 73.79 84.99 Z" />
<path fill="#8a1615" opacity="1.00" d=" M 41.07 106.30 C 42.55 106.10 44.04 105.89 45.52 105.68 C 45.39 109.35 45.17 113.00 44.86 116.65 C 46.63 115.74 48.41 114.84 50.21 113.97 C 49.82 116.94 49.31 119.89 48.61 122.79 C 50.86 122.88 53.11 122.99 55.36 123.11 C 54.73 125.61 53.60 128.04 50.91 128.81 L 50.24 128.15 C 44.66 123.70 41.63 116.90 41.03 109.88 C 41.00 108.68 41.02 107.49 41.07 106.30 Z" />
<path fill="#8a1615" opacity="1.00" d=" M 136.58 114.81 C 137.58 114.60 138.58 114.40 139.58 114.21 C 141.11 116.19 143.47 116.91 145.86 117.25 C 146.23 119.42 146.58 121.60 146.95 123.77 C 142.86 120.18 137.31 122.05 133.27 124.67 L 132.64 125.10 C 132.00 123.92 131.36 122.73 130.73 121.54 C 132.75 121.60 134.77 121.67 136.79 121.74 C 136.72 119.43 136.65 117.12 136.58 114.81 Z" />
<path fill="#8a1615" opacity="1.00" d=" M 23.74 120.07 C 24.22 120.17 25.19 120.35 25.67 120.45 C 30.01 121.29 34.37 123.44 36.56 127.47 C 38.86 131.06 38.58 135.46 38.39 139.53 C 37.49 139.93 36.58 140.34 35.68 140.75 C 33.10 141.91 30.53 143.09 27.81 143.89 L 28.30 142.97 C 29.80 140.00 31.99 137.20 32.24 133.76 C 32.42 131.11 33.16 128.32 32.46 125.71 C 31.03 124.86 29.47 124.26 27.93 123.63 C 26.71 123.13 25.50 122.63 24.32 122.06 C 24.17 121.56 23.88 120.57 23.74 120.07 Z" />
<path fill="#8a1615" opacity="1.00" d=" M 121.21 127.88 C 123.59 128.28 125.97 128.67 128.35 129.07 C 126.32 132.19 124.65 135.53 123.29 139.00 C 122.51 138.19 121.71 137.39 120.92 136.59 C 120.16 137.28 119.40 137.97 118.65 138.67 C 120.55 136.15 122.80 133.93 125.15 131.85 C 124.00 131.40 122.85 130.95 121.70 130.50 C 121.58 129.84 121.33 128.53 121.21 127.88 Z" />
<path fill="#8a1615" opacity="1.00" d=" M 134.01 134.73 C 137.15 134.87 140.30 135.03 143.38 135.71 C 144.85 136.58 146.15 137.72 147.41 138.87 C 147.41 140.35 147.41 141.84 147.41 143.32 C 144.32 141.94 141.61 139.89 138.60 138.36 C 136.74 137.98 134.82 138.22 132.94 138.27 C 133.30 137.09 133.66 135.91 134.01 134.73 Z" />
<path fill="#8a1615" opacity="1.00" d=" M 86.91 158.45 C 88.44 158.66 89.97 158.85 91.51 159.00 C 91.57 160.07 91.62 161.14 91.68 162.21 C 94.77 161.80 97.58 160.39 100.00 158.46 C 98.93 163.01 101.06 167.55 103.95 170.96 C 105.09 172.16 106.41 173.19 107.49 174.45 C 108.30 176.20 106.45 177.65 104.92 177.99 C 101.58 179.02 98.19 180.10 94.68 180.33 C 91.18 180.29 88.13 178.26 85.03 176.87 C 85.77 170.74 86.18 164.58 86.91 158.45 Z" />
</g>
</svg>
