<?xml version="1.0" encoding="UTF-8" ?>
<!DOCTYPE svg PUBLIC "-//W3C//DTD SVG 1.1//EN" "http://www.w3.org/Graphics/SVG/1.1/DTD/svg11.dtd">
<svg width="155pt" height="210pt" viewBox="0 0 155 210" version="1.1" xmlns="http://www.w3.org/2000/svg">
<g id="#e1dfd3ff">
<path fill="#e1dfd3" opacity="1.00" d=" M 28.89 42.09 C 31.38 41.88 33.98 41.67 36.33 42.71 C 43.02 45.42 48.58 50.28 53.57 55.39 C 49.68 57.78 45.85 60.34 42.59 63.56 C 38.55 58.82 34.98 53.72 31.21 48.77 C 29.63 46.89 29.10 44.47 28.89 42.09 Z" />
<path fill="#e1dfd3" opacity="1.00" d=" M 54.96 41.90 C 61.40 40.78 66.63 45.95 70.17 50.68 C 66.44 51.29 62.69 51.91 59.07 53.04 C 57.03 49.62 55.11 45.98 54.96 41.90 Z" />
<path fill="#e1dfd3" opacity="1.00" d=" M 112.19 70.05 C 113.43 69.98 114.68 69.91 115.93 69.85 C 116.14 70.16 116.58 70.79 116.80 71.10 L 117.11 71.79 C 119.04 77.38 120.73 83.09 121.69 88.93 C 122.17 92.62 121.47 96.32 119.93 99.68 C 116.03 98.55 112.41 96.70 108.84 94.82 C 107.88 89.22 109.25 83.67 110.34 78.21 C 110.94 75.49 111.59 72.77 112.19 70.05 Z" />
<path fill="#e1dfd3" opacity="1.00" d=" M 54.76 107.69 C 53.55 105.51 53.37 103.20 55.27 101.33 C 56.26 102.19 57.26 103.04 58.28 103.88 C 57.12 105.16 55.95 106.44 54.76 107.69 Z" />
<path fill="#e1dfd3" opacity="1.00" d=" M 76.49 129.10 C 77.63 129.53 78.78 129.97 79.92 130.40 C 80.50 131.96 81.08 133.52 81.63 135.10 C 80.52 134.96 79.39 134.85 78.30 134.54 C 77.07 133.33 77.12 131.40 76.66 129.84 L 76.49 129.10 Z" />
<path fill="#e1dfd3" opacity="1.00" d=" M 88.62 138.26 C 90.11 139.54 91.82 140.56 93.60 141.39 C 95.46 141.86 97.34 142.22 99.23 142.52 C 95.59 143.45 91.81 143.62 88.12 142.88 C 88.18 141.99 88.32 140.22 88.39 139.33 L 88.62 138.26 Z" />
</g>
<g id="#8cbb2aff">
<path fill="#8cbb2a" opacity="1.00" d=" M 105.04 45.70 C 107.36 45.86 109.90 45.65 111.83 47.21 C 114.89 49.45 118.76 50.13 121.82 52.33 C 122.10 55.98 120.58 61.94 115.93 61.48 C 112.97 61.25 110.00 61.75 107.55 63.52 C 104.10 66.01 99.79 66.07 95.71 66.05 C 95.56 63.43 95.97 60.61 94.84 58.15 C 93.37 56.25 91.26 54.99 89.36 53.58 C 90.93 56.15 92.52 58.70 94.04 61.31 C 91.40 61.73 88.75 62.43 86.06 62.28 C 83.98 61.82 82.40 60.23 80.67 59.09 C 81.33 57.77 82.00 56.44 82.67 55.13 C 80.54 55.90 78.40 56.67 76.22 57.32 C 74.31 55.39 72.43 53.42 70.70 51.32 C 72.65 50.36 74.56 48.65 76.90 49.17 C 80.51 49.51 83.60 51.65 87.09 52.44 C 92.32 52.56 97.53 51.83 102.77 51.82 C 103.53 49.78 104.28 47.74 105.04 45.70 Z" />
<path fill="#8cbb2a" opacity="1.00" d=" M 44.13 70.13 C 53.01 64.21 62.97 60.06 73.47 58.08 C 75.47 63.47 81.34 64.73 85.85 67.23 C 74.22 70.71 62.59 74.92 52.95 82.53 C 47.35 86.64 42.26 91.54 38.29 97.26 C 35.97 100.49 35.25 104.48 34.64 108.33 C 34.46 109.40 34.28 110.46 34.10 111.53 C 29.38 107.48 27.27 101.04 27.59 94.95 C 28.61 87.26 33.41 80.84 37.86 74.76 C 39.86 73.10 41.98 71.59 44.13 70.13 Z" />
<path fill="#8cbb2a" opacity="1.00" d=" M 55.01 100.85 C 56.27 100.86 57.54 100.84 58.80 100.80 L 59.91 100.77 C 59.99 103.98 60.14 107.19 60.41 110.39 C 61.28 107.19 61.97 103.95 62.62 100.71 C 63.60 102.10 65.08 103.31 65.47 105.03 C 65.35 107.54 64.11 109.84 62.98 112.04 C 62.49 112.48 61.50 113.36 61.01 113.80 C 59.37 113.08 57.60 112.54 56.20 111.39 C 55.68 110.17 55.23 108.93 54.76 107.69 C 55.95 106.44 57.12 105.16 58.28 103.88 C 57.26 103.04 56.26 102.19 55.27 101.33 L 55.01 100.85 Z" />
</g>
<g id="#e88097ff">
<path fill="#e88097" opacity="1.00" d=" M 59.07 53.04 C 62.69 51.91 66.44 51.29 70.17 50.68 L 70.70 51.32 C 72.43 53.42 74.31 55.39 76.22 57.32 C 75.53 57.51 74.16 57.89 73.47 58.08 C 62.97 60.06 53.01 64.21 44.13 70.13 C 42.72 70.16 41.31 70.17 39.91 70.15 C 40.77 67.95 41.45 65.65 42.59 63.56 C 45.85 60.34 49.68 57.78 53.57 55.39 C 55.29 54.38 57.17 53.64 59.07 53.04 Z" />
<path fill="#e88097" opacity="1.00" d=" M 52.95 82.53 C 73.19 81.02 91.85 71.16 112.19 70.05 C 111.59 72.77 110.94 75.49 110.34 78.21 C 110.32 77.44 110.27 75.90 110.25 75.12 C 107.95 78.43 105.73 82.38 101.47 83.37 C 96.79 85.45 91.58 85.14 86.99 83.00 C 87.07 81.17 87.10 79.34 87.13 77.51 C 89.50 78.79 91.86 80.06 94.22 81.36 C 94.68 81.17 95.59 80.81 96.05 80.63 C 92.93 78.72 89.56 76.13 85.67 77.03 C 79.19 78.32 72.82 80.26 66.69 82.72 C 69.19 85.88 71.95 88.83 75.00 91.46 C 71.90 94.38 68.07 96.32 64.24 98.09 C 63.19 96.40 62.13 94.71 61.06 93.03 C 61.47 95.09 61.88 97.15 62.31 99.22 C 61.14 99.76 59.98 100.30 58.80 100.80 C 57.54 100.84 56.27 100.86 55.01 100.85 C 53.52 97.67 52.14 94.42 50.24 91.45 C 47.80 90.28 44.17 90.28 43.09 93.29 C 42.12 97.83 43.26 102.50 43.74 107.05 C 40.76 107.79 37.71 108.27 34.64 108.33 C 35.25 104.48 35.97 100.49 38.29 97.26 C 42.26 91.54 47.35 86.64 52.95 82.53 Z" />
<path fill="#e88097" opacity="1.00" d=" M 117.11 71.79 C 119.93 73.39 122.36 75.56 124.54 77.95 C 123.74 81.65 122.68 85.28 121.69 88.93 C 120.73 83.09 119.04 77.38 117.11 71.79 Z" />
<path fill="#e88097" opacity="1.00" d=" M 93.60 141.39 C 99.34 136.94 107.04 137.10 113.80 138.52 C 111.06 140.80 107.58 141.57 104.12 141.82 C 102.49 142.03 100.86 142.27 99.23 142.52 C 97.34 142.22 95.46 141.86 93.60 141.39 Z" />
</g>
<g id="#383732ff">
<path fill="#383732" opacity="1.00" d=" M 89.36 53.58 C 91.26 54.99 93.37 56.25 94.84 58.15 C 95.97 60.61 95.56 63.43 95.71 66.05 C 99.79 66.07 104.10 66.01 107.55 63.52 C 110.00 61.75 112.97 61.25 115.93 61.48 C 115.62 61.91 114.98 62.76 114.67 63.19 C 115.82 65.69 116.54 68.36 116.80 71.10 C 116.58 70.79 116.14 70.16 115.93 69.85 C 114.38 68.25 112.79 66.49 110.65 65.71 C 106.43 66.04 102.50 68.56 98.18 67.83 C 94.11 67.23 89.96 66.39 85.85 67.23 C 81.34 64.73 75.47 63.47 73.47 58.08 C 74.16 57.89 75.53 57.51 76.22 57.32 C 78.40 56.67 80.54 55.90 82.67 55.13 C 82.00 56.44 81.33 57.77 80.67 59.09 C 82.40 60.23 83.98 61.82 86.06 62.28 C 88.75 62.43 91.40 61.73 94.04 61.31 C 92.52 58.70 90.93 56.15 89.36 53.58 Z" />
<path fill="#383732" opacity="1.00" d=" M 101.47 83.37 C 105.73 82.38 107.95 78.43 110.25 75.12 C 110.27 75.90 110.32 77.44 110.34 78.21 C 109.25 83.67 107.88 89.22 108.84 94.82 C 107.49 94.11 106.14 93.40 104.80 92.70 C 104.40 94.73 103.58 96.75 103.83 98.84 C 104.46 101.11 105.65 103.16 106.67 105.26 C 106.69 105.73 106.72 106.68 106.73 107.16 C 103.35 103.34 102.12 98.29 99.63 93.96 C 95.52 92.24 92.58 95.94 90.90 99.14 C 88.19 98.74 85.47 98.40 82.75 98.17 C 81.27 98.01 79.78 97.91 78.29 97.82 C 77.86 100.00 77.41 102.18 77.08 104.39 C 75.00 104.46 72.87 104.73 70.81 104.29 C 68.68 102.95 67.59 100.52 66.20 98.51 C 70.64 96.39 74.90 93.93 78.94 91.12 C 78.41 90.48 77.89 89.83 77.37 89.18 C 75.95 87.42 74.54 85.67 73.13 83.91 C 76.42 86.05 79.71 88.17 83.06 90.22 C 84.97 88.19 86.78 85.90 86.99 83.00 C 91.58 85.14 96.79 85.45 101.47 83.37 Z" />
<path fill="#383732" opacity="1.00" d=" M 43.09 93.29 C 44.17 90.28 47.80 90.28 50.24 91.45 C 49.52 98.53 50.17 106.64 56.20 111.39 C 57.60 112.54 59.37 113.08 61.01 113.80 C 60.31 114.40 59.60 114.99 58.87 115.56 C 56.20 113.47 53.20 111.48 51.63 108.36 C 49.15 103.86 49.40 98.09 45.59 94.30 C 45.44 99.29 45.78 104.35 44.55 109.24 C 41.77 109.99 39.12 111.14 36.53 112.39 L 35.88 112.70 C 35.29 112.31 34.69 111.92 34.10 111.53 C 34.28 110.46 34.46 109.40 34.64 108.33 C 37.71 108.27 40.76 107.79 43.74 107.05 C 43.26 102.50 42.12 97.83 43.09 93.29 Z" />
<path fill="#383732" opacity="1.00" d=" M 59.91 100.77 C 60.58 100.76 61.94 100.72 62.62 100.71 C 61.97 103.95 61.28 107.19 60.41 110.39 C 60.14 107.19 59.99 103.98 59.91 100.77 Z" />
<path fill="#383732" opacity="1.00" d=" M 81.94 105.82 C 85.40 107.45 88.96 109.85 89.21 114.07 C 86.83 113.77 84.47 113.37 82.13 112.89 C 82.06 110.53 81.98 108.18 81.94 105.82 Z" />
<path fill="#383732" opacity="1.00" d=" M 64.17 118.54 C 69.44 120.22 74.58 123.70 76.49 129.10 L 76.66 129.84 C 72.86 125.69 68.61 121.99 64.17 118.54 Z" />
<path fill="#383732" opacity="1.00" d=" M 67.52 129.10 C 75.38 133.98 75.16 144.04 78.62 151.57 C 86.15 153.28 94.09 152.19 101.62 150.93 C 101.30 151.72 101.00 152.51 100.70 153.31 C 98.81 157.59 99.36 162.33 98.63 166.84 C 97.36 165.43 96.05 164.07 94.67 162.77 C 95.42 161.36 96.05 159.90 96.70 158.45 C 95.13 158.96 93.57 159.48 92.01 160.00 C 92.59 158.69 93.18 157.38 93.77 156.07 C 92.42 155.61 91.07 155.15 89.71 154.69 C 89.44 159.29 90.03 163.94 89.31 168.51 C 87.00 173.37 82.48 176.72 78.53 180.21 C 83.49 183.22 88.02 186.89 91.97 191.14 C 93.93 193.34 93.66 196.52 94.16 199.23 C 104.11 199.63 114.07 199.26 124.03 199.37 C 125.46 199.51 127.31 199.36 128.14 200.81 C 128.95 203.35 128.63 206.08 128.77 208.71 C 95.23 208.77 61.70 208.77 28.17 208.71 C 28.48 205.88 27.41 202.47 29.36 200.11 C 34.95 198.75 40.88 200.51 46.40 198.51 C 49.60 198.29 52.83 198.27 56.02 198.63 C 61.43 199.15 66.45 201.76 71.94 201.71 C 80.18 201.69 88.50 201.87 96.64 200.43 C 91.12 200.27 85.60 200.28 80.08 200.16 C 82.72 197.82 86.49 195.79 87.07 191.99 C 86.88 189.37 84.02 188.18 82.18 186.76 C 77.53 184.02 73.28 180.64 69.52 176.76 C 67.19 177.38 64.86 178.02 62.54 178.68 C 59.69 176.08 56.67 173.68 53.96 170.92 C 54.43 170.72 55.38 170.31 55.86 170.11 C 60.93 169.23 66.09 169.00 71.22 168.79 C 71.64 166.54 72.88 163.96 71.38 161.84 C 69.54 159.26 66.57 157.86 64.19 155.85 C 61.29 153.42 58.22 151.15 54.71 149.66 L 54.02 149.30 C 55.59 147.49 57.17 145.70 58.76 143.91 C 59.53 144.83 60.30 145.75 61.03 146.71 C 62.17 149.09 63.27 151.50 64.40 153.90 C 65.06 151.82 65.70 149.74 66.32 147.66 C 68.24 149.86 70.06 152.15 71.88 154.44 C 72.50 153.03 73.22 151.64 73.55 150.13 C 72.02 147.19 69.93 144.59 68.06 141.86 C 65.72 138.18 61.31 136.98 57.57 135.28 C 57.71 133.71 57.85 132.14 58.00 130.58 C 60.14 130.70 62.18 131.39 64.13 132.26 C 65.27 131.22 66.40 130.17 67.52 129.10 Z" />
<path fill="#383732" opacity="1.00" d=" M 81.63 135.10 C 84.59 134.16 86.64 136.50 88.62 138.26 L 88.39 139.33 C 87.18 140.53 85.93 141.68 84.69 142.83 C 83.38 140.37 82.33 137.79 81.63 135.10 Z" />
<path fill="#383732" opacity="1.00" d=" M 101.43 161.88 C 100.57 160.75 100.61 159.27 101.49 158.16 C 102.74 159.42 102.72 160.66 101.43 161.88 Z" />
<path fill="#383732" opacity="1.00" d=" M 50.60 161.67 C 54.92 162.54 60.00 161.88 63.12 165.64 C 61.16 164.96 59.27 164.00 57.19 163.77 C 54.76 165.39 52.40 167.14 49.66 168.22 C 50.03 166.05 50.37 163.87 50.60 161.67 Z" />
<path fill="#383732" opacity="1.00" d=" M 57.24 190.12 C 58.87 189.58 59.43 190.13 58.92 191.77 C 57.29 192.30 56.73 191.75 57.24 190.12 Z" />
</g>
<g id="#ccc889ff">
<path fill="#ccc889" opacity="1.00" d=" M 98.18 67.83 C 102.50 68.56 106.43 66.04 110.65 65.71 C 112.79 66.49 114.38 68.25 115.93 69.85 C 114.68 69.91 113.43 69.98 112.19 70.05 C 91.85 71.16 73.19 81.02 52.95 82.53 C 62.59 74.92 74.22 70.71 85.85 67.23 C 89.96 66.39 94.11 67.23 98.18 67.83 Z" />
<path fill="#ccc889" opacity="1.00" d=" M 39.91 70.15 C 41.31 70.17 42.72 70.16 44.13 70.13 C 41.98 71.59 39.86 73.10 37.86 74.76 C 38.49 73.20 39.18 71.67 39.91 70.15 Z" />
<path fill="#ccc889" opacity="1.00" d=" M 50.24 91.45 C 52.14 94.42 53.52 97.67 55.01 100.85 L 55.27 101.33 C 53.37 103.20 53.55 105.51 54.76 107.69 C 55.23 108.93 55.68 110.17 56.20 111.39 C 50.17 106.64 49.52 98.53 50.24 91.45 Z" />
<path fill="#ccc889" opacity="1.00" d=" M 104.80 92.70 C 106.14 93.40 107.49 94.11 108.84 94.82 C 112.41 96.70 116.03 98.55 119.93 99.68 C 121.74 99.43 123.53 99.05 125.32 98.69 C 125.83 102.58 126.87 106.51 126.36 110.45 C 124.79 113.12 121.11 112.81 118.45 112.52 C 113.62 111.99 109.97 108.50 106.67 105.26 C 105.65 103.16 104.46 101.11 103.83 98.84 C 103.58 96.75 104.40 94.73 104.80 92.70 Z" />
<path fill="#ccc889" opacity="1.00" d=" M 129.23 109.03 C 128.82 103.76 126.25 98.46 128.41 93.23 C 134.99 100.26 137.66 110.43 135.98 119.84 C 135.11 122.06 133.77 125.22 131.35 125.78 C 122.88 123.98 114.51 126.78 106.03 126.76 C 97.17 126.66 88.74 129.89 79.92 130.40 C 78.78 129.97 77.63 129.53 76.49 129.10 C 74.58 123.70 69.44 120.22 64.17 118.54 C 60.37 122.03 56.45 126.03 51.03 126.68 C 44.32 124.24 39.54 118.69 36.53 112.39 C 39.12 111.14 41.77 109.99 44.55 109.24 C 45.83 108.94 47.12 108.71 48.41 108.47 C 51.20 111.48 53.90 117.27 58.87 115.56 C 59.60 114.99 60.31 114.40 61.01 113.80 C 61.50 113.36 62.49 112.48 62.98 112.04 C 64.92 110.68 67.31 109.09 69.75 110.14 C 74.24 111.87 77.92 115.10 81.95 117.63 C 80.28 115.42 78.29 113.37 77.26 110.76 C 76.71 108.68 76.93 106.50 77.08 104.39 C 77.41 102.18 77.86 100.00 78.29 97.82 C 79.78 97.91 81.27 98.01 82.75 98.17 C 86.59 99.86 90.47 101.47 94.37 103.00 C 99.33 104.86 101.59 110.63 106.84 112.00 C 112.61 113.76 118.63 117.07 124.78 115.06 C 127.49 114.46 129.60 111.85 129.23 109.03 M 81.94 105.82 C 81.98 108.18 82.06 110.53 82.13 112.89 C 84.47 113.37 86.83 113.77 89.21 114.07 C 88.96 109.85 85.40 107.45 81.94 105.82 Z" />
<path fill="#ccc889" opacity="1.00" d=" M 55.16 138.10 C 58.43 137.48 61.62 138.52 64.48 140.05 C 64.16 141.85 63.88 143.66 63.57 145.46 C 64.48 146.20 65.41 146.93 66.32 147.66 C 65.70 149.74 65.06 151.82 64.40 153.90 C 63.27 151.50 62.17 149.09 61.03 146.71 C 61.07 144.86 61.21 143.01 61.34 141.16 C 58.90 142.15 56.45 143.11 54.01 144.08 C 50.56 143.59 52.28 138.49 55.16 138.10 Z" />
<path fill="#ccc889" opacity="1.00" d=" M 51.06 147.88 C 52.05 148.35 53.04 148.82 54.02 149.30 L 54.71 149.66 C 56.53 151.98 58.14 154.56 60.57 156.32 C 62.87 158.11 65.61 159.35 67.59 161.53 C 68.30 163.47 67.41 165.57 67.18 167.54 C 63.28 167.68 59.36 168.29 55.86 170.11 C 55.38 170.31 54.43 170.72 53.96 170.92 C 56.67 173.68 59.69 176.08 62.54 178.68 C 63.15 179.26 63.75 179.85 64.35 180.44 C 62.85 180.13 61.35 179.81 59.85 179.53 C 60.64 181.14 61.70 182.59 62.90 183.92 C 61.44 185.13 60.03 186.49 58.26 187.26 C 53.51 184.79 50.64 179.94 48.13 175.40 C 46.99 175.47 45.86 175.54 44.72 175.61 C 42.64 171.48 40.58 166.76 42.08 162.08 C 43.91 156.72 47.54 152.23 51.06 147.88 M 50.60 161.67 C 50.37 163.87 50.03 166.05 49.66 168.22 C 52.40 167.14 54.76 165.39 57.19 163.77 C 59.27 164.00 61.16 164.96 63.12 165.64 C 60.00 161.88 54.92 162.54 50.60 161.67 Z" />
</g>
<g id="#f2a4bcff">
<path fill="#f2a4bc" opacity="1.00" d=" M 85.67 77.03 C 89.56 76.13 92.93 78.72 96.05 80.63 C 95.59 80.81 94.68 81.17 94.22 81.36 C 91.86 80.06 89.50 78.79 87.13 77.51 C 87.10 79.34 87.07 81.17 86.99 83.00 C 86.78 85.90 84.97 88.19 83.06 90.22 C 79.71 88.17 76.42 86.05 73.13 83.91 C 74.54 85.67 75.95 87.42 77.37 89.18 C 76.59 89.95 75.80 90.71 75.00 91.46 C 71.95 88.83 69.19 85.88 66.69 82.72 C 72.82 80.26 79.19 78.32 85.67 77.03 Z" />
</g>
<g id="#9d996aff">
<path fill="#9d996a" opacity="1.00" d=" M 77.37 89.18 C 77.89 89.83 78.41 90.48 78.94 91.12 C 74.90 93.93 70.64 96.39 66.20 98.51 C 67.59 100.52 68.68 102.95 70.81 104.29 C 72.87 104.73 75.00 104.46 77.08 104.39 C 76.93 106.50 76.71 108.68 77.26 110.76 C 78.29 113.37 80.28 115.42 81.95 117.63 C 77.92 115.10 74.24 111.87 69.75 110.14 C 67.31 109.09 64.92 110.68 62.98 112.04 C 64.11 109.84 65.35 107.54 65.47 105.03 C 65.08 103.31 63.60 102.10 62.62 100.71 C 61.94 100.72 60.58 100.76 59.91 100.77 L 58.80 100.80 C 59.98 100.30 61.14 99.76 62.31 99.22 C 61.88 97.15 61.47 95.09 61.06 93.03 C 62.13 94.71 63.19 96.40 64.24 98.09 C 68.07 96.32 71.90 94.38 75.00 91.46 C 75.80 90.71 76.59 89.95 77.37 89.18 Z" />
<path fill="#9d996a" opacity="1.00" d=" M 121.69 88.93 C 124.49 88.99 126.68 90.66 128.59 92.55 L 128.41 93.23 C 126.25 98.46 128.82 103.76 129.23 109.03 C 129.60 111.85 127.49 114.46 124.78 115.06 C 118.63 117.07 112.61 113.76 106.84 112.00 C 101.59 110.63 99.33 104.86 94.37 103.00 C 90.47 101.47 86.59 99.86 82.75 98.17 C 85.47 98.40 88.19 98.74 90.90 99.14 C 92.58 95.94 95.52 92.24 99.63 93.96 C 102.12 98.29 103.35 103.34 106.73 107.16 C 106.72 106.68 106.69 105.73 106.67 105.26 C 109.97 108.50 113.62 111.99 118.45 112.52 C 121.11 112.81 124.79 113.12 126.36 110.45 C 126.87 106.51 125.83 102.58 125.32 98.69 C 123.53 99.05 121.74 99.43 119.93 99.68 C 121.47 96.32 122.17 92.62 121.69 88.93 Z" />
<path fill="#9d996a" opacity="1.00" d=" M 45.59 94.30 C 49.40 98.09 49.15 103.86 51.63 108.36 C 53.20 111.48 56.20 113.47 58.87 115.56 C 53.90 117.27 51.20 111.48 48.41 108.47 C 47.12 108.71 45.83 108.94 44.55 109.24 C 45.78 104.35 45.44 99.29 45.59 94.30 Z" />
<path fill="#9d996a" opacity="1.00" d=" M 51.03 126.68 C 56.45 126.03 60.37 122.03 64.17 118.54 C 68.61 121.99 72.86 125.69 76.66 129.84 C 77.12 131.40 77.07 133.33 78.30 134.54 C 79.39 134.85 80.52 134.96 81.63 135.10 C 82.33 137.79 83.38 140.37 84.69 142.83 C 85.93 141.68 87.18 140.53 88.39 139.33 C 88.32 140.22 88.18 141.99 88.12 142.88 C 91.81 143.62 95.59 143.45 99.23 142.52 C 100.86 142.27 102.49 142.03 104.12 141.82 C 103.94 144.77 105.48 149.90 101.62 150.93 C 94.09 152.19 86.15 153.28 78.62 151.57 C 75.16 144.04 75.38 133.98 67.52 129.10 C 62.26 127.01 56.47 127.93 51.03 126.68 Z" />
<path fill="#9d996a" opacity="1.00" d=" M 106.03 126.76 C 114.51 126.78 122.88 123.98 131.35 125.78 C 127.26 131.70 120.71 135.28 114.55 138.67 L 113.80 138.52 C 107.04 137.10 99.34 136.94 93.60 141.39 C 91.82 140.56 90.11 139.54 88.62 138.26 C 86.64 136.50 84.59 134.16 81.63 135.10 C 81.08 133.52 80.50 131.96 79.92 130.40 C 88.74 129.89 97.17 126.66 106.03 126.76 Z" />
<path fill="#9d996a" opacity="1.00" d=" M 48.53 130.32 C 51.69 130.07 54.85 130.23 58.00 130.58 C 57.85 132.14 57.71 133.71 57.57 135.28 C 61.31 136.98 65.72 138.18 68.06 141.86 C 69.93 144.59 72.02 147.19 73.55 150.13 C 73.22 151.64 72.50 153.03 71.88 154.44 C 70.06 152.15 68.24 149.86 66.32 147.66 C 65.41 146.93 64.48 146.20 63.57 145.46 C 63.88 143.66 64.16 141.85 64.48 140.05 C 61.62 138.52 58.43 137.48 55.16 138.10 C 52.79 135.66 49.98 133.50 48.53 130.32 Z" />
<path fill="#9d996a" opacity="1.00" d=" M 54.01 144.08 C 56.45 143.11 58.90 142.15 61.34 141.16 C 61.21 143.01 61.07 144.86 61.03 146.71 C 60.30 145.75 59.53 144.83 58.76 143.91 C 57.17 145.70 55.59 147.49 54.02 149.30 C 53.04 148.82 52.05 148.35 51.06 147.88 C 51.98 146.57 52.86 145.21 54.01 144.08 Z" />
<path fill="#9d996a" opacity="1.00" d=" M 54.71 149.66 C 58.22 151.15 61.29 153.42 64.19 155.85 C 66.57 157.86 69.54 159.26 71.38 161.84 C 72.88 163.96 71.64 166.54 71.22 168.79 C 66.09 169.00 60.93 169.23 55.86 170.11 C 59.36 168.29 63.28 167.68 67.18 167.54 C 67.41 165.57 68.30 163.47 67.59 161.53 C 65.61 159.35 62.87 158.11 60.57 156.32 C 58.14 154.56 56.53 151.98 54.71 149.66 Z" />
<path fill="#9d996a" opacity="1.00" d=" M 98.63 166.84 C 99.36 162.33 98.81 157.59 100.70 153.31 C 101.17 154.86 102.24 156.51 101.49 158.16 C 100.61 159.27 100.57 160.75 101.43 161.88 C 102.16 164.12 103.53 166.83 102.05 169.06 C 101.01 170.94 98.58 170.39 96.81 170.59 C 97.44 169.35 98.05 168.10 98.63 166.84 Z" />
<path fill="#9d996a" opacity="1.00" d=" M 92.01 160.00 C 93.57 159.48 95.13 158.96 96.70 158.45 C 96.05 159.90 95.42 161.36 94.67 162.77 C 93.87 163.68 93.03 164.55 92.14 165.38 C 92.08 163.59 92.04 161.79 92.01 160.00 Z" />
<path fill="#9d996a" opacity="1.00" d=" M 44.72 175.61 C 45.86 175.54 46.99 175.47 48.13 175.40 C 50.64 179.94 53.51 184.79 58.26 187.26 C 60.03 186.49 61.44 185.13 62.90 183.92 C 61.70 182.59 60.64 181.14 59.85 179.53 C 61.35 179.81 62.85 180.13 64.35 180.44 C 63.75 179.85 63.15 179.26 62.54 178.68 C 64.86 178.02 67.19 177.38 69.52 176.76 C 73.28 180.64 77.53 184.02 82.18 186.76 C 84.02 188.18 86.88 189.37 87.07 191.99 C 86.49 195.79 82.72 197.82 80.08 200.16 C 85.60 200.28 91.12 200.27 96.64 200.43 C 88.50 201.87 80.18 201.69 71.94 201.71 C 66.45 201.76 61.43 199.15 56.02 198.63 C 52.83 198.27 49.60 198.29 46.40 198.51 L 45.22 198.57 C 45.64 196.72 45.83 194.63 47.28 193.24 C 48.81 191.43 51.37 191.76 53.48 191.43 C 54.41 190.31 55.33 189.18 56.25 188.05 C 52.06 184.26 47.76 180.45 44.72 175.61 M 57.24 190.12 C 56.73 191.75 57.29 192.30 58.92 191.77 C 59.43 190.13 58.87 189.58 57.24 190.12 Z" />
</g>
</svg>
