<?xml version="1.0" encoding="UTF-8" ?>
<!DOCTYPE svg PUBLIC "-//W3C//DTD SVG 1.1//EN" "http://www.w3.org/Graphics/SVG/1.1/DTD/svg11.dtd">
<svg width="155pt" height="210pt" viewBox="0 0 155 210" version="1.1" xmlns="http://www.w3.org/2000/svg">
<g id="#39464eff">
<path fill="#39464e" opacity="1.00" d=" M 50.28 44.09 C 58.85 44.58 66.46 48.91 73.34 53.68 C 84.04 53.20 95.91 50.16 105.68 56.29 C 111.21 59.48 118.73 55.92 123.82 60.27 C 124.39 65.78 121.39 70.70 120.34 75.95 C 122.15 79.33 124.82 82.26 126.02 85.97 C 128.42 93.09 130.40 100.52 130.16 108.10 C 126.24 108.51 122.25 108.07 118.59 106.56 C 117.03 105.81 115.42 105.12 114.01 104.11 C 113.45 98.30 114.97 92.41 113.86 86.59 C 111.18 86.86 108.26 87.77 107.52 90.73 C 104.91 96.26 105.15 102.51 106.03 108.42 C 105.79 111.05 106.21 114.14 104.11 116.16 C 94.98 126.42 84.55 135.73 72.58 142.55 C 68.09 145.31 62.14 146.17 59.05 150.81 C 58.45 151.69 57.88 152.59 57.34 153.51 C 57.06 152.60 56.51 150.77 56.23 149.85 C 53.44 150.38 51.63 152.34 50.99 155.08 C 48.38 154.70 46.81 152.56 45.34 150.60 C 37.79 150.65 31.43 145.97 26.12 141.09 C 28.40 141.88 30.73 142.48 33.07 143.09 C 31.86 139.34 30.53 135.64 29.21 131.93 C 31.54 135.99 33.85 140.07 36.18 144.13 C 44.00 143.00 51.37 139.96 58.36 136.37 C 67.57 131.70 74.95 124.08 80.88 115.75 C 76.63 112.69 73.27 108.63 70.56 104.19 C 63.55 110.20 55.83 116.28 46.28 117.22 C 40.80 117.49 35.30 117.46 29.83 117.06 C 25.13 116.18 21.83 112.44 18.69 109.14 C 18.71 111.48 18.70 113.81 18.78 116.15 C 13.19 111.91 8.12 106.06 6.71 99.04 C 7.96 95.72 11.39 93.96 14.26 92.24 C 18.81 89.51 24.12 88.68 29.32 88.28 C 33.37 82.74 37.20 76.95 42.28 72.28 C 43.95 70.50 46.47 68.84 46.19 66.07 C 46.16 58.58 46.41 50.75 50.28 44.09 M 85.31 84.29 C 89.20 86.09 92.46 88.88 95.12 92.21 C 97.04 89.18 98.91 86.12 100.73 83.03 C 98.59 79.82 96.39 76.66 94.00 73.63 C 90.78 76.91 87.91 80.51 85.31 84.29 Z" />
<path fill="#39464e" opacity="1.00" d=" M 98.67 132.88 C 101.27 132.29 103.93 132.04 106.60 131.92 C 106.03 135.13 103.58 137.36 101.20 139.34 C 100.50 137.13 99.57 135.01 98.67 132.88 Z" />
<path fill="#39464e" opacity="1.00" d=" M 86.02 160.62 C 86.77 161.49 87.52 162.36 88.27 163.23 C 88.11 164.20 87.94 165.18 87.78 166.17 C 86.91 165.32 86.04 164.47 85.16 163.63 C 85.43 162.62 85.72 161.62 86.02 160.62 Z" />
<path fill="#39464e" opacity="1.00" d=" M 55.01 182.09 C 58.35 182.72 61.66 183.54 64.85 184.74 C 63.11 186.33 61.04 187.47 58.87 188.35 C 57.45 186.35 56.13 184.27 55.01 182.09 Z" />
<path fill="#39464e" opacity="1.00" d=" M 101.45 184.93 C 101.91 184.70 102.82 184.24 103.28 184.01 C 103.62 185.92 104.51 188.44 101.57 188.46 C 101.53 187.28 101.49 186.10 101.45 184.93 Z" />
<path fill="#39464e" opacity="1.00" d=" M 106.64 185.80 C 107.63 186.36 108.54 187.02 109.38 187.79 C 108.75 188.50 107.50 189.92 106.88 190.63 C 106.55 189.04 106.37 187.40 106.64 185.80 Z" />
<path fill="#39464e" opacity="1.00" d=" M 110.86 189.69 C 110.30 188.40 111.40 186.94 112.78 187.05 C 114.04 188.11 112.26 190.55 110.86 189.69 Z" />
<path fill="#39464e" opacity="1.00" d=" M 99.12 199.05 C 100.96 198.93 102.81 198.84 104.65 198.88 C 111.67 199.79 118.74 199.12 125.76 199.54 C 130.04 200.11 128.26 205.72 128.76 208.70 C 95.25 208.75 61.73 208.73 28.22 208.70 C 28.71 205.72 26.87 200.02 31.23 199.53 C 41.00 199.21 50.79 199.48 60.56 199.42 C 73.41 199.81 86.29 199.87 99.12 199.05 Z" />
</g>
<g id="#cf7105ff">
<path fill="#cf7105" opacity="1.00" d=" M 85.31 84.29 C 87.91 80.51 90.78 76.91 94.00 73.63 C 96.39 76.66 98.59 79.82 100.73 83.03 C 98.91 86.12 97.04 89.18 95.12 92.21 C 92.46 88.88 89.20 86.09 85.31 84.29 Z" />
<path fill="#cf7105" opacity="1.00" d=" M 106.03 108.42 C 105.15 102.51 104.91 96.26 107.52 90.73 C 107.90 96.68 107.82 102.68 106.03 108.42 Z" />
<path fill="#cf7105" opacity="1.00" d=" M 46.28 117.22 C 55.83 116.28 63.55 110.20 70.56 104.19 C 73.27 108.63 76.63 112.69 80.88 115.75 C 74.95 124.08 67.57 131.70 58.36 136.37 C 51.37 139.96 44.00 143.00 36.18 144.13 C 33.85 140.07 31.54 135.99 29.21 131.93 C 30.53 135.64 31.86 139.34 33.07 143.09 C 30.73 142.48 28.40 141.88 26.12 141.09 C 20.50 134.18 19.68 124.70 18.78 116.15 C 18.70 113.81 18.71 111.48 18.69 109.14 C 21.83 112.44 25.13 116.18 29.83 117.06 C 35.24 118.24 40.84 118.06 46.28 117.22 Z" />
<path fill="#cf7105" opacity="1.00" d=" M 82.71 153.76 C 84.63 153.00 86.32 151.78 88.04 150.65 C 89.20 152.29 90.37 153.94 91.54 155.59 C 89.62 157.17 87.68 158.75 86.02 160.62 C 85.72 161.62 85.43 162.62 85.16 163.63 C 86.04 164.47 86.91 165.32 87.78 166.17 C 87.63 167.02 87.48 167.88 87.33 168.75 C 87.71 169.11 88.47 169.84 88.85 170.20 C 90.45 168.88 92.06 167.57 93.66 166.25 C 93.95 167.80 94.24 169.35 94.54 170.90 C 95.37 170.76 96.19 170.63 97.02 170.50 C 97.79 168.18 98.57 165.87 99.47 163.59 C 99.57 166.80 99.62 170.04 99.05 173.22 C 97.80 182.79 89.98 189.59 87.42 198.73 C 79.07 199.52 70.69 199.10 62.32 198.81 C 62.51 197.15 62.69 195.50 62.93 193.86 C 64.85 189.63 68.91 187.05 72.19 183.98 C 73.44 182.52 74.58 180.98 75.68 179.42 C 72.42 176.63 68.52 173.79 67.76 169.26 C 66.86 164.35 67.50 159.06 69.69 154.57 C 73.86 152.90 78.44 154.82 82.71 153.76 Z" />
<path fill="#cf7105" opacity="1.00" d=" M 99.12 199.05 C 100.49 195.39 102.17 191.84 104.37 188.61 C 104.51 191.20 104.67 193.80 104.68 196.40 C 104.67 197.02 104.66 198.26 104.65 198.88 C 102.81 198.84 100.96 198.93 99.12 199.05 Z" />
</g>
<g id="#6f0615ff">
<path fill="#6f0615" opacity="1.00" d=" M 107.52 90.73 C 108.26 87.77 111.18 86.86 113.86 86.59 C 114.97 92.41 113.45 98.30 114.01 104.11 C 115.42 105.12 117.03 105.81 118.59 106.56 C 120.14 107.55 122.32 108.83 121.37 111.01 C 119.43 120.14 110.06 126.10 101.09 126.35 C 96.73 126.51 92.13 128.47 90.75 132.96 C 93.36 133.76 96.06 133.54 98.67 132.88 C 99.57 135.01 100.50 137.13 101.20 139.34 C 101.62 141.92 101.27 144.77 102.85 147.03 C 105.43 151.13 108.14 155.13 110.88 159.12 C 113.63 163.14 113.10 168.25 112.78 172.85 C 112.30 177.56 113.33 182.22 113.70 186.90 L 112.78 187.05 C 111.40 186.94 110.30 188.40 110.86 189.69 C 110.43 189.01 109.93 188.37 109.38 187.79 C 108.54 187.02 107.63 186.36 106.64 185.80 C 106.37 187.40 106.55 189.04 106.88 190.63 C 106.25 192.59 105.49 194.51 104.68 196.40 C 104.67 193.80 104.51 191.20 104.37 188.61 C 102.17 191.84 100.49 195.39 99.12 199.05 C 86.29 199.87 73.41 199.81 60.56 199.42 C 61.29 197.54 62.06 195.68 62.93 193.86 C 62.69 195.50 62.51 197.15 62.32 198.81 C 70.69 199.10 79.07 199.52 87.42 198.73 C 89.98 189.59 97.80 182.79 99.05 173.22 C 99.62 170.04 99.57 166.80 99.47 163.59 C 98.57 165.87 97.79 168.18 97.02 170.50 C 96.19 170.63 95.37 170.76 94.54 170.90 C 94.24 169.35 93.95 167.80 93.66 166.25 C 92.06 167.57 90.45 168.88 88.85 170.20 C 88.47 169.84 87.71 169.11 87.33 168.75 C 87.48 167.88 87.63 167.02 87.78 166.17 C 87.94 165.18 88.11 164.20 88.27 163.23 C 87.52 162.36 86.77 161.49 86.02 160.62 C 87.68 158.75 89.62 157.17 91.54 155.59 C 90.37 153.94 89.20 152.29 88.04 150.65 C 86.32 151.78 84.63 153.00 82.71 153.76 C 78.44 154.82 73.86 152.90 69.69 154.57 C 67.50 159.06 66.86 164.35 67.76 169.26 C 68.52 173.79 72.42 176.63 75.68 179.42 C 74.58 180.98 73.44 182.52 72.19 183.98 C 72.62 181.47 72.51 178.89 71.37 176.57 C 69.30 179.38 67.20 182.17 64.85 184.74 C 61.66 183.54 58.35 182.72 55.01 182.09 C 55.72 177.55 59.80 175.14 62.96 172.36 C 60.64 170.74 56.62 169.64 57.03 166.10 C 56.94 161.33 60.75 158.01 63.79 154.88 C 62.20 153.53 60.62 152.17 59.05 150.81 C 62.14 146.17 68.09 145.31 72.58 142.55 C 84.55 135.73 94.98 126.42 104.11 116.16 C 106.21 114.14 105.79 111.05 106.03 108.42 C 107.82 102.68 107.90 96.68 107.52 90.73 M 102.51 172.42 C 100.25 179.71 96.89 186.56 93.17 193.21 C 93.82 193.21 95.13 193.20 95.78 193.20 C 96.41 191.37 97.05 189.55 97.68 187.72 C 98.70 189.05 99.66 190.44 100.70 191.76 C 100.99 190.66 101.53 189.61 101.57 188.46 C 104.51 188.44 103.62 185.92 103.28 184.01 C 102.82 184.24 101.91 184.70 101.45 184.93 C 101.61 181.63 105.14 179.22 104.55 175.75 C 104.18 174.46 104.61 171.64 102.51 172.42 Z" />
<path fill="#6f0615" opacity="1.00" d=" M 29.83 117.06 C 35.30 117.46 40.80 117.49 46.28 117.22 C 40.84 118.06 35.24 118.24 29.83 117.06 Z" />
</g>
</svg>
