<?xml version="1.0" encoding="UTF-8" ?>
<!DOCTYPE svg PUBLIC "-//W3C//DTD SVG 1.1//EN" "http://www.w3.org/Graphics/SVG/1.1/DTD/svg11.dtd">
<svg width="155pt" height="210pt" viewBox="0 0 155 210" version="1.1" xmlns="http://www.w3.org/2000/svg">
<g id="#debfa8ff">
<path fill="#debfa8" opacity="1.00" d=" M 38.47 42.94 C 38.38 40.67 38.90 37.84 41.24 36.84 C 43.18 35.77 45.32 36.90 46.83 38.17 C 55.08 45.36 61.59 54.26 67.43 63.45 C 69.85 63.65 72.28 63.79 74.70 64.05 C 78.19 64.39 81.99 64.79 84.51 67.51 C 85.28 71.98 86.10 76.63 88.63 80.49 C 91.61 84.96 97.77 86.21 100.24 91.10 C 99.39 96.52 96.33 101.25 93.93 106.08 C 92.47 105.91 91.01 105.74 89.55 105.56 C 88.64 114.70 85.86 124.32 78.93 130.76 C 78.40 128.94 77.90 127.11 77.41 125.28 C 75.24 128.03 72.64 130.48 69.26 131.62 C 68.64 127.25 68.18 122.86 67.77 118.46 C 65.25 119.70 62.72 120.93 60.18 122.11 C 57.42 112.37 53.60 102.93 48.83 94.00 C 47.40 90.91 43.90 89.98 40.85 89.34 C 43.21 88.89 45.54 88.33 47.89 87.86 C 50.98 92.51 57.15 96.60 62.59 93.16 C 64.03 93.58 65.48 93.98 66.93 94.35 C 66.82 95.36 66.72 96.36 66.62 97.37 C 68.86 96.00 71.02 94.49 73.07 92.85 C 71.14 92.57 69.20 92.29 67.28 91.95 C 69.12 89.98 71.34 88.41 73.92 87.57 C 76.74 89.39 79.97 89.22 82.88 87.75 C 82.85 87.14 82.80 85.90 82.77 85.28 C 82.74 84.83 82.68 83.92 82.65 83.46 C 77.24 81.96 71.42 81.38 65.91 82.70 C 61.88 83.74 58.38 86.10 54.85 88.21 C 51.59 87.08 48.34 85.34 44.78 85.81 C 40.62 86.20 36.41 86.31 32.29 85.52 C 33.97 82.80 36.26 80.41 39.28 79.21 C 44.11 77.17 48.92 74.91 54.10 73.90 C 58.09 72.84 61.60 69.99 63.20 66.16 C 63.78 64.88 63.65 63.32 62.73 62.23 C 60.25 59.06 56.74 56.94 53.99 54.03 C 50.69 50.86 48.16 45.88 42.90 46.10 C 42.39 49.28 41.82 52.44 41.31 55.62 C 39.34 51.69 38.70 47.28 38.47 42.94 M 60.16 102.60 C 64.00 105.40 68.67 108.01 73.58 106.45 C 76.60 104.24 78.79 101.04 81.04 98.07 C 82.02 96.95 81.44 95.45 81.43 94.14 C 75.36 99.08 67.52 100.62 60.16 102.60 Z" />
<path fill="#debfa8" opacity="1.00" d=" M 101.28 143.01 C 102.35 141.39 103.11 139.42 104.72 138.25 C 108.15 136.98 111.45 139.37 114.50 140.67 C 117.01 140.28 119.55 140.11 122.08 139.87 C 119.89 140.50 117.64 140.76 115.40 141.12 C 117.08 147.07 124.23 147.31 128.03 151.27 C 129.31 154.20 130.88 157.46 130.00 160.72 C 128.54 164.92 124.42 167.28 120.64 169.10 C 119.53 167.70 118.69 165.97 117.15 165.00 C 114.24 164.08 111.14 164.19 108.14 163.89 C 106.80 161.69 105.58 159.43 104.30 157.20 C 104.24 158.42 104.16 159.65 104.08 160.88 C 100.98 164.84 98.47 170.07 93.28 171.55 C 89.19 172.70 85.31 170.18 82.32 167.66 C 79.47 165.13 76.04 163.44 72.55 162.00 C 72.67 161.34 72.91 160.02 73.03 159.37 C 77.00 157.85 80.82 155.86 83.86 152.84 C 87.88 149.02 92.70 146.25 97.25 143.14 C 100.86 145.75 102.73 149.84 103.96 153.98 C 104.46 150.08 105.01 145.58 101.28 143.01 Z" />
</g>
<g id="#cba799ff">
<path fill="#cba799" opacity="1.00" d=" M 79.41 39.38 C 81.65 38.86 83.74 40.21 84.99 41.99 C 88.62 46.78 90.73 52.49 93.00 58.01 C 94.13 61.09 95.45 64.40 94.74 67.74 C 94.48 68.97 94.21 70.21 93.92 71.43 C 91.50 71.18 88.16 71.45 87.57 68.36 C 85.01 60.35 82.41 52.31 78.09 45.02 C 77.99 46.40 77.91 47.77 77.84 49.14 C 77.23 45.92 76.43 41.71 79.41 39.38 Z" />
<path fill="#cba799" opacity="1.00" d=" M 84.51 67.51 C 87.44 70.66 89.56 74.43 91.68 78.14 C 93.23 76.95 94.82 75.78 96.36 74.56 C 96.75 74.62 97.53 74.74 97.92 74.79 C 98.69 77.28 99.45 79.84 101.07 81.92 C 106.06 88.75 112.52 94.53 116.20 102.26 C 115.45 106.36 118.15 109.98 118.38 113.98 C 118.44 119.61 115.75 124.99 116.43 130.64 C 116.68 132.85 119.02 133.88 121.02 133.74 C 125.08 133.65 129.54 132.51 132.33 129.36 C 133.72 126.83 133.58 123.79 134.17 121.03 C 134.97 124.71 136.34 128.80 134.42 132.38 C 131.99 136.78 127.10 139.72 122.08 139.87 C 119.55 140.11 117.01 140.28 114.50 140.67 C 111.45 139.37 108.15 136.98 104.72 138.25 C 103.11 139.42 102.35 141.39 101.28 143.01 C 98.76 140.51 96.43 137.81 94.33 134.95 C 96.67 132.54 99.22 130.34 101.95 128.39 C 103.75 130.04 105.28 131.95 107.07 133.62 C 107.78 130.89 108.52 128.16 109.22 125.42 C 112.72 122.56 115.63 118.64 116.19 114.05 C 115.98 112.37 114.81 111.01 114.08 109.53 C 110.08 114.79 105.93 119.96 101.21 124.59 C 94.00 129.48 86.48 133.91 78.66 137.75 C 75.52 138.46 72.28 137.48 69.11 137.42 C 65.98 132.44 66.19 126.44 66.11 120.80 C 65.42 121.52 64.72 122.24 64.03 122.95 C 62.67 124.25 61.27 125.57 59.54 126.36 L 58.61 126.40 C 56.32 114.85 48.39 105.66 41.73 96.34 C 40.40 94.31 39.64 91.98 38.89 89.68 C 39.38 89.60 40.36 89.42 40.85 89.34 C 43.90 89.98 47.40 90.91 48.83 94.00 C 53.60 102.93 57.42 112.37 60.18 122.11 C 62.72 120.93 65.25 119.70 67.77 118.46 C 68.18 122.86 68.64 127.25 69.26 131.62 C 72.64 130.48 75.24 128.03 77.41 125.28 C 77.90 127.11 78.40 128.94 78.93 130.76 C 85.86 124.32 88.64 114.70 89.55 105.56 C 91.01 105.74 92.47 105.91 93.93 106.08 C 96.33 101.25 99.39 96.52 100.24 91.10 C 97.77 86.21 91.61 84.96 88.63 80.49 C 86.10 76.63 85.28 71.98 84.51 67.51 Z" />
<path fill="#cba799" opacity="1.00" d=" M 65.91 82.70 C 71.42 81.38 77.24 81.96 82.65 83.46 C 82.68 83.92 82.74 84.83 82.77 85.28 C 79.09 85.87 75.38 86.14 71.70 86.65 C 69.44 87.55 67.30 88.75 65.37 90.24 C 61.83 89.77 58.24 89.37 54.85 88.21 C 58.38 86.10 61.88 83.74 65.91 82.70 Z" />
<path fill="#cba799" opacity="1.00" d=" M 60.16 102.60 C 67.52 100.62 75.36 99.08 81.43 94.14 C 81.44 95.45 82.02 96.95 81.04 98.07 C 78.79 101.04 76.60 104.24 73.58 106.45 C 68.67 108.01 64.00 105.40 60.16 102.60 Z" />
<path fill="#cba799" opacity="1.00" d=" M 26.84 133.98 C 20.38 128.51 18.11 118.93 19.92 110.87 C 20.07 116.08 20.65 121.42 23.29 126.02 C 24.23 125.51 25.16 125.00 26.09 124.47 C 26.52 124.22 27.37 123.73 27.79 123.48 C 28.15 127.01 28.41 130.67 26.84 133.98 Z" />
<path fill="#cba799" opacity="1.00" d=" M 86.53 142.61 C 89.94 141.13 94.00 141.28 97.25 143.14 C 92.70 146.25 87.88 149.02 83.86 152.84 C 80.82 155.86 77.00 157.85 73.03 159.37 C 72.91 160.02 72.67 161.34 72.55 162.00 C 76.04 163.44 79.47 165.13 82.32 167.66 C 85.31 170.18 89.19 172.70 93.28 171.55 C 98.47 170.07 100.98 164.84 104.08 160.88 C 103.75 163.31 103.64 165.96 102.18 168.04 C 100.59 169.92 98.30 170.97 96.19 172.15 C 98.54 172.15 101.07 171.61 103.29 172.62 C 106.30 174.64 107.97 178.00 109.86 180.99 C 109.26 182.38 108.61 183.76 107.92 185.11 C 105.68 185.12 103.45 185.22 101.21 185.16 C 98.75 182.57 95.62 180.80 92.13 180.04 C 92.61 179.29 93.09 178.54 93.58 177.79 C 90.76 176.04 87.82 174.52 84.91 172.95 C 81.48 171.09 78.61 167.87 74.46 167.74 C 69.72 167.45 65.02 166.09 61.75 162.45 C 62.88 165.08 63.99 167.72 65.04 170.38 C 61.51 173.21 58.09 169.75 55.36 167.55 C 56.19 165.69 56.96 163.81 57.99 162.05 C 60.90 157.91 64.94 154.71 69.23 152.12 C 72.77 149.89 77.15 150.99 81.00 149.90 C 83.51 148.08 84.36 144.78 86.53 142.61 Z" />
</g>
<g id="#9d7d73ff">
<path fill="#9d7d73" opacity="1.00" d=" M 78.09 45.02 C 82.41 52.31 85.01 60.35 87.57 68.36 C 88.16 71.45 91.50 71.18 93.92 71.43 C 94.21 70.21 94.48 68.97 94.74 67.74 C 95.87 70.06 96.98 72.39 97.92 74.79 C 97.53 74.74 96.75 74.62 96.36 74.56 C 94.82 75.78 93.23 76.95 91.68 78.14 C 89.56 74.43 87.44 70.66 84.51 67.51 C 81.99 64.79 78.19 64.39 74.70 64.05 C 76.92 64.11 79.14 64.22 81.36 64.21 C 80.58 59.10 78.49 54.27 77.84 49.14 C 77.91 47.77 77.99 46.40 78.09 45.02 Z" />
<path fill="#9d7d73" opacity="1.00" d=" M 71.70 86.65 C 75.38 86.14 79.09 85.87 82.77 85.28 C 82.80 85.90 82.85 87.14 82.88 87.75 C 79.97 89.22 76.74 89.39 73.92 87.57 C 73.36 87.34 72.25 86.88 71.70 86.65 Z" />
<path fill="#9d7d73" opacity="1.00" d=" M 33.04 98.84 C 34.09 98.75 35.15 98.66 36.21 98.57 C 37.24 103.68 38.16 108.82 38.59 114.02 C 38.98 116.95 39.00 120.45 41.54 122.45 C 46.28 126.32 52.80 126.37 58.61 126.40 L 59.54 126.36 C 56.17 127.18 52.69 127.33 49.24 127.42 C 49.76 129.68 50.25 131.95 50.78 134.20 C 52.08 134.84 53.41 135.43 54.75 135.97 C 51.61 138.73 47.29 136.54 43.64 136.38 L 43.07 136.30 C 42.14 133.82 41.08 131.39 39.98 128.98 C 38.09 130.35 36.20 131.73 34.30 133.11 C 34.05 134.90 33.80 136.70 33.53 138.49 C 32.07 137.06 29.78 135.98 29.59 133.71 C 29.05 130.03 29.29 126.29 29.30 122.58 C 28.93 122.80 28.17 123.26 27.79 123.48 C 27.37 123.73 26.52 124.22 26.09 124.47 C 23.29 115.12 30.13 107.17 33.04 98.84 Z" />
<path fill="#9d7d73" opacity="1.00" d=" M 78.66 137.75 C 86.48 133.91 94.00 129.48 101.21 124.59 C 103.63 126.29 106.51 126.63 109.22 125.42 C 108.52 128.16 107.78 130.89 107.07 133.62 C 105.28 131.95 103.75 130.04 101.95 128.39 C 99.22 130.34 96.67 132.54 94.33 134.95 C 96.43 137.81 98.76 140.51 101.28 143.01 C 105.01 145.58 104.46 150.08 103.96 153.98 C 102.73 149.84 100.86 145.75 97.25 143.14 C 94.00 141.28 89.94 141.13 86.53 142.61 C 84.36 144.78 83.51 148.08 81.00 149.90 C 77.15 150.99 72.77 149.89 69.23 152.12 C 64.94 154.71 60.90 157.91 57.99 162.05 C 57.62 159.08 57.23 156.03 57.92 153.07 C 58.76 148.31 64.34 145.41 63.12 140.13 C 62.41 140.17 61.00 140.26 60.29 140.30 C 63.08 138.93 66.06 137.99 69.11 137.42 C 72.28 137.48 75.52 138.46 78.66 137.75 Z" />
<path fill="#9d7d73" opacity="1.00" d=" M 104.30 157.20 C 105.58 159.43 106.80 161.69 108.14 163.89 C 111.14 164.19 114.24 164.08 117.15 165.00 C 118.69 165.97 119.53 167.70 120.64 169.10 C 120.19 169.30 119.30 169.70 118.85 169.90 C 114.68 170.50 111.10 166.97 107.16 165.90 C 107.22 168.35 106.95 170.91 107.76 173.27 C 109.64 175.73 112.36 177.37 114.82 179.19 C 114.90 180.83 114.97 182.48 115.04 184.13 C 116.31 184.26 117.58 184.38 118.85 184.50 L 118.69 185.45 C 115.11 185.04 111.51 185.10 107.92 185.11 C 108.61 183.76 109.26 182.38 109.86 180.99 C 107.97 178.00 106.30 174.64 103.29 172.62 C 101.07 171.61 98.54 172.15 96.19 172.15 C 98.30 170.97 100.59 169.92 102.18 168.04 C 103.64 165.96 103.75 163.31 104.08 160.88 C 104.16 159.65 104.24 158.42 104.30 157.20 Z" />
<path fill="#9d7d73" opacity="1.00" d=" M 61.75 162.45 C 65.02 166.09 69.72 167.45 74.46 167.74 C 78.61 167.87 81.48 171.09 84.91 172.95 C 87.82 174.52 90.76 176.04 93.58 177.79 C 93.09 178.54 92.61 179.29 92.13 180.04 C 89.98 179.36 87.88 178.54 85.84 177.59 C 86.41 176.86 86.98 176.13 87.56 175.40 C 83.89 175.02 80.28 174.24 76.76 173.12 C 77.01 172.28 77.25 171.45 77.50 170.62 C 74.20 169.86 70.85 169.31 67.49 168.95 C 67.25 171.19 67.01 173.43 66.76 175.68 C 63.32 175.00 59.81 174.68 56.30 174.76 C 55.36 172.30 54.98 169.68 54.75 167.07 L 55.36 167.55 C 58.09 169.75 61.51 173.21 65.04 170.38 C 63.99 167.72 62.88 165.08 61.75 162.45 Z" />
<path fill="#9d7d73" opacity="1.00" d=" M 77.27 176.99 C 77.77 177.21 78.77 177.66 79.26 177.88 C 79.56 180.02 79.98 182.15 80.28 184.30 L 80.41 185.39 C 78.46 185.14 76.51 184.87 74.56 184.63 C 76.63 182.55 78.03 179.98 77.27 176.99 Z" />
</g>
<g id="#bd8d82ff">
<path fill="#bd8d82" opacity="1.00" d=" M 42.90 46.10 C 48.16 45.88 50.69 50.86 53.99 54.03 C 56.74 56.94 60.25 59.06 62.73 62.23 C 63.65 63.32 63.78 64.88 63.20 66.16 C 61.60 69.99 58.09 72.84 54.10 73.90 C 55.98 72.14 57.48 70.03 58.70 67.77 C 54.98 68.04 51.21 69.14 47.50 68.41 C 43.33 65.78 41.64 60.30 41.31 55.62 C 41.82 52.44 42.39 49.28 42.90 46.10 Z" />
<path fill="#bd8d82" opacity="1.00" d=" M 31.37 85.39 L 32.29 85.52 C 36.41 86.31 40.62 86.20 44.78 85.81 C 48.34 85.34 51.59 87.08 54.85 88.21 C 58.24 89.37 61.83 89.77 65.37 90.24 C 64.44 91.21 63.54 92.21 62.59 93.16 C 57.15 96.60 50.98 92.51 47.89 87.86 C 45.54 88.33 43.21 88.89 40.85 89.34 C 40.36 89.42 39.38 89.60 38.89 89.68 C 39.64 91.98 40.40 94.31 41.73 96.34 C 48.39 105.66 56.32 114.85 58.61 126.40 C 52.80 126.37 46.28 126.32 41.54 122.45 C 39.00 120.45 38.98 116.95 38.59 114.02 C 38.16 108.82 37.24 103.68 36.21 98.57 C 35.15 98.66 34.09 98.75 33.04 98.84 C 33.54 96.98 34.11 95.14 34.56 93.26 C 35.29 92.69 36.09 92.23 36.96 91.89 C 34.83 89.96 32.79 87.91 31.37 85.39 Z" />
<path fill="#bd8d82" opacity="1.00" d=" M 64.03 122.95 C 64.72 122.24 65.42 121.52 66.11 120.80 C 66.19 126.44 65.98 132.44 69.11 137.42 C 66.06 137.99 63.08 138.93 60.29 140.30 C 58.24 141.55 56.52 143.71 53.94 143.79 C 51.43 143.94 48.71 143.88 46.47 142.60 C 44.41 141.24 44.30 138.52 43.64 136.38 C 47.29 136.54 51.61 138.73 54.75 135.97 C 57.22 132.15 60.29 128.64 64.64 126.95 C 64.48 125.61 64.27 124.28 64.03 122.95 Z" />
</g>
<g id="#3d2c27fe">
<path fill="#3d2c27" opacity="1.00" d=" M 65.37 90.24 C 67.30 88.75 69.44 87.55 71.70 86.65 C 72.25 86.88 73.36 87.34 73.92 87.57 C 71.34 88.41 69.12 89.98 67.28 91.95 C 69.20 92.29 71.14 92.57 73.07 92.85 C 71.02 94.49 68.86 96.00 66.62 97.37 C 66.72 96.36 66.82 95.36 66.93 94.35 C 65.48 93.98 64.03 93.58 62.59 93.16 C 63.54 92.21 64.44 91.21 65.37 90.24 Z" />
<path fill="#3d2c27" opacity="1.00" d=" M 64.03 122.95 C 64.27 124.28 64.48 125.61 64.64 126.95 C 60.29 128.64 57.22 132.15 54.75 135.97 C 53.41 135.43 52.08 134.84 50.78 134.20 C 50.25 131.95 49.76 129.68 49.24 127.42 C 52.69 127.33 56.17 127.18 59.54 126.36 C 61.27 125.57 62.67 124.25 64.03 122.95 Z" />
<path fill="#3d2c27" opacity="1.00" d=" M 128.03 151.27 C 128.55 150.95 129.58 150.31 130.09 150.00 C 133.85 151.53 135.84 155.69 135.32 159.59 C 133.46 163.74 129.45 166.36 125.73 168.69 C 123.71 170.07 121.17 169.77 118.85 169.90 C 119.30 169.70 120.19 169.30 120.64 169.10 C 124.42 167.28 128.54 164.92 130.00 160.72 C 130.88 157.46 129.31 154.20 128.03 151.27 Z" />
<path fill="#3d2c27" opacity="1.00" d=" M 67.49 168.95 C 70.85 169.31 74.20 169.86 77.50 170.62 C 77.25 171.45 77.01 172.28 76.76 173.12 C 80.28 174.24 83.89 175.02 87.56 175.40 C 86.98 176.13 86.41 176.86 85.84 177.59 C 87.88 178.54 89.98 179.36 92.13 180.04 C 95.62 180.80 98.75 182.57 101.21 185.16 C 103.45 185.22 105.68 185.12 107.92 185.11 C 111.51 185.10 115.11 185.04 118.69 185.45 C 119.74 185.61 120.78 185.81 121.82 186.05 C 121.85 188.64 121.85 191.24 121.85 193.83 C 93.60 193.59 65.35 193.63 37.10 193.77 C 37.13 191.36 36.96 188.90 37.51 186.54 C 42.23 182.26 49.15 185.53 54.74 183.95 C 56.22 182.93 57.43 181.52 58.31 179.96 C 57.87 178.15 57.05 176.46 56.30 174.76 C 59.81 174.68 63.32 175.00 66.76 175.68 C 67.01 173.43 67.25 171.19 67.49 168.95 M 77.27 176.99 C 78.03 179.98 76.63 182.55 74.56 184.63 C 76.51 184.87 78.46 185.14 80.41 185.39 L 80.28 184.30 C 82.68 183.56 85.02 182.51 86.60 180.47 C 84.10 179.76 81.62 178.97 79.26 177.88 C 78.77 177.66 77.77 177.21 77.27 176.99 Z" />
</g>
<g id="#f0dabfff">
<path fill="#f0dabf" opacity="1.00" d=" M 26.48 92.34 C 29.20 92.29 31.94 92.47 34.56 93.26 C 34.11 95.14 33.54 96.98 33.04 98.84 C 30.13 107.17 23.29 115.12 26.09 124.47 C 25.16 125.00 24.23 125.51 23.29 126.02 C 20.65 121.42 20.07 116.08 19.92 110.87 C 20.67 104.29 22.96 97.94 26.48 92.34 Z" />
</g>
<g id="#dcd3caff">
<path fill="#dcd3ca" opacity="1.00" d=" M 122.24 99.34 C 130.96 97.92 139.91 93.00 148.80 96.07 C 148.80 96.77 148.79 98.16 148.79 98.86 C 146.87 100.04 144.93 101.17 142.95 102.25 C 144.32 103.65 147.09 104.55 146.49 106.96 C 143.73 110.55 139.30 112.12 135.40 114.09 C 135.85 114.95 136.31 115.82 136.74 116.70 C 135.81 118.08 134.33 119.27 134.17 121.03 C 133.58 123.79 133.72 126.83 132.33 129.36 C 129.54 132.51 125.08 133.65 121.02 133.74 C 119.02 133.88 116.68 132.85 116.43 130.64 C 115.75 124.99 118.44 119.61 118.38 113.98 C 118.15 109.98 115.45 106.36 116.20 102.26 C 117.64 100.30 119.80 99.17 122.24 99.34 Z" />
</g>
<g id="#b0aa51ff">
<path fill="#b0aa51" opacity="1.00" d=" M 27.79 123.48 C 28.17 123.26 28.93 122.80 29.30 122.58 C 29.29 126.29 29.05 130.03 29.59 133.71 C 29.78 135.98 32.07 137.06 33.53 138.49 C 37.51 141.41 38.80 148.28 34.58 151.56 C 31.33 154.66 25.22 153.67 23.85 149.14 C 21.11 143.68 27.54 139.47 26.84 133.98 C 28.41 130.67 28.15 127.01 27.79 123.48 Z" />
</g>
<g id="#090908ff">
<path fill="#090908" opacity="1.00" d=" M 79.26 177.88 C 81.62 178.97 84.10 179.76 86.60 180.47 C 85.02 182.51 82.68 183.56 80.28 184.30 C 79.98 182.15 79.56 180.02 79.26 177.88 Z" />
</g>
</svg>
