<?xml version="1.0" encoding="UTF-8" ?>
<!DOCTYPE svg PUBLIC "-//W3C//DTD SVG 1.1//EN" "http://www.w3.org/Graphics/SVG/1.1/DTD/svg11.dtd">
<svg width="155pt" height="210pt" viewBox="0 0 155 210" version="1.1" xmlns="http://www.w3.org/2000/svg">
<g id="#74722eff">
<path fill="#74722e" opacity="1.00" d=" M 102.83 53.11 C 106.45 49.52 111.06 46.96 116.04 45.88 C 117.46 46.07 119.36 47.18 118.63 48.86 C 117.39 53.55 113.79 57.10 111.35 61.17 C 109.43 57.67 106.76 54.40 102.83 53.11 Z" />
<path fill="#74722e" opacity="1.00" d=" M 81.11 53.67 C 82.56 50.02 85.98 47.18 89.89 46.63 C 92.72 47.10 92.04 50.65 92.54 52.70 C 88.72 52.94 84.92 53.29 81.11 53.67 Z" />
<path fill="#74722e" opacity="1.00" d=" M 57.70 59.73 C 60.36 58.29 63.13 57.04 65.97 55.99 C 66.95 56.41 67.93 56.83 68.92 57.26 C 66.74 61.77 64.15 66.15 60.36 69.51 C 61.92 66.36 63.62 63.27 65.28 60.17 C 63.38 61.58 61.50 63.01 59.60 64.43 C 58.96 62.86 58.32 61.30 57.70 59.73 Z" />
<path fill="#74722e" opacity="1.00" d=" M 111.97 62.18 C 111.85 63.21 111.74 64.25 111.62 65.29 C 105.70 68.70 101.95 74.54 96.87 78.93 C 97.87 77.25 98.87 75.57 100.03 74.00 C 103.32 69.37 108.63 66.76 111.97 62.18 Z" />
<path fill="#74722e" opacity="1.00" d=" M 63.03 81.89 C 66.37 75.99 68.98 68.62 75.77 65.89 C 70.23 70.13 67.44 76.68 63.03 81.89 Z" />
<path fill="#74722e" opacity="1.00" d=" M 41.49 77.56 C 43.74 75.53 46.93 75.19 49.81 74.69 C 48.54 75.83 47.25 76.96 45.96 78.08 C 46.88 81.07 47.58 84.13 48.80 87.02 C 50.50 87.71 52.44 87.38 54.23 87.60 C 51.49 90.77 46.57 91.90 45.36 96.34 C 45.21 98.66 46.17 100.87 46.70 103.09 C 43.42 101.63 39.74 99.62 36.15 101.38 C 34.51 102.20 32.98 103.20 31.45 104.19 C 29.20 102.91 26.68 102.88 24.26 103.67 C 25.36 101.01 26.12 98.19 27.65 95.74 C 29.82 93.50 33.00 92.41 34.83 89.82 C 35.60 88.31 35.63 86.55 35.96 84.91 C 38.25 82.81 39.68 80.04 41.49 77.56 Z" />
<path fill="#74722e" opacity="1.00" d=" M 108.54 88.62 C 108.60 85.43 112.97 80.94 115.88 84.12 C 119.91 88.67 118.79 95.38 118.78 100.98 C 119.06 107.36 111.53 110.32 111.58 116.60 C 111.07 116.08 110.57 115.57 110.06 115.06 C 107.08 117.41 103.59 119.56 99.66 118.21 C 102.79 115.60 106.49 113.45 108.79 110.00 C 109.39 107.81 108.63 105.49 108.68 103.26 C 108.63 98.38 109.00 93.49 108.54 88.62 Z" />
<path fill="#74722e" opacity="1.00" d=" M 93.08 85.34 C 94.73 84.99 96.38 84.63 98.03 84.27 C 98.76 86.30 100.81 88.88 98.84 90.83 C 97.41 92.50 95.15 91.41 93.99 90.01 C 93.43 88.51 93.32 86.91 93.08 85.34 Z" />
<path fill="#74722e" opacity="1.00" d=" M 75.35 103.50 C 78.82 103.25 84.00 102.98 85.18 107.17 C 86.14 109.78 83.89 111.67 82.44 113.50 C 79.81 116.56 80.24 121.32 77.12 124.08 C 75.88 125.65 73.44 125.12 72.21 123.82 C 70.42 120.85 70.33 117.25 70.90 113.93 C 71.36 111.33 70.42 108.79 70.24 106.21 C 70.48 103.81 73.55 103.95 75.35 103.50 Z" />
<path fill="#74722e" opacity="1.00" d=" M 32.37 112.19 C 30.88 110.02 31.45 107.48 32.01 105.10 C 32.74 106.23 33.47 107.37 34.21 108.50 C 33.60 109.73 32.99 110.96 32.37 112.19 Z" />
<path fill="#74722e" opacity="1.00" d=" M 80.31 125.88 C 81.16 128.00 82.30 130.46 80.39 132.38 C 80.26 130.22 80.24 128.04 80.31 125.88 Z" />
<path fill="#74722e" opacity="1.00" d=" M 44.16 154.03 C 44.94 153.02 45.85 152.77 46.89 153.29 C 47.21 154.48 46.67 155.20 45.29 155.43 C 45.00 155.08 44.44 154.38 44.16 154.03 Z" />
<path fill="#74722e" opacity="1.00" d=" M 51.26 181.84 C 52.51 182.29 53.75 182.74 54.99 183.20 C 55.01 184.53 55.02 185.86 55.04 187.19 C 53.32 185.76 52.10 183.89 51.26 181.84 Z" />
</g>
<g id="#c5bb90ff">
<path fill="#c5bb90" opacity="1.00" d=" M 92.54 52.70 C 95.97 52.59 99.42 52.73 102.83 53.11 C 106.76 54.40 109.43 57.67 111.35 61.17 L 111.97 62.18 C 108.63 66.76 103.32 69.37 100.03 74.00 C 98.87 75.57 97.87 77.25 96.87 78.93 C 101.95 74.54 105.70 68.70 111.62 65.29 C 112.54 66.32 113.46 67.36 114.37 68.40 C 114.43 68.48 114.55 68.62 114.61 68.70 C 118.41 73.75 121.19 79.56 123.55 85.40 C 124.96 92.41 125.73 99.72 125.04 106.86 C 123.34 110.62 119.87 113.17 117.01 116.01 C 112.86 119.59 109.08 123.83 104.00 126.14 C 100.45 125.56 96.97 124.24 93.34 124.26 C 87.41 127.80 82.91 133.23 77.38 137.32 C 75.14 138.79 73.82 141.11 73.02 143.61 C 67.18 145.35 61.11 146.35 55.44 148.66 C 53.75 148.15 52.07 147.64 50.38 147.15 C 48.27 148.32 46.12 149.43 43.84 150.21 C 43.29 150.17 42.18 150.08 41.63 150.03 C 40.56 149.87 39.48 149.80 38.40 149.84 C 28.57 149.12 19.38 143.00 14.55 134.42 C 11.62 129.30 7.18 123.57 9.26 117.34 C 12.60 104.32 20.52 93.15 29.08 83.04 C 37.45 73.96 47.08 66.04 57.70 59.73 C 58.32 61.30 58.96 62.86 59.60 64.43 C 61.50 63.01 63.38 61.58 65.28 60.17 C 63.62 63.27 61.92 66.36 60.36 69.51 C 64.15 66.15 66.74 61.77 68.92 57.26 C 67.93 56.83 66.95 56.41 65.97 55.99 C 71.03 55.30 76.05 54.35 81.11 53.67 C 84.92 53.29 88.72 52.94 92.54 52.70 M 63.03 81.89 C 67.44 76.68 70.23 70.13 75.77 65.89 C 68.98 68.62 66.37 75.99 63.03 81.89 M 41.49 77.56 C 39.68 80.04 38.25 82.81 35.96 84.91 C 35.63 86.55 35.60 88.31 34.83 89.82 C 33.00 92.41 29.82 93.50 27.65 95.74 C 26.12 98.19 25.36 101.01 24.26 103.67 C 26.68 102.88 29.20 102.91 31.45 104.19 L 32.01 105.10 C 31.45 107.48 30.88 110.02 32.37 112.19 C 32.99 110.96 33.60 109.73 34.21 108.50 C 35.08 106.19 35.70 103.80 36.15 101.38 C 39.74 99.62 43.42 101.63 46.70 103.09 C 46.17 100.87 45.21 98.66 45.36 96.34 C 46.57 91.90 51.49 90.77 54.23 87.60 C 52.44 87.38 50.50 87.71 48.80 87.02 C 47.58 84.13 46.88 81.07 45.96 78.08 C 47.25 76.96 48.54 75.83 49.81 74.69 C 46.93 75.19 43.74 75.53 41.49 77.56 M 108.54 88.62 C 102.98 96.83 100.48 106.59 95.63 115.18 C 96.97 116.19 98.32 117.20 99.66 118.21 C 103.59 119.56 107.08 117.41 110.06 115.06 C 110.57 115.57 111.07 116.08 111.58 116.60 C 111.53 110.32 119.06 107.36 118.78 100.98 C 118.79 95.38 119.91 88.67 115.88 84.12 C 112.97 80.94 108.60 85.43 108.54 88.62 M 93.08 85.34 C 93.32 86.91 93.43 88.51 93.99 90.01 C 95.15 91.41 97.41 92.50 98.84 90.83 C 100.81 88.88 98.76 86.30 98.03 84.27 C 96.38 84.63 94.73 84.99 93.08 85.34 M 75.35 103.50 C 73.55 103.95 70.48 103.81 70.24 106.21 C 70.42 108.79 71.36 111.33 70.90 113.93 C 70.33 117.25 70.42 120.85 72.21 123.82 C 73.44 125.12 75.88 125.65 77.12 124.08 C 80.24 121.32 79.81 116.56 82.44 113.50 C 83.89 111.67 86.14 109.78 85.18 107.17 C 84.00 102.98 78.82 103.25 75.35 103.50 M 80.31 125.88 C 80.24 128.04 80.26 130.22 80.39 132.38 C 82.30 130.46 81.16 128.00 80.31 125.88 Z" />
<path fill="#c5bb90" opacity="1.00" d=" M 97.94 133.85 C 98.82 133.90 100.59 133.99 101.48 134.04 C 100.29 136.56 98.40 138.62 96.32 140.43 C 96.02 139.31 95.69 138.21 95.37 137.10 C 96.23 136.02 97.08 134.94 97.94 133.85 Z" />
<path fill="#c5bb90" opacity="1.00" d=" M 82.51 166.36 C 81.64 164.82 81.12 163.13 81.89 161.44 C 82.12 163.07 82.32 164.71 82.51 166.36 Z" />
<path fill="#c5bb90" opacity="1.00" d=" M 96.64 187.00 C 96.13 185.93 97.13 183.54 98.49 184.68 C 99.56 185.74 97.90 188.17 96.64 187.00 Z" />
<path fill="#c5bb90" opacity="1.00" d=" M 100.92 185.90 C 102.31 185.71 103.70 186.69 103.94 188.09 C 103.66 188.34 103.10 188.84 102.82 189.09 C 101.48 188.81 100.15 187.26 100.92 185.90 Z" />
<path fill="#c5bb90" opacity="1.00" d=" M 104.55 187.71 C 105.55 186.92 106.56 186.91 107.58 187.66 C 108.31 190.09 103.73 190.21 104.55 187.71 Z" />
</g>
<g id="#282e34ff">
<path fill="#282e34" opacity="1.00" d=" M 114.37 68.40 C 114.43 68.48 114.55 68.62 114.61 68.70 C 114.55 68.62 114.43 68.48 114.37 68.40 Z" />
<path fill="#282e34" opacity="1.00" d=" M 86.09 134.42 C 89.99 135.68 94.01 134.10 97.94 133.85 C 97.08 134.94 96.23 136.02 95.37 137.10 C 95.69 138.21 96.02 139.31 96.32 140.43 C 96.72 141.86 96.27 143.36 95.77 144.71 C 94.03 149.31 90.49 152.82 86.95 156.10 C 85.65 154.42 84.35 152.74 83.05 151.06 C 83.59 145.45 84.32 139.80 86.09 134.42 Z" />
<path fill="#282e34" opacity="1.00" d=" M 43.84 150.21 C 46.12 149.43 48.27 148.32 50.38 147.15 C 52.07 147.64 53.75 148.15 55.44 148.66 C 55.67 149.41 56.14 150.90 56.37 151.64 C 55.36 152.76 54.36 153.88 53.36 155.01 C 53.08 153.65 52.79 152.30 52.51 150.95 C 49.96 151.44 48.23 153.18 47.32 155.57 C 46.62 155.59 45.23 155.65 44.53 155.68 L 45.29 155.43 C 46.67 155.20 47.21 154.48 46.89 153.29 C 45.85 152.77 44.94 153.02 44.16 154.03 L 43.51 154.60 C 43.59 153.13 43.71 151.67 43.84 150.21 Z" />
<path fill="#282e34" opacity="1.00" d=" M 38.40 149.84 C 39.48 149.80 40.56 149.87 41.63 150.03 C 41.99 151.97 37.89 151.73 38.40 149.84 Z" />
<path fill="#282e34" opacity="1.00" d=" M 94.20 164.43 C 94.63 159.80 97.41 156.02 101.21 153.51 C 101.25 154.01 101.33 155.02 101.37 155.52 C 101.55 157.64 101.82 159.76 102.12 161.87 C 100.92 164.77 97.91 167.94 99.56 171.19 C 101.73 173.22 104.76 173.91 107.42 175.09 C 107.23 175.43 106.85 176.12 106.66 176.47 C 104.55 179.49 101.94 182.26 100.92 185.90 C 100.15 187.26 101.48 188.81 102.82 189.09 C 100.67 192.64 100.39 197.18 97.21 200.10 C 91.14 199.74 85.06 199.65 78.98 199.65 C 72.54 199.68 66.02 199.15 59.67 200.54 C 72.74 202.57 86.37 203.46 99.31 200.21 C 105.45 198.85 111.78 199.87 118.00 199.54 C 121.41 199.70 125.15 198.95 128.30 200.57 C 129.12 203.21 128.73 206.02 128.78 208.74 C 95.26 208.74 61.74 208.77 28.23 208.72 C 28.31 206.06 28.04 203.33 28.76 200.74 C 29.69 199.34 31.51 199.46 32.98 199.35 C 40.91 199.20 48.86 199.73 56.79 199.11 C 57.33 197.32 57.90 195.54 58.46 193.75 C 58.66 195.15 58.86 196.54 59.05 197.95 C 66.04 198.24 73.10 199.51 80.07 198.40 C 83.32 198.23 84.36 194.82 85.75 192.47 C 87.85 188.28 90.85 184.52 92.15 179.97 C 89.15 178.81 86.00 180.33 82.95 180.48 C 77.90 181.33 71.85 179.56 67.87 183.68 C 68.02 181.56 68.08 179.44 68.05 177.32 C 64.49 179.25 63.02 183.34 59.80 185.66 C 58.33 186.70 56.66 187.39 55.06 188.17 L 55.04 187.19 C 55.02 185.86 55.01 184.53 54.99 183.20 C 55.97 183.57 56.94 183.95 57.92 184.34 C 59.16 180.56 60.21 176.66 60.11 172.65 L 59.30 172.24 C 58.71 171.97 57.52 171.43 56.93 171.16 C 58.16 168.25 59.76 165.34 59.93 162.12 C 59.66 160.56 58.35 159.46 57.53 158.18 C 58.45 157.16 59.37 156.14 60.28 155.11 C 61.86 155.08 63.43 154.97 65.01 154.89 C 63.52 161.47 61.48 169.24 65.96 175.15 C 68.27 178.60 72.74 176.58 76.09 176.69 C 81.32 176.04 87.67 179.19 91.97 174.94 C 94.95 172.25 94.45 168.02 94.20 164.43 M 97.73 171.81 C 95.86 179.43 91.53 186.03 88.79 193.30 C 91.59 192.89 91.90 189.76 92.89 187.66 C 93.71 188.94 94.53 190.22 95.37 191.50 C 96.00 190.06 97.12 188.65 96.64 187.00 C 95.59 184.06 97.57 181.60 98.94 179.19 C 100.32 176.78 98.88 174.01 97.73 171.81 M 96.64 187.00 C 97.90 188.17 99.56 185.74 98.49 184.68 C 97.13 183.54 96.13 185.93 96.64 187.00 Z" />
</g>
<g id="#0c5274ff">
<path fill="#0c5274" opacity="1.00" d=" M 108.54 88.62 C 109.00 93.49 108.63 98.38 108.68 103.26 C 108.63 105.49 109.39 107.81 108.79 110.00 C 106.49 113.45 102.79 115.60 99.66 118.21 C 98.32 117.20 96.97 116.19 95.63 115.18 C 100.48 106.59 102.98 96.83 108.54 88.62 Z" />
<path fill="#0c5274" opacity="1.00" d=" M 31.45 104.19 C 32.98 103.20 34.51 102.20 36.15 101.38 C 35.70 103.80 35.08 106.19 34.21 108.50 C 33.47 107.37 32.74 106.23 32.01 105.10 L 31.45 104.19 Z" />
<path fill="#0c5274" opacity="1.00" d=" M 77.38 137.32 C 82.91 133.23 87.41 127.80 93.34 124.26 C 96.97 124.24 100.45 125.56 104.00 126.14 C 99.80 128.47 94.70 127.37 90.40 129.37 C 88.29 130.31 86.74 132.22 86.09 134.42 C 84.32 139.80 83.59 145.45 83.05 151.06 C 81.18 152.49 79.50 154.71 76.96 154.79 C 72.98 154.95 68.99 154.54 65.01 154.89 C 63.43 154.97 61.86 155.08 60.28 155.11 C 58.30 155.09 56.76 153.50 56.37 151.64 C 56.14 150.90 55.67 149.41 55.44 148.66 C 61.11 146.35 67.18 145.35 73.02 143.61 C 73.82 141.11 75.14 138.79 77.38 137.32 Z" />
<path fill="#0c5274" opacity="1.00" d=" M 86.95 156.10 C 90.49 152.82 94.03 149.31 95.77 144.71 C 97.42 147.74 99.63 150.43 101.21 153.51 C 97.41 156.02 94.63 159.80 94.20 164.43 C 93.63 166.51 92.98 168.57 92.35 170.64 C 91.81 170.76 90.73 170.99 90.19 171.11 C 89.68 169.51 89.17 167.92 88.67 166.32 C 87.36 167.46 86.06 168.59 84.76 169.73 C 84.31 169.67 83.40 169.56 82.95 169.51 C 82.80 168.45 82.65 167.40 82.51 166.36 C 82.32 164.71 82.12 163.07 81.89 161.44 C 83.46 159.55 85.19 157.81 86.95 156.10 Z" />
<path fill="#0c5274" opacity="1.00" d=" M 102.12 161.87 C 101.82 159.76 101.55 157.64 101.37 155.52 C 108.48 159.31 107.66 168.27 107.42 175.09 C 104.76 173.91 101.73 173.22 99.56 171.19 C 97.91 167.94 100.92 164.77 102.12 161.87 Z" />
<path fill="#0c5274" opacity="1.00" d=" M 56.93 171.16 C 50.68 169.16 53.74 161.14 57.53 158.18 C 58.35 159.46 59.66 160.56 59.93 162.12 C 59.76 165.34 58.16 168.25 56.93 171.16 Z" />
<path fill="#0c5274" opacity="1.00" d=" M 59.30 172.24 L 60.11 172.65 C 60.21 176.66 59.16 180.56 57.92 184.34 C 56.94 183.95 55.97 183.57 54.99 183.20 C 53.75 182.74 52.51 182.29 51.26 181.84 C 52.36 177.53 56.30 175.15 59.30 172.24 Z" />
<path fill="#0c5274" opacity="1.00" d=" M 100.92 185.90 C 101.94 182.26 104.55 179.49 106.66 176.47 C 107.81 180.22 108.11 184.16 108.27 188.07 L 107.58 187.66 C 106.56 186.91 105.55 186.92 104.55 187.71 L 103.94 188.09 C 103.70 186.69 102.31 185.71 100.92 185.90 Z" />
</g>
<g id="#596867ff">
<path fill="#596867" opacity="1.00" d=" M 76.96 154.79 C 79.50 154.71 81.18 152.49 83.05 151.06 C 84.35 152.74 85.65 154.42 86.95 156.10 C 85.19 157.81 83.46 159.55 81.89 161.44 C 81.12 163.13 81.64 164.82 82.51 166.36 C 82.65 167.40 82.80 168.45 82.95 169.51 C 83.40 169.56 84.31 169.67 84.76 169.73 C 86.06 168.59 87.36 167.46 88.67 166.32 C 89.17 167.92 89.68 169.51 90.19 171.11 C 90.73 170.99 91.81 170.76 92.35 170.64 C 92.98 168.57 93.63 166.51 94.20 164.43 C 94.45 168.02 94.95 172.25 91.97 174.94 C 87.67 179.19 81.32 176.04 76.09 176.69 C 72.74 176.58 68.27 178.60 65.96 175.15 C 61.48 169.24 63.52 161.47 65.01 154.89 C 68.99 154.54 72.98 154.95 76.96 154.79 Z" />
<path fill="#596867" opacity="1.00" d=" M 82.95 180.48 C 86.00 180.33 89.15 178.81 92.15 179.97 C 90.85 184.52 87.85 188.28 85.75 192.47 C 84.36 194.82 83.32 198.23 80.07 198.40 C 73.10 199.51 66.04 198.24 59.05 197.95 C 58.86 196.54 58.66 195.15 58.46 193.75 C 61.00 189.88 64.34 186.64 67.87 183.68 C 71.85 179.56 77.90 181.33 82.95 180.48 Z" />
<path fill="#596867" opacity="1.00" d=" M 59.67 200.54 C 66.02 199.15 72.54 199.68 78.98 199.65 C 85.06 199.65 91.14 199.74 97.21 200.10 C 97.73 200.13 98.78 200.19 99.31 200.21 C 86.37 203.46 72.74 202.57 59.67 200.54 Z" />
</g>
</svg>
