<?xml version="1.0" encoding="UTF-8" ?>
<!DOCTYPE svg PUBLIC "-//W3C//DTD SVG 1.1//EN" "http://www.w3.org/Graphics/SVG/1.1/DTD/svg11.dtd">
<svg width="155pt" height="210pt" viewBox="0 0 155 210" version="1.1" xmlns="http://www.w3.org/2000/svg">
<g id="#d7be6bff">
<path fill="#d7be6b" opacity="1.00" d=" M 75.46 63.36 C 77.53 62.92 79.60 62.15 81.74 62.30 C 86.90 65.74 90.19 71.29 95.19 74.92 C 101.46 73.38 106.18 67.64 112.89 67.26 C 117.19 69.40 118.32 74.52 120.16 78.54 C 123.69 76.06 126.81 72.73 130.94 71.28 C 132.59 71.68 134.12 72.44 135.68 73.09 C 132.70 76.92 128.85 80.10 126.54 84.43 C 124.99 87.24 124.12 90.37 122.45 93.12 C 121.06 94.36 119.59 95.51 118.14 96.68 C 116.80 96.43 115.47 96.17 114.13 95.97 C 113.77 94.29 113.41 92.62 113.04 90.95 C 110.40 90.43 107.76 89.85 105.09 89.49 C 105.21 86.82 105.97 83.87 104.49 81.43 C 103.32 79.37 101.77 77.55 100.31 75.69 C 95.22 76.27 89.75 75.42 85.05 77.85 C 82.17 79.24 82.16 82.75 81.68 85.47 C 80.05 85.34 78.42 85.30 76.79 85.25 C 76.97 89.64 78.02 93.91 79.43 98.05 C 79.20 98.34 78.72 98.93 78.48 99.23 C 76.30 99.04 74.12 98.86 71.94 98.75 C 73.14 97.87 74.36 97.01 75.58 96.15 C 75.55 89.49 74.79 82.84 75.22 76.18 C 75.51 71.91 75.46 67.63 75.46 63.36 Z" />
</g>
<g id="#978242ff">
<path fill="#978242" opacity="1.00" d=" M 85.05 77.85 C 89.75 75.42 95.22 76.27 100.31 75.69 C 101.77 77.55 103.32 79.37 104.49 81.43 C 105.97 83.87 105.21 86.82 105.09 89.49 C 102.99 89.40 100.86 89.33 98.79 89.79 C 97.84 91.82 97.42 94.04 96.88 96.20 C 93.31 96.62 89.74 97.00 86.16 97.41 C 86.86 94.30 88.04 91.10 87.38 87.88 C 85.65 86.73 83.65 86.07 81.68 85.47 C 82.16 82.75 82.17 79.24 85.05 77.85 Z" />
<path fill="#978242" opacity="1.00" d=" M 118.14 96.68 C 119.59 95.51 121.06 94.36 122.45 93.12 C 122.19 94.48 122.06 95.94 121.32 97.16 C 116.73 102.16 109.68 101.71 103.50 102.16 C 103.15 96.37 109.97 96.26 114.13 95.97 C 115.47 96.17 116.80 96.43 118.14 96.68 Z" />
</g>
<g id="#686161ff">
<path fill="#686161" opacity="1.00" d=" M 76.79 85.25 C 78.42 85.30 80.05 85.34 81.68 85.47 C 83.65 86.07 85.65 86.73 87.38 87.88 C 88.04 91.10 86.86 94.30 86.16 97.41 C 89.74 97.00 93.31 96.62 96.88 96.20 C 97.42 94.04 97.84 91.82 98.79 89.79 C 100.86 89.33 102.99 89.40 105.09 89.49 C 107.76 89.85 110.40 90.43 113.04 90.95 C 113.41 92.62 113.77 94.29 114.13 95.97 C 109.97 96.26 103.15 96.37 103.50 102.16 C 96.56 105.62 88.94 107.26 81.19 107.05 C 80.76 104.02 80.31 100.98 79.43 98.05 C 78.02 93.91 76.97 89.64 76.79 85.25 Z" />
<path fill="#686161" opacity="1.00" d=" M 54.52 107.60 C 61.85 106.94 69.43 106.33 76.54 108.70 C 72.55 110.75 68.27 112.09 63.89 113.01 C 60.80 113.83 57.26 114.49 55.14 117.11 C 53.46 120.70 53.40 124.86 51.31 128.29 C 48.56 133.06 46.64 138.23 44.91 143.44 C 40.77 134.78 35.68 125.75 36.69 115.79 C 37.05 114.29 37.53 112.83 38.01 111.36 C 43.66 110.99 49.39 110.17 54.52 107.60 Z" />
<path fill="#686161" opacity="1.00" d=" M 118.65 108.17 C 119.19 108.22 120.28 108.32 120.83 108.37 C 122.68 117.80 122.46 127.42 122.56 136.97 C 122.54 142.35 123.44 147.69 123.46 153.07 C 123.52 155.82 121.77 158.09 120.50 160.38 C 118.25 156.91 116.93 152.98 115.20 149.26 C 114.52 150.51 113.85 151.76 113.15 153.01 C 111.42 156.06 109.48 159.00 107.52 161.91 C 107.09 161.25 106.66 160.60 106.23 159.95 C 110.46 155.70 113.69 150.14 113.30 143.95 C 113.64 140.54 111.22 137.90 108.79 135.89 C 106.67 134.07 104.39 132.44 102.35 130.53 C 99.62 127.96 98.38 124.29 97.23 120.82 C 104.68 120.74 111.02 116.76 117.82 114.35 C 118.10 112.29 118.38 110.23 118.65 108.17 Z" />
<path fill="#686161" opacity="1.00" d=" M 95.43 149.41 C 99.03 150.18 101.28 152.88 102.05 156.42 C 99.15 155.66 96.26 154.82 93.46 153.77 L 93.74 152.94 C 94.30 151.76 94.86 150.58 95.43 149.41 Z" />
<path fill="#686161" opacity="1.00" d=" M 61.25 152.51 C 61.52 152.21 62.05 151.61 62.32 151.31 C 64.25 152.74 66.17 154.19 68.00 155.76 C 66.67 156.32 65.33 156.88 63.98 157.43 C 62.63 156.87 61.27 156.30 59.92 155.73 C 60.32 154.64 60.75 153.56 61.25 152.51 Z" />
<path fill="#686161" opacity="1.00" d=" M 35.56 159.02 C 39.60 157.35 43.58 159.31 46.70 161.89 C 48.34 164.94 49.62 168.16 50.92 171.37 C 44.44 173.17 35.58 172.20 32.44 165.40 C 31.07 162.97 33.36 160.91 34.76 159.19 L 35.56 159.02 Z" />
<path fill="#686161" opacity="1.00" d=" M 122.64 161.45 C 126.00 160.26 129.30 162.27 132.17 163.83 C 134.90 166.97 132.48 171.89 129.03 173.30 C 123.93 174.42 118.48 175.26 113.37 173.79 C 111.18 173.35 110.02 170.47 111.60 168.77 C 114.31 165.19 118.45 162.88 122.64 161.45 Z" />
</g>
<g id="#84817aff">
<path fill="#84817a" opacity="1.00" d=" M 103.50 102.16 C 109.68 101.71 116.73 102.16 121.32 97.16 C 123.19 99.94 125.25 102.77 125.84 106.15 C 126.58 110.46 125.57 114.78 125.27 119.08 C 124.44 132.26 126.15 145.40 126.28 158.57 C 128.28 160.28 130.26 162.02 132.17 163.83 C 129.30 162.27 126.00 160.26 122.64 161.45 C 118.45 162.88 114.31 165.19 111.60 168.77 C 110.02 170.47 111.18 173.35 113.37 173.79 C 118.48 175.26 123.93 174.42 129.03 173.30 C 128.73 179.96 126.85 187.03 121.66 191.58 C 120.48 192.84 118.63 192.63 117.07 192.76 C 97.38 192.75 77.69 192.82 58.00 192.72 C 50.97 192.63 43.91 193.12 36.91 192.26 C 60.19 192.36 83.48 192.46 106.76 192.12 C 104.97 190.63 101.49 190.01 101.23 187.40 C 103.01 184.71 106.17 182.98 107.38 179.89 C 108.24 174.52 104.63 169.92 101.78 165.76 C 105.49 166.28 110.44 168.92 113.27 165.23 C 116.23 161.95 116.09 157.26 116.46 153.15 C 115.63 153.11 113.98 153.04 113.15 153.01 C 113.85 151.76 114.52 150.51 115.20 149.26 C 116.93 152.98 118.25 156.91 120.50 160.38 C 121.77 158.09 123.52 155.82 123.46 153.07 C 123.44 147.69 122.54 142.35 122.56 136.97 C 122.46 127.42 122.68 117.80 120.83 108.37 C 120.28 108.32 119.19 108.22 118.65 108.17 C 118.38 110.23 118.10 112.29 117.82 114.35 C 111.02 116.76 104.68 120.74 97.23 120.82 C 98.38 124.29 99.62 127.96 102.35 130.53 C 104.39 132.44 106.67 134.07 108.79 135.89 C 104.20 137.72 99.82 140.50 97.61 145.10 C 92.81 141.74 88.04 137.65 81.99 137.00 C 76.70 136.46 71.39 135.66 66.07 135.82 C 60.56 136.47 55.38 138.66 50.02 139.95 C 47.72 140.29 46.73 142.74 46.63 144.80 C 46.45 150.50 47.21 156.20 46.70 161.89 C 43.58 159.31 39.60 157.35 35.56 159.02 C 35.58 158.55 35.64 157.61 35.67 157.14 C 36.36 156.99 37.76 156.68 38.45 156.53 C 39.08 149.81 39.32 142.95 37.60 136.36 C 35.87 129.67 34.67 122.57 36.69 115.79 C 35.68 125.75 40.77 134.78 44.91 143.44 C 46.64 138.23 48.56 133.06 51.31 128.29 C 53.40 124.86 53.46 120.70 55.14 117.11 C 57.26 114.49 60.80 113.83 63.89 113.01 C 68.27 112.09 72.55 110.75 76.54 108.70 C 69.43 106.33 61.85 106.94 54.52 107.60 C 61.09 103.11 69.42 104.94 76.81 103.26 C 77.23 102.17 77.67 101.10 78.12 100.03 L 78.48 99.23 C 78.72 98.93 79.20 98.34 79.43 98.05 C 80.31 100.98 80.76 104.02 81.19 107.05 C 88.94 107.26 96.56 105.62 103.50 102.16 M 96.80 106.73 C 94.94 107.39 93.51 108.76 92.11 110.08 C 98.42 110.48 104.63 109.16 110.81 108.10 C 113.31 107.72 115.57 106.56 117.69 105.24 C 110.74 104.03 103.49 104.47 96.80 106.73 Z" />
<path fill="#84817a" opacity="1.00" d=" M 58.93 158.44 C 59.26 157.54 59.59 156.63 59.92 155.73 C 61.27 156.30 62.63 156.87 63.98 157.43 C 63.88 158.17 63.68 159.65 63.57 160.38 C 62.04 159.70 60.50 159.04 58.93 158.44 Z" />
</g>
<g id="#dbd9daff">
<path fill="#dbd9da" opacity="1.00" d=" M 46.00 100.98 C 54.60 99.91 63.26 98.74 71.94 98.75 C 74.12 98.86 76.30 99.04 78.48 99.23 L 78.12 100.03 C 71.29 104.70 62.63 102.93 54.91 104.01 C 50.33 104.51 47.37 108.82 42.85 109.56 C 40.45 110.51 36.81 109.95 35.60 112.74 C 33.22 118.22 34.04 124.38 34.73 130.13 C 36.01 139.07 35.97 148.14 35.67 157.14 C 35.64 157.61 35.58 158.55 35.56 159.02 L 34.76 159.19 C 33.85 159.35 32.94 159.49 32.02 159.61 C 33.34 152.84 32.52 145.88 32.64 139.03 C 32.60 129.09 29.22 118.70 32.97 109.07 C 35.06 103.78 40.73 101.54 46.00 100.98 Z" />
<path fill="#dbd9da" opacity="1.00" d=" M 97.61 145.10 C 99.82 140.50 104.20 137.72 108.79 135.89 C 111.22 137.90 113.64 140.54 113.30 143.95 C 113.69 150.14 110.46 155.70 106.23 159.95 C 100.56 160.87 94.79 160.22 89.42 158.20 C 90.88 156.46 92.40 154.77 93.74 152.94 L 93.46 153.77 C 93.29 155.83 93.31 158.91 96.00 159.22 C 98.21 158.77 100.10 157.49 102.05 156.42 C 101.28 152.88 99.03 150.18 95.43 149.41 C 96.13 147.96 96.83 146.51 97.61 145.10 Z" />
<path fill="#dbd9da" opacity="1.00" d=" M 46.63 144.80 C 46.73 142.74 47.72 140.29 50.02 139.95 C 52.78 140.10 55.95 139.97 58.16 141.92 C 60.56 144.18 61.94 147.24 63.50 150.08 C 63.21 150.39 62.61 151.00 62.32 151.31 C 62.05 151.61 61.52 152.21 61.25 152.51 C 60.75 153.56 60.32 154.64 59.92 155.73 C 59.59 156.63 59.26 157.54 58.93 158.44 C 60.50 159.04 62.04 159.70 63.57 160.38 C 63.68 159.65 63.88 158.17 63.98 157.43 C 65.33 156.88 66.67 156.32 68.00 155.76 C 68.33 157.76 68.93 160.47 66.73 161.66 C 62.84 164.03 56.54 164.47 53.66 160.32 C 50.36 155.66 48.30 150.23 46.63 144.80 Z" />
</g>
<g id="#97a197ff">
<path fill="#97a197" opacity="1.00" d=" M 54.91 104.01 C 62.63 102.93 71.29 104.70 78.12 100.03 C 77.67 101.10 77.23 102.17 76.81 103.26 C 69.42 104.94 61.09 103.11 54.52 107.60 C 49.39 110.17 43.66 110.99 38.01 111.36 C 37.53 112.83 37.05 114.29 36.69 115.79 C 34.67 122.57 35.87 129.67 37.60 136.36 C 39.32 142.95 39.08 149.81 38.45 156.53 C 37.76 156.68 36.36 156.99 35.67 157.14 C 35.97 148.14 36.01 139.07 34.73 130.13 C 34.04 124.38 33.22 118.22 35.60 112.74 C 36.81 109.95 40.45 110.51 42.85 109.56 C 47.37 108.82 50.33 104.51 54.91 104.01 Z" />
<path fill="#97a197" opacity="1.00" d=" M 96.80 106.73 C 103.49 104.47 110.74 104.03 117.69 105.24 C 115.57 106.56 113.31 107.72 110.81 108.10 C 104.63 109.16 98.42 110.48 92.11 110.08 C 93.51 108.76 94.94 107.39 96.80 106.73 Z" />
<path fill="#97a197" opacity="1.00" d=" M 50.02 139.95 C 55.38 138.66 60.56 136.47 66.07 135.82 C 71.39 135.66 76.70 136.46 81.99 137.00 C 88.04 137.65 92.81 141.74 97.61 145.10 C 96.83 146.51 96.13 147.96 95.43 149.41 C 94.86 150.58 94.30 151.76 93.74 152.94 C 92.40 154.77 90.88 156.46 89.42 158.20 C 94.79 160.22 100.56 160.87 106.23 159.95 C 106.66 160.60 107.09 161.25 107.52 161.91 C 109.48 159.00 111.42 156.06 113.15 153.01 C 113.98 153.04 115.63 153.11 116.46 153.15 C 116.09 157.26 116.23 161.95 113.27 165.23 C 110.44 168.92 105.49 166.28 101.78 165.76 C 104.63 169.92 108.24 174.52 107.38 179.89 C 106.17 182.98 103.01 184.71 101.23 187.40 C 101.49 190.01 104.97 190.63 106.76 192.12 C 83.48 192.46 60.19 192.36 36.91 192.26 C 32.85 189.34 29.61 184.82 29.14 179.74 C 28.25 172.98 30.78 166.45 31.03 159.74 L 32.02 159.61 C 32.94 159.49 33.85 159.35 34.76 159.19 C 33.36 160.91 31.07 162.97 32.44 165.40 C 35.58 172.20 44.44 173.17 50.92 171.37 C 49.62 168.16 48.34 164.94 46.70 161.89 C 47.21 156.20 46.45 150.50 46.63 144.80 C 48.30 150.23 50.36 155.66 53.66 160.32 C 56.54 164.47 62.84 164.03 66.73 161.66 C 68.93 160.47 68.33 157.76 68.00 155.76 C 66.17 154.19 64.25 152.74 62.32 151.31 C 62.61 151.00 63.21 150.39 63.50 150.08 C 61.94 147.24 60.56 144.18 58.16 141.92 C 55.95 139.97 52.78 140.10 50.02 139.95 Z" />
<path fill="#97a197" opacity="1.00" d=" M 96.00 159.22 C 93.31 158.91 93.29 155.83 93.46 153.77 C 96.26 154.82 99.15 155.66 102.05 156.42 C 100.10 157.49 98.21 158.77 96.00 159.22 Z" />
</g>
</svg>
