<?xml version="1.0" encoding="UTF-8" ?>
<!DOCTYPE svg PUBLIC "-//W3C//DTD SVG 1.1//EN" "http://www.w3.org/Graphics/SVG/1.1/DTD/svg11.dtd">
<svg width="155pt" height="210pt" viewBox="0 0 155 210" version="1.1" xmlns="http://www.w3.org/2000/svg">
<g id="#26252787">
<path fill="#262527" opacity="0.53" d=" M 70.63 62.50 C 74.72 61.82 78.87 61.90 82.99 62.10 L 83.02 63.29 C 78.90 63.21 74.61 63.92 70.63 62.50 Z" />
</g>
<g id="#8f938eff">
<path fill="#8f938e" opacity="1.00" d=" M 57.94 68.10 C 62.67 65.89 67.61 63.44 72.97 63.53 C 77.99 63.73 83.03 63.08 88.04 63.68 C 96.14 64.72 104.05 68.83 108.44 75.91 C 106.73 77.98 105.03 80.06 103.32 82.13 C 105.54 85.27 109.07 86.61 112.67 87.47 C 115.01 87.85 116.05 90.11 117.30 91.83 C 115.99 92.85 114.79 94.03 113.31 94.78 C 110.56 95.52 107.64 95.10 104.90 95.88 C 102.97 98.06 101.66 100.69 100.23 103.21 C 96.11 100.94 92.03 98.59 87.98 96.20 C 87.47 97.04 86.95 97.88 86.41 98.71 C 87.78 101.55 89.64 104.42 89.52 107.70 C 89.39 110.82 88.60 113.86 87.96 116.90 C 86.88 114.98 85.81 113.06 84.74 111.13 C 83.94 111.55 83.15 111.96 82.35 112.37 C 82.50 114.96 82.69 117.55 82.90 120.14 C 81.73 120.07 80.55 119.99 79.38 119.89 C 78.96 117.45 78.51 115.02 78.14 112.58 C 77.63 109.21 77.42 105.80 76.89 102.43 C 80.48 99.37 83.52 95.65 85.20 91.20 C 77.54 90.28 69.78 89.77 62.07 90.16 C 59.08 89.86 56.77 93.53 59.11 95.78 C 63.41 99.52 70.96 97.69 73.83 103.44 C 74.26 101.87 74.71 100.31 75.13 98.75 C 74.48 105.48 73.76 112.23 72.06 118.80 C 70.41 119.24 68.75 119.62 67.08 120.01 C 66.36 113.87 66.37 107.65 65.30 101.55 C 62.86 107.48 64.14 114.03 63.68 120.26 C 60.91 120.50 57.96 121.11 55.33 119.86 C 54.27 117.36 53.95 114.63 53.53 111.97 C 52.97 114.69 52.35 117.40 51.71 120.11 C 49.55 119.71 47.38 119.33 45.22 118.94 C 45.19 113.52 45.27 108.11 45.41 102.69 C 44.19 102.94 42.98 103.20 41.76 103.47 C 40.40 98.25 39.02 93.03 37.57 87.83 C 39.23 85.91 40.90 84.02 42.59 82.14 C 43.87 82.41 45.13 83.16 46.46 82.98 C 48.34 82.09 49.72 80.45 51.22 79.05 C 51.41 79.28 51.78 79.73 51.97 79.96 C 51.80 81.48 51.60 82.99 51.42 84.51 C 52.65 83.30 53.87 82.08 55.05 80.83 C 59.25 80.94 63.50 80.96 67.56 82.17 C 71.63 83.37 76.00 84.24 80.19 83.08 C 88.03 80.83 96.05 79.13 104.16 78.29 C 103.70 76.50 103.35 74.36 101.41 73.57 C 95.55 70.55 88.81 70.00 82.47 68.48 C 78.25 67.39 74.02 68.71 69.83 69.14 C 67.83 69.58 68.12 67.05 67.57 65.82 C 65.64 66.36 63.71 66.90 61.78 67.45 C 62.46 69.11 63.06 70.83 63.01 72.64 C 61.29 71.16 59.59 69.65 57.94 68.10 M 60.95 82.32 C 60.99 84.31 61.07 86.31 61.20 88.31 C 62.02 87.45 62.87 86.62 63.60 85.70 C 64.47 83.85 62.00 83.27 60.95 82.32 Z" />
</g>
<g id="#b7aea5ff">
<path fill="#b7aea5" opacity="1.00" d=" M 61.78 67.45 C 63.71 66.90 65.64 66.36 67.57 65.82 C 68.12 67.05 67.83 69.58 69.83 69.14 C 74.02 68.71 78.25 67.39 82.47 68.48 C 88.81 70.00 95.55 70.55 101.41 73.57 C 103.35 74.36 103.70 76.50 104.16 78.29 C 96.05 79.13 88.03 80.83 80.19 83.08 C 76.00 84.24 71.63 83.37 67.56 82.17 C 63.50 80.96 59.25 80.94 55.05 80.83 C 54.28 80.61 52.74 80.18 51.97 79.96 C 51.78 79.73 51.41 79.28 51.22 79.05 C 50.76 78.49 49.84 77.38 49.38 76.83 C 54.12 76.47 59.68 76.68 63.01 72.64 C 63.06 70.83 62.46 69.11 61.78 67.45 M 67.48 72.29 C 67.40 73.84 67.31 75.39 67.23 76.95 C 70.09 76.83 72.89 76.09 74.95 74.00 C 72.93 71.74 70.26 71.49 67.48 72.29 Z" />
<path fill="#b7aea5" opacity="1.00" d=" M 137.48 89.50 C 139.16 88.91 140.87 89.36 142.48 89.92 C 138.43 95.81 132.72 100.30 127.72 105.35 C 128.05 103.93 128.48 102.46 128.27 100.99 C 126.33 98.22 123.78 95.76 123.05 92.32 C 127.85 91.35 132.74 90.78 137.48 89.50 Z" />
<path fill="#b7aea5" opacity="1.00" d=" M 59.11 95.78 C 56.77 93.53 59.08 89.86 62.07 90.16 C 69.78 89.77 77.54 90.28 85.20 91.20 C 83.52 95.65 80.48 99.37 76.89 102.43 C 76.43 100.84 75.89 99.28 75.36 97.72 L 75.13 98.75 C 74.71 100.31 74.26 101.87 73.83 103.44 C 70.96 97.69 63.41 99.52 59.11 95.78 Z" />
<path fill="#b7aea5" opacity="1.00" d=" M 3.82 96.24 C 4.55 96.22 6.01 96.20 6.74 96.18 C 9.21 96.28 11.67 96.48 14.13 96.70 C 15.66 96.85 17.18 97.03 18.72 97.16 C 24.44 97.93 30.89 96.68 35.93 100.10 C 38.96 101.96 38.91 105.79 39.37 108.89 C 35.05 107.41 30.64 106.24 26.15 105.37 C 25.71 106.09 24.83 107.52 24.39 108.23 C 26.36 109.74 28.21 111.54 30.57 112.44 C 32.96 113.09 35.46 112.95 37.92 112.99 C 38.40 113.67 38.87 114.36 39.35 115.04 C 34.10 116.84 28.51 115.92 23.74 113.25 C 20.52 111.27 17.89 108.49 15.09 105.98 C 13.47 104.51 11.70 103.22 9.84 102.08 C 7.33 100.72 5.13 98.82 3.82 96.24 Z" />
<path fill="#b7aea5" opacity="1.00" d=" M 92.44 120.00 C 93.20 119.97 93.96 119.93 94.73 119.89 C 97.70 119.88 100.78 119.36 103.68 120.20 C 105.95 122.36 105.52 125.60 103.44 127.70 C 100.41 126.53 97.18 126.13 93.97 125.86 C 92.56 125.03 91.16 124.20 89.75 123.37 C 90.65 122.25 91.54 121.13 92.44 120.00 Z" />
<path fill="#b7aea5" opacity="1.00" d=" M 63.89 130.63 C 64.97 129.93 66.06 129.23 67.14 128.54 C 69.39 129.83 71.60 131.17 73.86 132.42 C 80.57 136.52 88.59 136.91 96.21 137.56 C 91.71 138.30 87.23 139.19 82.73 139.90 C 80.96 140.10 78.99 140.53 77.39 139.49 C 72.79 136.70 68.30 133.70 63.89 130.63 Z" />
<path fill="#b7aea5" opacity="1.00" d=" M 35.53 131.99 C 37.21 134.12 38.12 136.68 38.76 139.28 C 39.46 142.30 41.53 144.66 43.36 147.05 C 40.65 147.93 37.89 148.65 35.04 148.89 C 37.09 143.79 34.51 138.70 33.94 133.62 C 34.33 133.21 35.13 132.40 35.53 131.99 Z" />
<path fill="#b7aea5" opacity="1.00" d=" M 81.49 142.28 C 87.69 140.96 94.09 141.46 100.32 140.36 C 100.20 140.68 99.95 141.31 99.82 141.62 C 97.57 143.86 95.40 146.23 92.72 147.97 C 90.05 148.44 87.34 147.82 84.74 147.25 C 84.18 146.98 83.08 146.44 82.53 146.16 C 82.18 144.87 81.83 143.58 81.49 142.28 Z" />
<path fill="#b7aea5" opacity="1.00" d=" M 62.28 157.56 C 65.95 156.39 69.94 154.92 73.50 157.33 C 73.34 157.69 73.01 158.41 72.84 158.77 C 72.46 159.70 72.08 160.63 71.72 161.57 C 69.35 161.08 66.98 160.67 64.60 160.33 C 63.83 159.40 63.05 158.48 62.28 157.56 Z" />
<path fill="#b7aea5" opacity="1.00" d=" M 43.57 161.43 C 44.87 159.18 46.73 157.37 48.56 155.57 C 49.05 156.03 50.02 156.96 50.51 157.42 C 49.81 159.03 49.30 160.75 48.29 162.20 C 47.13 163.29 45.42 163.44 43.99 164.02 C 43.88 163.37 43.67 162.07 43.57 161.43 Z" />
</g>
<g id="#928677ff">
<path fill="#928677" opacity="1.00" d=" M 49.38 76.83 C 50.77 72.72 54.33 70.14 57.94 68.10 C 59.59 69.65 61.29 71.16 63.01 72.64 C 59.68 76.68 54.12 76.47 49.38 76.83 Z" />
<path fill="#928677" opacity="1.00" d=" M 67.48 72.29 C 70.26 71.49 72.93 71.74 74.95 74.00 C 72.89 76.09 70.09 76.83 67.23 76.95 C 67.31 75.39 67.40 73.84 67.48 72.29 Z" />
<path fill="#928677" opacity="1.00" d=" M 112.69 107.84 C 117.33 107.89 121.98 107.84 126.63 107.82 C 125.20 110.06 124.16 112.52 122.72 114.75 C 120.52 116.28 117.79 116.91 115.70 118.61 C 113.97 122.66 112.08 126.83 108.10 129.18 C 106.66 130.36 105.25 131.59 103.94 132.92 C 102.18 134.77 101.50 137.31 100.60 139.63 L 100.32 140.36 C 94.09 141.46 87.69 140.96 81.49 142.28 C 81.83 143.58 82.18 144.87 82.53 146.16 C 82.18 147.27 81.84 148.38 81.51 149.50 C 78.69 149.81 75.88 150.16 73.06 150.50 C 73.46 148.44 73.84 146.39 74.20 144.33 C 76.29 144.70 78.38 145.07 80.48 145.39 C 76.26 140.59 70.24 138.15 64.64 135.40 C 59.53 132.90 54.06 131.28 48.74 129.31 C 44.28 127.53 43.08 122.63 41.55 118.60 C 44.26 120.08 46.80 121.87 49.65 123.08 C 52.95 124.30 56.52 124.31 59.94 125.00 C 62.43 125.98 64.81 127.23 67.14 128.54 C 66.06 129.23 64.97 129.93 63.89 130.63 C 68.30 133.70 72.79 136.70 77.39 139.49 C 78.99 140.53 80.96 140.10 82.73 139.90 C 87.23 139.19 91.71 138.30 96.21 137.56 C 88.59 136.91 80.57 136.52 73.86 132.42 C 74.53 131.60 75.20 130.78 75.88 129.96 C 73.47 129.03 71.09 128.02 68.76 126.90 C 70.98 124.94 72.97 122.34 75.93 121.51 C 78.15 121.49 79.34 123.85 80.91 125.10 C 84.93 129.96 91.92 129.20 97.51 128.50 C 96.34 127.61 95.17 126.71 93.97 125.86 C 97.18 126.13 100.41 126.53 103.44 127.70 C 102.45 128.80 101.41 129.87 100.38 130.94 C 98.25 130.78 95.89 130.01 93.87 130.98 C 92.48 132.43 92.37 134.66 91.66 136.47 C 94.29 136.19 97.20 136.61 99.58 135.25 C 103.50 131.37 106.75 126.88 109.98 122.43 C 109.22 122.23 107.69 121.82 106.93 121.62 C 108.55 120.50 110.17 119.38 111.78 118.26 C 109.76 118.02 107.75 117.78 105.72 117.64 C 108.24 117.24 110.73 116.71 113.22 116.19 C 113.02 113.41 112.84 110.62 112.69 107.84 Z" />
<path fill="#928677" opacity="1.00" d=" M 42.00 174.41 C 41.77 170.04 42.02 165.56 43.57 161.43 C 43.67 162.07 43.88 163.37 43.99 164.02 C 44.03 167.29 44.10 170.55 44.35 173.81 C 45.19 172.03 46.00 170.24 46.82 168.45 C 47.38 168.35 48.51 168.16 49.08 168.07 C 49.01 170.47 49.10 172.92 48.53 175.28 C 47.40 176.09 46.11 176.64 44.85 177.22 C 44.89 179.28 44.90 181.34 44.65 183.39 C 43.76 180.40 42.73 177.45 42.00 174.41 Z" />
</g>
<g id="#828986ff">
<path fill="#828986" opacity="1.00" d=" M 108.44 75.91 C 111.01 78.24 113.91 80.16 116.56 82.38 C 118.02 83.94 119.40 85.58 120.70 87.28 C 121.78 88.80 122.47 90.55 123.05 92.32 C 123.78 95.76 126.33 98.22 128.27 100.99 C 128.48 102.46 128.05 103.93 127.72 105.35 C 127.38 106.19 127.02 107.01 126.63 107.82 C 121.98 107.84 117.33 107.89 112.69 107.84 C 112.84 110.62 113.02 113.41 113.22 116.19 C 110.73 116.71 108.24 117.24 105.72 117.64 C 102.13 117.61 98.54 117.73 94.96 117.96 C 94.80 114.20 94.61 110.45 94.26 106.71 C 93.10 111.04 92.38 115.79 94.73 119.89 C 93.96 119.93 93.20 119.97 92.44 120.00 C 89.26 120.06 86.08 120.20 82.90 120.14 C 82.69 117.55 82.50 114.96 82.35 112.37 C 83.15 111.96 83.94 111.55 84.74 111.13 C 85.81 113.06 86.88 114.98 87.96 116.90 C 88.60 113.86 89.39 110.82 89.52 107.70 C 89.64 104.42 87.78 101.55 86.41 98.71 C 86.95 97.88 87.47 97.04 87.98 96.20 C 92.03 98.59 96.11 100.94 100.23 103.21 C 101.66 100.69 102.97 98.06 104.90 95.88 C 107.64 95.10 110.56 95.52 113.31 94.78 C 114.79 94.03 115.99 92.85 117.30 91.83 C 116.05 90.11 115.01 87.85 112.67 87.47 C 109.07 86.61 105.54 85.27 103.32 82.13 C 105.03 80.06 106.73 77.98 108.44 75.91 Z" />
<path fill="#828986" opacity="1.00" d=" M 92.72 147.97 C 95.40 146.23 97.57 143.86 99.82 141.62 C 99.43 144.06 99.18 146.52 98.91 148.97 C 95.11 149.49 91.18 149.78 87.46 148.62 C 86.55 148.16 85.64 147.71 84.74 147.25 C 87.34 147.82 90.05 148.44 92.72 147.97 Z" />
<path fill="#828986" opacity="1.00" d=" M 73.50 157.33 C 74.89 155.31 77.82 154.35 80.18 155.15 C 83.19 155.93 86.26 156.54 89.37 156.73 C 89.42 158.39 89.47 160.04 89.52 161.70 C 83.94 160.82 78.45 159.46 72.84 158.77 C 73.01 158.41 73.34 157.69 73.50 157.33 Z" />
</g>
<g id="#766b5bff">
<path fill="#766b5b" opacity="1.00" d=" M 44.98 78.09 C 46.39 77.48 47.90 77.20 49.38 76.83 C 49.84 77.38 50.76 78.49 51.22 79.05 C 49.72 80.45 48.34 82.09 46.46 82.98 C 45.13 83.16 43.87 82.41 42.59 82.14 C 43.38 80.80 43.76 79.11 44.98 78.09 Z" />
<path fill="#766b5b" opacity="1.00" d=" M 51.97 79.96 C 52.74 80.18 54.28 80.61 55.05 80.83 C 53.87 82.08 52.65 83.30 51.42 84.51 C 51.60 82.99 51.80 81.48 51.97 79.96 Z" />
<path fill="#766b5b" opacity="1.00" d=" M 60.95 82.32 C 62.00 83.27 64.47 83.85 63.60 85.70 C 62.87 86.62 62.02 87.45 61.20 88.31 C 61.07 86.31 60.99 84.31 60.95 82.32 Z" />
<path fill="#766b5b" opacity="1.00" d=" M 31.30 90.07 C 33.39 89.33 35.48 88.58 37.57 87.83 C 39.02 93.03 40.40 98.25 41.76 103.47 C 42.98 103.20 44.19 102.94 45.41 102.69 C 45.27 108.11 45.19 113.52 45.22 118.94 C 47.38 119.33 49.55 119.71 51.71 120.11 C 52.35 117.40 52.97 114.69 53.53 111.97 C 53.95 114.63 54.27 117.36 55.33 119.86 C 57.96 121.11 60.91 120.50 63.68 120.26 C 64.14 114.03 62.86 107.48 65.30 101.55 C 66.37 107.65 66.36 113.87 67.08 120.01 C 68.75 119.62 70.41 119.24 72.06 118.80 C 73.06 118.51 74.05 118.22 75.04 117.93 C 75.21 116.60 75.38 115.27 75.56 113.94 C 76.42 113.49 77.28 113.03 78.14 112.58 C 78.51 115.02 78.96 117.45 79.38 119.89 C 80.55 119.99 81.73 120.07 82.90 120.14 C 86.08 120.20 89.26 120.06 92.44 120.00 C 91.54 121.13 90.65 122.25 89.75 123.37 C 91.16 124.20 92.56 125.03 93.97 125.86 C 95.17 126.71 96.34 127.61 97.51 128.50 C 91.92 129.20 84.93 129.96 80.91 125.10 C 79.34 123.85 78.15 121.49 75.93 121.51 C 72.97 122.34 70.98 124.94 68.76 126.90 C 65.68 125.38 62.56 123.96 59.38 122.65 C 59.52 123.24 59.80 124.41 59.94 125.00 C 56.52 124.31 52.95 124.30 49.65 123.08 C 46.80 121.87 44.26 120.08 41.55 118.60 C 40.89 117.37 40.13 116.19 39.35 115.04 C 38.87 114.36 38.40 113.67 37.92 112.99 C 35.46 112.95 32.96 113.09 30.57 112.44 C 28.21 111.54 26.36 109.74 24.39 108.23 C 24.83 107.52 25.71 106.09 26.15 105.37 C 30.64 106.24 35.05 107.41 39.37 108.89 C 38.91 105.79 38.96 101.96 35.93 100.10 C 30.89 96.68 24.44 97.93 18.72 97.16 C 22.84 97.14 26.96 97.11 31.09 97.10 C 31.16 94.75 31.24 92.41 31.30 90.07 Z" />
<path fill="#766b5b" opacity="1.00" d=" M 93.87 130.98 C 95.89 130.01 98.25 130.78 100.38 130.94 C 100.13 132.38 99.89 133.82 99.58 135.25 C 97.20 136.61 94.29 136.19 91.66 136.47 C 92.37 134.66 92.48 132.43 93.87 130.98 Z" />
<path fill="#766b5b" opacity="1.00" d=" M 35.53 131.99 C 38.46 132.48 41.18 133.75 43.77 135.16 C 43.85 139.50 43.79 143.84 43.39 148.16 C 42.23 148.59 41.07 149.02 39.92 149.46 C 39.91 150.39 39.89 151.32 39.84 152.25 C 39.32 154.66 37.98 158.14 35.00 157.97 C 32.11 158.22 31.15 154.71 29.55 152.92 C 31.21 151.41 32.50 148.86 35.04 148.89 C 37.89 148.65 40.65 147.93 43.36 147.05 C 41.53 144.66 39.46 142.30 38.76 139.28 C 38.12 136.68 37.21 134.12 35.53 131.99 Z" />
<path fill="#766b5b" opacity="1.00" d=" M 48.52 143.50 C 50.39 143.87 52.29 144.14 54.09 144.76 C 55.01 148.73 55.44 152.87 57.34 156.54 C 60.31 162.60 60.46 169.46 60.96 176.05 C 62.45 176.02 63.93 175.99 65.42 175.97 C 64.97 177.21 64.51 178.45 64.05 179.70 C 64.44 179.73 65.23 179.81 65.62 179.84 C 66.26 180.09 67.54 180.60 68.18 180.85 C 66.27 181.42 64.40 182.09 62.54 182.82 C 61.65 181.36 60.77 179.89 59.89 178.42 C 57.25 179.19 54.43 180.00 52.82 182.44 C 51.84 180.55 50.66 178.62 50.79 176.41 C 50.90 171.70 50.81 166.97 49.94 162.33 C 52.14 161.55 54.33 160.74 56.50 159.91 C 54.48 159.13 52.49 158.29 50.51 157.42 C 50.02 156.96 49.05 156.03 48.56 155.57 C 49.71 154.39 50.79 153.16 51.81 151.88 C 52.46 151.07 53.11 150.25 53.75 149.44 C 52.10 147.68 50.42 145.95 48.81 144.16 L 48.52 143.50 Z" />
<path fill="#766b5b" opacity="1.00" d=" M 84.73 164.77 C 85.57 163.43 87.28 163.53 88.63 163.12 C 88.95 166.44 88.26 169.69 86.72 172.63 C 86.09 172.66 84.82 172.70 84.19 172.72 C 83.87 170.11 82.54 166.95 84.73 164.77 Z" />
<path fill="#766b5b" opacity="1.00" d=" M 68.22 165.24 C 69.01 163.84 70.76 164.08 72.05 163.51 C 71.86 166.58 71.42 169.63 70.80 172.65 C 70.11 172.67 68.73 172.72 68.04 172.74 C 67.64 170.30 66.27 167.38 68.22 165.24 Z" />
<path fill="#766b5b" opacity="1.00" d=" M 95.40 165.57 C 97.57 164.78 99.75 164.01 101.94 163.24 C 103.62 167.95 102.98 172.99 102.90 177.88 L 101.93 177.96 C 99.97 178.12 98.01 178.29 96.07 178.59 C 94.49 174.40 94.89 169.92 95.40 165.57 Z" />
<path fill="#766b5b" opacity="1.00" d=" M 98.98 186.92 C 99.61 184.81 100.24 182.70 100.87 180.59 C 100.94 182.39 101.01 184.18 101.08 185.98 C 104.68 185.99 108.28 186.03 111.88 186.07 L 111.90 187.04 C 107.60 186.75 103.29 186.91 98.98 186.92 Z" />
</g>
<g id="#3b3639ff">
<path fill="#3b3639" opacity="1.00" d=" M 116.56 82.38 C 119.44 82.35 120.93 84.58 120.70 87.28 C 119.40 85.58 118.02 83.94 116.56 82.38 Z" />
<path fill="#3b3639" opacity="1.00" d=" M 6.74 96.18 C 9.15 94.79 11.76 95.82 14.13 96.70 C 11.67 96.48 9.21 96.28 6.74 96.18 Z" />
<path fill="#3b3639" opacity="1.00" d=" M 75.36 97.72 C 75.89 99.28 76.43 100.84 76.89 102.43 C 77.42 105.80 77.63 109.21 78.14 112.58 C 77.28 113.03 76.42 113.49 75.56 113.94 C 75.38 115.27 75.21 116.60 75.04 117.93 C 74.05 118.22 73.06 118.51 72.06 118.80 C 73.76 112.23 74.48 105.48 75.13 98.75 L 75.36 97.72 Z" />
<path fill="#3b3639" opacity="1.00" d=" M 9.84 102.08 C 11.70 103.22 13.47 104.51 15.09 105.98 C 12.63 105.76 10.89 104.23 9.84 102.08 Z" />
<path fill="#3b3639" opacity="1.00" d=" M 94.73 119.89 C 92.38 115.79 93.10 111.04 94.26 106.71 C 94.61 110.45 94.80 114.20 94.96 117.96 C 98.54 117.73 102.13 117.61 105.72 117.64 C 107.75 117.78 109.76 118.02 111.78 118.26 C 110.17 119.38 108.55 120.50 106.93 121.62 C 107.69 121.82 109.22 122.23 109.98 122.43 C 106.75 126.88 103.50 131.37 99.58 135.25 C 99.89 133.82 100.13 132.38 100.38 130.94 C 101.41 129.87 102.45 128.80 103.44 127.70 C 105.52 125.60 105.95 122.36 103.68 120.20 C 100.78 119.36 97.70 119.88 94.73 119.89 Z" />
<path fill="#3b3639" opacity="1.00" d=" M 23.74 113.25 C 28.51 115.92 34.10 116.84 39.35 115.04 C 40.13 116.19 40.89 117.37 41.55 118.60 C 43.08 122.63 44.28 127.53 48.74 129.31 C 45.88 133.60 46.68 138.98 48.52 143.50 L 48.81 144.16 C 47.64 147.29 49.93 149.70 51.81 151.88 C 50.79 153.16 49.71 154.39 48.56 155.57 C 46.73 157.37 44.87 159.18 43.57 161.43 C 42.02 165.56 41.77 170.04 42.00 174.41 L 42.02 175.29 C 40.88 171.44 40.10 167.42 40.33 163.39 C 41.26 161.45 43.79 159.85 42.89 157.42 C 42.52 155.38 41.20 153.74 39.84 152.25 C 39.89 151.32 39.91 150.39 39.92 149.46 C 41.07 149.02 42.23 148.59 43.39 148.16 C 43.79 143.84 43.85 139.50 43.77 135.16 C 41.18 133.75 38.46 132.48 35.53 131.99 C 35.13 132.40 34.33 133.21 33.94 133.62 C 33.90 133.38 33.84 132.89 33.81 132.65 C 35.69 130.31 35.41 127.30 35.39 124.48 C 36.44 123.51 37.54 122.58 38.47 121.50 C 38.78 120.21 38.33 118.89 38.22 117.60 C 33.07 117.90 27.30 117.53 23.74 113.25 Z" />
<path fill="#3b3639" opacity="1.00" d=" M 59.38 122.65 C 62.56 123.96 65.68 125.38 68.76 126.90 C 71.09 128.02 73.47 129.03 75.88 129.96 C 75.20 130.78 74.53 131.60 73.86 132.42 C 71.60 131.17 69.39 129.83 67.14 128.54 C 64.81 127.23 62.43 125.98 59.94 125.00 C 59.80 124.41 59.52 123.24 59.38 122.65 Z" />
<path fill="#3b3639" opacity="1.00" d=" M 103.94 132.92 C 105.25 131.59 106.66 130.36 108.10 129.18 C 107.54 130.29 106.99 131.40 106.44 132.52 C 105.82 132.62 104.57 132.82 103.94 132.92 Z" />
<path fill="#3b3639" opacity="1.00" d=" M 100.32 140.36 L 100.60 139.63 C 100.85 143.61 99.66 147.76 101.23 151.58 C 102.55 155.33 101.97 159.35 101.94 163.24 C 99.75 164.01 97.57 164.78 95.40 165.57 C 95.60 163.00 95.63 160.42 95.66 157.84 C 94.53 157.80 93.39 157.76 92.25 157.73 C 91.78 154.19 91.63 149.75 87.46 148.62 C 91.18 149.78 95.11 149.49 98.91 148.97 C 99.18 146.52 99.43 144.06 99.82 141.62 C 99.95 141.31 100.20 140.68 100.32 140.36 Z" />
<path fill="#3b3639" opacity="1.00" d=" M 48.29 162.20 C 49.30 160.75 49.81 159.03 50.51 157.42 C 52.49 158.29 54.48 159.13 56.50 159.91 C 54.33 160.74 52.14 161.55 49.94 162.33 C 50.81 166.97 50.90 171.70 50.79 176.41 C 50.66 178.62 51.84 180.55 52.82 182.44 C 51.24 184.43 49.27 186.11 46.82 186.92 C 46.24 186.37 45.08 185.26 44.49 184.71 C 44.53 184.38 44.61 183.72 44.65 183.39 C 44.90 181.34 44.89 179.28 44.85 177.22 C 46.11 176.64 47.40 176.09 48.53 175.28 C 49.10 172.92 49.01 170.47 49.08 168.07 C 48.51 168.16 47.38 168.35 46.82 168.45 C 46.00 170.24 45.19 172.03 44.35 173.81 C 44.10 170.55 44.03 167.29 43.99 164.02 C 45.42 163.44 47.13 163.29 48.29 162.20 Z" />
<path fill="#3b3639" opacity="1.00" d=" M 96.07 178.59 C 98.01 178.29 99.97 178.12 101.93 177.96 C 101.94 178.43 101.98 179.36 102.00 179.82 L 101.14 179.69 C 100.14 179.53 99.15 179.38 98.16 179.23 C 97.35 181.43 96.47 183.64 95.04 185.52 C 92.91 185.04 92.26 182.75 91.14 181.16 C 92.77 180.28 94.39 179.37 96.07 178.59 Z" />
<path fill="#3b3639" opacity="1.00" d=" M 59.28 185.14 C 64.85 184.03 70.59 184.77 76.23 184.84 C 76.23 185.42 76.21 186.58 76.21 187.16 C 70.27 187.44 64.32 187.54 58.40 187.04 C 58.62 186.57 59.06 185.62 59.28 185.14 Z" />
</g>
<g id="#1d1a20ff">
<path fill="#1d1a20" opacity="1.00" d=" M 48.52 143.50 C 46.68 138.98 45.88 133.60 48.74 129.31 C 54.06 131.28 59.53 132.90 64.64 135.40 C 70.24 138.15 76.26 140.59 80.48 145.39 C 78.38 145.07 76.29 144.70 74.20 144.33 C 73.84 146.39 73.46 148.44 73.06 150.50 C 75.88 150.16 78.69 149.81 81.51 149.50 C 81.84 148.38 82.18 147.27 82.53 146.16 C 83.08 146.44 84.18 146.98 84.74 147.25 C 85.64 147.71 86.55 148.16 87.46 148.62 C 91.63 149.75 91.78 154.19 92.25 157.73 C 93.39 157.76 94.53 157.80 95.66 157.84 C 95.63 160.42 95.60 163.00 95.40 165.57 C 94.89 169.92 94.49 174.40 96.07 178.59 C 94.39 179.37 92.77 180.28 91.14 181.16 C 92.26 182.75 92.91 185.04 95.04 185.52 C 96.47 183.64 97.35 181.43 98.16 179.23 C 99.15 179.38 100.14 179.53 101.14 179.69 L 100.87 180.59 C 100.24 182.70 99.61 184.81 98.98 186.92 C 103.29 186.91 107.60 186.75 111.90 187.04 C 115.53 187.11 117.46 190.71 116.09 193.90 C 103.14 194.10 90.18 194.04 77.23 193.94 C 77.84 192.45 77.85 190.43 79.19 189.39 C 83.12 188.17 87.58 188.20 90.82 185.28 C 86.35 183.04 81.67 181.28 76.90 179.78 C 76.84 178.42 76.76 177.06 76.69 175.71 C 72.45 175.27 68.58 176.84 65.62 179.84 C 65.23 179.81 64.44 179.73 64.05 179.70 C 64.51 178.45 64.97 177.21 65.42 175.97 C 63.93 175.99 62.45 176.02 60.96 176.05 C 60.46 169.46 60.31 162.60 57.34 156.54 C 55.44 152.87 55.01 148.73 54.09 144.76 C 52.29 144.14 50.39 143.87 48.52 143.50 M 73.50 157.33 C 69.94 154.92 65.95 156.39 62.28 157.56 C 63.05 158.48 63.83 159.40 64.60 160.33 C 66.98 160.67 69.35 161.08 71.72 161.57 C 72.08 160.63 72.46 159.70 72.84 158.77 C 78.45 159.46 83.94 160.82 89.52 161.70 C 89.47 160.04 89.42 158.39 89.37 156.73 C 86.26 156.54 83.19 155.93 80.18 155.15 C 77.82 154.35 74.89 155.31 73.50 157.33 M 84.73 164.77 C 82.54 166.95 83.87 170.11 84.19 172.72 C 84.82 172.70 86.09 172.66 86.72 172.63 C 88.26 169.69 88.95 166.44 88.63 163.12 C 87.28 163.53 85.57 163.43 84.73 164.77 M 68.22 165.24 C 66.27 167.38 67.64 170.30 68.04 172.74 C 68.73 172.72 70.11 172.67 70.80 172.65 C 71.42 169.63 71.86 166.58 72.05 163.51 C 70.76 164.08 69.01 163.84 68.22 165.24 Z" />
<path fill="#1d1a20" opacity="1.00" d=" M 52.82 182.44 C 54.43 180.00 57.25 179.19 59.89 178.42 C 60.77 179.89 61.65 181.36 62.54 182.82 C 60.89 183.45 59.26 184.15 57.65 184.90 C 58.52 187.89 59.36 190.89 60.18 193.89 C 51.05 194.11 41.92 194.05 32.80 193.93 C 33.11 192.22 32.73 190.24 33.75 188.75 C 37.99 187.39 42.67 188.70 46.82 186.92 C 49.27 186.11 51.24 184.43 52.82 182.44 Z" />
</g>
<g id="#9f9d8fff">
<path fill="#9f9d8f" opacity="1.00" d=" M 51.81 151.88 C 49.93 149.70 47.64 147.29 48.81 144.16 C 50.42 145.95 52.10 147.68 53.75 149.44 C 53.11 150.25 52.46 151.07 51.81 151.88 Z" />
</g>
<g id="#26242cff">
<path fill="#26242c" opacity="1.00" d=" M 65.62 179.84 C 68.58 176.84 72.45 175.27 76.69 175.71 C 76.76 177.06 76.84 178.42 76.90 179.78 C 81.67 181.28 86.35 183.04 90.82 185.28 C 87.58 188.20 83.12 188.17 79.19 189.39 C 77.85 190.43 77.84 192.45 77.23 193.94 C 71.54 194.11 65.86 194.07 60.18 193.89 C 59.36 190.89 58.52 187.89 57.65 184.90 C 59.26 184.15 60.89 183.45 62.54 182.82 C 64.40 182.09 66.27 181.42 68.18 180.85 C 67.54 180.60 66.26 180.09 65.62 179.84 M 59.28 185.14 C 59.06 185.62 58.62 186.57 58.40 187.04 C 64.32 187.54 70.27 187.44 76.21 187.16 C 76.21 186.58 76.23 185.42 76.23 184.84 C 70.59 184.77 64.85 184.03 59.28 185.14 Z" />
</g>
</svg>
