<?xml version="1.0" encoding="UTF-8" ?>
<!DOCTYPE svg PUBLIC "-//W3C//DTD SVG 1.1//EN" "http://www.w3.org/Graphics/SVG/1.1/DTD/svg11.dtd">
<svg width="155pt" height="210pt" viewBox="0 0 155 210" version="1.1" xmlns="http://www.w3.org/2000/svg">
<g id="#c78c4bff">
<path fill="#c78c4b" opacity="1.00" d=" M 61.79 49.96 C 65.05 50.32 66.98 53.05 67.76 56.03 C 67.67 59.08 66.45 62.17 67.06 65.20 C 70.63 69.46 76.90 69.40 81.92 70.69 C 81.40 73.33 80.97 76.00 80.64 78.68 C 80.95 78.88 81.55 79.26 81.85 79.46 C 83.90 80.83 86.41 82.20 86.82 84.89 C 87.85 89.68 89.93 94.17 93.29 97.77 C 92.18 98.79 91.08 99.81 89.98 100.83 C 86.36 99.00 81.66 97.32 78.05 100.08 C 76.63 101.36 74.51 103.78 76.29 105.62 C 78.65 108.25 81.70 110.12 84.61 112.09 C 82.61 113.95 80.78 115.99 78.84 117.93 C 74.69 114.91 70.70 111.68 66.78 108.38 C 65.43 111.09 63.91 113.86 63.96 116.99 C 63.70 124.43 63.88 131.89 63.53 139.34 C 62.34 132.93 62.76 126.42 62.74 119.95 C 62.99 117.32 61.00 115.49 59.32 113.79 C 58.43 115.30 57.54 116.82 56.66 118.34 C 55.35 117.99 54.04 117.63 52.72 117.27 C 52.56 116.65 52.24 115.41 52.07 114.79 C 51.77 113.67 51.45 112.55 51.13 111.44 C 52.81 111.42 54.49 111.40 56.17 111.39 C 55.58 110.20 55.03 108.99 54.55 107.75 C 51.22 109.05 47.85 110.29 44.76 112.13 C 44.51 111.60 44.01 110.54 43.76 110.01 C 44.74 106.73 46.92 103.17 45.38 99.71 C 44.23 97.07 42.92 94.28 40.62 92.45 C 37.05 91.07 33.10 91.28 29.34 90.91 C 29.40 89.87 29.47 88.83 29.54 87.78 C 32.47 87.16 35.34 86.27 38.13 85.18 C 38.10 85.63 38.05 86.54 38.02 87.00 C 40.21 84.92 42.65 82.94 44.03 80.19 C 45.12 78.02 44.03 75.63 43.64 73.44 C 43.06 70.64 42.50 67.84 41.95 65.03 C 45.37 66.26 48.96 66.98 52.58 67.28 C 54.33 67.33 56.10 67.26 57.83 66.99 C 58.61 65.17 59.19 63.28 59.85 61.42 C 59.26 61.34 58.08 61.19 57.48 61.12 C 60.61 58.23 61.91 54.15 61.79 49.96 M 55.42 78.36 C 49.69 84.04 49.97 95.24 57.51 99.29 C 56.62 93.64 55.12 86.35 60.65 82.51 C 62.68 80.55 64.51 83.03 66.10 84.21 C 64.19 86.12 61.18 88.20 62.60 91.29 C 65.04 92.26 67.56 91.45 70.01 91.00 C 69.26 87.45 68.83 83.53 66.25 80.74 C 63.73 77.61 59.01 76.83 55.42 78.36 Z" />
<path fill="#c78c4b" opacity="1.00" d=" M 86.22 111.71 C 91.71 110.01 96.70 113.46 101.45 115.70 C 98.39 115.96 95.35 116.43 92.32 116.88 C 91.54 113.88 89.38 111.90 86.22 111.71 Z" />
<path fill="#c78c4b" opacity="1.00" d=" M 67.40 130.60 C 65.16 126.28 65.93 120.51 69.97 117.52 C 70.32 119.02 70.67 120.52 71.00 122.02 C 70.40 123.30 69.72 124.57 69.38 125.95 C 71.09 128.92 73.03 131.76 74.56 134.84 C 71.95 133.94 68.87 133.18 67.40 130.60 Z" />
<path fill="#c78c4b" opacity="1.00" d=" M 58.03 171.06 C 59.98 170.72 61.93 170.40 63.87 170.08 C 63.29 174.60 62.12 179.02 61.48 183.54 C 59.38 184.45 57.30 185.38 55.18 186.25 C 57.28 182.57 59.36 178.88 61.74 175.38 C 60.50 173.94 59.27 172.50 58.03 171.06 Z" />
</g>
<g id="#2c2935ff">
<path fill="#2c2935" opacity="1.00" d=" M 69.89 55.68 C 68.05 53.29 73.79 52.21 72.82 55.12 C 71.85 55.36 70.87 55.54 69.89 55.68 Z" />
<path fill="#2c2935" opacity="1.00" d=" M 40.14 64.78 C 44.59 64.07 49.10 64.59 53.26 66.35 L 52.58 67.28 C 48.96 66.98 45.37 66.26 41.95 65.03 C 42.50 67.84 43.06 70.64 43.64 73.44 C 43.38 73.83 42.86 74.59 42.60 74.98 C 41.79 71.58 40.93 68.19 40.14 64.78 Z" />
<path fill="#2c2935" opacity="1.00" d=" M 55.42 78.36 C 59.01 76.83 63.73 77.61 66.25 80.74 C 68.83 83.53 69.26 87.45 70.01 91.00 C 67.56 91.45 65.04 92.26 62.60 91.29 C 61.18 88.20 64.19 86.12 66.10 84.21 C 64.51 83.03 62.68 80.55 60.65 82.51 C 55.12 86.35 56.62 93.64 57.51 99.29 C 49.97 95.24 49.69 84.04 55.42 78.36 Z" />
<path fill="#2c2935" opacity="1.00" d=" M 22.97 92.54 C 25.23 91.06 27.75 89.87 29.54 87.78 C 29.47 88.83 29.40 89.87 29.34 90.91 C 33.10 91.28 37.05 91.07 40.62 92.45 C 42.92 94.28 44.23 97.07 45.38 99.71 C 46.92 103.17 44.74 106.73 43.76 110.01 C 44.01 110.54 44.51 111.60 44.76 112.13 C 47.85 110.29 51.22 109.05 54.55 107.75 C 55.03 108.99 55.58 110.20 56.17 111.39 C 54.49 111.40 52.81 111.42 51.13 111.44 C 51.45 112.55 51.77 113.67 52.07 114.79 C 49.73 114.48 47.28 114.55 45.06 113.66 C 42.72 112.20 40.96 110.03 39.08 108.05 C 39.72 108.15 41.01 108.36 41.66 108.46 C 40.89 106.40 40.12 104.36 39.31 102.32 C 40.33 101.02 41.34 99.73 42.36 98.43 C 40.69 96.55 39.41 93.83 36.65 93.43 C 32.17 92.39 27.53 92.63 22.97 92.54 Z" />
<path fill="#2c2935" opacity="1.00" d=" M 104.67 90.82 C 105.24 95.20 105.69 99.59 105.99 103.99 C 111.92 104.51 117.79 105.70 123.76 105.82 C 121.14 109.22 120.96 113.60 120.97 117.70 C 114.71 115.22 107.88 117.42 101.45 115.70 C 96.70 113.46 91.71 110.01 86.22 111.71 C 85.82 111.80 85.02 111.99 84.61 112.09 C 81.70 110.12 78.65 108.25 76.29 105.62 C 74.51 103.78 76.63 101.36 78.05 100.08 C 81.66 97.32 86.36 99.00 89.98 100.83 C 90.32 102.64 90.66 104.45 91.00 106.27 C 94.98 106.47 98.97 106.33 102.95 105.99 C 103.85 100.98 104.56 95.92 104.67 90.82 M 103.15 108.81 C 105.29 111.15 107.22 113.87 110.09 115.37 C 111.68 115.57 113.16 114.66 114.67 114.29 C 113.75 111.64 113.47 108.56 111.53 106.39 C 108.53 105.31 105.38 106.78 103.15 108.81 Z" />
<path fill="#2c2935" opacity="1.00" d=" M 63.96 116.99 C 63.91 113.86 65.43 111.09 66.78 108.38 C 70.70 111.68 74.69 114.91 78.84 117.93 C 76.66 120.00 73.80 121.07 71.00 122.02 C 70.67 120.52 70.32 119.02 69.97 117.52 C 65.93 120.51 65.16 126.28 67.40 130.60 C 68.87 133.18 71.95 133.94 74.56 134.84 C 86.02 138.47 98.12 140.33 110.15 139.14 C 107.11 139.56 104.04 139.78 100.97 139.95 C 101.45 146.84 103.45 153.47 104.98 160.17 C 105.64 163.17 107.46 166.00 107.09 169.17 C 106.61 173.84 106.34 178.54 106.46 183.24 C 104.67 184.14 102.89 185.07 101.13 186.02 C 102.27 186.93 103.31 188.38 104.97 188.20 C 109.40 188.41 114.02 187.21 118.32 188.67 C 120.85 189.68 119.91 192.83 120.34 194.94 C 96.56 195.30 72.78 195.20 49.00 195.22 C 43.58 195.33 38.16 195.35 32.77 194.85 C 32.76 192.43 33.13 189.76 35.56 188.57 C 40.55 187.12 45.83 188.07 50.94 187.72 C 52.38 187.30 53.79 186.80 55.18 186.25 C 57.30 185.38 59.38 184.45 61.48 183.54 C 62.12 179.02 63.29 174.60 63.87 170.08 C 63.37 166.79 62.25 163.43 63.08 160.10 C 64.05 156.21 64.97 152.30 65.53 148.33 C 63.36 148.21 61.19 148.09 59.02 147.99 C 62.30 147.17 65.51 146.09 68.66 144.87 C 65.04 144.14 61.50 142.93 57.77 142.86 C 59.80 142.60 61.82 142.32 63.85 142.03 C 63.77 141.36 63.61 140.01 63.53 139.34 C 63.88 131.89 63.70 124.43 63.96 116.99 M 71.16 160.06 C 73.36 160.72 75.62 161.41 77.96 161.12 C 82.14 160.70 86.73 160.99 90.34 158.45 C 83.91 158.18 77.43 158.60 71.16 160.06 M 97.71 167.59 C 99.37 167.71 101.03 167.85 102.70 167.98 C 103.05 167.41 103.74 166.28 104.09 165.71 C 101.59 165.38 98.98 164.88 97.71 167.59 M 72.99 176.26 C 73.41 176.49 74.26 176.95 74.68 177.18 C 72.31 177.98 69.92 178.71 67.62 179.70 C 66.15 182.14 66.88 185.15 66.75 187.85 C 72.59 187.94 78.58 188.64 84.26 186.84 C 84.12 186.21 83.84 184.96 83.70 184.33 C 85.36 184.27 85.71 181.18 83.94 181.03 L 84.17 180.51 C 84.07 179.75 83.89 178.22 83.80 177.46 C 82.56 177.61 81.32 177.76 80.08 177.91 C 79.98 177.32 79.77 176.16 79.67 175.57 C 78.77 176.01 77.87 176.44 76.97 176.87 C 76.72 174.82 76.46 172.76 76.20 170.71 C 74.92 172.43 73.77 174.25 72.99 176.26 M 92.73 174.74 C 95.24 174.97 98.26 173.77 100.39 175.61 C 102.69 177.65 104.04 180.48 105.55 183.10 C 105.80 179.48 105.93 175.87 105.90 172.25 C 102.29 172.39 98.64 172.18 95.04 172.63 C 93.79 172.63 93.41 173.95 92.73 174.74 M 85.17 174.02 C 85.16 174.77 85.14 176.27 85.14 177.02 C 87.14 176.41 89.50 176.05 90.57 173.99 C 88.77 173.97 86.97 173.99 85.17 174.02 M 94.43 181.79 C 95.65 182.54 96.86 183.30 98.07 184.07 C 99.46 182.97 100.88 181.92 102.31 180.88 C 100.53 180.00 98.85 178.86 96.95 178.27 C 95.42 178.78 95.18 180.57 94.43 181.79 Z" />
<path fill="#2c2935" opacity="1.00" d=" M 55.18 122.39 C 58.64 128.08 57.20 135.20 55.22 141.17 C 53.23 145.72 52.27 150.64 52.83 155.60 C 54.09 156.73 55.43 157.78 56.51 159.09 C 56.23 163.32 54.25 167.17 52.74 171.06 C 52.88 166.58 51.32 162.34 50.58 158.00 C 50.85 153.81 51.14 149.52 49.54 145.52 C 51.37 143.56 53.23 141.54 54.27 139.02 C 54.76 133.49 54.42 127.91 55.18 122.39 Z" />
</g>
<g id="#b7aca8ff">
<path fill="#b7aca8" opacity="1.00" d=" M 69.89 55.68 C 70.87 55.54 71.85 55.36 72.82 55.12 C 82.79 53.70 93.46 53.85 102.69 58.35 C 106.00 59.98 108.37 62.90 110.69 65.67 C 108.39 67.50 106.11 69.35 103.81 71.17 C 101.64 70.45 99.33 69.10 97.07 70.25 C 93.85 71.63 90.36 71.94 86.94 71.10 C 85.05 73.76 83.29 76.53 81.85 79.46 C 81.55 79.26 80.95 78.88 80.64 78.68 C 80.97 76.00 81.40 73.33 81.92 70.69 C 76.90 69.40 70.63 69.46 67.06 65.20 C 66.45 62.17 67.67 59.08 67.76 56.03 C 68.29 55.94 69.36 55.77 69.89 55.68 Z" />
<path fill="#b7aca8" opacity="1.00" d=" M 57.48 61.12 C 58.08 61.19 59.26 61.34 59.85 61.42 C 59.19 63.28 58.61 65.17 57.83 66.99 C 56.10 67.26 54.33 67.33 52.58 67.28 L 53.26 66.35 C 54.53 64.49 55.97 62.77 57.48 61.12 Z" />
<path fill="#b7aca8" opacity="1.00" d=" M 43.64 73.44 C 44.03 75.63 45.12 78.02 44.03 80.19 C 42.65 82.94 40.21 84.92 38.02 87.00 C 38.05 86.54 38.10 85.63 38.13 85.18 C 37.88 81.21 40.42 78.00 42.60 74.98 C 42.86 74.59 43.38 73.83 43.64 73.44 Z" />
<path fill="#b7aca8" opacity="1.00" d=" M 19.95 92.51 C 20.71 92.52 22.21 92.54 22.97 92.54 C 27.53 92.63 32.17 92.39 36.65 93.43 C 39.41 93.83 40.69 96.55 42.36 98.43 C 41.34 99.73 40.33 101.02 39.31 102.32 C 40.12 104.36 40.89 106.40 41.66 108.46 C 41.01 108.36 39.72 108.15 39.08 108.05 C 34.92 106.67 32.17 102.80 28.49 100.52 C 25.48 98.06 20.60 96.93 19.95 92.51 Z" />
<path fill="#b7aca8" opacity="1.00" d=" M 103.15 108.81 C 105.38 106.78 108.53 105.31 111.53 106.39 C 113.47 108.56 113.75 111.64 114.67 114.29 C 113.16 114.66 111.68 115.57 110.09 115.37 C 107.22 113.87 105.29 111.15 103.15 108.81 Z" />
<path fill="#b7aca8" opacity="1.00" d=" M 84.61 112.09 C 85.02 111.99 85.82 111.80 86.22 111.71 C 89.38 111.90 91.54 113.88 92.32 116.88 C 95.35 116.43 98.39 115.96 101.45 115.70 C 107.88 117.42 114.71 115.22 120.97 117.70 C 121.38 117.84 122.19 118.11 122.60 118.24 C 122.62 121.35 122.97 124.50 122.39 127.58 C 120.53 133.15 116.53 138.72 110.15 139.14 C 98.12 140.33 86.02 138.47 74.56 134.84 C 73.03 131.76 71.09 128.92 69.38 125.95 C 69.72 124.57 70.40 123.30 71.00 122.02 C 73.80 121.07 76.66 120.00 78.84 117.93 C 80.78 115.99 82.61 113.95 84.61 112.09 Z" />
<path fill="#b7aca8" opacity="1.00" d=" M 56.66 118.34 C 57.54 116.82 58.43 115.30 59.32 113.79 C 61.00 115.49 62.99 117.32 62.74 119.95 C 62.76 126.42 62.34 132.93 63.53 139.34 C 63.61 140.01 63.77 141.36 63.85 142.03 C 61.82 142.32 59.80 142.60 57.77 142.86 C 61.50 142.93 65.04 144.14 68.66 144.87 C 65.51 146.09 62.30 147.17 59.02 147.99 C 61.19 148.09 63.36 148.21 65.53 148.33 C 64.97 152.30 64.05 156.21 63.08 160.10 C 62.25 163.43 63.37 166.79 63.87 170.08 C 61.93 170.40 59.98 170.72 58.03 171.06 C 59.27 172.50 60.50 173.94 61.74 175.38 C 59.36 178.88 57.28 182.57 55.18 186.25 C 53.79 186.80 52.38 187.30 50.94 187.72 C 52.24 185.54 53.67 183.38 54.32 180.92 C 54.73 177.55 53.56 174.27 52.74 171.06 C 54.25 167.17 56.23 163.32 56.51 159.09 C 55.43 157.78 54.09 156.73 52.83 155.60 C 52.27 150.64 53.23 145.72 55.22 141.17 C 57.20 135.20 58.64 128.08 55.18 122.39 C 54.42 127.91 54.76 133.49 54.27 139.02 C 54.51 131.75 55.27 124.26 52.72 117.27 C 54.04 117.63 55.35 117.99 56.66 118.34 Z" />
<path fill="#b7aca8" opacity="1.00" d=" M 92.73 174.74 C 93.41 173.95 93.79 172.63 95.04 172.63 C 98.64 172.18 102.29 172.39 105.90 172.25 C 105.93 175.87 105.80 179.48 105.55 183.10 C 104.04 180.48 102.69 177.65 100.39 175.61 C 98.26 173.77 95.24 174.97 92.73 174.74 Z" />
</g>
<g id="#9da3c2ff">
<path fill="#9da3c2" opacity="1.00" d=" M 103.81 71.17 C 106.11 69.35 108.39 67.50 110.69 65.67 C 115.19 69.72 120.29 73.08 124.55 77.40 C 128.50 81.28 127.28 88.47 133.03 90.75 C 129.85 95.10 129.02 100.39 129.63 105.64 C 127.68 105.74 125.72 105.84 123.76 105.82 C 117.79 105.70 111.92 104.51 105.99 103.99 C 105.69 99.59 105.24 95.20 104.67 90.82 C 104.56 95.92 103.85 100.98 102.95 105.99 C 98.97 106.33 94.98 106.47 91.00 106.27 C 90.66 104.45 90.32 102.64 89.98 100.83 C 91.08 99.81 92.18 98.79 93.29 97.77 C 89.93 94.17 87.85 89.68 86.82 84.89 C 86.41 82.20 83.90 80.83 81.85 79.46 C 83.29 76.53 85.05 73.76 86.94 71.10 C 90.36 71.94 93.85 71.63 97.07 70.25 C 99.33 69.10 101.64 70.45 103.81 71.17 Z" />
<path fill="#9da3c2" opacity="1.00" d=" M 71.16 160.06 C 77.43 158.60 83.91 158.18 90.34 158.45 C 86.73 160.99 82.14 160.70 77.96 161.12 C 75.62 161.41 73.36 160.72 71.16 160.06 Z" />
<path fill="#9da3c2" opacity="1.00" d=" M 97.71 167.59 C 98.98 164.88 101.59 165.38 104.09 165.71 C 103.74 166.28 103.05 167.41 102.70 167.98 C 101.03 167.85 99.37 167.71 97.71 167.59 Z" />
<path fill="#9da3c2" opacity="1.00" d=" M 72.99 176.26 C 73.77 174.25 74.92 172.43 76.20 170.71 C 76.46 172.76 76.72 174.82 76.97 176.87 C 77.87 176.44 78.77 176.01 79.67 175.57 C 79.77 176.16 79.98 177.32 80.08 177.91 C 81.32 177.76 82.56 177.61 83.80 177.46 C 83.89 178.22 84.07 179.75 84.17 180.51 C 80.83 179.96 77.55 179.00 74.68 177.18 C 74.26 176.95 73.41 176.49 72.99 176.26 Z" />
<path fill="#9da3c2" opacity="1.00" d=" M 85.17 174.02 C 86.97 173.99 88.77 173.97 90.57 173.99 C 89.50 176.05 87.14 176.41 85.14 177.02 C 85.14 176.27 85.16 174.77 85.17 174.02 Z" />
<path fill="#9da3c2" opacity="1.00" d=" M 83.94 181.03 C 85.71 181.18 85.36 184.27 83.70 184.33 C 83.31 183.24 83.35 182.03 83.94 181.03 Z" />
</g>
</svg>
