<?xml version="1.0" encoding="UTF-8" ?>
<!DOCTYPE svg PUBLIC "-//W3C//DTD SVG 1.1//EN" "http://www.w3.org/Graphics/SVG/1.1/DTD/svg11.dtd">
<svg width="155pt" height="210pt" viewBox="0 0 155 210" version="1.1" xmlns="http://www.w3.org/2000/svg">
<g id="#97b1beff">
<path fill="#97b1be" opacity="1.00" d=" M 64.76 53.80 C 68.65 49.14 71.33 43.44 76.07 39.49 C 78.05 38.76 79.96 39.83 81.70 40.68 C 81.58 41.13 81.35 42.03 81.24 42.48 L 82.70 42.49 C 82.61 42.97 82.43 43.95 82.34 44.44 L 83.39 44.43 C 83.87 45.75 84.35 47.06 84.76 48.40 L 85.39 48.48 C 85.56 49.07 85.91 50.24 86.09 50.82 C 89.70 55.23 94.16 58.82 98.09 62.93 C 100.20 66.39 102.92 69.43 105.84 72.21 C 107.43 73.19 109.76 72.70 110.79 74.57 C 111.82 74.57 112.84 74.55 113.87 74.54 C 114.61 75.33 115.32 76.14 116.00 76.99 C 117.93 79.98 120.16 83.22 119.85 86.96 C 119.62 93.31 118.26 99.83 120.48 106.01 C 121.13 103.65 121.89 101.31 122.36 98.90 C 122.37 101.09 123.89 103.02 126.33 102.63 C 126.86 100.50 128.51 97.58 126.36 95.80 C 127.65 95.64 128.95 95.49 130.25 95.35 C 130.12 92.48 130.55 89.42 129.24 86.75 C 128.38 84.91 127.51 83.04 127.27 81.00 C 126.86 76.83 124.29 73.41 122.75 69.63 C 121.09 66.28 120.03 61.69 115.66 61.06 C 115.74 56.22 113.61 51.84 111.20 47.75 C 109.78 47.62 108.39 47.38 107.02 46.99 C 107.63 46.92 108.86 46.78 109.47 46.71 C 108.65 44.33 110.90 43.77 112.55 43.06 C 112.85 43.68 113.44 44.94 113.74 45.57 C 114.32 45.63 115.47 45.76 116.05 45.83 C 116.42 47.02 116.59 48.35 117.55 49.26 L 117.16 50.63 L 118.55 50.52 C 118.55 51.18 118.55 52.51 118.54 53.17 C 119.57 55.70 120.46 58.35 122.29 60.44 C 123.88 63.80 125.99 66.88 127.82 70.11 C 128.32 71.55 129.14 72.81 130.30 73.82 C 131.47 75.66 131.44 77.89 131.82 79.96 C 133.44 84.87 134.79 89.88 135.18 95.05 C 134.05 99.48 134.92 104.08 134.50 108.58 C 136.95 108.55 139.54 108.06 141.86 109.11 C 142.51 109.24 143.82 109.49 144.48 109.62 C 144.53 111.64 144.35 113.82 142.22 114.74 C 138.98 116.07 135.31 117.12 133.18 120.15 C 132.73 120.19 131.84 120.27 131.39 120.31 C 130.76 120.79 129.49 121.74 128.86 122.22 C 128.69 122.31 128.36 122.48 128.19 122.57 C 126.51 123.89 124.70 125.07 122.65 125.73 C 123.48 121.02 126.27 116.87 130.90 115.22 C 131.44 115.55 132.53 116.23 133.07 116.56 C 134.06 115.85 135.05 115.13 136.04 114.42 C 134.44 114.48 132.85 114.54 131.25 114.59 C 133.66 111.47 137.85 113.55 141.14 112.97 C 141.98 112.19 142.67 111.29 143.41 110.42 C 138.52 111.30 133.60 112.01 128.68 112.73 C 129.32 113.19 130.60 114.13 131.24 114.59 C 128.22 116.11 125.07 117.38 121.76 118.09 C 122.84 115.13 124.25 112.29 125.98 109.64 C 128.43 109.61 131.57 111.32 133.33 108.74 C 130.67 107.20 128.04 105.61 125.46 103.94 C 124.69 105.52 125.25 108.85 122.19 107.88 C 122.18 108.36 122.15 109.34 122.14 109.83 C 120.52 111.14 119.19 112.73 118.87 114.86 C 118.02 115.50 117.17 116.14 116.32 116.78 C 115.88 115.11 115.38 113.46 114.86 111.82 C 114.26 114.56 114.97 117.31 115.07 120.07 C 114.98 122.56 114.23 124.97 113.80 127.42 C 113.38 125.57 112.85 123.73 112.31 121.91 C 111.74 124.18 110.80 126.66 111.80 128.95 C 112.66 130.42 113.78 131.70 114.84 133.02 C 114.37 134.08 113.90 135.15 113.44 136.22 C 112.08 138.44 112.37 141.07 112.18 143.55 C 111.66 143.18 110.60 142.44 110.08 142.07 C 109.67 142.45 108.87 143.22 108.46 143.60 C 106.96 144.92 105.34 146.35 106.26 148.58 C 105.41 146.94 104.48 145.35 103.63 143.71 C 103.94 143.33 104.56 142.56 104.86 142.17 C 103.29 142.71 101.70 143.20 100.12 143.70 C 100.13 142.65 100.15 141.59 100.17 140.54 C 98.23 141.21 96.21 141.58 94.17 141.66 C 94.74 142.46 95.32 143.25 95.90 144.05 C 93.05 144.21 90.21 144.36 87.37 144.51 C 87.12 144.02 86.62 143.04 86.37 142.56 C 83.40 142.35 80.47 141.81 77.63 140.91 C 74.33 139.91 70.89 140.87 67.59 141.31 C 67.19 141.83 66.39 142.86 66.00 143.37 C 65.85 143.52 65.57 143.82 65.42 143.97 C 64.13 143.07 62.83 142.17 61.53 141.27 C 61.55 140.22 61.60 138.13 61.62 137.08 C 64.42 138.03 67.20 139.04 69.97 140.10 C 69.07 139.31 68.18 138.52 67.29 137.74 C 70.04 137.90 72.97 138.80 75.64 137.72 C 78.39 135.98 80.59 133.26 84.00 132.76 C 84.18 132.51 84.56 132.02 84.75 131.77 C 83.90 131.79 82.20 131.83 81.36 131.85 C 80.68 129.38 80.08 126.89 79.23 124.48 C 80.40 122.97 81.34 119.68 83.86 121.02 C 85.08 122.49 85.88 124.24 86.76 125.92 C 88.84 125.50 90.66 124.44 92.27 123.10 C 92.80 124.72 93.32 126.35 93.83 127.98 C 96.26 125.03 98.20 121.64 101.05 119.06 C 104.72 116.59 109.29 116.23 113.47 115.16 C 108.01 111.98 101.40 111.55 96.16 107.90 C 97.83 107.72 99.50 107.59 101.18 107.49 C 105.63 108.45 110.03 110.62 114.67 109.24 C 113.45 108.45 112.30 107.43 110.80 107.24 C 102.51 105.46 93.98 105.21 85.67 103.58 C 85.49 104.24 85.32 104.91 85.15 105.58 C 88.29 105.59 91.43 105.60 94.57 105.59 L 94.59 107.27 C 91.56 107.34 88.49 107.16 85.50 107.72 C 84.21 108.74 83.35 110.17 82.35 111.44 C 80.28 114.43 77.09 116.30 74.48 118.75 C 73.67 118.36 72.85 117.99 72.03 117.63 C 76.32 113.77 80.85 110.05 84.01 105.14 C 82.05 105.08 80.06 104.89 78.10 105.19 C 76.32 105.84 75.13 107.43 73.76 108.65 C 71.16 111.61 66.75 112.16 64.56 115.58 C 60.89 119.28 58.47 123.89 56.61 128.71 C 56.61 127.72 56.61 125.74 56.61 124.75 C 55.25 127.99 54.19 131.40 54.26 134.95 C 54.28 137.10 54.41 139.24 54.46 141.38 C 54.44 141.75 54.40 142.47 54.38 142.83 C 51.29 143.97 52.68 147.67 52.98 150.06 C 54.11 150.41 55.26 150.68 56.42 150.90 C 55.79 152.18 52.85 154.59 55.04 155.57 C 56.79 154.89 58.39 153.88 60.06 153.01 C 59.76 155.96 57.89 158.23 55.97 160.32 C 60.81 159.64 65.65 157.99 70.58 159.00 C 71.50 160.63 72.42 162.25 73.32 163.90 C 71.08 166.96 68.52 162.40 66.53 161.29 C 66.18 162.46 65.88 163.66 65.63 164.86 C 66.81 166.88 68.26 168.72 69.51 170.69 C 66.22 170.01 63.10 168.80 60.02 167.48 C 60.07 168.18 60.15 169.58 60.19 170.28 C 62.31 171.40 66.16 171.17 66.33 174.24 C 63.61 174.40 60.93 173.85 58.26 173.41 C 55.32 170.08 54.21 165.71 54.31 161.35 C 53.39 163.46 52.42 165.55 51.55 167.68 C 51.02 170.03 51.29 172.45 51.70 174.80 C 49.63 175.38 47.12 174.31 45.57 176.22 C 45.30 176.14 44.77 175.99 44.51 175.91 C 44.61 175.33 44.81 174.17 44.91 173.59 C 43.03 174.27 41.15 175.07 39.15 175.30 C 37.82 174.76 36.53 174.13 35.22 173.54 C 39.24 171.31 43.66 170.12 48.09 169.06 C 49.95 168.65 49.70 166.21 50.41 164.88 C 43.57 165.88 37.49 169.40 30.85 171.10 C 28.95 169.76 27.68 167.77 26.28 165.96 C 28.60 163.76 31.17 161.45 31.34 158.01 C 30.58 157.96 29.06 157.85 28.30 157.79 C 30.36 155.86 32.62 154.17 34.85 152.43 C 34.04 152.32 32.43 152.09 31.63 151.98 C 32.81 150.44 33.76 148.61 35.39 147.49 C 37.71 146.61 40.16 146.20 42.57 145.66 C 42.03 144.29 41.48 142.94 41.00 141.55 C 41.22 140.14 41.62 138.76 41.91 137.36 C 44.76 138.20 47.61 139.03 50.47 139.82 C 50.96 140.54 51.95 141.98 52.44 142.69 C 54.10 136.50 51.13 129.54 54.85 123.86 C 58.12 117.41 64.98 113.89 68.41 107.61 C 66.56 107.26 64.71 106.92 62.86 106.57 C 65.24 105.04 68.02 105.82 70.57 106.34 C 72.91 107.05 74.92 105.28 76.89 104.35 C 71.91 104.20 66.85 103.83 61.92 104.73 C 57.77 105.45 55.62 109.53 51.93 111.15 C 50.37 107.41 49.09 103.28 45.74 100.70 C 45.62 96.52 45.82 92.35 45.99 88.18 C 47.21 86.44 48.56 84.75 49.40 82.78 C 49.40 80.89 47.35 78.77 49.01 77.13 C 49.59 76.78 50.75 76.09 51.33 75.74 C 51.95 77.92 52.57 80.10 53.20 82.28 C 51.34 76.27 55.37 70.95 57.83 65.78 C 60.24 61.85 61.65 57.29 64.76 53.80 M 104.68 118.81 C 106.25 120.10 107.95 121.21 109.74 122.18 C 109.70 120.87 109.67 119.55 109.63 118.24 C 107.97 118.33 106.31 118.50 104.68 118.81 M 102.70 122.45 C 101.29 124.41 99.33 125.84 97.57 127.47 C 96.63 129.57 95.21 132.88 97.41 134.66 C 99.11 134.00 100.64 132.99 102.30 132.25 C 103.49 132.73 104.45 133.60 105.51 134.30 C 103.50 136.53 100.31 136.67 97.61 137.46 C 99.76 139.79 103.84 139.01 105.98 137.03 C 109.20 132.96 110.17 127.59 109.65 122.51 C 109.48 123.17 109.13 124.49 108.96 125.15 C 108.24 124.20 107.52 123.24 106.81 122.29 C 105.44 122.33 104.07 122.38 102.70 122.45 M 86.77 132.27 C 85.50 134.13 84.45 136.13 83.35 138.09 C 85.16 136.98 86.97 135.87 88.77 134.74 C 88.09 133.95 87.84 132.60 86.77 132.27 M 34.38 161.71 L 34.45 162.42 C 32.05 161.09 31.57 166.43 34.23 164.86 C 37.01 163.79 40.65 162.22 40.58 158.69 C 39.66 158.71 37.83 158.77 36.91 158.80 C 36.07 159.77 35.23 160.75 34.38 161.71 Z" />
<path fill="#97b1be" opacity="1.00" d=" M 31.61 48.47 C 32.64 48.47 33.67 48.46 34.70 48.46 C 34.57 49.00 34.31 50.07 34.18 50.61 L 35.48 50.46 C 35.48 51.83 35.48 53.19 35.48 54.56 L 36.56 54.39 C 36.31 58.22 37.32 62.23 35.94 65.91 C 35.62 67.01 34.89 67.63 33.75 67.77 C 32.16 70.43 31.53 73.45 31.63 76.53 C 32.26 76.48 33.53 76.39 34.16 76.35 C 34.81 74.66 35.51 72.84 37.36 72.15 C 37.71 71.55 38.06 70.94 38.40 70.34 C 37.13 74.90 35.93 79.48 34.65 84.04 C 33.43 87.96 32.65 92.18 33.47 96.26 C 34.54 99.75 36.03 103.16 38.02 106.23 C 39.37 106.43 40.73 106.48 42.11 106.40 C 45.43 110.47 49.99 114.24 50.59 119.78 C 49.49 118.91 48.40 118.03 47.32 117.13 C 44.13 114.11 39.95 112.24 35.54 112.15 C 38.97 114.17 43.43 115.73 43.88 120.35 C 41.84 120.53 39.80 120.65 37.75 120.75 C 36.76 120.20 35.78 119.63 34.81 119.03 C 34.50 118.65 33.90 117.90 33.60 117.52 C 32.61 116.73 31.73 115.82 30.85 114.92 C 27.94 111.76 22.34 112.38 20.94 107.73 C 24.04 106.72 27.26 106.49 30.50 106.63 C 29.74 101.55 27.70 96.81 26.70 91.80 C 26.54 85.71 25.96 79.46 27.70 73.53 C 28.42 71.05 26.92 68.41 28.19 66.02 C 28.40 64.66 28.60 63.29 28.80 61.93 C 29.86 59.25 29.50 56.32 29.54 53.50 L 30.36 53.53 C 30.41 51.76 30.89 50.07 31.61 48.47 Z" />
<path fill="#97b1be" opacity="1.00" d=" M 114.13 151.65 C 115.37 153.91 117.15 156.35 116.55 159.07 C 114.87 161.60 112.15 163.18 109.40 164.29 C 109.56 163.31 109.71 162.33 109.89 161.35 C 112.75 158.82 112.74 154.94 114.13 151.65 Z" />
<path fill="#97b1be" opacity="1.00" d=" M 98.62 170.09 C 99.07 165.73 97.10 161.13 98.94 156.99 C 99.49 157.59 100.59 158.78 101.13 159.37 C 101.58 160.20 102.02 161.04 102.49 161.87 C 103.11 162.92 103.76 163.97 104.36 165.04 C 104.57 165.44 104.99 166.24 105.20 166.64 C 104.47 168.05 103.78 169.48 102.92 170.82 C 102.03 171.16 101.14 171.49 100.25 171.81 C 99.85 171.38 99.03 170.52 98.62 170.09 Z" />
<path fill="#97b1be" opacity="1.00" d=" M 111.76 166.99 C 113.33 164.36 115.49 162.14 118.05 160.48 C 118.33 160.84 118.89 161.56 119.17 161.92 C 119.04 162.75 118.78 164.42 118.64 165.25 C 116.36 165.89 114.07 166.48 111.76 166.99 Z" />
<path fill="#97b1be" opacity="1.00" d=" M 40.67 190.35 C 41.52 185.68 47.90 185.16 51.00 187.86 C 49.89 191.54 45.12 189.23 42.30 190.07 C 41.90 190.14 41.08 190.28 40.67 190.35 Z" />
<path fill="#97b1be" opacity="1.00" d=" M 80.81 187.62 C 84.05 187.34 87.68 187.08 89.46 190.41 C 85.42 189.64 79.66 192.03 77.08 187.87 C 78.32 187.77 79.56 187.68 80.81 187.62 Z" />
<path fill="#97b1be" opacity="1.00" d=" M 90.70 187.27 C 93.52 187.30 96.35 187.57 99.16 187.85 C 98.96 192.64 104.29 190.75 107.21 191.45 L 106.52 191.50 C 103.92 191.56 101.20 192.03 98.71 191.09 C 98.82 190.82 99.03 190.28 99.14 190.01 C 96.99 189.69 94.85 189.42 92.70 189.13 C 92.04 188.50 91.38 187.88 90.70 187.27 Z" />
</g>
<g id="#2e2f3cff">
<path fill="#2e2f3c" opacity="1.00" d=" M 48.33 77.11 C 52.18 73.91 54.42 69.37 57.83 65.78 C 55.37 70.95 51.34 76.27 53.20 82.28 C 52.57 80.10 51.95 77.92 51.33 75.74 C 50.75 76.09 49.59 76.78 49.01 77.13 C 47.35 78.77 49.40 80.89 49.40 82.78 C 48.56 84.75 47.21 86.44 45.99 88.18 C 45.82 92.35 45.62 96.52 45.74 100.70 C 49.09 103.28 50.37 107.41 51.93 111.15 C 55.62 109.53 57.77 105.45 61.92 104.73 C 66.85 103.83 71.91 104.20 76.89 104.35 C 74.92 105.28 72.91 107.05 70.57 106.34 C 68.02 105.82 65.24 105.04 62.86 106.57 C 62.39 107.20 61.92 107.83 61.45 108.46 C 58.45 109.72 55.54 111.16 52.76 112.85 C 52.05 116.10 51.47 119.39 51.31 122.73 C 51.28 123.08 51.23 123.78 51.20 124.13 C 50.15 124.53 49.11 124.95 48.07 125.38 C 48.37 124.42 48.65 123.45 48.93 122.48 C 47.17 121.09 45.56 119.52 44.11 117.82 C 44.92 117.64 46.52 117.30 47.32 117.13 C 48.40 118.03 49.49 118.91 50.59 119.78 C 49.99 114.24 45.43 110.47 42.11 106.40 C 40.73 106.48 39.37 106.43 38.02 106.23 C 36.03 103.16 34.54 99.75 33.47 96.26 C 32.65 92.18 33.43 87.96 34.65 84.04 C 35.85 86.94 35.33 90.09 34.68 93.05 C 33.92 95.12 35.86 96.70 36.75 98.36 C 36.93 100.09 37.33 101.80 37.97 103.42 C 38.52 103.41 39.62 103.39 40.17 103.38 C 40.14 103.99 40.08 105.21 40.05 105.81 C 40.92 105.79 42.68 105.75 43.56 105.73 C 43.27 104.94 42.69 103.36 42.40 102.57 C 43.51 100.07 45.02 97.68 45.31 94.91 C 46.02 91.38 44.97 87.61 46.44 84.23 C 47.34 81.94 47.98 79.55 48.33 77.11 Z" />
<path fill="#2e2f3c" opacity="1.00" d=" M 85.67 103.58 C 93.98 105.21 102.51 105.46 110.80 107.24 C 112.30 107.43 113.45 108.45 114.67 109.24 C 110.03 110.62 105.63 108.45 101.18 107.49 C 98.99 107.31 96.79 107.28 94.59 107.27 L 94.57 105.59 C 91.43 105.60 88.29 105.59 85.15 105.58 C 85.32 104.91 85.49 104.24 85.67 103.58 Z" />
<path fill="#2e2f3c" opacity="1.00" d=" M 38.16 128.38 C 39.93 127.38 41.71 126.41 43.50 125.44 C 43.74 126.01 44.21 127.16 44.45 127.73 C 45.76 128.10 47.07 128.46 48.39 128.83 C 48.60 131.43 48.73 134.05 48.80 136.66 C 47.10 135.63 45.41 134.59 43.72 133.56 C 43.69 132.86 43.67 132.16 43.64 131.47 C 41.78 130.50 39.95 129.47 38.16 128.38 Z" />
<path fill="#2e2f3c" opacity="1.00" d=" M 54.26 134.95 C 56.56 136.66 59.54 137.92 60.68 140.74 C 59.76 140.01 58.84 139.26 57.93 138.51 C 56.76 139.45 55.59 140.39 54.46 141.38 C 54.41 139.24 54.28 137.10 54.26 134.95 Z" />
<path fill="#2e2f3c" opacity="1.00" d=" M 69.64 145.30 C 70.96 145.49 72.29 145.68 73.61 145.88 C 74.11 146.21 75.11 146.86 75.60 147.18 C 75.25 149.57 75.22 151.98 75.50 154.38 C 73.99 152.85 72.52 151.21 70.68 150.05 C 68.75 149.10 67.24 151.17 65.76 152.03 C 69.50 153.60 73.33 155.04 76.70 157.34 C 78.81 158.90 81.44 159.22 83.96 159.50 C 82.79 159.94 81.63 160.39 80.46 160.85 C 81.93 161.08 83.40 161.31 84.87 161.54 C 84.49 162.64 84.11 163.74 83.74 164.84 C 81.25 163.44 78.62 162.32 75.90 161.43 C 75.05 162.26 74.19 163.08 73.32 163.90 C 72.91 162.06 72.51 160.22 72.09 158.39 C 68.34 158.17 65.41 155.85 62.68 153.54 C 62.25 151.70 61.78 149.87 61.46 148.01 C 63.11 148.64 64.71 150.29 66.60 149.66 C 68.64 149.27 68.81 146.82 69.64 145.30 Z" />
<path fill="#2e2f3c" opacity="1.00" d=" M 83.47 146.93 C 85.82 146.94 88.16 146.93 90.51 146.90 C 90.53 147.59 90.55 148.99 90.56 149.68 C 90.58 150.25 90.63 151.39 90.65 151.96 C 90.93 152.29 91.49 152.96 91.77 153.29 C 92.08 153.64 92.69 154.34 93.00 154.69 C 88.29 155.32 83.40 155.50 78.82 154.04 C 80.42 153.58 82.03 153.11 83.62 152.60 C 83.59 151.88 83.53 150.44 83.50 149.72 C 83.49 149.02 83.48 147.63 83.47 146.93 Z" />
<path fill="#2e2f3c" opacity="1.00" d=" M 108.43 148.55 C 109.07 148.34 110.35 147.94 110.99 147.74 L 112.08 148.67 C 112.16 149.70 112.25 150.74 112.35 151.77 C 110.91 151.99 109.47 152.21 108.04 152.43 C 108.17 151.13 108.30 149.84 108.43 148.55 Z" />
<path fill="#2e2f3c" opacity="1.00" d=" M 99.43 154.32 C 100.92 154.67 102.40 155.03 103.89 155.38 C 102.98 156.72 102.06 158.05 101.13 159.37 C 100.59 158.78 99.49 157.59 98.94 156.99 C 98.77 156.81 98.44 156.44 98.27 156.26 C 98.56 155.77 99.14 154.80 99.43 154.32 Z" />
<path fill="#2e2f3c" opacity="1.00" d=" M 102.49 161.87 C 104.19 159.69 106.26 157.84 108.51 156.26 C 108.97 157.96 109.41 159.66 109.89 161.35 C 109.71 162.33 109.56 163.31 109.40 164.29 C 107.73 164.61 106.04 164.80 104.36 165.04 C 103.76 163.97 103.11 162.92 102.49 161.87 Z" />
<path fill="#2e2f3c" opacity="1.00" d=" M 51.55 167.68 C 52.42 165.55 53.39 163.46 54.31 161.35 C 54.21 165.71 55.32 170.08 58.26 173.41 C 57.74 173.39 56.71 173.35 56.20 173.33 C 54.77 171.35 53.22 169.45 51.55 167.68 Z" />
<path fill="#2e2f3c" opacity="1.00" d=" M 88.09 180.83 C 91.69 179.75 90.24 175.06 91.07 172.15 C 93.00 175.28 94.94 178.47 95.83 182.07 C 94.35 186.52 90.70 180.41 88.29 182.99 L 87.81 182.48 C 87.38 182.02 86.95 181.57 86.52 181.12 C 86.69 179.87 86.86 178.63 87.02 177.39 C 85.71 178.71 84.43 180.06 83.19 181.44 C 82.48 181.01 81.78 180.59 81.08 180.17 C 83.14 178.07 85.51 176.14 88.64 176.30 C 88.45 177.81 88.26 179.32 88.09 180.83 Z" />
<path fill="#2e2f3c" opacity="1.00" d=" M 75.52 186.46 C 77.68 185.29 80.16 184.93 82.51 184.26 C 81.94 185.38 81.37 186.49 80.81 187.62 C 79.56 187.68 78.32 187.77 77.08 187.87 C 79.66 192.03 85.42 189.64 89.46 190.41 C 92.53 190.79 95.61 191.09 98.71 191.09 C 101.20 192.03 103.92 191.56 106.52 191.50 C 110.00 191.79 113.49 191.87 116.99 191.78 C 117.24 193.19 117.55 194.59 118.09 195.93 C 117.28 197.06 116.96 199.25 115.13 198.98 C 88.09 199.07 61.04 198.91 34.00 199.05 C 33.64 198.52 32.91 197.47 32.55 196.95 C 33.07 195.98 33.62 195.02 34.19 194.08 C 36.19 192.57 38.39 191.36 40.67 190.35 C 41.08 190.28 41.90 190.14 42.30 190.07 C 47.42 191.90 52.86 190.78 57.51 188.29 C 61.43 192.33 67.36 190.60 72.35 190.70 C 73.34 189.24 74.22 187.67 75.52 186.46 Z" />
</g>
<g id="#546473ff">
<path fill="#546473" opacity="1.00" d=" M 116.00 76.99 C 116.66 76.94 117.97 76.84 118.63 76.79 C 118.42 77.97 118.25 79.15 118.14 80.34 C 119.79 81.72 121.35 83.24 122.61 85.00 C 123.21 84.87 124.40 84.59 125.00 84.45 C 123.88 85.61 122.36 87.13 123.57 88.82 C 125.27 91.48 123.89 94.55 122.54 97.02 C 122.49 97.49 122.40 98.43 122.36 98.90 C 121.89 101.31 121.13 103.65 120.48 106.01 C 118.26 99.83 119.62 93.31 119.85 86.96 C 120.16 83.22 117.93 79.98 116.00 76.99 Z" />
<path fill="#546473" opacity="1.00" d=" M 122.19 107.88 C 125.25 108.85 124.69 105.52 125.46 103.94 C 128.04 105.61 130.67 107.20 133.33 108.74 C 131.57 111.32 128.43 109.61 125.98 109.64 C 124.25 112.29 122.84 115.13 121.76 118.09 C 125.07 117.38 128.22 116.11 131.24 114.59 L 131.25 114.59 C 132.85 114.54 134.44 114.48 136.04 114.42 C 135.05 115.13 134.06 115.85 133.07 116.56 C 132.53 116.23 131.44 115.55 130.90 115.22 C 126.27 116.87 123.48 121.02 122.65 125.73 C 124.70 125.07 126.51 123.89 128.19 122.57 C 128.36 122.48 128.69 122.31 128.86 122.22 C 128.40 123.07 127.95 123.92 127.53 124.79 C 125.95 125.51 124.29 126.02 122.60 126.39 C 122.03 126.79 120.89 127.60 120.33 128.00 C 120.38 129.65 120.17 131.39 121.15 132.84 C 122.17 133.50 123.26 134.08 124.34 134.65 C 124.14 135.49 123.73 137.15 123.53 137.99 C 121.31 138.02 119.00 137.83 116.96 138.87 C 115.92 137.81 115.01 136.46 113.44 136.22 C 113.90 135.15 114.37 134.08 114.84 133.02 C 113.78 131.70 112.66 130.42 111.80 128.95 C 110.80 126.66 111.74 124.18 112.31 121.91 C 112.85 123.73 113.38 125.57 113.80 127.42 C 114.17 129.23 114.48 131.08 115.18 132.80 C 117.31 135.23 120.69 135.81 123.67 136.57 C 123.10 135.03 121.62 134.39 120.34 133.59 C 117.39 128.50 118.32 122.23 116.32 116.78 C 117.17 116.14 118.02 115.50 118.87 114.86 C 119.19 112.73 120.52 111.14 122.14 109.83 C 122.15 109.34 122.18 108.36 122.19 107.88 Z" />
<path fill="#546473" opacity="1.00" d=" M 35.54 112.15 C 39.95 112.24 44.13 114.11 47.32 117.13 C 46.52 117.30 44.92 117.64 44.11 117.82 C 45.56 119.52 47.17 121.09 48.93 122.48 C 48.65 123.45 48.37 124.42 48.07 125.38 L 47.81 126.09 C 48.30 126.41 49.27 127.05 49.76 127.37 C 49.45 131.53 49.39 135.76 50.47 139.82 C 47.61 139.03 44.76 138.20 41.91 137.36 C 41.58 135.71 42.28 133.49 40.59 132.44 C 39.39 131.22 37.46 131.77 35.94 131.46 C 33.82 133.53 31.24 131.87 28.90 131.28 C 30.16 126.97 35.02 127.87 38.19 126.25 C 39.42 125.42 41.57 124.91 40.90 122.97 C 39.44 122.74 37.98 122.55 36.51 122.40 C 36.82 121.99 37.44 121.16 37.75 120.75 C 39.80 120.65 41.84 120.53 43.88 120.35 C 43.43 115.73 38.97 114.17 35.54 112.15 M 38.16 128.38 C 39.95 129.47 41.78 130.50 43.64 131.47 C 43.67 132.16 43.69 132.86 43.72 133.56 C 45.41 134.59 47.10 135.63 48.80 136.66 C 48.73 134.05 48.60 131.43 48.39 128.83 C 47.07 128.46 45.76 128.10 44.45 127.73 C 44.21 127.16 43.74 126.01 43.50 125.44 C 41.71 126.41 39.93 127.38 38.16 128.38 Z" />
<path fill="#546473" opacity="1.00" d=" M 63.98 123.93 C 66.78 121.98 69.55 119.98 72.03 117.63 C 72.85 117.99 73.67 118.36 74.48 118.75 C 76.34 120.41 77.93 122.35 79.23 124.48 C 80.08 126.89 80.68 129.38 81.36 131.85 C 82.20 131.83 83.90 131.79 84.75 131.77 C 84.56 132.02 84.18 132.51 84.00 132.76 C 80.59 133.26 78.39 135.98 75.64 137.72 C 72.97 138.80 70.04 137.90 67.29 137.74 C 68.18 138.52 69.07 139.31 69.97 140.10 C 67.20 139.04 64.42 138.03 61.62 137.08 C 61.60 138.13 61.55 140.22 61.53 141.27 C 62.83 142.17 64.13 143.07 65.42 143.97 C 64.10 145.32 62.74 146.62 61.46 148.01 C 61.78 149.87 62.25 151.70 62.68 153.54 C 65.41 155.85 68.34 158.17 72.09 158.39 C 72.51 160.22 72.91 162.06 73.32 163.90 C 72.42 162.25 71.50 160.63 70.58 159.00 C 65.65 157.99 60.81 159.64 55.97 160.32 C 57.89 158.23 59.76 155.96 60.06 153.01 C 58.39 153.88 56.79 154.89 55.04 155.57 C 52.85 154.59 55.79 152.18 56.42 150.90 C 55.26 150.68 54.11 150.41 52.98 150.06 C 52.68 147.67 51.29 143.97 54.38 142.83 C 54.40 142.47 54.44 141.75 54.46 141.38 C 55.59 140.39 56.76 139.45 57.93 138.51 C 58.84 139.26 59.76 140.01 60.68 140.74 C 59.54 137.92 56.56 136.66 54.26 134.95 C 54.19 131.40 55.25 127.99 56.61 124.75 C 56.61 125.74 56.61 127.72 56.61 128.71 C 56.50 129.62 56.30 131.43 56.19 132.34 C 59.11 129.83 60.72 126.08 63.98 123.93 M 74.26 121.31 C 72.67 123.14 71.08 124.97 69.51 126.82 C 69.19 129.13 68.67 131.41 68.20 133.69 C 69.67 133.62 71.15 133.55 72.63 133.48 C 72.42 134.01 72.00 135.07 71.79 135.60 C 73.94 135.38 76.55 135.73 78.12 133.89 C 79.95 132.08 79.88 129.28 79.50 126.92 C 78.89 124.21 76.32 122.82 74.26 121.31 Z" />
<path fill="#546473" opacity="1.00" d=" M 104.68 118.81 C 106.31 118.50 107.97 118.33 109.63 118.24 C 109.67 119.55 109.70 120.87 109.74 122.18 C 107.95 121.21 106.25 120.10 104.68 118.81 Z" />
<path fill="#546473" opacity="1.00" d=" M 108.96 125.15 C 109.13 124.49 109.48 123.17 109.65 122.51 C 110.17 127.59 109.20 132.96 105.98 137.03 C 103.84 139.01 99.76 139.79 97.61 137.46 C 100.31 136.67 103.50 136.53 105.51 134.30 C 107.44 131.60 108.29 128.36 108.96 125.15 Z" />
<path fill="#546473" opacity="1.00" d=" M 106.26 148.58 C 105.34 146.35 106.96 144.92 108.46 143.60 C 108.57 144.18 108.79 145.33 108.89 145.91 C 109.58 146.53 110.28 147.14 110.99 147.74 C 110.35 147.94 109.07 148.34 108.43 148.55 C 108.30 149.84 108.17 151.13 108.04 152.43 C 109.47 152.21 110.91 151.99 112.35 151.77 C 112.25 150.74 112.16 149.70 112.08 148.67 C 112.67 147.43 112.99 146.13 113.05 144.77 L 114.08 144.73 C 114.13 146.04 114.18 147.35 114.24 148.66 C 114.55 149.05 115.17 149.85 115.49 150.24 C 115.46 152.54 117.01 154.05 118.84 155.15 C 118.84 155.89 118.83 157.36 118.82 158.10 C 119.91 160.29 121.46 162.51 121.17 165.08 C 120.67 164.29 119.67 162.71 119.17 161.92 C 118.89 161.56 118.33 160.84 118.05 160.48 C 115.49 162.14 113.33 164.36 111.76 166.99 C 114.07 166.48 116.36 165.89 118.64 165.25 C 119.23 171.25 112.34 172.20 107.95 171.00 C 106.90 169.63 105.95 168.20 105.20 166.64 C 104.99 166.24 104.57 165.44 104.36 165.04 C 106.04 164.80 107.73 164.61 109.40 164.29 C 112.15 163.18 114.87 161.60 116.55 159.07 C 117.15 156.35 115.37 153.91 114.13 151.65 C 112.74 154.94 112.75 158.82 109.89 161.35 C 109.41 159.66 108.97 157.96 108.51 156.26 C 106.26 157.84 104.19 159.69 102.49 161.87 C 102.02 161.04 101.58 160.20 101.13 159.37 C 102.06 158.05 102.98 156.72 103.89 155.38 C 102.40 155.03 100.92 154.67 99.43 154.32 C 99.14 154.80 98.56 155.77 98.27 156.26 C 98.44 156.44 98.77 156.81 98.94 156.99 C 97.10 161.13 99.07 165.73 98.62 170.09 C 99.03 170.52 99.85 171.38 100.25 171.81 C 101.14 171.49 102.03 171.16 102.92 170.82 C 102.45 172.09 101.46 172.73 99.93 172.73 L 101.30 174.14 C 99.85 176.63 99.51 179.47 99.67 182.31 C 98.39 182.23 97.11 182.15 95.83 182.07 C 94.94 178.47 93.00 175.28 91.07 172.15 C 90.24 175.06 91.69 179.75 88.09 180.83 C 88.26 179.32 88.45 177.81 88.64 176.30 C 85.51 176.14 83.14 178.07 81.08 180.17 C 81.78 180.59 82.48 181.01 83.19 181.44 C 84.43 180.06 85.71 178.71 87.02 177.39 C 86.86 178.63 86.69 179.87 86.52 181.12 C 86.95 181.57 87.38 182.02 87.81 182.48 C 84.88 184.38 88.77 186.74 90.70 187.27 C 91.38 187.88 92.04 188.50 92.70 189.13 C 94.85 189.42 96.99 189.69 99.14 190.01 C 99.03 190.28 98.82 190.82 98.71 191.09 C 95.61 191.09 92.53 190.79 89.46 190.41 C 87.68 187.08 84.05 187.34 80.81 187.62 C 81.37 186.49 81.94 185.38 82.51 184.26 C 80.16 184.93 77.68 185.29 75.52 186.46 C 74.22 187.67 73.34 189.24 72.35 190.70 C 67.36 190.60 61.43 192.33 57.51 188.29 C 52.86 190.78 47.42 191.90 42.30 190.07 C 45.12 189.23 49.89 191.54 51.00 187.86 C 47.90 185.16 41.52 185.68 40.67 190.35 C 38.39 191.36 36.19 192.57 34.19 194.08 C 34.33 191.20 37.69 190.75 39.76 189.70 C 40.98 188.35 42.02 186.85 42.95 185.29 C 45.92 186.69 48.87 184.55 51.89 184.98 C 54.53 185.39 56.98 183.88 59.04 182.42 C 60.72 181.20 61.56 178.89 60.17 177.12 C 58.28 177.81 56.39 178.56 54.79 179.80 C 53.95 179.45 53.11 179.09 52.27 178.74 C 52.10 177.42 51.91 176.11 51.70 174.80 C 51.29 172.45 51.02 170.03 51.55 167.68 C 53.22 169.45 54.77 171.35 56.20 173.33 C 56.71 173.35 57.74 173.39 58.26 173.41 C 60.93 173.85 63.61 174.40 66.33 174.24 C 66.16 171.17 62.31 171.40 60.19 170.28 C 60.15 169.58 60.07 168.18 60.02 167.48 C 63.10 168.80 66.22 170.01 69.51 170.69 C 68.26 168.72 66.81 166.88 65.63 164.86 C 65.88 163.66 66.18 162.46 66.53 161.29 C 68.52 162.40 71.08 166.96 73.32 163.90 C 74.19 163.08 75.05 162.26 75.90 161.43 C 78.62 162.32 81.25 163.44 83.74 164.84 C 84.11 163.74 84.49 162.64 84.87 161.54 C 83.40 161.31 81.93 161.08 80.46 160.85 C 81.63 160.39 82.79 159.94 83.96 159.50 C 81.44 159.22 78.81 158.90 76.70 157.34 C 73.33 155.04 69.50 153.60 65.76 152.03 C 67.24 151.17 68.75 149.10 70.68 150.05 C 72.52 151.21 73.99 152.85 75.50 154.38 C 75.22 151.98 75.25 149.57 75.60 147.18 C 75.11 146.86 74.11 146.21 73.61 145.88 C 74.52 145.95 76.34 146.10 77.25 146.17 C 77.11 146.65 76.83 147.61 76.69 148.09 C 76.26 149.15 75.81 150.22 75.37 151.28 C 76.51 152.21 77.64 153.15 78.82 154.04 C 83.40 155.50 88.29 155.32 93.00 154.69 C 92.69 154.34 92.08 153.64 91.77 153.29 C 93.94 153.59 97.05 154.32 98.37 151.97 C 98.19 150.23 97.80 148.52 97.50 146.81 C 98.50 146.60 99.50 146.39 100.50 146.18 C 100.61 148.34 100.65 150.57 101.63 152.56 C 103.61 153.75 105.77 153.53 107.63 152.22 C 107.18 151.00 106.73 149.79 106.26 148.58 Z" />
<path fill="#546473" opacity="1.00" d=" M 28.30 157.79 C 29.06 157.85 30.58 157.96 31.34 158.01 C 31.17 161.45 28.60 163.76 26.28 165.96 C 27.68 167.77 28.95 169.76 30.85 171.10 C 37.49 169.40 43.57 165.88 50.41 164.88 C 49.70 166.21 49.95 168.65 48.09 169.06 C 43.66 170.12 39.24 171.31 35.22 173.54 C 36.53 174.13 37.82 174.76 39.15 175.30 C 41.15 175.07 43.03 174.27 44.91 173.59 C 44.81 174.17 44.61 175.33 44.51 175.91 C 44.77 175.99 45.30 176.14 45.57 176.22 C 44.05 176.93 42.25 177.19 41.27 178.72 C 41.04 178.64 40.57 178.46 40.33 178.37 C 40.81 178.17 41.75 177.78 42.22 177.58 C 42.01 174.28 38.66 176.42 36.78 176.18 C 36.10 175.50 35.41 174.83 34.72 174.16 C 33.49 174.13 32.25 174.09 31.02 174.06 C 29.67 170.46 26.51 168.10 23.90 165.46 C 23.39 165.78 22.36 166.43 21.85 166.75 C 21.38 166.21 20.89 165.71 20.36 165.24 C 21.39 163.48 20.91 160.80 23.02 159.81 C 22.33 161.41 21.76 163.06 21.35 164.76 C 24.41 163.33 25.91 160.03 28.30 157.79 Z" />
<path fill="#546473" opacity="1.00" d=" M 34.23 164.86 C 31.57 166.43 32.05 161.09 34.45 162.42 C 34.40 163.03 34.28 164.25 34.23 164.86 Z" />
</g>
<g id="#c6d4e3ff">
<path fill="#c6d4e3" opacity="1.00" d=" M 73.76 108.65 C 75.13 107.43 76.32 105.84 78.10 105.19 C 80.06 104.89 82.05 105.08 84.01 105.14 C 80.85 110.05 76.32 113.77 72.03 117.63 C 69.55 119.98 66.78 121.98 63.98 123.93 C 60.72 126.08 59.11 129.83 56.19 132.34 C 56.30 131.43 56.50 129.62 56.61 128.71 C 58.47 123.89 60.89 119.28 64.56 115.58 C 66.75 112.16 71.16 111.61 73.76 108.65 Z" />
<path fill="#c6d4e3" opacity="1.00" d=" M 61.45 108.46 C 61.92 107.83 62.39 107.20 62.86 106.57 C 64.71 106.92 66.56 107.26 68.41 107.61 C 64.98 113.89 58.12 117.41 54.85 123.86 C 51.13 129.54 54.10 136.50 52.44 142.69 C 51.95 141.98 50.96 140.54 50.47 139.82 C 49.39 135.76 49.45 131.53 49.76 127.37 C 49.27 127.05 48.30 126.41 47.81 126.09 L 48.07 125.38 C 49.11 124.95 50.15 124.53 51.20 124.13 C 51.23 123.78 51.28 123.08 51.31 122.73 C 53.48 121.67 55.01 119.84 55.64 117.52 C 56.65 113.96 59.39 111.41 61.45 108.46 Z" />
<path fill="#c6d4e3" opacity="1.00" d=" M 128.68 112.73 C 133.60 112.01 138.52 111.30 143.41 110.42 C 142.67 111.29 141.98 112.19 141.14 112.97 C 137.85 113.55 133.66 111.47 131.25 114.59 L 131.24 114.59 C 130.60 114.13 129.32 113.19 128.68 112.73 Z" />
<path fill="#c6d4e3" opacity="1.00" d=" M 115.07 120.07 C 114.97 117.31 114.26 114.56 114.86 111.82 C 115.38 113.46 115.88 115.11 116.32 116.78 C 118.32 122.23 117.39 128.50 120.34 133.59 C 121.62 134.39 123.10 135.03 123.67 136.57 C 120.69 135.81 117.31 135.23 115.18 132.80 C 114.48 131.08 114.17 129.23 113.80 127.42 C 114.23 124.97 114.98 122.56 115.07 120.07 Z" />
<path fill="#c6d4e3" opacity="1.00" d=" M 86.77 132.27 C 87.84 132.60 88.09 133.95 88.77 134.74 C 86.97 135.87 85.16 136.98 83.35 138.09 C 84.45 136.13 85.50 134.13 86.77 132.27 Z" />
<path fill="#c6d4e3" opacity="1.00" d=" M 67.82 141.54 C 69.72 141.87 69.98 143.63 69.64 145.30 C 68.81 146.82 68.64 149.27 66.60 149.66 C 64.71 150.29 63.11 148.64 61.46 148.01 C 62.74 146.62 64.10 145.32 65.42 143.97 C 65.57 143.82 65.85 143.52 66.00 143.37 C 66.45 142.91 67.37 142.00 67.82 141.54 Z" />
<path fill="#c6d4e3" opacity="1.00" d=" M 108.46 143.60 C 108.87 143.22 109.67 142.45 110.08 142.07 C 110.60 142.44 111.66 143.18 112.18 143.55 C 112.40 143.86 112.83 144.47 113.05 144.77 C 112.99 146.13 112.67 147.43 112.08 148.67 L 110.99 147.74 C 110.28 147.14 109.58 146.53 108.89 145.91 C 108.79 145.33 108.57 144.18 108.46 143.60 Z" />
<path fill="#c6d4e3" opacity="1.00" d=" M 76.69 148.09 C 77.93 146.71 79.31 145.47 80.87 144.47 C 81.74 146.22 82.57 147.99 83.50 149.72 C 83.53 150.44 83.59 151.88 83.62 152.60 C 82.03 153.11 80.42 153.58 78.82 154.04 C 77.64 153.15 76.51 152.21 75.37 151.28 C 75.81 150.22 76.26 149.15 76.69 148.09 Z" />
<path fill="#c6d4e3" opacity="1.00" d=" M 101.63 152.56 C 102.19 149.62 101.39 146.07 103.63 143.71 C 104.48 145.35 105.41 146.94 106.26 148.58 C 106.73 149.79 107.18 151.00 107.63 152.22 C 105.77 153.53 103.61 153.75 101.63 152.56 Z" />
<path fill="#c6d4e3" opacity="1.00" d=" M 92.82 144.81 C 94.44 145.33 96.03 145.94 97.50 146.81 C 97.80 148.52 98.19 150.23 98.37 151.97 C 97.05 154.32 93.94 153.59 91.77 153.29 C 91.49 152.96 90.93 152.29 90.65 151.96 C 90.63 151.39 90.58 150.25 90.56 149.68 C 91.43 148.11 92.16 146.47 92.82 144.81 Z" />
</g>
<g id="#acc5d3ff">
<path fill="#acc5d3" opacity="1.00" d=" M 85.50 107.72 C 88.49 107.16 91.56 107.34 94.59 107.27 C 96.79 107.28 98.99 107.31 101.18 107.49 C 99.50 107.59 97.83 107.72 96.16 107.90 C 101.40 111.55 108.01 111.98 113.47 115.16 C 109.29 116.23 104.72 116.59 101.05 119.06 C 98.20 121.64 96.26 125.03 93.83 127.98 C 93.32 126.35 92.80 124.72 92.27 123.10 C 90.66 124.44 88.84 125.50 86.76 125.92 C 85.88 124.24 85.08 122.49 83.86 121.02 C 81.34 119.68 80.40 122.97 79.23 124.48 C 77.93 122.35 76.34 120.41 74.48 118.75 C 77.09 116.30 80.28 114.43 82.35 111.44 C 83.35 110.17 84.21 108.74 85.50 107.72 Z" />
<path fill="#acc5d3" opacity="1.00" d=" M 52.76 112.85 C 55.54 111.16 58.45 109.72 61.45 108.46 C 59.39 111.41 56.65 113.96 55.64 117.52 C 55.01 119.84 53.48 121.67 51.31 122.73 C 51.47 119.39 52.05 116.10 52.76 112.85 Z" />
<path fill="#acc5d3" opacity="1.00" d=" M 74.26 121.31 C 76.32 122.82 78.89 124.21 79.50 126.92 C 79.88 129.28 79.95 132.08 78.12 133.89 C 76.55 135.73 73.94 135.38 71.79 135.60 C 72.00 135.07 72.42 134.01 72.63 133.48 C 71.15 133.55 69.67 133.62 68.20 133.69 C 68.67 131.41 69.19 129.13 69.51 126.82 C 71.08 124.97 72.67 123.14 74.26 121.31 Z" />
<path fill="#acc5d3" opacity="1.00" d=" M 102.70 122.45 C 104.07 122.38 105.44 122.33 106.81 122.29 C 107.52 123.24 108.24 124.20 108.96 125.15 C 108.29 128.36 107.44 131.60 105.51 134.30 C 104.45 133.60 103.49 132.73 102.30 132.25 C 100.64 132.99 99.11 134.00 97.41 134.66 C 95.21 132.88 96.63 129.57 97.57 127.47 C 99.33 125.84 101.29 124.41 102.70 122.45 Z" />
<path fill="#acc5d3" opacity="1.00" d=" M 67.59 141.31 C 70.89 140.87 74.33 139.91 77.63 140.91 C 80.47 141.81 83.40 142.35 86.37 142.56 C 86.62 143.04 87.12 144.02 87.37 144.51 C 90.21 144.36 93.05 144.21 95.90 144.05 C 95.32 143.25 94.74 142.46 94.17 141.66 C 96.21 141.58 98.23 141.21 100.17 140.54 C 100.15 141.59 100.13 142.65 100.12 143.70 C 101.70 143.20 103.29 142.71 104.86 142.17 C 104.56 142.56 103.94 143.33 103.63 143.71 C 101.39 146.07 102.19 149.62 101.63 152.56 C 100.65 150.57 100.61 148.34 100.50 146.18 C 99.50 146.39 98.50 146.60 97.50 146.81 C 96.03 145.94 94.44 145.33 92.82 144.81 C 92.16 146.47 91.43 148.11 90.56 149.68 C 90.55 148.99 90.53 147.59 90.51 146.90 C 88.16 146.93 85.82 146.94 83.47 146.93 C 83.48 147.63 83.49 149.02 83.50 149.72 C 82.57 147.99 81.74 146.22 80.87 144.47 C 79.31 145.47 77.93 146.71 76.69 148.09 C 76.83 147.61 77.11 146.65 77.25 146.17 C 76.34 146.10 74.52 145.95 73.61 145.88 C 72.29 145.68 70.96 145.49 69.64 145.30 C 69.98 143.63 69.72 141.87 67.82 141.54 C 67.37 142.00 66.45 142.91 66.00 143.37 C 66.39 142.86 67.19 141.83 67.59 141.31 Z" />
<path fill="#acc5d3" opacity="1.00" d=" M 37.30 145.61 C 38.87 144.59 40.00 143.11 41.00 141.55 C 41.48 142.94 42.03 144.29 42.57 145.66 C 40.16 146.20 37.71 146.61 35.39 147.49 C 33.76 148.61 32.81 150.44 31.63 151.98 C 32.43 152.09 34.04 152.32 34.85 152.43 C 32.62 154.17 30.36 155.86 28.30 157.79 C 25.91 160.03 24.41 163.33 21.35 164.76 C 21.76 163.06 22.33 161.41 23.02 159.81 C 24.20 157.52 25.63 155.24 25.76 152.58 L 26.65 152.36 C 26.54 151.91 26.33 151.03 26.22 150.59 C 28.32 150.93 30.23 149.52 30.72 147.49 L 31.54 147.44 C 31.49 146.70 31.37 145.24 31.31 144.50 C 33.34 144.55 35.69 143.96 37.30 145.61 Z" />
</g>
</svg>
