<?xml version="1.0" encoding="UTF-8" ?>
<!DOCTYPE svg PUBLIC "-//W3C//DTD SVG 1.1//EN" "http://www.w3.org/Graphics/SVG/1.1/DTD/svg11.dtd">
<svg width="155pt" height="210pt" viewBox="0 0 155 210" version="1.1" xmlns="http://www.w3.org/2000/svg">
<g id="#a08b6fff">
<path fill="#a08b6f" opacity="1.00" d=" M 43.06 61.86 C 40.57 53.59 40.79 44.65 43.63 36.50 C 47.91 37.96 52.19 39.42 56.39 41.09 C 53.19 46.78 49.82 52.71 49.78 59.45 C 47.56 62.11 45.87 65.15 44.17 68.15 C 43.26 67.88 42.35 67.61 41.45 67.31 C 42.66 65.74 43.92 63.91 43.06 61.86 Z" />
<path fill="#a08b6f" opacity="1.00" d=" M 60.80 67.51 C 65.75 65.60 71.11 65.92 76.06 67.64 C 71.01 66.81 65.87 66.78 60.80 67.51 Z" />
<path fill="#a08b6f" opacity="1.00" d=" M 106.19 73.94 C 108.47 72.40 110.98 70.70 113.84 70.77 C 116.90 71.76 117.99 75.23 119.19 77.89 C 119.29 78.41 119.50 79.45 119.61 79.97 C 120.04 84.77 120.56 89.88 118.58 94.42 C 117.67 96.42 115.76 98.89 113.25 98.00 C 110.81 96.31 109.29 93.65 107.76 91.16 C 105.60 87.37 103.12 83.26 103.80 78.70 C 104.51 77.07 105.31 75.49 106.19 73.94 Z" />
<path fill="#a08b6f" opacity="1.00" d=" M 84.89 89.15 C 89.44 88.98 95.20 86.87 98.32 91.47 C 95.87 92.03 93.35 91.90 90.90 91.46 C 90.26 92.11 89.63 92.78 89.02 93.45 L 88.47 92.89 C 87.77 92.17 87.06 91.44 86.37 90.71 C 86.00 90.32 85.26 89.54 84.89 89.15 Z" />
<path fill="#a08b6f" opacity="1.00" d=" M 62.17 92.56 C 63.50 92.29 64.83 91.99 66.16 91.69 C 68.21 93.12 70.25 94.56 72.29 96.00 C 71.93 96.90 71.57 97.80 71.21 98.70 C 68.82 98.95 66.42 99.20 64.03 99.46 C 64.79 101.97 65.56 104.49 66.32 107.00 C 63.97 109.00 61.62 110.99 59.29 113.00 C 58.22 111.52 57.12 110.06 56.13 108.53 C 55.31 107.06 54.82 105.43 54.04 103.94 C 48.70 101.53 42.02 101.44 38.08 96.51 C 44.69 94.29 51.00 98.34 57.64 98.00 C 57.24 96.53 56.83 95.05 56.43 93.58 C 58.34 93.26 60.26 92.94 62.17 92.56 Z" />
<path fill="#a08b6f" opacity="1.00" d=" M 71.21 98.70 C 72.38 98.92 73.55 99.15 74.73 99.38 C 74.74 100.61 74.76 101.84 74.78 103.08 C 77.18 103.40 79.57 103.73 81.97 104.08 C 81.68 105.75 81.39 107.41 81.09 109.07 C 78.59 107.99 75.90 107.48 73.22 107.07 C 72.53 104.28 71.87 101.49 71.21 98.70 Z" />
<path fill="#a08b6f" opacity="1.00" d=" M 103.03 101.72 C 107.72 105.45 112.25 109.56 117.91 111.80 C 111.62 112.86 105.22 114.20 98.85 113.03 C 100.51 109.36 101.82 105.55 103.03 101.72 Z" />
<path fill="#a08b6f" opacity="1.00" d=" M 107.31 122.90 C 107.85 123.24 108.95 123.92 109.49 124.26 C 111.25 125.38 113.44 125.08 115.43 125.25 C 120.08 126.55 123.39 130.92 128.28 131.84 C 128.12 133.55 128.06 135.27 127.99 136.99 C 130.21 137.46 132.44 137.91 134.67 138.37 L 134.70 138.90 C 132.10 138.96 129.50 138.96 126.89 138.97 C 128.74 139.49 130.59 140.01 132.43 140.56 C 131.31 141.41 130.48 142.92 129.00 143.11 C 126.45 142.71 124.16 141.43 121.83 140.40 C 123.37 142.32 124.92 144.24 126.37 146.23 C 125.09 146.31 123.80 146.48 122.51 146.39 C 120.46 144.78 118.87 142.67 117.02 140.84 C 117.80 143.28 118.73 145.68 119.73 148.05 C 118.87 148.34 118.02 148.64 117.16 148.94 C 114.42 143.56 110.10 138.77 109.69 132.47 C 109.25 132.54 108.37 132.68 107.92 132.75 C 107.87 131.51 107.79 130.27 107.71 129.04 C 107.57 126.99 107.43 124.95 107.31 122.90 Z" />
<path fill="#a08b6f" opacity="1.00" d=" M 69.91 146.41 C 72.50 145.71 75.55 144.42 78.08 145.97 C 80.90 147.99 82.22 151.38 83.77 154.36 C 82.51 155.31 81.27 156.28 80.03 157.26 C 81.16 158.45 82.29 159.64 83.42 160.84 C 84.65 159.38 85.90 157.94 87.13 156.49 C 90.27 157.13 93.41 157.78 96.59 158.26 C 95.63 159.98 95.29 162.33 93.35 163.25 C 89.28 165.55 85.36 168.11 81.78 171.12 C 82.60 172.75 83.45 174.37 84.29 176.00 C 83.90 176.60 83.11 177.80 82.72 178.40 C 78.92 176.92 75.10 175.48 71.31 173.99 C 74.55 172.21 78.12 169.50 77.17 165.29 C 75.67 164.81 74.16 164.38 72.66 163.93 C 73.31 161.91 73.99 159.90 74.69 157.91 C 73.58 157.21 72.47 156.51 71.33 155.86 C 74.49 154.50 77.57 152.96 80.66 151.44 C 79.67 150.08 78.77 148.61 77.48 147.51 C 75.19 147.33 72.90 147.64 70.62 147.74 C 70.44 147.41 70.08 146.74 69.91 146.41 Z" />
<path fill="#a08b6f" opacity="1.00" d=" M 58.42 158.47 C 61.02 160.77 60.32 164.74 59.63 167.75 C 59.14 168.58 58.67 169.42 58.21 170.28 C 56.86 172.88 56.40 176.12 54.18 178.18 C 50.41 180.69 45.86 181.61 41.57 182.85 L 40.62 183.10 C 40.72 180.02 41.65 177.04 43.63 174.65 C 47.93 169.07 51.62 162.83 57.19 158.40 C 57.50 158.41 58.11 158.45 58.42 158.47 M 54.65 166.43 C 56.91 165.84 57.83 163.96 58.21 161.83 C 56.92 163.28 55.74 164.82 54.65 166.43 Z" />
<path fill="#a08b6f" opacity="1.00" d=" M 70.41 194.99 C 76.04 189.03 84.67 190.71 91.97 191.14 C 90.84 193.77 89.66 196.39 88.49 199.01 C 84.99 198.78 81.46 198.58 78.00 197.94 C 75.41 197.13 72.91 196.04 70.41 194.99 Z" />
</g>
<g id="#dfdbcdff">
<path fill="#dfdbcd" opacity="1.00" d=" M 65.01 43.47 C 66.94 41.16 68.74 38.74 70.68 36.44 C 72.04 37.93 73.48 39.36 74.75 40.94 C 76.98 44.89 77.69 49.41 78.36 53.83 C 79.67 52.88 80.99 51.94 82.30 51.00 C 83.45 55.44 84.09 60.00 84.40 64.58 C 86.79 60.20 88.26 55.20 91.56 51.38 C 94.36 50.48 96.46 53.01 97.88 55.04 C 101.74 60.80 103.54 67.60 106.19 73.94 C 105.31 75.49 104.51 77.07 103.80 78.70 C 102.30 77.41 101.02 75.49 99.01 75.05 C 96.43 75.52 94.06 77.10 91.39 77.03 C 87.72 76.41 84.26 74.96 80.69 73.97 C 79.51 72.19 78.35 70.40 77.18 68.62 C 77.39 70.32 77.60 72.03 77.81 73.74 C 76.88 73.24 75.94 72.74 75.00 72.24 C 75.66 73.94 76.32 75.65 76.98 77.35 C 71.10 80.55 64.02 79.16 58.06 81.94 C 54.82 83.29 55.45 87.06 55.54 89.87 C 57.21 89.85 58.87 89.83 60.54 89.81 C 61.08 90.73 61.62 91.65 62.17 92.56 C 60.26 92.94 58.34 93.26 56.43 93.58 C 56.83 95.05 57.24 96.53 57.64 98.00 C 51.00 98.34 44.69 94.29 38.08 96.51 C 34.45 90.71 28.80 86.03 27.64 78.92 C 29.16 79.48 30.66 80.08 32.17 80.69 C 31.10 77.52 29.78 74.37 29.43 71.01 C 29.40 67.45 30.57 64.04 31.47 60.64 C 35.04 62.49 37.92 65.41 41.45 67.31 C 42.35 67.61 43.26 67.88 44.17 68.15 C 45.87 65.15 47.56 62.11 49.78 59.45 C 52.03 57.23 54.41 55.14 56.60 52.84 C 58.39 53.32 60.19 53.80 61.98 54.27 C 62.28 51.50 62.58 48.74 62.87 45.97 C 63.59 45.14 64.31 44.31 65.01 43.47 M 65.13 62.59 C 68.51 63.21 72.01 63.53 75.16 65.03 C 76.83 65.55 78.59 67.03 80.36 66.02 C 77.48 61.25 69.45 58.32 65.13 62.59 M 60.80 67.51 C 65.87 66.78 71.01 66.81 76.06 67.64 C 71.11 65.92 65.75 65.60 60.80 67.51 M 69.34 69.12 C 68.18 70.57 70.68 72.27 71.68 70.78 C 72.85 69.33 70.34 67.61 69.34 69.12 Z" />
<path fill="#dfdbcd" opacity="1.00" d=" M 82.45 77.80 C 84.93 77.42 87.32 78.85 89.68 79.47 C 89.66 79.95 89.63 80.92 89.61 81.40 C 86.65 82.80 84.43 85.17 82.79 87.96 C 80.94 91.64 73.03 90.01 74.37 85.33 C 76.07 82.02 79.16 79.46 82.45 77.80 Z" />
<path fill="#dfdbcd" opacity="1.00" d=" M 128.28 131.84 C 128.69 131.48 129.52 130.74 129.94 130.38 C 129.75 132.31 129.55 134.24 129.33 136.17 C 130.98 135.94 132.63 135.71 134.28 135.47 C 134.71 135.41 135.56 135.28 135.99 135.22 C 136.18 135.59 136.56 136.33 136.75 136.70 C 136.23 137.12 135.19 137.95 134.67 138.37 C 132.44 137.91 130.21 137.46 127.99 136.99 C 128.06 135.27 128.12 133.55 128.28 131.84 Z" />
<path fill="#dfdbcd" opacity="1.00" d=" M 70.62 147.74 C 72.90 147.64 75.19 147.33 77.48 147.51 C 78.77 148.61 79.67 150.08 80.66 151.44 C 77.57 152.96 74.49 154.50 71.33 155.86 C 70.87 155.70 69.94 155.39 69.48 155.23 C 71.31 153.85 73.17 152.49 75.02 151.13 C 73.69 151.52 72.36 151.90 71.03 152.29 C 70.91 150.77 70.78 149.25 70.62 147.74 Z" />
</g>
<g id="#786848ff">
<path fill="#786848" opacity="1.00" d=" M 56.39 41.09 C 59.24 41.97 62.11 42.78 65.01 43.47 C 64.31 44.31 63.59 45.14 62.87 45.97 C 60.82 48.30 58.74 50.60 56.60 52.84 C 54.41 55.14 52.03 57.23 49.78 59.45 C 49.82 52.71 53.19 46.78 56.39 41.09 Z" />
<path fill="#786848" opacity="1.00" d=" M 105.04 51.12 C 109.86 50.77 114.71 50.89 119.49 51.66 C 116.57 52.82 113.52 53.55 110.50 54.37 C 107.23 55.21 105.83 58.66 103.91 61.09 C 104.85 58.63 105.77 56.17 106.72 53.72 C 106.16 52.85 105.61 51.98 105.04 51.12 Z" />
<path fill="#786848" opacity="1.00" d=" M 119.97 51.95 C 122.16 52.28 124.52 52.35 126.45 53.56 C 126.76 55.67 126.71 57.81 126.67 59.94 C 126.59 55.87 123.19 53.64 119.97 51.95 Z" />
<path fill="#786848" opacity="1.00" d=" M 63.11 112.92 C 65.34 110.28 67.63 107.70 70.04 105.22 C 70.80 110.81 72.32 116.74 70.41 122.25 C 66.96 124.41 62.78 124.94 58.84 125.65 C 55.76 126.19 53.07 124.21 50.48 122.86 C 53.76 122.10 57.10 121.40 60.13 119.91 C 62.85 118.52 64.37 115.73 66.12 113.35 C 65.37 113.25 63.86 113.03 63.11 112.92 Z" />
<path fill="#786848" opacity="1.00" d=" M 84.45 112.36 C 88.20 114.02 92.24 114.75 96.26 115.43 C 96.42 118.66 97.69 121.63 99.84 124.05 C 100.37 122.06 100.86 120.07 101.35 118.08 C 103.36 119.66 105.38 121.23 107.31 122.90 C 107.43 124.95 107.57 126.99 107.71 129.04 C 104.42 127.96 101.14 126.82 97.78 125.95 C 99.35 125.92 100.91 125.86 102.47 125.78 C 99.06 124.41 95.56 123.27 92.02 122.27 C 91.75 121.20 91.47 120.13 91.19 119.06 C 88.67 117.86 85.88 116.66 84.66 113.96 C 84.61 113.56 84.50 112.76 84.45 112.36 Z" />
<path fill="#786848" opacity="1.00" d=" M 73.89 118.99 C 76.01 117.76 78.58 117.73 80.94 117.23 C 81.67 119.27 82.40 121.32 83.12 123.38 C 82.08 123.58 81.04 123.79 80.00 124.01 C 81.08 124.77 82.16 125.54 83.25 126.31 C 79.40 126.79 75.52 126.86 71.66 126.63 C 72.26 124.06 72.48 121.29 73.89 118.99 Z" />
<path fill="#786848" opacity="1.00" d=" M 81.28 139.65 C 88.42 138.60 95.80 138.15 102.85 140.04 C 103.94 140.97 104.89 142.05 105.86 143.11 C 100.20 143.83 94.46 144.48 88.79 143.46 C 86.24 142.28 83.77 140.95 81.28 139.65 Z" />
<path fill="#786848" opacity="1.00" d=" M 61.18 144.41 C 60.83 142.41 64.12 141.24 65.35 142.69 C 64.45 144.15 62.87 144.89 61.18 144.41 Z" />
<path fill="#786848" opacity="1.00" d=" M 96.05 146.93 C 100.72 147.97 105.45 148.78 110.23 149.20 C 109.25 149.56 108.28 149.92 107.31 150.28 C 106.59 152.14 105.86 153.99 105.11 155.84 C 105.04 153.85 104.98 151.86 104.91 149.88 C 104.11 149.89 102.49 149.92 101.69 149.93 C 100.19 149.96 98.69 150.00 97.19 150.03 C 96.81 148.99 96.43 147.96 96.05 146.93 Z" />
<path fill="#786848" opacity="1.00" d=" M 52.71 158.58 C 54.18 157.34 55.58 156.02 56.99 154.71 C 57.91 155.44 58.84 156.18 59.77 156.91 C 63.59 160.01 67.87 162.63 72.66 163.93 C 74.16 164.38 75.67 164.81 77.17 165.29 C 74.71 167.82 72.90 170.86 71.31 173.99 C 70.10 175.98 68.72 177.87 67.36 179.76 C 61.15 185.03 52.54 184.79 44.88 185.33 C 43.72 184.59 42.65 183.71 41.57 182.85 C 45.86 181.61 50.41 180.69 54.18 178.18 C 56.40 176.12 56.86 172.88 58.21 170.28 C 58.50 171.15 58.79 172.02 59.09 172.90 C 62.27 170.56 64.92 167.58 66.75 164.07 C 64.32 165.19 61.91 166.35 59.63 167.75 C 60.32 164.74 61.02 160.77 58.42 158.47 C 58.11 158.45 57.50 158.41 57.19 158.40 C 55.70 158.38 54.20 158.50 52.71 158.58 Z" />
<path fill="#786848" opacity="1.00" d=" M 100.60 191.86 C 100.35 187.55 101.03 183.23 100.50 178.93 C 104.09 184.75 105.98 191.56 105.69 198.41 C 103.55 196.71 100.66 194.92 100.60 191.86 Z" />
<path fill="#786848" opacity="1.00" d=" M 57.32 201.20 C 59.69 199.34 62.01 197.42 64.30 195.45 C 63.49 196.98 62.69 198.52 61.88 200.06 C 67.59 200.01 73.30 199.96 79.01 199.93 C 78.76 199.43 78.26 198.43 78.00 197.94 C 81.46 198.58 84.99 198.78 88.49 199.01 C 92.69 199.89 96.95 200.46 101.23 200.66 C 95.18 201.20 89.13 201.89 83.04 201.99 C 74.45 202.32 65.90 201.09 57.32 201.20 Z" />
</g>
<g id="#c4c5b8ff">
<path fill="#c4c5b8" opacity="1.00" d=" M 74.75 40.94 C 81.35 40.14 87.94 41.69 94.18 43.70 C 98.38 45.08 102.62 47.26 105.04 51.12 C 105.61 51.98 106.16 52.85 106.72 53.72 C 105.77 56.17 104.85 58.63 103.91 61.09 C 105.83 58.66 107.23 55.21 110.50 54.37 C 113.52 53.55 116.57 52.82 119.49 51.66 L 119.97 51.95 C 123.19 53.64 126.59 55.87 126.67 59.94 C 123.67 65.74 122.98 72.49 119.19 77.89 C 117.99 75.23 116.90 71.76 113.84 70.77 C 110.98 70.70 108.47 72.40 106.19 73.94 C 103.54 67.60 101.74 60.80 97.88 55.04 C 96.46 53.01 94.36 50.48 91.56 51.38 C 88.26 55.20 86.79 60.20 84.40 64.58 C 84.09 60.00 83.45 55.44 82.30 51.00 C 80.99 51.94 79.67 52.88 78.36 53.83 C 77.69 49.41 76.98 44.89 74.75 40.94 Z" />
<path fill="#c4c5b8" opacity="1.00" d=" M 56.60 52.84 C 58.74 50.60 60.82 48.30 62.87 45.97 C 62.58 48.74 62.28 51.50 61.98 54.27 C 60.19 53.80 58.39 53.32 56.60 52.84 Z" />
<path fill="#c4c5b8" opacity="1.00" d=" M 65.13 62.59 C 69.45 58.32 77.48 61.25 80.36 66.02 C 78.59 67.03 76.83 65.55 75.16 65.03 C 72.01 63.53 68.51 63.21 65.13 62.59 Z" />
<path fill="#c4c5b8" opacity="1.00" d=" M 77.18 68.62 C 78.35 70.40 79.51 72.19 80.69 73.97 C 84.26 74.96 87.72 76.41 91.39 77.03 C 94.06 77.10 96.43 75.52 99.01 75.05 C 101.02 75.49 102.30 77.41 103.80 78.70 C 103.12 83.26 105.60 87.37 107.76 91.16 C 109.29 93.65 110.81 96.31 113.25 98.00 C 115.76 98.89 117.67 96.42 118.58 94.42 C 120.56 89.88 120.04 84.77 119.61 79.97 C 120.14 80.33 121.22 81.05 121.76 81.41 C 123.61 80.22 125.48 79.06 127.38 77.94 C 127.61 82.44 127.81 87.07 126.53 91.44 C 123.95 98.35 123.07 106.12 117.91 111.80 C 112.25 109.56 107.72 105.45 103.03 101.72 C 101.82 105.55 100.51 109.36 98.85 113.03 C 98.72 113.31 98.47 113.89 98.34 114.18 C 99.35 115.47 100.36 116.77 101.35 118.08 C 100.86 120.07 100.37 122.06 99.84 124.05 C 97.69 121.63 96.42 118.66 96.26 115.43 C 92.24 114.75 88.20 114.02 84.45 112.36 C 83.36 111.24 82.26 110.12 81.09 109.07 C 81.39 107.41 81.68 105.75 81.97 104.08 C 79.57 103.73 77.18 103.40 74.78 103.08 C 74.76 101.84 74.74 100.61 74.73 99.38 C 73.55 99.15 72.38 98.92 71.21 98.70 C 71.57 97.80 71.93 96.90 72.29 96.00 C 70.25 94.56 68.21 93.12 66.16 91.69 C 64.83 91.99 63.50 92.29 62.17 92.56 C 61.62 91.65 61.08 90.73 60.54 89.81 C 58.87 89.83 57.21 89.85 55.54 89.87 C 55.45 87.06 54.82 83.29 58.06 81.94 C 64.02 79.16 71.10 80.55 76.98 77.35 C 76.32 75.65 75.66 73.94 75.00 72.24 C 75.94 72.74 76.88 73.24 77.81 73.74 C 77.60 72.03 77.39 70.32 77.18 68.62 M 82.45 77.80 C 79.16 79.46 76.07 82.02 74.37 85.33 C 73.03 90.01 80.94 91.64 82.79 87.96 C 84.43 85.17 86.65 82.80 89.61 81.40 C 89.63 80.92 89.66 79.95 89.68 79.47 C 87.32 78.85 84.93 77.42 82.45 77.80 M 90.03 83.62 C 91.60 84.55 93.02 85.95 94.85 86.35 C 96.13 86.01 97.32 85.42 98.54 84.92 C 96.10 82.86 92.99 82.40 90.03 83.62 M 84.89 89.15 C 85.26 89.54 86.00 90.32 86.37 90.71 C 84.90 92.19 83.43 93.68 81.99 95.19 C 84.16 94.46 86.31 93.68 88.47 92.89 L 89.02 93.45 C 88.65 96.87 93.33 95.71 95.37 95.26 C 96.10 96.23 96.84 97.19 97.59 98.14 C 97.97 95.88 98.33 93.62 98.84 91.38 L 98.32 91.47 C 95.20 86.87 89.44 88.98 84.89 89.15 Z" />
<path fill="#c4c5b8" opacity="1.00" d=" M 81.82 115.12 C 82.77 114.74 83.72 114.35 84.66 113.96 C 85.88 116.66 88.67 117.86 91.19 119.06 C 91.47 120.13 91.75 121.20 92.02 122.27 C 89.08 122.82 86.11 123.22 83.12 123.38 C 82.40 121.32 81.67 119.27 80.94 117.23 C 81.23 116.52 81.52 115.82 81.82 115.12 Z" />
<path fill="#c4c5b8" opacity="1.00" d=" M 67.36 179.76 C 68.72 177.87 70.10 175.98 71.31 173.99 C 75.10 175.48 78.92 176.92 82.72 178.40 C 86.90 180.05 90.98 181.95 95.02 183.93 C 94.57 184.97 94.12 186.01 93.68 187.05 C 93.11 188.41 92.54 189.77 91.97 191.14 C 84.67 190.71 76.04 189.03 70.41 194.99 C 67.77 193.88 65.13 192.78 62.50 191.68 C 63.90 187.63 65.29 183.54 67.36 179.76 Z" />
</g>
<g id="#35312eff">
<path fill="#35312e" opacity="1.00" d=" M 69.34 69.12 C 70.34 67.61 72.85 69.33 71.68 70.78 C 70.68 72.27 68.18 70.57 69.34 69.12 Z" />
<path fill="#35312e" opacity="1.00" d=" M 90.03 83.62 C 92.99 82.40 96.10 82.86 98.54 84.92 C 97.32 85.42 96.13 86.01 94.85 86.35 C 93.02 85.95 91.60 84.55 90.03 83.62 Z" />
<path fill="#35312e" opacity="1.00" d=" M 86.37 90.71 C 87.06 91.44 87.77 92.17 88.47 92.89 C 86.31 93.68 84.16 94.46 81.99 95.19 C 83.43 93.68 84.90 92.19 86.37 90.71 Z" />
<path fill="#35312e" opacity="1.00" d=" M 89.02 93.45 C 89.63 92.78 90.26 92.11 90.90 91.46 C 93.35 91.90 95.87 92.03 98.32 91.47 L 98.84 91.38 C 98.33 93.62 97.97 95.88 97.59 98.14 C 96.84 97.19 96.10 96.23 95.37 95.26 C 93.33 95.71 88.65 96.87 89.02 93.45 Z" />
<path fill="#35312e" opacity="1.00" d=" M 64.03 99.46 C 66.42 99.20 68.82 98.95 71.21 98.70 C 71.87 101.49 72.53 104.28 73.22 107.07 C 75.90 107.48 78.59 107.99 81.09 109.07 C 82.26 110.12 83.36 111.24 84.45 112.36 C 84.50 112.76 84.61 113.56 84.66 113.96 C 83.72 114.35 82.77 114.74 81.82 115.12 C 81.52 115.82 81.23 116.52 80.94 117.23 C 78.58 117.73 76.01 117.76 73.89 118.99 C 72.48 121.29 72.26 124.06 71.66 126.63 C 69.48 127.82 67.28 128.99 65.08 130.13 C 63.10 128.49 60.99 127.03 58.84 125.65 C 62.78 124.94 66.96 124.41 70.41 122.25 C 72.32 116.74 70.80 110.81 70.04 105.22 C 67.63 107.70 65.34 110.28 63.11 112.92 C 60.74 116.54 56.59 117.84 52.53 118.44 C 52.87 116.53 53.20 114.62 53.65 112.73 C 54.19 111.18 55.24 109.88 56.13 108.53 C 57.12 110.06 58.22 111.52 59.29 113.00 C 61.62 110.99 63.97 109.00 66.32 107.00 C 65.56 104.49 64.79 101.97 64.03 99.46 Z" />
<path fill="#35312e" opacity="1.00" d=" M 83.12 123.38 C 86.11 123.22 89.08 122.82 92.02 122.27 C 95.56 123.27 99.06 124.41 102.47 125.78 C 100.91 125.86 99.35 125.92 97.78 125.95 C 92.94 125.64 88.07 125.66 83.25 126.31 C 82.16 125.54 81.08 124.77 80.00 124.01 C 81.04 123.79 82.08 123.58 83.12 123.38 Z" />
<path fill="#35312e" opacity="1.00" d=" M 109.49 124.26 C 111.00 123.09 115.00 123.15 115.43 125.25 C 113.44 125.08 111.25 125.38 109.49 124.26 Z" />
<path fill="#35312e" opacity="1.00" d=" M 129.94 130.38 C 130.29 131.96 130.59 133.56 130.91 135.16 C 131.75 135.24 133.44 135.39 134.28 135.47 C 132.63 135.71 130.98 135.94 129.33 136.17 C 129.55 134.24 129.75 132.31 129.94 130.38 Z" />
<path fill="#35312e" opacity="1.00" d=" M 69.29 136.68 C 81.48 137.19 93.71 137.84 105.91 137.22 C 104.89 138.15 103.87 139.10 102.85 140.04 C 95.80 138.15 88.42 138.60 81.28 139.65 C 83.77 140.95 86.24 142.28 88.79 143.46 C 84.22 143.33 79.57 142.77 75.75 140.02 C 73.63 140.59 71.53 141.19 69.42 141.80 C 69.40 141.04 69.38 140.29 69.36 139.54 C 69.34 138.59 69.31 137.63 69.29 136.68 Z" />
<path fill="#35312e" opacity="1.00" d=" M 59.77 156.91 C 62.82 153.10 66.14 149.51 69.91 146.41 C 70.08 146.74 70.44 147.41 70.62 147.74 C 70.78 149.25 70.91 150.77 71.03 152.29 C 72.36 151.90 73.69 151.52 75.02 151.13 C 73.17 152.49 71.31 153.85 69.48 155.23 C 69.94 155.39 70.87 155.70 71.33 155.86 C 72.47 156.51 73.58 157.21 74.69 157.91 C 73.99 159.90 73.31 161.91 72.66 163.93 C 67.87 162.63 63.59 160.01 59.77 156.91 Z" />
<path fill="#35312e" opacity="1.00" d=" M 89.22 149.44 C 90.61 148.97 91.10 149.44 90.69 150.85 C 89.29 151.32 88.80 150.85 89.22 149.44 Z" />
<path fill="#35312e" opacity="1.00" d=" M 86.28 150.49 C 89.19 155.56 95.30 156.42 100.26 158.46 L 100.99 158.73 C 99.52 158.60 98.05 158.47 96.59 158.26 C 93.41 157.78 90.27 157.13 87.13 156.49 C 85.90 157.94 84.65 159.38 83.42 160.84 C 82.29 159.64 81.16 158.45 80.03 157.26 C 81.27 156.28 82.51 155.31 83.77 154.36 C 84.37 154.45 85.58 154.62 86.19 154.70 C 86.33 153.30 86.31 151.89 86.28 150.49 Z" />
<path fill="#35312e" opacity="1.00" d=" M 101.69 149.93 C 102.49 149.92 104.11 149.89 104.91 149.88 C 104.98 151.86 105.04 153.85 105.11 155.84 C 103.53 155.81 101.95 155.79 100.37 155.76 C 100.67 153.79 101.17 151.85 101.69 149.93 Z" />
<path fill="#35312e" opacity="1.00" d=" M 54.65 166.43 C 55.74 164.82 56.92 163.28 58.21 161.83 C 57.83 163.96 56.91 165.84 54.65 166.43 Z" />
<path fill="#35312e" opacity="1.00" d=" M 59.63 167.75 C 61.91 166.35 64.32 165.19 66.75 164.07 C 64.92 167.58 62.27 170.56 59.09 172.90 C 58.79 172.02 58.50 171.15 58.21 170.28 C 58.67 169.42 59.14 168.58 59.63 167.75 Z" />
<path fill="#35312e" opacity="1.00" d=" M 71.31 173.99 C 72.90 170.86 74.71 167.82 77.17 165.29 C 78.12 169.50 74.55 172.21 71.31 173.99 Z" />
<path fill="#35312e" opacity="1.00" d=" M 99.43 176.64 C 99.82 177.39 100.17 178.15 100.50 178.93 C 101.03 183.23 100.35 187.55 100.60 191.86 C 100.66 194.92 103.55 196.71 105.69 198.41 C 112.50 200.99 120.16 198.12 127.19 199.86 C 129.60 201.99 128.33 205.84 128.79 208.71 C 95.26 208.76 61.72 208.73 28.18 208.72 C 28.29 206.06 28.14 203.35 28.75 200.73 C 29.70 199.36 31.51 199.50 32.97 199.39 C 37.87 199.17 43.17 200.29 47.65 197.70 C 50.25 196.42 53.80 194.68 53.27 191.18 C 50.64 189.00 47.59 187.41 44.88 185.33 C 52.54 184.79 61.15 185.03 67.36 179.76 C 65.29 183.54 63.90 187.63 62.50 191.68 C 65.13 192.78 67.77 193.88 70.41 194.99 C 72.91 196.04 75.41 197.13 78.00 197.94 C 78.26 198.43 78.76 199.43 79.01 199.93 C 73.30 199.96 67.59 200.01 61.88 200.06 C 62.69 198.52 63.49 196.98 64.30 195.45 C 62.01 197.42 59.69 199.34 57.32 201.20 C 65.90 201.09 74.45 202.32 83.04 201.99 C 89.13 201.89 95.18 201.20 101.23 200.66 C 96.95 200.46 92.69 199.89 88.49 199.01 C 89.66 196.39 90.84 193.77 91.97 191.14 C 92.54 189.77 93.11 188.41 93.68 187.05 C 94.11 187.37 94.97 188.01 95.39 188.33 C 96.75 184.43 97.96 180.49 99.43 176.64 Z" />
</g>
<g id="#97a559ff">
<path fill="#97a559" opacity="1.00" d=" M 53.65 112.73 C 53.20 114.62 52.87 116.53 52.53 118.44 C 56.59 117.84 60.74 116.54 63.11 112.92 C 63.86 113.03 65.37 113.25 66.12 113.35 C 64.37 115.73 62.85 118.52 60.13 119.91 C 57.10 121.40 53.76 122.10 50.48 122.86 C 49.98 122.97 48.96 123.17 48.45 123.27 C 49.15 119.33 51.09 115.78 53.65 112.73 Z" />
<path fill="#97a559" opacity="1.00" d=" M 71.66 126.63 C 75.52 126.86 79.40 126.79 83.25 126.31 C 88.07 125.66 92.94 125.64 97.78 125.95 C 101.14 126.82 104.42 127.96 107.71 129.04 C 107.79 130.27 107.87 131.51 107.92 132.75 C 108.04 134.33 108.13 137.24 105.91 137.22 C 93.71 137.84 81.48 137.19 69.29 136.68 C 65.57 136.94 64.71 133.04 65.08 130.13 C 67.28 128.99 69.48 127.82 71.66 126.63 Z" />
<path fill="#97a559" opacity="1.00" d=" M 65.35 142.69 C 66.51 141.43 67.97 140.52 69.36 139.54 C 69.38 140.29 69.40 141.04 69.42 141.80 C 71.53 141.19 73.63 140.59 75.75 140.02 C 79.57 142.77 84.22 143.33 88.79 143.46 C 94.46 144.48 100.20 143.83 105.86 143.11 C 108.81 143.87 111.27 146.16 111.51 149.32 L 110.23 149.20 C 105.45 148.78 100.72 147.97 96.05 146.93 C 96.43 147.96 96.81 148.99 97.19 150.03 C 98.69 150.00 100.19 149.96 101.69 149.93 C 101.17 151.85 100.67 153.79 100.37 155.76 C 100.34 156.44 100.29 157.78 100.26 158.46 C 95.30 156.42 89.19 155.56 86.28 150.49 C 86.31 151.89 86.33 153.30 86.19 154.70 C 85.58 154.62 84.37 154.45 83.77 154.36 C 82.22 151.38 80.90 147.99 78.08 145.97 C 75.55 144.42 72.50 145.71 69.91 146.41 C 66.14 149.51 62.82 153.10 59.77 156.91 C 58.84 156.18 57.91 155.44 56.99 154.71 C 55.58 156.02 54.18 157.34 52.71 158.58 C 51.77 159.31 50.80 159.98 49.78 160.59 C 51.29 157.09 53.91 154.28 56.66 151.71 C 56.61 148.67 56.68 143.40 61.18 144.41 C 62.87 144.89 64.45 144.15 65.35 142.69 M 89.22 149.44 C 88.80 150.85 89.29 151.32 90.69 150.85 C 91.10 149.44 90.61 148.97 89.22 149.44 Z" />
</g>
</svg>
