<?xml version="1.0" encoding="UTF-8" ?>
<!DOCTYPE svg PUBLIC "-//W3C//DTD SVG 1.1//EN" "http://www.w3.org/Graphics/SVG/1.1/DTD/svg11.dtd">
<svg width="155pt" height="210pt" viewBox="0 0 155 210" version="1.1" xmlns="http://www.w3.org/2000/svg">
<g id="#8b491fff">
<path fill="#8b491f" opacity="1.00" d=" M 55.09 59.07 C 62.39 57.39 67.14 50.70 74.10 48.28 C 78.18 49.22 81.35 52.26 85.25 53.66 C 89.38 54.31 93.62 53.47 97.76 54.21 C 103.09 55.12 108.50 55.37 113.91 55.38 C 114.99 58.41 116.25 61.54 116.06 64.83 C 115.87 66.84 115.57 68.83 115.27 70.82 C 111.71 66.63 108.61 61.93 104.03 58.75 C 105.16 61.79 106.75 64.66 108.84 67.15 C 113.67 72.90 115.88 80.21 118.32 87.16 C 112.35 86.00 107.14 82.51 103.66 77.55 C 105.15 76.53 106.64 75.50 108.13 74.48 C 106.07 67.57 102.20 61.43 97.91 55.71 C 95.15 57.85 92.79 60.56 92.20 64.11 C 91.50 63.37 90.78 62.63 90.06 61.90 C 91.98 68.67 94.58 75.33 94.96 82.43 C 88.02 81.47 84.81 74.83 80.33 70.36 C 81.94 74.82 83.84 79.17 86.08 83.36 C 85.32 87.07 83.71 90.50 81.74 93.71 C 74.77 86.58 67.48 79.37 58.05 75.60 C 57.54 73.16 56.71 70.79 55.82 68.46 C 55.14 70.20 54.51 71.95 54.01 73.74 C 52.34 73.49 50.68 73.24 49.01 72.99 C 49.24 77.76 49.85 82.50 50.05 87.26 C 48.48 95.43 49.50 103.70 49.17 111.94 C 47.38 112.21 45.58 112.48 43.79 112.75 C 43.33 113.89 42.87 115.04 42.41 116.18 C 39.94 112.49 41.22 107.95 41.54 103.87 C 39.05 108.00 35.80 112.62 37.01 117.69 C 38.54 122.21 43.50 123.57 47.70 124.26 C 46.96 129.93 48.64 135.48 49.17 141.09 C 48.34 140.53 47.52 139.97 46.69 139.41 C 43.98 137.52 41.12 135.87 38.17 134.40 C 39.36 137.32 40.60 140.23 42.11 143.00 C 37.31 140.28 33.09 136.64 29.87 132.15 C 28.60 133.06 27.33 133.97 26.06 134.88 C 24.04 130.95 21.25 126.82 22.22 122.17 C 23.84 113.11 31.90 107.00 34.16 98.17 C 34.46 96.15 33.30 94.27 32.88 92.34 C 30.99 86.66 33.31 80.82 34.37 75.23 C 35.04 71.63 39.01 70.55 41.47 68.44 C 42.75 66.78 43.10 64.61 43.82 62.68 C 47.44 61.07 51.23 59.93 55.09 59.07 M 77.93 59.90 C 80.53 64.25 84.05 67.94 86.89 72.11 C 88.77 74.85 90.79 77.50 93.02 79.96 C 90.72 75.66 87.79 71.70 85.81 67.21 C 84.83 65.24 84.06 63.11 82.60 61.42 C 81.15 60.64 79.50 60.35 77.93 59.90 Z" />
<path fill="#8b491f" opacity="1.00" d=" M 123.00 118.01 C 123.96 114.59 125.36 111.30 127.53 108.47 C 130.02 113.15 133.83 118.28 132.14 123.88 C 130.34 129.65 127.14 134.87 123.97 139.98 C 122.81 142.02 120.90 143.41 118.88 144.52 L 118.67 143.45 C 117.89 139.53 117.32 135.42 118.42 131.49 C 119.67 126.90 121.86 122.63 123.00 118.01 Z" />
<path fill="#8b491f" opacity="1.00" d=" M 77.55 137.33 C 79.01 137.63 80.49 137.84 81.98 138.02 C 85.56 138.37 89.18 138.37 92.77 138.03 C 92.38 139.26 91.99 140.49 91.65 141.74 C 90.95 144.30 90.40 146.91 89.98 149.54 C 89.60 151.69 89.17 153.84 88.90 156.02 C 87.48 156.09 86.07 156.18 84.66 156.09 C 84.35 155.89 83.74 155.50 83.43 155.30 C 83.47 152.79 83.55 150.27 83.63 147.75 C 82.31 147.25 80.96 146.80 79.62 146.32 C 78.73 146.17 77.28 145.06 76.84 146.43 C 75.15 149.85 73.09 153.15 69.79 155.25 C 68.05 154.87 66.33 154.41 64.60 153.97 C 64.87 155.44 65.14 156.91 65.41 158.38 C 64.42 158.25 63.43 158.12 62.44 157.99 C 63.07 155.62 63.52 153.22 64.15 150.86 L 64.53 150.50 C 66.21 149.94 68.17 149.80 69.53 148.58 C 71.06 146.68 71.98 144.38 73.11 142.24 C 75.08 141.09 77.25 139.83 77.55 137.33 Z" />
<path fill="#8b491f" opacity="1.00" d=" M 70.26 158.18 C 72.96 157.80 77.64 158.17 77.16 161.95 C 77.55 165.63 71.86 166.58 70.33 163.58 C 69.95 161.80 70.22 159.97 70.26 158.18 Z" />
<path fill="#8b491f" opacity="1.00" d=" M 103.82 168.33 C 105.53 168.37 107.43 168.14 108.97 169.08 C 112.73 172.60 114.00 178.59 111.39 183.17 C 108.38 178.74 105.26 174.25 103.98 168.96 L 103.82 168.33 Z" />
</g>
<g id="#a96c43ff">
<path fill="#a96c43" opacity="1.00" d=" M 92.20 64.11 C 92.79 60.56 95.15 57.85 97.91 55.71 C 102.20 61.43 106.07 67.57 108.13 74.48 C 106.64 75.50 105.15 76.53 103.66 77.55 C 100.22 73.12 96.79 68.66 92.78 64.73 L 92.20 64.11 Z" />
<path fill="#a96c43" opacity="1.00" d=" M 77.93 59.90 C 79.50 60.35 81.15 60.64 82.60 61.42 C 84.06 63.11 84.83 65.24 85.81 67.21 C 87.79 71.70 90.72 75.66 93.02 79.96 C 90.79 77.50 88.77 74.85 86.89 72.11 C 84.05 67.94 80.53 64.25 77.93 59.90 Z" />
<path fill="#a96c43" opacity="1.00" d=" M 37.01 117.69 C 35.80 112.62 39.05 108.00 41.54 103.87 C 41.22 107.95 39.94 112.49 42.41 116.18 C 44.20 118.30 46.14 120.28 47.86 122.46 C 47.82 122.91 47.74 123.81 47.70 124.26 C 43.50 123.57 38.54 122.21 37.01 117.69 Z" />
<path fill="#a96c43" opacity="1.00" d=" M 79.62 146.32 C 80.96 146.80 82.31 147.25 83.63 147.75 C 83.55 150.27 83.47 152.79 83.43 155.30 C 81.95 155.24 80.46 155.28 78.97 155.34 C 79.21 152.34 79.47 149.33 79.62 146.32 Z" />
</g>
<g id="#4d3521ff">
<path fill="#4d3521" opacity="1.00" d=" M 104.03 58.75 C 108.61 61.93 111.71 66.63 115.27 70.82 C 115.57 68.83 115.87 66.84 116.06 64.83 C 116.69 67.38 116.98 70.20 118.86 72.21 C 120.18 74.09 122.27 75.87 122.00 78.40 C 121.95 80.46 121.93 82.52 121.93 84.57 C 121.74 88.60 119.67 92.18 118.23 95.85 C 121.23 100.13 124.84 103.97 127.53 108.47 C 125.36 111.30 123.96 114.59 123.00 118.01 C 123.04 117.79 123.11 117.34 123.14 117.11 C 121.14 117.00 118.45 117.89 117.23 115.72 C 114.08 110.85 116.24 104.75 115.18 99.35 C 114.16 94.29 113.73 88.09 108.88 85.10 C 101.61 80.08 96.20 72.82 92.78 64.73 C 96.79 68.66 100.22 73.12 103.66 77.55 C 107.14 82.51 112.35 86.00 118.32 87.16 C 115.88 80.21 113.67 72.90 108.84 67.15 C 106.75 64.66 105.16 61.79 104.03 58.75 Z" />
<path fill="#4d3521" opacity="1.00" d=" M 63.42 101.47 C 68.07 101.87 72.73 102.09 77.40 102.19 C 72.78 103.11 68.17 104.06 63.58 105.14 C 65.63 107.01 67.69 108.87 69.76 110.72 C 68.70 111.78 67.64 112.84 66.59 113.91 C 70.32 116.01 73.97 118.29 77.90 120.02 C 73.01 118.87 68.47 116.67 63.82 114.84 C 63.84 118.71 64.08 122.58 64.52 126.42 C 66.20 126.92 67.88 127.45 69.59 127.86 C 71.32 131.67 73.80 135.26 77.55 137.33 C 77.25 139.83 75.08 141.09 73.11 142.24 C 71.98 144.38 71.06 146.68 69.53 148.58 C 68.17 149.80 66.21 149.94 64.53 150.50 C 63.27 149.59 62.01 148.70 60.75 147.80 C 61.11 140.83 60.43 133.78 61.80 126.88 C 62.97 121.07 62.31 115.15 62.00 109.30 C 62.34 106.66 62.89 104.07 63.42 101.47 Z" />
<path fill="#4d3521" opacity="1.00" d=" M 78.32 104.62 C 85.34 103.15 92.79 102.38 99.69 104.88 C 97.55 108.56 94.65 112.71 89.99 113.06 C 84.83 112.72 80.97 108.70 78.32 104.62 Z" />
<path fill="#4d3521" opacity="1.00" d=" M 69.35 105.18 C 70.34 103.66 72.85 105.37 71.68 106.82 C 70.69 108.33 68.18 106.62 69.35 105.18 Z" />
<path fill="#4d3521" opacity="1.00" d=" M 97.84 143.33 C 102.30 146.17 107.68 146.28 112.69 145.06 C 112.11 147.00 111.39 148.93 111.23 150.96 C 111.66 153.03 113.07 154.73 114.03 156.58 C 108.25 160.22 102.67 154.04 96.82 153.84 C 96.15 151.26 95.48 148.69 94.84 146.10 C 95.83 145.17 96.83 144.25 97.84 143.33 Z" />
<path fill="#4d3521" opacity="1.00" d=" M 76.84 146.43 C 77.28 145.06 78.73 146.17 79.62 146.32 C 79.47 149.33 79.21 152.34 78.97 155.34 C 75.91 155.50 72.84 155.61 69.79 155.25 C 73.09 153.15 75.15 149.85 76.84 146.43 Z" />
<path fill="#4d3521" opacity="1.00" d=" M 50.43 161.89 C 53.45 161.79 56.47 161.72 59.50 161.73 L 59.46 162.78 C 59.37 164.38 59.35 165.99 59.32 167.60 C 55.62 168.46 51.81 168.22 48.12 167.46 C 48.30 167.05 48.66 166.21 48.84 165.80 C 49.39 164.50 49.91 163.20 50.43 161.89 Z" />
<path fill="#4d3521" opacity="1.00" d=" M 83.89 168.00 C 86.43 168.20 88.98 168.38 91.53 168.50 L 92.51 168.56 C 91.72 170.45 91.64 172.95 89.92 174.25 C 87.58 174.07 85.41 173.07 83.24 172.24 C 83.46 170.83 83.68 169.41 83.89 168.00 Z" />
</g>
<g id="#331f10ff">
<path fill="#331f10" opacity="1.00" d=" M 90.06 61.90 C 90.78 62.63 91.50 63.37 92.20 64.11 L 92.78 64.73 C 96.20 72.82 101.61 80.08 108.88 85.10 C 113.73 88.09 114.16 94.29 115.18 99.35 C 116.24 104.75 114.08 110.85 117.23 115.72 C 118.45 117.89 121.14 117.00 123.14 117.11 C 123.11 117.34 123.04 117.79 123.00 118.01 C 121.86 122.63 119.67 126.90 118.42 131.49 C 117.32 135.42 117.89 139.53 118.67 143.45 C 116.65 139.10 112.96 136.04 108.47 134.46 C 106.98 136.27 105.45 138.04 103.87 139.78 C 102.97 137.60 101.99 135.43 101.50 133.11 C 101.65 129.40 102.64 125.71 104.61 122.55 C 106.80 118.74 110.01 115.31 110.75 110.84 C 111.02 106.68 107.46 103.22 108.07 99.01 C 108.52 95.19 109.05 91.36 109.10 87.50 C 101.47 85.88 94.04 82.67 86.08 83.36 C 83.84 79.17 81.94 74.82 80.33 70.36 C 84.81 74.83 88.02 81.47 94.96 82.43 C 94.58 75.33 91.98 68.67 90.06 61.90 Z" />
<path fill="#331f10" opacity="1.00" d=" M 58.05 75.60 C 67.48 79.37 74.77 86.58 81.74 93.71 C 80.81 95.52 80.20 97.47 79.61 99.42 C 81.42 99.82 83.23 100.23 85.05 100.63 C 82.50 101.15 79.95 101.67 77.40 102.19 C 76.89 100.39 76.39 98.60 75.88 96.80 C 75.09 96.85 73.53 96.94 72.74 96.99 C 73.27 98.55 73.79 100.12 74.32 101.69 C 71.68 100.81 68.61 100.05 67.40 97.25 C 68.67 95.50 69.91 93.72 71.04 91.87 C 70.28 90.12 69.31 88.21 67.36 87.58 C 64.85 86.34 62.29 88.11 59.94 88.90 C 59.53 84.44 58.69 80.03 58.05 75.60 Z" />
<path fill="#331f10" opacity="1.00" d=" M 43.79 112.75 C 45.58 112.48 47.38 112.21 49.17 111.94 C 48.97 115.47 48.39 118.96 47.86 122.46 C 46.14 120.28 44.20 118.30 42.41 116.18 C 42.87 115.04 43.33 113.89 43.79 112.75 Z" />
<path fill="#331f10" opacity="1.00" d=" M 38.17 134.40 C 41.12 135.87 43.98 137.52 46.69 139.41 C 46.16 141.29 45.94 143.35 44.75 144.97 C 43.52 144.91 42.65 144.04 42.11 143.00 C 40.60 140.23 39.36 137.32 38.17 134.40 Z" />
<path fill="#331f10" opacity="1.00" d=" M 89.98 149.54 C 90.40 146.91 90.95 144.30 91.65 141.74 C 93.71 142.28 95.77 142.82 97.84 143.33 C 96.83 144.25 95.83 145.17 94.84 146.10 C 95.48 148.69 96.15 151.26 96.82 153.84 C 94.28 153.92 91.83 153.27 89.73 151.82 C 89.80 151.25 89.92 150.11 89.98 149.54 Z" />
</g>
<g id="#d8d1bcff">
<path fill="#d8d1bc" opacity="1.00" d=" M 54.01 73.74 C 54.51 71.95 55.14 70.20 55.82 68.46 C 56.71 70.79 57.54 73.16 58.05 75.60 C 58.69 80.03 59.53 84.44 59.94 88.90 C 59.96 92.25 59.28 95.66 60.02 98.98 C 60.76 102.40 61.65 105.80 62.00 109.30 C 62.31 115.15 62.97 121.07 61.80 126.88 C 60.43 133.78 61.11 140.83 60.75 147.80 C 60.68 149.02 60.60 150.24 60.51 151.46 C 59.02 151.65 57.54 151.85 56.05 152.01 C 53.08 151.19 50.79 149.07 48.80 146.82 C 49.08 144.93 49.34 143.01 49.17 141.09 C 48.64 135.48 46.96 129.93 47.70 124.26 C 47.74 123.81 47.82 122.91 47.86 122.46 C 48.39 118.96 48.97 115.47 49.17 111.94 C 49.50 103.70 48.48 95.43 50.05 87.26 C 51.27 87.78 52.49 88.31 53.70 88.84 C 53.73 83.81 53.63 78.77 54.01 73.74 Z" />
<path fill="#d8d1bc" opacity="1.00" d=" M 64.77 90.63 C 66.85 91.05 68.95 91.45 71.04 91.87 C 69.91 93.72 68.67 95.50 67.40 97.25 C 66.58 96.41 65.75 95.59 64.92 94.77 C 64.88 93.39 64.83 92.01 64.77 90.63 Z" />
<path fill="#d8d1bc" opacity="1.00" d=" M 103.64 90.71 C 106.62 93.30 106.35 97.82 105.21 101.25 C 102.43 103.05 99.06 102.45 96.03 101.78 C 97.62 101.21 101.43 102.03 99.99 99.25 L 100.50 99.01 C 101.56 98.50 102.63 98.02 103.69 97.53 C 103.63 95.25 103.60 92.98 103.64 90.71 Z" />
<path fill="#d8d1bc" opacity="1.00" d=" M 88.90 156.02 C 89.17 153.84 89.60 151.69 89.98 149.54 C 89.92 150.11 89.80 151.25 89.73 151.82 C 89.57 153.50 89.37 155.18 89.12 156.85 L 88.90 156.02 Z" />
<path fill="#d8d1bc" opacity="1.00" d=" M 45.82 167.10 C 46.39 167.19 47.54 167.37 48.12 167.46 C 51.81 168.22 55.62 168.46 59.32 167.60 C 59.75 168.09 60.19 168.59 60.63 169.09 C 60.20 170.29 59.70 171.46 59.22 172.64 C 57.71 172.66 56.20 172.68 54.70 172.70 C 54.62 171.66 54.53 170.62 54.45 169.58 C 53.07 170.54 51.70 171.52 50.41 172.60 C 48.78 170.85 47.23 169.03 45.82 167.10 Z" />
<path fill="#d8d1bc" opacity="1.00" d=" M 49.29 173.76 C 52.47 174.07 55.66 174.24 58.86 174.34 C 58.37 175.45 57.90 176.57 57.43 177.69 C 54.88 177.60 52.32 177.52 49.76 177.46 C 49.65 176.54 49.41 174.69 49.29 173.76 Z" />
</g>
<g id="#1c1916ff">
<path fill="#1c1916" opacity="1.00" d=" M 49.01 72.99 C 50.68 73.24 52.34 73.49 54.01 73.74 C 53.63 78.77 53.73 83.81 53.70 88.84 C 52.49 88.31 51.27 87.78 50.05 87.26 C 49.85 82.50 49.24 77.76 49.01 72.99 Z" />
<path fill="#1c1916" opacity="1.00" d=" M 97.23 98.02 C 97.84 95.53 100.05 94.03 102.04 92.70 C 102.76 94.97 102.41 97.43 100.50 99.01 L 99.99 99.25 C 98.82 100.30 97.44 99.40 97.23 98.02 Z" />
<path fill="#1c1916" opacity="1.00" d=" M 64.60 153.97 C 66.33 154.41 68.05 154.87 69.79 155.25 C 72.84 155.61 75.91 155.50 78.97 155.34 C 80.46 155.28 81.95 155.24 83.43 155.30 C 83.74 155.50 84.35 155.89 84.66 156.09 C 86.07 156.18 87.48 156.09 88.90 156.02 L 89.12 156.85 C 89.59 159.31 92.38 159.79 94.29 160.72 C 98.33 162.25 102.95 164.27 103.98 168.96 C 105.26 174.25 108.38 178.74 111.39 183.17 C 111.57 183.44 111.92 183.99 112.10 184.26 C 113.98 185.18 116.11 185.81 117.61 187.34 C 117.92 189.17 117.95 191.04 118.05 192.91 C 90.89 193.09 63.73 193.01 36.57 192.95 C 36.90 190.49 35.77 186.91 38.67 185.68 C 41.86 184.62 45.31 184.87 48.63 184.67 C 49.98 185.32 51.28 186.17 52.74 186.57 C 55.64 185.85 58.39 184.53 61.38 184.12 C 60.91 182.14 60.46 180.16 60.18 178.14 C 60.21 177.14 60.26 176.13 60.34 175.13 C 59.97 174.30 59.59 173.47 59.22 172.64 C 59.70 171.46 60.20 170.29 60.63 169.09 C 60.91 166.64 60.82 164.17 60.93 161.72 C 61.47 160.49 61.99 159.25 62.44 157.99 C 63.43 158.12 64.42 158.25 65.41 158.38 C 65.14 156.91 64.87 155.44 64.60 153.97 M 70.26 158.18 C 70.22 159.97 69.95 161.80 70.33 163.58 C 71.86 166.58 77.55 165.63 77.16 161.95 C 77.64 158.17 72.96 157.80 70.26 158.18 M 83.89 168.00 C 83.68 169.41 83.46 170.83 83.24 172.24 C 85.41 173.07 87.58 174.07 89.92 174.25 C 91.64 172.95 91.72 170.45 92.51 168.56 L 91.53 168.50 C 91.09 167.04 90.65 165.57 90.23 164.11 C 87.53 164.31 84.73 165.07 83.89 168.00 M 72.06 183.22 C 72.02 183.68 71.95 184.60 71.91 185.06 C 75.51 185.32 79.14 185.43 82.71 184.82 C 82.28 184.66 81.42 184.35 80.99 184.19 C 79.60 181.58 77.15 180.07 74.15 180.50 C 73.62 178.51 73.07 176.54 72.43 174.59 C 71.34 177.36 71.82 180.35 72.06 183.22 M 86.86 183.81 C 91.55 184.70 96.33 184.96 101.10 184.64 C 97.65 182.13 94.32 178.92 90.03 178.03 C 87.28 178.16 87.45 181.83 86.86 183.81 Z" />
</g>
<g id="#6a6756ff">
<path fill="#6a6756" opacity="1.00" d=" M 122.00 78.40 C 123.99 79.03 123.91 83.97 121.93 84.57 C 121.93 82.52 121.95 80.46 122.00 78.40 Z" />
<path fill="#6a6756" opacity="1.00" d=" M 86.08 83.36 C 94.04 82.67 101.47 85.88 109.10 87.50 C 109.05 91.36 108.52 95.19 108.07 99.01 C 107.46 103.22 111.02 106.68 110.75 110.84 C 110.01 115.31 106.80 118.74 104.61 122.55 C 102.64 125.71 101.65 129.40 101.50 133.11 C 99.93 134.02 98.38 134.95 96.81 135.86 C 99.00 127.47 101.01 118.99 104.25 110.92 C 102.85 110.82 101.46 110.72 100.08 110.62 C 100.18 110.15 100.38 109.20 100.48 108.73 C 101.83 108.36 103.18 107.98 104.53 107.60 C 102.94 106.65 101.34 105.71 99.69 104.88 C 92.79 102.38 85.34 103.15 78.32 104.62 C 76.94 104.84 75.57 105.06 74.19 105.27 C 76.43 109.31 78.13 114.08 82.07 116.80 C 87.01 118.29 92.35 117.87 97.28 119.56 C 90.87 120.34 84.33 120.59 77.90 120.02 C 73.97 118.29 70.32 116.01 66.59 113.91 C 67.64 112.84 68.70 111.78 69.76 110.72 C 67.69 108.87 65.63 107.01 63.58 105.14 C 68.17 104.06 72.78 103.11 77.40 102.19 C 79.95 101.67 82.50 101.15 85.05 100.63 C 83.23 100.23 81.42 99.82 79.61 99.42 C 80.20 97.47 80.81 95.52 81.74 93.71 C 83.71 90.50 85.32 87.07 86.08 83.36 M 103.64 90.71 C 103.60 92.98 103.63 95.25 103.69 97.53 C 102.63 98.02 101.56 98.50 100.50 99.01 C 102.41 97.43 102.76 94.97 102.04 92.70 C 100.05 94.03 97.84 95.53 97.23 98.02 C 97.44 99.40 98.82 100.30 99.99 99.25 C 101.43 102.03 97.62 101.21 96.03 101.78 C 99.06 102.45 102.43 103.05 105.21 101.25 C 106.35 97.82 106.62 93.30 103.64 90.71 M 69.35 105.18 C 68.18 106.62 70.69 108.33 71.68 106.82 C 72.85 105.37 70.34 103.66 69.35 105.18 Z" />
<path fill="#6a6756" opacity="1.00" d=" M 69.59 127.86 C 73.87 128.27 78.17 128.77 82.32 130.01 C 81.71 131.02 81.11 132.03 80.52 133.04 C 81.00 134.70 81.49 136.36 81.98 138.02 C 80.49 137.84 79.01 137.63 77.55 137.33 C 73.80 135.26 71.32 131.67 69.59 127.86 Z" />
<path fill="#6a6756" opacity="1.00" d=" M 112.69 145.06 C 114.91 146.17 117.07 147.39 119.16 148.75 C 117.66 151.49 115.96 154.12 114.03 156.58 C 113.07 154.73 111.66 153.03 111.23 150.96 C 111.39 148.93 112.11 147.00 112.69 145.06 Z" />
<path fill="#6a6756" opacity="1.00" d=" M 60.75 147.80 C 62.01 148.70 63.27 149.59 64.53 150.50 L 64.15 150.86 C 62.63 152.40 60.24 153.59 60.04 155.99 C 59.69 157.88 59.58 159.81 59.50 161.73 C 56.47 161.72 53.45 161.79 50.43 161.89 C 49.91 163.20 49.39 164.50 48.84 165.80 C 49.12 163.87 49.32 161.94 49.46 160.01 C 51.96 159.65 54.46 159.31 56.97 158.97 C 54.88 158.14 52.80 157.32 50.72 156.49 C 52.43 156.59 54.13 156.69 55.84 156.79 C 54.43 155.39 53.03 153.98 51.62 152.58 C 53.10 152.38 54.57 152.18 56.05 152.01 C 57.54 151.85 59.02 151.65 60.51 151.46 C 60.60 150.24 60.68 149.02 60.75 147.80 Z" />
<path fill="#6a6756" opacity="1.00" d=" M 59.46 162.78 C 59.83 162.51 60.56 161.99 60.93 161.72 C 60.82 164.17 60.91 166.64 60.63 169.09 C 60.19 168.59 59.75 168.09 59.32 167.60 C 59.35 165.99 59.37 164.38 59.46 162.78 Z" />
<path fill="#6a6756" opacity="1.00" d=" M 53.77 181.11 C 55.90 180.11 58.03 179.11 60.18 178.14 C 60.46 180.16 60.91 182.14 61.38 184.12 C 58.39 184.53 55.64 185.85 52.74 186.57 C 51.28 186.17 49.98 185.32 48.63 184.67 C 50.20 183.29 51.86 181.99 53.77 181.11 Z" />
<path fill="#6a6756" opacity="1.00" d=" M 86.86 183.81 C 87.45 181.83 87.28 178.16 90.03 178.03 C 94.32 178.92 97.65 182.13 101.10 184.64 C 96.33 184.96 91.55 184.70 86.86 183.81 Z" />
<path fill="#6a6756" opacity="1.00" d=" M 72.06 183.22 C 75.04 183.49 78.04 183.69 80.99 184.19 C 81.42 184.35 82.28 184.66 82.71 184.82 C 79.14 185.43 75.51 185.32 71.91 185.06 C 71.95 184.60 72.02 183.68 72.06 183.22 Z" />
</g>
<g id="#8d8b7aff">
<path fill="#8d8b7a" opacity="1.00" d=" M 59.94 88.90 C 62.29 88.11 64.85 86.34 67.36 87.58 C 69.31 88.21 70.28 90.12 71.04 91.87 C 68.95 91.45 66.85 91.05 64.77 90.63 C 64.83 92.01 64.88 93.39 64.92 94.77 C 65.75 95.59 66.58 96.41 67.40 97.25 C 68.61 100.05 71.68 100.81 74.32 101.69 C 73.79 100.12 73.27 98.55 72.74 96.99 C 73.53 96.94 75.09 96.85 75.88 96.80 C 76.39 98.60 76.89 100.39 77.40 102.19 C 72.73 102.09 68.07 101.87 63.42 101.47 C 62.89 104.07 62.34 106.66 62.00 109.30 C 61.65 105.80 60.76 102.40 60.02 98.98 C 59.28 95.66 59.96 92.25 59.94 88.90 Z" />
<path fill="#8d8b7a" opacity="1.00" d=" M 74.19 105.27 C 75.57 105.06 76.94 104.84 78.32 104.62 C 80.97 108.70 84.83 112.72 89.99 113.06 C 94.65 112.71 97.55 108.56 99.69 104.88 C 101.34 105.71 102.94 106.65 104.53 107.60 C 103.18 107.98 101.83 108.36 100.48 108.73 C 100.38 109.20 100.18 110.15 100.08 110.62 C 101.46 110.72 102.85 110.82 104.25 110.92 C 101.01 118.99 99.00 127.47 96.81 135.86 C 96.70 136.30 96.48 137.17 96.37 137.60 C 95.17 137.76 93.97 137.90 92.77 138.03 C 89.18 138.37 85.56 138.37 81.98 138.02 C 81.49 136.36 81.00 134.70 80.52 133.04 C 81.11 132.03 81.71 131.02 82.32 130.01 C 78.17 128.77 73.87 128.27 69.59 127.86 C 67.88 127.45 66.20 126.92 64.52 126.42 C 64.08 122.58 63.84 118.71 63.82 114.84 C 68.47 116.67 73.01 118.87 77.90 120.02 C 84.33 120.59 90.87 120.34 97.28 119.56 C 92.35 117.87 87.01 118.29 82.07 116.80 C 78.13 114.08 76.43 109.31 74.19 105.27 Z" />
<path fill="#8d8b7a" opacity="1.00" d=" M 45.33 152.77 C 44.75 150.17 47.22 148.45 48.80 146.82 C 50.79 149.07 53.08 151.19 56.05 152.01 C 54.57 152.18 53.10 152.38 51.62 152.58 C 53.03 153.98 54.43 155.39 55.84 156.79 C 54.13 156.69 52.43 156.59 50.72 156.49 C 52.80 157.32 54.88 158.14 56.97 158.97 C 54.46 159.31 51.96 159.65 49.46 160.01 C 47.90 157.73 46.00 155.52 45.33 152.77 Z" />
<path fill="#8d8b7a" opacity="1.00" d=" M 83.89 168.00 C 84.73 165.07 87.53 164.31 90.23 164.11 C 90.65 165.57 91.09 167.04 91.53 168.50 C 88.98 168.38 86.43 168.20 83.89 168.00 Z" />
<path fill="#8d8b7a" opacity="1.00" d=" M 50.41 172.60 C 51.70 171.52 53.07 170.54 54.45 169.58 C 54.53 170.62 54.62 171.66 54.70 172.70 C 56.20 172.68 57.71 172.66 59.22 172.64 C 59.59 173.47 59.97 174.30 60.34 175.13 C 60.26 176.13 60.21 177.14 60.18 178.14 C 58.03 179.11 55.90 180.11 53.77 181.11 C 52.11 180.31 50.97 178.79 49.76 177.46 C 52.32 177.52 54.88 177.60 57.43 177.69 C 57.90 176.57 58.37 175.45 58.86 174.34 C 55.66 174.24 52.47 174.07 49.29 173.76 C 49.57 173.47 50.13 172.89 50.41 172.60 Z" />
</g>
</svg>
