<?xml version="1.0" encoding="UTF-8" ?>
<!DOCTYPE svg PUBLIC "-//W3C//DTD SVG 1.1//EN" "http://www.w3.org/Graphics/SVG/1.1/DTD/svg11.dtd">
<svg width="155pt" height="210pt" viewBox="0 0 155 210" version="1.1" xmlns="http://www.w3.org/2000/svg">
<g id="#ac9b8cff">
<path fill="#ac9b8c" opacity="1.00" d=" M 92.25 46.11 C 93.79 45.55 95.39 46.85 95.79 48.30 C 95.94 51.04 95.29 53.75 94.91 56.46 C 95.80 56.51 96.69 56.55 97.58 56.56 C 99.40 53.37 100.33 49.50 103.27 47.08 C 104.76 46.73 106.70 47.03 107.20 48.72 C 108.52 52.84 108.11 57.58 110.77 61.21 C 114.52 66.31 118.02 72.30 117.80 78.82 C 116.49 83.90 111.43 87.19 106.63 88.60 C 101.40 90.32 95.97 88.68 90.73 87.96 C 90.70 91.72 90.73 95.48 90.23 99.21 C 90.29 95.57 90.77 91.81 89.75 88.26 C 88.42 84.84 85.96 82.04 84.18 78.86 C 80.35 72.15 77.52 64.94 74.00 58.07 C 77.87 56.31 81.88 54.75 85.37 52.28 C 87.91 50.51 89.74 47.92 92.25 46.11 Z" />
<path fill="#ac9b8c" opacity="1.00" d=" M 41.00 57.00 C 45.48 54.15 50.97 52.14 56.31 53.47 C 61.24 54.66 66.12 56.20 71.23 56.40 C 66.80 56.33 62.46 57.47 58.51 59.45 C 52.89 62.44 45.93 59.91 40.60 63.79 C 47.39 63.44 54.26 62.32 60.97 64.03 C 51.82 68.38 43.87 75.29 33.91 77.85 C 31.42 78.41 28.65 79.05 26.21 77.96 C 25.00 75.68 24.32 73.17 23.46 70.75 C 27.89 69.23 32.61 68.20 36.50 65.50 C 38.24 62.80 38.06 58.84 41.00 57.00 Z" />
<path fill="#ac9b8c" opacity="1.00" d=" M 56.89 74.79 C 59.43 71.81 63.23 70.96 67.00 71.07 C 63.73 72.57 60.37 73.86 56.89 74.79 Z" />
<path fill="#ac9b8c" opacity="1.00" d=" M 58.01 80.98 C 60.39 77.83 64.52 75.38 68.54 76.59 C 72.84 78.44 76.61 82.92 75.69 87.86 C 75.34 91.83 71.62 94.00 68.65 95.97 C 68.06 90.00 65.97 84.25 61.86 79.79 C 62.27 85.86 65.06 91.31 66.74 97.06 C 62.34 97.49 56.92 99.05 53.32 95.67 C 52.21 90.32 54.86 85.11 58.01 80.98 Z" />
<path fill="#ac9b8c" opacity="1.00" d=" M 73.50 100.82 C 76.02 98.32 79.06 95.37 82.89 95.66 C 84.97 95.90 87.98 97.37 87.19 99.92 C 85.89 105.07 80.58 107.23 76.36 109.52 C 69.08 113.13 64.15 119.98 57.06 123.87 C 55.83 124.52 54.48 124.94 53.11 125.18 C 48.94 125.46 44.76 125.30 40.60 125.18 C 40.43 121.32 40.75 117.43 41.98 113.75 C 45.64 114.30 48.11 117.21 50.62 119.64 C 51.16 118.05 52.10 116.64 52.63 115.06 C 55.58 115.54 58.57 115.49 61.51 115.00 C 61.43 113.50 61.34 112.00 61.26 110.50 C 63.47 109.99 65.89 109.92 67.87 108.73 C 70.30 106.54 71.65 103.47 73.50 100.82 Z" />
<path fill="#ac9b8c" opacity="1.00" d=" M 90.74 121.35 C 91.26 119.54 92.28 117.93 93.12 116.26 C 95.29 118.34 97.30 120.58 99.18 122.93 C 99.89 121.68 100.60 120.43 101.32 119.19 C 102.64 118.10 104.19 117.25 105.89 116.98 C 107.86 118.64 108.82 121.10 110.06 123.28 C 115.20 121.14 120.42 118.61 126.15 118.85 C 124.92 120.95 123.44 123.29 120.71 123.34 C 111.64 124.98 104.06 130.64 96.26 135.18 C 90.84 138.39 85.10 141.24 80.62 145.78 C 88.74 145.98 96.86 145.43 104.99 145.61 C 117.73 145.65 130.43 146.69 143.09 148.01 C 145.88 148.64 150.35 149.39 150.82 152.73 C 145.38 154.59 139.51 153.42 133.88 153.94 C 137.76 153.44 141.66 153.10 145.53 152.51 C 140.35 150.15 134.59 150.50 129.05 150.20 C 117.37 149.59 105.68 149.27 93.98 149.20 C 88.81 149.22 83.66 148.33 78.49 148.67 C 78.25 149.57 78.44 150.37 79.04 151.07 C 81.56 154.18 84.91 156.48 87.84 159.18 C 97.05 167.51 106.80 175.24 115.72 183.89 C 116.11 184.47 116.88 185.64 117.27 186.22 C 116.81 186.02 115.89 185.61 115.43 185.40 C 111.84 183.51 108.69 180.94 105.47 178.52 C 95.17 170.36 84.77 162.13 76.26 152.04 C 75.04 154.58 73.82 157.12 72.62 159.67 C 71.95 159.74 70.62 159.87 69.96 159.93 C 70.97 156.65 71.99 153.37 73.03 150.10 C 69.49 151.38 65.89 154.19 61.96 153.01 C 62.78 151.13 64.79 150.39 66.45 149.46 C 71.08 147.16 75.32 144.16 80.03 141.99 C 84.00 140.15 87.86 137.19 89.30 132.91 C 88.96 131.48 88.25 130.18 87.65 128.85 C 88.23 128.67 88.80 128.48 89.38 128.30 C 89.81 128.90 90.66 130.10 91.09 130.70 C 91.70 129.85 92.30 129.00 92.87 128.12 C 92.73 127.78 92.45 127.09 92.31 126.75 C 91.69 124.99 90.64 123.25 90.74 121.35 Z" />
<path fill="#ac9b8c" opacity="1.00" d=" M 42.53 140.54 C 44.52 137.45 47.88 135.80 50.97 134.04 C 49.79 137.81 48.72 141.67 46.60 145.05 C 46.99 146.60 47.38 148.14 47.78 149.68 C 46.80 149.98 45.83 150.28 44.85 150.58 C 44.17 149.72 43.48 148.86 42.79 148.01 C 41.67 154.31 41.54 160.72 41.36 167.10 C 38.54 167.95 35.70 168.81 32.97 169.93 C 34.60 168.55 37.02 167.77 37.96 165.78 C 37.73 161.49 36.80 157.23 37.20 152.92 C 37.27 148.25 40.00 144.26 42.53 140.54 Z" />
<path fill="#ac9b8c" opacity="1.00" d=" M 44.39 168.05 C 45.14 165.24 48.25 162.52 51.26 163.86 C 56.88 165.66 62.36 167.93 68.21 168.94 C 76.49 170.88 85.32 171.02 93.10 174.75 C 95.78 175.95 97.83 178.09 99.75 180.23 C 97.03 180.33 94.31 180.36 91.59 180.38 C 89.83 177.16 86.52 175.44 83.29 174.04 C 82.23 175.42 81.18 176.81 80.13 178.21 C 73.25 179.22 66.45 177.49 59.70 176.40 C 59.09 174.90 58.49 173.40 57.79 171.94 C 56.84 170.95 55.83 170.01 54.82 169.10 C 53.46 170.30 52.16 171.63 50.59 172.56 C 47.77 173.34 44.61 170.92 44.39 168.05 Z" />
<path fill="#ac9b8c" opacity="1.00" d=" M 44.11 183.70 C 48.80 184.69 53.59 185.07 58.32 185.84 C 53.90 186.71 49.24 187.59 44.84 186.18 C 41.35 185.04 37.70 184.41 34.02 184.78 C 37.38 184.42 40.74 183.99 44.11 183.70 Z" />
</g>
<g id="#412f3eff">
<path fill="#412f3e" opacity="1.00" d=" M 71.23 56.40 C 72.37 56.42 73.56 56.94 74.00 58.07 C 77.52 64.94 80.35 72.15 84.18 78.86 C 85.96 82.04 88.42 84.84 89.75 88.26 C 90.77 91.81 90.29 95.57 90.23 99.21 C 90.19 99.83 90.12 101.07 90.08 101.69 C 91.21 101.20 92.34 100.72 93.47 100.23 C 92.67 104.33 95.65 107.15 97.85 110.14 C 99.15 112.42 100.23 114.82 101.07 117.30 C 101.13 117.77 101.26 118.71 101.32 119.19 C 100.60 120.43 99.89 121.68 99.18 122.93 C 97.30 120.58 95.29 118.34 93.12 116.26 C 92.28 117.93 91.26 119.54 90.74 121.35 C 90.64 123.25 91.69 124.99 92.31 126.75 C 88.20 123.50 83.03 122.20 78.05 120.93 C 76.78 122.44 75.48 123.92 74.22 125.44 C 77.64 126.90 81.29 126.42 84.85 125.96 C 86.74 125.59 88.12 127.17 89.38 128.30 C 88.80 128.48 88.23 128.67 87.65 128.85 C 88.25 130.18 88.96 131.48 89.30 132.91 C 87.86 137.19 84.00 140.15 80.03 141.99 C 75.32 144.16 71.08 147.16 66.45 149.46 C 64.79 150.39 62.78 151.13 61.96 153.01 C 65.89 154.19 69.49 151.38 73.03 150.10 C 71.99 153.37 70.97 156.65 69.96 159.93 C 70.62 159.87 71.95 159.74 72.62 159.67 C 73.82 157.12 75.04 154.58 76.26 152.04 C 84.77 162.13 95.17 170.36 105.47 178.52 C 108.69 180.94 111.84 183.51 115.43 185.40 C 115.18 187.92 115.02 190.44 114.90 192.97 C 110.64 193.04 106.38 193.02 102.13 192.92 C 102.34 190.98 102.54 189.04 102.75 187.10 C 99.01 186.77 95.26 186.93 91.57 187.63 C 92.45 186.18 93.33 184.73 94.20 183.28 C 93.87 183.07 93.21 182.64 92.88 182.43 C 92.55 181.92 91.91 180.90 91.59 180.38 C 94.31 180.36 97.03 180.33 99.75 180.23 C 97.83 178.09 95.78 175.95 93.10 174.75 C 85.32 171.02 76.49 170.88 68.21 168.94 C 62.36 167.93 56.88 165.66 51.26 163.86 C 48.25 162.52 45.14 165.24 44.39 168.05 C 44.61 170.92 47.77 173.34 50.59 172.56 C 52.16 171.63 53.46 170.30 54.82 169.10 C 55.83 170.01 56.84 170.95 57.79 171.94 C 52.59 174.93 47.08 177.81 43.37 182.68 C 42.54 179.67 41.65 176.63 40.17 173.86 C 37.50 172.94 34.62 172.81 31.96 171.87 C 32.21 171.38 32.71 170.42 32.97 169.93 C 35.70 168.81 38.54 167.95 41.36 167.10 C 41.54 160.72 41.67 154.31 42.79 148.01 C 43.48 148.86 44.17 149.72 44.85 150.58 C 45.83 150.28 46.80 149.98 47.78 149.68 C 47.38 148.14 46.99 146.60 46.60 145.05 C 48.72 141.67 49.79 137.81 50.97 134.04 C 52.31 129.89 56.18 127.69 59.90 125.99 C 58.98 125.25 58.01 124.57 57.06 123.87 C 64.15 119.98 69.08 113.13 76.36 109.52 C 80.58 107.23 85.89 105.07 87.19 99.92 C 87.98 97.37 84.97 95.90 82.89 95.66 C 79.06 95.37 76.02 98.32 73.50 100.82 C 66.37 100.74 59.85 103.99 54.71 108.75 C 54.08 107.19 53.45 105.63 52.81 104.08 C 50.54 105.60 48.25 107.32 45.47 107.73 C 43.06 108.24 40.06 108.29 38.68 110.72 C 38.43 112.30 38.60 113.91 38.66 115.50 C 39.77 114.93 40.86 114.31 41.98 113.75 C 40.75 117.43 40.43 121.32 40.60 125.18 C 44.76 125.30 48.94 125.46 53.11 125.18 C 48.24 125.52 42.95 126.66 38.33 124.68 C 36.15 119.81 37.44 113.94 35.70 108.81 C 30.79 108.00 29.05 103.05 26.65 99.38 C 24.17 95.56 21.79 91.46 21.42 86.82 C 21.07 81.43 20.35 75.51 23.46 70.75 C 24.32 73.17 25.00 75.68 26.21 77.96 C 28.65 79.05 31.42 78.41 33.91 77.85 C 43.87 75.29 51.82 68.38 60.97 64.03 C 54.26 62.32 47.39 63.44 40.60 63.79 C 45.93 59.91 52.89 62.44 58.51 59.45 C 62.46 57.47 66.80 56.33 71.23 56.40 M 56.89 74.79 C 60.37 73.86 63.73 72.57 67.00 71.07 C 63.23 70.96 59.43 71.81 56.89 74.79 M 58.01 80.98 C 54.86 85.11 52.21 90.32 53.32 95.67 C 56.92 99.05 62.34 97.49 66.74 97.06 C 65.06 91.31 62.27 85.86 61.86 79.79 C 65.97 84.25 68.06 90.00 68.65 95.97 C 71.62 94.00 75.34 91.83 75.69 87.86 C 76.61 82.92 72.84 78.44 68.54 76.59 C 64.52 75.38 60.39 77.83 58.01 80.98 Z" />
<path fill="#412f3e" opacity="1.00" d=" M 96.26 135.18 C 104.06 130.64 111.64 124.98 120.71 123.34 C 120.39 125.71 119.98 128.33 121.56 130.37 C 126.68 138.44 135.74 142.39 143.09 148.01 C 130.43 146.69 117.73 145.65 104.99 145.61 C 96.86 145.43 88.74 145.98 80.62 145.78 C 85.10 141.24 90.84 138.39 96.26 135.18 Z" />
<path fill="#412f3e" opacity="1.00" d=" M 78.49 148.67 C 83.66 148.33 88.81 149.22 93.98 149.20 C 105.68 149.27 117.37 149.59 129.05 150.20 C 134.59 150.50 140.35 150.15 145.53 152.51 C 141.66 153.10 137.76 153.44 133.88 153.94 C 125.90 155.14 117.85 156.76 110.68 160.65 C 110.56 165.31 109.14 169.92 109.41 174.58 C 111.78 177.79 115.83 179.05 119.13 181.07 C 118.00 182.01 116.85 182.94 115.72 183.89 C 106.80 175.24 97.05 167.51 87.84 159.18 C 84.91 156.48 81.56 154.18 79.04 151.07 C 78.44 150.37 78.25 149.57 78.49 148.67 Z" />
<path fill="#412f3e" opacity="1.00" d=" M 57.79 171.94 C 58.49 173.40 59.09 174.90 59.70 176.40 C 66.45 177.49 73.25 179.22 80.13 178.21 C 80.40 179.17 80.67 180.13 80.94 181.09 C 73.27 182.42 65.56 181.01 58.17 178.93 C 58.07 176.59 57.95 174.27 57.79 171.94 Z" />
<path fill="#412f3e" opacity="1.00" d=" M 32.01 192.58 C 30.16 191.83 30.15 187.00 32.25 186.54 C 32.21 188.55 32.22 190.57 32.01 192.58 Z" />
</g>
<g id="#120a0cff">
<path fill="#120a0c" opacity="1.00" d=" M 54.71 108.75 C 59.85 103.99 66.37 100.74 73.50 100.82 C 71.65 103.47 70.30 106.54 67.87 108.73 C 65.89 109.92 63.47 109.99 61.26 110.50 C 61.34 112.00 61.43 113.50 61.51 115.00 C 58.57 115.49 55.58 115.54 52.63 115.06 C 52.10 116.64 51.16 118.05 50.62 119.64 C 48.11 117.21 45.64 114.30 41.98 113.75 C 40.86 114.31 39.77 114.93 38.66 115.50 C 38.60 113.91 38.43 112.30 38.68 110.72 C 40.06 108.29 43.06 108.24 45.47 107.73 C 48.25 107.32 50.54 105.60 52.81 104.08 C 53.45 105.63 54.08 107.19 54.71 108.75 Z" />
<path fill="#120a0c" opacity="1.00" d=" M 97.85 110.14 C 101.77 110.49 105.36 112.20 108.20 114.90 C 105.84 115.74 103.45 116.52 101.07 117.30 C 100.23 114.82 99.15 112.42 97.85 110.14 Z" />
<path fill="#120a0c" opacity="1.00" d=" M 78.05 120.93 C 83.03 122.20 88.20 123.50 92.31 126.75 C 92.45 127.09 92.73 127.78 92.87 128.12 C 92.30 129.00 91.70 129.85 91.09 130.70 C 90.66 130.10 89.81 128.90 89.38 128.30 C 88.12 127.17 86.74 125.59 84.85 125.96 C 81.29 126.42 77.64 126.90 74.22 125.44 C 75.48 123.92 76.78 122.44 78.05 120.93 Z" />
<path fill="#120a0c" opacity="1.00" d=" M 43.37 182.68 C 47.08 177.81 52.59 174.93 57.79 171.94 C 57.95 174.27 58.07 176.59 58.17 178.93 C 65.56 181.01 73.27 182.42 80.94 181.09 C 80.67 180.13 80.40 179.17 80.13 178.21 C 81.18 176.81 82.23 175.42 83.29 174.04 C 86.52 175.44 89.83 177.16 91.59 180.38 C 91.91 180.90 92.55 181.92 92.88 182.43 C 93.21 182.64 93.87 183.07 94.20 183.28 C 93.33 184.73 92.45 186.18 91.57 187.63 C 95.26 186.93 99.01 186.77 102.75 187.10 C 102.54 189.04 102.34 190.98 102.13 192.92 C 81.42 193.10 60.72 192.79 40.01 193.02 C 37.34 193.04 34.66 192.89 32.01 192.58 C 32.22 190.57 32.21 188.55 32.25 186.54 C 32.70 186.10 33.58 185.22 34.02 184.78 C 37.70 184.41 41.35 185.04 44.84 186.18 C 49.24 187.59 53.90 186.71 58.32 185.84 C 53.59 185.07 48.80 184.69 44.11 183.70 L 43.37 182.68 Z" />
</g>
</svg>
