<?xml version="1.0" encoding="UTF-8" ?>
<!DOCTYPE svg PUBLIC "-//W3C//DTD SVG 1.1//EN" "http://www.w3.org/Graphics/SVG/1.1/DTD/svg11.dtd">
<svg width="155pt" height="210pt" viewBox="0 0 155 210" version="1.1" xmlns="http://www.w3.org/2000/svg">
<g id="#dbd1b1ff">
<path fill="#dbd1b1" opacity="1.00" d=" M 61.48 65.53 C 65.59 64.06 69.70 62.47 73.98 61.60 C 76.94 62.45 79.44 64.36 82.03 65.95 C 86.20 68.76 90.96 70.81 94.36 74.65 C 91.93 73.78 89.48 73.01 87.04 72.19 C 85.93 73.11 84.81 74.04 83.69 74.97 C 79.28 73.42 74.89 71.28 70.13 71.25 C 60.09 71.85 50.27 78.53 47.41 88.41 C 45.08 96.78 49.20 105.15 52.91 112.46 C 59.98 111.72 65.85 107.68 71.97 104.46 C 72.63 106.52 73.88 108.54 73.78 110.76 C 73.09 112.64 71.37 113.89 70.09 115.36 C 69.46 114.75 68.83 114.15 68.21 113.55 C 69.32 112.03 70.38 110.48 71.38 108.88 C 68.52 110.77 66.12 113.26 63.32 115.24 C 60.66 116.69 57.52 116.77 54.62 117.39 C 57.95 123.04 63.94 126.16 68.04 131.12 C 67.73 132.15 67.42 133.18 67.11 134.22 C 64.16 132.29 61.29 130.19 58.05 128.78 C 54.33 126.69 50.52 132.22 47.02 130.10 C 44.85 125.58 45.29 120.25 43.62 115.51 C 42.90 120.59 42.65 125.72 42.58 130.84 C 42.07 130.79 41.07 130.68 40.57 130.63 C 40.49 127.98 40.45 125.33 40.44 122.68 C 37.67 126.01 34.63 129.35 30.49 130.96 C 29.02 130.85 27.97 129.65 26.73 129.00 C 28.58 126.78 30.50 124.62 32.35 122.39 C 35.26 122.55 38.17 122.11 41.07 121.82 C 41.11 117.69 41.83 113.17 39.69 109.43 C 38.09 108.07 36.12 107.27 34.27 106.33 C 33.78 101.88 33.33 97.39 33.69 92.91 C 35.48 88.07 37.93 83.30 41.57 79.59 C 47.78 74.35 54.06 68.97 61.48 65.53 Z" />
<path fill="#dbd1b1" opacity="1.00" d=" M 56.00 82.13 C 61.54 83.36 66.70 85.70 71.76 88.21 C 74.48 89.79 77.63 89.21 80.55 88.70 C 80.18 87.37 79.81 86.04 79.45 84.70 C 83.44 88.29 87.10 93.16 85.85 98.87 C 77.06 100.15 71.59 91.26 63.21 90.55 C 57.70 89.52 53.67 94.18 49.66 97.12 C 49.29 95.69 48.51 94.24 48.84 92.73 C 50.15 88.58 52.97 85.16 56.00 82.13 Z" />
<path fill="#dbd1b1" opacity="1.00" d=" M 102.54 81.88 C 105.41 82.71 107.30 85.01 108.38 87.70 C 107.72 88.31 107.07 88.93 106.42 89.54 C 103.82 91.96 101.53 94.68 99.30 97.43 C 100.72 98.46 102.13 99.49 103.54 100.52 C 100.08 99.73 96.61 99.00 93.11 98.38 C 92.71 93.97 92.66 89.53 92.80 85.11 C 94.80 87.22 97.34 89.90 100.58 88.71 C 102.67 87.08 102.28 84.21 102.54 81.88 Z" />
<path fill="#dbd1b1" opacity="1.00" d=" M 62.81 97.30 C 67.57 96.13 72.68 95.88 77.05 98.46 C 72.84 99.53 68.63 100.88 64.25 100.95 C 63.47 99.88 63.13 98.56 62.81 97.30 Z" />
<path fill="#dbd1b1" opacity="1.00" d=" M 70.83 125.96 C 80.41 123.03 90.61 123.36 100.21 120.54 C 102.64 122.66 104.96 124.90 107.24 127.20 C 106.63 130.24 105.04 132.93 103.27 135.43 C 101.55 134.29 99.99 132.63 97.90 132.25 C 93.20 132.21 88.72 134.38 83.99 133.91 C 80.23 133.40 76.73 131.85 73.16 130.64 C 72.42 129.06 71.62 127.51 70.83 125.96 Z" />
<path fill="#dbd1b1" opacity="1.00" d=" M 83.86 141.86 C 86.04 147.07 86.55 152.78 88.55 158.05 C 86.49 157.55 84.43 157.07 82.36 156.60 C 82.20 156.00 81.89 154.79 81.73 154.19 C 82.78 154.46 83.84 154.74 84.90 155.02 C 82.87 150.89 82.70 146.26 83.86 141.86 Z" />
</g>
<g id="#6d5748ff">
<path fill="#6d5748" opacity="1.00" d=" M 47.41 88.41 C 50.27 78.53 60.09 71.85 70.13 71.25 C 74.89 71.28 79.28 73.42 83.69 74.97 C 84.81 74.04 85.93 73.11 87.04 72.19 C 89.48 73.01 91.93 73.78 94.36 74.65 C 97.52 76.50 99.43 79.91 102.54 81.88 C 102.28 84.21 102.67 87.08 100.58 88.71 C 97.34 89.90 94.80 87.22 92.80 85.11 C 92.66 89.53 92.71 93.97 93.11 98.38 C 96.61 99.00 100.08 99.73 103.54 100.52 C 102.13 99.49 100.72 98.46 99.30 97.43 C 101.53 94.68 103.82 91.96 106.42 89.54 C 110.06 95.00 107.52 101.93 108.08 108.04 C 106.28 106.92 104.46 105.81 102.63 104.74 C 102.71 108.19 103.84 111.44 105.73 114.31 C 108.24 118.13 107.42 122.90 107.24 127.20 C 104.96 124.90 102.64 122.66 100.21 120.54 C 90.61 123.36 80.41 123.03 70.83 125.96 C 71.62 127.51 72.42 129.06 73.16 130.64 C 73.83 132.15 74.44 133.70 75.03 135.25 C 73.53 135.31 72.04 135.36 70.55 135.43 C 69.74 133.98 68.92 132.53 68.04 131.12 C 63.94 126.16 57.95 123.04 54.62 117.39 C 57.52 116.77 60.66 116.69 63.32 115.24 C 66.12 113.26 68.52 110.77 71.38 108.88 C 70.38 110.48 69.32 112.03 68.21 113.55 C 68.83 114.15 69.46 114.75 70.09 115.36 C 71.37 113.89 73.09 112.64 73.78 110.76 C 73.88 108.54 72.63 106.52 71.97 104.46 C 65.85 107.68 59.98 111.72 52.91 112.46 C 49.20 105.15 45.08 96.78 47.41 88.41 M 56.00 82.13 C 52.97 85.16 50.15 88.58 48.84 92.73 C 48.51 94.24 49.29 95.69 49.66 97.12 C 53.67 94.18 57.70 89.52 63.21 90.55 C 71.59 91.26 77.06 100.15 85.85 98.87 C 87.10 93.16 83.44 88.29 79.45 84.70 C 79.81 86.04 80.18 87.37 80.55 88.70 C 77.63 89.21 74.48 89.79 71.76 88.21 C 66.70 85.70 61.54 83.36 56.00 82.13 M 62.81 97.30 C 63.13 98.56 63.47 99.88 64.25 100.95 C 68.63 100.88 72.84 99.53 77.05 98.46 C 72.68 95.88 67.57 96.13 62.81 97.30 Z" />
<path fill="#6d5748" opacity="1.00" d=" M 33.46 106.47 C 33.28 101.95 33.08 97.41 33.69 92.91 C 33.33 97.39 33.78 101.88 34.27 106.33 C 36.12 107.27 38.09 108.07 39.69 109.43 C 41.83 113.17 41.11 117.69 41.07 121.82 C 38.17 122.11 35.26 122.55 32.35 122.39 C 26.93 120.69 21.27 118.90 16.95 115.05 C 14.01 112.64 11.36 109.91 8.86 107.05 C 16.68 103.72 25.36 105.25 33.46 106.47 Z" />
<path fill="#6d5748" opacity="1.00" d=" M 113.09 107.95 C 117.55 106.49 122.78 105.70 126.77 108.78 C 123.39 112.43 120.03 116.14 116.09 119.20 C 115.69 117.65 115.26 116.11 114.85 114.57 C 115.67 114.22 117.32 113.51 118.14 113.16 C 116.38 111.50 114.60 109.84 113.09 107.95 Z" />
<path fill="#6d5748" opacity="1.00" d=" M 58.62 134.59 C 59.37 135.47 60.12 136.35 60.84 137.26 C 64.33 142.28 65.51 148.47 64.92 154.49 C 63.32 158.76 62.94 164.03 58.90 166.86 C 55.47 169.45 52.75 172.82 50.92 176.71 C 51.97 176.55 53.03 176.40 54.09 176.25 C 51.97 180.12 50.50 184.35 47.91 187.96 C 46.00 190.63 43.33 192.62 40.75 194.60 C 38.78 189.26 45.96 187.41 46.62 182.66 C 47.52 177.66 44.52 172.99 44.83 168.01 C 45.08 164.43 45.39 160.85 45.57 157.27 C 46.04 153.73 44.69 149.85 46.95 146.71 C 48.33 144.20 49.70 141.66 51.47 139.40 C 53.23 136.71 56.87 137.89 59.56 137.63 C 59.24 136.62 58.93 135.60 58.62 134.59 Z" />
<path fill="#6d5748" opacity="1.00" d=" M 49.25 138.45 C 50.83 139.23 49.07 142.85 47.44 142.45 C 46.72 141.03 47.81 138.97 49.25 138.45 Z" />
<path fill="#6d5748" opacity="1.00" d=" M 101.80 188.31 C 99.31 179.85 94.60 170.30 98.96 161.68 C 99.88 163.29 100.83 164.89 101.65 166.57 C 101.77 168.03 101.56 169.49 101.44 170.95 C 102.35 172.46 104.09 173.81 103.80 175.75 C 103.19 176.77 102.42 177.69 101.69 178.64 C 102.28 180.02 102.99 181.37 103.34 182.85 C 103.14 184.74 102.38 186.51 101.80 188.31 Z" />
<path fill="#6d5748" opacity="1.00" d=" M 57.40 200.94 C 59.17 200.15 61.04 199.64 62.99 199.69 C 71.65 199.53 80.32 199.73 88.98 199.63 C 92.88 199.70 96.96 199.19 100.63 200.86 C 91.54 201.29 82.42 203.34 73.33 201.83 C 68.05 201.11 62.69 201.60 57.40 200.94 Z" />
</g>
<g id="#b6ac88ff">
<path fill="#b6ac88" opacity="1.00" d=" M 108.38 87.70 C 109.05 92.57 111.31 97.05 111.82 101.94 C 112.24 103.93 112.02 106.17 113.09 107.95 C 114.60 109.84 116.38 111.50 118.14 113.16 C 117.32 113.51 115.67 114.22 114.85 114.57 C 115.26 116.11 115.69 117.65 116.09 119.20 C 116.47 121.03 117.15 122.90 116.88 124.79 C 115.92 127.20 114.21 129.21 112.74 131.32 C 109.72 135.79 105.75 139.56 100.91 142.01 C 100.06 141.17 99.20 140.34 98.32 139.53 C 94.79 137.05 90.26 137.95 86.22 137.68 C 82.34 137.77 78.50 136.98 75.03 135.25 C 74.44 133.70 73.83 132.15 73.16 130.64 C 76.73 131.85 80.23 133.40 83.99 133.91 C 88.72 134.38 93.20 132.21 97.90 132.25 C 99.99 132.63 101.55 134.29 103.27 135.43 C 105.04 132.93 106.63 130.24 107.24 127.20 C 107.42 122.90 108.24 118.13 105.73 114.31 C 103.84 111.44 102.71 108.19 102.63 104.74 C 104.46 105.81 106.28 106.92 108.08 108.04 C 107.52 101.93 110.06 95.00 106.42 89.54 C 107.07 88.93 107.72 88.31 108.38 87.70 Z" />
<path fill="#b6ac88" opacity="1.00" d=" M 43.62 115.51 C 45.29 120.25 44.85 125.58 47.02 130.10 C 50.52 132.22 54.33 126.69 58.05 128.78 C 61.29 130.19 64.16 132.29 67.11 134.22 C 65.02 135.22 62.93 136.23 60.84 137.26 C 60.12 136.35 59.37 135.47 58.62 134.59 C 58.93 135.60 59.24 136.62 59.56 137.63 C 56.87 137.89 53.23 136.71 51.47 139.40 C 49.70 141.66 48.33 144.20 46.95 146.71 C 44.31 144.83 42.00 142.55 39.39 140.64 C 36.57 139.12 33.50 138.14 30.63 136.72 C 31.04 134.81 31.26 132.82 30.49 130.96 C 34.63 129.35 37.67 126.01 40.44 122.68 C 40.45 125.33 40.49 127.98 40.57 130.63 C 41.07 130.68 42.07 130.79 42.58 130.84 C 42.65 125.72 42.90 120.59 43.62 115.51 M 49.25 138.45 C 47.81 138.97 46.72 141.03 47.44 142.45 C 49.07 142.85 50.83 139.23 49.25 138.45 Z" />
<path fill="#b6ac88" opacity="1.00" d=" M 95.82 154.10 C 97.53 154.48 98.70 155.95 99.25 157.55 C 96.98 158.16 95.26 156.36 95.82 154.10 Z" />
<path fill="#b6ac88" opacity="1.00" d=" M 58.90 166.86 C 62.94 164.03 63.32 158.76 64.92 154.49 C 65.07 157.72 66.41 161.41 64.31 164.30 C 61.26 168.58 56.67 171.59 54.09 176.25 C 53.03 176.40 51.97 176.55 50.92 176.71 C 52.75 172.82 55.47 169.45 58.90 166.86 Z" />
</g>
<g id="#a93704ff">
<path fill="#a93704" opacity="1.00" d=" M 112.74 131.32 C 114.39 130.94 116.02 130.52 117.66 130.08 C 117.09 131.64 116.41 133.18 116.15 134.82 C 118.19 137.68 120.86 140.00 123.07 142.71 C 123.76 142.08 124.46 141.45 125.15 140.83 C 125.58 142.00 126.01 143.17 126.44 144.34 C 122.75 145.67 118.87 144.87 115.19 144.01 C 111.56 148.94 106.23 152.07 101.60 155.92 C 98.74 151.75 99.09 146.51 100.91 142.01 C 105.75 139.56 109.72 135.79 112.74 131.32 Z" />
</g>
<g id="#25241eff">
<path fill="#25241e" opacity="1.00" d=" M 68.04 131.12 C 68.92 132.53 69.74 133.98 70.55 135.43 C 72.04 135.36 73.53 135.31 75.03 135.25 C 78.50 136.98 82.34 137.77 86.22 137.68 C 90.26 137.95 94.79 137.05 98.32 139.53 C 96.57 140.26 94.81 140.98 93.06 141.70 C 95.14 145.50 95.92 149.80 95.82 154.10 C 95.26 156.36 96.98 158.16 99.25 157.55 C 100.47 157.67 101.67 157.88 102.88 158.10 C 105.44 158.51 108.01 159.30 110.63 159.04 C 112.61 157.31 113.75 154.92 115.28 152.84 C 115.56 154.82 115.82 156.81 116.14 158.79 C 119.49 157.58 122.98 156.80 126.27 155.43 C 125.54 159.80 122.38 164.08 118.06 165.31 C 112.56 165.33 107.06 165.44 101.65 166.57 C 100.83 164.89 99.88 163.29 98.96 161.68 C 94.60 170.30 99.31 179.85 101.80 188.31 C 101.30 189.97 100.33 191.44 99.48 192.93 C 103.56 194.06 107.94 195.39 110.27 199.26 C 115.90 199.76 121.65 198.72 127.21 199.81 C 129.94 201.78 128.38 205.85 128.79 208.73 C 95.27 208.72 61.74 208.74 28.22 208.71 C 28.27 206.00 28.15 203.25 28.66 200.57 C 34.51 198.36 41.06 200.09 47.20 199.54 C 44.66 198.45 42.61 196.61 40.75 194.60 C 43.33 192.62 46.00 190.63 47.91 187.96 C 50.50 184.35 51.97 180.12 54.09 176.25 C 56.67 171.59 61.26 168.58 64.31 164.30 C 66.41 161.41 65.07 157.72 64.92 154.49 C 65.51 148.47 64.33 142.28 60.84 137.26 C 62.93 136.23 65.02 135.22 67.11 134.22 C 67.42 133.18 67.73 132.15 68.04 131.12 M 83.86 141.86 C 82.70 146.26 82.87 150.89 84.90 155.02 C 83.84 154.74 82.78 154.46 81.73 154.19 C 81.89 154.79 82.20 156.00 82.36 156.60 C 84.43 157.07 86.49 157.55 88.55 158.05 C 86.55 152.78 86.04 147.07 83.86 141.86 M 57.40 200.94 C 62.69 201.60 68.05 201.11 73.33 201.83 C 82.42 203.34 91.54 201.29 100.63 200.86 C 96.96 199.19 92.88 199.70 88.98 199.63 C 80.32 199.73 71.65 199.53 62.99 199.69 C 61.04 199.64 59.17 200.15 57.40 200.94 Z" />
</g>
<g id="#ce870bff">
<path fill="#ce870b" opacity="1.00" d=" M 101.60 155.92 C 106.23 152.07 111.56 148.94 115.19 144.01 C 118.87 144.87 122.75 145.67 126.44 144.34 C 127.18 148.00 127.96 151.89 126.27 155.43 C 122.98 156.80 119.49 157.58 116.14 158.79 C 115.82 156.81 115.56 154.82 115.28 152.84 C 113.75 154.92 112.61 157.31 110.63 159.04 C 108.01 159.30 105.44 158.51 102.88 158.10 C 102.56 157.55 101.92 156.46 101.60 155.92 Z" />
</g>
</svg>
