<?xml version="1.0" encoding="UTF-8" ?>
<!DOCTYPE svg PUBLIC "-//W3C//DTD SVG 1.1//EN" "http://www.w3.org/Graphics/SVG/1.1/DTD/svg11.dtd">
<svg width="155pt" height="210pt" viewBox="0 0 155 210" version="1.1" xmlns="http://www.w3.org/2000/svg">
<g id="#a68047ff">
<path fill="#a68047" opacity="1.00" d=" M 103.66 42.66 C 107.08 40.02 111.17 38.48 115.15 36.90 C 115.44 40.47 115.26 44.08 114.15 47.50 C 112.18 52.43 115.39 57.73 112.95 62.62 C 112.19 65.14 111.41 67.64 110.66 70.16 C 106.32 65.05 101.52 59.99 95.15 57.49 C 95.30 55.79 95.44 54.09 95.58 52.40 C 91.62 52.17 87.65 52.23 83.71 52.71 C 80.35 50.36 76.98 46.51 72.46 48.28 C 72.53 47.74 72.68 46.65 72.76 46.11 C 73.19 43.40 73.90 40.67 75.32 38.29 C 76.99 37.77 77.58 39.56 78.26 40.69 C 79.85 43.88 80.85 47.32 82.11 50.64 C 83.24 50.63 84.37 50.59 85.50 50.65 C 87.66 50.81 89.80 51.06 91.94 51.29 C 93.55 49.71 95.16 48.13 96.79 46.57 C 99.58 46.35 101.53 44.22 103.66 42.66 Z" />
<path fill="#a68047" opacity="1.00" d=" M 115.74 86.57 C 116.58 86.87 117.43 87.17 118.27 87.47 C 118.97 87.69 120.36 88.14 121.05 88.37 C 118.11 89.51 115.39 91.14 112.90 93.08 C 120.12 93.66 126.25 88.49 133.51 88.86 C 129.50 91.23 125.11 92.79 120.69 94.18 C 121.05 95.78 121.41 97.37 121.77 98.97 C 120.21 99.51 118.65 100.04 117.09 100.58 C 119.07 101.16 121.06 101.73 123.07 102.21 C 120.93 102.88 118.77 103.46 116.60 104.04 C 115.70 102.43 114.71 100.88 113.73 99.33 C 114.91 98.93 116.10 98.53 117.28 98.13 C 117.79 96.65 118.30 95.17 118.80 93.69 C 116.55 94.62 113.81 95.27 112.74 97.74 C 111.76 96.18 110.77 94.63 109.78 93.08 C 111.74 90.89 113.73 88.72 115.74 86.57 Z" />
<path fill="#a68047" opacity="1.00" d=" M 48.26 106.95 C 50.86 112.28 52.69 117.95 54.25 123.65 C 54.86 125.34 53.89 126.93 53.27 128.44 C 49.98 121.78 48.79 114.30 48.26 106.95 Z" />
<path fill="#a68047" opacity="1.00" d=" M 100.37 108.77 C 102.88 114.64 99.29 120.58 98.77 126.49 C 100.39 126.00 102.78 126.51 103.51 124.56 C 105.63 120.10 107.91 115.03 106.99 110.00 L 106.76 109.29 C 108.18 111.55 108.60 114.22 108.98 116.82 C 111.37 117.63 113.76 118.41 116.16 119.19 C 117.75 116.00 118.68 112.51 118.55 108.93 C 120.07 111.71 122.09 114.65 121.48 118.00 C 120.97 122.47 118.24 126.17 115.93 129.88 C 114.19 132.41 114.20 135.58 113.79 138.52 C 109.53 138.80 105.20 140.04 101.03 138.46 C 100.19 139.43 99.36 140.41 98.54 141.39 C 96.91 142.45 97.63 144.94 99.66 144.53 C 103.32 145.13 106.95 144.27 110.51 143.51 C 109.45 146.68 107.84 149.79 107.75 153.18 C 108.44 156.10 110.24 158.62 111.04 161.51 C 112.04 165.16 112.25 168.95 112.75 172.69 C 112.04 173.00 111.34 173.32 110.64 173.65 C 109.31 171.85 107.48 170.57 105.64 169.37 C 103.63 165.17 102.52 160.61 100.58 156.38 C 99.47 153.95 97.00 152.63 94.96 151.09 C 92.91 154.02 91.81 157.44 91.74 161.02 C 89.42 160.93 87.10 160.82 84.78 160.68 C 84.73 163.78 84.68 166.89 84.58 170.00 C 84.53 166.37 84.33 162.74 84.09 159.12 C 82.51 158.23 80.94 157.33 79.36 156.44 C 77.96 158.40 76.54 160.34 75.10 162.27 C 73.62 162.10 72.17 161.80 70.72 161.52 C 69.06 156.22 67.90 150.77 66.06 145.52 C 69.35 147.82 73.34 148.07 77.16 147.17 C 77.34 146.14 77.52 145.11 77.71 144.08 C 78.59 144.39 79.46 144.71 80.34 145.03 C 80.28 146.01 80.22 146.99 80.16 147.97 C 85.25 143.76 91.74 141.68 96.62 137.19 C 93.08 138.24 89.76 139.90 86.29 141.14 C 83.99 142.05 81.90 140.03 79.89 139.19 C 84.97 131.31 83.73 120.92 90.01 113.60 C 89.54 116.98 88.72 120.30 87.57 123.52 C 85.78 128.59 85.14 133.96 83.44 139.06 C 87.83 134.58 93.28 131.06 96.88 125.85 C 99.73 120.63 98.83 114.38 100.37 108.77 M 108.18 165.69 C 107.33 166.56 107.83 168.34 109.01 168.66 C 110.80 168.49 109.80 164.94 108.18 165.69 Z" />
<path fill="#a68047" opacity="1.00" d=" M 42.01 124.39 C 45.98 125.64 48.12 129.74 52.09 130.98 C 55.57 132.00 56.71 135.82 58.63 138.50 C 58.53 140.93 58.57 143.38 58.99 145.78 L 58.54 145.45 C 57.75 145.04 56.95 144.67 56.13 144.34 C 51.30 143.44 46.50 145.76 43.79 149.77 C 45.34 144.30 45.83 138.56 45.34 132.90 C 47.26 133.53 49.16 134.21 51.08 134.84 C 48.77 132.06 45.63 130.27 42.61 128.39 C 42.33 127.06 42.13 125.73 42.01 124.39 Z" />
<path fill="#a68047" opacity="1.00" d=" M 21.88 129.87 C 26.02 128.88 28.50 134.41 32.50 133.70 C 33.75 133.37 34.99 133.01 36.23 132.64 C 36.82 133.70 37.42 134.76 38.02 135.82 C 35.18 138.87 31.62 141.71 31.16 146.15 C 33.43 147.07 35.70 148.02 37.95 148.99 C 37.71 150.01 37.48 151.03 37.25 152.05 C 35.47 152.06 33.69 152.07 31.91 152.08 C 31.91 152.82 31.91 154.29 31.90 155.03 C 31.31 152.55 30.84 150.04 30.34 147.55 C 27.85 149.84 25.40 153.13 21.56 152.32 C 23.05 150.11 24.73 148.03 26.26 145.84 C 22.72 145.78 18.86 146.96 15.65 144.95 C 16.91 141.98 21.01 142.53 23.59 141.28 C 20.98 139.60 15.98 139.14 16.06 135.19 C 17.74 133.17 20.11 135.78 22.06 136.13 C 24.09 136.89 26.17 137.45 28.26 138.00 C 27.25 137.11 26.22 136.23 25.19 135.36 C 23.56 133.92 21.13 132.45 21.88 129.87 Z" />
<path fill="#a68047" opacity="1.00" d=" M 120.12 143.70 C 121.25 145.63 122.15 148.91 124.99 148.51 C 128.34 148.35 131.01 146.11 134.04 144.97 C 136.19 144.97 135.13 147.35 135.27 148.70 C 134.15 148.89 132.03 149.31 132.36 150.88 C 133.71 151.97 135.13 150.13 135.67 149.01 C 136.27 149.29 137.49 149.85 138.09 150.14 C 136.84 153.06 134.12 154.51 131.13 155.13 C 129.25 155.11 130.04 157.64 131.62 157.06 C 133.10 157.13 134.59 157.21 136.07 157.29 C 135.95 157.99 135.69 159.38 135.57 160.08 L 134.60 159.96 C 133.22 159.72 131.81 159.72 130.43 159.89 C 129.47 159.97 127.55 160.14 126.59 160.22 C 128.34 162.29 130.12 164.39 131.24 166.89 C 128.26 167.12 124.98 165.71 124.32 162.54 C 123.45 158.04 121.33 154.02 118.61 150.38 C 117.27 148.95 118.71 147.27 119.17 145.79 C 119.41 145.27 119.88 144.22 120.12 143.70 Z" />
<path fill="#a68047" opacity="1.00" d=" M 60.09 146.71 C 61.35 146.61 62.62 146.50 63.88 146.39 C 65.37 149.51 67.46 152.87 66.54 156.47 C 65.63 158.40 63.28 158.76 61.52 159.58 C 60.74 155.33 60.38 151.02 60.09 146.71 Z" />
<path fill="#a68047" opacity="1.00" d=" M 115.00 158.79 C 116.47 159.97 117.94 161.16 119.40 162.34 C 119.12 163.66 118.71 164.93 118.17 166.16 C 117.24 166.40 116.30 166.63 115.36 166.86 C 115.28 164.17 115.18 161.48 115.00 158.79 Z" />
<path fill="#a68047" opacity="1.00" d=" M 74.40 166.08 C 75.51 166.38 76.59 166.77 77.67 167.17 C 76.64 170.59 72.03 174.53 74.93 178.00 C 77.83 180.90 81.69 178.41 84.08 176.19 C 83.78 177.84 83.42 179.47 83.08 181.12 C 88.53 181.68 94.01 181.24 99.39 180.29 C 97.26 182.05 94.62 182.93 91.85 182.78 C 89.29 182.87 86.72 182.93 84.16 182.94 C 80.24 182.95 76.38 182.32 72.50 181.85 C 68.83 181.94 65.19 182.57 61.53 182.86 C 61.13 182.72 60.33 182.46 59.93 182.33 C 63.21 181.58 67.82 182.27 69.67 178.80 C 71.99 174.86 72.74 170.29 74.40 166.08 Z" />
<path fill="#a68047" opacity="1.00" d=" M 58.89 192.37 C 72.29 192.53 85.69 191.55 99.08 192.42 C 85.74 194.07 72.23 194.14 58.89 192.37 Z" />
</g>
<g id="#d6c09eff">
<path fill="#d6c09e" opacity="1.00" d=" M 85.50 50.65 C 88.23 47.74 92.79 42.83 96.79 46.57 C 95.16 48.13 93.55 49.71 91.94 51.29 C 89.80 51.06 87.66 50.81 85.50 50.65 Z" />
<path fill="#d6c09e" opacity="1.00" d=" M 72.46 48.28 C 76.98 46.51 80.35 50.36 83.71 52.71 C 87.03 55.33 91.19 56.28 95.15 57.49 C 101.52 59.99 106.32 65.05 110.66 70.16 C 111.41 67.64 112.19 65.14 112.95 62.62 C 115.45 65.13 117.70 68.03 118.59 71.53 C 120.24 76.74 119.11 82.22 118.27 87.47 C 117.43 87.17 116.58 86.87 115.74 86.57 C 113.73 88.72 111.74 90.89 109.78 93.08 C 110.77 94.63 111.76 96.18 112.74 97.74 C 112.99 98.14 113.48 98.93 113.73 99.33 C 114.71 100.88 115.70 102.43 116.60 104.04 C 117.45 105.57 118.12 107.22 118.55 108.93 C 118.68 112.51 117.75 116.00 116.16 119.19 C 113.76 118.41 111.37 117.63 108.98 116.82 C 108.60 114.22 108.18 111.55 106.76 109.29 C 105.53 107.12 103.84 105.21 102.98 102.84 C 101.73 97.24 103.78 91.32 101.96 85.80 C 99.86 81.01 96.41 76.98 93.03 73.04 C 95.91 78.13 99.46 82.89 101.35 88.49 C 95.46 88.22 89.47 88.64 84.00 90.99 C 79.37 92.71 74.84 94.70 70.05 95.94 C 72.97 96.25 75.88 96.65 78.75 97.26 C 78.57 96.51 78.38 95.75 78.20 95.01 C 79.07 94.55 79.95 94.10 80.83 93.65 C 82.31 95.21 83.78 96.77 85.27 98.32 C 86.29 97.90 87.31 97.48 88.33 97.06 C 88.11 95.57 87.90 94.08 87.70 92.59 C 89.45 92.26 91.21 91.93 92.96 91.61 C 92.75 93.93 92.51 96.25 92.31 98.57 C 94.05 95.82 95.67 92.99 97.32 90.18 C 98.52 91.01 100.72 91.38 100.40 93.28 C 100.37 97.83 98.95 102.22 98.19 106.68 C 99.38 105.86 100.57 105.04 101.77 104.23 C 103.55 106.11 105.36 107.98 106.99 110.00 C 107.91 115.03 105.63 120.10 103.51 124.56 C 102.78 126.51 100.39 126.00 98.77 126.49 C 99.29 120.58 102.88 114.64 100.37 108.77 C 98.83 114.38 99.73 120.63 96.88 125.85 C 93.28 131.06 87.83 134.58 83.44 139.06 C 85.14 133.96 85.78 128.59 87.57 123.52 C 88.72 120.30 89.54 116.98 90.01 113.60 C 83.73 120.92 84.97 131.31 79.89 139.19 C 75.48 139.52 71.24 140.82 66.91 141.58 C 63.81 142.16 61.13 139.98 58.63 138.50 C 56.71 135.82 55.57 132.00 52.09 130.98 C 48.12 129.74 45.98 125.64 42.01 124.39 L 41.46 124.14 C 40.27 120.39 38.34 116.98 36.25 113.68 C 34.05 109.65 37.38 105.50 37.56 101.43 C 32.87 96.71 30.70 90.13 30.65 83.57 C 35.30 83.94 39.68 85.58 44.00 87.23 C 44.80 75.48 49.73 63.52 58.92 55.87 C 61.79 53.29 64.72 50.77 67.88 48.55 C 69.44 52.19 70.01 56.13 70.56 60.02 C 71.33 56.13 71.98 52.22 72.46 48.28 M 57.55 66.58 C 51.44 71.28 47.97 78.59 45.97 85.87 C 49.95 79.63 51.49 71.29 58.25 67.25 C 61.70 64.89 66.01 65.12 69.97 65.57 C 69.05 64.05 68.14 62.53 67.23 61.01 C 63.89 62.64 60.48 64.25 57.55 66.58 M 75.11 61.32 C 74.11 62.76 73.09 64.18 72.07 65.60 C 77.23 64.71 82.35 65.77 87.09 67.83 C 83.57 64.87 79.40 62.88 75.11 61.32 M 46.45 88.10 C 46.09 93.53 45.33 98.94 45.20 104.39 C 48.44 101.04 48.02 96.12 48.26 91.83 C 48.88 94.38 49.63 96.89 50.62 99.31 C 50.57 96.80 50.42 94.29 50.33 91.79 C 53.52 92.22 52.81 95.87 53.40 98.21 C 54.75 96.98 56.08 95.75 57.44 94.54 C 57.68 95.44 57.93 96.35 58.17 97.26 C 61.63 96.54 66.35 96.66 67.11 92.27 C 65.05 93.14 63.02 94.09 60.99 95.07 C 56.34 92.36 51.53 89.90 46.45 88.10 M 66.41 95.94 C 66.03 97.03 65.65 98.12 65.26 99.21 C 63.00 100.75 63.06 103.29 63.45 105.73 C 66.01 105.33 68.49 104.59 70.90 103.66 C 70.52 100.52 70.00 96.85 66.41 95.94 M 48.26 106.95 C 48.79 114.30 49.98 121.78 53.27 128.44 C 53.89 126.93 54.86 125.34 54.25 123.65 C 52.69 117.95 50.86 112.28 48.26 106.95 M 56.65 112.38 C 61.11 112.24 65.53 111.38 70.01 111.50 C 73.78 111.54 77.47 112.44 81.23 112.69 C 78.90 110.18 75.14 110.68 72.04 110.35 C 66.91 110.48 61.26 109.58 56.65 112.38 Z" />
<path fill="#d6c09e" opacity="1.00" d=" M 121.05 88.37 C 126.53 86.15 132.55 85.90 138.39 86.15 C 137.53 91.18 133.87 94.99 130.27 98.32 C 128.21 100.12 125.87 101.90 123.07 102.21 C 121.06 101.73 119.07 101.16 117.09 100.58 C 118.65 100.04 120.21 99.51 121.77 98.97 C 121.41 97.37 121.05 95.78 120.69 94.18 C 125.11 92.79 129.50 91.23 133.51 88.86 C 126.25 88.49 120.12 93.66 112.90 93.08 C 115.39 91.14 118.11 89.51 121.05 88.37 Z" />
<path fill="#d6c09e" opacity="1.00" d=" M 32.50 133.70 C 34.32 128.22 41.96 129.82 45.34 132.90 C 45.83 138.56 45.34 144.30 43.79 149.77 C 42.54 153.24 40.60 156.49 38.35 159.41 C 37.26 160.87 34.38 161.50 33.48 159.53 C 32.61 158.19 31.97 156.64 31.90 155.03 C 31.91 154.29 31.91 152.82 31.91 152.08 C 33.69 152.07 35.47 152.06 37.25 152.05 C 37.48 151.03 37.71 150.01 37.95 148.99 C 38.94 144.82 40.07 140.69 40.97 136.50 C 40.23 136.33 38.76 135.99 38.02 135.82 C 37.42 134.76 36.82 133.70 36.23 132.64 C 34.99 133.01 33.75 133.37 32.50 133.70 Z" />
<path fill="#d6c09e" opacity="1.00" d=" M 110.51 143.51 C 113.68 142.74 117.08 142.11 120.12 143.70 C 119.88 144.22 119.41 145.27 119.17 145.79 C 117.96 145.73 116.76 145.68 115.56 145.63 C 114.52 149.95 114.50 154.40 115.00 158.79 C 115.18 161.48 115.28 164.17 115.36 166.86 C 116.30 166.63 117.24 166.40 118.17 166.16 C 117.34 169.14 116.93 173.78 112.89 173.80 L 112.75 172.69 C 112.25 168.95 112.04 165.16 111.04 161.51 C 110.24 158.62 108.44 156.10 107.75 153.18 C 107.84 149.79 109.45 146.68 110.51 143.51 Z" />
<path fill="#d6c09e" opacity="1.00" d=" M 56.13 144.34 C 56.95 144.67 57.75 145.04 58.54 145.45 C 55.22 152.45 50.90 158.95 48.13 166.21 C 46.62 170.02 45.57 174.00 43.95 177.77 C 43.50 177.85 42.60 178.01 42.15 178.09 C 43.69 165.81 49.70 154.70 56.13 144.34 Z" />
<path fill="#d6c09e" opacity="1.00" d=" M 84.78 160.68 C 87.10 160.82 89.42 160.93 91.74 161.02 C 95.23 165.65 97.75 171.02 98.84 176.73 C 98.98 177.62 99.26 179.40 99.39 180.29 C 94.01 181.24 88.53 181.68 83.08 181.12 C 83.42 179.47 83.78 177.84 84.08 176.19 C 84.36 174.13 84.53 172.07 84.58 170.00 C 84.68 166.89 84.73 163.78 84.78 160.68 Z" />
<path fill="#d6c09e" opacity="1.00" d=" M 61.99 162.20 C 62.59 162.05 63.79 161.74 64.39 161.59 C 62.96 163.08 61.50 164.54 59.97 165.93 C 60.69 164.71 61.35 163.45 61.99 162.20 Z" />
<path fill="#d6c09e" opacity="1.00" d=" M 61.97 178.81 C 65.56 173.40 67.88 167.32 70.72 161.52 C 72.17 161.80 73.62 162.10 75.10 162.27 C 76.11 162.07 77.13 161.84 78.14 161.60 C 78.01 163.46 77.89 165.32 77.67 167.17 C 76.59 166.77 75.51 166.38 74.40 166.08 C 72.74 170.29 71.99 174.86 69.67 178.80 C 67.82 182.27 63.21 181.58 59.93 182.33 C 58.25 181.72 57.08 180.35 56.04 178.97 C 58.01 178.89 59.99 178.84 61.97 178.81 Z" />
<path fill="#d6c09e" opacity="1.00" d=" M 105.64 169.37 C 107.48 170.57 109.31 171.85 110.64 173.65 C 111.82 175.48 112.08 177.69 112.43 179.80 C 111.60 179.53 109.95 178.99 109.13 178.72 C 107.88 175.64 106.77 172.50 105.64 169.37 Z" />
</g>
<g id="#373533ff">
<path fill="#373533" opacity="1.00" d=" M 71.62 48.57 C 71.99 47.75 72.37 46.93 72.76 46.11 C 72.68 46.65 72.53 47.74 72.46 48.28 C 71.98 52.22 71.33 56.13 70.56 60.02 C 70.01 56.13 69.44 52.19 67.88 48.55 L 67.68 48.03 C 68.99 48.22 70.30 48.40 71.62 48.57 Z" />
<path fill="#373533" opacity="1.00" d=" M 83.71 52.71 C 87.65 52.23 91.62 52.17 95.58 52.40 C 95.44 54.09 95.30 55.79 95.15 57.49 C 91.19 56.28 87.03 55.33 83.71 52.71 Z" />
<path fill="#373533" opacity="1.00" d=" M 93.03 73.04 C 96.41 76.98 99.86 81.01 101.96 85.80 C 103.78 91.32 101.73 97.24 102.98 102.84 C 103.84 105.21 105.53 107.12 106.76 109.29 L 106.99 110.00 C 105.36 107.98 103.55 106.11 101.77 104.23 C 100.57 105.04 99.38 105.86 98.19 106.68 C 98.95 102.22 100.37 97.83 100.40 93.28 C 100.72 91.38 98.52 91.01 97.32 90.18 C 92.86 89.99 88.38 90.21 84.00 90.99 C 89.47 88.64 95.46 88.22 101.35 88.49 C 99.46 82.89 95.91 78.13 93.03 73.04 Z" />
<path fill="#373533" opacity="1.00" d=" M 46.45 88.10 C 51.53 89.90 56.34 92.36 60.99 95.07 C 63.02 94.09 65.05 93.14 67.11 92.27 C 66.35 96.66 61.63 96.54 58.17 97.26 C 57.93 96.35 57.68 95.44 57.44 94.54 C 56.08 95.75 54.75 96.98 53.40 98.21 C 52.81 95.87 53.52 92.22 50.33 91.79 C 50.42 94.29 50.57 96.80 50.62 99.31 C 49.63 96.89 48.88 94.38 48.26 91.83 C 48.02 96.12 48.44 101.04 45.20 104.39 C 45.33 98.94 46.09 93.53 46.45 88.10 Z" />
<path fill="#373533" opacity="1.00" d=" M 66.41 95.94 C 70.00 96.85 70.52 100.52 70.90 103.66 C 68.49 104.59 66.01 105.33 63.45 105.73 C 63.06 103.29 63.00 100.75 65.26 99.21 C 65.65 98.12 66.03 97.03 66.41 95.94 Z" />
<path fill="#373533" opacity="1.00" d=" M 56.65 112.38 C 61.26 109.58 66.91 110.48 72.04 110.35 C 75.14 110.68 78.90 110.18 81.23 112.69 C 77.47 112.44 73.78 111.54 70.01 111.50 C 65.53 111.38 61.11 112.24 56.65 112.38 Z" />
<path fill="#373533" opacity="1.00" d=" M 25.19 135.36 C 26.22 136.23 27.25 137.11 28.26 138.00 C 26.17 137.45 24.09 136.89 22.06 136.13 C 23.11 135.88 24.15 135.62 25.19 135.36 Z" />
<path fill="#373533" opacity="1.00" d=" M 31.16 146.15 C 31.62 141.71 35.18 138.87 38.02 135.82 C 38.76 135.99 40.23 136.33 40.97 136.50 C 40.07 140.69 38.94 144.82 37.95 148.99 C 35.70 148.02 33.43 147.07 31.16 146.15 Z" />
<path fill="#373533" opacity="1.00" d=" M 86.29 141.14 C 89.76 139.90 93.08 138.24 96.62 137.19 C 91.74 141.68 85.25 143.76 80.16 147.97 C 80.22 146.99 80.28 146.01 80.34 145.03 C 79.46 144.71 78.59 144.39 77.71 144.08 C 77.52 145.11 77.34 146.14 77.16 147.17 C 73.34 148.07 69.35 147.82 66.06 145.52 C 67.90 150.77 69.06 156.22 70.72 161.52 C 67.88 167.32 65.56 173.40 61.97 178.81 C 59.99 178.84 58.01 178.89 56.04 178.97 C 55.29 177.76 54.52 176.56 53.72 175.38 C 54.08 171.26 56.87 168.33 59.97 165.93 C 61.50 164.54 62.96 163.08 64.39 161.59 C 63.79 161.74 62.59 162.05 61.99 162.20 C 61.83 161.32 61.67 160.45 61.52 159.58 C 63.28 158.76 65.63 158.40 66.54 156.47 C 67.46 152.87 65.37 149.51 63.88 146.39 C 62.62 146.50 61.35 146.61 60.09 146.71 C 59.82 146.48 59.27 146.01 58.99 145.78 C 58.57 143.38 58.53 140.93 58.63 138.50 C 61.13 139.98 63.81 142.16 66.91 141.58 C 71.24 140.82 75.48 139.52 79.89 139.19 C 81.90 140.03 83.99 142.05 86.29 141.14 Z" />
<path fill="#373533" opacity="1.00" d=" M 115.56 145.63 C 116.76 145.68 117.96 145.73 119.17 145.79 C 118.71 147.27 117.27 148.95 118.61 150.38 C 121.33 154.02 123.45 158.04 124.32 162.54 C 122.68 162.45 121.04 162.37 119.40 162.34 C 117.94 161.16 116.47 159.97 115.00 158.79 C 114.50 154.40 114.52 149.95 115.56 145.63 Z" />
<path fill="#373533" opacity="1.00" d=" M 79.36 156.44 C 80.94 157.33 82.51 158.23 84.09 159.12 C 84.33 162.74 84.53 166.37 84.58 170.00 C 84.53 172.07 84.36 174.13 84.08 176.19 C 81.69 178.41 77.83 180.90 74.93 178.00 C 72.03 174.53 76.64 170.59 77.67 167.17 C 77.89 165.32 78.01 163.46 78.14 161.60 C 77.13 161.84 76.11 162.07 75.10 162.27 C 76.54 160.34 77.96 158.40 79.36 156.44 Z" />
<path fill="#373533" opacity="1.00" d=" M 130.43 159.89 C 131.81 159.72 133.22 159.72 134.60 159.96 C 134.60 161.82 130.31 161.77 130.43 159.89 Z" />
<path fill="#373533" opacity="1.00" d=" M 108.18 165.69 C 109.80 164.94 110.80 168.49 109.01 168.66 C 107.83 168.34 107.33 166.56 108.18 165.69 Z" />
<path fill="#373533" opacity="1.00" d=" M 84.16 182.94 C 86.72 182.93 89.29 182.87 91.85 182.78 C 93.47 185.56 94.37 189.34 97.15 191.10 C 106.90 192.06 116.78 190.72 126.52 191.63 C 129.95 193.06 128.27 197.79 128.76 200.70 C 95.25 200.78 61.74 200.76 28.23 200.71 C 28.63 197.82 27.29 193.93 29.77 191.81 C 36.29 190.66 42.99 191.91 49.57 191.21 C 51.01 188.41 53.79 186.68 56.97 186.87 C 58.02 187.07 59.07 187.28 60.12 187.51 C 60.39 188.67 60.66 189.82 60.93 190.98 C 65.76 191.24 70.61 191.42 75.46 191.32 C 77.90 191.28 80.34 191.19 82.78 191.08 C 83.25 188.37 83.72 185.65 84.16 182.94 M 58.89 192.37 C 72.23 194.14 85.74 194.07 99.08 192.42 C 85.69 191.55 72.29 192.53 58.89 192.37 Z" />
</g>
<g id="#110e09ff">
<path fill="#110e09" opacity="1.00" d=" M 57.55 66.58 C 60.48 64.25 63.89 62.64 67.23 61.01 C 68.14 62.53 69.05 64.05 69.97 65.57 C 66.01 65.12 61.70 64.89 58.25 67.25 C 51.49 71.29 49.95 79.63 45.97 85.87 C 47.97 78.59 51.44 71.28 57.55 66.58 Z" />
<path fill="#110e09" opacity="1.00" d=" M 75.11 61.32 C 79.40 62.88 83.57 64.87 87.09 67.83 C 82.35 65.77 77.23 64.71 72.07 65.60 C 73.09 64.18 74.11 62.76 75.11 61.32 Z" />
<path fill="#110e09" opacity="1.00" d=" M 84.00 90.99 C 88.38 90.21 92.86 89.99 97.32 90.18 C 95.67 92.99 94.05 95.82 92.31 98.57 C 92.51 96.25 92.75 93.93 92.96 91.61 C 91.21 91.93 89.45 92.26 87.70 92.59 C 87.90 94.08 88.11 95.57 88.33 97.06 C 87.31 97.48 86.29 97.90 85.27 98.32 C 83.78 96.77 82.31 95.21 80.83 93.65 C 79.95 94.10 79.07 94.55 78.20 95.01 C 78.38 95.75 78.57 96.51 78.75 97.26 C 75.88 96.65 72.97 96.25 70.05 95.94 C 74.84 94.70 79.37 92.71 84.00 90.99 Z" />
<path fill="#110e09" opacity="1.00" d=" M 112.74 97.74 C 113.81 95.27 116.55 94.62 118.80 93.69 C 118.30 95.17 117.79 96.65 117.28 98.13 C 116.10 98.53 114.91 98.93 113.73 99.33 C 113.48 98.93 112.99 98.14 112.74 97.74 Z" />
<path fill="#110e09" opacity="1.00" d=" M 99.66 144.53 C 97.63 144.94 96.91 142.45 98.54 141.39 C 99.70 142.14 100.07 143.18 99.66 144.53 Z" />
<path fill="#110e09" opacity="1.00" d=" M 58.54 145.45 L 58.99 145.78 C 59.27 146.01 59.82 146.48 60.09 146.71 C 60.38 151.02 60.74 155.33 61.52 159.58 C 61.67 160.45 61.83 161.32 61.99 162.20 C 61.35 163.45 60.69 164.71 59.97 165.93 C 56.87 168.33 54.08 171.26 53.72 175.38 C 50.49 176.26 47.25 177.13 43.95 177.77 C 45.57 174.00 46.62 170.02 48.13 166.21 C 50.90 158.95 55.22 152.45 58.54 145.45 Z" />
<path fill="#110e09" opacity="1.00" d=" M 132.36 150.88 C 132.03 149.31 134.15 148.89 135.27 148.70 L 135.67 149.01 C 135.13 150.13 133.71 151.97 132.36 150.88 Z" />
<path fill="#110e09" opacity="1.00" d=" M 91.74 161.02 C 91.81 157.44 92.91 154.02 94.96 151.09 C 97.00 152.63 99.47 153.95 100.58 156.38 C 102.52 160.61 103.63 165.17 105.64 169.37 C 106.77 172.50 107.88 175.64 109.13 178.72 C 109.95 178.99 111.60 179.53 112.43 179.80 C 107.82 179.12 103.49 177.20 98.84 176.73 C 97.75 171.02 95.23 165.65 91.74 161.02 Z" />
<path fill="#110e09" opacity="1.00" d=" M 131.62 157.06 C 130.04 157.64 129.25 155.11 131.13 155.13 C 131.36 155.45 131.81 156.09 132.04 156.41 L 131.62 157.06 Z" />
<path fill="#110e09" opacity="1.00" d=" M 61.53 182.86 C 65.19 182.57 68.83 181.94 72.50 181.85 C 73.85 184.88 74.84 188.06 75.46 191.32 C 70.61 191.42 65.76 191.24 60.93 190.98 C 60.66 189.82 60.39 188.67 60.12 187.51 C 59.07 187.28 58.02 187.07 56.97 186.87 C 58.41 185.45 59.88 184.05 61.53 182.86 Z" />
</g>
</svg>
