<?xml version="1.0" encoding="UTF-8" ?>
<!DOCTYPE svg PUBLIC "-//W3C//DTD SVG 1.1//EN" "http://www.w3.org/Graphics/SVG/1.1/DTD/svg11.dtd">
<svg width="155pt" height="210pt" viewBox="0 0 155 210" version="1.1" xmlns="http://www.w3.org/2000/svg">
<g id="#1f5d76ff">
<path fill="#1f5d76" opacity="1.00" d=" M 66.54 73.23 C 72.66 71.73 79.17 73.39 84.51 76.52 C 89.25 80.01 92.12 85.33 95.30 90.15 C 93.34 89.90 91.38 89.64 89.42 89.38 C 88.79 93.24 88.03 97.44 89.95 101.08 C 91.47 104.12 94.18 107.37 97.87 107.32 C 99.90 105.93 100.28 103.27 101.18 101.15 C 101.93 101.32 102.68 101.52 103.43 101.76 C 103.81 104.93 105.13 107.85 106.08 110.87 C 107.50 115.46 106.20 120.29 106.65 124.98 C 107.66 128.21 110.16 130.75 111.14 134.01 C 111.21 136.12 108.84 137.48 106.93 137.59 C 101.33 137.90 97.28 142.04 92.63 144.62 C 86.67 147.96 80.49 150.93 74.01 153.13 C 76.30 151.38 78.60 149.64 80.97 148.01 C 86.24 144.38 91.51 140.55 95.69 135.66 C 98.57 132.68 95.89 128.60 94.34 125.66 C 86.97 114.49 77.09 104.45 64.55 99.27 C 58.97 97.16 53.98 101.75 49.43 104.35 C 39.17 110.47 31.48 121.09 30.11 133.09 C 29.97 135.25 29.96 137.77 31.56 139.44 C 33.32 141.14 35.60 142.13 37.77 143.18 C 43.81 145.86 49.82 148.60 55.97 151.00 C 57.08 151.90 58.13 152.85 59.19 153.80 C 54.40 152.96 49.63 152.02 44.85 151.09 C 41.20 150.36 37.62 149.32 34.14 148.01 C 29.61 145.79 22.81 145.38 21.15 139.74 C 20.33 138.01 20.44 136.05 21.16 134.31 C 24.32 125.87 27.96 117.60 32.24 109.67 C 35.67 104.35 36.99 98.10 37.06 91.84 C 37.07 86.92 40.80 83.19 44.58 80.59 C 51.08 76.18 59.00 74.80 66.54 73.23 Z" />
</g>
<g id="#b8b39fff">
<path fill="#b8b39f" opacity="1.00" d=" M 96.91 92.17 C 100.67 90.21 104.01 87.63 107.16 84.81 C 109.34 84.63 108.89 86.51 108.64 87.99 C 108.12 91.26 107.68 94.55 107.28 97.83 C 108.27 97.69 109.26 97.55 110.25 97.41 C 110.01 95.86 109.78 94.31 109.53 92.76 C 110.99 93.08 112.46 93.41 113.92 93.74 C 113.56 96.31 111.78 98.18 110.12 100.03 C 110.21 101.84 110.26 103.65 110.25 105.46 C 107.98 104.22 105.84 102.72 103.43 101.76 C 102.68 101.52 101.93 101.32 101.18 101.15 C 99.41 100.76 97.64 100.41 95.92 99.86 C 94.07 97.38 94.41 94.05 96.91 92.17 Z" />
<path fill="#b8b39f" opacity="1.00" d=" M 19.39 92.21 C 20.72 89.96 20.95 87.17 22.81 85.21 C 25.11 89.66 27.33 94.76 32.52 96.45 C 32.28 97.67 32.09 98.90 31.84 100.12 C 27.93 102.31 23.45 103.24 19.03 102.28 C 18.81 100.88 18.60 99.48 18.38 98.09 C 16.69 97.65 15.01 97.20 13.33 96.74 C 15.32 95.19 17.45 93.82 19.39 92.21 Z" />
<path fill="#b8b39f" opacity="1.00" d=" M 80.35 121.05 C 82.51 120.72 84.67 120.41 86.84 120.13 C 86.84 121.27 86.78 122.41 86.68 123.54 C 86.30 124.96 85.85 126.36 85.40 127.76 C 83.78 128.96 82.05 129.99 80.34 131.06 C 81.56 127.79 81.52 124.32 80.35 121.05 Z" />
<path fill="#b8b39f" opacity="1.00" d=" M 41.73 122.45 C 42.75 122.56 43.76 122.71 44.78 122.83 C 45.73 125.51 46.49 128.29 46.43 131.16 C 44.14 129.84 42.40 127.83 40.83 125.74 L 40.31 125.08 C 40.67 124.42 41.37 123.11 41.73 122.45 Z" />
<path fill="#b8b39f" opacity="1.00" d=" M 70.72 128.76 C 71.12 127.67 71.56 126.59 72.05 125.54 C 72.94 125.95 74.74 126.77 75.64 127.18 C 74.74 128.34 74.17 129.80 72.96 130.70 C 72.40 130.21 71.28 129.24 70.72 128.76 Z" />
<path fill="#b8b39f" opacity="1.00" d=" M 49.86 132.64 C 51.38 131.20 52.90 129.77 54.46 128.39 C 54.60 131.08 52.59 133.06 49.86 132.64 Z" />
<path fill="#b8b39f" opacity="1.00" d=" M 57.71 137.28 C 58.53 136.42 60.51 135.78 61.06 137.28 C 61.22 138.92 59.07 139.13 57.91 138.86 C 57.86 138.47 57.76 137.68 57.71 137.28 Z" />
<path fill="#b8b39f" opacity="1.00" d=" M 55.14 142.41 C 62.15 143.58 69.19 142.29 75.82 139.94 C 75.41 140.55 74.99 141.17 74.58 141.78 C 68.77 144.66 62.00 145.74 55.73 143.74 C 55.58 143.41 55.28 142.74 55.14 142.41 Z" />
<path fill="#b8b39f" opacity="1.00" d=" M 80.49 158.00 C 83.13 156.64 85.82 155.25 87.91 153.10 C 88.75 155.13 89.57 157.18 90.35 159.25 C 87.05 159.01 83.73 158.70 80.49 158.00 Z" />
<path fill="#b8b39f" opacity="1.00" d=" M 59.84 158.84 C 61.50 158.33 63.28 158.76 64.98 158.78 C 64.03 162.68 62.20 166.29 59.66 169.39 C 59.39 168.62 58.85 167.09 58.58 166.32 C 57.33 166.94 56.07 167.56 54.81 168.18 C 54.26 166.82 53.31 165.38 54.13 163.90 C 55.72 161.92 57.46 159.89 59.84 158.84 Z" />
<path fill="#b8b39f" opacity="1.00" d=" M 47.44 159.78 C 49.07 159.53 50.70 159.32 52.34 159.12 C 52.40 159.67 52.53 160.78 52.60 161.34 C 50.15 162.23 47.64 162.92 45.14 163.63 C 45.90 162.34 46.67 161.06 47.44 159.78 Z" />
<path fill="#b8b39f" opacity="1.00" d=" M 68.90 159.05 C 70.75 159.15 72.64 159.09 74.46 159.53 C 75.74 160.54 76.80 161.82 77.90 163.03 C 77.44 164.54 77.00 166.05 76.56 167.57 C 75.69 167.24 74.82 166.92 73.95 166.60 C 72.94 167.34 71.93 168.09 70.92 168.84 C 69.45 165.79 68.44 162.48 68.90 159.05 Z" />
<path fill="#b8b39f" opacity="1.00" d=" M 98.69 168.97 C 99.95 169.37 101.21 169.74 102.48 170.11 C 103.20 171.01 103.93 171.90 104.68 172.79 C 103.36 175.45 100.73 176.17 97.97 176.30 C 97.58 173.82 97.53 171.26 98.69 168.97 Z" />
<path fill="#b8b39f" opacity="1.00" d=" M 57.19 191.13 C 57.65 190.39 58.13 189.67 58.64 188.98 C 59.84 190.47 61.05 191.95 62.29 193.42 C 63.48 194.85 64.67 196.29 65.80 197.78 C 62.63 196.72 59.38 195.93 56.09 195.36 C 56.42 193.94 56.69 192.50 57.19 191.13 Z" />
<path fill="#b8b39f" opacity="1.00" d=" M 68.58 191.85 C 69.34 191.17 70.11 190.48 70.87 189.80 C 71.17 190.10 71.77 190.71 72.07 191.01 C 71.50 192.08 70.91 193.14 70.34 194.20 C 69.90 193.61 69.02 192.44 68.58 191.85 Z" />
</g>
<g id="#756751ff">
<path fill="#756751" opacity="1.00" d=" M 107.28 97.83 C 107.68 94.55 108.12 91.26 108.64 87.99 C 108.95 89.58 109.25 91.17 109.53 92.76 C 109.78 94.31 110.01 95.86 110.25 97.41 C 109.26 97.55 108.27 97.69 107.28 97.83 Z" />
<path fill="#756751" opacity="1.00" d=" M 11.99 96.37 C 12.32 96.46 13.00 96.65 13.33 96.74 C 15.01 97.20 16.69 97.65 18.38 98.09 C 18.60 99.48 18.81 100.88 19.03 102.28 C 23.45 103.24 27.93 102.31 31.84 100.12 C 31.50 101.56 31.08 102.98 30.70 104.41 C 25.03 103.13 19.37 104.53 13.70 104.32 C 14.08 102.82 14.49 101.33 14.91 99.84 C 13.94 98.68 12.96 97.52 11.99 96.37 Z" />
<path fill="#756751" opacity="1.00" d=" M 57.56 102.98 C 62.30 101.48 66.99 103.17 71.23 105.26 C 69.63 108.26 67.22 111.79 63.25 110.65 C 59.08 110.59 58.23 106.21 57.56 102.98 Z" />
<path fill="#756751" opacity="1.00" d=" M 61.31 131.22 C 65.25 130.54 66.33 135.86 66.18 138.83 C 64.02 140.94 60.13 140.76 57.91 138.86 C 59.07 139.13 61.22 138.92 61.06 137.28 C 60.51 135.78 58.53 136.42 57.71 137.28 C 58.70 135.19 59.20 132.51 61.31 131.22 Z" />
<path fill="#756751" opacity="1.00" d=" M 95.26 145.66 C 96.63 144.79 98.00 143.91 99.37 143.04 C 99.30 144.66 99.22 146.27 99.15 147.89 C 102.28 150.27 106.06 152.06 110.07 150.84 C 111.08 150.62 112.09 150.37 113.09 150.09 C 113.96 150.84 115.01 151.34 116.12 151.65 C 116.45 151.77 117.12 151.99 117.46 152.10 C 118.60 153.69 119.72 155.30 120.88 156.88 C 120.21 157.36 119.55 157.84 118.88 158.33 C 119.70 159.72 120.47 161.13 121.29 162.52 C 120.09 162.96 118.89 163.38 117.68 163.79 C 116.44 164.20 115.18 164.55 113.92 164.91 C 113.49 165.89 113.07 166.89 112.64 167.88 C 111.10 167.86 109.56 167.91 108.03 167.97 C 107.06 167.19 106.06 166.47 105.07 165.74 C 105.38 164.15 105.69 162.56 106.00 160.98 C 103.38 162.02 100.75 163.04 98.11 164.03 C 97.07 158.92 97.40 153.71 97.96 148.58 C 97.05 147.60 96.16 146.63 95.26 145.66 Z" />
<path fill="#756751" opacity="1.00" d=" M 34.14 148.01 C 37.62 149.32 41.20 150.36 44.85 151.09 C 44.76 153.50 44.66 155.92 44.57 158.34 C 46.20 156.62 47.83 154.89 49.45 153.15 C 53.16 153.91 56.81 154.92 60.50 155.77 C 58.08 157.91 55.51 159.92 52.60 161.34 C 52.53 160.78 52.40 159.67 52.34 159.12 C 50.70 159.32 49.07 159.53 47.44 159.78 C 44.50 160.26 41.53 160.62 38.55 160.80 C 38.20 161.81 37.85 162.82 37.55 163.84 C 35.23 162.13 32.61 160.90 29.71 160.68 C 29.64 159.64 29.57 158.61 29.50 157.58 C 30.47 156.93 31.44 156.27 32.41 155.62 L 31.61 155.26 C 31.17 155.02 30.28 154.55 29.84 154.31 C 30.17 153.20 30.48 152.09 30.78 150.97 C 31.76 151.16 32.75 151.34 33.73 151.53 C 33.87 150.36 34.00 149.18 34.14 148.01 Z" />
<path fill="#756751" opacity="1.00" d=" M 73.64 155.41 C 79.01 153.56 84.06 150.94 89.10 148.35 C 88.73 149.94 88.37 151.53 87.91 153.10 C 85.82 155.25 83.13 156.64 80.49 158.00 C 78.17 157.23 75.93 156.24 73.64 155.41 Z" />
<path fill="#756751" opacity="1.00" d=" M 68.65 171.70 C 73.13 170.65 77.51 169.21 81.91 167.90 C 87.30 170.31 86.11 176.83 85.53 181.53 C 79.19 178.44 71.99 178.90 65.19 179.70 C 66.31 177.03 66.79 173.96 68.65 171.70 Z" />
<path fill="#756751" opacity="1.00" d=" M 62.29 193.42 C 64.56 191.65 66.79 189.81 69.07 188.04 C 69.52 188.48 70.42 189.36 70.87 189.80 C 70.11 190.48 69.34 191.17 68.58 191.85 C 69.02 192.44 69.90 193.61 70.34 194.20 C 70.91 193.14 71.50 192.08 72.07 191.01 C 72.97 191.92 73.87 192.83 74.77 193.74 C 75.59 192.43 76.40 191.12 77.17 189.79 C 78.18 192.53 79.20 195.27 80.09 198.05 C 80.22 198.42 80.48 199.16 80.61 199.53 C 86.86 199.95 93.20 199.14 99.36 200.62 C 85.25 202.55 70.73 202.80 56.71 200.11 L 57.80 200.05 C 60.91 199.90 64.02 199.75 67.12 199.58 C 66.79 199.13 66.13 198.23 65.80 197.78 C 64.67 196.29 63.48 194.85 62.29 193.42 M 75.27 196.09 C 75.26 196.79 75.24 198.18 75.23 198.87 C 76.42 198.91 77.62 198.95 78.82 199.00 C 78.84 198.22 78.87 196.65 78.88 195.87 C 77.68 195.94 76.47 196.01 75.27 196.09 Z" />
</g>
<g id="#111314ff">
<path fill="#111314" opacity="1.00" d=" M 89.42 89.38 C 91.38 89.64 93.34 89.90 95.30 90.15 C 95.84 90.83 96.37 91.50 96.91 92.17 C 94.41 94.05 94.07 97.38 95.92 99.86 C 97.64 100.41 99.41 100.76 101.18 101.15 C 100.28 103.27 99.90 105.93 97.87 107.32 C 94.18 107.37 91.47 104.12 89.95 101.08 C 88.03 97.44 88.79 93.24 89.42 89.38 Z" />
<path fill="#111314" opacity="1.00" d=" M 32.52 96.45 C 32.67 93.97 35.29 93.03 37.06 91.84 C 36.99 98.10 35.67 104.35 32.24 109.67 C 31.54 108.02 29.91 106.32 30.70 104.41 C 31.08 102.98 31.50 101.56 31.84 100.12 C 32.09 98.90 32.28 97.67 32.52 96.45 Z" />
<path fill="#111314" opacity="1.00" d=" M 49.43 104.35 C 53.98 101.75 58.97 97.16 64.55 99.27 C 77.09 104.45 86.97 114.49 94.34 125.66 C 95.89 128.60 98.57 132.68 95.69 135.66 C 91.51 140.55 86.24 144.38 80.97 148.01 C 77.06 149.83 73.13 151.84 68.83 152.53 C 64.49 152.89 60.19 151.89 55.97 151.00 C 49.82 148.60 43.81 145.86 37.77 143.18 C 35.60 142.13 33.32 141.14 31.56 139.44 C 29.96 137.77 29.97 135.25 30.11 133.09 C 31.48 121.09 39.17 110.47 49.43 104.35 M 57.56 102.98 C 50.18 106.04 42.78 110.62 38.88 117.84 C 39.57 118.69 40.27 119.52 40.98 120.36 C 40.72 121.92 40.58 123.51 40.31 125.08 L 40.83 125.74 C 39.04 128.60 37.07 131.91 37.73 135.42 C 40.06 140.29 45.31 142.66 49.72 145.31 C 51.92 146.73 54.49 147.34 57.07 146.78 C 56.62 145.76 56.18 144.75 55.73 143.74 C 62.00 145.74 68.77 144.66 74.58 141.78 C 73.25 143.74 71.55 145.41 69.93 147.12 C 74.09 147.27 78.09 145.91 81.46 143.51 C 85.51 140.71 91.05 138.27 91.89 132.83 C 92.03 129.15 90.55 124.74 86.68 123.54 C 86.78 122.41 86.84 121.27 86.84 120.13 C 84.67 120.41 82.51 120.72 80.35 121.05 C 81.52 124.32 81.56 127.79 80.34 131.06 C 82.05 129.99 83.78 128.96 85.40 127.76 C 85.33 128.77 85.30 129.78 85.31 130.80 C 81.52 132.31 77.37 133.58 73.25 132.75 C 70.58 131.99 69.18 129.43 67.83 127.23 C 68.80 127.73 69.76 128.24 70.72 128.76 C 71.28 129.24 72.40 130.21 72.96 130.70 C 74.17 129.80 74.74 128.34 75.64 127.18 C 74.74 126.77 72.94 125.95 72.05 125.54 C 75.09 120.95 81.33 120.25 85.88 117.68 C 81.76 112.75 77.01 108.19 71.23 105.26 C 66.99 103.17 62.30 101.48 57.56 102.98 Z" />
<path fill="#111314" opacity="1.00" d=" M 44.78 122.83 C 48.73 123.01 52.26 125.12 54.46 128.39 C 52.90 129.77 51.38 131.20 49.86 132.64 C 48.70 132.18 47.55 131.70 46.43 131.16 C 46.49 128.29 45.73 125.51 44.78 122.83 Z" />
<path fill="#111314" opacity="1.00" d=" M 89.10 148.35 C 92.04 147.87 95.02 148.28 97.96 148.58 C 97.40 153.71 97.07 158.92 98.11 164.03 C 100.75 163.04 103.38 162.02 106.00 160.98 C 105.69 162.56 105.38 164.15 105.07 165.74 C 104.86 166.73 104.66 167.73 104.45 168.73 C 106.32 169.45 108.18 170.18 110.06 170.87 C 109.39 169.89 108.73 168.91 108.03 167.97 C 109.56 167.91 111.10 167.86 112.64 167.88 C 114.04 168.21 115.03 169.58 114.77 171.02 C 115.07 173.40 112.30 174.21 110.80 175.48 C 108.85 174.39 106.81 173.45 104.68 172.79 C 103.93 171.90 103.20 171.01 102.48 170.11 C 101.21 169.74 99.95 169.37 98.69 168.97 C 95.45 167.84 92.15 166.86 88.88 165.82 C 85.25 164.67 82.57 161.82 79.47 159.77 C 79.83 161.23 79.68 162.89 80.92 163.98 C 84.81 167.97 89.21 171.43 92.89 175.64 C 92.23 177.16 91.58 178.69 90.94 180.22 C 92.89 181.25 94.86 182.26 96.90 183.09 C 97.45 184.38 98.07 185.63 98.68 186.89 C 96.39 188.53 94.06 190.15 92.13 192.21 C 90.95 190.82 89.94 189.21 88.41 188.16 C 84.52 187.15 80.43 187.27 76.48 186.59 C 76.70 187.66 76.93 188.72 77.17 189.79 C 76.40 191.12 75.59 192.43 74.77 193.74 C 73.87 192.83 72.97 191.92 72.07 191.01 C 71.77 190.71 71.17 190.10 70.87 189.80 C 70.42 189.36 69.52 188.48 69.07 188.04 C 68.90 186.41 68.72 184.78 68.53 183.16 C 64.93 184.52 61.43 186.27 58.64 188.98 C 58.13 189.67 57.65 190.39 57.19 191.13 C 56.72 188.41 56.35 185.67 55.92 182.94 C 54.74 182.57 53.57 182.17 52.43 181.68 C 52.53 179.52 52.95 177.41 53.22 175.27 C 54.48 175.82 55.73 176.36 56.99 176.91 C 57.69 174.36 58.01 171.57 59.66 169.39 C 62.20 166.29 64.03 162.68 64.98 158.78 C 63.28 158.76 61.50 158.33 59.84 158.84 C 57.46 159.89 55.72 161.92 54.13 163.90 C 53.79 163.57 53.12 162.90 52.78 162.57 C 50.31 163.36 47.73 163.69 45.14 163.63 C 47.64 162.92 50.15 162.23 52.60 161.34 C 55.51 159.92 58.08 157.91 60.50 155.77 C 64.88 155.83 69.25 155.40 73.64 155.41 C 75.93 156.24 78.17 157.23 80.49 158.00 C 83.73 158.70 87.05 159.01 90.35 159.25 C 89.57 157.18 88.75 155.13 87.91 153.10 C 88.37 151.53 88.73 149.94 89.10 148.35 M 68.90 159.05 C 68.44 162.48 69.45 165.79 70.92 168.84 C 71.93 168.09 72.94 167.34 73.95 166.60 C 74.82 166.92 75.69 167.24 76.56 167.57 C 77.00 166.05 77.44 164.54 77.90 163.03 C 76.80 161.82 75.74 160.54 74.46 159.53 C 72.64 159.09 70.75 159.15 68.90 159.05 M 68.65 171.70 C 66.79 173.96 66.31 177.03 65.19 179.70 C 71.99 178.90 79.19 178.44 85.53 181.53 C 86.11 176.83 87.30 170.31 81.91 167.90 C 77.51 169.21 73.13 170.65 68.65 171.70 Z" />
<path fill="#111314" opacity="1.00" d=" M 25.76 150.11 C 27.04 148.60 30.56 148.65 30.78 150.97 C 30.48 152.09 30.17 153.20 29.84 154.31 C 28.36 153.05 26.50 152.01 25.76 150.11 Z" />
<path fill="#111314" opacity="1.00" d=" M 113.09 150.09 C 113.49 147.45 117.89 149.74 116.12 151.65 C 115.01 151.34 113.96 150.84 113.09 150.09 Z" />
<path fill="#111314" opacity="1.00" d=" M 39.19 166.91 C 41.24 165.29 43.17 163.52 44.99 161.63 L 45.04 162.54 C 44.20 165.07 43.10 167.50 41.97 169.91 C 41.38 169.75 40.18 169.45 39.59 169.29 C 39.45 168.50 39.32 167.70 39.19 166.91 Z" />
<path fill="#111314" opacity="1.00" d=" M 56.09 195.36 C 59.38 195.93 62.63 196.72 65.80 197.78 C 66.13 198.23 66.79 199.13 67.12 199.58 C 64.02 199.75 60.91 199.90 57.80 200.05 C 57.24 198.48 56.66 196.92 56.09 195.36 Z" />
<path fill="#111314" opacity="1.00" d=" M 75.27 196.09 C 76.47 196.01 77.68 195.94 78.88 195.87 C 78.87 196.65 78.84 198.22 78.82 199.00 C 77.62 198.95 76.42 198.91 75.23 198.87 C 75.24 198.18 75.26 196.79 75.27 196.09 Z" />
</g>
<g id="#303131ff">
<path fill="#303131" opacity="1.00" d=" M 38.88 117.84 C 42.78 110.62 50.18 106.04 57.56 102.98 C 58.23 106.21 59.08 110.59 63.25 110.65 C 67.22 111.79 69.63 108.26 71.23 105.26 C 77.01 108.19 81.76 112.75 85.88 117.68 C 81.33 120.25 75.09 120.95 72.05 125.54 C 71.56 126.59 71.12 127.67 70.72 128.76 C 69.76 128.24 68.80 127.73 67.83 127.23 C 69.18 129.43 70.58 131.99 73.25 132.75 C 77.37 133.58 81.52 132.31 85.31 130.80 C 85.30 129.78 85.33 128.77 85.40 127.76 C 85.85 126.36 86.30 124.96 86.68 123.54 C 90.55 124.74 92.03 129.15 91.89 132.83 C 91.05 138.27 85.51 140.71 81.46 143.51 C 78.09 145.91 74.09 147.27 69.93 147.12 C 71.55 145.41 73.25 143.74 74.58 141.78 C 74.99 141.17 75.41 140.55 75.82 139.94 C 69.19 142.29 62.15 143.58 55.14 142.41 C 55.28 142.74 55.58 143.41 55.73 143.74 C 56.18 144.75 56.62 145.76 57.07 146.78 C 54.49 147.34 51.92 146.73 49.72 145.31 C 45.31 142.66 40.06 140.29 37.73 135.42 C 37.07 131.91 39.04 128.60 40.83 125.74 C 42.40 127.83 44.14 129.84 46.43 131.16 C 47.55 131.70 48.70 132.18 49.86 132.64 C 52.59 133.06 54.60 131.08 54.46 128.39 C 52.26 125.12 48.73 123.01 44.78 122.83 C 43.76 122.71 42.75 122.56 41.73 122.45 C 41.37 123.11 40.67 124.42 40.31 125.08 C 40.58 123.51 40.72 121.92 40.98 120.36 C 40.27 119.52 39.57 118.69 38.88 117.84 M 61.31 131.22 C 59.20 132.51 58.70 135.19 57.71 137.28 C 57.76 137.68 57.86 138.47 57.91 138.86 C 60.13 140.76 64.02 140.94 66.18 138.83 C 66.33 135.86 65.25 130.54 61.31 131.22 Z" />
<path fill="#303131" opacity="1.00" d=" M 92.63 144.62 C 97.28 142.04 101.33 137.90 106.93 137.59 C 105.68 138.89 104.38 140.14 103.08 141.39 C 105.60 144.38 110.09 146.42 110.07 150.84 C 106.06 152.06 102.28 150.27 99.15 147.89 C 99.22 146.27 99.30 144.66 99.37 143.04 C 98.00 143.91 96.63 144.79 95.26 145.66 C 96.16 146.63 97.05 147.60 97.96 148.58 C 95.02 148.28 92.04 147.87 89.10 148.35 C 84.06 150.94 79.01 153.56 73.64 155.41 C 69.25 155.40 64.88 155.83 60.50 155.77 C 56.81 154.92 53.16 153.91 49.45 153.15 C 47.83 154.89 46.20 156.62 44.57 158.34 C 44.66 155.92 44.76 153.50 44.85 151.09 C 49.63 152.02 54.40 152.96 59.19 153.80 C 58.13 152.85 57.08 151.90 55.97 151.00 C 60.19 151.89 64.49 152.89 68.83 152.53 C 73.13 151.84 77.06 149.83 80.97 148.01 C 78.60 149.64 76.30 151.38 74.01 153.13 C 80.49 150.93 86.67 147.96 92.63 144.62 Z" />
<path fill="#303131" opacity="1.00" d=" M 117.46 152.10 C 119.32 151.45 121.19 150.79 123.06 150.15 C 122.79 151.66 122.52 153.17 122.24 154.68 C 123.84 154.12 125.45 153.57 127.06 153.04 C 127.30 153.90 127.55 154.76 127.79 155.62 C 125.74 156.70 123.69 157.75 121.63 158.81 C 123.82 158.95 126.01 159.09 128.20 159.26 C 127.06 163.99 121.47 163.47 117.68 163.79 C 118.89 163.38 120.09 162.96 121.29 162.52 C 120.47 161.13 119.70 159.72 118.88 158.33 C 119.55 157.84 120.21 157.36 120.88 156.88 C 119.72 155.30 118.60 153.69 117.46 152.10 Z" />
<path fill="#303131" opacity="1.00" d=" M 31.61 155.26 L 32.41 155.62 C 31.44 156.27 30.47 156.93 29.50 157.58 C 29.57 158.61 29.64 159.64 29.71 160.68 C 26.89 160.83 24.01 160.53 21.62 158.89 C 23.97 155.82 28.24 156.23 31.61 155.26 Z" />
<path fill="#303131" opacity="1.00" d=" M 38.55 160.80 C 41.53 160.62 44.50 160.26 47.44 159.78 C 46.67 161.06 45.90 162.34 45.14 163.63 L 45.04 162.54 L 44.99 161.63 C 43.17 163.52 41.24 165.29 39.19 166.91 C 38.58 165.91 38.04 164.89 37.55 163.84 C 37.85 162.82 38.20 161.81 38.55 160.80 Z" />
<path fill="#303131" opacity="1.00" d=" M 79.47 159.77 C 82.57 161.82 85.25 164.67 88.88 165.82 C 92.15 166.86 95.45 167.84 98.69 168.97 C 97.53 171.26 97.58 173.82 97.97 176.30 C 100.73 176.17 103.36 175.45 104.68 172.79 C 106.81 173.45 108.85 174.39 110.80 175.48 C 108.17 177.42 105.48 179.26 102.82 181.16 C 104.26 181.92 105.71 182.67 107.15 183.43 C 103.84 188.78 98.91 193.08 97.01 199.26 C 106.60 199.68 116.21 199.07 125.78 199.49 C 130.24 199.96 128.39 205.71 128.78 208.74 C 95.27 208.70 61.75 208.73 28.24 208.73 C 28.45 205.84 27.66 202.59 29.31 200.02 C 33.48 199.16 37.77 199.64 42.00 199.57 C 46.90 199.67 51.87 199.11 56.71 200.11 C 70.73 202.80 85.25 202.55 99.36 200.62 C 93.20 199.14 86.86 199.95 80.61 199.53 C 80.48 199.16 80.22 198.42 80.09 198.05 C 81.27 198.53 82.45 199.00 83.64 199.47 C 83.22 198.03 82.80 196.59 82.37 195.15 C 84.47 195.45 86.59 195.90 88.72 195.74 C 90.24 195.04 91.00 193.37 92.13 192.21 C 94.06 190.15 96.39 188.53 98.68 186.89 C 98.07 185.63 97.45 184.38 96.90 183.09 C 97.12 179.97 94.87 177.74 92.89 175.64 C 89.21 171.43 84.81 167.97 80.92 163.98 C 79.68 162.89 79.83 161.23 79.47 159.77 Z" />
</g>
</svg>
