<?xml version="1.0" encoding="UTF-8" ?>
<!DOCTYPE svg PUBLIC "-//W3C//DTD SVG 1.1//EN" "http://www.w3.org/Graphics/SVG/1.1/DTD/svg11.dtd">
<svg width="155pt" height="210pt" viewBox="0 0 155 210" version="1.1" xmlns="http://www.w3.org/2000/svg">
<g id="#bdb9a4ff">
<path fill="#bdb9a4" opacity="1.00" d=" M 29.41 48.36 C 30.56 42.96 35.16 38.84 40.39 37.37 C 40.76 40.92 38.14 45.44 40.86 48.32 C 43.65 47.61 46.34 46.56 49.12 45.78 C 47.30 49.86 45.55 53.96 43.74 58.05 C 42.65 59.19 41.45 61.51 39.55 60.42 C 36.26 57.86 33.48 54.41 29.18 53.52 C 29.23 51.80 29.29 50.08 29.41 48.36 Z" />
<path fill="#bdb9a4" opacity="1.00" d=" M 118.90 41.31 C 124.45 43.27 127.96 48.56 129.56 53.98 C 130.15 61.16 126.94 68.10 122.50 73.57 C 121.76 74.26 121.17 75.53 120.01 75.47 C 116.96 75.68 113.89 75.68 110.87 76.15 C 112.20 72.21 113.86 68.23 113.71 63.99 C 113.65 58.53 110.91 53.66 109.02 48.68 C 111.98 49.60 114.84 50.81 117.70 52.00 C 118.10 48.44 118.37 44.86 118.90 41.31 Z" />
<path fill="#bdb9a4" opacity="1.00" d=" M 6.36 48.69 C 7.89 48.64 9.69 47.75 10.97 49.00 C 15.80 52.75 21.20 56.24 24.34 61.65 C 30.84 72.75 36.91 84.09 43.28 95.26 C 46.05 100.07 48.34 105.13 50.85 110.08 C 52.09 112.53 53.33 114.98 54.56 117.43 C 58.72 125.89 63.35 134.15 66.60 143.03 C 64.74 144.02 62.88 145.00 61.01 145.99 C 54.92 135.34 49.84 124.15 43.77 113.49 C 42.28 110.75 40.76 108.02 39.28 105.27 C 29.17 85.92 16.90 67.79 6.36 48.69 Z" />
<path fill="#bdb9a4" opacity="1.00" d=" M 59.51 112.15 C 57.44 112.42 58.42 108.74 60.08 110.03 C 59.94 110.56 59.65 111.62 59.51 112.15 Z" />
<path fill="#bdb9a4" opacity="1.00" d=" M 90.75 115.02 C 88.28 116.14 89.42 111.53 91.14 113.55 C 91.04 113.91 90.84 114.65 90.75 115.02 Z" />
<path fill="#bdb9a4" opacity="1.00" d=" M 63.64 128.60 C 66.76 129.15 69.82 130.07 72.97 130.42 C 78.08 130.83 82.94 128.75 87.99 128.44 C 90.02 128.25 91.56 129.86 93.25 130.71 C 89.73 131.17 86.28 132.22 83.48 134.49 C 82.70 133.58 81.91 132.69 81.12 131.79 C 75.25 131.33 68.79 132.01 63.64 128.60 Z" />
</g>
<g id="#827040ff">
<path fill="#827040" opacity="1.00" d=" M 28.32 48.11 L 29.41 48.36 C 29.29 50.08 29.23 51.80 29.18 53.52 C 33.48 54.41 36.26 57.86 39.55 60.42 C 41.45 61.51 42.65 59.19 43.74 58.05 C 43.60 62.36 43.51 66.83 45.16 70.91 C 46.37 74.29 48.78 77.02 51.11 79.69 C 49.88 81.46 48.82 83.35 47.99 85.34 C 43.57 81.93 37.04 80.09 35.17 74.28 C 33.43 70.26 30.74 66.65 29.63 62.36 C 28.20 57.76 28.17 52.89 28.32 48.11 Z" />
<path fill="#827040" opacity="1.00" d=" M 110.87 76.15 C 113.89 75.68 116.96 75.68 120.01 75.47 C 120.30 76.95 120.59 78.43 120.89 79.91 C 118.03 81.65 115.11 83.36 112.66 85.68 C 112.18 86.12 111.22 87.01 110.74 87.46 C 108.72 86.03 106.68 84.63 104.61 83.26 C 105.46 82.01 106.32 80.76 107.21 79.54 C 107.80 78.79 108.43 78.06 109.08 77.35 C 109.52 77.05 110.42 76.45 110.87 76.15 Z" />
<path fill="#827040" opacity="1.00" d=" M 58.30 102.42 C 61.77 101.97 63.72 105.71 64.44 108.54 C 64.98 111.22 65.71 114.56 63.84 116.87 C 60.92 118.14 57.63 117.46 54.56 117.43 C 53.33 114.98 52.09 112.53 50.85 110.08 C 52.84 107.19 54.52 103.22 58.30 102.42 M 60.08 110.03 C 58.42 108.74 57.44 112.42 59.51 112.15 C 58.83 113.53 59.87 114.78 60.76 115.73 C 60.89 113.08 60.81 110.42 60.58 107.77 C 60.45 108.33 60.20 109.47 60.08 110.03 Z" />
<path fill="#827040" opacity="1.00" d=" M 89.50 105.54 C 96.35 102.92 101.63 111.58 99.56 117.44 C 97.01 123.02 88.25 124.15 84.33 119.53 C 82.35 114.63 84.77 107.98 89.50 105.54 M 91.14 113.55 C 89.42 111.53 88.28 116.14 90.75 115.02 C 90.13 116.57 91.14 118.07 91.63 119.51 C 91.96 116.88 91.97 114.22 91.69 111.59 C 91.55 112.08 91.28 113.06 91.14 113.55 Z" />
<path fill="#827040" opacity="1.00" d=" M 59.22 150.52 C 63.61 150.21 68.00 149.74 72.29 148.70 C 73.06 152.74 73.58 156.83 73.79 160.94 C 81.14 159.07 87.29 154.64 93.64 150.72 C 94.69 154.68 95.08 158.79 94.47 162.85 C 91.69 163.32 88.59 163.34 86.28 165.19 C 82.98 167.55 80.51 171.20 76.55 172.54 C 74.13 173.33 71.70 172.18 69.62 171.04 L 69.30 170.41 C 68.32 168.36 67.42 166.29 66.43 164.25 C 64.88 160.11 60.18 158.70 57.81 155.20 C 56.92 153.69 56.62 150.25 59.22 150.52 Z" />
<path fill="#827040" opacity="1.00" d=" M 75.14 155.38 C 75.32 152.84 74.11 147.93 78.16 148.21 C 81.49 147.51 83.67 150.01 84.16 153.06 C 83.27 152.14 82.39 151.20 81.53 150.27 C 79.66 152.28 77.52 154.02 75.14 155.38 Z" />
</g>
<g id="#557c8eff">
<path fill="#557c8e" opacity="1.00" d=" M 63.07 69.98 C 69.31 68.83 74.91 64.72 81.45 65.23 C 87.19 65.68 93.16 65.42 98.65 67.36 C 102.84 69.84 105.30 74.33 109.08 77.35 C 108.43 78.06 107.80 78.79 107.21 79.54 C 105.50 78.93 103.81 78.26 102.07 77.75 C 101.12 78.37 100.37 79.17 99.82 80.15 C 100.63 85.40 105.06 88.98 108.35 92.78 C 109.16 91.02 109.96 89.24 110.74 87.46 C 111.22 87.01 112.18 86.12 112.66 85.68 C 114.54 91.67 116.24 97.73 118.46 103.61 C 120.40 108.49 119.68 114.05 122.16 118.74 C 124.67 123.59 126.97 128.57 128.20 133.91 C 123.77 136.29 119.07 138.30 114.08 139.11 C 111.64 139.47 109.18 139.70 106.72 139.94 C 108.36 136.81 110.33 133.85 111.70 130.58 C 112.69 128.18 111.55 125.61 110.94 123.25 C 107.49 113.16 103.94 102.94 98.05 93.97 C 93.93 87.23 88.02 81.67 81.38 77.44 C 77.81 75.11 74.00 78.14 70.82 79.74 C 66.49 82.59 60.81 82.35 56.75 85.69 C 53.95 87.90 50.89 89.77 47.54 91.03 C 50.14 86.09 56.17 82.61 55.58 76.41 C 55.06 72.09 59.68 70.58 63.07 69.98 Z" />
<path fill="#557c8e" opacity="1.00" d=" M 29.77 132.90 C 31.13 123.21 34.83 113.93 39.28 105.27 C 40.76 108.02 42.28 110.75 43.77 113.49 C 41.48 119.16 39.56 125.54 41.21 131.63 C 45.05 135.66 50.41 137.82 54.53 141.56 C 45.71 141.02 37.36 137.23 29.77 132.90 Z" />
<path fill="#557c8e" opacity="1.00" d=" M 69.05 116.79 C 71.06 117.08 73.51 116.41 75.19 117.84 C 76.49 119.83 76.47 122.34 76.91 124.60 C 74.02 124.61 71.13 124.59 68.24 124.53 C 68.50 121.95 68.77 119.36 69.05 116.79 Z" />
<path fill="#557c8e" opacity="1.00" d=" M 69.53 136.41 C 77.13 135.88 84.75 136.37 92.34 135.61 C 88.00 140.14 81.14 139.93 75.36 139.49 C 73.00 139.44 71.22 137.84 69.53 136.41 Z" />
<path fill="#557c8e" opacity="1.00" d=" M 93.64 150.72 C 95.17 150.40 96.73 150.18 98.30 150.09 C 97.92 152.58 97.24 155.07 97.42 157.60 C 101.53 160.81 106.32 163.05 110.45 166.26 C 107.16 170.42 102.22 172.51 97.19 173.70 L 96.95 172.88 C 95.93 169.59 95.07 166.25 94.47 162.85 C 95.08 158.79 94.69 154.68 93.64 150.72 Z" />
<path fill="#557c8e" opacity="1.00" d=" M 83.33 173.11 C 84.44 172.06 85.56 171.02 86.67 169.98 C 87.66 172.03 88.65 174.07 89.64 176.12 C 87.85 176.28 86.06 176.44 84.26 176.60 C 83.95 175.44 83.64 174.27 83.33 173.11 Z" />
<path fill="#557c8e" opacity="1.00" d=" M 59.83 192.46 C 72.61 192.03 85.40 192.01 98.18 192.50 C 85.55 194.67 72.48 194.34 59.83 192.46 Z" />
</g>
<g id="#232625ff">
<path fill="#232625" opacity="1.00" d=" M 51.11 79.69 C 52.38 78.33 54.04 77.42 55.58 76.41 C 56.17 82.61 50.14 86.09 47.54 91.03 C 50.89 89.77 53.95 87.90 56.75 85.69 C 60.81 82.35 66.49 82.59 70.82 79.74 C 74.00 78.14 77.81 75.11 81.38 77.44 C 88.02 81.67 93.93 87.23 98.05 93.97 C 103.94 102.94 107.49 113.16 110.94 123.25 C 111.55 125.61 112.69 128.18 111.70 130.58 C 110.33 133.85 108.36 136.81 106.72 139.94 C 109.18 139.70 111.64 139.47 114.08 139.11 C 110.94 141.59 107.50 143.63 103.91 145.39 C 105.33 147.05 106.75 148.70 108.14 150.39 C 104.89 151.55 101.56 150.69 98.30 150.09 C 96.73 150.18 95.17 150.40 93.64 150.72 C 87.29 154.64 81.14 159.07 73.79 160.94 C 73.58 156.83 73.06 152.74 72.29 148.70 C 68.00 149.74 63.61 150.21 59.22 150.52 C 58.55 148.24 57.90 145.96 57.29 143.67 C 56.37 142.97 55.44 142.27 54.53 141.56 C 50.41 137.82 45.05 135.66 41.21 131.63 C 39.56 125.54 41.48 119.16 43.77 113.49 C 49.84 124.15 54.92 135.34 61.01 145.99 C 62.88 145.00 64.74 144.02 66.60 143.03 C 63.35 134.15 58.72 125.89 54.56 117.43 C 57.63 117.46 60.92 118.14 63.84 116.87 C 65.71 114.56 64.98 111.22 64.44 108.54 C 63.72 105.71 61.77 101.97 58.30 102.42 C 54.52 103.22 52.84 107.19 50.85 110.08 C 48.34 105.13 46.05 100.07 43.28 95.26 C 46.06 92.61 47.01 88.90 47.99 85.34 C 48.82 83.35 49.88 81.46 51.11 79.69 M 89.50 105.54 C 84.77 107.98 82.35 114.63 84.33 119.53 C 88.25 124.15 97.01 123.02 99.56 117.44 C 101.63 111.58 96.35 102.92 89.50 105.54 M 69.05 116.79 C 68.77 119.36 68.50 121.95 68.24 124.53 C 71.13 124.59 74.02 124.61 76.91 124.60 C 76.47 122.34 76.49 119.83 75.19 117.84 C 73.51 116.41 71.06 117.08 69.05 116.79 M 63.64 128.60 C 68.79 132.01 75.25 131.33 81.12 131.79 C 81.91 132.69 82.70 133.58 83.48 134.49 C 86.28 132.22 89.73 131.17 93.25 130.71 C 91.56 129.86 90.02 128.25 87.99 128.44 C 82.94 128.75 78.08 130.83 72.97 130.42 C 69.82 130.07 66.76 129.15 63.64 128.60 M 69.53 136.41 C 71.22 137.84 73.00 139.44 75.36 139.49 C 81.14 139.93 88.00 140.14 92.34 135.61 C 84.75 136.37 77.13 135.88 69.53 136.41 M 75.14 155.38 C 77.52 154.02 79.66 152.28 81.53 150.27 C 82.39 151.20 83.27 152.14 84.16 153.06 C 83.67 150.01 81.49 147.51 78.16 148.21 C 74.11 147.93 75.32 152.84 75.14 155.38 Z" />
<path fill="#232625" opacity="1.00" d=" M 99.82 80.15 C 100.37 79.17 101.12 78.37 102.07 77.75 C 103.81 78.26 105.50 78.93 107.21 79.54 C 106.32 80.76 105.46 82.01 104.61 83.26 C 106.68 84.63 108.72 86.03 110.74 87.46 C 109.96 89.24 109.16 91.02 108.35 92.78 C 105.06 88.98 100.63 85.40 99.82 80.15 Z" />
<path fill="#232625" opacity="1.00" d=" M 60.08 110.03 C 60.20 109.47 60.45 108.33 60.58 107.77 C 60.81 110.42 60.89 113.08 60.76 115.73 C 59.87 114.78 58.83 113.53 59.51 112.15 C 59.65 111.62 59.94 110.56 60.08 110.03 Z" />
<path fill="#232625" opacity="1.00" d=" M 91.14 113.55 C 91.28 113.06 91.55 112.08 91.69 111.59 C 91.97 114.22 91.96 116.88 91.63 119.51 C 91.14 118.07 90.13 116.57 90.75 115.02 C 90.84 114.65 91.04 113.91 91.14 113.55 Z" />
<path fill="#232625" opacity="1.00" d=" M 86.28 165.19 C 88.59 163.34 91.69 163.32 94.47 162.85 C 95.07 166.25 95.93 169.59 96.95 172.88 C 96.46 172.73 95.48 172.44 94.99 172.29 C 94.43 177.93 90.45 184.24 94.56 189.39 C 95.41 191.63 98.02 191.33 99.96 191.44 C 107.98 191.50 116.01 191.23 124.03 191.38 C 125.47 191.54 127.31 191.35 128.18 192.79 C 128.85 195.37 128.68 198.07 128.79 200.72 C 95.26 200.79 61.72 200.77 28.18 200.73 C 28.28 198.06 28.14 195.35 28.75 192.73 C 29.49 191.62 30.87 191.53 32.07 191.43 C 42.64 191.01 53.27 191.90 63.82 191.15 C 67.67 188.26 72.07 186.39 76.91 186.01 C 71.79 182.87 70.73 176.45 69.62 171.04 C 71.70 172.18 74.13 173.33 76.55 172.54 C 80.51 171.20 82.98 167.55 86.28 165.19 M 83.33 173.11 C 83.64 174.27 83.95 175.44 84.26 176.60 C 86.06 176.44 87.85 176.28 89.64 176.12 C 88.65 174.07 87.66 172.03 86.67 169.98 C 85.56 171.02 84.44 172.06 83.33 173.11 M 59.83 192.46 C 72.48 194.34 85.55 194.67 98.18 192.50 C 85.40 192.01 72.61 192.03 59.83 192.46 Z" />
<path fill="#232625" opacity="1.00" d=" M 62.01 175.39 C 62.36 171.32 63.82 167.42 66.43 164.25 C 67.42 166.29 68.32 168.36 69.30 170.41 C 67.00 172.25 64.62 174.02 62.01 175.39 Z" />
</g>
</svg>
