<?xml version="1.0" encoding="UTF-8" ?>
<!DOCTYPE svg PUBLIC "-//W3C//DTD SVG 1.1//EN" "http://www.w3.org/Graphics/SVG/1.1/DTD/svg11.dtd">
<svg width="155pt" height="210pt" viewBox="0 0 155 210" version="1.1" xmlns="http://www.w3.org/2000/svg">
<g id="#2a4f5aff">
<path fill="#2a4f5a" opacity="1.00" d=" M 61.27 50.25 C 67.57 47.21 73.90 43.57 80.98 42.89 C 89.11 43.29 97.45 45.00 104.23 49.73 C 108.83 53.00 114.52 55.66 116.86 61.14 C 118.55 64.78 120.35 68.38 121.72 72.15 C 123.94 78.33 124.29 84.95 125.15 91.41 C 121.55 92.71 118.14 94.44 114.77 96.22 C 114.85 101.24 114.65 106.25 114.80 111.26 C 110.08 114.86 109.04 121.07 105.55 125.57 C 103.62 127.06 100.95 126.81 98.66 127.19 C 96.83 127.07 95.02 127.58 93.20 127.45 C 88.95 126.78 85.04 124.90 81.25 122.94 C 80.71 121.58 80.17 120.21 79.63 118.85 C 82.98 117.32 86.89 116.36 89.39 113.49 C 91.66 109.60 91.96 104.95 92.98 100.65 C 92.62 100.57 91.90 100.43 91.54 100.36 C 90.33 100.12 89.12 99.90 87.90 99.70 C 89.57 99.39 91.21 99.01 92.86 98.64 C 91.96 89.61 90.01 80.16 83.88 73.11 C 81.02 69.90 77.59 66.20 73.04 65.93 C 66.23 67.23 60.61 71.70 54.24 74.19 C 50.69 76.01 45.85 77.05 44.31 81.22 C 42.57 86.30 40.97 92.18 43.68 97.24 L 43.10 97.48 C 42.77 97.65 42.09 98.00 41.76 98.17 C 41.37 96.06 40.95 93.97 40.54 91.87 C 39.97 98.40 38.36 105.06 39.92 111.57 C 40.39 113.84 41.13 116.07 41.33 118.39 C 38.97 119.66 36.39 120.43 33.86 121.30 C 30.47 113.37 31.81 104.62 33.58 96.48 C 34.51 92.15 35.44 87.82 36.24 83.46 C 37.11 79.14 37.71 74.68 39.69 70.69 C 44.28 61.65 52.23 54.66 61.27 50.25 Z" />
<path fill="#2a4f5a" opacity="1.00" d=" M 44.12 89.62 C 46.90 91.15 49.96 92.45 52.16 94.83 C 53.16 96.65 53.50 98.74 53.95 100.75 C 51.10 99.37 48.28 97.92 45.36 96.69 C 45.94 96.51 47.08 96.14 47.66 95.96 C 46.44 93.86 45.25 91.76 44.12 89.62 Z" />
<path fill="#2a4f5a" opacity="1.00" d=" M 79.47 94.26 C 80.63 94.10 81.78 93.93 82.94 93.77 C 81.83 95.00 80.71 96.22 79.60 97.45 C 82.07 98.23 84.55 99.03 87.07 99.66 C 81.31 100.36 75.59 101.42 69.98 102.89 C 71.37 101.62 72.73 100.30 74.08 98.99 C 71.95 99.63 69.83 100.29 67.70 100.95 C 67.77 99.16 67.85 97.38 67.94 95.59 C 70.68 95.32 73.41 95.04 76.15 94.70 C 77.26 94.56 78.36 94.41 79.47 94.26 Z" />
<path fill="#2a4f5a" opacity="1.00" d=" M 116.56 110.33 C 119.13 109.06 121.68 107.70 123.98 105.97 C 123.86 113.43 120.12 120.98 113.40 124.58 C 114.04 120.39 115.58 116.43 117.63 112.74 C 117.36 112.14 116.83 110.94 116.56 110.33 Z" />
<path fill="#2a4f5a" opacity="1.00" d=" M 33.58 137.26 C 36.26 137.54 40.59 135.15 42.06 138.21 C 41.16 140.19 40.11 142.10 39.05 144.00 C 36.54 142.38 34.83 139.91 33.58 137.26 Z" />
<path fill="#2a4f5a" opacity="1.00" d=" M 72.12 151.57 C 74.30 152.22 76.48 152.87 78.67 153.47 C 79.38 153.66 80.78 154.04 81.48 154.22 C 81.57 154.71 81.76 155.68 81.85 156.16 C 80.10 156.48 78.35 156.81 76.60 157.13 C 77.44 158.33 78.27 159.53 79.11 160.73 C 76.77 160.08 74.35 159.59 72.20 158.44 C 71.72 156.18 72.02 153.85 72.12 151.57 Z" />
</g>
<g id="#e0dcd2ff">
<path fill="#e0dcd2" opacity="1.00" d=" M 54.24 74.19 C 60.61 71.70 66.23 67.23 73.04 65.93 C 77.59 66.20 81.02 69.90 83.88 73.11 C 90.01 80.16 91.96 89.61 92.86 98.64 C 91.21 99.01 89.57 99.39 87.90 99.70 L 87.07 99.66 C 84.55 99.03 82.07 98.23 79.60 97.45 C 80.71 96.22 81.83 95.00 82.94 93.77 C 81.78 93.93 80.63 94.10 79.47 94.26 C 78.29 88.66 77.07 83.06 75.13 77.68 C 74.76 83.38 75.29 89.07 76.15 94.70 C 73.41 95.04 70.68 95.32 67.94 95.59 C 67.85 97.38 67.77 99.16 67.70 100.95 C 69.83 100.29 71.95 99.63 74.08 98.99 C 72.73 100.30 71.37 101.62 69.98 102.89 C 68.91 103.81 67.86 104.74 66.82 105.68 C 68.88 105.31 70.93 104.92 72.99 104.54 C 74.67 106.33 76.22 109.93 79.26 108.66 C 80.44 106.98 80.86 104.93 81.60 103.05 C 84.12 103.21 86.64 103.40 89.16 103.64 C 87.52 106.10 86.31 109.28 83.43 110.56 C 79.93 111.94 76.08 111.58 72.41 111.81 C 75.73 113.24 79.75 115.84 83.25 113.41 C 87.59 110.33 89.31 104.95 91.54 100.36 C 91.90 100.43 92.62 100.57 92.98 100.65 C 91.96 104.95 91.66 109.60 89.39 113.49 C 86.89 116.36 82.98 117.32 79.63 118.85 C 80.17 120.21 80.71 121.58 81.25 122.94 C 71.62 127.51 60.71 125.30 50.61 123.95 C 49.67 123.69 48.83 123.25 48.07 122.65 C 47.28 121.84 46.37 121.16 45.37 120.65 C 45.07 120.16 44.49 119.18 44.19 118.69 C 42.43 113.64 42.85 108.27 42.67 103.03 C 43.47 104.54 44.34 106.01 45.23 107.47 C 46.21 109.14 47.43 110.67 48.61 112.20 C 49.73 111.44 50.86 110.68 51.98 109.92 C 49.63 108.79 47.31 107.59 45.06 106.27 C 44.84 104.26 44.70 102.25 44.42 100.26 C 45.68 100.58 46.95 100.92 48.21 101.26 C 48.34 103.47 48.53 105.66 48.84 107.85 C 50.74 105.64 52.71 103.41 53.95 100.75 C 53.50 98.74 53.16 96.65 52.16 94.83 C 49.96 92.45 46.90 91.15 44.12 89.62 C 45.25 91.76 46.44 93.86 47.66 95.96 C 47.08 96.14 45.94 96.51 45.36 96.69 C 44.94 96.83 44.10 97.10 43.68 97.24 C 40.97 92.18 42.57 86.30 44.31 81.22 C 45.85 77.05 50.69 76.01 54.24 74.19 M 55.28 109.04 C 55.90 110.73 56.51 112.41 57.08 114.11 C 56.29 115.77 54.45 117.93 56.59 119.35 C 58.91 122.63 62.64 120.07 65.30 118.79 C 63.77 116.95 62.20 115.15 60.62 113.37 C 61.14 113.22 62.17 112.93 62.68 112.78 C 62.04 109.86 57.62 110.27 55.28 109.04 Z" />
<path fill="#e0dcd2" opacity="1.00" d=" M 28.26 81.28 C 31.00 81.68 33.65 82.49 36.24 83.46 C 35.44 87.82 34.51 92.15 33.58 96.48 C 31.98 91.35 29.70 86.46 28.26 81.28 Z" />
<path fill="#e0dcd2" opacity="1.00" d=" M 125.15 91.41 C 129.79 89.66 134.76 88.85 139.72 89.30 C 138.27 92.22 135.64 94.20 133.15 96.18 C 129.60 98.97 127.37 103.02 123.98 105.97 C 121.68 107.70 119.13 109.06 116.56 110.33 C 116.12 110.57 115.24 111.03 114.80 111.26 C 114.65 106.25 114.85 101.24 114.77 96.22 C 118.14 94.44 121.55 92.71 125.15 91.41 Z" />
</g>
<g id="#793946ff">
<path fill="#793946" opacity="1.00" d=" M 75.13 77.68 C 77.07 83.06 78.29 88.66 79.47 94.26 C 78.36 94.41 77.26 94.56 76.15 94.70 C 75.29 89.07 74.76 83.38 75.13 77.68 Z" />
<path fill="#793946" opacity="1.00" d=" M 41.76 98.17 C 42.09 98.00 42.77 97.65 43.10 97.48 C 43.56 98.40 44.01 99.32 44.42 100.26 C 44.70 102.25 44.84 104.26 45.06 106.27 C 45.10 106.57 45.18 107.17 45.23 107.47 C 44.34 106.01 43.47 104.54 42.67 103.03 C 42.35 101.41 42.03 99.79 41.76 98.17 Z" />
<path fill="#793946" opacity="1.00" d=" M 55.28 109.04 C 57.62 110.27 62.04 109.86 62.68 112.78 C 62.17 112.93 61.14 113.22 60.62 113.37 C 59.45 113.63 58.27 113.88 57.08 114.11 C 56.51 112.41 55.90 110.73 55.28 109.04 Z" />
<path fill="#793946" opacity="1.00" d=" M 81.25 122.94 C 85.04 124.90 88.95 126.78 93.20 127.45 C 91.04 128.28 88.84 129.05 86.53 129.27 C 79.36 129.84 72.15 130.43 64.96 129.95 C 59.73 129.33 54.84 127.02 50.61 123.95 C 60.71 125.30 71.62 127.51 81.25 122.94 Z" />
<path fill="#793946" opacity="1.00" d=" M 69.15 132.94 C 72.35 132.76 75.57 132.35 78.78 132.70 C 83.14 133.28 86.64 136.86 87.69 141.05 C 89.52 147.26 91.10 153.68 94.84 159.09 C 98.44 164.30 101.88 169.62 104.77 175.26 C 107.29 180.31 111.55 184.79 111.74 190.71 C 105.47 190.28 99.19 190.87 92.93 190.88 C 96.79 189.50 101.24 188.30 103.77 184.81 C 103.14 179.61 99.77 175.34 97.01 171.08 C 90.86 162.17 85.57 152.58 82.59 142.11 C 81.75 143.46 80.91 144.81 80.07 146.16 C 76.47 149.41 71.62 150.39 66.95 150.90 C 67.70 149.25 68.46 147.61 69.23 145.96 C 68.11 145.68 66.99 145.40 65.87 145.13 C 65.61 144.10 65.35 143.08 65.09 142.05 C 68.04 141.83 70.99 141.62 73.95 141.43 C 73.90 140.73 73.82 139.33 73.78 138.63 C 70.44 138.76 67.00 138.60 63.78 139.65 C 60.11 140.95 57.68 144.19 55.23 147.03 C 53.80 145.46 52.23 144.01 50.54 142.72 C 54.64 141.14 56.84 137.46 59.42 134.21 C 62.51 133.04 65.91 133.28 69.15 132.94 Z" />
<path fill="#793946" opacity="1.00" d=" M 60.75 164.51 C 63.11 163.80 65.47 163.08 67.86 162.47 C 68.15 162.80 68.73 163.44 69.02 163.76 C 67.15 168.19 64.00 171.90 60.64 175.27 C 59.95 171.70 60.21 168.07 60.75 164.51 Z" />
<path fill="#793946" opacity="1.00" d=" M 59.68 192.48 C 72.16 191.43 84.80 191.15 97.28 192.40 C 84.94 195.05 72.07 194.43 59.68 192.48 Z" />
</g>
<g id="#070d12ff">
<path fill="#070d12" opacity="1.00" d=" M 40.54 91.87 C 40.95 93.97 41.37 96.06 41.76 98.17 C 42.03 99.79 42.35 101.41 42.67 103.03 C 42.85 108.27 42.43 113.64 44.19 118.69 C 42.36 120.82 40.74 123.32 38.20 124.69 C 36.67 123.66 35.29 122.45 33.86 121.30 C 36.39 120.43 38.97 119.66 41.33 118.39 C 41.13 116.07 40.39 113.84 39.92 111.57 C 38.36 105.06 39.97 98.40 40.54 91.87 Z" />
<path fill="#070d12" opacity="1.00" d=" M 43.10 97.48 L 43.68 97.24 C 44.10 97.10 44.94 96.83 45.36 96.69 C 48.28 97.92 51.10 99.37 53.95 100.75 C 52.71 103.41 50.74 105.64 48.84 107.85 C 48.53 105.66 48.34 103.47 48.21 101.26 C 46.95 100.92 45.68 100.58 44.42 100.26 C 44.01 99.32 43.56 98.40 43.10 97.48 Z" />
<path fill="#070d12" opacity="1.00" d=" M 69.98 102.89 C 75.59 101.42 81.31 100.36 87.07 99.66 L 87.90 99.70 C 89.12 99.90 90.33 100.12 91.54 100.36 C 89.31 104.95 87.59 110.33 83.25 113.41 C 79.75 115.84 75.73 113.24 72.41 111.81 C 76.08 111.58 79.93 111.94 83.43 110.56 C 86.31 109.28 87.52 106.10 89.16 103.64 C 86.64 103.40 84.12 103.21 81.60 103.05 C 80.86 104.93 80.44 106.98 79.26 108.66 C 76.22 109.93 74.67 106.33 72.99 104.54 C 70.93 104.92 68.88 105.31 66.82 105.68 C 67.86 104.74 68.91 103.81 69.98 102.89 Z" />
<path fill="#070d12" opacity="1.00" d=" M 45.23 107.47 C 45.18 107.17 45.10 106.57 45.06 106.27 C 47.31 107.59 49.63 108.79 51.98 109.92 C 50.86 110.68 49.73 111.44 48.61 112.20 C 47.43 110.67 46.21 109.14 45.23 107.47 Z" />
<path fill="#070d12" opacity="1.00" d=" M 80.07 146.16 C 80.91 144.81 81.75 143.46 82.59 142.11 C 85.57 152.58 90.86 162.17 97.01 171.08 C 99.77 175.34 103.14 179.61 103.77 184.81 C 101.24 188.30 96.79 189.50 92.93 190.88 C 88.72 191.05 84.51 191.04 80.30 191.12 C 81.39 184.91 82.23 178.66 83.15 172.43 C 83.99 166.98 82.85 161.51 81.85 156.16 C 81.76 155.68 81.57 154.71 81.48 154.22 C 80.78 154.04 79.38 153.66 78.67 153.47 C 79.04 151.02 79.43 148.56 80.07 146.16 Z" />
<path fill="#070d12" opacity="1.00" d=" M 67.86 162.47 C 69.41 162.05 70.95 161.60 72.48 161.15 C 72.87 163.49 73.33 165.83 73.58 168.19 C 74.33 174.26 72.34 180.20 72.28 186.26 C 73.93 185.69 75.57 185.12 77.21 184.54 C 76.10 186.76 75.01 188.98 73.94 191.22 C 69.21 191.32 64.49 191.26 59.77 191.09 C 61.15 188.95 62.53 186.81 63.96 184.71 C 65.43 182.60 66.96 180.54 68.41 178.42 C 66.35 177.37 64.30 176.33 62.24 175.29 C 64.32 175.28 66.41 175.30 68.47 174.99 C 70.12 172.09 69.96 168.60 70.43 165.39 C 70.08 164.98 69.37 164.17 69.02 163.76 C 68.73 163.44 68.15 162.80 67.86 162.47 Z" />
</g>
<g id="#2e3132ff">
<path fill="#2e3132" opacity="1.00" d=" M 114.80 111.26 C 115.24 111.03 116.12 110.57 116.56 110.33 C 116.83 110.94 117.36 112.14 117.63 112.74 C 115.58 116.43 114.04 120.39 113.40 124.58 C 108.66 126.80 103.48 128.51 98.21 127.25 L 98.66 127.19 C 100.95 126.81 103.62 127.06 105.55 125.57 C 109.04 121.07 110.08 114.86 114.80 111.26 Z" />
<path fill="#2e3132" opacity="1.00" d=" M 57.08 114.11 C 58.27 113.88 59.45 113.63 60.62 113.37 C 62.20 115.15 63.77 116.95 65.30 118.79 C 62.64 120.07 58.91 122.63 56.59 119.35 C 54.45 117.93 56.29 115.77 57.08 114.11 Z" />
<path fill="#2e3132" opacity="1.00" d=" M 45.37 120.65 C 46.37 121.16 47.28 121.84 48.07 122.65 C 46.94 124.18 44.19 122.17 45.37 120.65 Z" />
<path fill="#2e3132" opacity="1.00" d=" M 42.06 138.21 C 44.91 139.66 47.87 140.93 50.54 142.72 C 52.23 144.01 53.80 145.46 55.23 147.03 C 56.24 148.15 57.20 149.31 58.17 150.46 C 55.96 150.22 53.74 150.00 51.54 149.62 C 47.30 147.92 43.94 144.12 39.05 144.00 C 40.11 142.10 41.16 140.19 42.06 138.21 Z" />
<path fill="#2e3132" opacity="1.00" d=" M 54.85 191.13 C 58.15 189.41 60.68 186.51 63.96 184.71 C 62.53 186.81 61.15 188.95 59.77 191.09 C 64.49 191.26 69.21 191.32 73.94 191.22 C 76.06 191.18 78.18 191.14 80.30 191.12 C 84.51 191.04 88.72 191.05 92.93 190.88 C 99.19 190.87 105.47 190.28 111.74 190.71 C 117.14 192.04 123.07 190.54 128.22 192.64 C 128.74 195.30 128.69 198.02 128.81 200.72 C 95.24 200.79 61.68 200.79 28.12 200.72 C 28.24 198.07 28.06 195.36 28.77 192.79 C 29.48 191.64 30.89 191.56 32.08 191.45 C 39.66 190.93 47.30 192.05 54.85 191.13 M 59.68 192.48 C 72.07 194.43 84.94 195.05 97.28 192.40 C 84.80 191.15 72.16 191.43 59.68 192.48 Z" />
</g>
<g id="#35101dff">
<path fill="#35101d" opacity="1.00" d=" M 64.96 129.95 C 72.15 130.43 79.36 129.84 86.53 129.27 C 89.17 131.42 92.01 133.30 94.83 135.21 C 93.63 143.26 98.29 151.35 94.84 159.09 C 91.10 153.68 89.52 147.26 87.69 141.05 C 86.64 136.86 83.14 133.28 78.78 132.70 C 75.57 132.35 72.35 132.76 69.15 132.94 C 69.30 132.43 69.60 131.41 69.75 130.89 C 68.15 130.58 66.55 130.27 64.96 129.95 Z" />
<path fill="#35101d" opacity="1.00" d=" M 63.78 139.65 C 67.00 138.60 70.44 138.76 73.78 138.63 C 73.82 139.33 73.90 140.73 73.95 141.43 C 70.99 141.62 68.04 141.83 65.09 142.05 C 65.35 143.08 65.61 144.10 65.87 145.13 C 66.99 145.40 68.11 145.68 69.23 145.96 C 68.46 147.61 67.70 149.25 66.95 150.90 C 71.62 150.39 76.47 149.41 80.07 146.16 C 79.43 148.56 79.04 151.02 78.67 153.47 C 76.48 152.87 74.30 152.22 72.12 151.57 C 72.02 153.85 71.72 156.18 72.20 158.44 C 74.35 159.59 76.77 160.08 79.11 160.73 C 78.27 159.53 77.44 158.33 76.60 157.13 C 78.35 156.81 80.10 156.48 81.85 156.16 C 82.85 161.51 83.99 166.98 83.15 172.43 C 82.23 178.66 81.39 184.91 80.30 191.12 C 78.18 191.14 76.06 191.18 73.94 191.22 C 75.01 188.98 76.10 186.76 77.21 184.54 C 75.57 185.12 73.93 185.69 72.28 186.26 C 72.34 180.20 74.33 174.26 73.58 168.19 C 73.33 165.83 72.87 163.49 72.48 161.15 C 70.95 161.60 69.41 162.05 67.86 162.47 C 65.47 163.08 63.11 163.80 60.75 164.51 C 59.07 161.47 59.99 158.10 60.71 154.93 C 57.19 154.08 54.12 152.13 51.54 149.62 C 53.74 150.00 55.96 150.22 58.17 150.46 C 57.20 149.31 56.24 148.15 55.23 147.03 C 57.68 144.19 60.11 140.95 63.78 139.65 Z" />
<path fill="#35101d" opacity="1.00" d=" M 69.02 163.76 C 69.37 164.17 70.08 164.98 70.43 165.39 C 69.96 168.60 70.12 172.09 68.47 174.99 C 66.41 175.30 64.32 175.28 62.24 175.29 C 61.84 175.28 61.04 175.27 60.64 175.27 C 64.00 171.90 67.15 168.19 69.02 163.76 Z" />
</g>
</svg>
