<?xml version="1.0" encoding="UTF-8" ?>
<!DOCTYPE svg PUBLIC "-//W3C//DTD SVG 1.1//EN" "http://www.w3.org/Graphics/SVG/1.1/DTD/svg11.dtd">
<svg width="155pt" height="210pt" viewBox="0 0 155 210" version="1.1" xmlns="http://www.w3.org/2000/svg">
<g id="#d5c79dff">
<path fill="#d5c79d" opacity="1.00" d=" M 62.93 60.90 C 64.02 57.51 66.81 55.06 68.94 52.31 C 71.80 53.38 74.83 55.38 77.88 53.68 C 77.84 56.11 78.36 58.81 76.94 60.96 C 75.39 63.48 73.40 65.67 71.56 67.96 C 73.60 66.68 75.65 65.41 77.69 64.13 C 77.81 66.78 77.93 69.44 78.06 72.10 C 74.33 75.65 70.57 79.16 66.87 82.73 C 58.64 89.48 51.01 97.16 45.19 106.12 C 42.32 108.50 39.62 111.09 37.39 114.08 C 37.44 112.79 37.48 111.50 37.53 110.21 C 34.86 113.43 32.47 116.87 30.32 120.46 C 28.75 120.42 27.18 120.38 25.61 120.33 C 27.07 117.32 28.66 114.37 30.18 111.38 C 26.85 108.61 22.60 104.99 23.62 100.13 C 26.59 96.05 31.79 94.52 36.13 92.33 C 35.66 89.13 32.94 87.21 31.34 84.61 C 30.41 81.71 32.10 78.11 34.96 76.99 C 38.44 75.47 42.32 75.55 46.04 75.37 C 45.36 73.57 44.66 71.78 43.97 69.99 C 45.94 68.05 47.94 66.17 49.99 64.32 C 51.05 64.65 52.12 64.97 53.18 65.30 C 52.65 69.29 53.95 73.11 56.07 76.45 C 57.54 75.05 59.03 73.66 60.44 72.21 C 63.10 69.03 62.64 64.75 62.93 60.90 Z" />
<path fill="#d5c79d" opacity="1.00" d=" M 52.11 125.83 C 54.41 119.55 58.73 114.39 63.75 110.09 C 63.56 117.35 63.79 124.67 62.19 131.80 C 58.57 130.27 55.19 128.26 52.11 125.83 Z" />
<path fill="#d5c79d" opacity="1.00" d=" M 123.06 152.14 C 129.73 148.38 136.84 144.93 144.62 144.50 C 142.21 148.04 139.58 151.48 136.30 154.25 C 131.26 158.22 127.14 163.29 121.66 166.71 C 120.65 167.20 119.74 167.86 118.96 168.66 C 117.15 169.96 114.65 172.56 112.73 169.97 C 112.43 168.43 112.10 166.88 112.20 165.31 C 113.15 164.09 114.33 163.08 115.44 162.02 C 117.90 159.95 119.35 157.06 120.68 154.21 C 121.14 153.21 122.20 152.72 123.06 152.14 Z" />
</g>
<g id="#b6b08bff">
<path fill="#b6b08b" opacity="1.00" d=" M 77.85 52.53 C 82.40 54.70 84.74 59.39 88.01 62.97 C 90.52 63.05 94.14 61.39 95.70 64.17 C 96.54 65.86 96.76 67.76 97.18 69.57 C 99.26 69.45 101.47 68.73 103.51 69.44 C 105.77 71.33 107.27 74.17 107.64 77.08 C 107.50 79.53 105.89 81.58 105.21 83.88 C 107.57 86.78 112.57 86.18 114.21 89.89 C 116.41 93.12 115.51 97.03 115.59 100.65 C 117.59 107.02 120.79 113.01 122.23 119.57 C 122.79 121.66 120.98 123.35 119.88 124.90 C 116.80 128.45 113.68 132.03 110.02 135.00 C 100.78 141.98 91.80 149.55 81.08 154.21 C 78.62 155.19 75.92 155.15 73.32 155.36 C 73.20 154.78 72.95 153.61 72.83 153.02 C 79.61 152.73 85.82 149.58 90.92 145.25 C 95.43 141.67 99.64 137.74 104.03 134.03 C 105.03 133.46 105.86 132.71 106.54 131.80 C 109.03 128.57 112.35 125.77 113.68 121.83 C 113.66 117.69 111.55 113.91 109.84 110.25 C 102.04 95.47 89.89 83.66 78.06 72.10 C 77.93 69.44 77.81 66.78 77.69 64.13 C 75.65 65.41 73.60 66.68 71.56 67.96 C 73.40 65.67 75.39 63.48 76.94 60.96 C 78.36 58.81 77.84 56.11 77.88 53.68 L 77.85 52.53 Z" />
<path fill="#b6b08b" opacity="1.00" d=" M 49.99 64.32 C 52.31 64.51 55.35 63.85 56.84 66.14 C 58.13 68.11 59.27 70.16 60.44 72.21 C 59.03 73.66 57.54 75.05 56.07 76.45 C 53.95 73.11 52.65 69.29 53.18 65.30 C 52.12 64.97 51.05 64.65 49.99 64.32 Z" />
<path fill="#b6b08b" opacity="1.00" d=" M 37.39 114.08 C 39.62 111.09 42.32 108.50 45.19 106.12 L 44.73 106.89 C 42.00 111.65 39.13 116.32 36.32 121.03 C 42.22 128.99 49.23 136.07 56.92 142.31 C 58.60 143.75 60.28 145.18 61.95 146.62 C 58.88 146.51 55.83 146.03 52.77 145.70 L 52.20 145.67 C 50.28 145.63 48.36 145.58 46.45 145.35 C 43.31 142.71 41.07 139.26 39.11 135.69 C 38.10 136.73 37.10 137.78 36.09 138.82 C 31.31 133.36 30.59 125.67 25.61 120.33 C 27.18 120.38 28.75 120.42 30.32 120.46 C 32.47 116.87 34.86 113.43 37.53 110.21 C 37.48 111.50 37.44 112.79 37.39 114.08 Z" />
<path fill="#b6b08b" opacity="1.00" d=" M 92.95 111.65 C 96.25 115.67 99.47 120.44 99.28 125.87 C 97.75 128.25 94.91 129.11 92.46 130.21 C 92.20 124.02 92.05 117.80 92.95 111.65 Z" />
<path fill="#b6b08b" opacity="1.00" d=" M 68.96 143.27 C 71.79 141.91 74.55 139.94 77.77 139.73 C 80.20 140.35 82.07 142.16 84.06 143.59 C 81.39 145.39 78.65 147.10 75.92 148.82 C 73.54 147.04 71.21 145.21 68.96 143.27 Z" />
<path fill="#b6b08b" opacity="1.00" d=" M 50.21 154.28 C 50.91 153.22 52.05 152.45 53.34 152.41 C 54.83 152.23 56.32 152.09 57.81 151.94 C 54.52 154.45 51.81 157.68 51.36 161.96 C 54.06 162.66 56.76 163.34 59.49 163.88 C 56.25 166.97 51.03 165.92 48.14 162.90 C 46.22 161.46 47.47 158.75 48.37 157.06 C 49.13 156.23 49.75 155.30 50.21 154.28 Z" />
<path fill="#b6b08b" opacity="1.00" d=" M 114.80 157.44 C 116.62 156.14 118.58 155.01 120.68 154.21 C 119.35 157.06 117.90 159.95 115.44 162.02 C 115.25 160.49 115.06 158.96 114.80 157.44 Z" />
<path fill="#b6b08b" opacity="1.00" d=" M 98.41 170.57 C 100.79 168.58 103.24 166.69 105.58 164.67 C 106.80 167.27 108.15 169.80 109.59 172.29 C 108.48 172.44 107.37 172.59 106.26 172.75 C 104.71 171.47 103.17 170.19 101.60 168.94 C 102.52 170.85 103.50 172.73 104.54 174.58 C 103.74 175.17 102.94 175.76 102.14 176.36 C 101.01 174.36 99.72 172.46 98.41 170.57 Z" />
<path fill="#b6b08b" opacity="1.00" d=" M 69.65 172.07 C 73.61 171.36 77.28 169.62 80.98 168.10 C 81.27 170.20 80.94 172.27 79.45 173.86 C 78.39 174.30 77.32 174.70 76.23 175.07 C 71.05 175.38 65.86 175.62 60.70 176.23 C 60.08 176.26 58.85 176.34 58.23 176.37 C 58.49 174.39 58.77 172.42 59.06 170.45 L 59.86 170.69 C 63.02 171.59 66.32 172.70 69.65 172.07 Z" />
<path fill="#b6b08b" opacity="1.00" d=" M 51.46 194.49 C 51.63 192.38 52.31 189.61 55.00 190.48 C 58.16 190.83 61.28 191.47 64.41 192.08 C 60.33 193.82 55.95 195.48 51.46 194.49 Z" />
</g>
<g id="#302d2bff">
<path fill="#302d2b" opacity="1.00" d=" M 62.06 68.04 C 62.29 65.65 62.54 63.27 62.93 60.90 C 62.64 64.75 63.10 69.03 60.44 72.21 C 59.27 70.16 58.13 68.11 56.84 66.14 C 58.59 66.76 60.32 67.40 62.06 68.04 Z" />
<path fill="#302d2b" opacity="1.00" d=" M 45.19 106.12 C 51.01 97.16 58.64 89.48 66.87 82.73 C 64.27 85.84 61.71 88.99 58.88 91.90 C 54.06 96.81 49.97 102.40 44.73 106.89 L 45.19 106.12 Z" />
<path fill="#302d2b" opacity="1.00" d=" M 47.41 118.41 C 53.55 109.97 60.08 101.37 69.04 95.74 C 69.93 99.08 70.74 102.47 70.85 105.94 C 71.14 116.32 70.42 126.75 68.34 136.94 C 71.42 135.40 74.43 133.40 77.91 132.98 C 83.70 134.96 88.94 139.31 90.92 145.25 C 85.82 149.58 79.61 152.73 72.83 153.02 C 72.95 153.61 73.20 154.78 73.32 155.36 C 75.92 155.15 78.62 155.19 81.08 154.21 C 91.80 149.55 100.78 141.98 110.02 135.00 C 102.69 144.60 92.11 150.89 81.96 157.08 C 83.69 158.94 85.42 160.79 87.17 162.64 C 89.08 162.71 91.16 162.25 92.95 163.10 C 94.81 164.58 94.35 167.31 94.76 169.41 C 95.97 169.80 97.19 170.19 98.41 170.57 C 99.72 172.46 101.01 174.36 102.14 176.36 C 103.92 178.93 100.42 180.58 98.68 181.81 C 95.53 184.00 91.75 184.93 87.96 184.12 C 87.28 186.23 86.61 188.35 85.97 190.47 C 87.53 190.82 89.10 191.18 90.66 191.54 C 90.51 193.48 90.35 195.41 90.17 197.35 C 92.37 198.21 94.55 199.29 96.96 199.36 C 106.56 199.69 116.18 199.01 125.77 199.53 C 130.07 200.06 128.24 205.74 128.79 208.72 C 95.25 208.79 61.72 208.77 28.19 208.73 C 28.65 205.85 27.32 201.93 29.78 199.82 C 36.35 198.46 43.17 200.32 49.75 198.96 C 51.06 197.91 50.95 195.98 51.46 194.49 C 55.95 195.48 60.33 193.82 64.41 192.08 C 61.28 191.47 58.16 190.83 55.00 190.48 C 54.08 188.66 52.97 186.91 52.35 184.96 C 52.38 181.56 54.95 178.97 56.92 176.46 C 58.30 178.43 59.66 180.41 60.80 182.52 C 61.93 185.37 63.83 187.84 67.06 188.32 C 67.68 188.54 68.30 188.76 68.93 188.97 C 68.92 185.59 70.57 182.69 72.49 180.03 C 73.53 182.08 74.58 184.13 75.66 186.18 C 77.57 183.46 78.48 180.25 77.89 176.95 C 79.44 177.09 80.99 177.22 82.54 177.36 C 81.51 176.19 80.48 175.03 79.45 173.86 C 80.94 172.27 81.27 170.20 80.98 168.10 C 77.28 169.62 73.61 171.36 69.65 172.07 C 66.32 172.70 63.02 171.59 59.86 170.69 C 60.93 168.64 61.99 166.58 62.99 164.49 C 61.82 164.30 60.65 164.10 59.49 163.88 C 56.76 163.34 54.06 162.66 51.36 161.96 C 51.81 157.68 54.52 154.45 57.81 151.94 C 56.32 152.09 54.83 152.23 53.34 152.41 C 53.82 151.61 54.29 150.80 54.78 150.01 C 54.11 148.57 53.44 147.13 52.77 145.70 C 55.83 146.03 58.88 146.51 61.95 146.62 C 60.28 145.18 58.60 143.75 56.92 142.31 C 57.69 140.48 58.46 138.64 59.23 136.81 C 54.52 133.92 49.28 131.56 45.55 127.37 C 42.91 124.55 45.93 121.00 47.41 118.41 M 52.11 125.83 C 55.19 128.26 58.57 130.27 62.19 131.80 C 63.79 124.67 63.56 117.35 63.75 110.09 C 58.73 114.39 54.41 119.55 52.11 125.83 M 68.96 143.27 C 71.21 145.21 73.54 147.04 75.92 148.82 C 78.65 147.10 81.39 145.39 84.06 143.59 C 82.07 142.16 80.20 140.35 77.77 139.73 C 74.55 139.94 71.79 141.91 68.96 143.27 M 85.40 176.37 C 84.13 177.60 86.22 179.72 87.46 178.44 C 88.74 177.21 86.64 175.09 85.40 176.37 M 70.10 184.41 C 69.04 185.32 70.04 187.73 71.50 186.74 C 72.89 185.91 71.43 183.32 70.10 184.41 M 79.23 188.92 C 77.36 188.70 76.93 191.70 79.06 191.40 C 80.95 191.66 81.36 188.60 79.23 188.92 M 66.49 198.99 C 70.28 199.36 74.08 199.40 77.88 199.47 C 76.27 197.55 74.97 195.42 73.96 193.14 C 70.98 194.42 67.48 195.50 66.49 198.99 Z" />
<path fill="#302d2b" opacity="1.00" d=" M 89.24 99.72 C 95.43 102.72 99.32 108.70 102.36 114.62 C 103.94 118.45 107.07 122.45 106.04 126.74 C 101.35 132.52 94.01 135.42 86.93 137.07 C 85.36 128.42 85.85 119.58 86.69 110.89 C 87.05 107.07 88.02 103.35 89.24 99.72 M 92.95 111.65 C 92.05 117.80 92.20 124.02 92.46 130.21 C 94.91 129.11 97.75 128.25 99.28 125.87 C 99.47 120.44 96.25 115.67 92.95 111.65 Z" />
<path fill="#302d2b" opacity="1.00" d=" M 104.03 134.03 C 102.48 132.38 105.14 129.85 106.54 131.80 C 105.86 132.71 105.03 133.46 104.03 134.03 Z" />
<path fill="#302d2b" opacity="1.00" d=" M 46.45 145.35 C 48.36 145.58 50.28 145.63 52.20 145.67 C 51.63 146.32 50.49 147.62 49.92 148.27 C 48.82 147.23 47.69 146.22 46.45 145.35 Z" />
<path fill="#302d2b" opacity="1.00" d=" M 48.37 157.06 C 46.76 156.02 48.63 153.15 50.21 154.28 C 49.75 155.30 49.13 156.23 48.37 157.06 Z" />
<path fill="#302d2b" opacity="1.00" d=" M 111.36 154.77 C 112.53 155.61 113.80 156.37 114.80 157.44 C 115.06 158.96 115.25 160.49 115.44 162.02 C 114.33 163.08 113.15 164.09 112.20 165.31 C 112.10 166.88 112.43 168.43 112.73 169.97 C 111.69 170.75 110.64 171.52 109.59 172.29 C 108.15 169.80 106.80 167.27 105.58 164.67 C 108.27 161.86 109.92 158.32 111.36 154.77 Z" />
<path fill="#302d2b" opacity="1.00" d=" M 118.96 168.66 C 119.74 167.86 120.65 167.20 121.66 166.71 C 122.85 168.24 120.07 170.20 118.96 168.66 Z" />
<path fill="#302d2b" opacity="1.00" d=" M 101.60 168.94 C 103.17 170.19 104.71 171.47 106.26 172.75 C 105.83 173.21 104.97 174.12 104.54 174.58 C 103.50 172.73 102.52 170.85 101.60 168.94 Z" />
<path fill="#302d2b" opacity="1.00" d=" M 60.70 176.23 C 65.86 175.62 71.05 175.38 76.23 175.07 C 71.32 177.30 65.89 177.32 60.70 176.23 Z" />
</g>
<g id="#5ca7e4ff">
<path fill="#5ca7e4" opacity="1.00" d=" M 78.06 72.10 C 89.89 83.66 102.04 95.47 109.84 110.25 C 111.55 113.91 113.66 117.69 113.68 121.83 C 112.35 125.77 109.03 128.57 106.54 131.80 C 105.14 129.85 102.48 132.38 104.03 134.03 C 99.64 137.74 95.43 141.67 90.92 145.25 C 88.94 139.31 83.70 134.96 77.91 132.98 C 74.43 133.40 71.42 135.40 68.34 136.94 C 70.42 126.75 71.14 116.32 70.85 105.94 C 70.74 102.47 69.93 99.08 69.04 95.74 C 60.08 101.37 53.55 109.97 47.41 118.41 C 45.93 121.00 42.91 124.55 45.55 127.37 C 49.28 131.56 54.52 133.92 59.23 136.81 C 58.46 138.64 57.69 140.48 56.92 142.31 C 49.23 136.07 42.22 128.99 36.32 121.03 C 39.13 116.32 42.00 111.65 44.73 106.89 C 49.97 102.40 54.06 96.81 58.88 91.90 C 61.71 88.99 64.27 85.84 66.87 82.73 C 70.57 79.16 74.33 75.65 78.06 72.10 M 89.24 99.72 C 88.02 103.35 87.05 107.07 86.69 110.89 C 85.85 119.58 85.36 128.42 86.93 137.07 C 94.01 135.42 101.35 132.52 106.04 126.74 C 107.07 122.45 103.94 118.45 102.36 114.62 C 99.32 108.70 95.43 102.72 89.24 99.72 Z" />
<path fill="#5ca7e4" opacity="1.00" d=" M 76.23 175.07 C 77.32 174.70 78.39 174.30 79.45 173.86 C 80.48 175.03 81.51 176.19 82.54 177.36 C 80.99 177.22 79.44 177.09 77.89 176.95 C 78.48 180.25 77.57 183.46 75.66 186.18 C 74.58 184.13 73.53 182.08 72.49 180.03 C 70.57 182.69 68.92 185.59 68.93 188.97 C 68.30 188.76 67.68 188.54 67.06 188.32 C 65.19 186.17 63.17 184.12 60.80 182.52 C 59.66 180.41 58.30 178.43 56.92 176.46 C 57.25 176.44 57.91 176.40 58.23 176.37 C 58.85 176.34 60.08 176.26 60.70 176.23 C 65.89 177.32 71.32 177.30 76.23 175.07 Z" />
</g>
</svg>
