<?xml version="1.0" encoding="UTF-8" ?>
<!DOCTYPE svg PUBLIC "-//W3C//DTD SVG 1.1//EN" "http://www.w3.org/Graphics/SVG/1.1/DTD/svg11.dtd">
<svg width="155pt" height="210pt" viewBox="0 0 155 210" version="1.1" xmlns="http://www.w3.org/2000/svg">
<g id="#b8b4a1ff">
<path fill="#b8b4a1" opacity="1.00" d=" M 63.78 57.88 C 64.20 52.86 67.75 49.14 71.01 45.66 C 76.19 48.19 81.52 51.32 84.36 56.56 C 77.48 56.29 70.60 57.03 63.78 57.88 Z" />
<path fill="#b8b4a1" opacity="1.00" d=" M 90.68 57.37 C 92.69 57.07 94.82 56.14 96.83 56.85 C 97.68 57.81 98.38 58.89 99.09 59.96 C 96.32 58.99 93.54 58.03 90.68 57.37 Z" />
<path fill="#b8b4a1" opacity="1.00" d=" M 44.92 65.05 C 46.84 60.89 51.63 56.76 56.39 59.07 C 54.80 59.51 53.23 60.01 51.69 60.60 C 49.20 61.70 46.93 63.22 44.92 65.05 Z" />
<path fill="#b8b4a1" opacity="1.00" d=" M 33.13 73.11 C 34.88 70.95 37.88 70.78 40.41 70.26 C 37.47 73.55 34.55 76.85 31.57 80.10 C 31.74 77.73 31.53 75.07 33.13 73.11 Z" />
<path fill="#b8b4a1" opacity="1.00" d=" M 34.74 87.85 C 35.35 88.28 35.97 88.71 36.58 89.15 C 35.94 95.01 39.58 99.95 41.55 105.18 C 37.96 109.51 33.61 113.10 29.69 117.11 C 29.92 113.76 30.33 110.42 30.90 107.11 C 27.41 104.13 22.71 100.37 23.89 95.19 C 26.55 91.59 31.03 90.11 34.74 87.85 Z" />
<path fill="#b8b4a1" opacity="1.00" d=" M 58.21 107.86 C 60.22 108.34 62.49 108.45 64.12 109.89 C 66.33 111.80 67.54 114.54 68.86 117.09 C 65.11 116.75 61.48 115.69 58.21 113.82 C 58.20 111.83 58.20 109.84 58.21 107.86 Z" />
<path fill="#b8b4a1" opacity="1.00" d=" M 92.05 118.01 C 94.50 113.88 97.86 109.95 102.74 108.81 C 102.77 110.47 102.78 112.13 102.79 113.79 C 99.48 115.81 95.86 117.27 92.05 118.01 Z" />
<path fill="#b8b4a1" opacity="1.00" d=" M 83.78 133.31 C 92.69 131.10 101.15 127.44 109.64 124.01 C 110.48 125.53 111.30 127.05 112.13 128.58 C 104.45 135.71 94.22 139.27 83.97 140.54 C 78.67 141.05 73.52 139.47 68.38 138.47 C 60.72 137.00 53.36 134.07 46.66 130.09 C 47.55 128.89 48.43 127.70 49.32 126.51 C 52.49 127.18 55.64 127.91 58.78 128.71 C 59.06 129.62 59.30 130.55 59.52 131.48 C 60.57 130.91 61.62 130.36 62.67 129.79 C 63.68 130.88 64.70 131.97 65.72 133.06 C 65.74 132.08 65.75 131.11 65.76 130.14 C 71.74 131.25 77.63 133.69 83.78 133.31 Z" />
<path fill="#b8b4a1" opacity="1.00" d=" M 55.42 142.76 C 57.12 142.78 59.07 145.04 57.02 146.19 C 55.47 146.26 54.23 143.86 55.42 142.76 Z" />
<path fill="#b8b4a1" opacity="1.00" d=" M 114.38 159.34 C 118.98 155.85 122.34 151.08 126.32 146.97 C 131.20 145.95 136.61 149.83 136.57 154.98 C 136.47 156.96 135.52 159.83 133.16 159.93 C 125.69 159.29 119.48 163.86 113.26 167.24 C 113.05 168.41 112.89 169.58 112.77 170.77 C 110.22 168.94 108.10 166.61 106.41 163.97 C 108.88 162.11 111.82 161.05 114.38 159.34 M 124.58 150.11 C 126.29 153.80 128.01 158.07 132.35 159.24 C 133.07 154.82 130.70 151.05 127.93 147.87 C 126.81 148.62 125.70 149.37 124.58 150.11 Z" />
</g>
<g id="#544031ff">
<path fill="#544031" opacity="1.00" d=" M 84.36 56.56 C 84.73 56.69 85.47 56.93 85.84 57.05 C 83.04 59.77 79.87 62.55 75.79 62.86 C 67.75 63.75 58.70 66.01 51.69 60.60 C 53.23 60.01 54.80 59.51 56.39 59.07 C 58.84 58.58 61.32 58.26 63.78 57.88 C 70.60 57.03 77.48 56.29 84.36 56.56 Z" />
<path fill="#544031" opacity="1.00" d=" M 89.89 94.90 C 95.12 87.96 101.39 81.81 108.26 76.48 C 110.33 79.18 113.16 82.64 111.34 86.21 C 108.64 91.74 103.05 95.03 97.93 98.04 C 94.87 100.38 92.09 96.67 89.89 94.90 Z" />
<path fill="#544031" opacity="1.00" d=" M 53.64 89.98 C 54.52 86.58 55.93 83.34 57.92 80.44 C 64.63 83.35 70.75 87.65 75.70 93.04 C 74.11 95.61 72.27 98.03 70.22 100.27 C 65.04 96.26 58.62 94.26 53.64 89.98 Z" />
<path fill="#544031" opacity="1.00" d=" M 41.55 105.18 C 42.32 108.27 42.69 111.44 43.06 114.59 C 47.40 117.11 52.12 118.93 57.02 120.01 C 64.58 121.69 71.81 124.77 79.55 125.58 C 87.04 126.45 94.15 123.31 101.14 121.13 C 107.00 119.29 112.01 115.67 117.56 113.17 C 119.33 112.88 121.10 113.73 121.43 115.60 C 122.59 120.18 122.83 125.17 121.46 129.73 C 121.06 129.89 120.24 130.21 119.83 130.37 C 116.89 128.69 116.11 125.23 115.14 122.25 C 114.24 124.40 113.31 126.56 112.13 128.58 C 111.30 127.05 110.48 125.53 109.64 124.01 C 101.15 127.44 92.69 131.10 83.78 133.31 C 77.63 133.69 71.74 131.25 65.76 130.14 C 65.75 131.11 65.74 132.08 65.72 133.06 C 64.70 131.97 63.68 130.88 62.67 129.79 C 61.62 130.36 60.57 130.91 59.52 131.48 C 59.30 130.55 59.06 129.62 58.78 128.71 C 55.64 127.91 52.49 127.18 49.32 126.51 C 48.43 127.70 47.55 128.89 46.66 130.09 C 45.48 127.70 44.63 125.16 43.79 122.64 C 42.54 125.95 40.92 129.13 38.61 131.83 C 41.44 131.56 44.41 131.47 46.99 132.87 C 52.86 135.83 58.97 138.27 65.12 140.59 C 61.38 140.89 57.57 141.09 53.99 142.30 C 52.66 142.82 51.37 143.44 50.03 143.93 C 46.77 142.37 44.84 139.15 42.20 136.82 C 40.09 135.01 37.01 134.85 34.94 132.99 C 31.33 128.53 30.43 122.63 29.69 117.11 C 33.61 113.10 37.96 109.51 41.55 105.18 Z" />
<path fill="#544031" opacity="1.00" d=" M 109.73 133.63 C 112.87 131.38 116.58 129.72 120.50 130.87 C 119.14 135.42 114.59 137.59 110.83 139.84 C 106.65 142.30 101.77 143.10 97.54 145.45 C 93.28 147.67 88.95 149.84 84.37 151.33 C 78.38 151.63 74.91 146.41 72.07 141.97 C 77.96 142.47 84.00 143.32 89.82 141.84 C 96.81 140.11 103.67 137.57 109.73 133.63 Z" />
<path fill="#544031" opacity="1.00" d=" M 113.26 167.24 C 119.48 163.86 125.69 159.29 133.16 159.93 C 129.36 162.60 124.77 163.66 120.67 165.73 C 118.27 166.90 116.51 168.95 114.39 170.49 C 111.32 171.87 107.91 172.45 105.06 174.33 C 103.34 173.90 101.60 173.49 99.96 172.81 C 99.07 171.37 100.19 169.81 100.70 168.46 C 102.56 166.90 104.56 165.53 106.41 163.97 C 108.10 166.61 110.22 168.94 112.77 170.77 C 112.89 169.58 113.05 168.41 113.26 167.24 Z" />
<path fill="#544031" opacity="1.00" d=" M 90.22 160.54 C 91.76 159.64 94.04 158.81 95.51 160.29 C 97.11 161.39 96.78 163.41 96.62 165.07 C 94.52 165.72 92.26 166.13 90.45 167.44 C 89.12 168.78 88.20 170.45 87.18 172.03 C 85.36 171.62 83.53 171.17 81.67 170.93 C 74.97 173.71 67.37 175.66 60.31 172.89 C 59.91 172.76 59.11 172.49 58.71 172.35 C 59.44 170.74 60.18 169.14 60.98 167.56 C 64.49 168.60 68.14 169.87 71.86 169.23 C 78.69 168.11 84.29 163.76 90.22 160.54 Z" />
<path fill="#544031" opacity="1.00" d=" M 53.26 183.47 C 53.75 179.96 55.41 176.80 58.08 174.47 C 59.05 175.43 60.03 176.38 60.95 177.39 C 59.58 180.71 56.86 182.99 53.26 183.47 Z" />
<path fill="#544031" opacity="1.00" d=" M 67.47 183.40 C 68.61 183.64 69.77 183.82 70.92 184.03 L 71.70 184.19 C 71.34 186.95 70.91 189.71 70.46 192.47 C 65.48 193.64 60.36 194.15 55.25 194.04 C 54.66 194.03 53.48 194.03 52.89 194.02 C 52.82 192.66 52.30 191.22 52.76 189.89 C 53.73 188.77 54.93 187.90 56.07 186.97 C 58.79 189.93 62.98 189.44 65.80 186.92 C 66.39 185.76 66.94 184.58 67.47 183.40 Z" />
<path fill="#544031" opacity="1.00" d=" M 77.09 189.66 C 80.64 189.28 84.19 189.02 87.75 188.85 C 89.30 188.78 90.85 188.71 92.40 188.66 C 92.58 190.47 92.72 192.29 92.80 194.11 L 91.72 193.88 C 86.98 192.45 82.05 193.64 77.35 194.58 C 76.88 194.03 75.94 192.94 75.46 192.40 C 76.01 191.48 76.55 190.57 77.09 189.66 Z" />
<path fill="#544031" opacity="1.00" d=" M 40.71 200.46 C 52.78 198.91 64.90 200.74 77.00 200.30 C 90.11 200.47 103.22 200.01 116.31 200.40 C 111.95 202.14 107.31 202.96 102.87 204.43 C 103.95 205.15 104.96 206.09 106.24 206.46 C 113.56 207.65 121.23 205.24 128.37 207.70 C 120.63 208.85 112.78 207.97 104.99 208.11 C 87.33 207.44 69.66 207.57 52.00 208.13 C 44.20 207.91 36.35 208.90 28.61 207.69 C 35.77 205.27 43.42 207.64 50.75 206.46 C 52.02 206.08 53.03 205.15 54.11 204.42 C 49.77 202.70 45.16 201.84 40.71 200.46 Z" />
</g>
<g id="#2d2b29ff">
<path fill="#2d2b29" opacity="1.00" d=" M 85.84 57.05 C 87.45 57.16 89.07 57.19 90.68 57.37 C 93.54 58.03 96.32 58.99 99.09 59.96 C 104.49 61.95 110.26 63.44 114.74 67.25 C 118.29 70.30 122.23 73.03 125.11 76.75 C 127.23 82.47 123.96 88.25 121.07 93.06 C 117.77 99.02 114.52 106.48 117.56 113.17 C 112.01 115.67 107.00 119.29 101.14 121.13 C 94.15 123.31 87.04 126.45 79.55 125.58 C 71.81 124.77 64.58 121.69 57.02 120.01 C 52.12 118.93 47.40 117.11 43.06 114.59 C 42.69 111.44 42.32 108.27 41.55 105.18 C 39.58 99.95 35.94 95.01 36.58 89.15 C 35.97 88.71 35.35 88.28 34.74 87.85 C 31.74 86.45 32.06 82.84 31.57 80.10 C 34.55 76.85 37.47 73.55 40.41 70.26 C 41.97 68.57 43.39 66.76 44.92 65.05 C 46.93 63.22 49.20 61.70 51.69 60.60 C 58.70 66.01 67.75 63.75 75.79 62.86 C 79.87 62.55 83.04 59.77 85.84 57.05 M 57.41 71.46 C 51.69 74.44 45.80 77.09 40.22 80.33 C 41.73 85.15 43.48 89.91 45.65 94.48 C 48.95 100.93 49.16 108.34 51.39 115.15 C 51.55 109.73 51.33 103.42 55.42 99.25 C 58.31 97.64 61.86 98.88 64.56 100.33 C 70.16 103.43 72.89 109.69 74.65 115.54 C 75.58 117.83 74.47 120.12 73.66 122.25 C 78.14 122.88 82.66 123.46 87.20 123.14 C 86.78 120.10 86.40 116.84 87.95 114.03 C 91.46 106.88 98.33 101.41 106.02 99.38 C 109.20 103.60 108.16 108.86 107.22 113.64 C 107.52 113.66 108.12 113.71 108.42 113.73 C 108.76 107.15 111.95 101.07 111.87 94.47 C 116.47 90.95 117.85 85.11 119.92 80.00 C 117.90 77.74 115.74 75.48 112.90 74.25 C 105.70 70.96 98.05 68.73 90.37 66.89 C 79.28 65.09 67.55 66.52 57.41 71.46 M 58.21 107.86 C 58.20 109.84 58.20 111.83 58.21 113.82 C 61.48 115.69 65.11 116.75 68.86 117.09 C 67.54 114.54 66.33 111.80 64.12 109.89 C 62.49 108.45 60.22 108.34 58.21 107.86 M 92.05 118.01 C 95.86 117.27 99.48 115.81 102.79 113.79 C 102.78 112.13 102.77 110.47 102.74 108.81 C 97.86 109.95 94.50 113.88 92.05 118.01 Z" />
<path fill="#2d2b29" opacity="1.00" d=" M 112.13 128.58 C 113.31 126.56 114.24 124.40 115.14 122.25 C 116.11 125.23 116.89 128.69 119.83 130.37 L 120.50 130.87 C 116.58 129.72 112.87 131.38 109.73 133.63 C 103.67 137.57 96.81 140.11 89.82 141.84 C 84.00 143.32 77.96 142.47 72.07 141.97 C 74.91 146.41 78.38 151.63 84.37 151.33 C 84.91 155.15 87.54 158.00 90.22 160.54 C 84.29 163.76 78.69 168.11 71.86 169.23 C 68.14 169.87 64.49 168.60 60.98 167.56 C 62.38 165.69 63.51 163.64 64.31 161.44 C 63.05 161.26 61.79 161.08 60.53 160.88 C 58.20 160.49 55.88 160.05 53.56 159.61 C 54.24 155.32 56.71 151.72 59.07 148.20 C 56.76 148.88 54.44 149.56 52.18 150.40 C 53.73 148.93 55.37 147.56 57.02 146.19 C 59.07 145.04 57.12 142.78 55.42 142.76 C 55.06 142.64 54.34 142.41 53.99 142.30 C 57.57 141.09 61.38 140.89 65.12 140.59 C 58.97 138.27 52.86 135.83 46.99 132.87 C 44.41 131.47 41.44 131.56 38.61 131.83 C 40.92 129.13 42.54 125.95 43.79 122.64 C 44.63 125.16 45.48 127.70 46.66 130.09 C 53.36 134.07 60.72 137.00 68.38 138.47 C 73.52 139.47 78.67 141.05 83.97 140.54 C 94.22 139.27 104.45 135.71 112.13 128.58 Z" />
<path fill="#2d2b29" opacity="1.00" d=" M 124.58 150.11 C 125.70 149.37 126.81 148.62 127.93 147.87 C 130.70 151.05 133.07 154.82 132.35 159.24 C 128.01 158.07 126.29 153.80 124.58 150.11 Z" />
<path fill="#2d2b29" opacity="1.00" d=" M 90.45 167.44 C 92.26 166.13 94.52 165.72 96.62 165.07 C 97.94 166.24 99.31 167.36 100.70 168.46 C 100.19 169.81 99.07 171.37 99.96 172.81 C 101.60 173.49 103.34 173.90 105.06 174.33 C 104.73 175.48 104.64 176.84 103.63 177.65 C 100.41 180.37 96.35 181.98 92.19 182.53 C 89.02 182.73 88.92 186.63 87.75 188.85 C 84.19 189.02 80.64 189.28 77.09 189.66 C 76.55 190.57 76.01 191.48 75.46 192.40 C 73.71 194.81 71.65 196.98 69.68 199.22 C 73.38 199.32 77.08 199.26 80.77 199.00 C 79.66 197.50 78.54 196.01 77.35 194.58 C 82.05 193.64 86.98 192.45 91.72 193.88 C 94.11 195.70 96.20 198.08 99.10 199.10 C 108.41 200.22 117.92 198.43 127.19 199.84 C 129.61 202.02 128.36 205.88 128.79 208.78 C 95.24 209.13 61.69 209.05 28.15 208.80 C 28.58 205.88 27.34 202.00 29.80 199.83 C 35.72 198.50 41.90 200.19 47.85 199.07 C 50.61 197.89 52.86 195.82 55.25 194.04 C 60.36 194.15 65.48 193.64 70.46 192.47 C 70.91 189.71 71.34 186.95 71.70 184.19 C 72.28 183.95 73.44 183.48 74.02 183.25 C 74.26 183.48 74.73 183.93 74.97 184.16 C 76.54 183.54 78.52 183.07 79.34 181.44 C 79.82 178.96 79.53 176.41 79.44 173.90 C 81.23 174.30 83.04 174.64 84.84 175.03 C 83.79 173.65 82.75 172.28 81.67 170.93 C 83.53 171.17 85.36 171.62 87.18 172.03 C 88.20 170.45 89.12 168.78 90.45 167.44 M 87.49 173.97 C 86.51 175.28 88.73 176.89 89.65 175.53 C 90.65 174.22 88.42 172.60 87.49 173.97 M 40.71 200.46 C 45.16 201.84 49.77 202.70 54.11 204.42 C 53.03 205.15 52.02 206.08 50.75 206.46 C 43.42 207.64 35.77 205.27 28.61 207.69 C 36.35 208.90 44.20 207.91 52.00 208.13 C 69.66 207.57 87.33 207.44 104.99 208.11 C 112.78 207.97 120.63 208.85 128.37 207.70 C 121.23 205.24 113.56 207.65 106.24 206.46 C 104.96 206.09 103.95 205.15 102.87 204.43 C 107.31 202.96 111.95 202.14 116.31 200.40 C 103.22 200.01 90.11 200.47 77.00 200.30 C 64.90 200.74 52.78 198.91 40.71 200.46 Z" />
<path fill="#2d2b29" opacity="1.00" d=" M 53.26 183.47 C 56.86 182.99 59.58 180.71 60.95 177.39 C 61.47 178.29 61.94 179.21 62.43 180.14 C 63.55 182.40 64.65 184.67 65.80 186.92 C 62.98 189.44 58.79 189.93 56.07 186.97 C 55.07 185.85 54.18 184.64 53.26 183.47 Z" />
</g>
<g id="#e2b001ff">
<path fill="#e2b001" opacity="1.00" d=" M 57.41 71.46 C 67.55 66.52 79.28 65.09 90.37 66.89 C 98.05 68.73 105.70 70.96 112.90 74.25 C 115.74 75.48 117.90 77.74 119.92 80.00 C 117.85 85.11 116.47 90.95 111.87 94.47 C 111.95 101.07 108.76 107.15 108.42 113.73 C 108.12 113.71 107.52 113.66 107.22 113.64 C 108.16 108.86 109.20 103.60 106.02 99.38 C 98.33 101.41 91.46 106.88 87.95 114.03 C 86.40 116.84 86.78 120.10 87.20 123.14 C 82.66 123.46 78.14 122.88 73.66 122.25 C 74.47 120.12 75.58 117.83 74.65 115.54 C 72.89 109.69 70.16 103.43 64.56 100.33 C 61.86 98.88 58.31 97.64 55.42 99.25 C 51.33 103.42 51.55 109.73 51.39 115.15 C 49.16 108.34 48.95 100.93 45.65 94.48 C 43.48 89.91 41.73 85.15 40.22 80.33 C 45.80 77.09 51.69 74.44 57.41 71.46 M 89.89 94.90 C 92.09 96.67 94.87 100.38 97.93 98.04 C 103.05 95.03 108.64 91.74 111.34 86.21 C 113.16 82.64 110.33 79.18 108.26 76.48 C 101.39 81.81 95.12 87.96 89.89 94.90 M 53.64 89.98 C 58.62 94.26 65.04 96.26 70.22 100.27 C 72.27 98.03 74.11 95.61 75.70 93.04 C 70.75 87.65 64.63 83.35 57.92 80.44 C 55.93 83.34 54.52 86.58 53.64 89.98 Z" />
<path fill="#e2b001" opacity="1.00" d=" M 52.18 150.40 C 54.44 149.56 56.76 148.88 59.07 148.20 C 56.71 151.72 54.24 155.32 53.56 159.61 C 55.88 160.05 58.20 160.49 60.53 160.88 C 56.89 164.92 51.10 162.07 47.98 158.87 C 48.52 156.40 49.10 153.94 49.58 151.46 C 50.44 151.08 51.30 150.73 52.18 150.40 Z" />
<path fill="#e2b001" opacity="1.00" d=" M 60.31 172.89 C 67.37 175.66 74.97 173.71 81.67 170.93 C 82.75 172.28 83.79 173.65 84.84 175.03 C 83.04 174.64 81.23 174.30 79.44 173.90 C 79.53 176.41 79.82 178.96 79.34 181.44 C 78.52 183.07 76.54 183.54 74.97 184.16 C 74.73 183.93 74.26 183.48 74.02 183.25 C 73.46 180.22 69.38 181.00 70.92 184.03 C 69.77 183.82 68.61 183.64 67.47 183.40 C 65.67 182.51 64.01 181.37 62.43 180.14 C 61.94 179.21 61.47 178.29 60.95 177.39 C 60.03 176.38 59.05 175.43 58.08 174.47 C 58.83 173.95 59.57 173.42 60.31 172.89 Z" />
</g>
</svg>
