<?xml version="1.0" encoding="UTF-8" ?>
<!DOCTYPE svg PUBLIC "-//W3C//DTD SVG 1.1//EN" "http://www.w3.org/Graphics/SVG/1.1/DTD/svg11.dtd">
<svg width="155pt" height="210pt" viewBox="0 0 155 210" version="1.1" xmlns="http://www.w3.org/2000/svg">
<g id="#2b2a27ff">
<path fill="#2b2a27" opacity="1.00" d=" M 70.62 46.09 C 76.50 48.41 81.18 52.70 85.92 56.74 C 77.90 55.60 71.18 60.90 64.16 63.79 C 64.28 60.77 63.97 57.64 64.94 54.72 C 66.32 51.55 68.66 48.92 70.62 46.09 Z" />
<path fill="#2b2a27" opacity="1.00" d=" M 93.36 58.13 C 93.62 55.82 98.34 57.09 97.41 59.25 C 96.05 58.89 94.70 58.53 93.36 58.13 Z" />
<path fill="#2b2a27" opacity="1.00" d=" M 44.12 65.10 C 46.54 62.88 48.79 59.96 52.19 59.28 C 56.49 58.93 60.09 61.86 63.48 64.10 C 56.05 67.65 47.69 69.91 41.72 75.88 C 43.75 77.52 45.65 79.47 48.10 80.50 C 53.16 78.88 57.19 75.09 62.17 73.24 C 73.06 68.93 85.05 66.91 96.72 68.49 C 96.60 75.60 96.76 82.71 96.60 89.82 L 96.58 90.62 C 96.28 91.07 95.67 91.96 95.37 92.41 C 95.46 84.51 95.47 76.60 95.17 68.70 C 91.75 68.72 88.34 68.77 84.93 68.86 C 85.73 80.41 85.80 91.99 86.01 103.56 C 85.99 104.64 85.96 105.71 85.92 106.79 C 85.27 106.78 83.96 106.76 83.31 106.74 C 84.37 96.45 84.60 86.07 83.46 75.78 C 83.29 73.62 82.87 71.47 82.00 69.49 C 80.07 69.54 78.16 69.84 76.28 70.26 C 74.56 70.94 72.87 71.70 71.17 72.43 C 67.69 72.42 64.45 73.72 62.09 76.31 C 61.79 76.38 61.18 76.53 60.87 76.60 C 52.89 78.03 45.62 84.38 44.24 92.51 C 44.95 96.90 46.17 101.29 45.22 105.78 C 46.82 104.85 48.42 103.93 50.06 103.09 C 54.28 100.45 59.29 100.78 63.80 102.40 C 64.11 101.26 64.43 100.12 64.76 98.98 C 65.33 101.28 65.15 104.17 67.30 105.69 C 69.93 108.11 74.01 109.74 74.28 113.81 C 72.13 120.29 71.48 127.10 70.93 133.87 C 69.70 137.89 68.50 141.93 67.72 146.07 C 70.21 146.93 72.70 147.81 75.18 148.72 C 76.73 144.68 78.24 140.57 78.84 136.26 C 79.65 131.36 78.41 125.76 81.25 121.41 C 84.99 119.97 89.05 119.70 92.92 118.71 C 91.32 125.75 89.34 132.71 87.93 139.78 C 87.21 144.37 87.12 149.03 87.02 153.67 C 82.43 153.68 77.85 153.71 73.26 153.75 C 73.53 155.52 72.54 158.24 74.59 159.18 C 78.88 160.25 83.36 159.86 87.74 159.93 C 88.83 160.82 89.93 161.69 91.05 162.56 C 86.19 165.28 81.65 168.75 76.20 170.23 C 71.19 171.69 65.92 170.90 60.85 170.14 C 62.22 168.05 63.37 165.82 64.27 163.49 C 63.58 163.36 62.20 163.10 61.51 162.97 C 59.16 162.50 56.82 162.02 54.48 161.54 C 55.09 157.33 57.25 153.66 59.79 150.33 C 57.51 150.86 55.24 151.40 53.03 152.13 C 53.78 151.16 54.54 150.21 55.31 149.26 C 59.59 149.12 62.95 146.43 64.54 142.55 C 61.28 142.17 58.01 141.86 54.73 141.62 C 49.95 137.30 44.69 133.43 40.65 128.37 C 37.81 124.87 37.70 120.15 37.31 115.87 C 37.02 110.46 36.28 104.72 38.66 99.65 C 41.30 93.81 44.30 88.13 46.79 82.21 C 45.03 80.14 43.29 78.07 41.56 75.99 C 39.26 78.93 37.01 81.93 35.09 85.14 C 32.96 82.78 29.53 79.94 31.34 76.39 C 33.87 70.50 41.50 71.06 46.84 70.77 C 45.92 68.88 45.01 66.99 44.12 65.10 M 42.00 96.51 C 39.19 102.34 38.09 108.87 39.25 115.27 C 43.39 110.40 43.73 103.92 44.94 97.95 C 43.96 97.47 42.98 96.99 42.00 96.51 M 47.35 124.27 C 49.31 120.76 51.74 116.66 56.27 116.44 C 61.59 115.18 66.22 118.61 69.17 122.69 C 68.53 119.80 68.59 116.58 66.93 114.03 C 64.64 111.78 61.53 110.56 58.49 109.68 C 50.83 107.66 42.63 117.31 47.35 124.27 Z" />
<path fill="#2b2a27" opacity="1.00" d=" M 98.85 68.70 C 100.98 68.61 103.09 68.33 105.20 68.04 C 106.29 72.40 110.35 74.73 113.22 77.81 C 117.95 82.75 120.44 89.30 122.40 95.72 C 123.66 99.96 125.25 104.45 124.09 108.90 C 122.94 113.77 121.33 118.54 119.28 123.11 C 115.73 126.17 112.20 129.30 109.41 133.11 C 110.48 133.52 111.55 133.94 112.62 134.36 C 111.80 135.50 110.97 136.63 110.14 137.77 C 111.06 139.25 111.98 140.73 112.90 142.21 C 112.42 142.77 111.94 143.35 111.46 143.92 C 110.86 142.26 110.26 140.60 109.66 138.94 C 104.93 139.86 100.22 140.89 95.51 141.92 C 95.92 139.10 96.37 136.30 96.79 133.49 C 97.37 135.30 98.02 137.09 98.66 138.89 C 101.35 138.28 104.17 137.95 106.65 136.69 C 107.80 135.54 108.60 134.12 109.50 132.78 C 105.34 132.29 100.98 131.92 97.47 129.39 C 97.93 127.52 98.46 125.67 98.98 123.82 C 101.50 121.35 104.36 118.51 108.08 118.31 C 110.24 118.73 111.90 120.33 113.71 121.48 C 114.34 117.91 115.48 114.16 114.37 110.58 C 113.29 107.75 109.61 108.12 107.16 108.29 C 102.91 108.66 101.03 113.00 98.81 116.03 C 97.52 113.74 96.03 111.57 94.54 109.42 C 96.40 106.98 98.31 104.42 101.06 102.92 C 106.05 100.05 112.76 100.10 117.44 103.59 C 119.95 105.72 120.73 109.12 122.09 111.99 C 123.28 105.81 121.86 99.62 119.39 93.94 C 117.14 86.92 113.48 80.27 107.91 75.34 C 105.08 72.88 101.89 70.89 98.85 68.70 Z" />
<path fill="#2b2a27" opacity="1.00" d=" M 50.08 85.59 C 51.86 85.89 50.85 89.58 49.17 89.08 C 48.19 88.08 48.80 86.04 50.08 85.59 Z" />
<path fill="#2b2a27" opacity="1.00" d=" M 22.42 97.47 C 24.56 94.08 28.38 92.36 31.93 90.84 C 30.10 94.80 27.80 99.24 29.40 103.66 C 31.77 111.44 30.15 119.79 32.50 127.56 C 33.51 130.82 35.74 133.49 37.84 136.11 C 37.35 136.31 36.39 136.72 35.91 136.92 C 32.42 132.75 30.13 127.66 29.57 122.24 C 28.73 117.66 30.03 113.05 29.66 108.47 C 27.03 105.06 22.18 102.31 22.42 97.47 Z" />
<path fill="#2b2a27" opacity="1.00" d=" M 49.55 156.87 C 48.01 155.96 48.83 152.58 50.73 152.99 C 50.88 154.40 50.20 155.68 49.55 156.87 Z" />
<path fill="#2b2a27" opacity="1.00" d=" M 89.66 169.66 C 91.81 168.34 94.35 167.97 96.77 167.43 C 98.28 168.86 99.88 170.19 101.49 171.52 C 100.85 172.18 100.22 172.85 99.60 173.53 C 101.24 175.31 102.88 177.11 104.51 178.91 C 104.24 179.43 103.70 180.47 103.43 181.00 C 98.77 182.17 95.26 185.38 92.50 189.16 C 90.91 188.03 90.79 185.92 90.15 184.24 C 89.53 186.56 88.79 188.85 88.02 191.13 C 86.39 191.06 84.76 191.04 83.13 191.10 C 82.73 187.91 82.45 184.66 81.26 181.66 C 80.53 179.83 79.70 178.05 78.89 176.26 C 81.01 176.51 83.14 176.77 85.26 177.02 C 83.96 175.68 82.65 174.36 81.33 173.04 C 82.50 172.63 83.67 172.22 84.84 171.82 C 85.70 173.12 86.55 174.43 87.40 175.73 C 88.58 177.61 89.85 179.43 91.27 181.14 C 90.24 179.16 88.94 177.34 87.40 175.73 C 88.02 173.68 88.24 171.35 89.66 169.66 Z" />
<path fill="#2b2a27" opacity="1.00" d=" M 53.51 184.96 C 53.26 181.62 55.80 179.05 58.01 176.91 C 58.99 177.44 59.96 177.96 60.94 178.49 C 61.36 179.83 61.78 181.17 62.26 182.48 C 63.22 185.00 64.46 187.39 65.70 189.77 C 63.09 192.41 59.43 191.78 56.11 191.36 C 55.26 189.22 54.12 187.19 53.51 184.96 Z" />
<path fill="#2b2a27" opacity="1.00" d=" M 75.29 180.35 C 75.93 182.37 76.56 184.39 77.17 186.41 C 75.24 186.05 73.42 185.26 71.65 184.42 C 71.58 187.02 71.48 189.63 71.21 192.23 C 70.45 191.05 69.70 189.88 68.91 188.74 C 68.31 187.90 67.68 187.08 67.01 186.30 C 70.18 184.95 72.88 182.78 75.29 180.35 Z" />
<path fill="#2b2a27" opacity="1.00" d=" M 96.46 190.79 C 98.24 188.86 100.04 186.94 101.61 184.83 C 101.97 185.59 102.69 187.12 103.05 187.89 C 101.86 189.98 100.27 191.86 99.36 194.11 C 98.98 196.33 100.88 198.69 103.23 198.33 C 108.43 198.01 113.68 197.47 118.82 198.72 C 121.74 199.41 125.01 198.98 127.72 200.31 C 129.25 202.72 128.48 205.97 128.80 208.73 C 95.26 208.78 61.72 208.77 28.19 208.74 C 28.63 205.85 27.35 201.96 29.80 199.83 C 38.24 198.18 47.35 201.31 55.39 197.27 C 59.43 196.70 63.53 196.49 67.60 196.93 C 69.96 200.49 74.43 199.60 77.88 198.39 C 82.60 196.51 87.62 195.60 92.70 195.56 C 92.67 196.23 92.60 197.58 92.57 198.25 C 94.84 198.68 97.11 199.10 99.39 199.51 C 98.49 196.58 97.53 193.67 96.46 190.79 M 58.89 200.40 C 72.57 202.01 86.40 201.83 100.09 200.37 C 86.36 200.43 72.62 200.39 58.89 200.40 Z" />
</g>
<g id="#bbaf7cff">
<path fill="#bbaf7c" opacity="1.00" d=" M 64.16 63.79 C 71.18 60.90 77.90 55.60 85.92 56.74 C 88.43 57.00 90.92 57.50 93.36 58.13 C 94.70 58.53 96.05 58.89 97.41 59.25 C 101.90 60.88 105.94 63.51 110.00 65.99 C 114.16 68.67 118.65 71.32 121.27 75.68 C 125.19 82.10 126.11 89.70 128.22 96.79 C 129.08 100.36 130.71 104.05 129.76 107.77 C 128.50 113.75 126.87 119.70 124.14 125.20 C 122.73 127.98 122.74 131.31 120.87 133.88 C 118.70 137.07 116.25 140.18 112.90 142.21 C 111.98 140.73 111.06 139.25 110.14 137.77 C 110.97 136.63 111.80 135.50 112.62 134.36 C 115.22 130.85 117.55 127.13 119.28 123.11 C 121.33 118.54 122.94 113.77 124.09 108.90 C 125.25 104.45 123.66 99.96 122.40 95.72 C 120.44 89.30 117.95 82.75 113.22 77.81 C 110.35 74.73 106.29 72.40 105.20 68.04 C 103.09 68.33 100.98 68.61 98.85 68.70 C 98.32 68.65 97.25 68.54 96.72 68.49 C 85.05 66.91 73.06 68.93 62.17 73.24 C 57.19 75.09 53.16 78.88 48.10 80.50 C 45.65 79.47 43.75 77.52 41.72 75.88 C 47.69 69.91 56.05 67.65 63.48 64.10 L 64.16 63.79 Z" />
<path fill="#bbaf7c" opacity="1.00" d=" M 35.09 85.14 C 37.01 81.93 39.26 78.93 41.56 75.99 C 43.29 78.07 45.03 80.14 46.79 82.21 C 44.30 88.13 41.30 93.81 38.66 99.65 C 36.28 104.72 37.02 110.46 37.31 115.87 C 37.70 120.15 37.81 124.87 40.65 128.37 C 44.69 133.43 49.95 137.30 54.73 141.62 C 53.74 143.42 52.76 145.23 51.78 147.04 C 51.58 147.40 51.19 148.13 50.99 148.50 C 45.82 145.29 41.64 140.80 37.84 136.11 C 35.74 133.49 33.51 130.82 32.50 127.56 C 30.15 119.79 31.77 111.44 29.40 103.66 C 27.80 99.24 30.10 94.80 31.93 90.84 C 32.91 88.90 33.99 87.01 35.09 85.14 Z" />
<path fill="#bbaf7c" opacity="1.00" d=" M 78.86 110.67 C 84.00 109.51 89.32 109.83 94.54 109.42 C 96.03 111.57 97.52 113.74 98.81 116.03 C 99.15 118.61 99.19 121.22 98.98 123.82 C 98.46 125.67 97.93 127.52 97.47 129.39 C 97.18 130.75 96.97 132.11 96.79 133.49 C 96.37 136.30 95.92 139.10 95.51 141.92 C 100.22 140.89 104.93 139.86 109.66 138.94 C 110.26 140.60 110.86 142.26 111.46 143.92 C 106.41 146.47 100.96 148.09 95.45 149.29 C 95.31 152.17 95.17 155.05 95.05 157.93 C 92.99 156.48 90.25 155.58 88.90 153.36 C 87.59 148.98 87.77 144.30 87.93 139.78 C 89.34 132.71 91.32 125.75 92.92 118.71 C 89.05 119.70 84.99 119.97 81.25 121.41 C 78.41 125.76 79.65 131.36 78.84 136.26 C 76.16 136.43 73.48 136.56 70.80 136.66 C 70.83 135.96 70.90 134.57 70.93 133.87 C 71.48 127.10 72.13 120.29 74.28 113.81 C 75.55 112.45 76.96 111.04 78.86 110.67 Z" />
<path fill="#bbaf7c" opacity="1.00" d=" M 109.13 176.56 C 108.89 174.90 108.67 173.23 108.33 171.59 C 109.07 171.97 110.54 172.74 111.27 173.12 C 111.17 173.94 110.97 175.56 110.87 176.37 C 110.43 176.42 109.57 176.51 109.13 176.56 Z" />
<path fill="#bbaf7c" opacity="1.00" d=" M 104.51 178.91 C 105.56 177.15 106.78 175.50 108.00 173.87 C 107.80 175.47 107.60 177.07 107.30 178.66 C 106.64 180.63 105.87 182.55 105.02 184.45 C 104.37 185.60 103.72 186.75 103.05 187.89 C 102.69 187.12 101.97 185.59 101.61 184.83 C 102.24 183.56 102.82 182.27 103.43 181.00 C 103.70 180.47 104.24 179.43 104.51 178.91 Z" />
</g>
<g id="#b3af1aff">
<path fill="#b3af1a" opacity="1.00" d=" M 96.72 68.49 C 97.25 68.54 98.32 68.65 98.85 68.70 C 101.89 70.89 105.08 72.88 107.91 75.34 C 105.96 77.03 102.84 78.30 102.45 81.13 C 102.86 85.36 105.08 89.12 106.49 93.07 C 106.50 93.40 106.53 94.07 106.54 94.40 C 104.48 91.73 102.22 89.21 99.73 86.93 C 98.69 87.90 97.65 88.86 96.60 89.82 C 96.76 82.71 96.60 75.60 96.72 68.49 Z" />
<path fill="#b3af1a" opacity="1.00" d=" M 84.93 68.86 C 88.34 68.77 91.75 68.72 95.17 68.70 C 95.47 76.60 95.46 84.51 95.37 92.41 C 94.58 94.95 93.89 97.53 92.82 99.97 C 91.94 102.88 88.37 102.70 86.01 103.56 C 85.80 91.99 85.73 80.41 84.93 68.86 Z" />
<path fill="#b3af1a" opacity="1.00" d=" M 44.24 92.51 C 45.62 84.38 52.89 78.03 60.87 76.60 C 55.29 81.74 50.88 88.16 48.20 95.27 C 47.41 97.11 48.40 98.99 49.03 100.71 C 49.37 101.50 49.71 102.30 50.06 103.09 C 48.42 103.93 46.82 104.85 45.22 105.78 C 46.17 101.29 44.95 96.90 44.24 92.51 M 50.08 85.59 C 48.80 86.04 48.19 88.08 49.17 89.08 C 50.85 89.58 51.86 85.89 50.08 85.59 Z" />
<path fill="#b3af1a" opacity="1.00" d=" M 67.92 85.03 C 72.95 86.38 78.17 86.76 83.36 86.96 C 83.38 92.38 83.38 97.81 83.17 103.24 C 80.52 102.36 76.96 102.35 75.58 99.47 C 72.78 94.79 70.85 89.64 67.92 85.03 Z" />
<path fill="#b3af1a" opacity="1.00" d=" M 42.00 96.51 C 42.98 96.99 43.96 97.47 44.94 97.95 C 43.73 103.92 43.39 110.40 39.25 115.27 C 38.09 108.87 39.19 102.34 42.00 96.51 Z" />
<path fill="#b3af1a" opacity="1.00" d=" M 53.03 152.13 C 55.24 151.40 57.51 150.86 59.79 150.33 C 57.25 153.66 55.09 157.33 54.48 161.54 C 56.82 162.02 59.16 162.50 61.51 162.97 C 57.77 167.00 51.28 164.98 48.50 160.87 C 48.49 159.44 48.84 158.11 49.55 156.87 C 50.20 155.68 50.88 154.40 50.73 152.99 C 51.31 152.77 52.45 152.34 53.03 152.13 Z" />
<path fill="#b3af1a" opacity="1.00" d=" M 106.54 184.10 C 107.48 183.92 109.36 183.57 110.29 183.39 C 111.13 184.01 111.96 184.63 112.79 185.26 C 115.91 187.72 118.90 190.61 120.23 194.45 C 116.59 193.88 113.02 192.99 109.47 192.05 C 111.24 193.34 113.01 194.64 114.78 195.93 C 112.26 196.24 109.75 196.55 107.23 196.85 C 106.71 194.83 106.19 192.81 105.67 190.79 C 106.97 190.75 108.27 190.71 109.57 190.67 C 108.53 188.50 107.51 186.31 106.54 184.10 Z" />
</g>
<g id="#847337ff">
<path fill="#847337" opacity="1.00" d=" M 71.17 72.43 C 72.87 71.70 74.56 70.94 76.28 70.26 C 76.13 74.74 75.72 79.23 74.61 83.59 C 73.21 79.95 72.08 76.22 71.17 72.43 Z" />
<path fill="#847337" opacity="1.00" d=" M 83.46 75.78 C 84.60 86.07 84.37 96.45 83.31 106.74 C 83.96 106.76 85.27 106.78 85.92 106.79 C 85.96 105.71 85.99 104.64 86.01 103.56 C 88.37 102.70 91.94 102.88 92.82 99.97 C 93.89 97.53 94.58 94.95 95.37 92.41 C 95.67 91.96 96.28 91.07 96.58 90.62 C 96.50 93.65 96.36 96.68 96.20 99.71 C 98.21 100.55 100.21 101.40 102.22 102.24 C 103.81 99.72 105.35 97.15 106.54 94.40 C 106.53 94.07 106.50 93.40 106.49 93.07 C 109.39 96.68 114.01 97.84 118.22 99.15 C 118.63 97.42 119.05 95.69 119.39 93.94 C 121.86 99.62 123.28 105.81 122.09 111.99 C 120.73 109.12 119.95 105.72 117.44 103.59 C 112.76 100.10 106.05 100.05 101.06 102.92 C 98.31 104.42 96.40 106.98 94.54 109.42 C 89.32 109.83 84.00 109.51 78.86 110.67 C 76.96 111.04 75.55 112.45 74.28 113.81 C 74.01 109.74 69.93 108.11 67.30 105.69 C 65.15 104.17 65.33 101.28 64.76 98.98 C 66.60 99.86 68.39 100.83 70.18 101.80 C 71.26 100.83 72.34 99.86 73.42 98.89 C 71.00 93.53 68.36 88.29 65.86 82.97 C 66.55 83.66 67.23 84.34 67.92 85.03 C 70.85 89.64 72.78 94.79 75.58 99.47 C 76.96 102.35 80.52 102.36 83.17 103.24 C 83.38 97.81 83.38 92.38 83.36 86.96 C 83.36 83.23 83.52 79.50 83.46 75.78 Z" />
<path fill="#847337" opacity="1.00" d=" M 54.12 93.97 C 55.47 89.94 58.00 86.51 61.02 83.58 C 63.33 85.91 65.50 88.37 67.49 90.98 C 65.05 91.59 62.59 92.15 60.11 92.64 C 60.42 91.66 60.73 90.69 61.04 89.71 C 62.13 89.60 63.22 89.49 64.31 89.38 C 63.13 88.11 61.94 86.85 60.75 85.58 C 57.80 88.99 55.82 93.08 54.66 97.42 C 58.08 97.33 61.71 97.14 64.76 98.98 C 64.43 100.12 64.11 101.26 63.80 102.40 C 59.29 100.78 54.28 100.45 50.06 103.09 C 49.71 102.30 49.37 101.50 49.03 100.71 C 51.38 99.02 53.24 96.75 54.12 93.97 Z" />
<path fill="#847337" opacity="1.00" d=" M 109.41 133.11 C 112.20 129.30 115.73 126.17 119.28 123.11 C 117.55 127.13 115.22 130.85 112.62 134.36 C 111.55 133.94 110.48 133.52 109.41 133.11 Z" />
<path fill="#847337" opacity="1.00" d=" M 96.79 133.49 C 96.97 132.11 97.18 130.75 97.47 129.39 C 100.98 131.92 105.34 132.29 109.50 132.78 C 108.60 134.12 107.80 135.54 106.65 136.69 C 104.17 137.95 101.35 138.28 98.66 138.89 C 98.02 137.09 97.37 135.30 96.79 133.49 Z" />
<path fill="#847337" opacity="1.00" d=" M 67.72 146.07 C 68.50 141.93 69.70 137.89 70.93 133.87 C 70.90 134.57 70.83 135.96 70.80 136.66 C 73.48 136.56 76.16 136.43 78.84 136.26 C 78.24 140.57 76.73 144.68 75.18 148.72 C 72.70 147.81 70.21 146.93 67.72 146.07 Z" />
<path fill="#847337" opacity="1.00" d=" M 87.02 153.67 C 87.12 149.03 87.21 144.37 87.93 139.78 C 87.77 144.30 87.59 148.98 88.90 153.36 C 90.25 155.58 92.99 156.48 95.05 157.93 C 92.97 159.60 90.34 160.02 87.74 159.93 C 83.36 159.86 78.88 160.25 74.59 159.18 C 72.54 158.24 73.53 155.52 73.26 153.75 C 77.85 153.71 82.43 153.68 87.02 153.67 Z" />
<path fill="#847337" opacity="1.00" d=" M 54.73 141.62 C 58.01 141.86 61.28 142.17 64.54 142.55 C 62.95 146.43 59.59 149.12 55.31 149.26 C 54.08 148.61 52.94 147.81 51.78 147.04 C 52.76 145.23 53.74 143.42 54.73 141.62 Z" />
<path fill="#847337" opacity="1.00" d=" M 91.05 162.56 C 94.44 159.76 97.66 164.04 96.77 167.43 C 94.35 167.97 91.81 168.34 89.66 169.66 C 88.24 171.35 88.02 173.68 87.40 175.73 C 86.55 174.43 85.70 173.12 84.84 171.82 C 83.67 172.22 82.50 172.63 81.33 173.04 C 82.65 174.36 83.96 175.68 85.26 177.02 C 83.14 176.77 81.01 176.51 78.89 176.26 C 79.70 178.05 80.53 179.83 81.26 181.66 C 79.91 183.25 78.58 184.87 77.17 186.41 C 76.56 184.39 75.93 182.37 75.29 180.35 C 72.88 182.78 70.18 184.95 67.01 186.30 C 65.50 184.94 63.89 183.69 62.26 182.48 C 61.78 181.17 61.36 179.83 60.94 178.49 C 59.96 177.96 58.99 177.44 58.01 176.91 C 58.94 174.65 59.83 172.37 60.85 170.14 C 65.92 170.90 71.19 171.69 76.20 170.23 C 81.65 168.75 86.19 165.28 91.05 162.56 Z" />
<path fill="#847337" opacity="1.00" d=" M 101.49 171.52 C 102.83 170.13 104.39 168.97 105.96 167.84 C 106.78 169.07 107.74 170.23 108.33 171.59 C 108.67 173.23 108.89 174.90 109.13 176.56 C 109.57 176.51 110.43 176.42 110.87 176.37 C 111.38 179.36 112.08 182.32 112.79 185.26 C 111.96 184.63 111.13 184.01 110.29 183.39 C 109.30 181.81 108.31 180.23 107.30 178.66 C 107.60 177.07 107.80 175.47 108.00 173.87 C 106.78 175.50 105.56 177.15 104.51 178.91 C 102.88 177.11 101.24 175.31 99.60 173.53 C 100.22 172.85 100.85 172.18 101.49 171.52 Z" />
<path fill="#847337" opacity="1.00" d=" M 105.02 184.45 C 105.40 184.36 106.16 184.19 106.54 184.10 C 107.51 186.31 108.53 188.50 109.57 190.67 C 108.27 190.71 106.97 190.75 105.67 190.79 C 106.19 192.81 106.71 194.83 107.23 196.85 C 109.75 196.55 112.26 196.24 114.78 195.93 C 113.01 194.64 111.24 193.34 109.47 192.05 C 113.02 192.99 116.59 193.88 120.23 194.45 C 119.74 195.87 119.28 197.29 118.82 198.72 C 113.68 197.47 108.43 198.01 103.23 198.33 C 100.88 198.69 98.98 196.33 99.36 194.11 C 100.27 191.86 101.86 189.98 103.05 187.89 C 103.72 186.75 104.37 185.60 105.02 184.45 Z" />
<path fill="#847337" opacity="1.00" d=" M 65.70 189.77 C 66.77 189.42 67.84 189.07 68.91 188.74 C 69.70 189.88 70.45 191.05 71.21 192.23 C 70.12 193.88 68.86 195.40 67.60 196.93 C 63.53 196.49 59.43 196.70 55.39 197.27 C 51.98 197.26 50.83 191.95 54.52 191.32 C 54.91 191.33 55.71 191.35 56.11 191.36 C 59.43 191.78 63.09 192.41 65.70 189.77 Z" />
<path fill="#847337" opacity="1.00" d=" M 76.51 191.97 C 78.71 191.64 80.91 191.30 83.13 191.10 C 84.76 191.04 86.39 191.06 88.02 191.13 C 89.62 191.21 91.22 191.33 92.82 191.45 C 92.79 192.82 92.75 194.18 92.70 195.56 C 87.62 195.60 82.60 196.51 77.88 198.39 C 77.39 196.25 76.94 194.11 76.51 191.97 Z" />
</g>
<g id="#d9be28ff">
<path fill="#d9be28" opacity="1.00" d=" M 76.28 70.26 C 78.16 69.84 80.07 69.54 82.00 69.49 C 82.87 71.47 83.29 73.62 83.46 75.78 C 83.52 79.50 83.36 83.23 83.36 86.96 C 78.17 86.76 72.95 86.38 67.92 85.03 C 67.23 84.34 66.55 83.66 65.86 82.97 C 68.36 88.29 71.00 93.53 73.42 98.89 C 72.34 99.86 71.26 100.83 70.18 101.80 C 68.39 100.83 66.60 99.86 64.76 98.98 C 61.71 97.14 58.08 97.33 54.66 97.42 C 55.82 93.08 57.80 88.99 60.75 85.58 C 61.94 86.85 63.13 88.11 64.31 89.38 C 63.22 89.49 62.13 89.60 61.04 89.71 C 60.73 90.69 60.42 91.66 60.11 92.64 C 62.59 92.15 65.05 91.59 67.49 90.98 C 65.50 88.37 63.33 85.91 61.02 83.58 C 58.00 86.51 55.47 89.94 54.12 93.97 C 53.24 96.75 51.38 99.02 49.03 100.71 C 48.40 98.99 47.41 97.11 48.20 95.27 C 50.88 88.16 55.29 81.74 60.87 76.60 C 61.18 76.53 61.79 76.38 62.09 76.31 C 64.45 73.72 67.69 72.42 71.17 72.43 C 72.08 76.22 73.21 79.95 74.61 83.59 C 75.72 79.23 76.13 74.74 76.28 70.26 Z" />
<path fill="#d9be28" opacity="1.00" d=" M 102.45 81.13 C 102.84 78.30 105.96 77.03 107.91 75.34 C 113.48 80.27 117.14 86.92 119.39 93.94 C 119.05 95.69 118.63 97.42 118.22 99.15 C 114.01 97.84 109.39 96.68 106.49 93.07 C 105.08 89.12 102.86 85.36 102.45 81.13 Z" />
<path fill="#d9be28" opacity="1.00" d=" M 99.73 86.93 C 102.22 89.21 104.48 91.73 106.54 94.40 C 105.35 97.15 103.81 99.72 102.22 102.24 C 100.21 101.40 98.21 100.55 96.20 99.71 C 96.36 96.68 96.50 93.65 96.58 90.62 L 96.60 89.82 C 97.65 88.86 98.69 87.90 99.73 86.93 Z" />
</g>
<g id="#babdb6ff">
<path fill="#babdb6" opacity="1.00" d=" M 98.81 116.03 C 101.03 113.00 102.91 108.66 107.16 108.29 C 109.61 108.12 113.29 107.75 114.37 110.58 C 115.48 114.16 114.34 117.91 113.71 121.48 C 111.90 120.33 110.24 118.73 108.08 118.31 C 104.36 118.51 101.50 121.35 98.98 123.82 C 99.19 121.22 99.15 118.61 98.81 116.03 Z" />
<path fill="#babdb6" opacity="1.00" d=" M 47.35 124.27 C 42.63 117.31 50.83 107.66 58.49 109.68 C 61.53 110.56 64.64 111.78 66.93 114.03 C 68.59 116.58 68.53 119.80 69.17 122.69 C 66.22 118.61 61.59 115.18 56.27 116.44 C 51.74 116.66 49.31 120.76 47.35 124.27 Z" />
<path fill="#babdb6" opacity="1.00" d=" M 58.89 200.40 C 72.62 200.39 86.36 200.43 100.09 200.37 C 86.40 201.83 72.57 202.01 58.89 200.40 Z" />
</g>
</svg>
