<?xml version="1.0" encoding="UTF-8" ?>
<!DOCTYPE svg PUBLIC "-//W3C//DTD SVG 1.1//EN" "http://www.w3.org/Graphics/SVG/1.1/DTD/svg11.dtd">
<svg width="155pt" height="210pt" viewBox="0 0 155 210" version="1.1" xmlns="http://www.w3.org/2000/svg">
<g id="#c5bb90ff">
<path fill="#c5bb90" opacity="1.00" d=" M 60.74 54.75 C 61.99 49.73 64.52 44.17 69.07 41.60 C 75.97 43.72 81.43 49.25 84.79 55.51 C 87.92 54.12 91.10 52.24 94.63 52.35 C 96.65 52.95 97.15 55.30 98.25 56.84 C 99.27 59.23 102.41 58.86 104.46 59.82 C 110.25 62.13 114.93 66.43 119.81 70.19 C 122.60 72.53 126.17 74.39 127.44 78.05 C 125.96 78.57 124.47 79.08 122.97 79.55 C 116.51 73.98 108.72 70.41 100.87 67.29 C 101.30 68.47 101.75 69.66 102.20 70.85 C 100.66 75.55 98.78 80.32 95.03 83.73 C 93.75 83.15 92.48 82.57 91.21 81.97 C 90.56 84.25 89.87 86.53 89.18 88.80 C 87.23 91.22 85.05 93.44 82.92 95.71 C 75.82 94.90 70.71 89.74 65.14 85.86 C 62.26 83.80 59.42 81.62 57.10 78.92 C 55.94 76.78 56.21 74.23 56.39 71.89 C 56.83 70.21 57.38 68.57 57.91 66.93 C 54.04 68.19 50.19 69.49 46.32 70.76 C 44.93 67.37 43.45 64.01 42.21 60.56 C 43.23 57.71 46.42 55.49 49.25 54.33 C 53.09 54.55 56.89 55.77 60.74 54.75 M 72.26 58.41 C 69.67 61.35 66.88 64.12 63.72 66.44 C 66.62 68.51 68.29 71.76 70.84 74.17 C 74.11 76.87 78.80 78.70 82.93 76.86 C 87.27 75.09 91.96 72.38 93.57 67.70 C 94.00 63.67 90.74 60.52 88.15 57.87 C 88.92 60.54 90.11 63.15 90.24 65.96 C 88.49 70.97 83.83 74.84 78.53 75.44 C 77.18 75.70 75.39 75.50 74.93 73.94 C 72.96 69.27 74.75 64.16 74.74 59.31 C 73.88 59.09 73.06 58.79 72.26 58.41 Z" />
<path fill="#c5bb90" opacity="1.00" d=" M 23.46 78.53 C 26.34 70.70 34.13 66.40 40.66 61.94 C 41.61 65.30 42.91 68.54 44.12 71.81 C 38.00 74.65 31.99 78.62 24.95 78.31 C 27.26 79.00 30.21 79.09 31.56 81.43 C 36.25 88.92 39.53 97.35 40.39 106.20 C 42.04 103.46 43.65 100.71 45.16 97.89 C 46.76 97.33 48.37 96.76 50.01 96.32 C 51.22 98.64 52.40 100.97 53.59 103.29 C 53.73 101.07 53.83 98.84 53.99 96.61 L 54.07 95.75 C 59.62 96.83 65.82 96.92 70.44 100.56 C 74.38 104.32 75.72 109.84 77.99 114.62 C 79.33 111.54 80.53 108.39 82.22 105.49 C 83.01 104.30 83.86 103.17 84.71 102.03 C 86.07 102.62 87.43 103.21 88.79 103.80 C 88.36 102.23 87.97 100.65 87.53 99.08 C 88.72 98.55 89.91 98.02 91.12 97.52 C 91.65 97.33 92.71 96.93 93.24 96.73 C 93.68 96.63 94.56 96.42 95.00 96.32 C 98.27 95.89 101.58 95.72 104.88 95.64 C 106.63 96.74 108.44 97.80 109.93 99.27 C 110.00 99.15 110.15 98.91 110.22 98.80 C 110.79 99.93 111.41 101.04 112.01 102.16 C 114.40 95.77 117.30 89.57 120.65 83.63 C 121.69 81.59 123.81 80.56 125.64 79.35 C 126.22 80.58 126.87 81.79 127.57 82.97 C 124.54 90.43 120.07 97.22 117.49 104.88 C 117.32 105.38 116.99 106.39 116.82 106.89 C 116.79 109.10 116.36 111.29 116.04 113.47 C 115.59 113.27 114.67 112.87 114.22 112.66 C 111.77 113.70 110.10 115.97 107.56 116.82 C 107.64 115.98 107.82 114.29 107.90 113.44 C 108.37 110.67 107.56 107.30 104.64 106.24 C 100.11 104.77 95.05 106.56 91.44 109.40 C 88.29 112.12 87.84 116.62 88.19 120.52 C 88.52 120.51 89.17 120.50 89.49 120.50 C 91.21 118.19 92.15 115.29 94.41 113.41 C 96.75 111.81 99.73 110.95 102.56 111.39 C 104.26 112.18 105.66 113.50 107.15 114.62 C 104.69 118.55 100.46 120.72 96.21 122.18 C 88.19 123.95 79.94 123.51 71.82 123.02 C 63.24 122.11 54.59 121.18 46.32 118.62 C 46.72 116.95 47.09 115.27 47.49 113.60 C 51.66 111.54 57.00 111.29 60.92 114.03 C 62.53 116.07 63.27 118.63 64.26 121.00 C 65.03 121.03 66.55 121.09 67.31 121.12 C 67.37 116.79 67.65 111.19 63.39 108.62 C 59.32 106.48 53.80 104.72 49.69 107.68 C 47.28 109.05 46.74 111.94 45.96 114.37 C 45.51 115.05 45.02 115.70 44.50 116.33 C 41.09 115.88 37.72 113.64 34.24 114.96 C 30.21 116.23 29.20 120.84 28.09 124.39 C 25.81 118.19 25.63 111.38 27.26 104.99 C 23.65 101.78 18.55 97.76 20.02 92.27 C 22.05 89.79 25.00 88.36 27.66 86.68 C 24.83 85.03 22.09 82.05 23.46 78.53 Z" />
<path fill="#c5bb90" opacity="1.00" d=" M 38.34 127.25 C 51.52 132.65 65.84 134.63 79.98 135.33 C 91.61 135.24 103.37 133.57 114.14 129.00 C 114.50 131.36 115.38 133.90 114.21 136.18 C 109.89 138.12 105.08 138.36 100.51 139.37 C 95.33 140.35 90.42 142.66 85.09 142.88 C 82.29 142.95 79.49 142.75 76.72 142.42 C 77.51 141.47 78.31 140.52 79.11 139.58 C 71.47 139.24 63.96 137.64 56.37 136.77 C 56.00 135.94 55.65 135.11 55.29 134.28 C 52.26 137.28 48.21 135.26 45.41 133.06 C 42.44 133.07 39.50 132.45 36.87 131.06 C 37.35 129.79 37.85 128.52 38.34 127.25 Z" />
<path fill="#c5bb90" opacity="1.00" d=" M 112.68 153.70 C 113.98 152.55 115.22 151.34 116.41 150.09 C 118.01 153.67 120.98 156.34 125.02 156.63 C 123.09 157.92 121.07 159.07 119.06 160.22 C 117.81 159.61 116.56 158.99 115.32 158.38 C 114.45 156.81 113.57 155.25 112.68 153.70 Z" />
</g>
<g id="#4c3c2fff">
<path fill="#4c3c2f" opacity="1.00" d=" M 72.26 58.41 C 73.06 58.79 73.88 59.09 74.74 59.31 C 74.75 64.16 72.96 69.27 74.93 73.94 C 75.39 75.50 77.18 75.70 78.53 75.44 C 83.83 74.84 88.49 70.97 90.24 65.96 C 90.11 63.15 88.92 60.54 88.15 57.87 C 90.74 60.52 94.00 63.67 93.57 67.70 C 91.96 72.38 87.27 75.09 82.93 76.86 C 78.80 78.70 74.11 76.87 70.84 74.17 C 68.29 71.76 66.62 68.51 63.72 66.44 C 66.88 64.12 69.67 61.35 72.26 58.41 Z" />
<path fill="#4c3c2f" opacity="1.00" d=" M 40.66 61.94 C 41.05 61.60 41.82 60.91 42.21 60.56 C 43.45 64.01 44.93 67.37 46.32 70.76 C 50.19 69.49 54.04 68.19 57.91 66.93 C 57.38 68.57 56.83 70.21 56.39 71.89 C 53.44 69.70 49.97 70.89 46.80 71.84 C 47.16 74.19 47.51 76.55 47.86 78.91 C 46.85 76.89 45.85 74.87 44.83 72.87 C 42.59 73.89 40.38 74.95 38.17 76.03 C 40.58 83.29 42.79 90.62 45.16 97.89 C 43.65 100.71 42.04 103.46 40.39 106.20 C 39.53 97.35 36.25 88.92 31.56 81.43 C 30.21 79.09 27.26 79.00 24.95 78.31 C 31.99 78.62 38.00 74.65 44.12 71.81 C 42.91 68.54 41.61 65.30 40.66 61.94 M 36.31 76.99 C 35.25 77.77 34.16 78.53 33.09 79.29 C 34.25 82.84 35.68 86.29 37.23 89.69 C 38.61 92.64 39.71 96.16 43.06 97.44 C 42.02 90.35 40.51 82.96 36.31 76.99 Z" />
<path fill="#4c3c2f" opacity="1.00" d=" M 57.10 78.92 C 59.42 81.62 62.26 83.80 65.14 85.86 C 65.38 89.08 64.83 92.61 66.31 95.57 C 69.04 98.56 72.35 100.98 75.12 103.94 C 76.81 106.19 79.80 105.42 82.22 105.49 C 80.53 108.39 79.33 111.54 77.99 114.62 C 75.72 109.84 74.38 104.32 70.44 100.56 C 65.82 96.92 59.62 96.83 54.07 95.75 C 57.30 95.24 60.58 95.62 63.83 95.56 C 63.58 92.55 63.74 89.37 62.42 86.58 C 60.94 83.83 58.80 81.53 57.10 78.92 Z" />
<path fill="#4c3c2f" opacity="1.00" d=" M 56.96 85.27 C 57.66 85.25 59.05 85.20 59.75 85.18 C 59.69 87.19 59.64 89.19 59.58 91.20 C 58.68 89.24 57.83 87.25 56.96 85.27 Z" />
<path fill="#4c3c2f" opacity="1.00" d=" M 116.82 106.89 C 116.99 106.39 117.32 105.38 117.49 104.88 L 118.05 105.61 L 117.70 106.64 L 116.82 106.89 Z" />
<path fill="#4c3c2f" opacity="1.00" d=" M 45.96 114.37 C 46.34 114.17 47.11 113.79 47.49 113.60 C 47.09 115.27 46.72 116.95 46.32 118.62 C 54.59 121.18 63.24 122.11 71.82 123.02 C 79.94 123.51 88.19 123.95 96.21 122.18 C 103.34 121.95 109.42 117.98 115.78 115.25 C 117.76 116.57 119.94 117.69 121.54 119.49 C 122.33 121.40 122.42 123.51 122.61 125.54 C 122.98 132.34 123.63 139.11 123.69 145.92 C 125.25 146.35 126.82 146.77 128.40 147.15 C 129.51 150.48 129.20 154.01 127.67 157.15 C 126.78 156.98 125.90 156.81 125.02 156.63 C 120.98 156.34 118.01 153.67 116.41 150.09 C 116.83 149.64 117.67 148.73 118.08 148.27 C 119.49 146.69 121.16 145.30 122.27 143.47 C 123.01 141.00 122.69 138.37 122.74 135.83 C 121.36 137.73 120.00 139.67 118.87 141.74 C 114.62 143.70 110.34 145.65 105.75 146.67 C 97.97 148.28 90.51 151.43 82.49 151.76 C 75.32 149.96 68.22 147.86 61.08 145.91 C 62.32 148.13 63.71 150.26 64.93 152.49 C 61.91 151.62 59.09 149.99 56.47 148.27 C 57.18 150.36 57.89 152.45 58.62 154.53 C 55.61 153.93 52.77 154.99 50.52 157.01 C 52.02 153.53 54.03 150.31 56.29 147.28 C 53.98 147.99 51.67 148.69 49.41 149.52 C 42.98 144.44 33.43 145.44 27.26 139.78 C 25.99 138.57 26.16 136.71 26.25 135.13 C 26.61 131.52 27.30 127.94 28.09 124.39 C 29.20 120.84 30.21 116.23 34.24 114.96 C 37.72 113.64 41.09 115.88 44.50 116.33 C 45.02 115.70 45.51 115.05 45.96 114.37 M 38.34 127.25 C 37.85 128.52 37.35 129.79 36.87 131.06 C 39.50 132.45 42.44 133.07 45.41 133.06 C 48.21 135.26 52.26 137.28 55.29 134.28 C 55.65 135.11 56.00 135.94 56.37 136.77 C 63.96 137.64 71.47 139.24 79.11 139.58 C 78.31 140.52 77.51 141.47 76.72 142.42 C 79.49 142.75 82.29 142.95 85.09 142.88 C 90.42 142.66 95.33 140.35 100.51 139.37 C 105.08 138.36 109.89 138.12 114.21 136.18 C 115.38 133.90 114.50 131.36 114.14 129.00 C 103.37 133.57 91.61 135.24 79.98 135.33 C 65.84 134.63 51.52 132.65 38.34 127.25 Z" />
<path fill="#4c3c2f" opacity="1.00" d=" M 105.09 159.55 C 107.57 157.53 110.18 155.69 112.68 153.70 C 113.57 155.25 114.45 156.81 115.32 158.38 C 112.64 159.56 109.93 160.65 107.23 161.77 C 106.70 161.21 105.62 160.10 105.09 159.55 Z" />
<path fill="#4c3c2f" opacity="1.00" d=" M 50.53 162.01 C 52.48 161.97 54.44 161.89 56.40 161.76 C 56.20 163.98 51.04 164.00 50.53 162.01 Z" />
<path fill="#4c3c2f" opacity="1.00" d=" M 78.62 170.32 C 81.51 169.58 84.13 170.35 85.77 172.93 L 85.81 173.82 C 85.85 175.17 86.40 176.30 87.47 177.22 C 87.48 178.66 87.52 180.11 87.53 181.57 C 86.68 182.00 85.83 182.44 84.98 182.89 C 82.72 180.69 80.06 178.19 80.83 174.69 C 81.30 174.74 82.22 174.84 82.69 174.89 C 81.31 173.39 79.95 171.87 78.62 170.32 Z" />
<path fill="#4c3c2f" opacity="1.00" d=" M 50.21 184.60 C 50.84 180.70 52.23 176.50 56.12 174.75 C 56.41 175.07 57.00 175.71 57.30 176.03 C 56.86 177.90 56.71 180.00 55.52 181.58 C 54.20 182.72 52.57 183.41 51.03 184.20 L 50.21 184.60 Z" />
<path fill="#4c3c2f" opacity="1.00" d=" M 46.96 199.13 C 48.27 198.43 49.53 197.63 50.77 196.82 C 51.33 197.77 51.89 198.72 52.44 199.67 C 73.66 199.92 94.90 199.04 116.10 200.47 C 111.58 201.63 107.07 202.83 102.68 204.40 C 104.42 205.88 106.59 206.92 108.89 207.05 C 115.30 207.54 121.73 207.34 128.14 207.18 C 128.21 205.06 128.39 202.96 128.43 200.85 C 128.76 203.46 128.62 206.10 128.82 208.73 C 95.24 208.81 61.66 208.57 28.08 208.85 C 28.34 206.19 28.10 203.51 28.51 200.88 C 28.60 203.14 28.77 205.39 28.97 207.65 C 35.68 207.27 42.40 207.43 49.11 207.06 C 51.44 207.01 53.61 205.88 55.32 204.36 C 51.11 202.60 46.68 201.43 42.17 200.73 C 43.78 200.23 45.39 199.72 46.96 199.13 Z" />
</g>
<g id="#27221dff">
<path fill="#27221d" opacity="1.00" d=" M 100.87 67.29 C 108.72 70.41 116.51 73.98 122.97 79.55 C 124.47 79.08 125.96 78.57 127.44 78.05 C 127.42 79.69 127.58 81.32 127.57 82.97 C 126.87 81.79 126.22 80.58 125.64 79.35 C 123.81 80.56 121.69 81.59 120.65 83.63 C 117.30 89.57 114.40 95.77 112.01 102.16 C 111.41 101.04 110.79 99.93 110.22 98.80 C 113.32 93.62 117.02 88.73 119.18 83.05 C 119.57 81.75 120.21 80.16 119.12 79.01 C 116.93 76.31 113.63 74.92 110.71 73.22 C 106.17 79.72 105.33 87.93 104.88 95.64 C 101.58 95.72 98.27 95.89 95.00 96.32 C 97.90 95.66 100.85 95.19 103.78 94.69 C 104.67 87.07 107.30 79.81 108.23 72.21 C 106.22 71.75 104.21 71.30 102.20 70.85 C 101.75 69.66 101.30 68.47 100.87 67.29 Z" />
<path fill="#27221d" opacity="1.00" d=" M 91.21 81.97 C 92.48 82.57 93.75 83.15 95.03 83.73 C 95.66 84.00 96.29 84.28 96.93 84.55 C 95.19 84.50 93.46 84.50 91.73 84.46 C 90.81 88.63 90.31 93.21 93.24 96.73 C 92.71 96.93 91.65 97.33 91.12 97.52 C 90.40 94.63 89.67 91.74 89.18 88.80 C 89.87 86.53 90.56 84.25 91.21 81.97 Z" />
<path fill="#27221d" opacity="1.00" d=" M 50.01 96.32 C 51.34 96.38 52.67 96.49 53.99 96.61 C 53.83 98.84 53.73 101.07 53.59 103.29 C 52.40 100.97 51.22 98.64 50.01 96.32 Z" />
<path fill="#27221d" opacity="1.00" d=" M 49.69 107.68 C 53.80 104.72 59.32 106.48 63.39 108.62 C 67.65 111.19 67.37 116.79 67.31 121.12 C 66.55 121.09 65.03 121.03 64.26 121.00 C 63.27 118.63 62.53 116.07 60.92 114.03 C 57.00 111.29 51.66 111.54 47.49 113.60 C 47.11 113.79 46.34 114.17 45.96 114.37 C 46.74 111.94 47.28 109.05 49.69 107.68 Z" />
<path fill="#27221d" opacity="1.00" d=" M 91.44 109.40 C 95.05 106.56 100.11 104.77 104.64 106.24 C 107.56 107.30 108.37 110.67 107.90 113.44 C 107.71 113.74 107.34 114.33 107.15 114.62 C 105.66 113.50 104.26 112.18 102.56 111.39 C 99.73 110.95 96.75 111.81 94.41 113.41 C 92.15 115.29 91.21 118.19 89.49 120.50 C 89.17 120.50 88.52 120.51 88.19 120.52 C 87.84 116.62 88.29 112.12 91.44 109.40 Z" />
<path fill="#27221d" opacity="1.00" d=" M 61.08 145.91 C 68.22 147.86 75.32 149.96 82.49 151.76 C 84.03 154.80 86.00 157.59 88.21 160.18 C 83.66 163.65 78.82 166.99 73.16 168.32 C 68.20 169.83 62.99 169.06 58.00 168.15 C 59.55 166.04 61.00 163.84 62.02 161.43 C 60.81 161.23 59.59 161.02 58.38 160.79 C 55.51 160.20 52.59 159.19 50.52 157.01 C 52.77 154.99 55.61 153.93 58.62 154.53 C 57.89 152.45 57.18 150.36 56.47 148.27 C 59.09 149.99 61.91 151.62 64.93 152.49 C 63.71 150.26 62.32 148.13 61.08 145.91 Z" />
<path fill="#27221d" opacity="1.00" d=" M 107.23 161.77 C 109.93 160.65 112.64 159.56 115.32 158.38 C 116.56 158.99 117.81 159.61 119.06 160.22 C 118.18 162.41 116.92 164.43 115.36 166.20 C 115.21 165.40 114.93 163.81 114.78 163.01 C 112.07 165.93 109.00 168.47 106.18 171.27 C 104.38 173.08 104.53 175.95 102.95 177.88 C 99.54 180.59 95.41 182.68 90.96 182.72 C 87.73 182.49 87.62 186.45 86.67 188.66 C 88.17 189.18 89.64 189.81 91.08 190.50 C 88.03 189.72 84.91 189.27 81.83 188.69 C 79.54 188.19 77.29 187.58 75.05 186.90 C 75.64 187.92 76.23 188.95 76.83 189.97 C 76.41 190.10 75.57 190.37 75.14 190.50 C 75.04 192.01 74.92 193.51 74.93 195.03 C 74.51 193.33 74.12 191.64 73.73 189.94 C 72.11 190.62 70.49 191.31 68.93 192.10 C 68.42 189.86 67.46 187.55 67.97 185.23 C 68.62 183.68 70.12 182.70 71.33 181.60 C 71.73 180.34 72.11 179.06 72.49 177.80 C 73.55 179.82 74.30 181.97 75.07 184.12 C 76.28 182.71 77.54 181.26 78.15 179.48 C 78.18 177.68 77.63 175.95 77.30 174.20 C 78.47 174.37 79.65 174.54 80.83 174.69 C 80.06 178.19 82.72 180.69 84.98 182.89 C 85.83 182.44 86.68 182.00 87.53 181.57 C 87.52 180.11 87.48 178.66 87.47 177.22 C 88.59 175.89 87.95 173.01 85.81 173.82 L 85.77 172.93 C 86.24 170.68 86.92 168.20 88.96 166.87 C 90.68 165.46 93.01 166.03 95.01 166.23 C 96.32 166.64 97.60 167.10 98.90 167.55 C 101.57 165.48 104.17 163.26 107.23 161.77 Z" />
<path fill="#27221d" opacity="1.00" d=" M 57.30 176.03 C 59.73 179.01 62.12 182.03 64.44 185.11 C 62.69 187.18 61.07 190.16 57.94 190.09 C 56.05 190.36 54.59 188.94 53.20 187.90 C 52.40 186.71 51.74 185.44 51.03 184.20 C 52.57 183.41 54.20 182.72 55.52 181.58 C 56.71 180.00 56.86 177.90 57.30 176.03 Z" />
<path fill="#27221d" opacity="1.00" d=" M 92.27 190.71 C 91.64 192.48 91.05 194.25 90.38 196.00 C 93.37 197.60 96.44 199.50 99.97 199.39 C 107.99 199.51 116.01 199.26 124.03 199.34 C 125.63 199.30 127.29 199.62 128.43 200.85 C 128.39 202.96 128.21 205.06 128.14 207.18 C 121.73 207.34 115.30 207.54 108.89 207.05 C 106.59 206.92 104.42 205.88 102.68 204.40 C 107.07 202.83 111.58 201.63 116.10 200.47 C 94.90 199.04 73.66 199.92 52.44 199.67 C 51.89 198.72 51.33 197.77 50.77 196.82 C 51.09 196.44 51.72 195.66 52.04 195.28 C 56.64 195.26 61.22 194.68 65.80 194.27 C 66.18 195.95 66.57 197.62 66.96 199.29 C 71.03 199.36 75.10 199.25 79.16 198.99 C 77.81 197.92 76.43 196.89 75.12 195.78 C 79.36 195.08 83.67 194.79 87.91 194.05 C 89.88 193.80 91.11 192.14 92.27 190.71 Z" />
<path fill="#27221d" opacity="1.00" d=" M 28.51 200.88 C 29.79 199.19 32.07 199.42 33.94 199.32 C 38.28 199.29 42.63 199.51 46.96 199.13 C 45.39 199.72 43.78 200.23 42.17 200.73 C 46.68 201.43 51.11 202.60 55.32 204.36 C 53.61 205.88 51.44 207.01 49.11 207.06 C 42.40 207.43 35.68 207.27 28.97 207.65 C 28.77 205.39 28.60 203.14 28.51 200.88 Z" />
</g>
<g id="#ba4333ff">
<path fill="#ba4333" opacity="1.00" d=" M 46.80 71.84 C 49.97 70.89 53.44 69.70 56.39 71.89 C 56.21 74.23 55.94 76.78 57.10 78.92 C 58.80 81.53 60.94 83.83 62.42 86.58 C 63.74 89.37 63.58 92.55 63.83 95.56 C 60.58 95.62 57.30 95.24 54.07 95.75 L 53.99 96.61 C 52.67 96.49 51.34 96.38 50.01 96.32 C 48.37 96.76 46.76 97.33 45.16 97.89 C 42.79 90.62 40.58 83.29 38.17 76.03 C 40.38 74.95 42.59 73.89 44.83 72.87 C 45.85 74.87 46.85 76.89 47.86 78.91 C 47.51 76.55 47.16 74.19 46.80 71.84 M 56.96 85.27 C 57.83 87.25 58.68 89.24 59.58 91.20 C 59.64 89.19 59.69 87.19 59.75 85.18 C 59.05 85.20 57.66 85.25 56.96 85.27 Z" />
<path fill="#ba4333" opacity="1.00" d=" M 102.20 70.85 C 104.21 71.30 106.22 71.75 108.23 72.21 C 107.30 79.81 104.67 87.07 103.78 94.69 C 100.85 95.19 97.90 95.66 95.00 96.32 C 94.56 96.42 93.68 96.63 93.24 96.73 C 90.31 93.21 90.81 88.63 91.73 84.46 C 93.46 84.50 95.19 84.50 96.93 84.55 C 96.29 84.28 95.66 84.00 95.03 83.73 C 98.78 80.32 100.66 75.55 102.20 70.85 Z" />
<path fill="#ba4333" opacity="1.00" d=" M 104.88 95.64 C 105.33 87.93 106.17 79.72 110.71 73.22 C 113.63 74.92 116.93 76.31 119.12 79.01 C 120.21 80.16 119.57 81.75 119.18 83.05 C 117.02 88.73 113.32 93.62 110.22 98.80 C 110.15 98.91 110.00 99.15 109.93 99.27 C 108.44 97.80 106.63 96.74 104.88 95.64 Z" />
<path fill="#ba4333" opacity="1.00" d=" M 36.31 76.99 C 40.51 82.96 42.02 90.35 43.06 97.44 C 39.71 96.16 38.61 92.64 37.23 89.69 C 35.68 86.29 34.25 82.84 33.09 79.29 C 34.16 78.53 35.25 77.77 36.31 76.99 Z" />
<path fill="#ba4333" opacity="1.00" d=" M 65.14 85.86 C 70.71 89.74 75.82 94.90 82.92 95.71 C 85.05 93.44 87.23 91.22 89.18 88.80 C 89.67 91.74 90.40 94.63 91.12 97.52 C 89.91 98.02 88.72 98.55 87.53 99.08 C 87.97 100.65 88.36 102.23 88.79 103.80 C 87.43 103.21 86.07 102.62 84.71 102.03 C 83.86 103.17 83.01 104.30 82.22 105.49 C 79.80 105.42 76.81 106.19 75.12 103.94 C 72.35 100.98 69.04 98.56 66.31 95.57 C 64.83 92.61 65.38 89.08 65.14 85.86 Z" />
<path fill="#ba4333" opacity="1.00" d=" M 107.56 116.82 C 110.10 115.97 111.77 113.70 114.22 112.66 C 114.67 112.87 115.59 113.27 116.04 113.47 C 115.98 113.92 115.85 114.81 115.78 115.25 C 109.42 117.98 103.34 121.95 96.21 122.18 C 100.46 120.72 104.69 118.55 107.15 114.62 C 107.34 114.33 107.71 113.74 107.90 113.44 C 107.82 114.29 107.64 115.98 107.56 116.82 Z" />
<path fill="#ba4333" opacity="1.00" d=" M 118.87 141.74 C 120.00 139.67 121.36 137.73 122.74 135.83 C 122.69 138.37 123.01 141.00 122.27 143.47 C 121.16 145.30 119.49 146.69 118.08 148.27 C 118.34 146.09 118.52 143.90 118.87 141.74 Z" />
<path fill="#ba4333" opacity="1.00" d=" M 128.07 146.24 C 130.75 145.99 133.79 145.17 136.19 146.87 C 140.00 149.61 142.07 154.01 144.20 158.05 C 138.68 158.54 133.01 158.91 127.67 157.15 C 129.20 154.01 129.51 150.48 128.40 147.15 L 128.07 146.24 Z" />
<path fill="#ba4333" opacity="1.00" d=" M 49.41 149.52 C 51.67 148.69 53.98 147.99 56.29 147.28 C 54.03 150.31 52.02 153.53 50.52 157.01 C 52.59 159.19 55.51 160.20 58.38 160.79 C 57.89 161.03 56.90 161.52 56.40 161.76 C 54.44 161.89 52.48 161.97 50.53 162.01 C 47.77 161.70 44.18 159.44 45.19 156.22 C 45.73 153.58 46.28 150.20 49.41 149.52 Z" />
<path fill="#ba4333" opacity="1.00" d=" M 88.21 160.18 C 90.22 159.70 92.91 158.57 94.56 160.44 C 96.16 161.96 95.10 164.34 95.01 166.23 C 93.01 166.03 90.68 165.46 88.96 166.87 C 86.92 168.20 86.24 170.68 85.77 172.93 C 84.13 170.35 81.51 169.58 78.62 170.32 C 79.95 171.87 81.31 173.39 82.69 174.89 C 82.22 174.84 81.30 174.74 80.83 174.69 C 79.65 174.54 78.47 174.37 77.30 174.20 C 77.63 175.95 78.18 177.68 78.15 179.48 C 77.54 181.26 76.28 182.71 75.07 184.12 C 74.30 181.97 73.55 179.82 72.49 177.80 C 72.11 179.06 71.73 180.34 71.33 181.60 C 70.12 182.70 68.62 183.68 67.97 185.23 C 67.46 187.55 68.42 189.86 68.93 192.10 C 67.86 192.79 66.83 193.53 65.80 194.27 C 61.22 194.68 56.64 195.26 52.04 195.28 C 49.65 195.25 49.10 192.06 50.10 190.37 C 51.05 189.44 52.14 188.68 53.20 187.90 C 54.59 188.94 56.05 190.36 57.94 190.09 C 61.07 190.16 62.69 187.18 64.44 185.11 C 62.12 182.03 59.73 179.01 57.30 176.03 C 57.00 175.71 56.41 175.07 56.12 174.75 C 56.70 172.54 57.26 170.32 58.00 168.15 C 62.99 169.06 68.20 169.83 73.16 168.32 C 78.82 166.99 83.66 163.65 88.21 160.18 Z" />
<path fill="#ba4333" opacity="1.00" d=" M 81.83 188.69 C 84.91 189.27 88.03 189.72 91.08 190.50 L 92.27 190.71 C 91.11 192.14 89.88 193.80 87.91 194.05 C 83.67 194.79 79.36 195.08 75.12 195.78 L 74.93 195.03 C 74.92 193.51 75.04 192.01 75.14 190.50 C 75.57 190.37 76.41 190.10 76.83 189.97 C 78.49 189.51 80.15 189.07 81.83 188.69 Z" />
</g>
</svg>
