<?xml version="1.0" encoding="UTF-8" ?>
<!DOCTYPE svg PUBLIC "-//W3C//DTD SVG 1.1//EN" "http://www.w3.org/Graphics/SVG/1.1/DTD/svg11.dtd">
<svg width="155pt" height="210pt" viewBox="0 0 155 210" version="1.1" xmlns="http://www.w3.org/2000/svg">
<g id="#796b2aff">
<path fill="#796b2a" opacity="1.00" d=" M 20.98 63.98 C 23.17 56.68 29.86 49.97 37.97 50.74 C 43.37 51.41 49.51 52.63 53.05 57.16 C 51.85 61.42 49.41 65.20 48.09 69.42 C 48.60 69.61 49.63 69.99 50.14 70.18 C 51.13 72.23 51.35 75.11 53.62 76.23 C 55.94 77.53 58.31 78.80 60.34 80.56 C 62.54 79.50 64.67 78.13 67.10 77.63 C 68.86 77.99 70.49 78.79 72.15 79.44 C 64.52 80.79 59.77 87.30 54.36 92.18 C 54.09 90.70 53.81 89.23 53.54 87.75 C 52.81 89.77 52.08 91.78 51.36 93.79 C 49.28 93.41 47.21 93.02 45.13 92.66 C 47.45 98.93 54.29 102.92 54.65 109.94 C 54.88 112.07 55.01 114.22 55.17 116.36 C 57.56 110.40 57.13 103.92 55.03 97.96 C 56.49 96.51 57.97 95.08 59.29 93.50 C 61.07 96.06 62.86 98.61 64.70 101.13 C 62.18 102.38 59.79 103.87 57.57 105.60 C 60.33 106.79 63.12 107.94 66.05 108.66 C 65.68 108.86 64.95 109.26 64.59 109.46 C 67.42 116.39 66.30 124.00 65.55 131.22 C 62.43 131.87 59.38 132.80 56.40 133.95 C 55.88 131.20 55.31 128.46 54.63 125.75 C 54.23 128.55 53.88 131.36 53.53 134.18 C 50.94 133.70 46.76 133.31 46.85 129.79 C 47.75 123.92 48.77 117.12 44.27 112.36 C 42.48 113.92 39.78 115.25 39.91 118.03 C 39.12 122.89 42.20 126.95 43.83 131.24 C 44.29 135.46 41.71 139.27 40.08 143.00 C 39.03 142.00 37.99 141.00 36.95 139.99 C 37.23 138.70 37.57 137.43 37.93 136.16 C 38.63 133.32 39.95 130.42 39.49 127.45 C 38.18 125.03 36.17 123.10 34.40 121.02 C 34.27 123.00 34.15 124.99 34.02 126.98 C 32.11 127.08 30.20 127.16 28.30 127.29 L 28.20 128.06 C 28.07 129.42 27.99 130.78 27.95 132.15 C 27.61 130.50 27.27 128.86 26.92 127.22 C 22.85 126.87 18.79 126.47 14.73 126.04 C 18.63 125.57 24.69 127.32 26.44 122.58 C 28.52 117.78 30.99 112.92 31.47 107.64 C 29.62 105.97 27.03 105.81 24.69 105.46 C 27.23 104.58 29.78 103.71 32.39 103.06 C 36.20 104.11 40.61 105.32 43.78 102.11 C 42.21 101.38 40.65 100.66 39.04 100.04 C 41.00 99.59 42.94 99.02 44.87 98.45 C 42.51 94.34 41.16 88.68 35.96 87.31 C 34.12 91.07 34.66 95.23 35.66 99.14 C 32.73 98.37 29.77 97.73 26.79 97.17 C 25.12 93.67 23.54 89.93 23.83 85.96 C 23.93 82.52 26.69 80.04 27.78 76.94 C 27.74 71.71 23.18 68.31 20.98 63.98 M 44.82 72.77 C 46.70 69.70 46.41 66.13 45.77 62.75 C 43.98 65.70 42.03 69.76 44.82 72.77 M 53.31 78.98 C 53.49 79.57 53.84 80.76 54.02 81.36 C 55.47 80.79 56.90 80.16 58.27 79.41 C 56.67 79.21 54.85 78.03 53.31 78.98 M 48.03 78.32 C 46.48 81.23 46.43 84.55 45.74 87.69 C 44.68 89.21 43.12 90.27 41.78 91.52 C 44.89 92.00 47.72 90.62 50.33 89.10 C 50.43 85.38 50.87 81.23 48.03 78.32 Z" />
<path fill="#796b2a" opacity="1.00" d=" M 16.79 90.96 C 17.30 87.05 19.29 83.59 20.65 79.95 C 20.14 87.26 19.88 94.64 20.98 101.91 C 22.70 100.93 24.42 99.95 26.14 98.97 C 27.44 99.97 28.74 100.97 30.09 101.92 C 28.82 101.91 27.55 101.96 26.29 102.05 C 24.60 102.35 22.94 102.73 21.27 103.11 C 22.15 103.88 23.04 104.64 23.96 105.37 C 21.61 105.63 19.28 105.96 16.94 106.25 C 16.65 101.16 16.17 96.04 16.79 90.96 Z" />
<path fill="#796b2a" opacity="1.00" d=" M 111.86 92.08 C 116.50 93.27 119.20 97.37 120.20 101.81 C 118.80 101.86 117.40 101.90 116.00 101.94 C 114.46 98.73 113.03 95.45 111.86 92.08 Z" />
<path fill="#796b2a" opacity="1.00" d=" M 100.96 95.35 C 102.21 95.58 103.47 95.81 104.72 96.05 C 104.34 96.93 103.95 97.82 103.56 98.71 C 102.96 100.07 102.37 101.43 101.77 102.79 C 99.60 101.14 97.05 100.14 94.33 99.94 C 94.97 98.97 95.61 98.01 96.26 97.04 C 98.07 96.92 99.88 96.81 101.69 96.69 C 101.51 96.35 101.14 95.68 100.96 95.35 Z" />
<path fill="#796b2a" opacity="1.00" d=" M 106.31 101.43 C 108.38 99.84 110.86 98.95 113.22 97.90 C 113.90 104.63 112.33 111.28 112.24 117.99 C 111.98 123.83 111.77 130.24 108.07 135.09 C 106.60 137.48 103.50 136.61 101.16 136.91 C 102.33 127.96 104.37 119.12 104.75 110.08 C 105.09 107.19 104.82 104.02 106.31 101.43 Z" />
<path fill="#796b2a" opacity="1.00" d=" M 99.87 109.91 C 101.17 108.33 102.07 106.48 103.11 104.73 C 103.69 111.74 102.85 118.78 101.81 125.71 C 101.69 127.80 100.13 129.21 98.72 130.55 C 99.19 131.12 99.65 131.69 100.12 132.26 C 98.40 133.82 96.80 136.61 94.12 136.06 C 90.38 134.52 87.53 130.14 88.67 126.06 C 89.77 121.75 90.92 117.43 91.04 112.96 C 93.99 111.98 97.17 111.51 99.87 109.91 Z" />
<path fill="#796b2a" opacity="1.00" d=" M 120.94 106.16 C 121.73 106.39 122.52 106.63 123.31 106.87 C 121.56 114.41 122.31 122.21 123.12 129.83 C 131.78 130.73 140.49 130.22 149.17 130.21 C 140.91 131.40 132.52 130.33 124.22 131.16 C 124.22 131.56 124.21 132.36 124.21 132.77 C 122.23 131.94 120.24 131.17 118.24 130.43 C 120.11 122.46 120.95 114.33 120.94 106.16 Z" />
<path fill="#796b2a" opacity="1.00" d=" M 119.31 149.25 C 119.88 151.26 120.34 153.30 120.85 155.32 C 119.86 157.22 118.83 159.10 117.95 161.06 C 115.35 161.53 112.75 162.18 110.10 162.12 C 107.21 161.18 105.45 156.49 108.54 154.70 C 112.14 152.89 116.38 152.24 119.31 149.25 Z" />
<path fill="#796b2a" opacity="1.00" d=" M 65.22 153.41 C 65.76 153.44 66.30 153.48 66.84 153.52 C 67.11 154.89 67.37 156.26 67.64 157.63 C 74.44 159.52 81.53 159.42 88.49 158.65 C 91.33 158.64 95.40 157.81 97.01 160.88 C 97.95 164.75 96.71 168.71 96.09 172.54 C 89.55 170.37 83.31 174.32 76.80 174.39 C 73.80 174.72 70.46 174.08 67.75 175.71 C 65.44 177.58 65.20 180.92 63.25 183.09 C 61.08 184.65 58.26 184.64 55.73 185.22 C 56.58 181.53 57.21 177.78 57.58 174.01 C 57.57 173.64 57.56 172.89 57.55 172.52 C 59.52 174.24 61.87 175.43 64.25 176.49 C 63.47 175.00 62.67 173.54 61.85 172.08 C 62.61 171.32 63.37 170.56 64.14 169.81 C 62.57 168.71 61.00 167.62 59.42 166.56 C 60.10 161.67 63.43 157.87 65.22 153.41 M 72.96 165.78 C 73.88 166.23 74.81 166.69 75.74 167.14 C 78.23 164.94 81.25 165.36 84.04 166.68 C 84.69 165.83 85.33 164.98 85.97 164.14 C 83.80 162.42 81.49 160.88 79.09 159.50 C 76.80 161.34 74.70 163.42 72.96 165.78 M 87.49 165.23 C 86.31 166.20 85.14 167.17 83.97 168.15 C 82.39 167.53 80.82 166.92 79.25 166.32 C 78.14 167.14 77.03 167.97 75.91 168.79 C 74.19 168.27 72.48 167.51 70.65 167.65 C 69.97 169.04 70.47 170.66 72.26 170.55 C 78.24 170.43 84.44 170.22 90.08 167.98 C 89.22 167.05 88.35 166.14 87.49 165.23 Z" />
<path fill="#796b2a" opacity="1.00" d=" M 32.73 157.52 C 33.54 156.21 34.36 154.89 35.11 153.54 C 35.47 155.93 35.96 158.30 36.57 160.64 L 36.96 161.09 C 38.88 162.27 40.86 163.36 42.77 164.57 C 40.83 164.90 38.89 165.21 36.95 165.52 C 39.63 166.11 42.31 166.75 45.01 167.32 C 42.78 168.18 40.60 169.28 39.05 171.16 C 37.46 170.70 35.80 170.38 34.38 169.49 C 32.86 165.71 33.18 161.51 32.73 157.52 Z" />
<path fill="#796b2a" opacity="1.00" d=" M 46.97 158.08 C 47.81 157.76 48.64 157.45 49.48 157.14 C 49.70 160.81 49.87 164.48 50.04 168.15 C 48.64 169.27 47.21 170.36 45.77 171.45 C 46.25 167.00 46.98 162.57 46.97 158.08 Z" />
<path fill="#796b2a" opacity="1.00" d=" M 98.78 160.22 C 100.47 159.84 102.15 159.46 103.84 159.07 C 104.11 160.19 104.37 161.32 104.62 162.45 C 108.94 163.66 113.47 163.97 117.88 163.02 C 118.07 164.48 118.34 165.93 118.66 167.37 C 112.49 168.70 105.68 168.28 100.19 164.96 C 99.53 163.45 99.19 161.81 98.78 160.22 Z" />
<path fill="#796b2a" opacity="1.00" d=" M 73.09 179.61 C 78.93 176.93 85.39 175.92 91.54 174.13 C 90.87 178.88 90.83 183.72 91.98 188.40 C 94.32 188.01 96.66 187.60 99.00 187.16 C 99.30 188.74 99.61 190.32 99.96 191.90 C 95.06 191.33 90.22 192.38 85.35 192.62 C 81.42 191.18 83.55 187.18 84.82 184.55 C 81.64 185.04 78.35 185.83 75.16 185.03 C 72.56 184.84 72.39 181.53 73.09 179.61 Z" />
<path fill="#796b2a" opacity="1.00" d=" M 67.63 190.37 C 67.94 186.49 68.51 182.60 70.04 178.99 C 72.02 184.25 71.53 189.91 71.07 195.38 C 66.93 194.73 62.83 193.86 58.73 192.98 C 57.65 194.36 57.32 196.85 55.28 197.10 C 52.01 197.75 48.66 197.76 45.38 198.30 L 45.26 197.33 C 47.17 196.23 49.15 195.25 51.08 194.19 C 51.45 193.99 52.18 193.58 52.54 193.38 C 51.90 191.42 51.29 189.45 50.72 187.48 C 52.16 187.20 53.61 186.95 55.06 186.73 C 59.35 187.59 63.45 189.12 67.63 190.37 Z" />
<path fill="#796b2a" opacity="1.00" d=" M 58.88 200.44 C 72.28 199.73 85.71 199.50 99.11 200.46 C 85.83 202.59 72.18 202.29 58.88 200.44 Z" />
</g>
<g id="#dbd7c7ff">
<path fill="#dbd7c7" opacity="1.00" d=" M 68.68 68.32 C 72.32 65.63 76.09 62.33 80.81 62.02 C 84.43 65.04 86.07 69.65 88.19 73.72 C 93.76 71.97 99.84 70.83 105.61 72.17 C 109.56 75.63 111.48 81.04 116.08 83.83 C 119.10 85.71 122.35 87.67 123.96 91.01 C 126.38 95.79 128.74 100.60 131.14 105.39 C 130.78 105.61 130.07 106.06 129.71 106.29 C 127.42 106.02 124.79 105.66 123.36 103.62 C 119.90 98.77 120.58 91.97 116.61 87.43 C 112.79 84.54 107.72 84.81 103.20 84.21 C 97.98 83.72 93.25 81.03 89.24 77.78 C 83.33 72.84 75.44 71.68 68.68 68.32 Z" />
<path fill="#dbd7c7" opacity="1.00" d=" M 60.34 70.14 C 60.74 69.99 61.55 69.69 61.95 69.54 C 60.75 71.96 59.36 74.78 56.25 74.88 L 56.81 73.99 C 57.89 72.62 59.06 71.32 60.34 70.14 Z" />
<path fill="#dbd7c7" opacity="1.00" d=" M 53.31 78.98 C 54.85 78.03 56.67 79.21 58.27 79.41 C 56.90 80.16 55.47 80.79 54.02 81.36 C 53.84 80.76 53.49 79.57 53.31 78.98 Z" />
<path fill="#dbd7c7" opacity="1.00" d=" M 63.85 86.85 C 69.52 82.58 78.02 83.12 83.53 87.40 C 85.45 89.63 85.46 92.87 86.26 95.61 C 88.01 95.59 89.77 95.49 91.51 95.70 C 92.43 96.91 92.82 98.42 93.38 99.81 C 85.22 106.59 73.93 103.77 64.70 101.13 C 62.86 98.61 61.07 96.06 59.29 93.50 C 60.66 91.20 61.60 88.48 63.85 86.85 Z" />
<path fill="#dbd7c7" opacity="1.00" d=" M 26.29 102.05 C 27.55 101.96 28.82 101.91 30.09 101.92 C 30.66 102.20 31.82 102.77 32.39 103.06 C 29.78 103.71 27.23 104.58 24.69 105.46 C 25.22 104.32 25.75 103.19 26.29 102.05 Z" />
<path fill="#dbd7c7" opacity="1.00" d=" M 28.20 128.06 C 29.77 128.32 31.46 128.28 32.91 129.02 C 34.86 131.19 36.27 133.77 37.93 136.16 C 37.57 137.43 37.23 138.70 36.95 139.99 C 36.74 141.81 36.67 143.65 36.51 145.47 C 36.16 148.18 35.63 150.86 35.11 153.54 C 34.36 154.89 33.54 156.21 32.73 157.52 C 32.34 153.24 32.35 148.89 31.26 144.70 C 30.17 140.51 28.72 136.41 27.95 132.15 C 27.99 130.78 28.07 129.42 28.20 128.06 Z" />
<path fill="#dbd7c7" opacity="1.00" d=" M 72.96 165.78 C 74.70 163.42 76.80 161.34 79.09 159.50 C 81.49 160.88 83.80 162.42 85.97 164.14 C 85.33 164.98 84.69 165.83 84.04 166.68 C 81.25 165.36 78.23 164.94 75.74 167.14 C 74.81 166.69 73.88 166.23 72.96 165.78 Z" />
<path fill="#dbd7c7" opacity="1.00" d=" M 87.49 165.23 C 88.35 166.14 89.22 167.05 90.08 167.98 C 84.44 170.22 78.24 170.43 72.26 170.55 C 70.47 170.66 69.97 169.04 70.65 167.65 C 72.48 167.51 74.19 168.27 75.91 168.79 C 77.03 167.97 78.14 167.14 79.25 166.32 C 80.82 166.92 82.39 167.53 83.97 168.15 C 85.14 167.17 86.31 166.20 87.49 165.23 Z" />
</g>
<g id="#383024ff">
<path fill="#383024" opacity="1.00" d=" M 44.82 72.77 C 42.03 69.76 43.98 65.70 45.77 62.75 C 46.41 66.13 46.70 69.70 44.82 72.77 Z" />
<path fill="#383024" opacity="1.00" d=" M 48.03 78.32 C 50.87 81.23 50.43 85.38 50.33 89.10 C 47.72 90.62 44.89 92.00 41.78 91.52 C 43.12 90.27 44.68 89.21 45.74 87.69 C 46.43 84.55 46.48 81.23 48.03 78.32 Z" />
<path fill="#383024" opacity="1.00" d=" M 54.36 92.18 C 59.77 87.30 64.52 80.79 72.15 79.44 C 78.56 81.54 84.27 85.23 88.94 90.08 C 92.05 93.48 96.56 94.72 100.96 95.35 C 101.14 95.68 101.51 96.35 101.69 96.69 C 99.88 96.81 98.07 96.92 96.26 97.04 C 95.61 98.01 94.97 98.97 94.33 99.94 C 94.09 99.91 93.62 99.84 93.38 99.81 C 92.82 98.42 92.43 96.91 91.51 95.70 C 89.77 95.49 88.01 95.59 86.26 95.61 C 85.46 92.87 85.45 89.63 83.53 87.40 C 78.02 83.12 69.52 82.58 63.85 86.85 C 61.60 88.48 60.66 91.20 59.29 93.50 C 57.97 95.08 56.49 96.51 55.03 97.96 C 57.13 103.92 57.56 110.40 55.17 116.36 C 55.01 114.22 54.88 112.07 54.65 109.94 C 54.29 102.92 47.45 98.93 45.13 92.66 C 47.21 93.02 49.28 93.41 51.36 93.79 C 52.08 91.78 52.81 89.77 53.54 87.75 C 53.81 89.23 54.09 90.70 54.36 92.18 Z" />
<path fill="#383024" opacity="1.00" d=" M 94.97 86.21 C 100.66 87.97 106.29 89.96 111.86 92.08 C 113.03 95.45 114.46 98.73 116.00 101.94 C 117.40 101.90 118.80 101.86 120.20 101.81 C 118.26 103.26 115.43 104.24 114.79 106.84 C 113.24 112.40 114.20 118.21 113.75 123.88 C 113.30 129.17 111.00 134.04 108.81 138.80 C 101.76 138.37 94.72 137.37 87.65 137.85 C 88.10 139.81 88.46 141.81 89.20 143.69 C 93.87 145.53 99.03 145.51 103.97 145.83 C 109.20 146.14 115.49 144.56 119.31 149.25 C 116.38 152.24 112.14 152.89 108.54 154.70 C 105.45 156.49 107.21 161.18 110.10 162.12 C 112.75 162.18 115.35 161.53 117.95 161.06 C 117.93 161.55 117.90 162.53 117.88 163.02 C 113.47 163.97 108.94 163.66 104.62 162.45 C 104.37 161.32 104.11 160.19 103.84 159.07 C 102.75 156.41 99.80 155.76 97.41 154.77 C 97.87 156.59 98.34 158.40 98.78 160.22 C 99.19 161.81 99.53 163.45 100.19 164.96 C 105.68 168.28 112.49 168.70 118.66 167.37 C 119.30 169.03 120.09 170.63 120.86 172.24 C 118.19 177.75 112.42 180.25 106.95 182.12 C 104.32 177.92 103.32 173.02 101.86 168.35 C 99.02 174.12 97.50 180.79 99.00 187.16 C 96.66 187.60 94.32 188.01 91.98 188.40 C 90.83 183.72 90.87 178.88 91.54 174.13 C 85.39 175.92 78.93 176.93 73.09 179.61 C 72.39 181.53 72.56 184.84 75.16 185.03 C 78.35 185.83 81.64 185.04 84.82 184.55 C 83.55 187.18 81.42 191.18 85.35 192.62 C 90.22 192.38 95.06 191.33 99.96 191.90 C 100.66 194.03 102.03 195.89 103.95 197.05 C 109.19 200.95 116.06 198.96 122.07 199.30 C 124.07 199.53 126.81 198.92 128.15 200.83 C 128.87 203.38 128.72 206.07 128.85 208.69 C 95.28 208.79 61.71 208.77 28.14 208.70 C 28.27 205.81 28.09 202.83 29.07 200.06 C 34.42 198.86 40.03 199.72 45.38 198.30 C 48.66 197.76 52.01 197.75 55.28 197.10 C 57.32 196.85 57.65 194.36 58.73 192.98 C 62.83 193.86 66.93 194.73 71.07 195.38 C 71.53 189.91 72.02 184.25 70.04 178.99 C 68.51 182.60 67.94 186.49 67.63 190.37 C 63.45 189.12 59.35 187.59 55.06 186.73 C 55.23 186.35 55.56 185.60 55.73 185.22 C 58.26 184.64 61.08 184.65 63.25 183.09 C 65.20 180.92 65.44 177.58 67.75 175.71 C 70.46 174.08 73.80 174.72 76.80 174.39 C 83.31 174.32 89.55 170.37 96.09 172.54 C 96.71 168.71 97.95 164.75 97.01 160.88 C 95.40 157.81 91.33 158.64 88.49 158.65 C 81.53 159.42 74.44 159.52 67.64 157.63 C 67.37 156.26 67.11 154.89 66.84 153.52 C 66.30 153.48 65.76 153.44 65.22 153.41 C 63.43 157.87 60.10 161.67 59.42 166.56 C 61.00 167.62 62.57 168.71 64.14 169.81 C 63.37 170.56 62.61 171.32 61.85 172.08 C 62.67 173.54 63.47 175.00 64.25 176.49 C 61.87 175.43 59.52 174.24 57.55 172.52 C 55.88 169.02 55.61 165.17 57.33 161.63 C 55.47 163.42 53.57 165.18 51.60 166.86 C 51.21 167.18 50.43 167.83 50.04 168.15 C 49.87 164.48 49.70 160.81 49.48 157.14 C 48.64 157.45 47.81 157.76 46.97 158.08 C 46.98 162.57 46.25 167.00 45.77 171.45 C 45.49 175.98 45.00 180.82 47.03 185.05 C 48.43 188.07 49.88 191.07 51.08 194.19 C 49.15 195.25 47.17 196.23 45.26 197.33 C 44.63 192.75 42.16 188.81 40.43 184.62 C 39.30 180.23 40.14 175.58 39.05 171.16 C 40.60 169.28 42.78 168.18 45.01 167.32 C 42.31 166.75 39.63 166.11 36.95 165.52 C 38.89 165.21 40.83 164.90 42.77 164.57 C 40.86 163.36 38.88 162.27 36.96 161.09 L 36.57 160.64 C 39.15 160.68 41.73 160.64 44.31 160.58 C 41.80 159.41 39.27 158.30 36.73 157.20 C 39.10 156.92 41.47 156.67 43.84 156.41 C 43.76 155.93 43.62 154.98 43.54 154.51 C 42.30 154.04 41.06 153.57 39.81 153.15 C 39.81 152.45 39.83 151.06 39.83 150.37 C 38.85 148.65 37.69 147.05 36.51 145.47 C 36.67 143.65 36.74 141.81 36.95 139.99 C 37.99 141.00 39.03 142.00 40.08 143.00 C 41.71 139.27 44.29 135.46 43.83 131.24 C 42.20 126.95 39.12 122.89 39.91 118.03 C 39.78 115.25 42.48 113.92 44.27 112.36 C 48.77 117.12 47.75 123.92 46.85 129.79 C 46.76 133.31 50.94 133.70 53.53 134.18 C 53.88 131.36 54.23 128.55 54.63 125.75 C 55.31 128.46 55.88 131.20 56.40 133.95 C 59.38 132.80 62.43 131.87 65.55 131.22 C 66.30 124.00 67.42 116.39 64.59 109.46 C 64.95 109.26 65.68 108.86 66.05 108.66 C 73.67 109.66 81.36 110.30 89.05 110.38 C 92.24 110.27 95.70 110.34 98.55 108.68 C 100.01 106.96 100.80 104.80 101.77 102.79 C 102.37 101.43 102.96 100.07 103.56 98.71 C 105.88 98.63 108.20 98.56 110.52 98.47 C 110.63 97.87 110.86 96.67 110.98 96.07 C 105.44 93.13 99.79 90.28 94.97 86.21 M 106.31 101.43 C 104.82 104.02 105.09 107.19 104.75 110.08 C 104.37 119.12 102.33 127.96 101.16 136.91 C 103.50 136.61 106.60 137.48 108.07 135.09 C 111.77 130.24 111.98 123.83 112.24 117.99 C 112.33 111.28 113.90 104.63 113.22 97.90 C 110.86 98.95 108.38 99.84 106.31 101.43 M 99.87 109.91 C 97.17 111.51 93.99 111.98 91.04 112.96 C 90.92 117.43 89.77 121.75 88.67 126.06 C 87.53 130.14 90.38 134.52 94.12 136.06 C 96.80 136.61 98.40 133.82 100.12 132.26 C 99.65 131.69 99.19 131.12 98.72 130.55 C 100.13 129.21 101.69 127.80 101.81 125.71 C 102.85 118.78 103.69 111.74 103.11 104.73 C 102.07 106.48 101.17 108.33 99.87 109.91 M 67.79 113.87 C 67.10 119.93 68.31 126.00 67.82 132.07 C 67.55 137.16 66.02 142.05 64.75 146.95 C 72.61 149.39 81.11 150.10 89.15 148.14 C 86.82 140.77 86.36 132.84 87.45 125.20 C 87.85 121.98 89.93 118.85 89.36 115.59 C 82.62 112.87 74.92 112.80 67.79 113.87 M 46.40 136.46 C 45.94 138.03 45.48 139.60 45.02 141.17 C 51.62 141.28 58.27 141.77 64.85 141.08 C 66.11 139.85 65.92 137.90 66.33 136.31 C 59.70 135.73 52.98 135.18 46.40 136.46 M 43.51 143.36 C 44.83 146.19 45.80 149.16 46.64 152.16 C 50.24 150.03 52.11 146.17 54.22 142.74 C 50.64 142.86 47.08 143.15 43.51 143.36 M 67.21 197.23 C 66.98 197.70 66.53 198.64 66.30 199.11 C 72.28 199.56 78.28 199.43 84.27 199.19 C 84.26 198.33 84.23 196.61 84.21 195.75 C 78.53 195.27 72.65 195.38 67.21 197.23 M 58.88 200.44 C 72.18 202.29 85.83 202.59 99.11 200.46 C 85.71 199.50 72.28 199.73 58.88 200.44 Z" />
<path fill="#383024" opacity="1.00" d=" M 26.79 97.17 C 29.77 97.73 32.73 98.37 35.66 99.14 C 36.78 99.43 37.91 99.73 39.04 100.04 C 40.65 100.66 42.21 101.38 43.78 102.11 C 40.61 105.32 36.20 104.11 32.39 103.06 C 31.82 102.77 30.66 102.20 30.09 101.92 C 28.74 100.97 27.44 99.97 26.14 98.97 C 26.30 98.52 26.63 97.62 26.79 97.17 Z" />
<path fill="#383024" opacity="1.00" d=" M 0.00 103.97 L 0.41 102.86 C 0.71 106.52 0.80 110.20 0.98 113.87 L 0.00 114.00 L 0.00 103.97 Z" />
<path fill="#383024" opacity="1.00" d=" M 130.05 108.71 C 131.21 107.81 132.65 107.15 134.16 107.30 C 134.31 109.60 131.48 109.42 130.05 108.71 Z" />
<path fill="#383024" opacity="1.00" d=" M 74.79 120.80 C 76.81 120.88 78.82 120.97 80.83 121.08 C 80.08 128.78 80.11 136.54 80.99 144.23 C 78.29 144.23 75.60 144.14 72.92 143.98 C 74.44 136.34 74.85 128.58 74.79 120.80 Z" />
<path fill="#383024" opacity="1.00" d=" M 6.85 125.42 C 8.00 124.07 9.89 124.79 11.05 125.70 C 9.70 126.15 8.00 126.53 6.85 125.42 Z" />
</g>
<g id="#ac9d7aff">
<path fill="#ac9d7a" opacity="1.00" d=" M 50.14 70.18 C 54.58 68.36 59.23 67.13 63.95 66.34 C 64.98 67.44 66.01 68.55 67.04 69.66 C 67.58 69.21 68.13 68.77 68.68 68.32 C 75.44 71.68 83.33 72.84 89.24 77.78 C 93.25 81.03 97.98 83.72 103.20 84.21 C 107.72 84.81 112.79 84.54 116.61 87.43 C 120.58 91.97 119.90 98.77 123.36 103.62 C 124.79 105.66 127.42 106.02 129.71 106.29 C 128.54 106.83 127.33 107.29 126.13 107.75 C 127.44 108.05 128.74 108.37 130.05 108.71 C 131.48 109.42 134.31 109.60 134.16 107.30 C 135.21 97.78 133.98 88.29 133.15 78.82 C 139.47 79.24 143.05 84.99 146.49 89.54 C 153.98 99.78 156.17 113.32 153.36 125.58 C 152.90 127.70 151.58 130.02 149.17 130.21 C 140.49 130.22 131.78 130.73 123.12 129.83 C 122.31 122.21 121.56 114.41 123.31 106.87 C 122.52 106.63 121.73 106.39 120.94 106.16 C 120.95 114.33 120.11 122.46 118.24 130.43 C 120.24 131.17 122.23 131.94 124.21 132.77 C 124.94 140.42 125.11 148.56 120.85 155.32 C 120.34 153.30 119.88 151.26 119.31 149.25 C 115.49 144.56 109.20 146.14 103.97 145.83 C 99.03 145.51 93.87 145.53 89.20 143.69 C 88.46 141.81 88.10 139.81 87.65 137.85 C 94.72 137.37 101.76 138.37 108.81 138.80 C 111.00 134.04 113.30 129.17 113.75 123.88 C 114.20 118.21 113.24 112.40 114.79 106.84 C 115.43 104.24 118.26 103.26 120.20 101.81 C 119.20 97.37 116.50 93.27 111.86 92.08 C 106.29 89.96 100.66 87.97 94.97 86.21 C 99.79 90.28 105.44 93.13 110.98 96.07 C 110.86 96.67 110.63 97.87 110.52 98.47 C 108.20 98.56 105.88 98.63 103.56 98.71 C 103.95 97.82 104.34 96.93 104.72 96.05 C 103.47 95.81 102.21 95.58 100.96 95.35 C 96.56 94.72 92.05 93.48 88.94 90.08 C 84.27 85.23 78.56 81.54 72.15 79.44 C 70.49 78.79 68.86 77.99 67.10 77.63 C 64.67 78.13 62.54 79.50 60.34 80.56 C 58.31 78.80 55.94 77.53 53.62 76.23 C 51.35 75.11 51.13 72.23 50.14 70.18 M 51.75 72.23 C 52.99 73.35 54.27 74.41 55.61 75.41 C 55.91 75.05 56.51 74.35 56.81 73.99 L 56.25 74.88 C 59.36 74.78 60.75 71.96 61.95 69.54 C 61.55 69.69 60.74 69.99 60.34 70.14 C 57.37 70.30 54.49 71.10 51.75 72.23 Z" />
<path fill="#ac9d7a" opacity="1.00" d=" M 14.03 78.04 C 15.83 76.19 18.48 75.90 20.90 75.49 C 20.84 76.98 20.75 78.46 20.65 79.95 C 19.29 83.59 17.30 87.05 16.79 90.96 C 16.17 96.04 16.65 101.16 16.94 106.25 C 19.28 105.96 21.61 105.63 23.96 105.37 L 24.69 105.46 C 27.03 105.81 29.62 105.97 31.47 107.64 C 30.99 112.92 28.52 117.78 26.44 122.58 C 24.69 127.32 18.63 125.57 14.73 126.04 C 13.50 125.94 12.28 125.82 11.05 125.70 C 9.89 124.79 8.00 124.07 6.85 125.42 C 2.33 123.40 1.43 118.28 0.98 113.87 C 0.80 110.20 0.71 106.52 0.41 102.86 C 2.99 93.72 6.91 84.59 14.03 78.04 Z" />
<path fill="#ac9d7a" opacity="1.00" d=" M 35.96 87.31 C 41.16 88.68 42.51 94.34 44.87 98.45 C 42.94 99.02 41.00 99.59 39.04 100.04 C 37.91 99.73 36.78 99.43 35.66 99.14 C 34.66 95.23 34.12 91.07 35.96 87.31 Z" />
<path fill="#ac9d7a" opacity="1.00" d=" M 64.70 101.13 C 73.93 103.77 85.22 106.59 93.38 99.81 C 93.62 99.84 94.09 99.91 94.33 99.94 C 97.05 100.14 99.60 101.14 101.77 102.79 C 100.80 104.80 100.01 106.96 98.55 108.68 C 95.70 110.34 92.24 110.27 89.05 110.38 C 81.36 110.30 73.67 109.66 66.05 108.66 C 63.12 107.94 60.33 106.79 57.57 105.60 C 59.79 103.87 62.18 102.38 64.70 101.13 Z" />
<path fill="#ac9d7a" opacity="1.00" d=" M 67.79 113.87 C 74.92 112.80 82.62 112.87 89.36 115.59 C 89.93 118.85 87.85 121.98 87.45 125.20 C 86.36 132.84 86.82 140.77 89.15 148.14 C 81.11 150.10 72.61 149.39 64.75 146.95 C 66.02 142.05 67.55 137.16 67.82 132.07 C 68.31 126.00 67.10 119.93 67.79 113.87 M 74.79 120.80 C 74.85 128.58 74.44 136.34 72.92 143.98 C 75.60 144.14 78.29 144.23 80.99 144.23 C 80.11 136.54 80.08 128.78 80.83 121.08 C 78.82 120.97 76.81 120.88 74.79 120.80 Z" />
<path fill="#ac9d7a" opacity="1.00" d=" M 34.40 121.02 C 36.17 123.10 38.18 125.03 39.49 127.45 C 39.95 130.42 38.63 133.32 37.93 136.16 C 36.27 133.77 34.86 131.19 32.91 129.02 C 31.46 128.28 29.77 128.32 28.20 128.06 L 28.30 127.29 C 30.20 127.16 32.11 127.08 34.02 126.98 C 34.15 124.99 34.27 123.00 34.40 121.02 Z" />
<path fill="#ac9d7a" opacity="1.00" d=" M 46.40 136.46 C 52.98 135.18 59.70 135.73 66.33 136.31 C 65.92 137.90 66.11 139.85 64.85 141.08 C 58.27 141.77 51.62 141.28 45.02 141.17 C 45.48 139.60 45.94 138.03 46.40 136.46 Z" />
<path fill="#ac9d7a" opacity="1.00" d=" M 43.51 143.36 C 47.08 143.15 50.64 142.86 54.22 142.74 C 52.11 146.17 50.24 150.03 46.64 152.16 C 45.80 149.16 44.83 146.19 43.51 143.36 Z" />
<path fill="#ac9d7a" opacity="1.00" d=" M 36.51 145.47 C 37.69 147.05 38.85 148.65 39.83 150.37 C 38.67 150.06 37.81 150.42 37.25 151.46 C 36.73 153.02 38.77 153.22 39.81 153.15 C 41.06 153.57 42.30 154.04 43.54 154.51 C 43.62 154.98 43.76 155.93 43.84 156.41 C 41.47 156.67 39.10 156.92 36.73 157.20 C 39.27 158.30 41.80 159.41 44.31 160.58 C 41.73 160.64 39.15 160.68 36.57 160.64 C 35.96 158.30 35.47 155.93 35.11 153.54 C 35.63 150.86 36.16 148.18 36.51 145.47 Z" />
<path fill="#ac9d7a" opacity="1.00" d=" M 97.41 154.77 C 99.80 155.76 102.75 156.41 103.84 159.07 C 102.15 159.46 100.47 159.84 98.78 160.22 C 98.34 158.40 97.87 156.59 97.41 154.77 Z" />
<path fill="#ac9d7a" opacity="1.00" d=" M 51.60 166.86 C 53.57 165.18 55.47 163.42 57.33 161.63 C 55.61 165.17 55.88 169.02 57.55 172.52 C 57.56 172.89 57.57 173.64 57.58 174.01 C 55.49 171.71 53.52 169.30 51.60 166.86 Z" />
</g>
</svg>
