<?xml version="1.0" encoding="UTF-8" ?>
<!DOCTYPE svg PUBLIC "-//W3C//DTD SVG 1.1//EN" "http://www.w3.org/Graphics/SVG/1.1/DTD/svg11.dtd">
<svg width="155pt" height="210pt" viewBox="0 0 155 210" version="1.1" xmlns="http://www.w3.org/2000/svg">
<g id="#2f4247ff">
<path fill="#2f4247" opacity="1.00" d=" M 70.07 55.07 C 70.44 52.75 72.73 52.23 74.67 51.81 C 75.46 56.97 75.99 62.17 76.59 67.35 C 73.79 67.34 71.00 67.63 68.28 68.28 C 68.32 63.84 68.47 59.28 70.07 55.07 Z" />
<path fill="#2f4247" opacity="1.00" d=" M 129.22 65.24 C 133.28 60.85 137.67 55.95 143.85 54.85 C 145.42 59.41 144.67 64.28 144.55 68.99 C 143.44 90.74 140.09 113.38 128.01 132.01 C 124.55 137.85 119.18 142.11 114.86 147.23 C 121.85 146.36 128.22 142.96 133.85 138.87 C 138.23 135.55 142.26 131.49 144.31 126.30 C 142.78 125.32 141.26 124.34 139.74 123.35 C 143.29 118.81 149.77 118.45 155.00 119.55 L 155.00 120.57 C 148.64 132.89 141.23 145.61 129.20 153.20 C 123.77 156.84 117.26 158.05 111.11 159.92 C 114.89 166.53 120.31 172.62 121.66 180.31 C 121.04 180.44 119.79 180.71 119.17 180.84 C 116.10 176.88 114.02 172.19 110.37 168.69 C 109.74 170.83 109.74 173.27 108.47 175.16 C 106.59 175.36 104.69 175.27 102.80 175.31 C 105.30 176.82 108.40 177.61 110.13 180.13 C 106.67 179.88 103.21 179.63 99.74 179.58 C 99.54 180.59 99.34 181.61 99.14 182.63 C 103.24 182.80 107.36 182.69 111.44 182.19 C 111.81 182.78 112.18 183.38 112.55 183.97 C 111.72 185.05 110.89 186.14 110.07 187.23 C 115.09 187.55 120.25 186.71 125.19 187.85 C 128.17 188.95 126.91 192.56 127.14 194.98 C 104.44 195.66 81.71 195.16 59.00 195.31 C 55.37 195.37 51.74 195.20 48.12 194.84 C 48.57 192.45 47.42 188.43 50.66 187.76 C 54.99 186.93 59.43 187.34 63.81 187.28 C 62.78 185.87 60.74 184.51 61.61 182.50 C 62.21 178.89 65.95 177.72 68.84 176.42 C 67.56 176.15 66.29 175.89 65.01 175.63 C 64.49 171.44 66.17 167.12 68.88 163.98 C 71.38 162.38 74.21 161.05 75.39 158.09 C 69.75 154.49 62.22 155.54 57.32 150.53 C 59.35 148.31 61.12 145.87 63.20 143.69 C 65.61 142.28 63.04 140.94 61.35 141.68 C 58.64 141.03 55.76 140.62 53.61 142.81 C 51.38 140.96 51.30 138.34 52.29 135.80 C 50.87 136.48 49.40 137.09 48.09 137.96 C 46.92 140.22 46.98 142.89 46.38 145.33 C 46.13 145.54 45.63 145.95 45.38 146.16 C 45.10 146.02 44.56 145.74 44.28 145.60 C 45.25 144.26 46.57 142.80 46.05 141.00 C 44.92 136.61 42.56 132.62 41.78 128.12 C 43.44 129.04 45.15 129.86 46.85 130.70 C 46.66 128.42 46.49 126.13 46.38 123.85 C 48.91 126.32 50.92 129.40 54.08 131.14 C 58.58 133.75 63.02 136.80 68.22 137.77 C 73.98 139.06 79.84 137.80 85.63 137.48 C 86.21 139.35 86.80 141.22 87.38 143.09 C 83.73 145.20 77.91 145.24 76.77 150.11 C 78.87 151.57 80.80 153.38 83.22 154.31 C 86.91 153.36 89.80 150.64 93.14 148.93 C 96.93 148.59 100.58 147.43 103.95 145.67 C 103.89 146.96 105.53 148.74 106.74 147.55 C 107.46 145.96 105.12 145.11 103.95 145.67 C 104.65 145.09 105.35 144.50 106.05 143.91 C 105.71 143.55 105.02 142.82 104.68 142.46 C 103.10 142.61 101.53 142.76 99.96 142.92 C 100.66 141.25 101.32 139.55 101.84 137.81 C 108.91 136.12 113.55 130.05 117.23 124.21 C 118.14 122.90 118.35 121.31 118.50 119.76 C 126.50 117.32 133.49 111.95 137.86 104.82 C 138.34 103.77 138.49 102.61 138.75 101.49 C 134.44 101.16 130.13 101.70 125.98 102.83 C 128.96 101.25 129.82 97.80 130.85 94.86 C 133.25 87.10 136.05 79.22 135.77 70.97 C 130.89 72.77 126.94 76.77 121.62 77.33 C 122.49 72.45 126.27 68.95 129.22 65.24 M 71.02 150.02 C 72.26 151.89 74.04 153.27 76.02 154.28 C 75.09 152.31 73.94 148.09 71.02 150.02 M 101.12 161.98 C 101.58 163.73 101.81 165.62 102.86 167.13 C 104.03 168.10 105.54 168.49 106.91 169.08 C 109.66 165.29 103.78 163.28 101.12 161.98 M 80.18 172.10 C 81.07 173.28 81.97 174.45 82.89 175.61 C 80.95 175.62 78.99 176.17 77.80 177.82 C 75.92 179.23 77.48 181.41 77.92 183.13 C 78.64 184.48 77.61 185.86 77.28 187.17 C 82.79 187.42 88.30 187.46 93.80 187.09 C 92.96 185.88 92.12 184.69 91.28 183.50 C 91.93 183.27 93.22 182.83 93.87 182.61 C 93.94 180.95 93.98 179.29 94.00 177.63 C 93.16 177.55 92.32 177.47 91.48 177.39 C 91.72 173.23 89.48 169.63 87.54 166.14 C 84.40 167.13 82.28 169.73 80.18 172.10 M 62.62 182.01 C 66.74 182.47 70.89 182.31 75.00 181.80 C 74.58 180.96 74.16 180.12 73.74 179.29 C 70.11 180.25 65.14 178.66 62.62 182.01 Z" />
<path fill="#2f4247" opacity="1.00" d=" M 95.39 69.92 C 100.01 72.69 105.54 74.67 108.57 79.41 C 110.48 82.44 112.64 85.34 114.16 88.59 C 115.40 93.10 114.02 97.86 114.81 102.44 C 115.07 103.98 116.74 104.54 117.80 105.44 C 115.49 106.49 113.24 107.68 111.07 109.00 C 102.43 107.90 93.73 107.28 85.02 107.22 C 81.77 107.28 78.50 107.66 75.26 107.30 C 72.64 106.51 69.93 106.00 67.18 106.12 C 65.78 106.14 64.38 106.16 62.98 106.18 C 60.99 106.18 59.00 106.15 57.01 106.03 C 55.70 105.93 54.38 105.82 53.07 105.69 C 51.07 105.50 49.06 105.42 47.06 105.58 C 46.64 105.66 45.80 105.82 45.38 105.90 C 44.81 103.73 44.47 101.52 44.25 99.29 C 45.27 97.97 46.25 96.59 46.83 95.01 C 47.08 93.07 47.22 91.12 47.56 89.19 C 49.03 89.08 50.50 88.95 51.97 88.80 C 53.38 91.29 54.17 94.90 57.37 95.60 C 61.48 96.63 65.80 96.69 70.00 96.22 C 74.96 95.61 78.52 91.73 82.66 89.31 C 83.85 89.90 85.04 90.49 86.23 91.08 C 86.97 90.43 87.71 89.78 88.45 89.13 C 87.64 87.49 86.82 85.85 86.00 84.21 C 87.40 84.38 88.81 84.54 90.22 84.70 C 90.81 81.29 88.68 77.78 90.33 74.53 C 91.28 72.33 93.56 71.26 95.39 69.92 Z" />
<path fill="#2f4247" opacity="1.00" d=" M 49.69 83.85 C 50.20 82.16 51.34 80.81 52.71 79.74 C 53.67 81.82 52.09 84.40 49.69 83.85 Z" />
<path fill="#2f4247" opacity="1.00" d=" M 107.14 121.21 C 107.85 121.14 109.28 121.01 109.99 120.94 C 109.79 123.16 109.60 125.38 109.41 127.60 C 107.76 127.07 106.12 126.52 104.48 125.96 C 105.29 124.33 106.21 122.77 107.14 121.21 Z" />
<path fill="#2f4247" opacity="1.00" d=" M 56.17 125.96 C 59.20 126.21 61.81 127.77 63.78 130.03 C 63.37 130.95 62.96 131.87 62.57 132.80 C 59.08 132.27 57.66 128.69 56.17 125.96 Z" />
<path fill="#2f4247" opacity="1.00" d=" M 76.88 132.57 C 78.82 128.25 83.87 128.07 87.89 127.21 C 87.12 128.69 86.35 130.16 85.59 131.65 C 82.72 132.21 79.81 132.56 76.88 132.57 Z" />
<path fill="#2f4247" opacity="1.00" d=" M 96.45 133.53 C 99.07 131.23 102.12 129.38 104.20 126.52 C 104.68 127.65 105.23 128.75 105.62 129.93 C 104.85 132.39 103.15 134.42 102.16 136.79 C 99.34 136.13 97.57 138.54 95.73 140.19 C 95.97 138.00 95.37 135.52 96.45 133.53 Z" />
<path fill="#2f4247" opacity="1.00" d=" M 65.11 129.45 C 68.44 130.22 71.87 130.30 75.24 130.80 C 75.49 131.31 76.00 132.31 76.26 132.81 C 72.62 133.00 68.93 132.82 65.47 131.57 C 65.38 131.04 65.20 129.98 65.11 129.45 Z" />
<path fill="#2f4247" opacity="1.00" d=" M 88.95 134.92 C 89.75 134.88 91.33 134.78 92.12 134.74 C 92.34 137.52 92.24 140.32 91.75 143.08 C 90.23 140.59 89.30 137.81 88.95 134.92 Z" />
</g>
<g id="#a94136ff">
<path fill="#a94136" opacity="1.00" d=" M 68.28 68.28 C 71.00 67.63 73.79 67.34 76.59 67.35 C 82.86 67.84 89.70 66.62 95.39 69.92 C 93.56 71.26 91.28 72.33 90.33 74.53 C 88.68 77.78 90.81 81.29 90.22 84.70 C 88.81 84.54 87.40 84.38 86.00 84.21 C 86.82 85.85 87.64 87.49 88.45 89.13 C 87.71 89.78 86.97 90.43 86.23 91.08 C 85.04 90.49 83.85 89.90 82.66 89.31 C 78.52 91.73 74.96 95.61 70.00 96.22 C 65.80 96.69 61.48 96.63 57.37 95.60 C 54.17 94.90 53.38 91.29 51.97 88.80 C 50.50 88.95 49.03 89.08 47.56 89.19 C 48.18 87.38 48.94 85.61 49.69 83.85 C 52.09 84.40 53.67 81.82 52.71 79.74 C 55.72 77.14 56.81 73.20 59.06 70.11 C 62.11 69.38 65.26 69.13 68.28 68.28 Z" />
<path fill="#a94136" opacity="1.00" d=" M 47.06 105.58 C 49.06 105.42 51.07 105.50 53.07 105.69 C 52.19 110.27 52.63 115.52 55.90 119.10 C 57.75 121.10 61.55 119.71 61.54 116.96 C 61.43 112.89 59.16 109.34 57.01 106.03 C 59.00 106.15 60.99 106.18 62.98 106.18 C 63.14 110.13 63.80 114.04 63.91 118.00 C 64.05 121.28 60.38 124.18 57.21 123.20 C 54.37 121.49 52.14 118.98 49.83 116.64 C 49.49 115.50 49.14 114.35 48.78 113.21 C 48.15 110.68 47.61 108.13 47.06 105.58 Z" />
<path fill="#a94136" opacity="1.00" d=" M 67.18 106.12 C 69.93 106.00 72.64 106.51 75.26 107.30 C 73.85 110.69 71.91 114.99 74.67 118.26 C 78.08 123.43 87.53 121.98 88.68 115.74 C 89.55 112.32 87.58 109.27 85.02 107.22 C 93.73 107.28 102.43 107.90 111.07 109.00 C 108.94 111.31 107.63 114.23 105.57 116.59 C 103.01 118.28 99.99 119.06 97.19 120.27 C 91.93 122.29 86.80 125.36 80.99 125.27 C 75.80 125.36 71.17 121.80 68.73 117.43 C 67.55 113.79 67.64 109.89 67.18 106.12 Z" />
<path fill="#a94136" opacity="1.00" d=" M 64.33 124.19 C 66.29 123.44 66.72 126.75 65.00 127.25 C 63.03 127.95 62.65 124.71 64.33 124.19 Z" />
<path fill="#a94136" opacity="1.00" d=" M 69.36 123.92 C 71.08 124.86 72.21 126.43 73.13 128.11 C 71.79 128.06 70.45 128.00 69.12 127.95 C 69.19 126.60 69.27 125.26 69.36 123.92 Z" />
<path fill="#a94136" opacity="1.00" d=" M 48.09 137.96 C 49.40 137.09 50.87 136.48 52.29 135.80 C 51.30 138.34 51.38 140.96 53.61 142.81 C 55.76 140.62 58.64 141.03 61.35 141.68 C 61.81 142.18 62.73 143.19 63.20 143.69 C 61.12 145.87 59.35 148.31 57.32 150.53 C 55.87 152.13 54.48 153.78 53.17 155.50 C 54.06 156.48 54.95 157.46 55.84 158.44 C 52.75 158.50 49.66 159.22 47.79 161.89 C 47.17 158.77 45.20 156.28 42.92 154.18 C 44.86 153.95 46.80 153.73 48.73 153.50 C 48.73 152.46 48.72 151.43 48.72 150.40 C 45.76 150.69 42.79 150.93 39.82 151.07 C 41.58 149.33 43.45 147.71 45.38 146.16 C 45.63 145.95 46.13 145.54 46.38 145.33 C 46.98 142.89 46.92 140.22 48.09 137.96 Z" />
<path fill="#a94136" opacity="1.00" d=" M 76.77 150.11 C 82.26 151.95 87.64 149.09 93.14 148.93 C 89.80 150.64 86.91 153.36 83.22 154.31 C 80.80 153.38 78.87 151.57 76.77 150.11 Z" />
</g>
<g id="#a8a9a4ff">
<path fill="#a8a9a4" opacity="1.00" d=" M 1.72 91.04 C 2.29 89.71 2.30 86.49 4.46 87.42 C 5.86 91.93 6.31 96.90 9.20 100.81 C 12.98 106.36 19.01 109.64 23.68 114.32 C 29.08 119.70 35.58 123.76 41.78 128.12 C 42.56 132.62 44.92 136.61 46.05 141.00 C 46.57 142.80 45.25 144.26 44.28 145.60 C 39.60 142.51 33.57 141.58 29.79 137.19 C 24.30 131.56 18.00 126.72 11.18 122.81 C 9.35 121.68 7.39 120.70 5.87 119.14 C 4.28 115.16 4.02 110.79 3.19 106.61 C 2.46 101.46 1.26 96.26 1.72 91.04 Z" />
<path fill="#a8a9a4" opacity="1.00" d=" M 43.85 94.28 C 44.60 94.46 46.08 94.83 46.83 95.01 C 46.25 96.59 45.27 97.97 44.25 99.29 C 44.09 97.62 43.96 95.95 43.85 94.28 Z" />
<path fill="#a8a9a4" opacity="1.00" d=" M 125.98 102.83 C 130.13 101.70 134.44 101.16 138.75 101.49 C 138.49 102.61 138.34 103.77 137.86 104.82 C 133.49 111.95 126.50 117.32 118.50 119.76 C 115.70 120.36 112.84 120.67 109.99 120.94 C 109.28 121.01 107.85 121.14 107.14 121.21 C 106.21 122.77 105.29 124.33 104.48 125.96 L 104.20 126.52 C 102.12 129.38 99.07 131.23 96.45 133.53 C 95.37 135.52 95.97 138.00 95.73 140.19 C 97.57 138.54 99.34 136.13 102.16 136.79 L 101.84 137.81 C 101.32 139.55 100.66 141.25 99.96 142.92 C 101.53 142.76 103.10 142.61 104.68 142.46 C 105.02 142.82 105.71 143.55 106.05 143.91 C 105.35 144.50 104.65 145.09 103.95 145.67 C 100.58 147.43 96.93 148.59 93.14 148.93 C 87.64 149.09 82.26 151.95 76.77 150.11 C 77.91 145.24 83.73 145.20 87.38 143.09 C 86.80 141.22 86.21 139.35 85.63 137.48 C 79.84 137.80 73.98 139.06 68.22 137.77 C 63.02 136.80 58.58 133.75 54.08 131.14 C 52.53 129.19 51.00 127.19 49.95 124.92 C 48.69 122.30 49.60 119.37 49.83 116.64 C 52.14 118.98 54.37 121.49 57.21 123.20 C 60.38 124.18 64.05 121.28 63.91 118.00 C 63.80 114.04 63.14 110.13 62.98 106.18 C 64.38 106.16 65.78 106.14 67.18 106.12 C 67.64 109.89 67.55 113.79 68.73 117.43 C 71.17 121.80 75.80 125.36 80.99 125.27 C 86.80 125.36 91.93 122.29 97.19 120.27 C 99.99 119.06 103.01 118.28 105.57 116.59 C 107.63 114.23 108.94 111.31 111.07 109.00 C 113.24 107.68 115.49 106.49 117.80 105.44 C 120.42 104.26 123.20 103.52 125.98 102.83 M 64.33 124.19 C 62.65 124.71 63.03 127.95 65.00 127.25 C 66.72 126.75 66.29 123.44 64.33 124.19 M 69.36 123.92 C 69.27 125.26 69.19 126.60 69.12 127.95 C 70.45 128.00 71.79 128.06 73.13 128.11 C 72.21 126.43 71.08 124.86 69.36 123.92 M 56.17 125.96 C 57.66 128.69 59.08 132.27 62.57 132.80 C 62.96 131.87 63.37 130.95 63.78 130.03 C 61.81 127.77 59.20 126.21 56.17 125.96 M 76.88 132.57 C 79.81 132.56 82.72 132.21 85.59 131.65 C 86.35 130.16 87.12 128.69 87.89 127.21 C 83.87 128.07 78.82 128.25 76.88 132.57 M 65.11 129.45 C 65.20 129.98 65.38 131.04 65.47 131.57 C 68.93 132.82 72.62 133.00 76.26 132.81 C 76.00 132.31 75.49 131.31 75.24 130.80 C 71.87 130.30 68.44 130.22 65.11 129.45 M 88.95 134.92 C 89.30 137.81 90.23 140.59 91.75 143.08 C 92.24 140.32 92.34 137.52 92.12 134.74 C 91.33 134.78 89.75 134.88 88.95 134.92 Z" />
<path fill="#a8a9a4" opacity="1.00" d=" M 45.38 105.90 C 45.80 105.82 46.64 105.66 47.06 105.58 C 47.61 108.13 48.15 110.68 48.78 113.21 C 47.57 110.81 46.31 108.43 45.38 105.90 Z" />
<path fill="#a8a9a4" opacity="1.00" d=" M 53.07 105.69 C 54.38 105.82 55.70 105.93 57.01 106.03 C 59.16 109.34 61.43 112.89 61.54 116.96 C 61.55 119.71 57.75 121.10 55.90 119.10 C 52.63 115.52 52.19 110.27 53.07 105.69 Z" />
<path fill="#a8a9a4" opacity="1.00" d=" M 75.26 107.30 C 78.50 107.66 81.77 107.28 85.02 107.22 C 87.58 109.27 89.55 112.32 88.68 115.74 C 87.53 121.98 78.08 123.43 74.67 118.26 C 71.91 114.99 73.85 110.69 75.26 107.30 Z" />
<path fill="#a8a9a4" opacity="1.00" d=" M 62.62 182.01 C 65.14 178.66 70.11 180.25 73.74 179.29 C 74.16 180.12 74.58 180.96 75.00 181.80 C 70.89 182.31 66.74 182.47 62.62 182.01 Z" />
<path fill="#a8a9a4" opacity="1.00" d=" M 99.74 179.58 C 103.21 179.63 106.67 179.88 110.13 180.13 C 110.46 180.65 111.11 181.68 111.44 182.19 C 107.36 182.69 103.24 182.80 99.14 182.63 C 99.34 181.61 99.54 180.59 99.74 179.58 Z" />
</g>
</svg>
