<?xml version="1.0" encoding="UTF-8" ?>
<!DOCTYPE svg PUBLIC "-//W3C//DTD SVG 1.1//EN" "http://www.w3.org/Graphics/SVG/1.1/DTD/svg11.dtd">
<svg width="155pt" height="210pt" viewBox="0 0 155 210" version="1.1" xmlns="http://www.w3.org/2000/svg">
<g id="#c27a2dff">
<path fill="#c27a2d" opacity="1.00" d=" M 56.47 31.42 C 60.81 27.82 64.59 23.60 69.00 20.07 C 70.58 27.40 68.55 36.53 74.52 42.18 C 77.11 43.90 79.88 45.33 82.60 46.85 C 82.43 43.84 82.35 40.82 82.16 37.82 C 89.09 42.16 91.44 50.43 96.91 56.06 C 104.63 60.68 111.96 66.53 116.53 74.42 C 119.03 79.44 121.34 85.02 120.41 90.74 C 119.69 95.44 117.96 99.89 116.56 104.40 C 119.73 104.54 122.90 104.64 126.07 104.80 C 121.47 104.76 116.85 104.92 112.29 105.61 C 112.26 104.55 112.24 103.49 112.16 102.43 C 107.58 100.64 105.74 106.75 104.92 110.13 C 103.47 114.92 107.18 118.81 109.88 122.26 C 107.96 124.60 105.38 127.09 106.53 130.42 C 106.14 131.99 105.75 133.56 105.36 135.13 C 104.23 132.02 102.15 129.42 99.76 127.18 C 99.99 126.14 100.22 125.10 100.45 124.06 C 98.71 123.93 96.98 123.80 95.24 123.68 C 95.70 121.69 96.17 119.70 96.61 117.70 L 96.77 116.96 C 98.49 110.13 96.11 103.22 95.32 96.43 C 94.45 89.15 91.04 82.60 87.56 76.27 C 80.71 84.72 71.84 91.08 63.90 98.41 C 56.32 97.83 53.31 89.86 47.84 85.79 C 46.70 84.79 45.51 83.84 44.33 82.89 C 45.30 94.43 45.13 106.02 45.75 117.57 C 45.67 118.26 45.52 119.64 45.45 120.33 C 45.27 119.67 44.91 118.34 44.73 117.68 C 41.77 121.66 42.17 126.74 40.98 131.32 C 38.83 127.81 39.15 123.46 39.77 119.56 C 41.32 114.89 42.14 109.99 41.22 105.10 C 41.43 97.41 39.86 89.74 40.71 82.04 C 42.13 72.92 40.33 63.59 42.51 54.55 C 44.38 45.56 49.42 37.29 56.47 31.42 M 57.27 40.30 C 54.91 47.33 52.87 55.30 56.28 62.36 C 59.64 57.58 60.07 51.60 60.93 46.01 C 61.58 41.64 61.82 37.21 61.67 32.80 C 59.84 35.06 58.18 37.51 57.27 40.30 Z" />
<path fill="#c27a2d" opacity="1.00" d=" M 112.09 115.26 C 112.83 115.20 114.32 115.08 115.06 115.02 C 115.32 117.09 115.59 119.16 115.83 121.24 C 115.89 121.71 116.00 122.66 116.05 123.14 C 114.51 122.57 112.11 122.87 111.70 120.81 C 111.76 118.95 111.95 117.11 112.09 115.26 Z" />
<path fill="#c27a2d" opacity="1.00" d=" M 49.80 139.97 C 50.82 137.65 52.01 135.40 53.31 133.23 C 56.13 134.50 59.04 135.55 61.94 136.62 C 58.02 138.17 54.06 139.78 49.80 139.97 Z" />
<path fill="#c27a2d" opacity="1.00" d=" M 70.32 141.16 C 73.86 141.58 77.19 142.95 80.55 144.07 C 81.41 146.71 82.33 149.33 83.25 151.95 C 77.89 152.89 72.41 152.81 67.01 152.32 C 66.82 151.72 66.44 150.51 66.25 149.91 C 66.22 148.06 66.27 146.21 66.35 144.36 C 66.60 145.54 66.83 146.72 67.06 147.91 C 67.98 145.59 68.73 143.13 70.32 141.16 Z" />
</g>
<g id="#c8a36cff">
<path fill="#c8a36c" opacity="1.00" d=" M 57.27 40.30 C 58.18 37.51 59.84 35.06 61.67 32.80 C 61.82 37.21 61.58 41.64 60.93 46.01 C 60.07 51.60 59.64 57.58 56.28 62.36 C 52.87 55.30 54.91 47.33 57.27 40.30 Z" />
<path fill="#c8a36c" opacity="1.00" d=" M 64.94 98.46 C 73.48 94.26 79.00 86.01 87.10 81.15 C 89.03 83.54 91.08 85.94 92.13 88.88 C 92.27 94.35 94.23 100.93 90.72 105.67 C 85.98 107.39 80.43 106.37 75.84 108.96 C 73.85 109.72 71.91 110.58 69.95 111.42 C 71.71 113.49 73.25 115.95 75.74 117.21 C 79.19 118.33 83.04 117.69 86.30 116.24 C 89.37 114.84 90.19 111.24 91.54 108.46 C 93.08 111.01 94.84 113.59 95.34 116.59 C 93.64 119.38 91.16 121.61 88.65 123.65 C 84.06 127.35 77.89 127.44 72.59 129.55 C 69.06 130.64 65.55 133.05 61.71 132.11 C 57.77 131.22 53.91 129.86 49.84 129.68 L 48.96 129.61 C 48.68 129.10 48.11 128.09 47.83 127.58 C 46.70 125.29 46.02 122.81 45.45 120.33 C 45.52 119.64 45.67 118.26 45.75 117.57 C 49.53 110.18 44.72 102.17 46.02 94.40 C 52.41 95.46 58.26 101.14 64.94 98.46 M 48.14 108.62 C 49.02 111.35 49.34 114.48 51.34 116.68 C 53.42 118.85 56.61 117.98 59.26 117.92 C 57.20 117.28 55.03 116.89 53.13 115.84 C 51.43 114.59 52.10 112.19 51.74 110.40 C 54.36 111.24 56.24 113.25 57.95 115.30 C 58.47 113.83 58.99 112.35 59.52 110.87 C 55.78 109.86 51.98 109.09 48.14 108.62 Z" />
<path fill="#c8a36c" opacity="1.00" d=" M 112.29 105.61 C 116.85 104.92 121.47 104.76 126.07 104.80 C 128.82 104.85 131.56 105.06 134.29 105.30 C 133.43 108.05 132.28 110.71 130.97 113.29 C 130.28 113.06 128.89 112.60 128.20 112.37 C 128.77 110.87 129.33 109.37 129.89 107.88 C 124.84 108.02 119.80 108.29 114.79 108.89 C 112.23 109.16 109.68 109.48 107.12 109.66 C 108.58 107.99 110.22 106.48 112.29 105.61 Z" />
<path fill="#c8a36c" opacity="1.00" d=" M 82.22 110.25 C 83.99 110.15 85.75 110.05 87.52 109.98 C 87.09 112.09 87.09 114.95 84.67 115.84 C 81.93 116.70 78.95 116.70 76.15 116.14 C 74.14 115.81 73.52 113.59 72.45 112.16 C 73.91 111.67 75.37 111.20 76.83 110.72 C 78.14 112.17 79.46 113.62 80.82 115.03 C 81.30 113.44 81.76 111.85 82.22 110.25 Z" />
<path fill="#c8a36c" opacity="1.00" d=" M 118.21 119.91 C 118.46 117.60 119.62 115.60 120.85 113.68 C 121.35 116.20 121.64 118.76 121.88 121.32 C 120.64 120.90 119.41 120.43 118.21 119.91 Z" />
<path fill="#c8a36c" opacity="1.00" d=" M 111.97 127.15 C 112.75 127.29 114.31 127.56 115.09 127.70 L 114.91 128.53 C 114.62 129.56 114.61 130.60 114.89 131.64 L 115.08 132.66 C 114.07 133.81 113.05 134.97 112.03 136.12 C 111.94 134.33 111.85 132.55 111.83 130.77 C 111.85 129.56 111.90 128.35 111.97 127.15 Z" />
<path fill="#c8a36c" opacity="1.00" d=" M 116.62 138.97 C 119.15 138.25 121.69 137.53 124.27 137.02 C 123.61 139.45 121.71 141.10 119.12 141.01 C 118.48 141.09 117.19 141.24 116.55 141.31 C 116.57 140.73 116.61 139.56 116.62 138.97 Z" />
<path fill="#c8a36c" opacity="1.00" d=" M 49.83 154.96 C 50.93 150.66 54.83 147.18 59.35 147.08 C 57.81 148.77 56.05 150.24 54.28 151.68 C 55.32 153.61 56.26 155.61 57.59 157.37 C 60.11 156.86 62.44 155.74 64.84 154.83 C 64.72 156.72 65.71 159.46 63.65 160.58 C 61.93 161.44 60.02 161.80 58.18 162.29 C 56.05 160.53 53.89 158.81 51.74 157.08 C 51.08 158.07 50.42 159.06 49.77 160.05 C 49.78 158.35 49.77 156.65 49.83 154.96 Z" />
<path fill="#c8a36c" opacity="1.00" d=" M 62.24 171.30 C 63.57 170.15 64.86 168.96 66.29 167.94 C 68.87 167.91 70.90 169.83 73.03 171.02 C 70.03 172.86 66.84 174.35 63.54 175.57 C 63.21 174.50 62.57 172.37 62.24 171.30 Z" />
</g>
<g id="#392e28ff">
<path fill="#392e28" opacity="1.00" d=" M 78.32 35.08 C 80.17 34.66 82.45 35.63 82.16 37.82 C 82.35 40.82 82.43 43.84 82.60 46.85 C 79.88 45.33 77.11 43.90 74.52 42.18 C 75.79 39.82 76.82 37.32 78.32 35.08 Z" />
<path fill="#392e28" opacity="1.00" d=" M 63.90 98.41 C 71.84 91.08 80.71 84.72 87.56 76.27 C 91.04 82.60 94.45 89.15 95.32 96.43 C 96.11 103.22 98.49 110.13 96.77 116.96 C 94.91 107.64 95.95 97.77 92.13 88.88 C 91.08 85.94 89.03 83.54 87.10 81.15 C 79.00 86.01 73.48 94.26 64.94 98.46 L 63.90 98.41 Z" />
<path fill="#392e28" opacity="1.00" d=" M 44.33 82.89 C 45.51 83.84 46.70 84.79 47.84 85.79 C 47.07 88.62 46.35 91.48 46.02 94.40 C 44.72 102.17 49.53 110.18 45.75 117.57 C 45.13 106.02 45.30 94.43 44.33 82.89 Z" />
<path fill="#392e28" opacity="1.00" d=" M 104.92 110.13 C 105.74 106.75 107.58 100.64 112.16 102.43 C 112.24 103.49 112.26 104.55 112.29 105.61 C 110.22 106.48 108.58 107.99 107.12 109.66 C 109.68 109.48 112.23 109.16 114.79 108.89 C 118.57 108.56 122.38 108.73 126.16 109.03 C 123.95 109.73 121.74 110.41 119.52 111.08 C 119.95 111.78 120.39 112.48 120.76 113.22 L 120.85 113.68 C 119.62 115.60 118.46 117.60 118.21 119.91 C 117.42 120.35 116.62 120.80 115.83 121.24 C 115.59 119.16 115.32 117.09 115.06 115.02 C 114.32 115.08 112.83 115.20 112.09 115.26 C 111.95 117.11 111.76 118.95 111.70 120.81 C 111.25 121.17 110.33 121.90 109.88 122.26 C 107.18 118.81 103.47 114.92 104.92 110.13 Z" />
<path fill="#392e28" opacity="1.00" d=" M 75.84 108.96 C 81.06 108.62 86.31 107.87 91.54 108.46 C 90.19 111.24 89.37 114.84 86.30 116.24 C 83.04 117.69 79.19 118.33 75.74 117.21 C 73.25 115.95 71.71 113.49 69.95 111.42 C 71.91 110.58 73.85 109.72 75.84 108.96 M 82.22 110.25 C 81.76 111.85 81.30 113.44 80.82 115.03 C 79.46 113.62 78.14 112.17 76.83 110.72 C 75.37 111.20 73.91 111.67 72.45 112.16 C 73.52 113.59 74.14 115.81 76.15 116.14 C 78.95 116.70 81.93 116.70 84.67 115.84 C 87.09 114.95 87.09 112.09 87.52 109.98 C 85.75 110.05 83.99 110.15 82.22 110.25 Z" />
<path fill="#392e28" opacity="1.00" d=" M 48.14 108.62 C 51.98 109.09 55.78 109.86 59.52 110.87 C 58.99 112.35 58.47 113.83 57.95 115.30 C 56.24 113.25 54.36 111.24 51.74 110.40 C 52.10 112.19 51.43 114.59 53.13 115.84 C 55.03 116.89 57.20 117.28 59.26 117.92 C 56.61 117.98 53.42 118.85 51.34 116.68 C 49.34 114.48 49.02 111.35 48.14 108.62 Z" />
<path fill="#392e28" opacity="1.00" d=" M 40.98 131.32 C 42.17 126.74 41.77 121.66 44.73 117.68 C 44.91 118.34 45.27 119.67 45.45 120.33 C 46.02 122.81 46.70 125.29 47.83 127.58 C 45.46 128.66 43.18 129.92 40.98 131.32 Z" />
<path fill="#392e28" opacity="1.00" d=" M 90.17 130.11 C 93.56 126.78 94.50 121.83 96.61 117.70 C 96.17 119.70 95.70 121.69 95.24 123.68 C 96.98 123.80 98.71 123.93 100.45 124.06 C 100.22 125.10 99.99 126.14 99.76 127.18 C 102.15 129.42 104.23 132.02 105.36 135.13 C 105.67 135.87 106.29 137.36 106.60 138.10 C 108.22 136.48 109.78 134.74 110.78 132.65 C 111.05 132.18 111.57 131.24 111.83 130.77 C 111.85 132.55 111.94 134.33 112.03 136.12 C 113.05 134.97 114.07 133.81 115.08 132.66 C 115.18 133.05 115.39 133.83 115.49 134.22 C 115.81 135.42 116.15 136.62 116.49 137.83 L 116.64 138.36 L 116.62 138.97 C 116.61 139.56 116.57 140.73 116.55 141.31 C 117.19 141.24 118.48 141.09 119.12 141.01 C 114.06 142.70 108.99 144.52 103.63 144.91 C 103.01 143.62 102.39 142.34 101.77 141.07 C 99.88 141.53 98.00 142.03 96.12 142.49 C 96.24 140.54 96.36 138.58 96.48 136.63 C 93.82 138.64 91.20 140.72 88.65 142.88 C 89.96 143.59 91.27 144.30 92.58 145.02 C 90.91 148.83 88.61 152.59 88.31 156.82 C 89.43 161.39 92.37 165.26 94.05 169.63 C 92.35 171.40 90.66 173.18 88.99 174.99 C 90.43 175.58 91.87 176.18 93.32 176.78 C 93.52 178.26 93.70 179.76 93.87 181.25 C 95.09 180.62 96.23 179.83 97.32 178.99 C 97.95 180.55 98.56 182.12 99.19 183.69 C 101.79 184.46 104.40 185.24 106.99 186.05 C 107.18 186.51 107.55 187.42 107.73 187.88 C 103.65 187.31 99.48 187.18 95.46 188.22 C 99.80 189.85 104.46 189.68 109.01 189.97 C 111.07 190.29 113.02 191.09 115.08 191.43 C 119.24 191.96 123.53 190.98 127.63 192.12 C 129.35 194.60 128.48 197.89 128.78 200.73 C 95.25 200.76 61.72 200.75 28.20 200.74 C 28.62 197.84 27.33 193.97 29.79 191.83 C 35.07 190.55 40.59 192.14 45.91 191.06 C 48.18 190.64 50.37 189.77 52.68 189.54 C 56.42 189.57 60.56 190.15 63.59 187.43 C 60.45 187.28 57.25 187.29 54.19 188.16 C 54.26 187.51 54.40 186.22 54.48 185.57 C 57.39 184.80 60.61 184.62 63.16 182.89 C 63.46 180.46 63.43 178.01 63.54 175.57 C 66.84 174.35 70.03 172.86 73.03 171.02 C 70.90 169.83 68.87 167.91 66.29 167.94 C 64.86 168.96 63.57 170.15 62.24 171.30 C 61.48 171.93 60.68 172.50 59.89 173.09 C 58.92 171.21 57.91 169.35 56.78 167.56 C 60.62 165.84 64.95 164.84 68.19 162.03 C 70.32 158.98 67.87 155.39 67.01 152.32 C 72.41 152.81 77.89 152.89 83.25 151.95 C 85.79 151.35 88.19 150.29 90.55 149.20 C 89.08 148.04 87.62 146.87 86.14 145.73 C 85.83 143.70 85.50 141.67 85.19 139.64 C 83.64 141.11 82.09 142.58 80.55 144.07 C 77.19 142.95 73.86 141.58 70.32 141.16 C 68.73 143.13 67.98 145.59 67.06 147.91 C 66.83 146.72 66.60 145.54 66.35 144.36 C 66.27 146.21 66.22 148.06 66.25 149.91 C 65.11 149.32 63.98 148.74 62.86 148.15 C 62.75 148.57 62.54 149.42 62.44 149.84 C 63.27 151.49 64.12 153.12 64.84 154.83 C 62.44 155.74 60.11 156.86 57.59 157.37 C 56.26 155.61 55.32 153.61 54.28 151.68 C 56.05 150.24 57.81 148.77 59.35 147.08 C 60.24 144.63 59.57 141.96 59.52 139.43 C 62.08 140.51 64.56 141.75 67.00 143.08 C 66.51 141.26 65.97 139.45 65.39 137.65 C 74.26 138.74 83.17 135.41 90.17 130.11 M 71.55 175.41 C 71.77 180.30 71.33 185.81 74.26 189.99 C 79.11 192.46 84.80 191.48 89.80 190.03 C 89.86 187.24 90.38 184.34 89.42 181.65 C 87.92 177.42 85.26 173.76 82.93 169.98 C 78.52 170.27 74.87 172.71 71.55 175.41 M 60.89 192.35 C 72.84 194.14 85.17 194.37 97.10 192.37 C 85.03 192.13 72.96 192.28 60.89 192.35 Z" />
<path fill="#392e28" opacity="1.00" d=" M 114.91 128.53 C 116.78 128.10 116.74 132.03 114.89 131.64 C 114.61 130.60 114.62 129.56 114.91 128.53 Z" />
<path fill="#392e28" opacity="1.00" d=" M 55.78 167.96 C 50.99 165.54 47.86 160.30 49.83 154.96 C 49.77 156.65 49.78 158.35 49.77 160.05 C 50.42 159.06 51.08 158.07 51.74 157.08 C 53.89 158.81 56.05 160.53 58.18 162.29 C 57.35 164.17 56.55 166.06 55.78 167.96 Z" />
</g>
<g id="#aa895cff">
<path fill="#aa895c" opacity="1.00" d=" M 47.84 85.79 C 53.31 89.86 56.32 97.83 63.90 98.41 L 64.94 98.46 C 58.26 101.14 52.41 95.46 46.02 94.40 C 46.35 91.48 47.07 88.62 47.84 85.79 Z" />
<path fill="#aa895c" opacity="1.00" d=" M 92.13 88.88 C 95.95 97.77 94.91 107.64 96.77 116.96 L 96.61 117.70 C 94.50 121.83 93.56 126.78 90.17 130.11 C 83.17 135.41 74.26 138.74 65.39 137.65 C 64.22 137.39 63.06 137.04 61.94 136.62 C 59.04 135.55 56.13 134.50 53.31 133.23 C 51.89 132.34 50.93 130.92 49.84 129.68 C 53.91 129.86 57.77 131.22 61.71 132.11 C 65.55 133.05 69.06 130.64 72.59 129.55 C 77.89 127.44 84.06 127.35 88.65 123.65 C 91.16 121.61 93.64 119.38 95.34 116.59 C 94.84 113.59 93.08 111.01 91.54 108.46 C 86.31 107.87 81.06 108.62 75.84 108.96 C 80.43 106.37 85.98 107.39 90.72 105.67 C 94.23 100.93 92.27 94.35 92.13 88.88 Z" />
<path fill="#aa895c" opacity="1.00" d=" M 27.40 103.76 C 32.05 103.37 36.75 103.69 41.22 105.10 C 42.14 109.99 41.32 114.89 39.77 119.56 C 32.88 117.33 28.57 110.64 27.40 103.76 Z" />
<path fill="#aa895c" opacity="1.00" d=" M 114.79 108.89 C 119.80 108.29 124.84 108.02 129.89 107.88 C 129.33 109.37 128.77 110.87 128.20 112.37 C 128.89 112.60 130.28 113.06 130.97 113.29 C 127.90 115.91 124.30 118.00 121.88 121.32 C 121.64 118.76 121.35 116.20 120.85 113.68 L 120.76 113.22 C 120.39 112.48 119.95 111.78 119.52 111.08 C 121.74 110.41 123.95 109.73 126.16 109.03 C 122.38 108.73 118.57 108.56 114.79 108.89 Z" />
<path fill="#aa895c" opacity="1.00" d=" M 106.74 129.58 C 107.55 129.44 109.17 129.17 109.98 129.03 C 110.18 129.94 110.58 131.75 110.78 132.65 C 109.78 134.74 108.22 136.48 106.60 138.10 C 106.29 137.36 105.67 135.87 105.36 135.13 C 105.75 133.56 106.14 131.99 106.53 130.42 L 106.74 129.58 Z" />
<path fill="#aa895c" opacity="1.00" d=" M 115.49 134.22 C 117.35 133.03 119.20 131.82 121.11 130.72 C 122.71 134.31 118.81 136.02 116.49 137.83 C 116.15 136.62 115.81 135.42 115.49 134.22 Z" />
<path fill="#aa895c" opacity="1.00" d=" M 88.65 142.88 C 91.20 140.72 93.82 138.64 96.48 136.63 C 96.36 138.58 96.24 140.54 96.12 142.49 C 98.00 142.03 99.88 141.53 101.77 141.07 C 102.39 142.34 103.01 143.62 103.63 144.91 C 101.94 146.07 100.30 147.88 98.06 147.73 C 96.08 147.17 94.39 145.95 92.58 145.02 C 91.27 144.30 89.96 143.59 88.65 142.88 Z" />
<path fill="#aa895c" opacity="1.00" d=" M 80.55 144.07 C 82.09 142.58 83.64 141.11 85.19 139.64 C 85.50 141.67 85.83 143.70 86.14 145.73 C 87.62 146.87 89.08 148.04 90.55 149.20 C 88.19 150.29 85.79 151.35 83.25 151.95 C 82.33 149.33 81.41 146.71 80.55 144.07 Z" />
<path fill="#aa895c" opacity="1.00" d=" M 62.86 148.15 C 63.98 148.74 65.11 149.32 66.25 149.91 C 66.44 150.51 66.82 151.72 67.01 152.32 C 67.87 155.39 70.32 158.98 68.19 162.03 C 64.95 164.84 60.62 165.84 56.78 167.56 L 55.78 167.96 C 56.55 166.06 57.35 164.17 58.18 162.29 C 60.02 161.80 61.93 161.44 63.65 160.58 C 65.71 159.46 64.72 156.72 64.84 154.83 C 64.12 153.12 63.27 151.49 62.44 149.84 C 62.54 149.42 62.75 148.57 62.86 148.15 Z" />
<path fill="#aa895c" opacity="1.00" d=" M 88.99 174.99 C 90.66 173.18 92.35 171.40 94.05 169.63 C 95.22 172.71 97.01 175.65 97.32 178.99 C 96.23 179.83 95.09 180.62 93.87 181.25 C 93.70 179.76 93.52 178.26 93.32 176.78 C 91.87 176.18 90.43 175.58 88.99 174.99 Z" />
<path fill="#aa895c" opacity="1.00" d=" M 54.19 188.16 C 57.25 187.29 60.45 187.28 63.59 187.43 C 60.56 190.15 56.42 189.57 52.68 189.54 C 53.05 189.19 53.81 188.50 54.19 188.16 Z" />
<path fill="#aa895c" opacity="1.00" d=" M 95.46 188.22 C 99.48 187.18 103.65 187.31 107.73 187.88 C 108.05 188.40 108.69 189.45 109.01 189.97 C 104.46 189.68 99.80 189.85 95.46 188.22 Z" />
<path fill="#aa895c" opacity="1.00" d=" M 60.89 192.35 C 72.96 192.28 85.03 192.13 97.10 192.37 C 85.17 194.37 72.84 194.14 60.89 192.35 Z" />
</g>
</svg>
