<?xml version="1.0" encoding="UTF-8" ?>
<!DOCTYPE svg PUBLIC "-//W3C//DTD SVG 1.1//EN" "http://www.w3.org/Graphics/SVG/1.1/DTD/svg11.dtd">
<svg width="155pt" height="210pt" viewBox="0 0 155 210" version="1.1" xmlns="http://www.w3.org/2000/svg">
<g id="#b5b1acff">
<path fill="#b5b1ac" opacity="1.00" d=" M 71.55 46.52 C 72.80 45.84 74.16 44.70 75.67 45.36 C 79.55 46.64 82.90 49.06 86.34 51.20 C 81.55 51.75 76.78 50.60 72.00 50.93 C 68.06 51.55 64.38 53.20 60.63 54.49 C 64.00 51.48 67.76 48.96 71.55 46.52 Z" />
<path fill="#b5b1ac" opacity="1.00" d=" M 93.60 57.17 C 94.08 54.14 96.92 52.34 98.95 50.34 C 99.48 50.73 100.55 51.50 101.09 51.89 C 104.89 55.80 107.93 60.35 111.35 64.58 C 115.97 70.36 117.90 77.62 120.64 84.35 C 110.50 81.72 103.90 73.05 97.71 65.25 C 95.99 62.80 93.71 60.30 93.60 57.17 Z" />
<path fill="#b5b1ac" opacity="1.00" d=" M 107.10 52.91 C 110.10 52.95 113.11 52.95 116.11 52.86 C 117.09 57.82 118.67 62.83 118.06 67.94 C 117.99 68.45 117.86 69.49 117.79 70.01 C 114.48 64.15 111.09 58.34 107.10 52.91 Z" />
<path fill="#b5b1ac" opacity="1.00" d=" M 74.35 56.24 C 77.99 55.48 81.66 53.97 85.42 54.53 C 88.63 57.07 90.67 60.73 92.94 64.06 C 94.79 69.06 96.16 74.29 95.88 79.67 C 87.69 72.74 84.58 60.85 74.35 56.24 Z" />
<path fill="#b5b1ac" opacity="1.00" d=" M 45.28 59.23 C 49.21 57.40 53.47 56.10 57.82 55.87 C 59.48 56.33 61.13 56.86 62.78 57.38 C 58.04 58.85 53.67 61.19 49.15 63.18 C 46.94 64.33 44.69 62.77 42.62 62.09 C 43.37 61.03 43.98 59.73 45.28 59.23 Z" />
<path fill="#b5b1ac" opacity="1.00" d=" M 52.79 64.36 C 58.23 61.78 64.10 57.43 70.39 59.79 C 75.70 63.04 78.91 68.70 83.77 72.51 C 85.86 77.03 86.62 82.03 86.18 86.97 C 85.84 86.63 85.17 85.96 84.83 85.62 C 83.73 83.46 82.69 81.28 81.64 79.10 C 80.10 79.99 78.62 81.99 76.62 81.21 C 71.46 79.66 67.40 75.95 63.12 72.85 C 59.45 70.10 55.26 68.17 51.36 65.79 C 51.71 65.43 52.43 64.72 52.79 64.36 Z" />
<path fill="#b5b1ac" opacity="1.00" d=" M 33.98 73.08 C 34.49 69.80 37.69 66.55 41.19 67.14 C 43.62 69.03 46.84 71.17 46.61 74.66 C 46.46 82.28 43.79 89.54 42.33 96.96 C 43.85 97.30 45.37 97.63 46.88 97.97 C 46.36 100.08 46.56 102.80 44.47 104.10 C 42.66 105.68 39.93 106.60 39.33 109.18 C 38.36 112.03 37.96 115.07 36.74 117.84 C 36.07 119.63 33.85 119.69 32.37 120.47 C 32.06 117.99 31.78 115.52 31.53 113.04 C 30.66 115.51 29.97 118.11 28.45 120.28 C 26.59 122.57 23.84 123.86 21.40 125.42 C 20.97 120.16 22.90 115.11 25.94 110.90 C 29.30 106.29 32.23 101.35 34.24 95.99 C 36.22 91.15 36.25 85.84 35.78 80.71 C 34.49 82.97 33.21 85.22 32.05 87.55 C 31.01 82.60 33.29 77.90 33.98 73.08 Z" />
<path fill="#b5b1ac" opacity="1.00" d=" M 103.87 89.10 C 104.49 88.80 105.72 88.19 106.34 87.89 C 107.85 91.61 108.68 96.02 106.75 99.75 C 103.72 101.50 100.17 100.54 97.01 99.79 C 99.62 99.53 102.61 99.16 104.10 96.68 C 106.01 94.78 104.89 92.08 104.15 89.92 L 103.87 89.10 Z" />
<path fill="#b5b1ac" opacity="1.00" d=" M 126.31 117.12 C 127.00 113.28 127.52 109.42 128.20 105.58 C 131.68 110.66 136.27 116.80 134.17 123.29 C 131.89 129.26 128.64 134.84 125.13 140.17 C 124.19 141.84 122.47 142.72 120.80 143.50 L 120.79 142.35 C 120.87 138.34 120.80 134.31 121.55 130.36 C 122.44 125.70 125.45 121.78 126.31 117.12 Z" />
<path fill="#b5b1ac" opacity="1.00" d=" M 42.92 122.67 C 44.43 122.72 45.94 122.79 47.45 122.87 C 48.12 125.26 49.90 127.03 52.04 128.20 C 52.51 128.50 53.46 129.09 53.94 129.39 C 53.57 132.05 54.93 134.47 55.69 136.92 C 56.56 139.46 56.78 142.15 57.23 144.77 C 55.64 144.66 54.05 144.54 52.47 144.43 C 52.25 143.08 52.04 141.73 51.84 140.38 C 51.53 137.37 51.71 134.27 50.86 131.34 C 48.37 128.30 44.87 126.17 42.92 122.67 Z" />
<path fill="#b5b1ac" opacity="1.00" d=" M 45.97 167.18 C 46.65 167.29 48.02 167.51 48.70 167.62 C 51.46 168.11 54.23 168.56 56.99 169.06 C 58.82 170.17 59.89 172.04 60.90 173.87 C 58.24 173.62 55.66 172.85 53.53 171.22 C 52.44 171.87 51.37 172.54 50.28 173.20 C 48.78 171.24 47.31 169.25 45.97 167.18 Z" />
<path fill="#b5b1ac" opacity="1.00" d=" M 49.56 173.65 C 52.29 174.28 55.02 174.91 57.75 175.51 C 57.67 176.50 57.59 177.49 57.50 178.48 C 55.33 178.74 53.15 178.99 50.97 179.26 L 50.17 179.35 C 49.98 177.45 49.77 175.55 49.56 173.65 Z" />
</g>
<g id="#888b8bff">
<path fill="#888b8b" opacity="1.00" d=" M 86.34 51.20 C 90.52 50.68 94.73 50.44 98.95 50.34 C 96.92 52.34 94.08 54.14 93.60 57.17 C 93.71 60.30 95.99 62.80 97.71 65.25 C 103.90 73.05 110.50 81.72 120.64 84.35 C 117.90 77.62 115.97 70.36 111.35 64.58 C 107.93 60.35 104.89 55.80 101.09 51.89 C 106.10 51.89 111.18 51.80 116.11 52.86 C 113.11 52.95 110.10 52.95 107.10 52.91 C 111.09 58.34 114.48 64.15 117.79 70.01 C 117.86 69.49 117.99 68.45 118.06 67.94 C 121.69 70.00 124.68 73.59 124.55 77.98 C 125.03 83.70 121.37 88.49 120.24 93.86 C 121.98 98.32 126.83 101.07 128.20 105.58 C 127.52 109.42 127.00 113.28 126.31 117.12 C 125.45 121.78 122.44 125.70 121.55 130.36 C 120.80 134.31 120.87 138.34 120.79 142.35 C 120.59 141.94 120.20 141.12 120.01 140.71 C 118.65 135.39 119.26 129.64 121.79 124.76 C 123.95 120.76 125.33 116.37 125.18 111.79 C 124.56 113.38 123.94 114.96 123.34 116.55 C 120.89 115.04 118.61 113.28 116.57 111.26 C 116.83 108.14 117.28 105.03 117.42 101.90 C 117.63 98.71 116.23 95.75 115.33 92.77 C 115.01 90.41 114.90 87.98 114.11 85.72 C 111.33 82.83 107.54 81.15 104.71 78.29 C 99.69 73.75 96.51 67.72 92.91 62.10 C 92.92 62.59 92.93 63.57 92.94 64.06 C 90.67 60.73 88.63 57.07 85.42 54.53 C 81.66 53.97 77.99 55.48 74.35 56.24 C 84.58 60.85 87.69 72.74 95.88 79.67 L 95.93 80.79 C 91.23 79.08 87.55 75.65 83.77 72.51 C 78.91 68.70 75.70 63.04 70.39 59.79 C 64.10 57.43 58.23 61.78 52.79 64.36 C 50.31 65.18 47.80 65.93 45.33 66.79 C 47.20 69.23 49.69 71.66 49.58 74.98 C 49.65 82.86 50.03 90.73 51.15 98.53 C 52.18 98.51 53.20 98.49 54.23 98.47 C 55.66 98.45 57.09 98.43 58.52 98.42 C 59.23 94.97 59.51 91.32 61.16 88.15 C 62.88 85.80 65.55 84.34 68.14 83.12 C 70.16 81.76 72.90 83.73 72.89 85.99 C 73.33 90.83 76.33 94.88 77.22 99.60 C 71.73 99.53 65.75 98.78 61.11 102.41 C 57.07 104.71 52.39 103.70 48.25 102.32 C 48.22 105.95 47.88 109.68 45.66 112.70 C 44.28 114.26 45.62 116.14 46.11 117.78 C 46.60 119.46 46.97 121.18 47.45 122.87 C 45.94 122.79 44.43 122.72 42.92 122.67 C 44.87 126.17 48.37 128.30 50.86 131.34 C 51.71 134.27 51.53 137.37 51.84 140.38 C 51.47 140.25 50.74 139.99 50.37 139.87 C 49.15 139.47 47.95 139.03 46.76 138.55 C 44.06 137.39 41.39 136.15 38.66 135.05 C 40.21 137.97 41.86 140.84 43.60 143.65 C 38.08 139.94 32.41 136.02 29.03 130.12 C 27.91 131.30 26.79 132.47 25.65 133.64 C 23.90 131.09 22.54 128.29 21.40 125.42 C 23.84 123.86 26.59 122.57 28.45 120.28 C 29.97 118.11 30.66 115.51 31.53 113.04 C 31.78 115.52 32.06 117.99 32.37 120.47 C 33.85 119.69 36.07 119.63 36.74 117.84 C 37.96 115.07 38.36 112.03 39.33 109.18 C 39.93 106.60 42.66 105.68 44.47 104.10 C 46.56 102.80 46.36 100.08 46.88 97.97 C 45.37 97.63 43.85 97.30 42.33 96.96 C 43.79 89.54 46.46 82.28 46.61 74.66 C 46.84 71.17 43.62 69.03 41.19 67.14 C 41.72 65.47 42.21 63.79 42.62 62.09 C 44.69 62.77 46.94 64.33 49.15 63.18 C 53.67 61.19 58.04 58.85 62.78 57.38 C 61.13 56.86 59.48 56.33 57.82 55.87 C 58.74 55.39 59.66 54.88 60.63 54.49 C 64.38 53.20 68.06 51.55 72.00 50.93 C 76.78 50.60 81.55 51.75 86.34 51.20 Z" />
<path fill="#888b8b" opacity="1.00" d=" M 48.29 69.11 C 49.30 67.99 50.31 66.88 51.36 65.79 C 55.26 68.17 59.45 70.10 63.12 72.85 C 67.40 75.95 71.46 79.66 76.62 81.21 C 78.62 81.99 80.10 79.99 81.64 79.10 C 82.69 81.28 83.73 83.46 84.83 85.62 C 84.71 86.25 84.45 87.52 84.33 88.15 C 84.14 88.98 83.76 90.62 83.57 91.44 C 81.38 90.42 79.20 89.27 77.55 87.47 C 72.53 82.25 67.27 76.76 60.34 74.18 C 56.23 72.72 52.14 71.18 48.29 69.11 Z" />
<path fill="#888b8b" opacity="1.00" d=" M 32.05 87.55 C 33.21 85.22 34.49 82.97 35.78 80.71 C 36.25 85.84 36.22 91.15 34.24 95.99 C 33.40 93.22 32.06 90.50 32.05 87.55 Z" />
<path fill="#888b8b" opacity="1.00" d=" M 103.94 89.05 L 104.15 89.92 C 104.89 92.08 106.01 94.78 104.10 96.68 C 102.61 99.16 99.62 99.53 97.01 99.79 C 97.26 99.23 97.75 98.12 98.00 97.57 L 98.57 97.37 C 100.29 96.69 102.41 96.25 103.39 94.51 C 103.64 93.11 103.70 91.68 103.82 90.26 L 103.94 89.05 Z" />
<path fill="#888b8b" opacity="1.00" d=" M 55.57 106.14 C 58.22 107.15 60.95 107.95 63.75 108.41 C 64.74 110.59 65.01 113.48 67.28 114.78 C 72.00 117.55 77.42 119.41 82.95 119.18 C 89.58 118.94 96.33 119.37 102.81 117.68 C 101.92 120.95 101.15 124.25 100.43 127.56 C 91.55 125.82 82.57 127.04 73.63 127.04 C 71.08 126.86 68.54 126.52 65.98 126.36 L 65.68 127.07 C 64.95 129.29 64.45 131.57 63.94 133.84 C 62.80 138.83 61.73 143.84 61.06 148.92 C 60.93 149.75 60.68 151.41 60.55 152.24 C 59.30 149.82 58.06 147.37 57.23 144.77 C 56.78 142.15 56.56 139.46 55.69 136.92 C 54.93 134.47 53.57 132.05 53.94 129.39 C 56.02 121.81 55.35 113.91 55.57 106.14 Z" />
<path fill="#888b8b" opacity="1.00" d=" M 56.99 169.06 C 58.08 167.94 59.17 166.84 60.27 165.73 C 62.10 170.23 61.15 175.11 59.83 179.60 C 58.23 180.16 56.63 180.72 55.03 181.28 C 53.40 181.29 52.20 180.14 50.97 179.26 C 53.15 178.99 55.33 178.74 57.50 178.48 C 57.59 177.49 57.67 176.50 57.75 175.51 C 55.02 174.91 52.29 174.28 49.56 173.65 L 50.28 173.20 C 51.37 172.54 52.44 171.87 53.53 171.22 C 55.66 172.85 58.24 173.62 60.90 173.87 C 59.89 172.04 58.82 170.17 56.99 169.06 Z" />
<path fill="#888b8b" opacity="1.00" d=" M 107.24 168.92 C 113.54 169.37 115.32 177.35 113.78 182.44 C 110.51 179.93 107.63 176.97 104.98 173.83 C 105.80 172.23 106.51 170.57 107.24 168.92 Z" />
</g>
<g id="#22201bff">
<path fill="#22201b" opacity="1.00" d=" M 92.91 62.10 C 96.51 67.72 99.69 73.75 104.71 78.29 C 107.54 81.15 111.33 82.83 114.11 85.72 C 114.90 87.98 115.01 90.41 115.33 92.77 C 114.53 95.90 113.10 99.06 113.57 102.37 C 114.12 105.47 115.47 108.34 116.57 111.26 C 115.22 115.51 113.52 119.64 111.76 123.74 C 109.88 123.33 108.00 122.92 106.12 122.51 C 107.59 117.92 109.76 113.60 111.28 109.03 C 113.01 104.93 108.92 101.14 110.09 97.00 C 111.02 92.92 111.57 88.74 111.17 84.54 C 106.34 84.42 102.32 87.15 98.54 89.78 C 98.28 87.90 98.02 86.01 97.77 84.13 C 94.81 83.23 91.84 82.40 88.86 81.61 C 87.85 84.32 86.87 87.04 85.92 89.78 C 85.39 89.23 84.86 88.69 84.33 88.15 C 84.45 87.52 84.71 86.25 84.83 85.62 C 85.17 85.96 85.84 86.63 86.18 86.97 C 86.62 82.03 85.86 77.03 83.77 72.51 C 87.55 75.65 91.23 79.08 95.93 80.79 L 95.88 79.67 C 96.16 74.29 94.79 69.06 92.94 64.06 C 92.93 63.57 92.92 62.59 92.91 62.10 Z" />
<path fill="#22201b" opacity="1.00" d=" M 45.33 66.79 C 47.80 65.93 50.31 65.18 52.79 64.36 C 52.43 64.72 51.71 65.43 51.36 65.79 C 50.31 66.88 49.30 67.99 48.29 69.11 C 52.14 71.18 56.23 72.72 60.34 74.18 C 57.96 74.14 55.59 74.27 53.22 74.37 C 52.39 77.16 51.64 79.97 50.99 82.80 C 53.32 82.42 55.65 82.01 57.97 81.54 C 56.44 83.51 54.39 85.40 54.15 88.03 C 53.76 91.50 54.08 95.00 54.23 98.47 C 53.20 98.49 52.18 98.51 51.15 98.53 C 50.03 90.73 49.65 82.86 49.58 74.98 C 49.69 71.66 47.20 69.23 45.33 66.79 Z" />
<path fill="#22201b" opacity="1.00" d=" M 98.57 97.37 C 99.25 94.32 100.99 91.70 103.82 90.26 C 103.70 91.68 103.64 93.11 103.39 94.51 C 102.41 96.25 100.29 96.69 98.57 97.37 Z" />
<path fill="#22201b" opacity="1.00" d=" M 82.26 102.44 C 88.22 101.04 94.55 101.13 100.38 103.09 C 99.01 107.33 95.24 110.49 90.97 111.50 C 86.57 110.51 82.63 107.63 80.05 103.96 C 80.53 103.10 81.27 102.59 82.26 102.44 Z" />
<path fill="#22201b" opacity="1.00" d=" M 48.25 102.32 C 52.39 103.70 57.07 104.71 61.11 102.41 C 62.09 104.36 63.00 106.35 63.75 108.41 C 60.95 107.95 58.22 107.15 55.57 106.14 C 55.35 113.91 56.02 121.81 53.94 129.39 C 53.46 129.09 52.51 128.50 52.04 128.20 C 51.46 124.05 49.43 120.35 46.11 117.78 C 45.62 116.14 44.28 114.26 45.66 112.70 C 47.88 109.68 48.22 105.95 48.25 102.32 Z" />
<path fill="#22201b" opacity="1.00" d=" M 65.98 126.36 C 68.54 126.52 71.08 126.86 73.63 127.04 C 74.94 131.07 76.38 135.07 77.79 139.08 C 76.20 139.70 74.62 140.32 73.04 140.95 C 72.14 143.72 71.53 147.03 68.88 148.71 C 66.41 149.75 63.64 149.00 61.06 148.92 C 61.73 143.84 62.80 138.83 63.94 133.84 C 65.31 134.13 66.68 134.42 68.05 134.71 C 68.78 133.31 69.52 131.90 70.26 130.50 C 68.95 130.03 67.64 129.56 66.32 129.09 C 66.16 128.58 65.84 127.58 65.68 127.07 L 65.98 126.36 Z" />
<path fill="#22201b" opacity="1.00" d=" M 89.88 138.28 C 90.75 138.19 91.61 138.09 92.48 137.98 C 93.05 139.24 93.54 140.56 94.31 141.72 C 100.84 144.35 107.81 146.50 114.92 144.98 C 113.87 146.93 112.84 148.88 111.81 150.84 C 113.17 152.64 114.53 154.44 115.88 156.24 L 116.32 156.83 C 113.92 157.03 111.51 157.50 109.09 157.32 C 105.71 156.12 102.78 153.46 98.98 153.70 C 96.06 153.80 93.28 153.00 90.94 151.25 C 90.20 154.20 89.83 157.45 91.79 160.03 C 92.92 162.25 93.84 164.56 94.74 166.88 C 92.91 166.11 91.16 165.07 89.19 164.68 C 87.62 164.97 86.16 165.66 84.67 166.22 C 86.69 168.64 88.98 170.82 91.41 172.83 C 92.29 171.49 93.16 170.15 94.04 168.82 C 94.19 171.95 94.33 175.09 94.48 178.22 C 98.47 178.30 102.35 176.93 104.98 173.83 C 107.63 176.97 110.51 179.93 113.78 182.44 C 113.25 183.55 112.71 184.67 112.18 185.79 C 114.61 186.42 118.01 185.95 119.45 188.45 C 119.79 190.50 119.72 192.59 119.78 194.66 C 91.92 194.63 64.05 194.60 36.19 194.67 C 36.58 192.14 35.20 188.42 37.93 186.90 C 41.46 185.88 45.22 186.00 48.85 185.57 C 52.73 185.50 56.48 186.56 60.22 187.42 C 60.28 184.81 60.16 182.19 59.83 179.60 C 61.15 175.11 62.10 170.23 60.27 165.73 L 60.08 165.07 C 61.10 162.80 62.13 160.54 62.92 158.18 C 63.81 158.30 64.71 158.43 65.60 158.55 C 65.51 157.16 65.41 155.76 65.31 154.37 C 68.16 154.19 71.44 154.71 73.82 152.80 C 76.16 150.40 77.42 147.21 79.11 144.36 C 79.03 147.71 78.96 151.07 78.99 154.42 C 81.56 155.17 84.12 155.95 86.65 156.80 C 86.15 154.51 86.11 152.14 86.86 149.89 C 87.79 152.00 88.68 154.14 89.55 156.28 C 90.77 150.38 93.09 144.00 89.88 138.28 M 72.33 158.10 C 68.66 159.99 70.55 165.31 74.14 165.76 C 77.35 166.01 79.06 161.33 76.76 159.26 C 75.66 158.02 73.87 157.87 72.33 158.10 M 71.21 176.27 C 71.81 179.45 72.49 182.62 73.22 185.77 C 76.48 185.89 79.74 185.94 83.00 185.91 C 81.58 184.06 80.14 182.23 78.69 180.39 C 77.45 180.77 76.21 181.16 74.97 181.54 C 74.58 179.33 74.20 177.11 73.80 174.90 C 72.94 175.36 72.07 175.81 71.21 176.27 M 89.22 178.98 C 88.73 181.10 88.28 183.24 87.87 185.39 C 92.64 185.32 97.72 187.59 102.13 184.81 C 98.79 181.23 93.96 179.60 89.22 178.98 Z" />
</g>
<g id="#5e4c38ff">
<path fill="#5e4c38" opacity="1.00" d=" M 53.22 74.37 C 55.59 74.27 57.96 74.14 60.34 74.18 C 67.27 76.76 72.53 82.25 77.55 87.47 C 79.20 89.27 81.38 90.42 83.57 91.44 C 83.76 90.62 84.14 88.98 84.33 88.15 C 84.86 88.69 85.39 89.23 85.92 89.78 C 86.87 87.04 87.85 84.32 88.86 81.61 C 91.84 82.40 94.81 83.23 97.77 84.13 C 98.02 86.01 98.28 87.90 98.54 89.78 C 102.32 87.15 106.34 84.42 111.17 84.54 C 111.57 88.74 111.02 92.92 110.09 97.00 C 108.92 101.14 113.01 104.93 111.28 109.03 C 109.76 113.60 107.59 117.92 106.12 122.51 C 108.00 122.92 109.88 123.33 111.76 123.74 C 113.52 119.64 115.22 115.51 116.57 111.26 C 118.61 113.28 120.89 115.04 123.34 116.55 C 123.94 114.96 124.56 113.38 125.18 111.79 C 125.33 116.37 123.95 120.76 121.79 124.76 C 119.26 129.64 118.65 135.39 120.01 140.71 C 117.76 137.02 113.95 134.99 110.12 133.32 C 108.69 135.10 107.25 136.87 105.77 138.61 C 104.73 136.36 103.75 134.07 102.77 131.79 C 99.56 134.14 96.71 137.64 92.48 137.98 C 91.61 138.09 90.75 138.19 89.88 138.28 C 93.09 144.00 90.77 150.38 89.55 156.28 C 88.68 154.14 87.79 152.00 86.86 149.89 C 86.11 152.14 86.15 154.51 86.65 156.80 C 84.12 155.95 81.56 155.17 78.99 154.42 C 78.96 151.07 79.03 147.71 79.11 144.36 C 77.42 147.21 76.16 150.40 73.82 152.80 C 71.44 154.71 68.16 154.19 65.31 154.37 C 65.41 155.76 65.51 157.16 65.60 158.55 C 64.71 158.43 63.81 158.30 62.92 158.18 C 63.58 155.82 64.14 153.43 64.76 151.06 C 63.36 151.45 61.95 151.85 60.55 152.24 C 60.68 151.41 60.93 149.75 61.06 148.92 C 63.64 149.00 66.41 149.75 68.88 148.71 C 71.53 147.03 72.14 143.72 73.04 140.95 C 74.62 140.32 76.20 139.70 77.79 139.08 C 76.38 135.07 74.94 131.07 73.63 127.04 C 82.57 127.04 91.55 125.82 100.43 127.56 C 101.15 124.25 101.92 120.95 102.81 117.68 C 96.33 119.37 89.58 118.94 82.95 119.18 C 77.42 119.41 72.00 117.55 67.28 114.78 C 65.01 113.48 64.74 110.59 63.75 108.41 C 63.00 106.35 62.09 104.36 61.11 102.41 C 65.75 98.78 71.73 99.53 77.22 99.60 C 76.33 94.88 73.33 90.83 72.89 85.99 C 72.90 83.73 70.16 81.76 68.14 83.12 C 65.55 84.34 62.88 85.80 61.16 88.15 C 59.51 91.32 59.23 94.97 58.52 98.42 C 57.09 98.43 55.66 98.45 54.23 98.47 C 54.08 95.00 53.76 91.50 54.15 88.03 C 54.39 85.40 56.44 83.51 57.97 81.54 C 55.65 82.01 53.32 82.42 50.99 82.80 C 51.64 79.97 52.39 77.16 53.22 74.37 M 103.87 89.10 L 104.15 89.92 L 103.94 89.05 L 103.82 90.26 C 100.99 91.70 99.25 94.32 98.57 97.37 L 98.00 97.57 C 97.75 98.12 97.26 99.23 97.01 99.79 C 100.17 100.54 103.72 101.50 106.75 99.75 C 108.68 96.02 107.85 91.61 106.34 87.89 C 105.72 88.19 104.49 88.80 103.87 89.10 M 82.26 102.44 C 81.27 102.59 80.53 103.10 80.05 103.96 C 82.63 107.63 86.57 110.51 90.97 111.50 C 95.24 110.49 99.01 107.33 100.38 103.09 C 94.55 101.13 88.22 101.04 82.26 102.44 Z" />
<path fill="#5e4c38" opacity="1.00" d=" M 115.33 92.77 C 116.23 95.75 117.63 98.71 117.42 101.90 C 117.28 105.03 116.83 108.14 116.57 111.26 C 115.47 108.34 114.12 105.47 113.57 102.37 C 113.10 99.06 114.53 95.90 115.33 92.77 Z" />
<path fill="#5e4c38" opacity="1.00" d=" M 46.11 117.78 C 49.43 120.35 51.46 124.05 52.04 128.20 C 49.90 127.03 48.12 125.26 47.45 122.87 C 46.97 121.18 46.60 119.46 46.11 117.78 Z" />
<path fill="#5e4c38" opacity="1.00" d=" M 63.94 133.84 C 64.45 131.57 64.95 129.29 65.68 127.07 C 65.84 127.58 66.16 128.58 66.32 129.09 C 67.64 129.56 68.95 130.03 70.26 130.50 C 69.52 131.90 68.78 133.31 68.05 134.71 C 66.68 134.42 65.31 134.13 63.94 133.84 Z" />
<path fill="#5e4c38" opacity="1.00" d=" M 38.66 135.05 C 41.39 136.15 44.06 137.39 46.76 138.55 C 45.86 140.49 44.99 142.44 44.04 144.36 L 43.60 143.65 C 41.86 140.84 40.21 137.97 38.66 135.05 Z" />
<path fill="#5e4c38" opacity="1.00" d=" M 50.37 139.87 C 50.74 139.99 51.47 140.25 51.84 140.38 C 52.04 141.73 52.25 143.08 52.47 144.43 C 54.05 144.54 55.64 144.66 57.23 144.77 C 58.06 147.37 59.30 149.82 60.55 152.24 C 59.93 156.46 58.73 160.86 60.08 165.07 L 60.27 165.73 C 59.17 166.84 58.08 167.94 56.99 169.06 C 54.23 168.56 51.46 168.11 48.70 167.62 C 49.05 165.45 49.65 163.27 49.49 161.06 C 48.52 157.62 45.16 154.96 45.29 151.23 C 46.86 147.33 51.41 144.64 50.37 139.87 Z" />
<path fill="#5e4c38" opacity="1.00" d=" M 114.92 144.98 C 116.72 145.93 118.75 146.62 120.17 148.15 C 120.19 151.37 117.61 153.78 115.88 156.24 C 114.53 154.44 113.17 152.64 111.81 150.84 C 112.84 148.88 113.87 146.93 114.92 144.98 Z" />
<path fill="#5e4c38" opacity="1.00" d=" M 72.33 158.10 C 73.87 157.87 75.66 158.02 76.76 159.26 C 79.06 161.33 77.35 166.01 74.14 165.76 C 70.55 165.31 68.66 159.99 72.33 158.10 Z" />
<path fill="#5e4c38" opacity="1.00" d=" M 91.79 160.03 C 96.58 160.80 100.85 163.22 104.62 166.18 C 104.45 167.42 104.29 168.65 104.13 169.89 C 105.16 169.57 106.20 169.24 107.24 168.92 C 106.51 170.57 105.80 172.23 104.98 173.83 C 102.35 176.93 98.47 178.30 94.48 178.22 C 94.33 175.09 94.19 171.95 94.04 168.82 C 93.16 170.15 92.29 171.49 91.41 172.83 C 88.98 170.82 86.69 168.64 84.67 166.22 C 86.16 165.66 87.62 164.97 89.19 164.68 C 91.16 165.07 92.91 166.11 94.74 166.88 C 93.84 164.56 92.92 162.25 91.79 160.03 Z" />
<path fill="#5e4c38" opacity="1.00" d=" M 89.22 178.98 C 93.96 179.60 98.79 181.23 102.13 184.81 C 97.72 187.59 92.64 185.32 87.87 185.39 C 88.28 183.24 88.73 181.10 89.22 178.98 Z" />
<path fill="#5e4c38" opacity="1.00" d=" M 55.03 181.28 C 56.63 180.72 58.23 180.16 59.83 179.60 C 60.16 182.19 60.28 184.81 60.22 187.42 C 56.48 186.56 52.73 185.50 48.85 185.57 C 50.64 183.80 52.65 182.19 55.03 181.28 Z" />
</g>
</svg>
