<?xml version="1.0" encoding="UTF-8" ?>
<!DOCTYPE svg PUBLIC "-//W3C//DTD SVG 1.1//EN" "http://www.w3.org/Graphics/SVG/1.1/DTD/svg11.dtd">
<svg width="155pt" height="210pt" viewBox="0 0 155 210" version="1.1" xmlns="http://www.w3.org/2000/svg">
<g id="#cecbbcff">
<path fill="#cecbbc" opacity="1.00" d=" M 58.93 48.10 C 64.84 41.94 71.69 36.81 78.03 31.11 C 80.43 34.86 81.51 39.22 83.55 43.15 C 85.06 41.10 86.68 39.11 88.69 37.52 C 90.28 40.00 91.79 42.55 93.30 45.08 C 102.81 42.39 112.80 37.14 122.82 40.54 C 118.44 44.36 114.26 48.90 113.54 54.94 C 115.92 54.82 119.87 51.66 121.05 55.12 C 121.60 60.21 120.87 65.35 121.33 70.46 C 126.81 71.49 132.51 71.73 137.71 73.91 C 137.08 74.45 135.82 75.52 135.19 76.05 C 134.78 76.37 133.96 77.01 133.56 77.33 C 136.28 77.70 139.01 78.21 141.62 79.11 C 136.23 83.76 130.48 88.77 128.18 95.73 C 128.80 96.94 129.59 98.06 130.32 99.21 C 128.66 100.99 126.91 102.70 125.06 104.29 C 121.25 103.78 117.39 103.72 113.56 104.09 C 108.60 95.79 105.28 86.48 98.79 79.16 C 97.80 81.06 96.81 82.96 95.81 84.86 C 93.92 84.20 92.03 83.54 90.15 82.88 C 90.80 80.50 91.54 78.16 92.34 75.83 C 89.32 73.27 86.20 70.84 83.16 68.31 C 80.15 65.73 77.00 62.92 72.87 62.51 C 70.37 63.43 67.92 64.50 65.60 65.81 C 63.91 63.85 61.98 62.14 59.86 60.67 C 60.47 63.20 61.17 65.70 61.94 68.18 C 57.50 71.56 51.93 74.01 49.07 79.04 C 45.42 86.82 44.42 95.59 44.90 104.10 C 42.84 103.83 40.77 103.55 38.69 103.41 C 39.88 100.32 41.47 97.42 43.05 94.53 C 39.22 93.43 33.77 93.16 32.15 88.81 C 31.43 83.02 35.62 78.40 39.87 75.14 C 38.86 67.74 35.56 61.03 33.73 53.85 C 35.38 53.07 37.05 51.89 38.98 52.38 C 43.80 53.15 47.97 55.89 52.36 57.85 C 50.92 53.89 48.65 50.25 47.75 46.10 C 51.56 46.22 55.27 47.09 58.93 48.10 M 47.26 61.88 C 49.29 65.05 51.49 68.12 53.95 70.98 C 53.67 69.32 53.53 67.61 52.94 66.02 C 51.57 64.05 49.24 63.10 47.26 61.88 M 92.87 73.96 C 96.50 72.43 100.05 70.63 103.13 68.14 C 98.83 68.05 95.02 70.28 92.87 73.96 Z" />
<path fill="#cecbbc" opacity="1.00" d=" M 68.79 70.16 C 70.15 70.21 71.51 70.29 72.86 70.40 C 75.86 71.90 78.59 73.93 80.94 76.32 C 82.13 77.94 83.19 79.65 84.27 81.34 C 82.55 81.30 80.82 81.27 79.09 81.23 C 78.99 82.94 78.91 84.64 78.77 86.35 C 78.10 86.49 76.75 86.76 76.08 86.90 C 69.89 87.88 63.53 87.62 57.49 85.94 C 63.68 85.60 69.89 85.97 76.07 85.42 C 77.39 82.81 79.25 80.53 81.65 78.83 C 78.97 75.87 75.77 73.40 72.09 71.82 C 70.98 71.28 69.88 70.73 68.79 70.16 Z" />
<path fill="#cecbbc" opacity="1.00" d=" M 66.85 74.57 C 67.40 74.81 68.51 75.29 69.07 75.53 C 68.92 76.56 68.77 77.59 68.62 78.62 C 68.07 78.73 66.95 78.95 66.39 79.06 C 66.55 77.56 66.70 76.07 66.85 74.57 Z" />
<path fill="#cecbbc" opacity="1.00" d=" M 64.92 80.12 C 65.29 80.17 66.03 80.27 66.40 80.32 C 66.42 81.63 66.44 82.94 66.47 84.25 C 65.77 83.96 64.37 83.38 63.66 83.09 C 64.08 82.10 64.50 81.11 64.92 80.12 Z" />
<path fill="#cecbbc" opacity="1.00" d=" M 99.25 117.89 C 99.72 112.16 98.42 106.21 100.46 100.67 C 103.50 102.40 105.63 105.25 106.98 108.43 C 108.15 111.41 109.10 114.47 110.16 117.49 C 115.51 116.48 120.43 113.87 124.47 110.26 C 126.08 116.51 127.97 122.94 126.81 129.45 C 122.54 128.90 119.31 125.87 115.62 123.96 C 114.68 127.06 113.78 130.18 112.90 133.30 C 112.48 129.21 110.63 125.49 108.17 122.26 C 107.42 124.82 106.95 127.50 105.77 129.92 C 104.66 131.44 102.68 131.91 101.01 132.58 C 99.66 132.93 98.29 133.22 96.91 133.43 C 97.19 132.21 97.52 130.99 97.88 129.79 C 99.40 127.58 100.92 125.37 102.43 123.15 C 100.68 124.07 98.94 124.99 97.21 125.94 C 97.99 123.28 98.77 120.62 99.25 117.89 Z" />
<path fill="#cecbbc" opacity="1.00" d=" M 46.24 106.46 C 46.91 105.18 47.63 103.94 48.31 102.67 C 48.73 109.05 47.48 115.35 46.35 121.59 C 45.94 124.10 44.64 126.32 43.34 128.45 C 44.60 129.61 45.85 130.77 47.10 131.95 C 46.10 132.21 45.10 132.46 44.09 132.69 C 43.38 132.81 41.96 133.04 41.25 133.16 C 39.48 126.99 39.88 120.49 38.93 114.19 C 40.30 114.53 41.67 114.87 43.04 115.21 C 44.07 112.28 44.99 109.31 46.24 106.46 Z" />
<path fill="#cecbbc" opacity="1.00" d=" M 51.91 103.94 C 55.91 105.95 59.54 108.70 62.31 112.25 C 59.00 112.35 55.40 112.40 52.54 110.45 C 51.44 108.46 51.96 106.10 51.91 103.94 Z" />
<path fill="#cecbbc" opacity="1.00" d=" M 70.48 132.34 C 72.42 130.98 74.87 130.83 77.13 130.41 C 76.45 133.62 74.77 136.49 72.60 138.92 C 71.68 139.68 70.73 140.40 69.79 141.12 C 69.57 139.77 69.28 138.43 69.01 137.09 C 69.34 135.48 69.48 133.71 70.48 132.34 Z" />
<path fill="#cecbbc" opacity="1.00" d=" M 84.36 141.57 C 88.22 140.36 92.64 139.45 94.48 135.35 C 94.97 135.69 95.97 136.37 96.46 136.70 C 96.50 138.94 96.31 141.17 96.11 143.40 C 95.06 144.35 94.02 145.30 92.99 146.26 C 93.60 146.74 94.22 147.21 94.85 147.67 C 95.83 148.31 96.82 148.93 97.83 149.52 C 96.29 152.32 94.97 155.43 92.44 157.49 C 87.71 159.98 83.84 155.12 79.34 154.53 C 78.40 154.49 77.46 154.46 76.53 154.45 C 75.93 153.33 75.35 152.21 74.76 151.09 C 76.09 150.99 77.43 150.91 78.76 150.86 C 79.12 149.62 79.48 148.38 79.88 147.15 C 80.75 144.92 81.74 142.20 84.36 141.57 Z" />
<path fill="#cecbbc" opacity="1.00" d=" M 66.52 149.97 C 67.34 149.23 68.19 148.51 69.04 147.79 C 72.08 147.96 75.12 148.10 78.16 148.17 C 75.48 149.26 72.34 150.08 70.82 152.80 C 70.32 153.57 69.84 154.35 69.38 155.15 C 67.08 155.84 64.80 156.57 62.54 157.38 L 61.61 157.71 C 62.75 154.86 64.13 151.99 66.52 149.97 Z" />
<path fill="#cecbbc" opacity="1.00" d=" M 72.31 171.59 C 72.73 171.78 73.59 172.18 74.01 172.37 C 69.41 174.74 64.20 174.15 59.24 173.76 C 60.48 173.10 61.70 172.26 63.16 172.26 C 66.21 171.99 69.26 171.83 72.31 171.59 Z" />
</g>
<g id="#9d8366ff">
<path fill="#9d8366" opacity="1.00" d=" M 59.86 60.67 C 61.98 62.14 63.91 63.85 65.60 65.81 C 64.36 66.56 63.14 67.37 61.94 68.18 C 61.17 65.70 60.47 63.20 59.86 60.67 Z" />
<path fill="#9d8366" opacity="1.00" d=" M 47.26 61.88 C 49.24 63.10 51.57 64.05 52.94 66.02 C 53.53 67.61 53.67 69.32 53.95 70.98 C 51.49 68.12 49.29 65.05 47.26 61.88 Z" />
<path fill="#9d8366" opacity="1.00" d=" M 72.87 62.51 C 77.00 62.92 80.15 65.73 83.16 68.31 C 83.40 71.21 84.19 74.81 80.94 76.32 C 78.59 73.93 75.86 71.90 72.86 70.40 C 72.80 67.77 72.80 65.14 72.87 62.51 Z" />
<path fill="#9d8366" opacity="1.00" d=" M 92.87 73.96 C 95.02 70.28 98.83 68.05 103.13 68.14 C 100.05 70.63 96.50 72.43 92.87 73.96 Z" />
<path fill="#9d8366" opacity="1.00" d=" M 62.40 78.38 C 63.00 76.35 65.29 75.68 66.85 74.57 C 66.70 76.07 66.55 77.56 66.39 79.06 C 66.95 78.95 68.07 78.73 68.62 78.62 C 68.77 77.59 68.92 76.56 69.07 75.53 C 71.29 76.07 73.57 76.17 75.85 76.05 C 76.28 76.56 77.15 77.59 77.58 78.11 C 73.88 80.17 70.08 82.04 66.47 84.25 C 66.44 82.94 66.42 81.63 66.40 80.32 C 66.03 80.27 65.29 80.17 64.92 80.12 C 64.50 81.11 64.08 82.10 63.66 83.09 C 63.06 81.60 61.86 80.08 62.40 78.38 Z" />
<path fill="#9d8366" opacity="1.00" d=" M 51.51 94.44 C 55.20 91.34 60.38 91.45 64.94 91.22 C 71.67 91.22 78.49 90.60 85.14 91.92 C 91.11 93.05 95.40 97.69 100.46 100.67 C 98.42 106.21 99.72 112.16 99.25 117.89 C 96.55 120.63 94.05 123.60 91.08 126.06 C 87.18 129.27 81.90 129.54 77.13 130.41 C 74.87 130.83 72.42 130.98 70.48 132.34 C 69.48 133.71 69.34 135.48 69.01 137.09 C 68.67 135.65 68.29 134.21 67.92 132.78 C 69.58 130.88 70.97 128.78 72.37 126.68 C 76.40 126.63 80.34 125.59 84.11 124.23 C 77.77 123.82 71.41 124.44 65.06 124.08 C 63.49 123.99 61.93 124.25 60.44 124.74 C 58.65 122.93 56.60 121.40 54.55 119.90 C 56.03 122.19 57.65 124.41 59.09 126.73 C 60.60 129.72 62.58 132.46 65.32 134.45 C 65.07 135.59 64.83 136.75 64.61 137.90 C 63.36 137.66 62.12 137.43 60.88 137.20 L 60.05 137.05 C 59.91 139.64 59.78 142.22 59.65 144.81 C 56.44 144.67 53.23 144.57 50.04 144.22 C 48.20 140.31 46.75 136.17 44.09 132.69 C 45.10 132.46 46.10 132.21 47.10 131.95 C 45.85 130.77 44.60 129.61 43.34 128.45 C 44.64 126.32 45.94 124.10 46.35 121.59 C 47.48 115.35 48.73 109.05 48.31 102.67 C 49.19 99.87 49.67 96.80 51.51 94.44 M 50.20 102.27 C 50.00 106.34 50.34 110.45 51.70 114.32 C 56.04 113.35 60.51 113.77 64.91 113.46 C 64.44 112.23 64.20 110.82 63.17 109.90 C 59.75 106.64 55.87 103.90 52.06 101.13 C 51.59 101.41 50.66 101.98 50.20 102.27 M 87.60 102.27 C 87.24 103.65 86.91 105.05 86.38 106.39 C 82.30 108.04 77.92 108.93 74.05 111.12 C 74.42 112.07 74.79 113.03 75.16 113.98 C 81.02 113.44 86.94 113.02 92.72 111.91 C 93.44 110.80 94.01 109.61 94.61 108.43 C 91.88 106.87 89.43 104.84 87.60 102.27 M 48.59 127.73 C 48.51 130.71 48.38 133.81 49.87 136.51 C 49.77 137.68 49.71 138.86 49.70 140.04 C 50.83 139.75 51.96 139.46 53.09 139.17 C 53.90 139.82 54.71 140.48 55.53 141.14 C 55.46 140.61 55.32 139.56 55.25 139.03 C 55.84 139.05 57.01 139.10 57.60 139.12 C 57.73 137.84 57.84 136.55 57.96 135.26 C 57.23 134.88 55.78 134.12 55.06 133.74 L 55.09 133.04 C 54.00 132.32 52.91 131.61 51.82 130.90 C 50.75 129.84 49.67 128.78 48.59 127.73 Z" />
<path fill="#9d8366" opacity="1.00" d=" M 32.93 105.37 C 34.83 104.66 36.70 103.83 38.69 103.41 C 40.77 103.55 42.84 103.83 44.90 104.10 C 45.24 104.69 45.91 105.87 46.24 106.46 C 44.99 109.31 44.07 112.28 43.04 115.21 C 41.67 114.87 40.30 114.53 38.93 114.19 C 36.59 111.50 34.34 108.68 32.93 105.37 Z" />
<path fill="#9d8366" opacity="1.00" d=" M 113.56 104.09 C 117.39 103.72 121.25 103.78 125.06 104.29 C 125.62 104.93 126.19 105.56 126.77 106.20 C 126.04 107.58 125.38 109.00 124.47 110.26 C 120.43 113.87 115.51 116.48 110.16 117.49 C 109.10 114.47 108.15 111.41 106.98 108.43 C 109.24 107.08 111.44 105.64 113.56 104.09 Z" />
<path fill="#9d8366" opacity="1.00" d=" M 76.48 113.12 C 80.45 108.77 87.03 109.26 92.41 109.00 C 92.05 110.31 91.20 111.00 89.88 111.08 C 85.42 111.79 81.06 113.41 76.48 113.12 Z" />
<path fill="#9d8366" opacity="1.00" d=" M 97.21 125.94 C 98.94 124.99 100.68 124.07 102.43 123.15 C 100.92 125.37 99.40 127.58 97.88 129.79 C 96.94 131.01 95.92 132.16 94.94 133.36 C 93.40 132.16 91.87 130.95 90.34 129.73 C 92.63 128.48 94.92 127.20 97.21 125.94 Z" />
<path fill="#9d8366" opacity="1.00" d=" M 105.77 129.92 C 106.95 127.50 107.42 124.82 108.17 122.26 C 110.63 125.49 112.48 129.21 112.90 133.30 C 112.74 135.29 112.18 137.22 111.71 139.16 C 107.93 137.29 105.01 134.05 101.01 132.58 C 102.68 131.91 104.66 131.44 105.77 129.92 Z" />
<path fill="#9d8366" opacity="1.00" d=" M 96.11 143.40 C 98.45 144.08 100.82 144.67 103.20 145.27 L 104.23 145.55 L 104.24 146.41 C 103.95 148.13 103.71 149.87 103.48 151.61 C 100.19 153.59 96.14 155.14 94.76 159.08 L 94.30 159.97 C 92.57 160.13 90.83 160.29 89.08 160.29 C 87.05 160.17 84.89 160.32 82.97 159.52 C 81.40 158.16 80.49 156.22 79.34 154.53 C 83.84 155.12 87.71 159.98 92.44 157.49 C 94.97 155.43 96.29 152.32 97.83 149.52 C 98.55 149.94 99.28 150.35 100.01 150.76 C 100.28 149.55 100.55 148.33 100.82 147.12 C 98.83 147.31 96.84 147.50 94.85 147.67 C 94.22 147.21 93.60 146.74 92.99 146.26 C 94.02 145.30 95.06 144.35 96.11 143.40 Z" />
<path fill="#9d8366" opacity="1.00" d=" M 63.69 163.43 C 65.53 163.61 67.39 163.78 69.24 163.83 C 68.63 165.31 68.01 166.79 67.39 168.26 C 66.26 168.59 65.14 168.91 64.01 169.24 C 63.88 167.30 63.77 165.37 63.69 163.43 Z" />
<path fill="#9d8366" opacity="1.00" d=" M 77.75 172.35 C 77.94 172.03 78.32 171.39 78.51 171.07 C 82.02 172.59 85.87 172.72 89.62 172.34 C 90.12 172.30 91.12 172.23 91.62 172.20 C 92.03 173.09 92.43 173.99 92.83 174.89 C 91.76 175.20 90.69 175.53 89.63 175.88 C 87.47 176.54 85.50 177.67 83.55 178.78 C 81.57 178.70 79.59 178.57 77.61 178.43 C 78.23 177.49 78.86 176.56 79.51 175.64 C 78.93 174.54 78.34 173.44 77.75 172.35 Z" />
<path fill="#9d8366" opacity="1.00" d=" M 74.01 172.37 L 74.35 172.27 C 73.75 174.85 74.23 177.46 74.81 180.00 C 73.05 179.37 71.28 178.75 69.52 178.16 C 66.58 177.14 63.59 176.31 60.60 175.51 C 60.26 175.08 59.58 174.20 59.24 173.76 C 64.20 174.15 69.41 174.74 74.01 172.37 Z" />
</g>
<g id="#62404bff">
<path fill="#62404b" opacity="1.00" d=" M 65.60 65.81 C 67.92 64.50 70.37 63.43 72.87 62.51 C 72.80 65.14 72.80 67.77 72.86 70.40 C 71.51 70.29 70.15 70.21 68.79 70.16 C 69.88 70.73 70.98 71.28 72.09 71.82 C 70.35 71.57 68.27 70.54 66.71 71.81 C 62.92 74.54 59.47 77.69 55.89 80.67 C 56.99 81.04 58.09 81.40 59.19 81.77 C 58.13 83.12 57.07 84.47 56.01 85.82 C 56.38 85.85 57.12 85.91 57.49 85.94 C 63.53 87.62 69.89 87.88 76.08 86.90 C 66.92 87.95 57.22 88.25 49.09 93.16 C 45.93 95.81 45.99 100.41 44.90 104.10 C 44.42 95.59 45.42 86.82 49.07 79.04 C 51.93 74.01 57.50 71.56 61.94 68.18 C 63.14 67.37 64.36 66.56 65.60 65.81 Z" />
<path fill="#62404b" opacity="1.00" d=" M 80.94 76.32 C 84.19 74.81 83.40 71.21 83.16 68.31 C 86.20 70.84 89.32 73.27 92.34 75.83 C 91.54 78.16 90.80 80.50 90.15 82.88 C 89.65 83.51 89.15 84.15 88.64 84.79 C 89.17 86.55 89.69 88.32 90.20 90.10 C 84.87 90.35 79.53 90.16 74.20 90.17 C 75.81 89.00 77.44 87.84 78.77 86.35 C 78.91 84.64 78.99 82.94 79.09 81.23 C 80.82 81.27 82.55 81.30 84.27 81.34 C 83.19 79.65 82.13 77.94 80.94 76.32 Z" />
<path fill="#62404b" opacity="1.00" d=" M 51.82 130.90 C 52.91 131.61 54.00 132.32 55.09 133.04 L 55.06 133.74 C 54.97 135.50 54.97 137.28 55.25 139.03 C 55.32 139.56 55.46 140.61 55.53 141.14 C 54.71 140.48 53.90 139.82 53.09 139.17 C 51.96 139.46 50.83 139.75 49.70 140.04 C 49.71 138.86 49.77 137.68 49.87 136.51 C 50.42 134.60 51.11 132.75 51.82 130.90 Z" />
<path fill="#62404b" opacity="1.00" d=" M 72.60 138.92 C 76.07 138.65 79.51 138.08 82.86 137.15 C 80.19 139.89 78.29 143.23 77.08 146.85 C 77.78 146.92 79.18 147.08 79.88 147.15 C 79.48 148.38 79.12 149.62 78.76 150.86 C 77.43 150.91 76.09 150.99 74.76 151.09 C 73.41 151.55 72.09 152.13 70.82 152.80 C 72.34 150.08 75.48 149.26 78.16 148.17 C 75.12 148.10 72.08 147.96 69.04 147.79 C 69.35 145.58 69.66 143.36 69.79 141.12 C 70.73 140.40 71.68 139.68 72.60 138.92 Z" />
<path fill="#62404b" opacity="1.00" d=" M 104.24 146.41 L 104.36 145.85 C 104.95 149.84 104.75 154.65 101.61 157.59 C 99.77 159.34 97.11 159.17 94.76 159.08 C 96.14 155.14 100.19 153.59 103.48 151.61 C 103.71 149.87 103.95 148.13 104.24 146.41 Z" />
</g>
<g id="#393436fe">
<path fill="#393436" opacity="1.00" d=" M 66.71 71.81 C 68.27 70.54 70.35 71.57 72.09 71.82 C 75.77 73.40 78.97 75.87 81.65 78.83 C 79.25 80.53 77.39 82.81 76.07 85.42 C 69.89 85.97 63.68 85.60 57.49 85.94 C 57.12 85.91 56.38 85.85 56.01 85.82 C 57.07 84.47 58.13 83.12 59.19 81.77 C 58.09 81.40 56.99 81.04 55.89 80.67 C 59.47 77.69 62.92 74.54 66.71 71.81 M 62.40 78.38 C 61.86 80.08 63.06 81.60 63.66 83.09 C 64.37 83.38 65.77 83.96 66.47 84.25 C 70.08 82.04 73.88 80.17 77.58 78.11 C 77.15 77.59 76.28 76.56 75.85 76.05 C 73.57 76.17 71.29 76.07 69.07 75.53 C 68.51 75.29 67.40 74.81 66.85 74.57 C 65.29 75.68 63.00 76.35 62.40 78.38 Z" />
<path fill="#393436" opacity="1.00" d=" M 133.56 77.33 C 133.96 77.01 134.78 76.37 135.19 76.05 C 137.32 76.69 139.47 77.25 141.62 77.80 C 141.76 78.17 142.05 78.92 142.20 79.29 L 141.62 79.11 C 139.01 78.21 136.28 77.70 133.56 77.33 Z" />
<path fill="#393436" opacity="1.00" d=" M 98.79 79.16 C 105.28 86.48 108.60 95.79 113.56 104.09 C 111.44 105.64 109.24 107.08 106.98 108.43 C 105.63 105.25 103.50 102.40 100.46 100.67 C 95.40 97.69 91.11 93.05 85.14 91.92 C 78.49 90.60 71.67 91.22 64.94 91.22 C 60.38 91.45 55.20 91.34 51.51 94.44 C 49.67 96.80 49.19 99.87 48.31 102.67 C 47.63 103.94 46.91 105.18 46.24 106.46 C 45.91 105.87 45.24 104.69 44.90 104.10 C 45.99 100.41 45.93 95.81 49.09 93.16 C 57.22 88.25 66.92 87.95 76.08 86.90 C 76.75 86.76 78.10 86.49 78.77 86.35 C 77.44 87.84 75.81 89.00 74.20 90.17 C 79.53 90.16 84.87 90.35 90.20 90.10 C 89.69 88.32 89.17 86.55 88.64 84.79 C 89.15 84.15 89.65 83.51 90.15 82.88 C 92.03 83.54 93.92 84.20 95.81 84.86 C 96.81 82.96 97.80 81.06 98.79 79.16 Z" />
<path fill="#393436" opacity="1.00" d=" M 91.08 126.06 C 94.05 123.60 96.55 120.63 99.25 117.89 C 98.77 120.62 97.99 123.28 97.21 125.94 C 94.92 127.20 92.63 128.48 90.34 129.73 C 91.87 130.95 93.40 132.16 94.94 133.36 C 94.83 133.85 94.59 134.85 94.48 135.35 C 92.64 139.45 88.22 140.36 84.36 141.57 C 81.74 142.20 80.75 144.92 79.88 147.15 C 79.18 147.08 77.78 146.92 77.08 146.85 C 78.29 143.23 80.19 139.89 82.86 137.15 C 79.51 138.08 76.07 138.65 72.60 138.92 C 74.77 136.49 76.45 133.62 77.13 130.41 C 81.90 129.54 87.18 129.27 91.08 126.06 Z" />
<path fill="#393436" opacity="1.00" d=" M 54.55 119.90 C 56.60 121.40 58.65 122.93 60.44 124.74 C 60.10 125.24 59.43 126.23 59.09 126.73 C 57.65 124.41 56.03 122.19 54.55 119.90 Z" />
<path fill="#393436" opacity="1.00" d=" M 65.06 124.08 C 71.41 124.44 77.77 123.82 84.11 124.23 C 80.34 125.59 76.40 126.63 72.37 126.68 C 69.90 125.88 67.51 124.89 65.06 124.08 Z" />
<path fill="#393436" opacity="1.00" d=" M 65.32 134.45 C 65.97 134.03 67.27 133.20 67.92 132.78 C 68.29 134.21 68.67 135.65 69.01 137.09 C 69.28 138.43 69.57 139.77 69.79 141.12 C 69.66 143.36 69.35 145.58 69.04 147.79 C 68.19 148.51 67.34 149.23 66.52 149.97 C 60.83 148.70 55.19 147.02 50.04 144.22 C 53.23 144.57 56.44 144.67 59.65 144.81 C 59.78 142.22 59.91 139.64 60.05 137.05 L 60.88 137.20 C 60.89 138.77 60.90 140.34 60.91 141.92 C 61.65 141.87 63.12 141.76 63.86 141.70 C 64.11 140.43 64.35 139.17 64.61 137.90 C 64.83 136.75 65.07 135.59 65.32 134.45 Z" />
<path fill="#393436" opacity="1.00" d=" M 96.46 136.70 C 100.31 137.98 102.47 141.44 103.20 145.27 C 100.82 144.67 98.45 144.08 96.11 143.40 C 96.31 141.17 96.50 138.94 96.46 136.70 Z" />
<path fill="#393436" opacity="1.00" d=" M 94.85 147.67 C 96.84 147.50 98.83 147.31 100.82 147.12 C 100.55 148.33 100.28 149.55 100.01 150.76 C 99.28 150.35 98.55 149.94 97.83 149.52 C 96.82 148.93 95.83 148.31 94.85 147.67 Z" />
<path fill="#393436" opacity="1.00" d=" M 69.24 163.83 C 70.46 163.77 71.68 163.67 72.90 163.57 C 72.93 164.50 72.97 165.43 73.01 166.36 C 72.15 166.74 71.28 167.12 70.42 167.48 C 71.05 168.85 71.68 170.21 72.31 171.59 C 69.26 171.83 66.21 171.99 63.16 172.26 C 63.18 171.56 63.21 170.17 63.23 169.47 L 64.01 169.24 C 65.14 168.91 66.26 168.59 67.39 168.26 C 68.01 166.79 68.63 165.31 69.24 163.83 Z" />
<path fill="#393436" opacity="1.00" d=" M 78.43 165.53 C 81.39 166.07 84.30 166.82 87.14 167.82 C 87.66 167.32 88.18 166.82 88.70 166.32 C 88.97 168.33 89.27 170.34 89.62 172.34 C 85.87 172.72 82.02 172.59 78.51 171.07 C 79.04 170.17 79.56 169.27 80.09 168.36 C 79.52 167.43 78.97 166.48 78.43 165.53 Z" />
<path fill="#393436" opacity="1.00" d=" M 78.27 186.87 C 77.68 184.10 77.20 181.26 77.61 178.43 C 79.59 178.57 81.57 178.70 83.55 178.78 C 83.89 181.02 84.22 183.27 84.57 185.51 C 87.45 184.92 89.70 183.08 91.57 180.91 C 91.97 182.18 92.37 183.46 92.78 184.73 C 93.13 184.71 93.84 184.66 94.19 184.64 C 95.20 182.54 96.22 180.44 97.29 178.36 C 97.83 181.01 98.00 183.72 97.97 186.42 C 101.66 186.55 105.36 186.48 109.06 186.49 C 111.09 186.55 113.39 186.47 114.99 187.96 C 116.99 189.43 115.98 192.26 116.34 194.36 C 99.90 194.86 83.45 194.45 67.00 194.59 C 55.88 194.48 44.74 194.81 33.62 194.40 C 33.70 191.81 32.87 187.94 36.31 187.22 C 42.34 186.14 48.52 186.99 54.61 186.69 C 54.77 186.12 55.09 184.99 55.25 184.42 C 55.75 182.73 56.29 181.05 56.81 179.37 C 57.41 181.15 58.00 182.93 58.60 184.72 C 58.92 184.62 59.55 184.44 59.87 184.34 C 60.64 183.27 61.37 182.18 62.23 181.18 C 63.98 183.04 65.96 184.69 68.45 185.45 C 68.82 183.02 69.17 180.59 69.52 178.16 C 71.28 178.75 73.05 179.37 74.81 180.00 C 74.65 182.34 74.19 184.64 73.68 186.93 C 75.21 186.90 76.74 186.88 78.27 186.87 Z" />
</g>
<g id="#9c2022ff">
<path fill="#9c2022" opacity="1.00" d=" M 50.20 102.27 C 50.66 101.98 51.59 101.41 52.06 101.13 C 55.87 103.90 59.75 106.64 63.17 109.90 C 64.20 110.82 64.44 112.23 64.91 113.46 C 60.51 113.77 56.04 113.35 51.70 114.32 C 50.34 110.45 50.00 106.34 50.20 102.27 M 51.91 103.94 C 51.96 106.10 51.44 108.46 52.54 110.45 C 55.40 112.40 59.00 112.35 62.31 112.25 C 59.54 108.70 55.91 105.95 51.91 103.94 Z" />
<path fill="#9c2022" opacity="1.00" d=" M 87.60 102.27 C 89.43 104.84 91.88 106.87 94.61 108.43 C 94.01 109.61 93.44 110.80 92.72 111.91 C 86.94 113.02 81.02 113.44 75.16 113.98 C 74.79 113.03 74.42 112.07 74.05 111.12 C 77.92 108.93 82.30 108.04 86.38 106.39 C 86.91 105.05 87.24 103.65 87.60 102.27 M 76.48 113.12 C 81.06 113.41 85.42 111.79 89.88 111.08 C 91.20 111.00 92.05 110.31 92.41 109.00 C 87.03 109.26 80.45 108.77 76.48 113.12 Z" />
<path fill="#9c2022" opacity="1.00" d=" M 60.44 124.74 C 61.93 124.25 63.49 123.99 65.06 124.08 C 67.51 124.89 69.90 125.88 72.37 126.68 C 70.97 128.78 69.58 130.88 67.92 132.78 C 67.27 133.20 65.97 134.03 65.32 134.45 C 62.58 132.46 60.60 129.72 59.09 126.73 C 59.43 126.23 60.10 125.24 60.44 124.74 Z" />
<path fill="#9c2022" opacity="1.00" d=" M 70.82 152.80 C 72.09 152.13 73.41 151.55 74.76 151.09 C 75.35 152.21 75.93 153.33 76.53 154.45 C 77.46 154.46 78.40 154.49 79.34 154.53 C 80.49 156.22 81.40 158.16 82.97 159.52 C 84.89 160.32 87.05 160.17 89.08 160.29 C 88.99 162.23 90.16 164.71 88.70 166.32 C 88.18 166.82 87.66 167.32 87.14 167.82 C 84.30 166.82 81.39 166.07 78.43 165.53 C 77.78 164.19 77.23 162.80 76.69 161.42 C 75.69 163.22 74.64 165.05 73.01 166.36 C 72.97 165.43 72.93 164.50 72.90 163.57 C 71.68 163.67 70.46 163.77 69.24 163.83 C 67.39 163.78 65.53 163.61 63.69 163.43 C 63.09 163.37 61.89 163.24 61.29 163.17 C 61.76 161.25 62.19 159.32 62.54 157.38 C 64.80 156.57 67.08 155.84 69.38 155.15 C 69.84 154.35 70.32 153.57 70.82 152.80 Z" />
<path fill="#9c2022" opacity="1.00" d=" M 60.60 175.51 C 63.59 176.31 66.58 177.14 69.52 178.16 C 69.17 180.59 68.82 183.02 68.45 185.45 C 65.96 184.69 63.98 183.04 62.23 181.18 C 61.37 182.18 60.64 183.27 59.87 184.34 C 59.55 184.44 58.92 184.62 58.60 184.72 C 58.00 182.93 57.41 181.15 56.81 179.37 C 56.29 181.05 55.75 182.73 55.25 184.42 C 53.53 180.15 56.44 176.44 60.60 175.51 Z" />
<path fill="#9c2022" opacity="1.00" d=" M 83.55 178.78 C 85.50 177.67 87.47 176.54 89.63 175.88 C 92.33 176.14 94.82 177.32 97.29 178.36 C 96.22 180.44 95.20 182.54 94.19 184.64 C 93.84 184.66 93.13 184.71 92.78 184.73 C 92.37 183.46 91.97 182.18 91.57 180.91 C 89.70 183.08 87.45 184.92 84.57 185.51 C 84.22 183.27 83.89 181.02 83.55 178.78 Z" />
</g>
</svg>
