<?xml version="1.0" encoding="UTF-8" ?>
<!DOCTYPE svg PUBLIC "-//W3C//DTD SVG 1.1//EN" "http://www.w3.org/Graphics/SVG/1.1/DTD/svg11.dtd">
<svg width="155pt" height="210pt" viewBox="0 0 155 210" version="1.1" xmlns="http://www.w3.org/2000/svg">
<g id="#dc936aff">
<path fill="#dc936a" opacity="1.00" d=" M 94.56 51.56 C 98.14 48.94 102.74 48.95 106.98 48.85 C 105.51 51.16 102.58 53.60 104.09 56.59 C 105.53 60.92 109.95 62.92 113.69 64.87 C 112.44 66.42 111.37 68.76 109.00 68.51 C 101.59 68.33 93.49 66.60 88.45 60.70 C 89.75 57.26 91.25 53.56 94.56 51.56 Z" />
<path fill="#dc936a" opacity="1.00" d=" M 48.01 92.19 C 45.17 86.08 48.97 78.19 55.13 76.00 C 59.87 77.16 63.80 80.62 68.73 81.38 C 72.27 81.84 75.05 84.05 77.22 86.74 C 79.37 85.83 81.48 84.58 83.85 84.37 C 87.81 84.69 90.76 87.74 93.67 90.13 C 88.87 94.63 82.02 94.62 76.06 96.45 C 76.30 93.73 76.49 91.01 76.65 88.28 C 72.30 90.14 68.77 93.30 65.01 96.07 C 61.70 98.65 57.44 96.96 53.81 96.23 C 52.26 93.20 50.81 90.12 49.32 87.06 C 48.88 88.77 48.43 90.47 48.01 92.19 Z" />
<path fill="#dc936a" opacity="1.00" d=" M 117.55 83.61 C 119.91 84.61 123.21 85.28 123.48 88.39 C 124.96 96.97 122.72 105.73 119.75 113.75 C 115.63 123.65 109.72 134.11 99.13 138.11 C 97.71 138.37 96.30 138.62 94.88 138.86 C 98.02 134.31 101.53 130.01 104.26 125.20 C 108.14 119.25 111.13 112.80 114.72 106.68 C 118.94 99.72 116.74 91.29 117.55 83.61 Z" />
<path fill="#dc936a" opacity="1.00" d=" M 32.07 111.77 C 33.56 115.78 35.82 119.45 38.25 122.96 C 37.48 126.65 36.42 130.31 36.16 134.10 C 35.65 140.50 37.07 146.82 37.67 153.17 C 36.21 151.97 34.92 150.52 34.28 148.72 C 31.81 142.73 29.50 136.51 29.32 129.96 C 29.15 123.80 30.17 117.63 32.07 111.77 Z" />
<path fill="#dc936a" opacity="1.00" d=" M 61.11 159.38 C 62.12 159.38 63.14 159.38 64.15 159.38 C 67.29 161.48 69.54 164.55 70.68 168.15 C 68.13 167.54 65.57 166.91 63.09 166.03 C 60.98 164.49 61.12 161.70 61.11 159.38 Z" />
</g>
<g id="#342925ff">
<path fill="#342925" opacity="1.00" d=" M 106.98 48.85 C 111.87 50.42 116.23 53.30 118.98 57.73 C 118.47 59.60 117.96 61.48 117.45 63.36 C 116.19 63.87 114.94 64.36 113.69 64.87 C 109.95 62.92 105.53 60.92 104.09 56.59 C 102.58 53.60 105.51 51.16 106.98 48.85 Z" />
<path fill="#342925" opacity="1.00" d=" M 72.41 70.08 C 78.05 68.69 84.11 67.79 89.84 69.14 C 96.89 72.21 104.07 75.42 111.88 75.82 C 111.48 76.25 110.66 77.11 110.26 77.54 C 111.97 79.07 113.68 80.60 115.41 82.11 C 114.08 85.36 114.97 88.83 115.41 92.15 C 116.01 96.10 115.31 100.06 114.77 103.97 C 113.24 98.17 111.23 92.36 107.45 87.59 C 103.78 82.80 98.68 79.41 93.53 76.40 C 87.09 72.60 79.43 72.21 72.41 70.08 Z" />
<path fill="#342925" opacity="1.00" d=" M 105.94 89.32 C 106.32 88.89 107.07 88.02 107.45 87.59 C 105.70 91.86 103.20 95.75 100.19 99.23 C 103.06 99.25 105.93 99.29 108.81 99.32 C 108.09 103.36 107.45 107.41 106.89 111.47 C 107.98 111.44 109.07 111.41 110.17 111.39 C 107.82 115.82 106.00 120.50 104.26 125.20 C 101.53 130.01 98.02 134.31 94.88 138.86 C 96.30 138.62 97.71 138.37 99.13 138.11 C 102.56 137.58 106.06 137.67 109.50 138.07 C 106.41 142.88 99.87 142.97 96.47 147.37 C 93.72 150.72 90.80 153.92 88.19 157.38 C 86.23 157.16 84.27 156.95 82.31 156.77 C 84.32 159.02 86.76 160.85 88.81 163.07 C 90.31 166.36 90.95 170.00 92.73 173.19 C 91.43 174.28 90.11 175.36 88.79 176.43 C 90.38 181.44 88.09 186.35 86.90 191.16 C 99.27 191.67 111.66 191.24 124.03 191.36 C 125.46 191.51 127.31 191.35 128.15 192.80 C 128.92 195.36 128.65 198.09 128.79 200.73 C 95.25 200.79 61.70 200.74 28.16 200.75 C 28.25 198.06 27.95 195.28 28.72 192.67 C 30.00 191.15 32.18 191.49 33.94 191.33 C 42.29 191.39 50.65 191.35 59.01 191.44 C 62.18 191.50 65.35 191.10 68.45 190.45 C 72.08 189.70 75.76 189.29 79.45 189.00 C 78.21 188.06 76.96 187.13 75.67 186.26 C 77.18 186.26 78.69 186.25 80.20 186.22 C 80.32 182.00 81.05 177.04 77.09 174.24 C 75.34 177.86 74.30 181.77 73.81 185.76 C 71.66 185.18 69.53 184.57 67.39 183.95 C 69.32 180.49 71.83 177.24 72.79 173.34 C 70.36 170.69 67.29 173.22 66.57 175.99 C 65.62 175.03 64.55 174.13 63.91 172.93 C 64.23 171.36 64.77 169.85 65.29 168.35 C 64.55 167.58 63.82 166.81 63.09 166.03 C 65.57 166.91 68.13 167.54 70.68 168.15 C 70.78 165.52 70.88 162.89 70.97 160.26 C 73.67 156.79 76.17 153.15 78.16 149.23 C 75.24 150.26 72.26 151.24 69.58 152.82 C 67.07 154.31 65.73 157.04 64.15 159.38 C 63.14 159.38 62.12 159.38 61.11 159.38 C 60.53 159.37 59.38 159.35 58.81 159.34 C 58.53 162.48 59.17 165.92 57.78 168.83 C 53.22 173.63 45.22 174.87 39.65 171.05 C 43.75 169.43 47.96 167.25 50.25 163.29 C 52.84 158.78 54.91 153.60 54.57 148.32 C 54.49 145.87 51.50 144.60 49.45 145.54 C 46.39 147.02 43.94 149.45 41.26 151.50 C 41.57 145.66 44.10 139.92 42.79 134.06 C 41.45 127.61 40.64 121.07 39.58 114.57 C 38.03 106.99 39.81 99.39 41.19 91.95 C 41.64 94.06 41.94 96.24 42.78 98.24 C 44.43 100.28 47.05 101.14 49.27 102.40 C 49.59 103.74 49.86 105.10 50.13 106.45 C 49.21 106.56 48.29 106.66 47.37 106.77 C 48.11 110.97 47.68 115.44 49.54 119.39 C 50.52 121.65 51.40 123.96 52.18 126.30 C 50.16 126.71 48.14 127.13 46.12 127.55 C 50.18 132.12 55.72 134.84 61.55 136.42 C 70.45 139.76 80.34 138.85 89.26 136.11 C 93.95 134.70 96.82 130.52 99.34 126.63 C 92.86 127.34 84.63 128.86 79.94 123.09 C 76.39 117.56 79.27 110.80 80.85 105.09 C 76.10 107.23 71.17 108.97 66.13 110.34 C 69.90 108.36 73.59 106.25 77.21 104.00 C 84.11 100.22 89.82 94.75 95.99 89.95 C 94.73 92.73 93.43 95.48 92.19 98.27 C 94.73 97.55 97.39 97.05 99.70 95.71 C 102.19 94.03 103.94 91.52 105.94 89.32 M 90.40 102.36 C 83.58 105.60 79.91 114.93 83.15 121.82 C 85.01 125.67 89.65 124.78 93.08 124.39 C 94.42 124.39 95.76 124.51 97.09 124.71 C 94.50 123.01 91.35 123.29 88.47 122.59 C 85.57 120.57 85.87 116.43 86.48 113.37 C 86.74 110.85 89.47 110.20 91.30 109.10 C 91.45 107.93 91.58 106.77 91.72 105.61 C 93.68 105.24 95.64 104.88 97.59 104.49 C 95.56 102.93 93.08 100.88 90.40 102.36 M 58.05 138.84 C 57.24 143.28 58.23 147.84 60.50 151.70 C 63.83 151.78 66.03 148.96 68.29 146.96 C 65.72 145.32 63.03 143.87 60.26 142.60 C 60.37 141.62 60.50 140.64 60.63 139.67 C 59.54 140.25 58.68 139.98 58.05 138.84 M 56.88 192.46 C 71.48 193.82 86.22 194.33 100.79 192.42 C 93.85 192.29 86.92 192.16 79.99 191.82 C 72.28 191.90 64.58 192.32 56.88 192.46 Z" />
<path fill="#342925" opacity="1.00" d=" M 57.77 101.58 C 59.06 102.86 60.42 104.06 61.76 105.29 C 63.09 106.51 64.39 107.75 65.71 108.99 C 64.25 112.14 62.66 115.30 60.14 117.76 C 58.79 115.79 56.89 114.01 56.32 111.63 C 56.12 108.22 57.26 104.92 57.77 101.58 Z" />
<path fill="#342925" opacity="1.00" d=" M 64.72 120.00 C 68.46 119.39 72.21 120.07 75.38 122.18 C 73.45 123.42 71.58 125.32 69.11 125.15 C 66.65 124.63 65.91 121.86 64.72 120.00 Z" />
<path fill="#342925" opacity="1.00" d=" M 94.11 159.86 C 97.82 159.09 101.48 158.09 105.18 157.30 C 102.37 161.17 98.52 164.03 94.49 166.52 C 94.37 164.30 94.28 162.08 94.11 159.86 Z" />
</g>
<g id="#a3765aff">
<path fill="#a3765a" opacity="1.00" d=" M 117.45 63.36 C 117.96 61.48 118.47 59.60 118.98 57.73 C 119.86 61.69 120.97 66.09 118.90 69.89 C 117.46 72.58 115.15 75.60 111.88 75.82 C 104.07 75.42 96.89 72.21 89.84 69.14 C 89.09 66.21 88.52 63.23 87.98 60.25 L 88.45 60.70 C 93.49 66.60 101.59 68.33 109.00 68.51 C 111.37 68.76 112.44 66.42 113.69 64.87 C 114.94 64.36 116.19 63.87 117.45 63.36 Z" />
<path fill="#a3765a" opacity="1.00" d=" M 71.52 69.85 L 72.41 70.08 C 79.43 72.21 87.09 72.60 93.53 76.40 C 98.68 79.41 103.78 82.80 107.45 87.59 C 107.07 88.02 106.32 88.89 105.94 89.32 C 100.86 85.40 95.13 82.49 89.49 79.50 C 86.63 77.86 83.23 78.34 80.14 77.58 C 77.02 75.31 74.73 72.05 71.52 69.85 Z" />
<path fill="#a3765a" opacity="1.00" d=" M 115.41 82.11 C 118.03 79.21 122.64 80.44 124.76 83.28 C 127.58 87.08 128.33 91.91 129.29 96.43 C 131.32 106.26 130.23 116.35 129.17 126.22 C 128.22 134.53 125.59 142.50 123.13 150.46 C 125.29 150.95 127.44 151.47 129.59 152.04 C 125.28 158.25 119.86 163.96 113.13 167.54 C 113.55 170.41 114.01 173.28 114.35 176.17 C 108.37 176.64 101.64 177.04 96.44 173.55 C 94.85 171.88 92.95 168.40 94.49 166.52 C 98.52 164.03 102.37 161.17 105.18 157.30 C 101.48 158.09 97.82 159.09 94.11 159.86 C 91.86 160.33 89.54 160.33 87.25 160.36 C 87.49 159.62 87.96 158.13 88.19 157.38 C 90.80 153.92 93.72 150.72 96.47 147.37 C 99.87 142.97 106.41 142.88 109.50 138.07 C 106.06 137.67 102.56 137.58 99.13 138.11 C 109.72 134.11 115.63 123.65 119.75 113.75 C 122.72 105.73 124.96 96.97 123.48 88.39 C 123.21 85.28 119.91 84.61 117.55 83.61 C 116.74 91.29 118.94 99.72 114.72 106.68 C 111.13 112.80 108.14 119.25 104.26 125.20 C 106.00 120.50 107.82 115.82 110.17 111.39 C 109.07 111.41 107.98 111.44 106.89 111.47 C 107.45 107.41 108.09 103.36 108.81 99.32 C 105.93 99.29 103.06 99.25 100.19 99.23 C 103.20 95.75 105.70 91.86 107.45 87.59 C 111.23 92.36 113.24 98.17 114.77 103.97 C 115.31 100.06 116.01 96.10 115.41 92.15 C 114.97 88.83 114.08 85.36 115.41 82.11 Z" />
<path fill="#a3765a" opacity="1.00" d=" M 49.32 87.06 C 50.81 90.12 52.26 93.20 53.81 96.23 C 54.22 96.98 54.64 97.73 55.08 98.47 C 53.19 103.69 52.37 109.77 55.25 114.80 C 56.09 116.77 58.30 117.23 60.14 117.76 C 62.66 115.30 64.25 112.14 65.71 108.99 C 64.39 107.75 63.09 106.51 61.76 105.29 C 66.90 104.69 72.07 104.52 77.21 104.00 C 73.59 106.25 69.90 108.36 66.13 110.34 C 71.17 108.97 76.10 107.23 80.85 105.09 C 79.27 110.80 76.39 117.56 79.94 123.09 C 84.63 128.86 92.86 127.34 99.34 126.63 C 96.82 130.52 93.95 134.70 89.26 136.11 C 80.34 138.85 70.45 139.76 61.55 136.42 C 55.72 134.84 50.18 132.12 46.12 127.55 C 48.14 127.13 50.16 126.71 52.18 126.30 C 51.40 123.96 50.52 121.65 49.54 119.39 C 47.68 115.44 48.11 110.97 47.37 106.77 C 48.29 106.66 49.21 106.56 50.13 106.45 C 49.86 105.10 49.59 103.74 49.27 102.40 C 48.72 100.19 47.98 98.04 47.22 95.91 C 47.48 94.66 47.73 93.42 48.01 92.19 C 48.43 90.47 48.88 88.77 49.32 87.06 M 64.72 120.00 C 65.91 121.86 66.65 124.63 69.11 125.15 C 71.58 125.32 73.45 123.42 75.38 122.18 C 72.21 120.07 68.46 119.39 64.72 120.00 Z" />
<path fill="#a3765a" opacity="1.00" d=" M 35.69 113.99 C 36.99 114.18 38.28 114.38 39.58 114.57 C 40.64 121.07 41.45 127.61 42.79 134.06 C 44.10 139.92 41.57 145.66 41.26 151.50 C 43.94 149.45 46.39 147.02 49.45 145.54 C 51.50 144.60 54.49 145.87 54.57 148.32 C 54.91 153.60 52.84 158.78 50.25 163.29 C 47.96 167.25 43.75 169.43 39.65 171.05 L 38.82 171.40 C 40.43 168.44 42.89 166.01 44.27 162.93 C 44.04 159.10 42.23 155.63 40.78 152.14 C 39.74 152.48 38.70 152.82 37.67 153.17 C 37.07 146.82 35.65 140.50 36.16 134.10 C 36.42 130.31 37.48 126.65 38.25 122.96 C 39.09 119.67 37.24 116.71 35.69 113.99 Z" />
<path fill="#a3765a" opacity="1.00" d=" M 58.05 138.84 C 58.68 139.98 59.54 140.25 60.63 139.67 C 60.50 140.64 60.37 141.62 60.26 142.60 C 63.03 143.87 65.72 145.32 68.29 146.96 C 66.03 148.96 63.83 151.78 60.50 151.70 C 58.23 147.84 57.24 143.28 58.05 138.84 Z" />
<path fill="#a3765a" opacity="1.00" d=" M 69.58 152.82 C 72.26 151.24 75.24 150.26 78.16 149.23 C 76.17 153.15 73.67 156.79 70.97 160.26 C 70.88 162.89 70.78 165.52 70.68 168.15 C 69.54 164.55 67.29 161.48 64.15 159.38 C 65.73 157.04 67.07 154.31 69.58 152.82 Z" />
<path fill="#a3765a" opacity="1.00" d=" M 66.57 175.99 C 67.29 173.22 70.36 170.69 72.79 173.34 C 71.83 177.24 69.32 180.49 67.39 183.95 C 69.53 184.57 71.66 185.18 73.81 185.76 C 74.27 185.89 75.21 186.14 75.67 186.26 C 76.96 187.13 78.21 188.06 79.45 189.00 C 75.76 189.29 72.08 189.70 68.45 190.45 C 65.73 186.14 64.30 180.82 66.57 175.99 Z" />
<path fill="#a3765a" opacity="1.00" d=" M 56.88 192.46 C 64.58 192.32 72.28 191.90 79.99 191.82 C 86.92 192.16 93.85 192.29 100.79 192.42 C 86.22 194.33 71.48 193.82 56.88 192.46 Z" />
</g>
<g id="#c18567ff">
<path fill="#c18567" opacity="1.00" d=" M 62.24 72.44 C 65.39 71.77 68.34 70.41 71.52 69.85 C 74.73 72.05 77.02 75.31 80.14 77.58 C 83.23 78.34 86.63 77.86 89.49 79.50 C 95.13 82.49 100.86 85.40 105.94 89.32 C 103.94 91.52 102.19 94.03 99.70 95.71 C 97.39 97.05 94.73 97.55 92.19 98.27 C 93.43 95.48 94.73 92.73 95.99 89.95 C 89.82 94.75 84.11 100.22 77.21 104.00 C 72.07 104.52 66.90 104.69 61.76 105.29 C 60.42 104.06 59.06 102.86 57.77 101.58 C 56.82 100.59 55.93 99.55 55.08 98.47 C 54.64 97.73 54.22 96.98 53.81 96.23 C 57.44 96.96 61.70 98.65 65.01 96.07 C 68.77 93.30 72.30 90.14 76.65 88.28 C 76.49 91.01 76.30 93.73 76.06 96.45 C 82.02 94.62 88.87 94.63 93.67 90.13 C 90.76 87.74 87.81 84.69 83.85 84.37 C 81.48 84.58 79.37 85.83 77.22 86.74 C 75.05 84.05 72.27 81.84 68.73 81.38 C 63.80 80.62 59.87 77.16 55.13 76.00 C 48.97 78.19 45.17 86.08 48.01 92.19 C 47.73 93.42 47.48 94.66 47.22 95.91 C 47.98 98.04 48.72 100.19 49.27 102.40 C 47.05 101.14 44.43 100.28 42.78 98.24 C 41.94 96.24 41.64 94.06 41.19 91.95 C 39.81 99.39 38.03 106.99 39.58 114.57 C 38.28 114.38 36.99 114.18 35.69 113.99 C 37.24 116.71 39.09 119.67 38.25 122.96 C 35.82 119.45 33.56 115.78 32.07 111.77 C 33.02 107.87 34.50 104.08 34.84 100.05 C 35.64 92.70 38.75 85.83 42.57 79.58 C 44.52 76.57 46.77 73.40 50.22 72.02 C 54.19 70.43 58.22 73.44 62.24 72.44 Z" />
</g>
<g id="#faf8edff">
<path fill="#faf8ed" opacity="1.00" d=" M 55.25 114.80 C 52.37 109.77 53.19 103.69 55.08 98.47 C 55.93 99.55 56.82 100.59 57.77 101.58 C 57.26 104.92 56.12 108.22 56.32 111.63 C 56.89 114.01 58.79 115.79 60.14 117.76 C 58.30 117.23 56.09 116.77 55.25 114.80 Z" />
<path fill="#faf8ed" opacity="1.00" d=" M 90.40 102.36 C 93.08 100.88 95.56 102.93 97.59 104.49 C 95.64 104.88 93.68 105.24 91.72 105.61 C 91.58 106.77 91.45 107.93 91.30 109.10 C 89.47 110.20 86.74 110.85 86.48 113.37 C 85.87 116.43 85.57 120.57 88.47 122.59 C 91.35 123.29 94.50 123.01 97.09 124.71 C 95.76 124.51 94.42 124.39 93.08 124.39 C 89.65 124.78 85.01 125.67 83.15 121.82 C 79.91 114.93 83.58 105.60 90.40 102.36 Z" />
</g>
</svg>
