<?xml version="1.0" encoding="UTF-8" ?>
<!DOCTYPE svg PUBLIC "-//W3C//DTD SVG 1.1//EN" "http://www.w3.org/Graphics/SVG/1.1/DTD/svg11.dtd">
<svg width="155pt" height="210pt" viewBox="0 0 155 210" version="1.1" xmlns="http://www.w3.org/2000/svg">
<g id="#2e3338fe">
<path fill="#2e3338" opacity="1.00" d=" M 55.47 23.32 C 56.30 22.91 57.14 22.50 57.99 22.10 C 63.38 27.07 65.49 34.30 68.28 40.84 C 70.21 41.22 72.16 41.55 74.09 41.97 C 72.37 41.87 70.66 41.85 68.94 41.82 C 69.98 45.33 71.14 48.81 71.89 52.40 C 71.84 54.71 71.53 57.00 71.21 59.29 C 67.75 59.55 64.31 60.11 60.84 60.26 C 59.31 58.76 57.18 57.44 56.89 55.13 C 56.20 51.44 56.18 47.67 55.88 43.95 C 55.37 37.09 55.15 30.20 55.47 23.32 Z" />
<path fill="#2e3338" opacity="1.00" d=" M 118.30 25.85 C 119.75 26.61 121.52 27.29 121.95 29.07 C 124.27 36.02 123.66 43.65 121.65 50.61 C 120.39 55.43 117.84 59.79 116.45 64.57 C 116.01 65.02 115.13 65.91 114.70 66.36 C 112.93 64.81 111.06 63.38 109.24 61.90 C 107.57 59.34 105.87 56.57 102.93 55.31 C 106.90 53.81 108.23 49.47 110.07 46.06 C 113.41 39.56 114.72 32.23 118.30 25.85 Z" />
<path fill="#2e3338" opacity="1.00" d=" M 100.08 54.17 L 100.86 53.71 L 101.86 54.16 L 102.04 55.05 C 101.55 54.83 100.57 54.39 100.08 54.17 Z" />
<path fill="#2e3338" opacity="1.00" d=" M 82.99 88.04 C 87.50 87.58 92.08 87.88 96.34 89.53 C 94.92 89.67 93.51 89.81 92.09 89.94 C 89.02 89.51 86.00 88.79 82.99 88.04 Z" />
<path fill="#2e3338" opacity="1.00" d=" M 97.04 90.58 C 100.32 90.46 104.10 90.89 106.37 93.55 C 107.92 98.25 108.01 103.29 109.07 108.12 C 110.99 107.65 112.92 107.18 114.86 106.73 C 116.24 106.50 117.66 106.42 119.03 106.11 C 120.36 104.97 121.26 103.44 122.29 102.05 C 122.84 102.17 123.94 102.40 124.49 102.52 C 126.01 107.62 125.43 113.22 121.83 117.33 C 119.47 116.35 116.66 115.68 114.56 117.61 C 114.16 119.49 114.24 121.42 114.26 123.32 L 114.27 123.94 C 106.79 126.80 102.26 134.13 94.72 136.98 C 80.77 140.66 66.03 137.59 52.54 133.39 C 51.37 130.28 47.84 129.38 45.85 127.00 C 44.36 124.68 43.15 121.85 40.47 120.67 C 36.74 119.07 32.65 118.59 28.88 117.14 C 23.40 112.60 16.67 109.41 12.28 103.69 C 19.26 107.61 25.31 113.61 33.45 115.06 C 35.14 115.43 36.85 115.71 38.54 116.08 C 42.23 116.82 43.99 120.24 45.72 123.19 C 53.06 124.50 60.19 127.06 67.72 127.22 C 65.03 123.17 61.52 119.10 61.35 114.00 C 61.16 110.39 65.10 107.46 68.51 108.57 C 75.97 110.84 80.85 118.62 89.03 119.03 C 95.75 119.94 101.80 116.29 107.02 112.54 C 105.40 111.32 103.75 110.14 102.04 109.05 C 103.71 108.52 105.38 108.00 107.05 107.47 C 106.08 105.62 105.23 103.68 103.89 102.07 C 102.53 101.30 100.87 101.43 99.37 101.16 C 98.78 104.01 98.60 107.00 99.99 109.67 C 98.80 110.01 97.60 110.30 96.39 110.55 C 96.10 108.88 95.26 107.35 94.16 106.07 C 95.16 102.65 98.45 100.97 100.86 98.68 C 102.44 97.34 102.44 95.10 103.00 93.25 C 101.01 92.37 99.02 91.49 97.04 90.58 M 65.63 112.78 C 65.20 118.02 68.82 122.34 72.79 125.24 C 78.73 129.41 86.59 130.49 93.54 128.57 L 94.17 128.75 C 98.25 126.96 101.43 123.63 104.15 120.19 C 99.85 121.56 95.71 123.91 91.08 123.80 C 87.28 123.84 83.76 122.33 80.17 121.35 C 76.10 117.46 71.99 111.95 65.63 112.78 Z" />
<path fill="#2e3338" opacity="1.00" d=" M 59.52 92.71 C 66.96 93.64 74.84 96.09 79.71 102.14 C 79.61 102.39 79.41 102.88 79.31 103.12 C 78.30 104.58 77.22 105.99 76.11 107.38 C 74.07 108.14 72.11 106.72 70.22 106.12 C 71.63 103.62 72.29 100.83 72.56 98.00 C 68.97 96.74 65.21 96.04 61.40 95.98 C 60.83 97.55 60.26 99.12 59.71 100.71 L 59.44 101.47 C 58.98 100.38 58.53 99.29 58.09 98.19 C 59.21 96.57 59.62 94.67 59.52 92.71 Z" />
<path fill="#2e3338" opacity="1.00" d=" M 15.82 98.60 C 18.86 98.92 21.93 99.25 24.83 100.25 C 31.03 102.41 37.55 103.99 43.07 107.69 C 41.79 107.72 40.52 107.73 39.25 107.72 C 31.10 105.72 23.08 102.85 15.82 98.60 Z" />
<path fill="#2e3338" opacity="1.00" d=" M 98.31 112.15 C 99.30 110.67 101.84 112.32 100.68 113.78 C 99.68 115.26 97.14 113.61 98.31 112.15 Z" />
<path fill="#2e3338" opacity="1.00" d=" M 26.20 146.87 C 29.59 146.25 33.20 144.53 36.35 146.87 C 35.88 148.25 35.41 149.64 34.93 151.02 C 32.42 149.77 29.92 148.36 27.15 147.78 C 25.74 148.64 24.50 149.74 23.21 150.76 C 24.94 151.67 26.65 152.61 28.38 153.51 C 28.28 155.54 28.05 157.59 28.32 159.62 C 30.33 161.80 33.66 162.07 36.32 163.15 C 35.50 163.68 34.68 164.21 33.86 164.72 C 32.62 164.22 31.38 163.72 30.14 163.23 C 28.60 164.48 26.90 166.75 24.72 165.35 C 22.35 164.40 23.48 161.48 23.33 159.54 C 22.10 158.14 19.98 157.05 20.04 154.94 C 20.05 151.40 22.49 147.43 26.20 146.87 Z" />
<path fill="#2e3338" opacity="1.00" d=" M 58.59 146.23 C 62.20 144.71 66.22 144.03 69.81 146.06 C 66.90 149.30 62.44 148.69 58.55 148.72 C 58.56 148.10 58.58 146.85 58.59 146.23 Z" />
<path fill="#2e3338" opacity="1.00" d=" M 90.10 145.42 C 90.21 146.54 90.38 147.67 90.17 148.78 C 88.15 150.54 85.08 151.17 83.57 153.41 C 81.91 159.38 87.71 164.55 86.30 170.58 C 83.23 170.15 80.13 170.04 77.04 170.14 C 79.81 169.40 82.55 168.54 85.28 167.67 C 83.81 164.37 81.03 162.07 78.21 159.96 C 76.92 158.70 75.72 157.35 74.43 156.09 C 71.33 155.17 68.06 154.93 65.04 153.77 C 63.70 153.29 64.02 151.58 63.64 150.50 C 65.87 150.59 68.11 150.73 70.34 150.91 C 70.25 149.91 70.16 148.92 70.07 147.94 C 71.69 149.37 73.29 150.83 74.97 152.20 C 77.27 154.47 79.97 153.23 82.15 151.53 C 84.97 149.73 87.57 147.61 90.10 145.42 Z" />
<path fill="#2e3338" opacity="1.00" d=" M 85.55 153.99 C 87.70 152.82 89.95 151.81 92.27 151.01 C 90.99 153.01 89.64 154.95 88.29 156.89 C 87.37 155.92 86.45 154.96 85.55 153.99 Z" />
<path fill="#2e3338" opacity="1.00" d=" M 88.87 160.53 C 89.99 157.68 91.59 155.05 93.64 152.78 C 94.77 153.65 95.90 154.53 97.03 155.42 C 95.56 155.94 94.08 156.47 92.61 157.00 C 92.72 157.86 92.95 159.58 93.07 160.44 C 98.08 159.59 102.82 157.67 107.31 155.33 L 107.70 155.14 C 108.05 156.55 108.38 157.97 108.85 159.35 C 108.98 159.69 109.23 160.37 109.36 160.71 C 111.26 160.24 113.14 159.65 115.03 159.10 C 112.19 161.24 109.40 163.48 106.26 165.17 C 104.13 166.37 101.64 165.52 99.53 164.74 C 95.98 163.32 92.44 161.88 88.87 160.53 Z" />
<path fill="#2e3338" opacity="1.00" d=" M 56.27 155.00 C 62.32 155.38 68.38 155.60 74.43 156.09 C 71.97 156.66 69.50 157.21 67.03 157.74 C 67.37 158.53 67.72 159.31 68.07 160.10 C 68.55 161.18 69.03 162.26 69.52 163.35 C 71.75 162.79 74.18 161.11 76.46 162.31 C 78.23 163.13 78.48 165.27 79.25 166.86 C 76.62 167.44 74.17 168.65 72.97 171.19 C 71.67 171.59 70.39 172.03 69.11 172.45 C 66.68 172.01 64.29 171.43 61.93 170.74 C 62.73 167.50 63.45 164.24 63.96 160.95 C 63.05 161.65 62.14 162.35 61.27 163.10 C 60.91 161.95 60.56 160.80 60.22 159.66 C 58.76 159.08 57.31 158.49 55.84 157.99 C 55.94 157.24 56.16 155.75 56.27 155.00 M 67.69 170.17 C 67.32 171.60 69.74 171.94 70.27 170.81 C 70.63 169.38 68.21 169.03 67.69 170.17 Z" />
<path fill="#2e3338" opacity="1.00" d=" M 47.64 163.15 C 49.54 161.85 51.73 161.18 54.01 161.00 C 52.26 163.07 50.46 168.61 47.08 165.95 C 45.97 165.14 44.94 164.22 43.94 163.28 C 45.17 163.24 46.41 163.21 47.64 163.15 Z" />
<path fill="#2e3338" opacity="1.00" d=" M 44.29 166.16 C 49.07 167.53 53.27 170.26 57.10 173.37 C 56.80 174.52 56.49 175.66 56.16 176.80 C 55.25 177.80 54.30 178.75 53.36 179.71 C 52.68 177.53 52.08 175.32 51.54 173.10 C 47.49 171.11 42.95 172.04 38.67 171.20 C 40.74 170.40 42.79 169.54 44.82 168.61 C 42.93 168.72 41.05 168.84 39.17 169.07 C 40.89 168.12 42.61 167.17 44.29 166.16 Z" />
<path fill="#2e3338" opacity="1.00" d=" M 88.13 171.27 L 88.81 171.18 C 89.09 171.56 89.65 172.32 89.94 172.71 C 87.96 173.42 84.38 172.80 83.95 175.54 C 83.55 178.72 83.17 181.93 82.05 184.96 C 83.37 186.99 84.62 189.11 86.37 190.82 C 88.14 191.55 90.12 191.34 92.00 191.43 C 102.35 191.32 112.71 191.43 123.06 191.33 C 124.93 191.47 127.80 191.08 128.51 193.37 C 128.94 195.80 128.77 198.28 128.79 200.74 C 95.27 200.74 61.75 200.76 28.23 200.73 C 28.67 197.71 26.87 192.05 31.22 191.47 C 41.10 191.09 51.00 191.68 60.89 191.24 C 61.66 189.86 62.43 188.49 63.21 187.12 C 65.05 186.85 66.88 186.57 68.72 186.28 C 68.28 184.02 67.69 181.79 67.04 179.58 C 68.22 181.10 69.41 182.61 70.64 184.09 C 73.31 186.42 76.95 186.48 80.15 185.37 C 79.85 182.25 80.11 179.12 80.72 176.06 C 78.17 176.39 75.62 176.77 73.06 177.01 C 71.71 176.67 70.35 176.33 69.01 175.93 C 68.78 175.67 68.32 175.16 68.09 174.90 C 74.34 171.73 81.38 172.08 88.13 171.27 M 74.13 174.48 C 73.67 175.89 74.14 176.38 75.55 175.95 C 76.00 174.55 75.53 174.06 74.13 174.48 M 60.86 192.41 C 72.84 194.08 85.16 194.40 97.11 192.41 C 85.03 191.98 72.94 191.84 60.86 192.41 Z" />
</g>
<g id="#7a8086fe">
<path fill="#7a8086" opacity="1.00" d=" M 68.94 41.82 C 70.66 41.85 72.37 41.87 74.09 41.97 C 79.86 42.90 84.85 46.19 89.54 49.49 C 92.73 51.73 96.70 52.30 100.08 54.17 C 100.57 54.39 101.55 54.83 102.04 55.05 L 102.93 55.31 C 105.87 56.57 107.57 59.34 109.24 61.90 C 103.93 60.54 98.93 58.32 93.85 56.30 C 86.80 53.50 78.87 55.42 71.89 52.40 C 71.14 48.81 69.98 45.33 68.94 41.82 Z" />
<path fill="#7a8086" opacity="1.00" d=" M 114.70 66.36 C 115.13 65.91 116.01 65.02 116.45 64.57 C 121.12 68.24 123.50 73.80 126.02 79.00 C 127.68 82.65 129.21 86.79 127.96 90.82 C 126.24 97.84 120.22 102.45 114.86 106.73 C 112.92 107.18 110.99 107.65 109.07 108.12 C 108.01 103.29 107.92 98.25 106.37 93.55 C 104.10 90.89 100.32 90.46 97.04 90.58 C 95.17 90.62 93.31 90.69 91.45 90.74 L 92.09 89.94 C 93.51 89.81 94.92 89.67 96.34 89.53 C 92.08 87.88 87.50 87.58 82.99 88.04 C 79.43 88.15 75.87 88.40 72.31 88.65 C 66.98 88.24 61.42 87.22 56.23 89.01 C 50.25 91.60 48.01 99.10 41.85 101.36 C 34.26 100.41 27.16 97.17 19.76 95.30 C 19.69 94.66 19.54 93.37 19.47 92.73 C 23.52 92.19 27.63 92.15 31.66 91.51 C 35.05 90.90 37.84 87.64 41.49 88.80 C 45.03 89.67 48.73 89.94 52.11 88.30 C 50.23 85.96 48.29 83.67 46.31 81.42 C 52.71 80.33 59.16 78.57 65.71 79.48 C 74.98 80.67 84.34 82.04 93.70 81.15 C 96.77 80.88 99.43 79.16 102.18 77.92 C 100.50 81.96 97.79 85.48 94.19 87.98 C 97.85 85.44 102.22 84.67 106.56 84.32 C 111.73 83.92 114.90 79.02 116.76 74.70 C 118.11 71.78 116.12 68.82 114.70 66.36 Z" />
<path fill="#7a8086" opacity="1.00" d=" M 28.88 117.14 C 32.65 118.59 36.74 119.07 40.47 120.67 C 43.15 121.85 44.36 124.68 45.85 127.00 C 39.32 125.55 33.93 121.30 28.88 117.14 Z" />
<path fill="#7a8086" opacity="1.00" d=" M 91.08 123.80 C 95.71 123.91 99.85 121.56 104.15 120.19 C 101.43 123.63 98.25 126.96 94.17 128.75 L 93.54 128.57 C 87.17 126.18 80.58 121.61 73.55 124.33 C 75.46 122.79 77.58 121.27 80.17 121.35 C 83.76 122.33 87.28 123.84 91.08 123.80 Z" />
<path fill="#7a8086" opacity="1.00" d=" M 48.84 132.08 C 50.07 132.53 51.30 132.96 52.54 133.39 C 66.03 137.59 80.77 140.66 94.72 136.98 C 96.69 138.13 98.69 139.25 100.71 140.32 C 97.86 144.32 99.20 149.04 100.08 153.43 C 102.78 152.88 105.64 152.71 107.31 155.33 C 102.82 157.67 98.08 159.59 93.07 160.44 C 92.95 159.58 92.72 157.86 92.61 157.00 C 94.08 156.47 95.56 155.94 97.03 155.42 C 95.90 154.53 94.77 153.65 93.64 152.78 C 91.59 155.05 89.99 157.68 88.87 160.53 C 92.44 161.88 95.98 163.32 99.53 164.74 C 96.43 168.01 92.05 169.31 88.13 171.27 C 87.67 171.09 86.76 170.75 86.30 170.58 C 87.71 164.55 81.91 159.38 83.57 153.41 C 85.08 151.17 88.15 150.54 90.17 148.78 C 90.38 147.67 90.21 146.54 90.10 145.42 C 88.37 143.78 86.23 142.69 83.82 142.63 C 76.04 141.62 68.33 139.82 60.98 137.05 C 57.29 135.67 53.37 135.13 49.47 134.69 C 49.31 134.04 49.00 132.74 48.84 132.08 M 91.39 145.17 C 92.55 148.09 94.91 150.16 98.11 150.44 C 98.20 147.96 98.25 145.47 98.26 142.99 C 95.96 143.69 93.67 144.41 91.39 145.17 M 85.55 153.99 C 86.45 154.96 87.37 155.92 88.29 156.89 C 89.64 154.95 90.99 153.01 92.27 151.01 C 89.95 151.81 87.70 152.82 85.55 153.99 Z" />
<path fill="#7a8086" opacity="1.00" d=" M 49.61 145.44 C 50.85 144.61 52.06 143.76 53.28 142.90 C 55.00 144.09 56.76 145.21 58.59 146.23 C 58.58 146.85 58.56 148.10 58.55 148.72 C 58.54 149.17 58.51 150.05 58.50 150.49 C 60.21 150.45 61.92 150.44 63.64 150.50 C 64.02 151.58 63.70 153.29 65.04 153.77 C 68.06 154.93 71.33 155.17 74.43 156.09 C 68.38 155.60 62.32 155.38 56.27 155.00 C 55.79 151.90 54.96 148.87 53.97 145.91 C 52.51 145.75 51.06 145.60 49.61 145.44 Z" />
<path fill="#7a8086" opacity="1.00" d=" M 43.16 160.91 C 47.42 160.09 51.42 157.59 55.84 157.99 C 57.31 158.49 58.76 159.08 60.22 159.66 C 60.56 160.80 60.91 161.95 61.27 163.10 C 60.07 165.06 58.97 167.09 58.15 169.24 C 59.35 169.89 60.63 170.33 61.93 170.74 C 64.29 171.43 66.68 172.01 69.11 172.45 C 68.52 172.66 67.35 173.07 66.77 173.27 C 67.10 173.68 67.76 174.49 68.09 174.90 C 68.32 175.16 68.78 175.67 69.01 175.93 C 68.35 177.14 67.69 178.36 67.04 179.58 C 66.69 179.37 65.99 178.96 65.63 178.75 C 64.27 177.94 62.88 177.16 61.53 176.35 C 60.01 175.41 58.53 174.42 57.10 173.37 C 53.27 170.26 49.07 167.53 44.29 166.16 C 41.86 165.33 39.43 164.49 37.11 163.40 C 39.09 162.49 41.08 161.57 43.16 160.91 M 47.64 163.15 C 46.41 163.21 45.17 163.24 43.94 163.28 C 44.94 164.22 45.97 165.14 47.08 165.95 C 50.46 168.61 52.26 163.07 54.01 161.00 C 51.73 161.18 49.54 161.85 47.64 163.15 Z" />
<path fill="#7a8086" opacity="1.00" d=" M 68.07 160.10 C 71.45 160.31 74.84 160.33 78.21 159.96 C 81.03 162.07 83.81 164.37 85.28 167.67 C 82.55 168.54 79.81 169.40 77.04 170.14 C 75.67 170.46 74.31 170.81 72.97 171.19 C 74.17 168.65 76.62 167.44 79.25 166.86 C 78.48 165.27 78.23 163.13 76.46 162.31 C 74.18 161.11 71.75 162.79 69.52 163.35 C 69.03 162.26 68.55 161.18 68.07 160.10 Z" />
<path fill="#7a8086" opacity="1.00" d=" M 39.17 169.07 C 41.05 168.84 42.93 168.72 44.82 168.61 C 42.79 169.54 40.74 170.40 38.67 171.20 L 37.73 171.55 C 38.09 170.93 38.81 169.69 39.17 169.07 Z" />
<path fill="#7a8086" opacity="1.00" d=" M 67.69 170.17 C 68.21 169.03 70.63 169.38 70.27 170.81 C 69.74 171.94 67.32 171.60 67.69 170.17 Z" />
<path fill="#7a8086" opacity="1.00" d=" M 73.06 177.01 C 75.62 176.77 78.17 176.39 80.72 176.06 C 80.11 179.12 79.85 182.25 80.15 185.37 C 76.95 186.48 73.31 186.42 70.64 184.09 C 73.48 182.95 75.95 181.12 78.11 178.97 C 76.44 178.27 74.77 177.58 73.06 177.01 Z" />
<path fill="#7a8086" opacity="1.00" d=" M 60.86 192.41 C 72.94 191.84 85.03 191.98 97.11 192.41 C 85.16 194.40 72.84 194.08 60.86 192.41 Z" />
</g>
<g id="#aab7c1fe">
<path fill="#aab7c1" opacity="1.00" d=" M 47.42 48.38 C 49.90 46.33 52.92 45.11 55.88 43.95 C 56.18 47.67 56.20 51.44 56.89 55.13 C 57.18 57.44 59.31 58.76 60.84 60.26 C 55.45 60.13 49.84 59.43 44.71 61.54 C 39.28 63.75 33.83 65.97 28.04 67.03 C 31.56 63.14 36.82 61.29 40.03 57.08 C 42.40 54.11 44.40 50.77 47.42 48.38 Z" />
<path fill="#aab7c1" opacity="1.00" d=" M 71.89 52.40 C 78.87 55.42 86.80 53.50 93.85 56.30 C 98.93 58.32 103.93 60.54 109.24 61.90 C 111.06 63.38 112.93 64.81 114.70 66.36 C 116.12 68.82 118.11 71.78 116.76 74.70 C 114.90 79.02 111.73 83.92 106.56 84.32 C 102.22 84.67 97.85 85.44 94.19 87.98 C 97.79 85.48 100.50 81.96 102.18 77.92 C 99.43 79.16 96.77 80.88 93.70 81.15 C 84.34 82.04 74.98 80.67 65.71 79.48 C 59.16 78.57 52.71 80.33 46.31 81.42 C 48.29 83.67 50.23 85.96 52.11 88.30 C 48.73 89.94 45.03 89.67 41.49 88.80 C 37.84 87.64 35.05 90.90 31.66 91.51 C 27.63 92.15 23.52 92.19 19.47 92.73 C 19.54 93.37 19.69 94.66 19.76 95.30 C 18.40 94.90 17.04 94.49 15.68 94.06 C 16.02 89.27 17.71 84.74 18.56 80.04 L 18.82 80.58 C 20.39 84.89 25.68 86.22 29.80 86.05 C 33.67 84.98 35.49 80.87 38.75 78.83 C 42.63 77.91 47.11 79.20 50.45 76.50 C 54.22 73.63 58.78 72.28 63.36 71.36 C 70.34 69.34 78.01 67.70 83.27 62.29 C 79.38 60.85 75.37 59.58 71.21 59.29 C 71.53 57.00 71.84 54.71 71.89 52.40 Z" />
<path fill="#aab7c1" opacity="1.00" d=" M 8.82 96.13 C 11.17 96.90 13.50 97.74 15.82 98.60 C 23.08 102.85 31.10 105.72 39.25 107.72 C 39.00 110.51 38.76 113.29 38.54 116.08 C 36.85 115.71 35.14 115.43 33.45 115.06 C 32.86 113.25 32.93 110.93 31.20 109.75 C 26.02 105.81 20.04 103.04 13.87 101.04 C 11.41 100.40 10.14 98.07 8.82 96.13 Z" />
<path fill="#aab7c1" opacity="1.00" d=" M 99.37 101.16 C 100.87 101.43 102.53 101.30 103.89 102.07 C 105.23 103.68 106.08 105.62 107.05 107.47 C 105.38 108.00 103.71 108.52 102.04 109.05 C 101.53 109.20 100.50 109.51 99.99 109.67 C 98.60 107.00 98.78 104.01 99.37 101.16 Z" />
<path fill="#aab7c1" opacity="1.00" d=" M 65.63 112.78 C 71.99 111.95 76.10 117.46 80.17 121.35 C 77.58 121.27 75.46 122.79 73.55 124.33 C 80.58 121.61 87.17 126.18 93.54 128.57 C 86.59 130.49 78.73 129.41 72.79 125.24 C 68.82 122.34 65.20 118.02 65.63 112.78 Z" />
<path fill="#aab7c1" opacity="1.00" d=" M 83.82 142.63 C 86.23 142.69 88.37 143.78 90.10 145.42 C 87.57 147.61 84.97 149.73 82.15 151.53 C 83.41 148.82 84.80 146.17 86.25 143.56 C 85.64 143.33 84.43 142.86 83.82 142.63 Z" />
<path fill="#aab7c1" opacity="1.00" d=" M 91.39 145.17 C 93.67 144.41 95.96 143.69 98.26 142.99 C 98.25 145.47 98.20 147.96 98.11 150.44 C 94.91 150.16 92.55 148.09 91.39 145.17 Z" />
<path fill="#aab7c1" opacity="1.00" d=" M 74.97 152.20 C 76.77 150.46 78.58 148.74 80.40 147.03 C 80.98 148.53 81.56 150.03 82.15 151.53 C 79.97 153.23 77.27 154.47 74.97 152.20 Z" />
<path fill="#aab7c1" opacity="1.00" d=" M 108.85 159.35 C 110.94 158.24 113.06 157.18 115.24 156.27 C 115.37 156.92 115.64 158.22 115.77 158.87 L 115.03 159.10 C 113.14 159.65 111.26 160.24 109.36 160.71 C 109.23 160.37 108.98 159.69 108.85 159.35 Z" />
</g>
<g id="#e1dfd9fe">
<path fill="#e1dfd9" opacity="1.00" d=" M 60.84 60.26 C 64.31 60.11 67.75 59.55 71.21 59.29 C 75.37 59.58 79.38 60.85 83.27 62.29 C 78.01 67.70 70.34 69.34 63.36 71.36 C 58.78 72.28 54.22 73.63 50.45 76.50 C 47.11 79.20 42.63 77.91 38.75 78.83 C 35.49 80.87 33.67 84.98 29.80 86.05 C 25.68 86.22 20.39 84.89 18.82 80.58 C 20.15 75.27 22.96 69.59 28.04 67.03 C 33.83 65.97 39.28 63.75 44.71 61.54 C 49.84 59.43 55.45 60.13 60.84 60.26 Z" />
<path fill="#e1dfd9" opacity="1.00" d=" M 72.31 88.65 C 75.87 88.40 79.43 88.15 82.99 88.04 C 83.31 90.74 83.57 93.45 83.76 96.17 C 79.61 94.20 75.92 91.45 72.31 88.65 Z" />
<path fill="#e1dfd9" opacity="1.00" d=" M 91.93 97.33 C 91.38 95.18 90.98 92.95 91.45 90.74 C 93.31 90.69 95.17 90.62 97.04 90.58 C 95.73 93.11 94.02 95.40 91.93 97.33 Z" />
<path fill="#e1dfd9" opacity="1.00" d=" M 61.40 95.98 C 65.21 96.04 68.97 96.74 72.56 98.00 C 72.29 100.83 71.63 103.62 70.22 106.12 C 66.52 104.91 62.75 103.93 58.99 102.91 C 59.17 102.36 59.53 101.26 59.71 100.71 C 60.26 99.12 60.83 97.55 61.40 95.98 Z" />
<path fill="#e1dfd9" opacity="1.00" d=" M 76.11 107.38 C 77.22 105.99 78.30 104.58 79.31 103.12 C 79.33 104.64 80.58 106.83 78.65 107.63 C 77.87 107.76 76.30 108.02 75.52 108.14 L 76.11 107.38 Z" />
<path fill="#e1dfd9" opacity="1.00" d=" M 96.39 110.55 C 93.86 111.26 93.02 107.77 94.16 106.07 C 95.26 107.35 96.10 108.88 96.39 110.55 Z" />
<path fill="#e1dfd9" opacity="1.00" d=" M 49.47 134.69 C 53.37 135.13 57.29 135.67 60.98 137.05 C 68.33 139.82 76.04 141.62 83.82 142.63 C 84.43 142.86 85.64 143.33 86.25 143.56 C 84.80 146.17 83.41 148.82 82.15 151.53 C 81.56 150.03 80.98 148.53 80.40 147.03 C 78.58 148.74 76.77 150.46 74.97 152.20 C 73.29 150.83 71.69 149.37 70.07 147.94 C 70.16 148.92 70.25 149.91 70.34 150.91 C 68.11 150.73 65.87 150.59 63.64 150.50 C 61.92 150.44 60.21 150.45 58.50 150.49 C 58.51 150.05 58.54 149.17 58.55 148.72 C 62.44 148.69 66.90 149.30 69.81 146.06 C 66.22 144.03 62.20 144.71 58.59 146.23 C 56.76 145.21 55.00 144.09 53.28 142.90 C 52.06 143.76 50.85 144.61 49.61 145.44 C 49.19 145.71 48.37 146.23 47.96 146.50 C 47.26 142.45 49.11 138.66 49.47 134.69 Z" />
<path fill="#e1dfd9" opacity="1.00" d=" M 23.21 150.76 C 24.50 149.74 25.74 148.64 27.15 147.78 C 29.92 148.36 32.42 149.77 34.93 151.02 C 39.44 152.57 40.48 157.52 43.16 160.91 C 41.08 161.57 39.09 162.49 37.11 163.40 L 36.32 163.15 C 33.66 162.07 30.33 161.80 28.32 159.62 C 28.05 157.59 28.28 155.54 28.38 153.51 C 26.65 152.61 24.94 151.67 23.21 150.76 Z" />
<path fill="#e1dfd9" opacity="1.00" d=" M 77.04 170.14 C 80.13 170.04 83.23 170.15 86.30 170.58 C 86.76 170.75 87.67 171.09 88.13 171.27 C 81.38 172.08 74.34 171.73 68.09 174.90 C 67.76 174.49 67.10 173.68 66.77 173.27 C 67.35 173.07 68.52 172.66 69.11 172.45 C 70.39 172.03 71.67 171.59 72.97 171.19 C 74.31 170.81 75.67 170.46 77.04 170.14 Z" />
<path fill="#e1dfd9" opacity="1.00" d=" M 69.01 175.93 C 70.35 176.33 71.71 176.67 73.06 177.01 C 74.77 177.58 76.44 178.27 78.11 178.97 C 75.95 181.12 73.48 182.95 70.64 184.09 C 69.41 182.61 68.22 181.10 67.04 179.58 C 67.69 178.36 68.35 177.14 69.01 175.93 Z" />
</g>
<g id="#386799fe">
<path fill="#386799" opacity="1.00" d=" M 56.23 89.01 C 61.42 87.22 66.98 88.24 72.31 88.65 C 75.92 91.45 79.61 94.20 83.76 96.17 C 83.57 93.45 83.31 90.74 82.99 88.04 C 86.00 88.79 89.02 89.51 92.09 89.94 L 91.45 90.74 C 90.98 92.95 91.38 95.18 91.93 97.33 C 94.02 95.40 95.73 93.11 97.04 90.58 C 99.02 91.49 101.01 92.37 103.00 93.25 C 102.44 95.10 102.44 97.34 100.86 98.68 C 98.45 100.97 95.16 102.65 94.16 106.07 C 93.02 107.77 93.86 111.26 96.39 110.55 C 97.60 110.30 98.80 110.01 99.99 109.67 C 100.50 109.51 101.53 109.20 102.04 109.05 C 103.75 110.14 105.40 111.32 107.02 112.54 C 101.80 116.29 95.75 119.94 89.03 119.03 C 80.85 118.62 75.97 110.84 68.51 108.57 C 65.10 107.46 61.16 110.39 61.35 114.00 C 61.52 119.10 65.03 123.17 67.72 127.22 C 60.19 127.06 53.06 124.50 45.72 123.19 C 43.99 120.24 42.23 116.82 38.54 116.08 C 38.76 113.29 39.00 110.51 39.25 107.72 C 40.52 107.73 41.79 107.72 43.07 107.69 C 37.55 103.99 31.03 102.41 24.83 100.25 C 21.93 99.25 18.86 98.92 15.82 98.60 C 13.50 97.74 11.17 96.90 8.82 96.13 C 10.14 98.07 11.41 100.40 13.87 101.04 C 20.04 103.04 26.02 105.81 31.20 109.75 C 32.93 110.93 32.86 113.25 33.45 115.06 C 25.31 113.61 19.26 107.61 12.28 103.69 C 7.61 100.64 3.62 94.26 6.79 88.82 C 9.62 90.77 12.31 93.10 15.68 94.06 C 17.04 94.49 18.40 94.90 19.76 95.30 C 27.16 97.17 34.26 100.41 41.85 101.36 C 48.01 99.10 50.25 91.60 56.23 89.01 M 59.52 92.71 C 59.62 94.67 59.21 96.57 58.09 98.19 C 58.53 99.29 58.98 100.38 59.44 101.47 L 59.71 100.71 C 59.53 101.26 59.17 102.36 58.99 102.91 C 62.75 103.93 66.52 104.91 70.22 106.12 C 72.11 106.72 74.07 108.14 76.11 107.38 L 75.52 108.14 C 76.30 108.02 77.87 107.76 78.65 107.63 C 80.58 106.83 79.33 104.64 79.31 103.12 C 79.41 102.88 79.61 102.39 79.71 102.14 C 74.84 96.09 66.96 93.64 59.52 92.71 M 98.31 112.15 C 97.14 113.61 99.68 115.26 100.68 113.78 C 101.84 112.32 99.30 110.67 98.31 112.15 Z" />
<path fill="#386799" opacity="1.00" d=" M 114.56 117.61 C 116.66 115.68 119.47 116.35 121.83 117.33 C 119.69 119.77 117.25 121.97 114.26 123.32 C 114.24 121.42 114.16 119.49 114.56 117.61 Z" />
<path fill="#386799" opacity="1.00" d=" M 74.43 156.09 C 75.72 157.35 76.92 158.70 78.21 159.96 C 74.84 160.33 71.45 160.31 68.07 160.10 C 67.72 159.31 67.37 158.53 67.03 157.74 C 69.50 157.21 71.97 156.66 74.43 156.09 Z" />
<path fill="#386799" opacity="1.00" d=" M 61.53 176.35 C 62.88 177.16 64.27 177.94 65.63 178.75 C 63.03 179.74 60.76 181.39 58.84 183.40 C 59.68 183.76 61.36 184.49 62.20 184.85 C 59.52 188.14 54.78 187.31 51.04 187.13 C 51.36 184.56 51.01 181.45 53.36 179.71 C 54.30 178.75 55.25 177.80 56.16 176.80 C 56.80 177.95 57.42 179.11 58.04 180.27 C 59.23 178.99 60.36 177.65 61.53 176.35 Z" />
</g>
</svg>
