<?xml version="1.0" encoding="UTF-8" ?>
<!DOCTYPE svg PUBLIC "-//W3C//DTD SVG 1.1//EN" "http://www.w3.org/Graphics/SVG/1.1/DTD/svg11.dtd">
<svg width="155pt" height="210pt" viewBox="0 0 155 210" version="1.1" xmlns="http://www.w3.org/2000/svg">
<g id="#cccabcff">
<path fill="#cccabc" opacity="1.00" d=" M 100.63 35.94 C 103.29 33.10 108.33 33.72 111.61 35.19 C 113.75 38.02 113.85 41.95 114.85 45.30 C 110.18 45.46 105.50 45.48 100.83 45.31 C 100.72 42.19 100.58 39.06 100.63 35.94 Z" />
<path fill="#cccabc" opacity="1.00" d=" M 43.72 36.70 C 47.03 34.46 51.22 35.46 54.88 36.04 C 55.22 39.73 55.22 43.46 54.70 47.13 C 50.14 46.96 45.59 46.82 41.03 46.93 C 41.80 43.52 41.90 39.77 43.72 36.70 Z" />
<path fill="#cccabc" opacity="1.00" d=" M 27.98 94.66 C 32.88 96.49 37.05 99.70 40.95 103.11 C 41.63 101.18 42.27 99.23 43.03 97.33 C 43.57 96.29 44.36 95.43 45.40 94.77 C 45.28 95.23 45.03 96.16 44.91 96.62 C 43.55 101.79 42.07 106.93 40.21 111.95 C 40.20 111.28 40.17 109.93 40.15 109.25 C 40.14 107.79 40.14 106.32 40.14 104.86 C 35.61 102.09 31.18 98.97 27.98 94.66 Z" />
<path fill="#cccabc" opacity="1.00" d=" M 104.21 94.63 C 106.47 95.88 109.54 96.60 110.49 99.31 C 112.93 105.61 113.56 112.45 113.94 119.15 C 113.90 122.29 114.37 126.33 111.38 128.35 C 105.73 132.19 98.69 133.01 92.12 134.22 C 89.92 133.73 87.76 133.09 85.59 132.46 C 85.45 130.81 85.32 129.16 85.18 127.51 C 90.27 127.01 95.36 126.11 100.04 123.96 C 103.80 122.45 107.38 120.52 111.01 118.72 C 111.55 113.30 112.11 107.75 110.92 102.37 C 110.31 98.71 106.70 96.92 104.21 94.63 Z" />
<path fill="#cccabc" opacity="1.00" d=" M 61.21 105.47 C 66.54 104.44 68.50 114.32 62.84 114.71 C 57.58 115.58 55.96 106.23 61.21 105.47 Z" />
<path fill="#cccabc" opacity="1.00" d=" M 96.39 105.21 C 99.52 103.31 103.21 106.55 102.26 109.93 C 102.03 113.18 98.40 114.63 95.64 113.45 C 92.99 111.55 93.46 106.62 96.39 105.21 Z" />
<path fill="#cccabc" opacity="1.00" d=" M 47.29 119.11 C 47.73 115.64 48.22 112.16 48.61 108.68 C 49.19 112.93 48.03 119.06 52.62 121.40 C 57.29 123.87 62.49 125.14 67.64 126.18 C 71.31 126.90 75.05 127.29 78.78 127.54 C 79.34 129.39 79.89 131.23 80.45 133.08 C 75.28 132.93 70.12 133.07 65.01 133.95 C 59.71 133.39 53.97 132.75 49.63 129.35 C 46.69 126.84 47.44 122.55 47.29 119.11 Z" />
<path fill="#cccabc" opacity="1.00" d=" M 122.23 114.38 L 122.84 114.30 C 127.72 118.08 129.33 124.35 131.83 129.71 C 129.01 132.24 127.64 135.75 126.89 139.39 C 124.17 139.31 121.44 139.19 118.73 139.02 C 117.66 134.11 116.53 128.86 118.21 123.94 C 119.33 120.67 120.95 117.59 122.23 114.38 Z" />
<path fill="#cccabc" opacity="1.00" d=" M 33.00 129.13 C 33.87 125.28 34.69 121.23 37.43 118.22 C 39.71 119.76 42.04 121.23 44.40 122.64 C 44.17 128.00 44.52 133.38 43.97 138.73 L 43.88 139.66 C 41.08 140.47 38.27 141.18 35.44 141.86 C 34.70 137.59 31.41 133.56 33.00 129.13 Z" />
<path fill="#cccabc" opacity="1.00" d=" M 55.64 156.82 C 57.53 156.68 59.43 156.84 61.29 157.23 C 60.54 158.09 59.80 158.96 59.00 159.77 C 57.82 158.85 56.69 157.87 55.64 156.82 Z" />
<path fill="#cccabc" opacity="1.00" d=" M 96.20 159.19 C 98.69 158.50 101.36 157.87 103.25 160.10 C 101.16 160.59 99.06 161.02 96.97 161.50 C 96.71 160.73 96.45 159.96 96.20 159.19 Z" />
<path fill="#cccabc" opacity="1.00" d=" M 97.52 164.54 C 99.17 163.00 101.31 162.39 103.48 162.06 C 103.96 163.01 104.44 163.97 104.91 164.94 C 102.44 164.86 99.98 164.77 97.52 164.54 Z" />
</g>
<g id="#810505ff">
<path fill="#810505" opacity="1.00" d=" M 100.72 47.66 C 100.48 43.76 100.42 39.84 100.63 35.94 C 100.58 39.06 100.72 42.19 100.83 45.31 C 105.50 45.48 110.18 45.46 114.85 45.30 C 116.11 50.63 116.97 56.05 118.25 61.38 C 120.35 62.66 123.14 63.67 123.79 66.34 C 125.31 70.35 121.33 73.32 119.21 76.17 C 122.00 80.90 121.40 86.58 119.44 91.49 C 119.02 92.67 118.05 93.96 116.63 93.76 C 115.79 93.75 114.95 93.74 114.11 93.72 C 114.30 98.60 114.41 103.48 114.69 108.36 C 115.03 113.99 115.97 119.56 116.10 125.20 C 115.81 126.62 115.48 128.04 115.21 129.46 C 108.56 132.46 101.97 135.69 94.79 137.28 C 92.72 137.79 90.63 138.23 88.52 138.59 C 88.13 138.38 87.34 137.97 86.95 137.76 C 87.36 136.79 87.78 135.82 88.20 134.86 C 89.51 134.64 90.81 134.43 92.12 134.22 C 98.69 133.01 105.73 132.19 111.38 128.35 C 114.37 126.33 113.90 122.29 113.94 119.15 C 113.56 112.45 112.93 105.61 110.49 99.31 C 109.54 96.60 106.47 95.88 104.21 94.63 C 106.70 96.92 110.31 98.71 110.92 102.37 C 112.11 107.75 111.55 113.30 111.01 118.72 C 107.38 120.52 103.80 122.45 100.04 123.96 C 94.15 125.13 88.17 125.62 82.20 126.09 C 82.60 123.86 83.31 121.63 83.16 119.35 C 82.57 117.19 81.13 115.40 79.98 113.52 C 78.85 115.44 77.46 117.29 76.91 119.47 C 76.65 121.68 77.24 123.87 77.55 126.05 C 74.25 126.14 70.94 126.28 67.64 126.18 C 62.49 125.14 57.29 123.87 52.62 121.40 C 48.03 119.06 49.19 112.93 48.61 108.68 C 48.88 106.17 49.10 103.59 50.10 101.24 C 51.47 98.91 53.77 97.36 55.69 95.52 C 53.96 96.45 52.08 97.19 50.62 98.53 C 48.81 101.44 48.08 104.89 47.27 108.19 C 47.42 103.22 47.24 98.22 46.20 93.35 C 45.47 88.60 39.46 87.65 37.67 83.49 C 35.90 79.20 33.61 74.82 33.57 70.09 C 35.02 67.66 37.87 66.06 38.40 63.13 C 39.46 57.76 39.93 52.30 41.03 46.93 C 45.59 46.82 50.14 46.96 54.70 47.13 C 58.23 47.26 60.51 43.56 63.90 43.19 C 66.74 44.04 68.99 46.07 71.33 47.80 C 76.37 46.11 81.12 43.60 86.22 42.08 C 90.52 40.60 92.72 45.58 94.97 48.24 C 96.88 48.04 98.80 47.85 100.72 47.66 M 97.52 68.88 C 97.07 70.75 96.60 72.62 96.18 74.50 C 90.97 75.02 85.78 75.70 80.66 76.79 C 74.50 78.20 68.26 76.58 62.09 76.12 C 61.39 74.01 60.51 71.97 59.65 69.92 C 58.96 72.10 58.47 74.37 57.37 76.39 C 53.20 79.21 47.88 78.63 43.13 78.24 C 46.72 82.87 49.82 87.88 53.64 92.34 C 56.32 95.74 60.96 93.96 64.45 93.22 C 67.42 88.93 69.13 82.67 74.83 81.34 C 75.69 86.46 75.96 91.65 76.59 96.79 C 76.77 91.45 76.52 86.11 76.80 80.77 C 78.87 80.78 80.94 80.79 83.01 80.81 C 83.12 83.54 83.21 86.26 83.27 88.98 C 84.16 86.75 85.08 84.53 86.02 82.32 C 88.49 85.94 91.01 89.60 94.50 92.33 C 98.02 92.92 102.79 94.82 105.48 91.46 C 108.96 86.64 111.52 81.23 114.83 76.29 C 110.13 77.27 104.82 78.20 100.43 75.67 C 99.03 73.62 98.39 71.18 97.52 68.88 M 97.31 100.10 C 92.24 100.73 90.64 106.58 90.21 110.87 C 91.12 114.29 93.89 118.36 97.91 117.88 C 101.86 117.91 105.45 115.40 106.80 111.70 C 108.83 108.02 106.02 104.07 103.78 101.23 C 102.32 99.04 99.48 99.67 97.31 100.10 M 53.76 113.14 C 55.53 119.04 65.30 120.99 68.21 115.05 C 71.04 111.38 68.72 106.72 66.55 103.38 C 64.47 100.26 60.13 101.10 56.92 100.52 C 54.77 104.26 51.28 108.70 53.76 113.14 Z" />
<path fill="#810505" opacity="1.00" d=" M 127.72 90.75 C 131.17 88.61 135.12 87.48 139.11 86.95 C 135.43 95.42 128.79 102.65 120.88 107.38 C 120.67 106.03 120.46 104.68 120.28 103.34 C 125.06 100.51 129.60 97.02 132.31 92.06 C 127.28 94.34 123.02 97.89 118.80 101.39 C 118.28 99.74 117.77 98.09 117.32 96.43 C 121.34 95.72 124.26 92.65 127.72 90.75 Z" />
<path fill="#810505" opacity="1.00" d=" M 20.81 89.69 C 28.40 89.68 35.10 93.68 41.10 97.90 C 41.58 97.76 42.54 97.47 43.03 97.33 C 42.27 99.23 41.63 101.18 40.95 103.11 C 37.05 99.70 32.88 96.49 27.98 94.66 C 31.18 98.97 35.61 102.09 40.14 104.86 C 40.14 106.32 40.14 107.79 40.15 109.25 C 32.30 104.47 25.16 97.86 20.81 89.69 Z" />
<path fill="#810505" opacity="1.00" d=" M 44.50 121.81 C 45.30 117.81 46.53 113.91 47.12 109.88 C 47.07 112.96 47.22 116.04 47.29 119.11 C 47.44 122.55 46.69 126.84 49.63 129.35 C 53.97 132.75 59.71 133.39 65.01 133.95 C 67.06 134.51 68.98 135.52 70.49 137.05 C 69.19 137.39 67.88 137.71 66.58 138.04 C 60.64 135.98 54.28 135.10 48.66 132.18 C 45.68 129.57 44.60 125.64 44.50 121.81 Z" />
<path fill="#810505" opacity="1.00" d=" M 101.23 171.61 C 102.35 171.65 103.47 171.70 104.60 171.79 L 105.55 171.89 C 107.22 173.37 108.77 174.98 110.29 176.62 C 106.38 178.29 102.10 178.47 98.05 177.23 C 99.11 175.35 100.17 173.48 101.23 171.61 Z" />
</g>
<g id="#a19883ff">
<path fill="#a19883" opacity="1.00" d=" M 97.52 68.88 C 98.39 71.18 99.03 73.62 100.43 75.67 C 104.82 78.20 110.13 77.27 114.83 76.29 C 111.52 81.23 108.96 86.64 105.48 91.46 C 102.79 94.82 98.02 92.92 94.50 92.33 C 94.56 86.36 94.76 80.33 96.18 74.50 C 96.60 72.62 97.07 70.75 97.52 68.88 Z" />
<path fill="#a19883" opacity="1.00" d=" M 59.65 69.92 C 60.51 71.97 61.39 74.01 62.09 76.12 C 64.02 81.61 64.41 87.45 64.45 93.22 C 60.96 93.96 56.32 95.74 53.64 92.34 C 49.82 87.88 46.72 82.87 43.13 78.24 C 47.88 78.63 53.20 79.21 57.37 76.39 C 58.47 74.37 58.96 72.10 59.65 69.92 Z" />
<path fill="#a19883" opacity="1.00" d=" M 118.80 101.39 C 123.02 97.89 127.28 94.34 132.31 92.06 C 129.60 97.02 125.06 100.51 120.28 103.34 C 120.46 104.68 120.67 106.03 120.88 107.38 C 120.95 107.91 121.11 108.98 121.19 109.52 C 119.00 109.24 116.84 108.82 114.69 108.36 C 114.41 103.48 114.30 98.60 114.11 93.72 C 114.95 93.74 115.79 93.75 116.63 93.76 C 116.80 94.42 117.15 95.76 117.32 96.43 C 117.77 98.09 118.28 99.74 118.80 101.39 Z" />
<path fill="#a19883" opacity="1.00" d=" M 50.62 98.53 C 52.08 97.19 53.96 96.45 55.69 95.52 C 53.77 97.36 51.47 98.91 50.10 101.24 C 49.10 103.59 48.88 106.17 48.61 108.68 C 48.22 112.16 47.73 115.64 47.29 119.11 C 47.22 116.04 47.07 112.96 47.12 109.88 C 47.16 109.46 47.24 108.61 47.27 108.19 C 48.08 104.89 48.81 101.44 50.62 98.53 Z" />
<path fill="#a19883" opacity="1.00" d=" M 40.21 111.95 C 42.07 106.93 43.55 101.79 44.91 96.62 C 45.09 101.16 46.14 105.96 44.35 110.31 C 43.09 111.11 41.64 111.55 40.21 111.95 Z" />
<path fill="#a19883" opacity="1.00" d=" M 76.91 119.47 C 77.46 117.29 78.85 115.44 79.98 113.52 C 81.13 115.40 82.57 117.19 83.16 119.35 C 83.31 121.63 82.60 123.86 82.20 126.09 C 88.17 125.62 94.15 125.13 100.04 123.96 C 95.36 126.11 90.27 127.01 85.18 127.51 C 85.32 129.16 85.45 130.81 85.59 132.46 C 83.88 132.70 82.17 132.94 80.45 133.08 C 79.89 131.23 79.34 129.39 78.78 127.54 C 75.05 127.29 71.31 126.90 67.64 126.18 C 70.94 126.28 74.25 126.14 77.55 126.05 C 77.24 123.87 76.65 121.68 76.91 119.47 Z" />
<path fill="#a19883" opacity="1.00" d=" M 118.28 115.18 C 119.59 114.90 120.91 114.62 122.23 114.38 C 120.95 117.59 119.33 120.67 118.21 123.94 C 116.53 128.86 117.66 134.11 118.73 139.02 C 117.66 138.78 116.60 138.54 115.53 138.31 C 115.09 135.39 114.52 132.39 115.21 129.46 C 115.48 128.04 115.81 126.62 116.10 125.20 C 116.85 121.87 117.61 118.53 118.28 115.18 Z" />
<path fill="#a19883" opacity="1.00" d=" M 39.71 115.42 C 40.82 116.27 41.97 117.07 43.11 117.88 C 43.55 119.46 43.98 121.05 44.40 122.64 C 42.04 121.23 39.71 119.76 37.43 118.22 C 38.00 117.52 39.14 116.12 39.71 115.42 Z" />
<path fill="#a19883" opacity="1.00" d=" M 44.40 122.64 L 44.50 121.81 C 44.60 125.64 45.68 129.57 48.66 132.18 C 48.72 134.85 48.75 137.52 48.78 140.19 C 47.17 139.71 45.57 139.21 43.97 138.73 C 44.52 133.38 44.17 128.00 44.40 122.64 Z" />
<path fill="#a19883" opacity="1.00" d=" M 70.49 137.05 C 71.19 138.57 71.82 140.12 72.49 141.66 C 72.17 142.86 71.85 144.07 71.53 145.28 C 70.37 145.38 69.22 145.49 68.07 145.60 C 68.12 146.10 68.22 147.11 68.27 147.61 C 70.32 148.39 72.38 149.13 74.43 149.90 C 74.19 152.49 73.94 155.07 73.71 157.66 C 74.89 157.34 76.07 157.01 77.26 156.69 C 79.19 160.84 83.29 162.78 87.56 163.66 C 87.62 164.19 87.74 165.26 87.80 165.80 C 85.28 165.68 82.75 165.56 80.23 165.44 C 80.13 169.11 80.04 172.79 80.01 176.46 C 78.46 175.07 76.90 173.68 75.39 172.24 C 74.92 173.54 74.46 174.85 74.00 176.16 C 71.14 173.27 70.13 169.33 70.59 165.36 C 69.02 164.88 67.45 164.41 65.88 163.94 C 66.64 161.47 67.61 159.08 68.70 156.74 C 66.67 152.81 64.94 148.61 65.01 144.10 C 65.36 142.04 66.01 140.04 66.58 138.04 C 67.88 137.71 69.19 137.39 70.49 137.05 Z" />
<path fill="#a19883" opacity="1.00" d=" M 88.52 138.59 C 90.63 138.23 92.72 137.79 94.79 137.28 C 94.55 139.70 94.57 142.14 94.54 144.58 C 94.94 149.43 91.69 153.29 88.69 156.68 C 87.57 154.16 85.65 151.52 86.46 148.63 C 88.01 146.94 89.99 145.75 91.85 144.46 C 90.76 142.49 89.69 140.51 88.52 138.59 Z" />
<path fill="#a19883" opacity="1.00" d=" M 59.67 153.21 C 61.55 153.54 63.42 153.91 65.26 154.40 C 63.20 156.21 61.10 155.19 59.67 153.21 Z" />
<path fill="#a19883" opacity="1.00" d=" M 84.03 156.33 C 86.93 156.73 89.82 157.13 92.73 157.50 C 92.72 158.96 92.72 160.43 92.72 161.89 C 89.09 161.72 85.50 161.10 82.04 159.99 C 82.70 158.77 83.37 157.55 84.03 156.33 Z" />
<path fill="#a19883" opacity="1.00" d=" M 56.23 171.15 C 56.77 170.97 57.84 170.60 58.37 170.41 C 59.32 172.43 60.28 174.43 61.18 176.47 C 57.24 176.72 53.27 176.52 49.41 175.64 C 51.37 173.71 53.60 172.03 56.23 171.15 Z" />
</g>
<g id="#25201fff">
<path fill="#25201f" opacity="1.00" d=" M 80.66 76.79 C 85.78 75.70 90.97 75.02 96.18 74.50 C 94.76 80.33 94.56 86.36 94.50 92.33 C 91.01 89.60 88.49 85.94 86.02 82.32 C 85.08 84.53 84.16 86.75 83.27 88.98 C 83.21 86.26 83.12 83.54 83.01 80.81 C 80.94 80.79 78.87 80.78 76.80 80.77 C 76.52 86.11 76.77 91.45 76.59 96.79 C 75.96 91.65 75.69 86.46 74.83 81.34 C 69.13 82.67 67.42 88.93 64.45 93.22 C 64.41 87.45 64.02 81.61 62.09 76.12 C 68.26 76.58 74.50 78.20 80.66 76.79 Z" />
<path fill="#25201f" opacity="1.00" d=" M 45.40 94.77 C 45.60 94.42 46.00 93.70 46.20 93.35 C 47.24 98.22 47.42 103.22 47.27 108.19 C 47.24 108.61 47.16 109.46 47.12 109.88 C 46.53 113.91 45.30 117.81 44.50 121.81 L 44.40 122.64 C 43.98 121.05 43.55 119.46 43.11 117.88 C 41.97 117.07 40.82 116.27 39.71 115.42 C 38.99 114.51 38.36 113.53 37.73 112.56 C 38.35 112.41 39.59 112.10 40.21 111.95 C 41.64 111.55 43.09 111.11 44.35 110.31 C 46.14 105.96 45.09 101.16 44.91 96.62 C 45.03 96.16 45.28 95.23 45.40 94.77 Z" />
<path fill="#25201f" opacity="1.00" d=" M 97.31 100.10 C 99.48 99.67 102.32 99.04 103.78 101.23 C 106.02 104.07 108.83 108.02 106.80 111.70 C 105.45 115.40 101.86 117.91 97.91 117.88 C 93.89 118.36 91.12 114.29 90.21 110.87 C 90.64 106.58 92.24 100.73 97.31 100.10 M 96.39 105.21 C 93.46 106.62 92.99 111.55 95.64 113.45 C 98.40 114.63 102.03 113.18 102.26 109.93 C 103.21 106.55 99.52 103.31 96.39 105.21 Z" />
<path fill="#25201f" opacity="1.00" d=" M 53.76 113.14 C 51.28 108.70 54.77 104.26 56.92 100.52 C 60.13 101.10 64.47 100.26 66.55 103.38 C 68.72 106.72 71.04 111.38 68.21 115.05 C 65.30 120.99 55.53 119.04 53.76 113.14 M 61.21 105.47 C 55.96 106.23 57.58 115.58 62.84 114.71 C 68.50 114.32 66.54 104.44 61.21 105.47 Z" />
<path fill="#25201f" opacity="1.00" d=" M 114.69 108.36 C 116.84 108.82 119.00 109.24 121.19 109.52 C 121.56 109.57 122.31 109.66 122.68 109.71 C 122.73 111.24 122.77 112.77 122.84 114.30 L 122.23 114.38 C 120.91 114.62 119.59 114.90 118.28 115.18 C 117.61 118.53 116.85 121.87 116.10 125.20 C 115.97 119.56 115.03 113.99 114.69 108.36 Z" />
<path fill="#25201f" opacity="1.00" d=" M 86.95 137.76 C 87.34 137.97 88.13 138.38 88.52 138.59 C 89.69 140.51 90.76 142.49 91.85 144.46 C 89.99 145.75 88.01 146.94 86.46 148.63 C 85.65 151.52 87.57 154.16 88.69 156.68 C 91.69 153.29 94.94 149.43 94.54 144.58 C 99.55 145.69 104.53 144.44 109.45 143.52 C 113.08 142.78 116.13 145.38 119.13 146.98 C 117.49 152.21 113.59 156.08 109.99 160.01 C 108.21 161.70 108.46 164.26 108.29 166.50 C 106.81 168.08 105.52 169.82 104.60 171.79 C 103.47 171.70 102.35 171.65 101.23 171.61 C 100.17 173.48 99.11 175.35 98.05 177.23 C 102.10 178.47 106.38 178.29 110.29 176.62 C 108.77 174.98 107.22 173.37 105.55 171.89 C 111.73 172.29 118.57 173.49 122.96 178.27 C 123.68 180.67 123.62 183.32 122.92 185.72 C 120.85 188.13 117.50 188.75 114.59 189.59 C 98.16 193.25 81.19 193.05 64.47 192.37 C 54.84 191.21 44.53 191.17 35.99 185.97 C 36.31 182.93 34.88 178.82 37.84 176.77 C 43.12 172.86 49.87 171.89 56.23 171.15 C 53.60 172.03 51.37 173.71 49.41 175.64 C 53.27 176.52 57.24 176.72 61.18 176.47 C 60.28 174.43 59.32 172.43 58.37 170.41 C 56.67 166.12 57.51 161.19 55.23 157.00 C 58.36 153.30 61.83 149.64 62.89 144.73 C 63.42 144.57 64.48 144.26 65.01 144.10 C 64.94 148.61 66.67 152.81 68.70 156.74 C 67.61 159.08 66.64 161.47 65.88 163.94 C 67.45 164.41 69.02 164.88 70.59 165.36 C 70.13 169.33 71.14 173.27 74.00 176.16 C 74.46 174.85 74.92 173.54 75.39 172.24 C 76.90 173.68 78.46 175.07 80.01 176.46 C 80.04 172.79 80.13 169.11 80.23 165.44 C 82.75 165.56 85.28 165.68 87.80 165.80 C 87.74 165.26 87.62 164.19 87.56 163.66 C 83.29 162.78 79.19 160.84 77.26 156.69 C 76.07 157.01 74.89 157.34 73.71 157.66 C 73.94 155.07 74.19 152.49 74.43 149.90 C 72.38 149.13 70.32 148.39 68.27 147.61 C 68.22 147.11 68.12 146.10 68.07 145.60 C 69.22 145.49 70.37 145.38 71.53 145.28 C 71.85 144.07 72.17 142.86 72.49 141.66 C 74.23 145.65 76.26 149.50 78.44 153.27 C 82.53 148.87 84.68 143.22 86.95 137.76 M 59.67 153.21 C 61.10 155.19 63.20 156.21 65.26 154.40 C 63.42 153.91 61.55 153.54 59.67 153.21 M 55.64 156.82 C 56.69 157.87 57.82 158.85 59.00 159.77 C 59.80 158.96 60.54 158.09 61.29 157.23 C 59.43 156.84 57.53 156.68 55.64 156.82 M 84.03 156.33 C 83.37 157.55 82.70 158.77 82.04 159.99 C 85.50 161.10 89.09 161.72 92.72 161.89 C 92.72 160.43 92.72 158.96 92.73 157.50 C 89.82 157.13 86.93 156.73 84.03 156.33 M 96.20 159.19 C 96.45 159.96 96.71 160.73 96.97 161.50 C 99.06 161.02 101.16 160.59 103.25 160.10 C 101.36 157.87 98.69 158.50 96.20 159.19 M 97.52 164.54 C 99.98 164.77 102.44 164.86 104.91 164.94 C 104.44 163.97 103.96 163.01 103.48 162.06 C 101.31 162.39 99.17 163.00 97.52 164.54 Z" />
</g>
<g id="#01b1b2ff">
<path fill="#01b1b2" opacity="1.00" d=" M 65.01 133.95 C 70.12 133.07 75.28 132.93 80.45 133.08 C 82.17 132.94 83.88 132.70 85.59 132.46 C 87.76 133.09 89.92 133.73 92.12 134.22 C 90.81 134.43 89.51 134.64 88.20 134.86 C 87.78 135.82 87.36 136.79 86.95 137.76 C 84.68 143.22 82.53 148.87 78.44 153.27 C 76.26 149.50 74.23 145.65 72.49 141.66 C 71.82 140.12 71.19 138.57 70.49 137.05 C 68.98 135.52 67.06 134.51 65.01 133.95 Z" />
</g>
</svg>
