<?xml version="1.0" encoding="UTF-8" ?>
<!DOCTYPE svg PUBLIC "-//W3C//DTD SVG 1.1//EN" "http://www.w3.org/Graphics/SVG/1.1/DTD/svg11.dtd">
<svg width="155pt" height="210pt" viewBox="0 0 155 210" version="1.1" xmlns="http://www.w3.org/2000/svg">
<g id="#bbbab0ff">
<path fill="#bbbab0" opacity="1.00" d=" M 81.37 53.06 C 80.87 51.04 85.15 51.21 84.46 53.19 C 83.43 53.18 82.40 53.14 81.37 53.06 Z" />
<path fill="#bbbab0" opacity="1.00" d=" M 55.96 55.78 C 58.45 53.89 61.55 54.30 64.19 55.64 C 61.45 55.41 58.69 55.43 55.96 55.78 Z" />
<path fill="#bbbab0" opacity="1.00" d=" M 52.61 59.16 C 53.14 58.26 53.66 57.35 54.18 56.44 C 54.35 59.10 54.55 61.76 54.81 64.41 C 50.48 63.90 45.18 62.27 41.56 65.57 C 40.51 67.55 40.79 69.92 40.63 72.09 C 39.72 69.46 39.21 65.72 42.00 64.02 C 45.72 62.12 50.07 63.26 54.06 63.27 C 53.58 61.90 53.10 60.53 52.61 59.16 Z" />
<path fill="#bbbab0" opacity="1.00" d=" M 108.04 60.67 C 108.37 61.09 108.70 61.52 109.04 61.94 C 108.68 62.04 107.97 62.23 107.62 62.33 C 106.22 62.72 104.82 63.11 103.41 63.44 C 103.28 63.23 103.03 62.81 102.90 62.60 C 104.64 62.04 106.36 61.41 108.04 60.67 Z" />
<path fill="#bbbab0" opacity="1.00" d=" M 113.06 72.26 C 114.39 71.22 115.25 71.50 115.66 73.11 C 114.53 73.43 113.66 73.15 113.06 72.26 Z" />
<path fill="#bbbab0" opacity="1.00" d=" M 42.30 75.44 C 42.51 75.85 42.95 76.66 43.17 77.07 C 41.06 77.32 38.96 77.58 36.86 77.88 C 38.71 77.14 40.54 76.38 42.30 75.44 Z" />
<path fill="#bbbab0" opacity="1.00" d=" M 80.75 78.48 C 84.09 77.87 87.15 80.04 90.48 79.70 C 95.23 79.26 100.10 78.89 104.74 80.24 C 109.15 81.23 112.50 84.54 115.33 87.87 C 117.84 91.11 119.41 94.98 119.57 99.10 C 122.20 99.65 124.83 101.26 125.44 104.06 C 125.86 106.98 124.60 109.79 123.28 112.32 C 119.61 112.54 117.93 116.05 115.47 118.22 C 111.97 119.00 108.44 119.61 104.93 120.30 C 102.61 112.85 100.97 105.03 101.24 97.20 C 101.23 93.88 104.51 90.96 107.82 91.74 C 110.72 93.27 112.34 96.30 114.37 98.75 C 113.01 96.18 111.98 93.25 109.64 91.39 C 107.26 89.70 103.07 89.58 101.59 92.51 C 99.35 96.95 99.48 102.09 99.25 106.94 C 99.24 112.26 98.50 118.15 101.74 122.77 C 103.77 125.89 105.60 129.14 107.15 132.53 C 110.46 131.81 113.97 131.70 117.07 130.20 C 119.13 128.25 118.57 125.00 119.23 122.45 C 119.72 124.89 120.13 127.34 120.47 129.80 C 116.58 133.14 113.61 137.67 108.95 140.04 C 108.58 140.02 107.84 139.97 107.46 139.95 C 97.03 137.03 86.15 138.64 75.58 139.74 C 71.40 140.29 67.35 138.78 63.81 136.69 C 61.02 135.14 58.27 133.53 55.54 131.87 C 58.31 138.09 57.20 144.93 56.52 151.44 C 52.38 148.69 51.82 143.44 51.26 138.94 C 50.76 135.98 52.52 133.41 53.82 130.94 C 51.77 129.05 49.30 127.43 47.89 124.98 C 48.04 124.14 48.21 123.30 48.40 122.47 C 47.97 122.08 47.54 121.69 47.11 121.29 C 46.43 118.09 45.24 114.90 42.06 113.43 C 40.93 114.83 39.79 116.22 38.75 117.68 C 34.63 114.25 30.85 110.06 28.95 104.98 C 29.68 102.14 32.52 100.67 34.68 99.02 C 42.29 97.55 47.18 104.47 52.53 108.50 C 52.45 105.38 52.24 102.26 52.13 99.13 C 52.28 97.02 52.25 94.53 54.11 93.10 C 57.83 89.76 62.00 86.96 65.95 83.89 C 70.15 80.51 75.52 79.19 80.75 78.48 M 76.50 90.67 C 70.90 93.04 66.28 97.86 64.91 103.89 C 67.70 98.47 71.69 92.90 78.06 91.63 C 82.03 90.87 85.50 94.62 85.45 98.44 C 85.79 105.91 84.86 113.51 82.27 120.55 C 75.94 119.64 69.94 117.31 63.66 116.16 C 60.89 118.37 58.20 120.69 55.87 123.36 C 57.83 123.55 59.80 123.74 61.76 123.93 C 60.89 125.69 60.04 127.47 59.19 129.25 C 62.16 129.16 65.12 128.88 68.06 128.43 C 68.24 129.56 68.42 130.70 68.59 131.83 C 72.45 131.14 76.61 130.22 80.07 132.67 C 81.38 129.51 82.71 126.35 83.93 123.15 C 86.96 120.34 86.73 115.54 87.40 111.71 C 87.59 105.29 88.88 97.85 84.56 92.42 C 82.81 89.78 79.21 89.95 76.50 90.67 M 93.45 125.51 C 91.00 126.37 88.95 128.43 88.28 130.95 C 88.42 132.81 90.58 132.78 91.96 133.16 C 95.21 133.50 98.99 133.74 101.78 131.72 C 103.34 130.81 102.87 128.33 101.21 127.85 C 98.86 126.61 96.22 124.76 93.45 125.51 Z" />
<path fill="#bbbab0" opacity="1.00" d=" M 124.29 117.27 C 125.99 116.54 129.32 120.21 126.80 120.98 C 125.70 119.96 124.53 118.82 124.29 117.27 Z" />
<path fill="#bbbab0" opacity="1.00" d=" M 29.17 123.35 C 32.51 123.50 27.63 126.33 29.17 123.35 Z" />
<path fill="#bbbab0" opacity="1.00" d=" M 36.23 130.61 C 34.46 131.04 34.34 127.13 36.12 127.40 C 36.50 128.45 36.53 129.52 36.23 130.61 Z" />
<path fill="#bbbab0" opacity="1.00" d=" M 80.02 141.07 C 88.32 138.39 96.97 140.58 105.44 140.54 C 104.21 141.34 103.12 142.83 101.48 142.64 C 94.33 141.99 87.01 143.11 80.02 141.07 Z" />
<path fill="#bbbab0" opacity="1.00" d=" M 66.49 143.67 C 67.57 145.22 68.76 146.72 69.52 148.47 C 70.34 151.00 69.79 153.73 70.39 156.30 C 71.54 157.74 73.15 158.71 74.58 159.85 C 74.29 162.76 73.92 165.67 73.57 168.58 C 74.29 169.06 75.01 169.55 75.73 170.04 C 75.45 170.53 75.18 171.03 74.91 171.53 C 75.55 172.10 76.20 172.67 76.84 173.24 C 73.57 173.97 70.27 174.54 66.93 174.86 C 67.16 172.46 67.98 170.18 69.91 168.64 C 69.01 166.77 68.06 164.93 67.14 163.07 C 66.40 161.55 65.68 160.01 64.84 158.54 C 65.84 153.64 65.91 148.62 66.49 143.67 Z" />
<path fill="#bbbab0" opacity="1.00" d=" M 90.84 146.20 C 91.60 146.11 93.10 145.93 93.86 145.84 C 92.50 148.71 91.86 151.83 91.67 154.98 C 90.53 152.19 90.70 149.14 90.84 146.20 Z" />
<path fill="#bbbab0" opacity="1.00" d=" M 56.83 166.10 C 58.67 166.38 60.50 166.74 62.30 167.22 C 60.54 169.11 57.86 168.31 56.83 166.10 Z" />
<path fill="#bbbab0" opacity="1.00" d=" M 53.74 168.93 C 55.52 169.20 57.30 169.53 59.07 169.87 C 58.72 170.41 58.04 171.49 57.69 172.03 C 56.03 171.42 53.75 171.19 53.74 168.93 Z" />
<path fill="#bbbab0" opacity="1.00" d=" M 94.77 171.64 C 95.78 170.75 96.80 169.87 97.81 168.98 C 98.53 169.58 99.25 170.18 99.97 170.78 C 98.23 171.05 96.50 171.34 94.77 171.64 Z" />
<path fill="#bbbab0" opacity="1.00" d=" M 97.11 173.84 C 99.31 173.46 101.60 173.20 103.74 174.05 C 103.91 174.53 104.25 175.49 104.42 175.97 C 101.96 175.35 99.51 174.66 97.11 173.84 Z" />
<path fill="#bbbab0" opacity="1.00" d=" M 51.20 184.57 C 53.24 185.45 55.36 186.10 57.47 186.79 C 57.54 187.23 57.68 188.11 57.75 188.55 C 53.81 188.80 49.87 189.05 45.92 189.28 C 47.21 187.23 49.31 185.98 51.20 184.57 Z" />
<path fill="#bbbab0" opacity="1.00" d=" M 31.36 199.77 C 31.40 197.11 31.45 194.46 31.56 191.81 C 31.70 194.14 31.82 196.47 31.95 198.80 C 60.55 198.77 89.16 198.89 117.76 198.73 C 117.97 196.47 118.24 194.20 118.39 191.94 C 119.01 194.61 118.77 197.34 118.11 199.99 C 95.74 200.04 73.37 199.91 51.00 199.99 C 44.45 199.98 37.90 200.15 31.36 199.77 Z" />
</g>
<g id="#ae0906ff">
<path fill="#ae0906" opacity="1.00" d=" M 71.10 58.43 C 74.29 56.27 77.21 53.06 81.37 53.06 C 82.40 53.14 83.43 53.18 84.46 53.19 C 87.11 53.87 88.82 56.35 90.84 58.06 C 93.37 57.04 95.95 55.22 98.80 55.83 C 100.83 57.57 101.47 60.39 102.90 62.60 C 103.03 62.81 103.28 63.23 103.41 63.44 C 104.82 63.11 106.22 62.72 107.62 62.33 C 110.63 64.95 110.79 69.18 113.06 72.26 C 113.66 73.15 114.53 73.43 115.66 73.11 C 118.22 72.89 118.87 76.09 119.23 78.01 C 119.93 81.81 117.68 85.15 115.33 87.87 C 112.50 84.54 109.15 81.23 104.74 80.24 C 100.10 78.89 95.23 79.26 90.48 79.70 C 87.15 80.04 84.09 77.87 80.75 78.48 C 75.52 79.19 70.15 80.51 65.95 83.89 C 62.00 86.96 57.83 89.76 54.11 93.10 C 52.25 94.53 52.28 97.02 52.13 99.13 C 46.64 97.14 39.51 93.97 34.68 99.02 C 34.07 96.29 34.59 93.46 34.12 90.74 C 32.82 87.23 31.28 83.79 30.69 80.07 C 32.65 79.10 34.64 78.06 36.86 77.88 C 38.96 77.58 41.06 77.32 43.17 77.07 C 42.95 76.66 42.51 75.85 42.30 75.44 C 41.70 74.34 41.14 73.23 40.63 72.09 C 40.79 69.92 40.51 67.55 41.56 65.57 C 45.18 62.27 50.48 63.90 54.81 64.41 C 54.55 61.76 54.35 59.10 54.18 56.44 C 54.63 56.28 55.51 55.95 55.96 55.78 C 58.69 55.43 61.45 55.41 64.19 55.64 C 66.53 56.47 68.70 57.75 71.10 58.43 Z" />
<path fill="#ae0906" opacity="1.00" d=" M 115.47 118.22 C 117.93 116.05 119.61 112.54 123.28 112.32 C 123.60 113.97 123.91 115.63 124.29 117.27 C 124.53 118.82 125.70 119.96 126.80 120.98 C 126.39 124.06 126.15 127.15 125.88 130.24 C 124.08 130.11 122.27 129.97 120.47 129.80 C 120.13 127.34 119.72 124.89 119.23 122.45 C 118.57 125.00 119.13 128.25 117.07 130.20 C 113.97 131.70 110.46 131.81 107.15 132.53 C 105.60 129.14 103.77 125.89 101.74 122.77 C 104.96 123.29 108.24 124.32 111.51 123.78 C 114.05 123.14 114.55 120.28 115.47 118.22 Z" />
<path fill="#ae0906" opacity="1.00" d=" M 38.75 117.68 C 39.79 116.22 40.93 114.83 42.06 113.43 C 42.76 116.60 44.36 119.47 47.11 121.29 C 47.54 121.69 47.97 122.08 48.40 122.47 C 48.21 123.30 48.04 124.14 47.89 124.98 C 47.44 127.51 47.54 130.15 46.55 132.58 C 44.70 131.83 42.92 130.75 40.93 130.41 C 39.27 130.65 37.68 131.19 36.05 131.59 L 36.23 130.61 C 36.53 129.52 36.50 128.45 36.12 127.40 C 35.45 124.93 34.33 122.63 33.13 120.38 C 34.68 120.01 36.23 119.65 37.77 119.25 C 38.08 118.72 38.41 118.20 38.75 117.68 Z" />
<path fill="#ae0906" opacity="1.00" d=" M 55.87 123.36 C 58.20 120.69 60.89 118.37 63.66 116.16 C 65.02 118.75 66.35 121.66 69.12 123.03 C 73.64 125.77 79.19 124.70 83.93 123.15 C 82.71 126.35 81.38 129.51 80.07 132.67 C 76.61 130.22 72.45 131.14 68.59 131.83 C 68.42 130.70 68.24 129.56 68.06 128.43 C 65.12 128.88 62.16 129.16 59.19 129.25 C 60.04 127.47 60.89 125.69 61.76 123.93 C 59.80 123.74 57.83 123.55 55.87 123.36 Z" />
<path fill="#ae0906" opacity="1.00" d=" M 93.45 125.51 C 96.22 124.76 98.86 126.61 101.21 127.85 C 102.87 128.33 103.34 130.81 101.78 131.72 C 98.99 133.74 95.21 133.50 91.96 133.16 C 90.58 132.78 88.42 132.81 88.28 130.95 C 88.95 128.43 91.00 126.37 93.45 125.51 Z" />
<path fill="#ae0906" opacity="1.00" d=" M 55.54 131.87 C 58.27 133.53 61.02 135.14 63.81 136.69 C 63.17 137.32 62.54 137.96 61.91 138.60 C 61.20 142.33 59.92 146.01 60.01 149.84 C 60.08 153.38 62.86 155.90 64.84 158.54 C 65.68 160.01 66.40 161.55 67.14 163.07 C 63.37 162.79 60.31 160.59 58.21 157.57 C 58.12 155.42 57.48 153.35 56.52 151.44 C 57.20 144.93 58.31 138.09 55.54 131.87 Z" />
</g>
<g id="#2b2625ff">
<path fill="#2b2625" opacity="1.00" d=" M 76.50 90.67 C 79.21 89.95 82.81 89.78 84.56 92.42 C 88.88 97.85 87.59 105.29 87.40 111.71 C 86.73 115.54 86.96 120.34 83.93 123.15 C 79.19 124.70 73.64 125.77 69.12 123.03 C 66.35 121.66 65.02 118.75 63.66 116.16 C 69.94 117.31 75.94 119.64 82.27 120.55 C 84.86 113.51 85.79 105.91 85.45 98.44 C 85.50 94.62 82.03 90.87 78.06 91.63 C 71.69 92.90 67.70 98.47 64.91 103.89 C 66.28 97.86 70.90 93.04 76.50 90.67 Z" />
<path fill="#2b2625" opacity="1.00" d=" M 101.59 92.51 C 103.07 89.58 107.26 89.70 109.64 91.39 C 111.98 93.25 113.01 96.18 114.37 98.75 C 112.34 96.30 110.72 93.27 107.82 91.74 C 104.51 90.96 101.23 93.88 101.24 97.20 C 100.97 105.03 102.61 112.85 104.93 120.30 C 108.44 119.61 111.97 119.00 115.47 118.22 C 114.55 120.28 114.05 123.14 111.51 123.78 C 108.24 124.32 104.96 123.29 101.74 122.77 C 98.50 118.15 99.24 112.26 99.25 106.94 C 99.48 102.09 99.35 96.95 101.59 92.51 Z" />
<path fill="#2b2625" opacity="1.00" d=" M 34.68 99.02 C 39.51 93.97 46.64 97.14 52.13 99.13 C 52.24 102.26 52.45 105.38 52.53 108.50 C 47.18 104.47 42.29 97.55 34.68 99.02 Z" />
<path fill="#2b2625" opacity="1.00" d=" M 42.06 113.43 C 45.24 114.90 46.43 118.09 47.11 121.29 C 44.36 119.47 42.76 116.60 42.06 113.43 Z" />
<path fill="#2b2625" opacity="1.00" d=" M 61.91 138.60 C 62.54 137.96 63.17 137.32 63.81 136.69 C 67.35 138.78 71.40 140.29 75.58 139.74 C 86.15 138.64 97.03 137.03 107.46 139.95 C 106.96 140.10 105.95 140.39 105.44 140.54 C 96.97 140.58 88.32 138.39 80.02 141.07 C 87.01 143.11 94.33 141.99 101.48 142.64 C 99.36 144.54 96.73 145.75 93.86 145.84 C 93.10 145.93 91.60 146.11 90.84 146.20 C 90.70 149.14 90.53 152.19 91.67 154.98 C 92.26 156.29 92.93 157.57 93.56 158.87 C 98.29 158.81 103.43 157.81 107.72 160.35 C 109.43 161.30 111.57 162.55 111.57 164.78 C 109.67 168.39 106.69 171.28 103.74 174.05 C 101.60 173.20 99.31 173.46 97.11 173.84 C 99.51 174.66 101.96 175.35 104.42 175.97 C 104.92 176.83 105.42 177.68 105.92 178.54 C 103.79 180.54 100.76 180.29 98.12 181.02 C 96.89 181.89 96.67 183.56 95.96 184.82 C 98.77 185.95 101.50 187.28 104.16 188.75 C 108.52 191.36 114.40 188.34 118.39 191.94 C 118.24 194.20 117.97 196.47 117.76 198.73 C 89.16 198.89 60.55 198.77 31.95 198.80 C 31.82 196.47 31.70 194.14 31.56 191.81 C 35.91 189.25 41.12 190.00 45.92 189.28 C 49.87 189.05 53.81 188.80 57.75 188.55 C 57.68 188.11 57.54 187.23 57.47 186.79 C 55.36 186.10 53.24 185.45 51.20 184.57 C 50.16 184.07 49.26 183.39 48.51 182.52 C 48.53 180.90 49.07 179.30 48.86 177.68 C 48.19 176.02 47.13 174.55 46.19 173.03 C 48.20 170.77 50.39 168.68 52.40 166.42 C 54.80 163.76 55.21 159.77 58.21 157.57 C 60.31 160.59 63.37 162.79 67.14 163.07 C 68.06 164.93 69.01 166.77 69.91 168.64 C 67.98 170.18 67.16 172.46 66.93 174.86 C 70.27 174.54 73.57 173.97 76.84 173.24 C 76.20 172.67 75.55 172.10 74.91 171.53 C 75.18 171.03 75.45 170.53 75.73 170.04 C 75.01 169.55 74.29 169.06 73.57 168.58 C 73.92 165.67 74.29 162.76 74.58 159.85 C 73.15 158.71 71.54 157.74 70.39 156.30 C 69.79 153.73 70.34 151.00 69.52 148.47 C 68.76 146.72 67.57 145.22 66.49 143.67 C 65.91 148.62 65.84 153.64 64.84 158.54 C 62.86 155.90 60.08 153.38 60.01 149.84 C 59.92 146.01 61.20 142.33 61.91 138.60 M 56.83 166.10 C 57.86 168.31 60.54 169.11 62.30 167.22 C 60.50 166.74 58.67 166.38 56.83 166.10 M 53.74 168.93 C 53.75 171.19 56.03 171.42 57.69 172.03 C 58.04 171.49 58.72 170.41 59.07 169.87 C 57.30 169.53 55.52 169.20 53.74 168.93 M 94.77 171.64 C 96.50 171.34 98.23 171.05 99.97 170.78 C 99.25 170.18 98.53 169.58 97.81 168.98 C 96.80 169.87 95.78 170.75 94.77 171.64 Z" />
</g>
</svg>
