<?xml version="1.0" encoding="UTF-8" ?>
<!DOCTYPE svg PUBLIC "-//W3C//DTD SVG 1.1//EN" "http://www.w3.org/Graphics/SVG/1.1/DTD/svg11.dtd">
<svg width="155pt" height="210pt" viewBox="0 0 155 210" version="1.1" xmlns="http://www.w3.org/2000/svg">
<g id="#cfcebeff">
<path fill="#cfcebe" opacity="1.00" d=" M 78.98 32.02 C 81.58 33.16 84.37 33.84 86.91 35.11 C 90.62 41.60 94.59 47.96 98.66 54.25 C 99.47 53.45 100.28 52.66 101.10 51.87 C 102.09 55.00 102.97 58.24 102.83 61.57 C 102.52 67.78 100.34 73.67 97.63 79.20 C 94.27 80.98 91.02 83.41 87.14 83.82 C 83.39 83.69 79.93 81.93 76.34 80.99 C 74.07 78.07 71.56 75.17 70.50 71.55 C 69.31 67.51 69.04 63.27 68.90 59.09 C 68.96 56.71 69.43 54.38 69.87 52.05 C 70.92 52.74 71.96 53.42 73.00 54.12 C 74.34 55.02 75.67 55.94 77.01 56.85 C 77.03 55.56 77.06 54.28 77.08 52.99 C 77.38 45.98 77.67 38.93 78.98 32.02 Z" />
<path fill="#cfcebe" opacity="1.00" d=" M 74.14 48.15 C 77.48 48.33 72.57 51.11 74.14 48.15 Z" />
<path fill="#cfcebe" opacity="1.00" d=" M 49.00 64.12 C 49.29 61.98 49.37 59.82 49.42 57.67 C 50.18 59.96 50.96 62.24 51.78 64.51 C 50.86 64.37 49.93 64.24 49.00 64.12 Z" />
<path fill="#cfcebe" opacity="1.00" d=" M 40.35 63.92 C 40.91 61.93 46.12 62.03 46.80 63.91 C 44.65 63.89 42.50 63.89 40.35 63.92 Z" />
<path fill="#cfcebe" opacity="1.00" d=" M 36.87 71.62 C 34.89 71.08 35.09 65.98 36.96 65.40 C 37.03 67.47 36.92 69.54 36.87 71.62 Z" />
<path fill="#cfcebe" opacity="1.00" d=" M 107.85 66.56 C 109.83 66.47 110.22 70.21 108.93 71.38 L 108.48 71.26 C 108.14 69.71 107.99 68.13 107.85 66.56 Z" />
<path fill="#cfcebe" opacity="1.00" d=" M 38.16 75.63 C 38.40 76.22 38.64 76.81 38.88 77.40 C 36.87 77.52 34.85 77.64 32.84 77.80 C 34.72 77.39 36.67 76.95 38.16 75.63 Z" />
<path fill="#cfcebe" opacity="1.00" d=" M 116.78 77.50 C 118.82 77.18 118.90 81.76 116.85 81.49 C 116.80 80.16 116.77 78.83 116.78 77.50 Z" />
<path fill="#cfcebe" opacity="1.00" d=" M 25.59 83.02 C 26.20 79.87 29.01 78.47 31.91 77.89 C 29.63 79.37 27.60 81.20 25.59 83.02 Z" />
<path fill="#cfcebe" opacity="1.00" d=" M 27.55 84.79 C 27.73 85.29 28.10 86.29 28.28 86.79 L 27.42 86.55 C 27.45 86.11 27.52 85.23 27.55 84.79 Z" />
<path fill="#cfcebe" opacity="1.00" d=" M 30.10 91.21 C 31.38 91.64 31.58 93.21 30.40 93.91 L 29.73 93.22 C 29.82 92.72 30.01 91.71 30.10 91.21 Z" />
<path fill="#cfcebe" opacity="1.00" d=" M 28.66 97.66 C 29.17 96.69 29.68 95.72 30.20 94.76 C 29.97 96.01 29.76 97.26 29.57 98.52 C 27.38 99.05 25.20 99.67 23.06 100.35 C 23.11 99.71 23.17 99.07 23.23 98.43 C 25.04 98.17 26.85 97.91 28.66 97.66 Z" />
<path fill="#cfcebe" opacity="1.00" d=" M 55.64 102.64 C 61.26 96.65 72.71 98.40 76.09 105.97 C 79.57 112.20 75.98 121.39 68.75 122.76 C 64.15 124.30 59.70 121.95 55.97 119.48 C 51.09 116.21 45.48 121.22 44.67 126.17 C 42.19 126.90 39.78 128.23 37.13 128.18 C 34.63 126.78 32.88 123.46 33.54 120.59 C 34.62 118.92 36.07 117.54 37.40 116.08 C 40.43 117.91 44.05 118.16 47.46 117.50 C 48.86 116.60 50.43 115.80 51.42 114.42 C 52.94 110.55 52.66 105.85 55.64 102.64 M 55.42 108.36 C 55.72 112.32 58.56 116.02 62.16 117.62 C 64.79 116.75 67.21 114.97 68.65 112.58 C 69.45 109.55 66.92 107.27 65.05 105.32 C 63.94 107.56 62.95 109.85 62.11 112.21 C 63.56 111.26 64.98 110.27 66.39 109.26 C 66.67 110.21 66.96 111.16 67.24 112.11 C 65.24 113.17 63.14 114.00 61.00 114.75 C 60.20 112.24 59.46 109.71 58.77 107.16 C 61.57 105.77 65.07 101.98 68.11 104.83 C 69.93 106.18 71.43 108.01 72.29 110.12 C 72.26 113.22 69.86 115.78 67.53 117.57 C 64.75 119.68 61.10 118.45 57.93 118.37 C 60.66 119.96 63.42 122.91 66.84 122.13 C 71.38 119.88 73.59 115.01 76.07 110.88 C 73.32 106.78 69.62 103.10 64.98 101.23 C 61.08 102.32 57.76 105.12 55.42 108.36 Z" />
<path fill="#cfcebe" opacity="1.00" d=" M 100.44 108.76 C 101.97 104.41 104.69 98.90 109.99 98.74 C 114.43 98.78 115.45 104.04 116.38 107.42 C 116.47 110.04 116.72 112.68 117.52 115.20 C 121.89 117.85 128.19 116.06 131.63 120.47 C 132.49 123.64 129.90 128.69 126.13 128.13 C 123.70 125.42 121.59 122.43 118.97 119.89 C 118.03 118.99 117.06 118.11 116.10 117.24 C 113.69 118.98 111.32 120.78 108.82 122.37 L 109.11 121.77 C 110.84 117.08 113.44 112.70 114.67 107.83 C 115.44 104.89 112.87 102.72 111.31 100.60 C 108.24 103.49 104.48 106.38 103.84 110.85 C 103.26 113.60 102.67 116.34 101.97 119.06 C 101.09 115.69 100.42 112.25 100.44 108.76 Z" />
<path fill="#cfcebe" opacity="1.00" d=" M 107.33 106.25 C 108.55 105.27 109.79 104.30 111.03 103.34 C 113.14 107.05 112.38 111.19 110.13 114.63 C 109.25 113.65 108.38 112.67 107.51 111.69 C 108.18 111.61 109.52 111.44 110.19 111.35 C 110.21 109.77 110.23 108.20 110.26 106.63 C 109.53 106.53 108.06 106.34 107.33 106.25 Z" />
<path fill="#cfcebe" opacity="1.00" d=" M 105.63 115.35 C 104.66 113.10 105.76 110.75 106.48 108.61 C 107.48 112.10 108.30 115.64 108.79 119.24 C 107.66 118.01 106.42 116.85 105.63 115.35 Z" />
<path fill="#cfcebe" opacity="1.00" d=" M 84.15 125.23 C 85.21 122.17 89.10 123.27 91.57 123.41 C 92.72 125.31 93.16 127.52 93.79 129.63 C 90.34 129.77 86.89 130.05 83.46 130.47 C 83.60 128.72 83.58 126.91 84.15 125.23 Z" />
<path fill="#cfcebe" opacity="1.00" d=" M 47.67 135.49 C 49.54 136.57 51.47 137.55 53.38 138.56 C 53.05 143.16 52.71 147.77 52.05 152.35 C 47.59 148.05 46.92 141.32 47.67 135.49 Z" />
<path fill="#cfcebe" opacity="1.00" d=" M 62.53 142.97 L 63.01 142.46 C 64.21 149.60 64.92 157.86 71.31 162.47 C 70.96 164.77 70.61 167.08 70.29 169.39 C 74.89 170.36 78.28 174.22 83.01 174.74 C 83.52 175.08 84.53 175.77 85.03 176.12 C 84.84 176.53 84.46 177.34 84.27 177.75 C 81.72 177.24 79.17 176.79 76.62 176.37 C 76.74 180.05 76.97 183.72 77.24 187.40 C 76.28 186.36 75.32 185.33 74.40 184.26 C 74.27 183.86 74.00 183.06 73.87 182.66 C 74.41 179.87 75.23 177.14 76.05 174.42 C 72.61 175.35 69.15 176.21 65.69 177.07 C 64.93 176.33 64.17 175.59 63.41 174.85 C 64.12 172.32 66.47 169.58 65.21 166.94 C 62.42 164.67 58.86 163.65 55.80 161.80 C 55.37 160.93 54.97 160.06 54.59 159.17 C 54.38 157.45 54.44 155.70 54.36 153.97 C 54.71 154.11 55.41 154.40 55.76 154.54 C 57.99 155.66 60.11 157.02 62.26 158.29 C 62.50 153.19 62.18 148.07 62.53 142.97 Z" />
<path fill="#cfcebe" opacity="1.00" d=" M 94.76 160.45 C 97.55 160.07 100.41 160.09 103.16 160.80 C 100.36 160.61 97.56 160.50 94.76 160.45 Z" />
<path fill="#cfcebe" opacity="1.00" d=" M 42.96 176.16 C 40.76 175.53 42.83 171.27 44.69 172.51 C 44.32 173.81 43.74 175.04 42.96 176.16 Z" />
<path fill="#cfcebe" opacity="1.00" d=" M 94.62 175.67 C 96.80 174.98 99.10 175.04 101.30 175.64 C 101.46 176.20 101.77 177.31 101.93 177.86 C 99.48 177.18 97.03 176.47 94.62 175.67 Z" />
<path fill="#cfcebe" opacity="1.00" d=" M 100.91 181.35 C 101.02 181.33 101.25 181.29 101.36 181.26 C 101.25 181.29 101.02 181.33 100.91 181.35 Z" />
<path fill="#cfcebe" opacity="1.00" d=" M 115.83 192.48 C 116.28 195.56 116.45 198.67 116.61 201.78 C 91.08 201.98 65.54 201.88 40.01 201.90 C 35.51 201.75 30.79 202.58 26.51 200.82 C 31.68 201.03 36.83 201.36 42.00 201.28 C 66.82 201.06 91.65 201.41 116.47 200.94 C 116.26 198.11 116.04 195.30 115.83 192.48 Z" />
</g>
<g id="#453c33ff">
<path fill="#453c33" opacity="1.00" d=" M 73.00 54.12 C 74.36 53.75 75.72 53.37 77.08 52.99 C 77.06 54.28 77.03 55.56 77.01 56.85 C 75.67 55.94 74.34 55.02 73.00 54.12 Z" />
<path fill="#453c33" opacity="1.00" d=" M 87.14 83.82 C 91.02 83.41 94.27 80.98 97.63 79.20 C 102.92 79.99 107.60 82.77 110.71 87.15 C 103.96 90.88 100.61 98.61 93.30 101.59 C 95.12 108.17 95.00 115.06 93.19 121.64 C 98.80 124.02 103.49 127.94 107.91 132.05 C 109.82 128.32 112.25 124.78 115.79 122.41 C 116.86 125.73 119.20 129.66 117.03 133.01 C 114.32 136.79 109.82 138.64 105.60 140.17 C 104.46 137.65 103.77 134.32 100.80 133.33 C 96.58 131.68 91.36 129.79 87.08 132.15 C 83.52 135.76 82.14 140.91 80.27 145.50 C 80.26 142.43 80.17 139.35 79.86 136.30 C 79.48 136.12 78.72 135.78 78.33 135.60 C 77.97 135.47 77.25 135.22 76.89 135.09 C 75.18 136.25 73.57 137.54 71.95 138.82 C 71.44 136.43 70.91 134.05 70.35 131.68 C 68.24 134.08 66.44 136.73 65.05 139.60 C 61.84 139.48 58.67 138.96 55.56 138.19 C 56.87 140.61 58.10 143.09 59.28 145.59 C 57.95 145.90 56.62 146.22 55.29 146.53 C 56.28 147.72 57.28 148.90 58.27 150.08 C 57.43 151.57 56.60 153.05 55.76 154.54 C 55.41 154.40 54.71 154.11 54.36 153.97 C 53.76 153.76 52.55 153.32 51.95 153.10 L 52.05 152.35 C 52.71 147.77 53.05 143.16 53.38 138.56 C 51.47 137.55 49.54 136.57 47.67 135.49 C 44.21 134.08 42.87 130.30 44.46 126.92 L 44.51 127.23 C 44.72 128.69 44.99 130.15 45.18 131.62 C 47.37 129.62 49.41 127.23 52.25 126.13 C 53.84 125.94 55.43 126.36 56.97 126.72 C 59.51 128.63 61.67 130.97 63.96 133.16 C 67.69 130.12 71.12 126.17 76.08 125.25 C 78.32 124.48 81.03 124.43 82.78 122.63 C 82.68 119.09 81.40 115.68 81.43 112.13 C 81.96 108.58 84.18 105.57 85.14 102.15 C 84.05 99.85 81.02 99.86 78.97 98.83 C 73.79 97.49 70.79 92.79 67.64 88.88 C 61.59 91.77 56.55 97.34 49.35 97.09 C 50.22 94.90 50.82 92.34 52.91 90.95 C 56.62 88.22 60.71 86.08 64.51 83.47 C 66.57 82.25 68.58 80.63 71.01 80.31 C 72.34 80.60 73.60 81.15 74.88 81.63 C 75.36 81.42 75.85 81.21 76.34 80.99 C 79.93 81.93 83.39 83.69 87.14 83.82 M 84.15 125.23 C 83.58 126.91 83.60 128.72 83.46 130.47 C 86.89 130.05 90.34 129.77 93.79 129.63 C 93.16 127.52 92.72 125.31 91.57 123.41 C 89.10 123.27 85.21 122.17 84.15 125.23 Z" />
<path fill="#453c33" opacity="1.00" d=" M 114.28 91.22 C 113.11 90.56 112.37 89.02 113.66 88.04 C 115.03 88.86 115.23 89.92 114.28 91.22 Z" />
<path fill="#453c33" opacity="1.00" d=" M 116.83 95.35 C 117.82 95.68 118.82 96.00 119.82 96.32 C 119.97 97.37 120.11 98.41 120.25 99.46 C 121.99 99.14 123.73 98.84 125.48 98.58 C 125.12 104.89 121.09 110.25 117.52 115.20 C 116.72 112.68 116.47 110.04 116.38 107.42 C 117.16 105.27 118.23 103.19 118.60 100.91 C 118.58 98.93 117.58 97.14 116.83 95.35 Z" />
<path fill="#453c33" opacity="1.00" d=" M 23.06 100.35 C 25.20 99.67 27.38 99.05 29.57 98.52 L 30.50 98.29 C 37.00 100.20 42.85 103.73 48.00 108.07 C 48.24 111.23 47.82 114.38 47.46 117.50 C 44.05 118.16 40.43 117.91 37.40 116.08 C 31.95 111.50 26.92 106.37 23.06 100.35 Z" />
<path fill="#453c33" opacity="1.00" d=" M 101.41 120.59 C 98.75 117.22 99.52 112.62 100.44 108.76 C 100.42 112.25 101.09 115.69 101.97 119.06 C 102.67 116.34 103.26 113.60 103.84 110.85 C 103.65 113.94 103.20 117.34 104.71 120.18 C 105.92 121.22 107.64 121.30 109.11 121.77 L 108.82 122.37 C 106.40 124.43 103.01 122.88 101.41 120.59 Z" />
<path fill="#453c33" opacity="1.00" d=" M 118.97 119.89 C 121.59 122.43 123.70 125.42 126.13 128.13 C 123.74 127.13 121.23 126.26 119.18 124.63 C 118.70 123.10 118.98 121.47 118.97 119.89 Z" />
<path fill="#453c33" opacity="1.00" d=" M 63.01 142.46 C 63.29 142.20 63.84 141.67 64.12 141.41 C 66.45 142.50 68.71 143.72 71.10 144.68 C 69.60 148.06 69.04 151.74 69.38 155.41 C 71.68 154.48 73.99 153.56 76.30 152.66 C 76.73 154.43 77.16 156.19 77.59 157.96 C 78.83 157.77 80.06 157.58 81.30 157.41 C 87.82 156.55 94.33 155.63 100.84 154.64 C 98.24 157.24 94.48 157.44 91.06 157.96 C 91.37 158.96 91.67 159.97 91.99 160.97 C 90.13 162.54 87.76 164.06 87.04 166.51 C 87.23 169.29 88.39 171.90 89.13 174.56 C 87.09 174.64 85.05 174.75 83.01 174.74 C 78.28 174.22 74.89 170.36 70.29 169.39 C 70.61 167.08 70.96 164.77 71.31 162.47 C 64.92 157.86 64.21 149.60 63.01 142.46 M 71.71 164.89 C 71.76 165.68 71.88 167.26 71.93 168.05 C 73.27 168.35 74.60 168.66 75.94 168.97 C 76.36 167.56 76.79 166.16 77.23 164.76 C 75.39 164.80 73.55 164.84 71.71 164.89 Z" />
<path fill="#453c33" opacity="1.00" d=" M 51.21 163.57 C 51.94 161.82 53.11 160.34 54.59 159.17 C 54.97 160.06 55.37 160.93 55.80 161.80 C 55.38 163.31 54.98 164.83 54.55 166.35 C 55.71 167.04 56.86 167.74 58.01 168.44 C 57.21 169.26 56.40 170.07 55.60 170.88 C 56.19 171.94 56.79 172.99 57.40 174.05 C 53.10 174.89 48.43 175.24 44.69 172.51 C 46.84 169.51 49.69 166.99 51.21 163.57 Z" />
<path fill="#453c33" opacity="1.00" d=" M 91.64 173.04 C 92.97 169.67 96.80 170.37 98.54 172.96 C 96.27 173.35 93.86 174.03 91.64 173.04 Z" />
<path fill="#453c33" opacity="1.00" d=" M 65.69 177.07 C 69.15 176.21 72.61 175.35 76.05 174.42 C 75.23 177.14 74.41 179.87 73.87 182.66 C 73.43 184.71 73.00 186.77 72.56 188.82 C 70.32 187.74 68.13 186.57 66.00 185.30 C 65.42 185.39 64.83 185.49 64.25 185.58 C 64.72 182.74 65.22 179.91 65.69 177.07 Z" />
<path fill="#453c33" opacity="1.00" d=" M 44.25 176.73 C 45.22 177.03 45.91 177.66 46.32 178.60 C 44.60 179.12 43.91 178.50 44.25 176.73 Z" />
<path fill="#453c33" opacity="1.00" d=" M 76.62 176.37 C 79.17 176.79 81.72 177.24 84.27 177.75 C 82.45 181.99 80.15 186.31 75.83 188.44 C 75.35 187.05 74.87 185.65 74.40 184.26 C 75.32 185.33 76.28 186.36 77.24 187.40 C 76.97 183.72 76.74 180.05 76.62 176.37 Z" />
<path fill="#453c33" opacity="1.00" d=" M 46.32 178.60 C 47.92 180.40 49.65 182.08 51.37 183.77 C 50.67 184.98 49.97 186.19 49.28 187.41 C 51.05 187.67 52.83 187.94 54.61 188.21 C 54.64 189.39 54.68 190.57 54.71 191.75 C 68.21 192.66 81.73 191.78 95.24 192.44 C 93.45 189.87 92.30 186.85 93.24 183.72 L 94.10 183.27 C 94.20 184.63 94.30 186.00 94.41 187.37 C 97.71 188.43 100.79 190.06 104.12 191.04 C 108.00 191.65 111.99 191.51 115.83 192.48 C 116.04 195.30 116.26 198.11 116.47 200.94 C 91.65 201.41 66.82 201.06 42.00 201.28 C 36.83 201.36 31.68 201.03 26.51 200.82 C 26.71 198.51 26.87 196.20 26.99 193.89 C 30.42 191.40 34.67 191.75 38.64 191.25 C 41.70 190.27 44.35 188.35 47.21 186.94 C 46.09 185.83 44.97 184.72 43.85 183.62 C 44.67 181.94 45.49 180.27 46.32 178.60 Z" />
<path fill="#453c33" opacity="1.00" d=" M 97.37 181.61 C 98.02 180.49 99.50 180.35 100.26 181.46 L 99.48 182.10 C 98.95 181.98 97.90 181.73 97.37 181.61 Z" />
</g>
<g id="#9f0906ff">
<path fill="#9f0906" opacity="1.00" d=" M 49.42 57.67 C 51.14 56.45 52.74 54.64 55.00 54.55 C 60.05 54.23 64.45 57.16 68.90 59.09 C 69.04 63.27 69.31 67.51 70.50 71.55 C 71.56 75.17 74.07 78.07 76.34 80.99 C 75.85 81.21 75.36 81.42 74.88 81.63 C 73.60 81.15 72.34 80.60 71.01 80.31 C 68.58 80.63 66.57 82.25 64.51 83.47 C 60.71 86.08 56.62 88.22 52.91 90.95 C 50.82 92.34 50.22 94.90 49.35 97.09 C 56.55 97.34 61.59 91.77 67.64 88.88 C 70.79 92.79 73.79 97.49 78.97 98.83 C 81.02 99.86 84.05 99.85 85.14 102.15 C 84.18 105.57 81.96 108.58 81.43 112.13 C 81.40 115.68 82.68 119.09 82.78 122.63 C 81.03 124.43 78.32 124.48 76.08 125.25 C 71.12 126.17 67.69 130.12 63.96 133.16 C 61.67 130.97 59.51 128.63 56.97 126.72 C 54.67 125.11 52.21 123.75 49.77 122.36 C 51.83 121.39 53.90 120.43 55.97 119.48 C 59.70 121.95 64.15 124.30 68.75 122.76 C 75.98 121.39 79.57 112.20 76.09 105.97 C 72.71 98.40 61.26 96.65 55.64 102.64 C 52.66 105.85 52.94 110.55 51.42 114.42 C 50.43 115.80 48.86 116.60 47.46 117.50 C 47.82 114.38 48.24 111.23 48.00 108.07 C 47.01 104.28 46.65 99.89 44.00 96.85 C 39.71 93.64 34.76 96.80 30.50 98.29 L 29.57 98.52 C 29.76 97.26 29.97 96.01 30.20 94.76 L 30.40 93.91 C 31.58 93.21 31.38 91.64 30.10 91.21 C 29.04 90.01 28.29 88.41 28.28 86.79 C 28.10 86.29 27.73 85.29 27.55 84.79 C 27.06 84.35 26.08 83.46 25.59 83.02 C 27.60 81.20 29.63 79.37 31.91 77.89 L 32.84 77.80 C 34.85 77.64 36.87 77.52 38.88 77.40 C 38.64 76.81 38.40 76.22 38.16 75.63 C 37.56 74.34 37.13 73.00 36.87 71.62 C 36.92 69.54 37.03 67.47 36.96 65.40 L 36.94 64.39 C 37.79 64.27 39.50 64.04 40.35 63.92 C 42.50 63.89 44.65 63.89 46.80 63.91 C 47.35 63.96 48.45 64.07 49.00 64.12 C 49.93 64.24 50.86 64.37 51.78 64.51 C 50.96 62.24 50.18 59.96 49.42 57.67 Z" />
<path fill="#9f0906" opacity="1.00" d=" M 102.83 61.57 C 105.38 62.04 107.94 63.63 107.85 66.56 C 107.99 68.13 108.14 69.71 108.48 71.26 L 108.93 71.38 C 112.32 72.20 117.33 72.80 116.78 77.50 C 116.77 78.83 116.80 80.16 116.85 81.49 C 116.94 84.06 115.03 86.06 113.66 88.04 C 112.37 89.02 113.11 90.56 114.28 91.22 C 115.48 92.35 116.10 93.91 116.83 95.35 C 117.58 97.14 118.58 98.93 118.60 100.91 C 118.23 103.19 117.16 105.27 116.38 107.42 C 115.45 104.04 114.43 98.78 109.99 98.74 C 104.69 98.90 101.97 104.41 100.44 108.76 C 99.52 112.62 98.75 117.22 101.41 120.59 C 103.01 122.88 106.40 124.43 108.82 122.37 C 111.32 120.78 113.69 118.98 116.10 117.24 C 117.06 118.11 118.03 118.99 118.97 119.89 C 117.92 120.75 116.86 121.58 115.79 122.41 C 112.25 124.78 109.82 128.32 107.91 132.05 C 103.49 127.94 98.80 124.02 93.19 121.64 C 95.00 115.06 95.12 108.17 93.30 101.59 C 100.61 98.61 103.96 90.88 110.71 87.15 C 107.60 82.77 102.92 79.99 97.63 79.20 C 100.34 73.67 102.52 67.78 102.83 61.57 Z" />
<path fill="#9f0906" opacity="1.00" d=" M 55.42 108.36 C 57.76 105.12 61.08 102.32 64.98 101.23 C 69.62 103.10 73.32 106.78 76.07 110.88 C 73.59 115.01 71.38 119.88 66.84 122.13 C 63.42 122.91 60.66 119.96 57.93 118.37 C 61.10 118.45 64.75 119.68 67.53 117.57 C 69.86 115.78 72.26 113.22 72.29 110.12 C 71.43 108.01 69.93 106.18 68.11 104.83 C 65.07 101.98 61.57 105.77 58.77 107.16 C 59.46 109.71 60.20 112.24 61.00 114.75 C 63.14 114.00 65.24 113.17 67.24 112.11 C 66.96 111.16 66.67 110.21 66.39 109.26 C 64.98 110.27 63.56 111.26 62.11 112.21 C 62.95 109.85 63.94 107.56 65.05 105.32 C 66.92 107.27 69.45 109.55 68.65 112.58 C 67.21 114.97 64.79 116.75 62.16 117.62 C 58.56 116.02 55.72 112.32 55.42 108.36 Z" />
<path fill="#9f0906" opacity="1.00" d=" M 103.84 110.85 C 104.48 106.38 108.24 103.49 111.31 100.60 C 112.87 102.72 115.44 104.89 114.67 107.83 C 113.44 112.70 110.84 117.08 109.11 121.77 C 107.64 121.30 105.92 121.22 104.71 120.18 C 103.20 117.34 103.65 113.94 103.84 110.85 M 107.33 106.25 C 108.06 106.34 109.53 106.53 110.26 106.63 C 110.23 108.20 110.21 109.77 110.19 111.35 C 109.52 111.44 108.18 111.61 107.51 111.69 C 108.38 112.67 109.25 113.65 110.13 114.63 C 112.38 111.19 113.14 107.05 111.03 103.34 C 109.79 104.30 108.55 105.27 107.33 106.25 M 105.63 115.35 C 106.42 116.85 107.66 118.01 108.79 119.24 C 108.30 115.64 107.48 112.10 106.48 108.61 C 105.76 110.75 104.66 113.10 105.63 115.35 Z" />
<path fill="#9f0906" opacity="1.00" d=" M 87.08 132.15 C 91.36 129.79 96.58 131.68 100.80 133.33 C 103.77 134.32 104.46 137.65 105.60 140.17 C 104.26 141.58 102.74 142.88 101.75 144.57 C 101.08 147.88 101.16 151.28 100.84 154.64 C 94.33 155.63 87.82 156.55 81.30 157.41 C 80.66 153.47 80.18 149.49 80.27 145.50 C 82.14 140.91 83.52 135.76 87.08 132.15 M 89.00 139.00 C 86.85 142.32 86.24 146.32 85.53 150.14 C 89.01 151.13 92.64 151.02 96.12 150.11 C 96.31 146.16 96.91 142.10 95.93 138.20 C 94.32 135.52 90.33 136.62 89.00 139.00 Z" />
<path fill="#9f0906" opacity="1.00" d=" M 65.05 139.60 C 66.44 136.73 68.24 134.08 70.35 131.68 C 70.91 134.05 71.44 136.43 71.95 138.82 C 73.57 137.54 75.18 136.25 76.89 135.09 C 77.25 135.22 77.97 135.47 78.33 135.60 C 77.79 138.62 77.24 141.65 76.69 144.67 C 74.82 144.70 72.96 144.74 71.10 144.68 C 68.71 143.72 66.45 142.50 64.12 141.41 C 64.35 140.96 64.82 140.06 65.05 139.60 Z" />
</g>
<g id="#211211ff">
<path fill="#211211" opacity="1.00" d=" M 30.50 98.29 C 34.76 96.80 39.71 93.64 44.00 96.85 C 46.65 99.89 47.01 104.28 48.00 108.07 C 42.85 103.73 37.00 100.20 30.50 98.29 Z" />
<path fill="#211211" opacity="1.00" d=" M 44.67 126.17 C 45.48 121.22 51.09 116.21 55.97 119.48 C 53.90 120.43 51.83 121.39 49.77 122.36 C 52.21 123.75 54.67 125.11 56.97 126.72 C 55.43 126.36 53.84 125.94 52.25 126.13 C 49.41 127.23 47.37 129.62 45.18 131.62 C 44.99 130.15 44.72 128.69 44.51 127.23 L 44.67 126.17 Z" />
<path fill="#211211" opacity="1.00" d=" M 78.33 135.60 C 78.72 135.78 79.48 136.12 79.86 136.30 C 80.17 139.35 80.26 142.43 80.27 145.50 C 80.18 149.49 80.66 153.47 81.30 157.41 C 80.06 157.58 78.83 157.77 77.59 157.96 C 77.16 156.19 76.73 154.43 76.30 152.66 C 73.99 153.56 71.68 154.48 69.38 155.41 C 69.04 151.74 69.60 148.06 71.10 144.68 C 72.96 144.74 74.82 144.70 76.69 144.67 C 77.24 141.65 77.79 138.62 78.33 135.60 Z" />
<path fill="#211211" opacity="1.00" d=" M 89.00 139.00 C 90.33 136.62 94.32 135.52 95.93 138.20 C 96.91 142.10 96.31 146.16 96.12 150.11 C 92.64 151.02 89.01 151.13 85.53 150.14 C 86.24 146.32 86.85 142.32 89.00 139.00 Z" />
<path fill="#211211" opacity="1.00" d=" M 55.56 138.19 C 58.67 138.96 61.84 139.48 65.05 139.60 C 64.82 140.06 64.35 140.96 64.12 141.41 C 63.84 141.67 63.29 142.20 63.01 142.46 L 62.53 142.97 C 62.18 148.07 62.50 153.19 62.26 158.29 C 60.11 157.02 57.99 155.66 55.76 154.54 C 56.60 153.05 57.43 151.57 58.27 150.08 C 57.28 148.90 56.28 147.72 55.29 146.53 C 56.62 146.22 57.95 145.90 59.28 145.59 C 58.10 143.09 56.87 140.61 55.56 138.19 Z" />
<path fill="#211211" opacity="1.00" d=" M 91.99 160.97 C 92.68 160.84 94.06 160.58 94.76 160.45 C 97.56 160.50 100.36 160.61 103.16 160.80 C 105.49 161.66 107.83 162.99 109.18 165.15 C 108.48 169.63 104.36 172.63 101.30 175.64 C 99.10 175.04 96.80 174.98 94.62 175.67 C 97.03 176.47 99.48 177.18 101.93 177.86 C 102.25 178.60 102.88 180.09 103.20 180.83 C 102.74 180.94 101.82 181.16 101.36 181.26 C 101.25 181.29 101.02 181.33 100.91 181.35 L 100.26 181.46 C 99.50 180.35 98.02 180.49 97.37 181.61 C 96.29 182.19 95.21 182.74 94.10 183.27 L 93.24 183.72 C 92.30 186.85 93.45 189.87 95.24 192.44 C 81.73 191.78 68.21 192.66 54.71 191.75 C 54.68 190.57 54.64 189.39 54.61 188.21 C 52.83 187.94 51.05 187.67 49.28 187.41 C 49.97 186.19 50.67 184.98 51.37 183.77 C 49.65 182.08 47.92 180.40 46.32 178.60 C 45.91 177.66 45.22 177.03 44.25 176.73 C 43.93 176.58 43.28 176.30 42.96 176.16 C 43.74 175.04 44.32 173.81 44.69 172.51 C 48.43 175.24 53.10 174.89 57.40 174.05 C 56.79 172.99 56.19 171.94 55.60 170.88 C 56.40 170.07 57.21 169.26 58.01 168.44 C 56.86 167.74 55.71 167.04 54.55 166.35 C 54.98 164.83 55.38 163.31 55.80 161.80 C 58.86 163.65 62.42 164.67 65.21 166.94 C 66.47 169.58 64.12 172.32 63.41 174.85 C 64.17 175.59 64.93 176.33 65.69 177.07 C 65.22 179.91 64.72 182.74 64.25 185.58 C 64.83 185.49 65.42 185.39 66.00 185.30 C 68.13 186.57 70.32 187.74 72.56 188.82 C 73.00 186.77 73.43 184.71 73.87 182.66 C 74.00 183.06 74.27 183.86 74.40 184.26 C 74.87 185.65 75.35 187.05 75.83 188.44 C 80.15 186.31 82.45 181.99 84.27 177.75 C 84.46 177.34 84.84 176.53 85.03 176.12 C 84.53 175.77 83.52 175.08 83.01 174.74 C 85.05 174.75 87.09 174.64 89.13 174.56 C 88.39 171.90 87.23 169.29 87.04 166.51 C 87.76 164.06 90.13 162.54 91.99 160.97 M 91.64 173.04 C 93.86 174.03 96.27 173.35 98.54 172.96 C 96.80 170.37 92.97 169.67 91.64 173.04 Z" />
<path fill="#211211" opacity="1.00" d=" M 71.71 164.89 C 73.55 164.84 75.39 164.80 77.23 164.76 C 76.79 166.16 76.36 167.56 75.94 168.97 C 74.60 168.66 73.27 168.35 71.93 168.05 C 71.88 167.26 71.76 165.68 71.71 164.89 Z" />
</g>
</svg>
