<?xml version="1.0" encoding="UTF-8" ?>
<!DOCTYPE svg PUBLIC "-//W3C//DTD SVG 1.1//EN" "http://www.w3.org/Graphics/SVG/1.1/DTD/svg11.dtd">
<svg width="155pt" height="210pt" viewBox="0 0 155 210" version="1.1" xmlns="http://www.w3.org/2000/svg">
<g id="#babab6ff">
<path fill="#babab6" opacity="1.00" d=" M 72.71 45.50 C 77.60 44.30 81.50 48.47 85.37 50.73 C 81.31 51.04 77.24 50.72 73.18 50.50 C 73.02 48.83 72.86 47.17 72.71 45.50 Z" />
<path fill="#babab6" opacity="1.00" d=" M 100.91 51.09 C 105.02 51.82 109.22 51.46 113.36 51.86 C 115.46 52.75 116.47 55.09 116.92 57.19 C 117.58 60.70 118.22 64.25 118.11 67.83 C 118.04 68.68 117.89 70.38 117.82 71.23 C 114.49 65.95 112.07 59.93 107.19 55.79 C 108.87 59.35 110.98 62.66 113.06 65.99 C 116.28 71.08 117.98 76.94 121.14 82.06 C 120.81 82.67 120.15 83.88 119.82 84.49 C 108.86 80.27 101.74 70.57 95.01 61.48 C 96.38 61.03 97.74 60.58 99.11 60.11 C 102.09 59.32 104.44 57.27 106.70 55.28 C 106.41 54.54 105.83 53.06 105.54 52.32 C 103.99 51.91 102.46 51.47 100.91 51.09 Z" />
<path fill="#babab6" opacity="1.00" d=" M 72.09 56.28 C 76.71 55.13 81.34 53.99 86.04 53.26 C 92.44 60.15 95.93 69.73 95.63 79.11 C 89.00 74.29 85.51 66.72 80.64 60.39 C 78.71 57.56 75.17 57.03 72.09 56.28 Z" />
<path fill="#babab6" opacity="1.00" d=" M 44.70 59.62 C 49.15 57.24 54.11 55.58 59.20 55.46 C 60.28 56.11 61.36 56.78 62.47 57.39 C 57.62 59.92 52.82 62.51 48.09 65.23 C 46.31 65.53 44.52 65.76 42.73 66.00 C 42.98 63.84 42.35 60.84 44.70 59.62 Z" />
<path fill="#babab6" opacity="1.00" d=" M 54.61 100.60 C 58.72 101.00 62.64 102.75 66.84 102.43 C 66.24 103.14 65.65 103.86 65.07 104.59 C 60.51 104.36 55.95 104.56 51.39 104.52 C 52.40 103.17 53.33 101.72 54.61 100.60 Z" />
<path fill="#babab6" opacity="1.00" d=" M 101.03 103.24 C 101.25 103.41 101.69 103.76 101.92 103.93 C 102.95 104.72 104.00 105.50 105.04 106.28 L 105.74 106.80 L 105.38 107.03 C 104.09 107.81 102.85 108.67 101.61 109.53 C 103.05 110.13 104.49 110.72 105.95 111.30 C 104.46 113.31 103.09 115.41 101.75 117.51 C 96.88 115.69 91.71 114.84 86.85 113.03 C 84.65 112.22 83.90 109.84 83.00 107.91 C 85.52 109.35 88.10 110.94 91.01 111.38 C 95.12 110.64 97.83 106.99 100.40 104.00 C 100.56 103.81 100.87 103.43 101.03 103.24 Z" />
<path fill="#babab6" opacity="1.00" d=" M 126.16 117.94 C 128.39 116.61 130.50 115.10 132.62 113.61 C 134.23 116.51 134.53 119.80 134.11 123.05 C 130.60 121.78 127.03 120.65 123.48 119.51 C 124.15 119.11 125.49 118.33 126.16 117.94 Z" />
<path fill="#babab6" opacity="1.00" d=" M 68.02 123.64 C 71.42 123.67 74.50 122.06 77.20 120.12 C 76.79 122.99 76.22 125.84 75.71 128.70 C 75.45 130.75 75.50 132.83 75.59 134.90 C 77.40 133.07 79.13 131.16 80.81 129.20 C 81.65 131.72 82.53 134.23 83.42 136.73 C 84.72 133.62 85.92 130.46 86.97 127.25 C 92.35 127.02 98.64 126.51 102.38 131.23 C 99.39 133.18 96.95 136.72 93.15 136.98 C 89.55 137.00 85.75 136.19 82.34 137.72 C 81.24 139.48 80.43 141.49 78.91 142.95 C 76.60 144.26 73.90 144.64 71.41 145.50 C 70.02 144.91 68.64 144.33 67.25 143.75 C 68.97 142.76 70.70 141.80 72.42 140.82 C 72.22 137.35 72.71 132.79 69.13 130.83 C 65.07 129.02 59.97 128.91 55.97 130.92 C 52.19 133.02 51.59 137.56 51.45 141.46 C 53.26 141.98 55.01 142.69 56.85 143.12 C 57.44 143.21 58.64 143.40 59.24 143.49 C 55.95 144.46 52.70 145.56 49.40 146.48 C 49.06 146.38 48.38 146.16 48.03 146.05 C 45.75 145.38 43.55 144.46 41.45 143.34 C 42.86 142.62 44.28 141.92 45.69 141.21 C 44.31 134.39 42.46 127.68 40.76 120.95 C 42.65 121.50 44.55 122.05 46.41 122.71 C 45.48 126.21 46.79 129.55 49.09 132.19 C 51.15 129.84 51.09 126.89 50.29 124.05 C 56.19 124.56 62.11 123.70 68.02 123.64 M 71.81 129.64 C 72.41 127.65 72.85 125.61 73.14 123.54 C 71.08 125.04 70.86 127.42 71.81 129.64 Z" />
<path fill="#babab6" opacity="1.00" d=" M 118.90 134.42 C 121.26 135.81 123.61 137.20 125.98 138.59 C 124.57 140.33 122.84 141.77 120.87 142.84 C 120.17 140.04 119.53 137.23 118.90 134.42 Z" />
<path fill="#babab6" opacity="1.00" d=" M 49.55 167.67 C 53.43 168.76 57.79 168.98 60.86 165.88 C 61.10 166.73 61.35 167.57 61.61 168.41 C 60.80 170.22 60.09 172.14 60.36 174.16 C 60.50 175.37 60.68 176.58 60.90 177.78 C 60.51 178.04 59.71 178.55 59.32 178.81 C 57.54 180.00 55.74 181.16 53.92 182.29 C 52.04 179.82 50.04 177.24 49.85 174.00 C 49.69 171.24 47.76 169.18 46.15 167.13 C 46.80 167.23 48.10 167.43 48.75 167.53 L 49.55 167.67 Z" />
</g>
<g id="#343022ff">
<path fill="#343022" opacity="1.00" d=" M 58.40 54.95 C 63.12 51.73 67.79 48.43 72.71 45.50 C 72.86 47.17 73.02 48.83 73.18 50.50 C 69.04 54.08 63.11 52.63 58.40 54.95 Z" />
<path fill="#343022" opacity="1.00" d=" M 86.13 50.92 C 90.76 50.64 95.42 50.39 100.05 50.90 L 100.91 51.09 C 102.46 51.47 103.99 51.91 105.54 52.32 C 105.83 53.06 106.41 54.54 106.70 55.28 C 104.44 57.27 102.09 59.32 99.11 60.11 C 97.12 60.31 95.12 60.40 93.12 60.51 C 95.33 64.65 97.49 68.87 100.55 72.46 C 103.27 75.66 106.07 78.81 108.47 82.28 C 104.14 82.20 99.84 81.65 95.57 80.96 C 95.59 80.49 95.61 79.57 95.63 79.11 C 95.93 69.73 92.44 60.15 86.04 53.26 C 86.06 52.67 86.11 51.51 86.13 50.92 Z" />
<path fill="#343022" opacity="1.00" d=" M 107.19 55.79 C 112.07 59.93 114.49 65.95 117.82 71.23 C 117.89 70.38 118.04 68.68 118.11 67.83 C 124.03 70.57 125.57 77.78 123.50 83.54 C 122.91 83.17 121.73 82.43 121.14 82.06 C 117.98 76.94 116.28 71.08 113.06 65.99 C 110.98 62.66 108.87 59.35 107.19 55.79 Z" />
<path fill="#343022" opacity="1.00" d=" M 48.09 65.23 C 52.82 62.51 57.62 59.92 62.47 57.39 C 66.69 58.26 71.21 57.99 75.19 59.80 C 79.35 62.34 81.58 66.90 84.33 70.75 C 86.65 74.37 89.77 77.35 93.01 80.13 C 91.20 80.26 89.38 80.39 87.57 80.52 C 86.83 83.42 86.22 86.40 84.94 89.12 C 84.16 91.07 81.88 91.54 80.20 92.44 C 79.91 87.64 76.78 83.76 73.17 80.87 C 66.60 75.69 59.95 69.84 51.40 68.43 C 51.29 67.25 51.18 66.07 51.05 64.89 C 50.06 65.00 49.07 65.11 48.09 65.23 Z" />
<path fill="#343022" opacity="1.00" d=" M 36.45 68.42 C 38.14 66.79 40.56 66.53 42.73 66.00 C 44.80 68.14 47.57 70.00 48.42 72.99 C 49.28 79.95 45.21 86.47 46.01 93.43 C 46.27 96.29 46.43 99.17 46.30 102.06 C 44.25 100.92 42.13 99.92 40.01 98.92 C 40.47 102.22 41.58 105.47 41.46 108.82 C 40.80 112.27 39.04 115.44 38.67 118.97 C 38.26 122.74 39.90 126.31 40.20 130.02 C 40.15 133.27 39.40 136.48 39.37 139.74 C 34.99 137.99 31.88 134.34 29.53 130.38 C 28.30 131.48 26.93 132.41 25.70 133.51 C 23.41 129.77 20.84 125.60 21.67 121.01 C 23.19 111.48 31.96 105.23 33.87 95.85 C 33.95 93.03 32.64 90.40 32.17 87.66 C 31.14 83.65 32.74 79.67 33.44 75.75 C 34.06 73.20 34.18 70.15 36.45 68.42 Z" />
<path fill="#343022" opacity="1.00" d=" M 123.96 99.49 C 127.85 103.50 130.62 108.42 132.62 113.61 C 130.50 115.10 128.39 116.61 126.16 117.94 C 125.85 115.17 125.51 112.40 125.12 109.63 C 124.12 111.78 123.11 113.91 122.10 116.05 C 118.27 111.18 117.62 102.61 123.96 99.49 Z" />
<path fill="#343022" opacity="1.00" d=" M 80.20 103.27 C 86.45 100.44 94.47 100.32 100.40 104.00 C 97.83 106.99 95.12 110.64 91.01 111.38 C 88.10 110.94 85.52 109.35 83.00 107.91 C 81.72 106.62 80.69 105.04 80.20 103.27 Z" />
<path fill="#343022" opacity="1.00" d=" M 72.85 104.23 C 73.63 103.31 75.70 102.84 76.09 104.38 C 76.21 105.96 74.14 106.43 72.99 105.89 C 72.95 105.48 72.89 104.65 72.85 104.23 Z" />
<path fill="#343022" opacity="1.00" d=" M 101.92 103.93 C 103.25 103.80 104.58 103.70 105.92 103.59 C 105.70 104.27 105.26 105.61 105.04 106.28 C 104.00 105.50 102.95 104.72 101.92 103.93 Z" />
<path fill="#343022" opacity="1.00" d=" M 101.61 109.53 C 102.85 108.67 104.09 107.81 105.38 107.03 C 107.53 107.69 106.14 109.79 105.95 111.30 C 104.49 110.72 103.05 110.13 101.61 109.53 Z" />
<path fill="#343022" opacity="1.00" d=" M 113.92 115.40 C 117.02 116.95 120.18 118.40 123.48 119.51 C 127.03 120.65 130.60 121.78 134.11 123.05 C 131.87 128.46 129.10 133.63 125.98 138.59 C 123.61 137.20 121.26 135.81 118.90 134.42 C 119.53 137.23 120.17 140.04 120.87 142.84 C 119.62 140.86 118.56 138.72 116.95 137.00 C 114.85 135.18 112.15 134.33 109.64 133.26 C 108.22 135.03 106.77 136.78 105.28 138.49 C 104.39 136.27 103.40 134.07 102.92 131.71 C 103.11 129.21 103.53 126.72 104.22 124.30 C 105.56 124.85 106.89 126.28 108.44 125.50 C 112.72 124.14 112.92 119.05 113.92 115.40 Z" />
<path fill="#343022" opacity="1.00" d=" M 77.20 120.12 C 78.23 119.38 79.24 118.61 80.26 117.85 C 85.77 122.20 93.11 121.06 99.63 121.94 C 93.68 121.68 87.53 120.98 81.88 123.34 C 82.42 124.38 82.96 125.44 83.51 126.49 C 80.89 127.19 78.30 127.93 75.71 128.70 C 76.22 125.84 76.79 122.99 77.20 120.12 Z" />
<path fill="#343022" opacity="1.00" d=" M 71.81 129.64 C 70.86 127.42 71.08 125.04 73.14 123.54 C 72.85 125.61 72.41 127.65 71.81 129.64 Z" />
<path fill="#343022" opacity="1.00" d=" M 110.86 169.42 C 113.91 173.39 114.80 178.43 113.79 183.29 L 113.28 182.64 C 111.34 179.95 108.92 177.31 108.36 173.94 C 108.66 172.21 109.98 170.88 110.86 169.42 Z" />
<path fill="#343022" opacity="1.00" d=" M 71.97 178.75 C 72.61 181.21 73.37 183.64 74.12 186.07 C 73.54 186.13 72.37 186.26 71.79 186.32 C 71.84 183.79 71.89 181.27 71.97 178.75 Z" />
</g>
<g id="#948f89ff">
<path fill="#948f89" opacity="1.00" d=" M 58.40 54.95 C 63.11 52.63 69.04 54.08 73.18 50.50 C 77.24 50.72 81.31 51.04 85.37 50.73 C 90.25 50.38 95.21 49.88 100.05 50.90 C 95.42 50.39 90.76 50.64 86.13 50.92 C 86.11 51.51 86.06 52.67 86.04 53.26 C 81.34 53.99 76.71 55.13 72.09 56.28 C 75.17 57.03 78.71 57.56 80.64 60.39 C 85.51 66.72 89.00 74.29 95.63 79.11 C 95.61 79.57 95.59 80.49 95.57 80.96 C 99.84 81.65 104.14 82.20 108.47 82.28 C 106.07 78.81 103.27 75.66 100.55 72.46 C 97.49 68.87 95.33 64.65 93.12 60.51 C 95.12 60.40 97.12 60.31 99.11 60.11 C 97.74 60.58 96.38 61.03 95.01 61.48 C 101.74 70.57 108.86 80.27 119.82 84.49 C 120.15 83.88 120.81 82.67 121.14 82.06 C 121.73 82.43 122.91 83.17 123.50 83.54 C 123.42 83.96 123.25 84.79 123.17 85.20 C 118.76 86.30 114.27 85.18 110.38 83.01 C 111.14 87.57 110.57 92.15 109.74 96.65 C 108.67 101.32 113.86 104.92 112.64 109.60 C 111.21 115.19 106.88 119.33 104.22 124.30 C 103.53 126.72 103.11 129.21 102.92 131.71 L 102.38 131.23 C 98.64 126.51 92.35 127.02 86.97 127.25 C 85.92 130.46 84.72 133.62 83.42 136.73 C 82.53 134.23 81.65 131.72 80.81 129.20 C 79.13 131.16 77.40 133.07 75.59 134.90 C 75.50 132.83 75.45 130.75 75.71 128.70 C 78.30 127.93 80.89 127.19 83.51 126.49 C 82.96 125.44 82.42 124.38 81.88 123.34 C 87.53 120.98 93.68 121.68 99.63 121.94 C 93.11 121.06 85.77 122.20 80.26 117.85 C 77.15 114.37 73.25 110.90 72.99 105.89 C 74.14 106.43 76.21 105.96 76.09 104.38 C 75.70 102.84 73.63 103.31 72.85 104.23 C 72.87 102.62 72.87 101.01 72.87 99.40 C 71.57 99.54 70.27 99.66 68.97 99.71 C 65.42 99.72 61.95 98.91 58.49 98.18 C 59.27 93.38 59.25 86.85 64.29 84.38 C 67.28 84.24 69.65 86.52 72.09 87.92 C 71.36 89.63 70.62 91.33 69.83 93.01 C 69.86 91.32 70.55 89.21 68.93 88.02 C 67.52 87.89 66.10 87.82 64.69 87.82 C 64.83 89.38 64.89 90.96 65.23 92.50 C 66.33 93.49 67.57 94.32 68.81 95.12 C 69.76 95.72 70.70 96.32 71.66 96.91 C 73.25 95.84 74.93 94.91 76.55 93.87 C 76.98 95.90 77.43 97.93 77.85 99.97 C 79.05 99.66 80.25 99.34 81.45 99.02 C 80.98 96.84 80.59 94.64 80.20 92.44 C 81.88 91.54 84.16 91.07 84.94 89.12 C 86.22 86.40 86.83 83.42 87.57 80.52 C 89.38 80.39 91.20 80.26 93.01 80.13 C 89.77 77.35 86.65 74.37 84.33 70.75 C 81.58 66.90 79.35 62.34 75.19 59.80 C 71.21 57.99 66.69 58.26 62.47 57.39 C 61.36 56.78 60.28 56.11 59.20 55.46 L 58.40 54.95 M 98.03 96.94 C 98.85 97.07 99.66 97.26 100.45 97.51 C 101.69 96.16 103.04 94.92 104.33 93.62 C 103.87 92.50 103.40 91.38 102.93 90.27 C 100.72 92.03 99.14 94.36 98.03 96.94 M 80.20 103.27 C 80.69 105.04 81.72 106.62 83.00 107.91 C 83.90 109.84 84.65 112.22 86.85 113.03 C 91.71 114.84 96.88 115.69 101.75 117.51 C 103.09 115.41 104.46 113.31 105.95 111.30 C 106.14 109.79 107.53 107.69 105.38 107.03 L 105.74 106.80 L 105.04 106.28 C 105.26 105.61 105.70 104.27 105.92 103.59 C 104.58 103.70 103.25 103.80 101.92 103.93 C 101.69 103.76 101.25 103.41 101.03 103.24 C 100.87 103.43 100.56 103.81 100.40 104.00 C 94.47 100.32 86.45 100.44 80.20 103.27 Z" />
<path fill="#948f89" opacity="1.00" d=" M 55.97 130.92 C 59.97 128.91 65.07 129.02 69.13 130.83 C 72.71 132.79 72.22 137.35 72.42 140.82 C 70.70 141.80 68.97 142.76 67.25 143.75 C 68.64 144.33 70.02 144.91 71.41 145.50 C 70.09 146.26 68.83 147.11 67.56 147.95 C 65.07 146.01 62.62 143.47 59.24 143.49 C 58.64 143.40 57.44 143.21 56.85 143.12 C 58.29 142.05 59.86 141.08 60.99 139.66 C 61.66 137.24 60.48 134.83 59.95 132.50 C 58.72 133.07 57.46 133.59 56.29 134.29 C 55.34 136.42 55.27 138.81 54.89 141.08 C 54.03 141.17 52.31 141.36 51.45 141.46 C 51.59 137.56 52.19 133.02 55.97 130.92 M 63.69 134.68 C 63.14 136.80 63.23 139.02 63.10 141.19 C 64.88 141.14 66.76 141.27 68.40 140.49 C 68.94 138.23 69.26 135.76 68.39 133.54 C 66.91 132.80 64.39 132.89 63.69 134.68 Z" />
<path fill="#948f89" opacity="1.00" d=" M 82.34 137.72 C 85.75 136.19 89.55 137.00 93.15 136.98 C 93.14 138.19 93.07 139.40 92.96 140.60 C 92.45 142.17 91.87 143.72 91.28 145.27 C 90.69 142.89 90.15 140.50 89.61 138.12 C 87.19 137.95 84.76 137.88 82.34 137.72 Z" />
<path fill="#948f89" opacity="1.00" d=" M 85.01 142.64 C 87.81 145.43 88.09 151.25 84.52 153.50 C 84.31 149.87 84.40 146.22 85.01 142.64 Z" />
<path fill="#948f89" opacity="1.00" d=" M 96.71 146.32 C 97.25 145.77 97.77 145.21 98.29 144.65 C 99.36 146.28 100.32 148.01 101.74 149.37 C 103.94 150.52 106.44 149.21 107.50 147.14 C 106.10 146.27 104.63 145.53 103.14 144.83 C 108.69 145.97 114.89 144.24 119.69 148.06 C 118.52 151.01 116.90 153.74 115.27 156.45 C 113.27 156.54 111.27 156.72 109.28 156.61 C 106.45 155.72 104.06 153.56 101.01 153.37 C 98.14 153.05 95.26 152.78 92.39 152.45 C 92.29 152.02 92.09 151.16 91.99 150.73 L 91.77 149.94 C 93.59 148.99 95.24 147.75 96.71 146.32 Z" />
<path fill="#948f89" opacity="1.00" d=" M 76.72 146.49 C 77.58 145.95 78.43 145.42 79.29 144.88 C 78.40 148.24 78.47 151.73 78.90 155.15 C 75.93 155.72 72.92 155.94 69.90 155.80 C 71.87 153.76 74.03 151.92 76.34 150.29 C 76.48 149.02 76.58 147.75 76.72 146.49 Z" />
<path fill="#948f89" opacity="1.00" d=" M 48.03 146.05 C 48.38 146.16 49.06 146.38 49.40 146.48 C 51.00 147.63 52.50 148.95 54.27 149.84 C 57.56 150.31 60.80 149.16 63.97 148.41 C 64.35 149.30 64.72 150.19 65.08 151.09 C 64.50 151.25 63.33 151.56 62.75 151.72 C 62.18 152.02 61.02 152.63 60.45 152.94 C 60.03 155.74 59.66 158.55 59.31 161.37 C 56.23 161.76 53.14 162.06 50.05 162.31 C 49.88 164.09 49.71 165.88 49.55 167.67 L 48.75 167.53 C 49.21 164.82 50.12 162.01 49.53 159.25 C 48.55 156.96 46.90 155.04 45.82 152.80 C 45.99 150.41 47.25 148.27 48.03 146.05 Z" />
<path fill="#948f89" opacity="1.00" d=" M 59.10 162.96 C 59.60 163.04 60.60 163.20 61.09 163.27 C 61.06 163.72 61.01 164.62 60.98 165.07 C 59.44 165.20 58.82 164.50 59.10 162.96 Z" />
<path fill="#948f89" opacity="1.00" d=" M 83.29 168.70 C 84.27 167.63 85.25 166.57 86.30 165.56 C 86.92 166.58 87.54 167.58 88.17 168.59 C 90.01 168.44 91.86 168.30 93.71 168.37 C 92.94 170.27 92.19 172.18 91.42 174.09 C 88.70 173.42 85.99 172.68 83.31 171.85 C 83.30 170.80 83.29 169.75 83.29 168.70 Z" />
<path fill="#948f89" opacity="1.00" d=" M 60.36 174.16 C 60.09 172.14 60.80 170.22 61.61 168.41 C 64.32 171.68 67.89 174.81 72.49 173.92 C 68.49 174.70 64.39 174.59 60.36 174.16 Z" />
<path fill="#948f89" opacity="1.00" d=" M 104.84 168.97 C 105.14 171.35 102.03 169.93 104.00 168.59 L 104.84 168.97 Z" />
<path fill="#948f89" opacity="1.00" d=" M 53.92 182.29 C 55.74 181.16 57.54 180.00 59.32 178.81 C 61.26 180.64 62.08 183.13 62.37 185.73 C 54.70 185.89 47.01 185.13 39.37 186.04 L 39.27 185.54 C 44.38 185.93 49.70 185.50 53.92 182.29 Z" />
<path fill="#948f89" opacity="1.00" d=" M 88.60 178.96 C 90.95 179.09 93.34 179.27 95.54 180.21 C 98.09 181.62 100.33 183.49 102.39 185.53 C 97.54 185.80 92.68 185.75 87.82 185.91 C 88.09 183.59 88.33 181.28 88.60 178.96 Z" />
</g>
<g id="#0c0a08ff">
<path fill="#0c0a08" opacity="1.00" d=" M 42.73 66.00 C 44.52 65.76 46.31 65.53 48.09 65.23 C 49.07 65.11 50.06 65.00 51.05 64.89 C 51.18 66.07 51.29 67.25 51.40 68.43 C 59.95 69.84 66.60 75.69 73.17 80.87 C 76.78 83.76 79.91 87.64 80.20 92.44 C 80.59 94.64 80.98 96.84 81.45 99.02 C 80.25 99.34 79.05 99.66 77.85 99.97 C 77.43 97.93 76.98 95.90 76.55 93.87 C 74.93 94.91 73.25 95.84 71.66 96.91 C 70.70 96.32 69.76 95.72 68.81 95.12 C 69.07 94.59 69.58 93.53 69.83 93.01 C 70.62 91.33 71.36 89.63 72.09 87.92 C 69.65 86.52 67.28 84.24 64.29 84.38 C 59.25 86.85 59.27 93.38 58.49 98.18 C 61.95 98.91 65.42 99.72 68.97 99.71 C 68.27 100.63 67.57 101.53 66.84 102.43 C 62.64 102.75 58.72 101.00 54.61 100.60 C 53.33 101.72 52.40 103.17 51.39 104.52 C 49.61 103.87 47.96 102.94 46.30 102.06 C 46.43 99.17 46.27 96.29 46.01 93.43 C 45.21 86.47 49.28 79.95 48.42 72.99 C 47.57 70.00 44.80 68.14 42.73 66.00 M 51.63 82.19 C 55.87 82.46 59.42 80.25 61.71 76.80 C 59.54 75.65 57.27 74.67 54.96 73.82 C 53.27 76.35 52.06 79.16 51.63 82.19 Z" />
<path fill="#0c0a08" opacity="1.00" d=" M 110.38 83.01 C 114.27 85.18 118.76 86.30 123.17 85.20 C 122.03 87.73 120.66 90.23 120.21 93.00 C 120.57 95.54 122.56 97.44 123.96 99.49 C 117.62 102.61 118.27 111.18 122.10 116.05 C 123.11 113.91 124.12 111.78 125.12 109.63 C 125.51 112.40 125.85 115.17 126.16 117.94 C 125.49 118.33 124.15 119.11 123.48 119.51 C 120.18 118.40 117.02 116.95 113.92 115.40 C 112.92 119.05 112.72 124.14 108.44 125.50 C 106.89 126.28 105.56 124.85 104.22 124.30 C 106.88 119.33 111.21 115.19 112.64 109.60 C 113.86 104.92 108.67 101.32 109.74 96.65 C 110.57 92.15 111.14 87.57 110.38 83.01 Z" />
<path fill="#0c0a08" opacity="1.00" d=" M 98.03 96.94 C 99.14 94.36 100.72 92.03 102.93 90.27 C 103.40 91.38 103.87 92.50 104.33 93.62 C 103.04 94.92 101.69 96.16 100.45 97.51 C 99.66 97.26 98.85 97.07 98.03 96.94 Z" />
<path fill="#0c0a08" opacity="1.00" d=" M 49.09 132.19 C 46.79 129.55 45.48 126.21 46.41 122.71 C 47.70 123.17 48.99 123.62 50.29 124.05 C 51.09 126.89 51.15 129.84 49.09 132.19 Z" />
<path fill="#0c0a08" opacity="1.00" d=" M 56.29 134.29 C 57.46 133.59 58.72 133.07 59.95 132.50 C 60.48 134.83 61.66 137.24 60.99 139.66 C 59.86 141.08 58.29 142.05 56.85 143.12 C 55.01 142.69 53.26 141.98 51.45 141.46 C 52.31 141.36 54.03 141.17 54.89 141.08 C 55.27 138.81 55.34 136.42 56.29 134.29 Z" />
<path fill="#0c0a08" opacity="1.00" d=" M 63.69 134.68 C 64.39 132.89 66.91 132.80 68.39 133.54 C 69.26 135.76 68.94 138.23 68.40 140.49 C 66.76 141.27 64.88 141.14 63.10 141.19 C 63.23 139.02 63.14 136.80 63.69 134.68 Z" />
<path fill="#0c0a08" opacity="1.00" d=" M 95.00 142.87 C 97.80 143.03 100.62 143.52 103.14 144.83 C 104.63 145.53 106.10 146.27 107.50 147.14 C 106.44 149.21 103.94 150.52 101.74 149.37 C 100.32 148.01 99.36 146.28 98.29 144.65 C 97.77 145.21 97.25 145.77 96.71 146.32 C 96.17 145.16 95.60 144.00 95.00 142.87 Z" />
<path fill="#0c0a08" opacity="1.00" d=" M 91.76 160.04 C 96.37 160.68 100.75 162.75 104.15 165.93 C 105.08 166.58 104.70 167.92 104.00 168.59 C 102.03 169.93 105.14 171.35 104.84 168.97 C 106.85 168.61 108.87 169.09 110.86 169.42 C 109.98 170.88 108.66 172.21 108.36 173.94 C 108.92 177.31 111.34 179.95 113.28 182.64 C 112.96 183.62 112.64 184.60 112.33 185.58 C 114.48 186.06 116.81 186.24 118.70 187.49 C 119.72 189.54 119.18 191.98 119.35 194.20 C 91.77 194.47 64.18 194.47 36.61 194.20 C 36.65 191.25 35.71 187.18 39.37 186.04 C 47.01 185.13 54.70 185.89 62.37 185.73 C 62.08 183.13 61.26 180.64 59.32 178.81 C 59.71 178.55 60.51 178.04 60.90 177.78 C 60.68 176.58 60.50 175.37 60.36 174.16 C 64.39 174.59 68.49 174.70 72.49 173.92 C 73.92 171.62 74.28 168.88 74.89 166.29 C 75.28 166.28 76.05 166.27 76.44 166.27 C 77.44 168.38 78.24 170.61 79.56 172.55 C 80.87 171.34 82.07 170.01 83.29 168.70 C 83.29 169.75 83.30 170.80 83.31 171.85 C 83.41 176.59 83.83 181.32 83.90 186.07 C 85.21 186.01 86.52 185.96 87.82 185.91 C 92.68 185.75 97.54 185.80 102.39 185.53 C 100.33 183.49 98.09 181.62 95.54 180.21 C 94.21 176.39 94.16 172.33 93.71 168.37 C 91.86 168.30 90.01 168.44 88.17 168.59 C 87.54 167.58 86.92 166.58 86.30 165.56 C 88.86 164.54 91.63 164.77 94.29 165.12 C 93.42 163.44 92.62 161.72 91.76 160.04 M 71.97 178.75 C 71.89 181.27 71.84 183.79 71.79 186.32 C 72.37 186.26 73.54 186.13 74.12 186.07 C 76.80 185.86 79.48 185.69 82.16 185.49 C 81.09 183.80 80.08 182.03 78.65 180.62 C 77.30 180.82 76.00 181.25 74.69 181.62 C 74.28 179.28 73.86 176.94 73.33 174.63 C 72.13 175.72 71.14 177.10 71.97 178.75 Z" />
</g>
<g id="#920702ff">
<path fill="#920702" opacity="1.00" d=" M 51.63 82.19 C 52.06 79.16 53.27 76.35 54.96 73.82 C 57.27 74.67 59.54 75.65 61.71 76.80 C 59.42 80.25 55.87 82.46 51.63 82.19 Z" />
<path fill="#920702" opacity="1.00" d=" M 50.05 162.31 C 53.14 162.06 56.23 161.76 59.31 161.37 C 59.26 161.77 59.16 162.56 59.10 162.96 C 58.82 164.50 59.44 165.20 60.98 165.07 L 60.86 165.88 C 57.79 168.98 53.43 168.76 49.55 167.67 C 49.71 165.88 49.88 164.09 50.05 162.31 Z" />
</g>
<g id="#e1d9d0ff">
<path fill="#e1d9d0" opacity="1.00" d=" M 64.69 87.82 C 66.10 87.82 67.52 87.89 68.93 88.02 C 70.55 89.21 69.86 91.32 69.83 93.01 C 69.58 93.53 69.07 94.59 68.81 95.12 C 67.57 94.32 66.33 93.49 65.23 92.50 C 64.89 90.96 64.83 89.38 64.69 87.82 Z" />
<path fill="#e1d9d0" opacity="1.00" d=" M 40.01 98.92 C 42.13 99.92 44.25 100.92 46.30 102.06 C 47.96 102.94 49.61 103.87 51.39 104.52 C 55.95 104.56 60.51 104.36 65.07 104.59 C 65.65 103.86 66.24 103.14 66.84 102.43 C 67.57 101.53 68.27 100.63 68.97 99.71 C 70.27 99.66 71.57 99.54 72.87 99.40 C 72.87 101.01 72.87 102.62 72.85 104.23 C 72.89 104.65 72.95 105.48 72.99 105.89 C 73.25 110.90 77.15 114.37 80.26 117.85 C 79.24 118.61 78.23 119.38 77.20 120.12 C 74.50 122.06 71.42 123.67 68.02 123.64 C 62.11 123.70 56.19 124.56 50.29 124.05 C 48.99 123.62 47.70 123.17 46.41 122.71 C 44.55 122.05 42.65 121.50 40.76 120.95 C 42.46 127.68 44.31 134.39 45.69 141.21 C 44.28 141.92 42.86 142.62 41.45 143.34 C 40.73 142.16 40.02 140.97 39.37 139.74 C 39.40 136.48 40.15 133.27 40.20 130.02 C 39.90 126.31 38.26 122.74 38.67 118.97 C 39.04 115.44 40.80 112.27 41.46 108.82 C 41.58 105.47 40.47 102.22 40.01 98.92 Z" />
<path fill="#e1d9d0" opacity="1.00" d=" M 90.29 150.41 C 90.66 150.29 91.40 150.06 91.77 149.94 L 91.99 150.73 C 91.56 150.84 90.71 151.05 90.29 151.16 L 90.29 150.41 Z" />
<path fill="#e1d9d0" opacity="1.00" d=" M 62.75 151.72 C 63.33 151.56 64.50 151.25 65.08 151.09 C 65.39 152.79 64.66 153.31 62.87 152.66 L 62.75 151.72 Z" />
</g>
<g id="#500c02ff">
<path fill="#500c02" opacity="1.00" d=" M 82.34 137.72 C 84.76 137.88 87.19 137.95 89.61 138.12 C 90.15 140.50 90.69 142.89 91.28 145.27 C 91.87 143.72 92.45 142.17 92.96 140.60 C 93.68 141.31 94.36 142.07 95.00 142.87 C 95.60 144.00 96.17 145.16 96.71 146.32 C 95.24 147.75 93.59 148.99 91.77 149.94 C 91.40 150.06 90.66 150.29 90.29 150.41 L 90.29 151.16 C 90.11 154.21 89.93 157.41 91.76 160.04 C 92.62 161.72 93.42 163.44 94.29 165.12 C 91.63 164.77 88.86 164.54 86.30 165.56 C 85.25 166.57 84.27 167.63 83.29 168.70 C 82.07 170.01 80.87 171.34 79.56 172.55 C 78.24 170.61 77.44 168.38 76.44 166.27 C 76.05 166.27 75.28 166.28 74.89 166.29 C 74.28 168.88 73.92 171.62 72.49 173.92 C 67.89 174.81 64.32 171.68 61.61 168.41 C 61.35 167.57 61.10 166.73 60.86 165.88 L 60.98 165.07 C 61.01 164.62 61.06 163.72 61.09 163.27 C 62.19 159.84 63.34 156.32 62.87 152.66 C 64.66 153.31 65.39 152.79 65.08 151.09 C 64.72 150.19 64.35 149.30 63.97 148.41 C 60.80 149.16 57.56 150.31 54.27 149.84 C 52.50 148.95 51.00 147.63 49.40 146.48 C 52.70 145.56 55.95 144.46 59.24 143.49 C 62.62 143.47 65.07 146.01 67.56 147.95 C 68.83 147.11 70.09 146.26 71.41 145.50 C 73.90 144.64 76.60 144.26 78.91 142.95 C 80.43 141.49 81.24 139.48 82.34 137.72 M 85.01 142.64 C 84.40 146.22 84.31 149.87 84.52 153.50 C 88.09 151.25 87.81 145.43 85.01 142.64 M 76.72 146.49 C 76.58 147.75 76.48 149.02 76.34 150.29 C 74.03 151.92 71.87 153.76 69.90 155.80 C 72.92 155.94 75.93 155.72 78.90 155.15 C 78.47 151.73 78.40 148.24 79.29 144.88 C 78.43 145.42 77.58 145.95 76.72 146.49 Z" />
<path fill="#500c02" opacity="1.00" d=" M 93.71 168.37 C 94.16 172.33 94.21 176.39 95.54 180.21 C 93.34 179.27 90.95 179.09 88.60 178.96 C 88.33 181.28 88.09 183.59 87.82 185.91 C 86.52 185.96 85.21 186.01 83.90 186.07 C 83.83 181.32 83.41 176.59 83.31 171.85 C 85.99 172.68 88.70 173.42 91.42 174.09 C 92.19 172.18 92.94 170.27 93.71 168.37 Z" />
</g>
</svg>
