<?xml version="1.0" encoding="UTF-8" ?>
<!DOCTYPE svg PUBLIC "-//W3C//DTD SVG 1.1//EN" "http://www.w3.org/Graphics/SVG/1.1/DTD/svg11.dtd">
<svg width="155pt" height="210pt" viewBox="0 0 155 210" version="1.1" xmlns="http://www.w3.org/2000/svg">
<g id="#d5dbedff">
<path fill="#d5dbed" opacity="1.00" d=" M 86.12 25.13 C 86.15 20.53 91.32 19.95 94.84 19.66 C 101.13 19.93 106.96 22.73 112.40 25.68 C 117.63 28.62 120.92 33.82 125.48 37.57 C 130.27 41.35 133.06 47.18 134.40 53.02 C 134.25 56.82 131.97 60.17 131.58 63.94 C 131.21 68.01 132.23 72.02 132.62 76.05 C 139.20 77.31 144.74 72.28 151.23 72.44 C 150.38 75.27 149.71 78.36 147.55 80.53 C 142.63 85.95 134.68 88.60 131.71 95.70 C 129.28 101.00 128.01 106.80 125.02 111.85 C 123.65 113.83 122.42 116.26 120.10 117.25 C 119.95 116.67 119.65 115.52 119.50 114.94 C 122.89 104.23 126.48 93.34 126.63 81.99 C 126.65 76.35 126.49 70.68 125.59 65.10 C 124.75 59.74 120.88 55.51 116.91 52.10 C 111.73 47.72 105.07 45.79 98.57 44.39 C 96.62 46.50 94.61 48.54 92.72 50.70 C 92.52 49.68 92.32 48.67 92.12 47.65 C 91.10 48.77 90.08 49.90 89.06 51.03 L 89.27 50.16 C 89.51 49.10 89.76 48.04 90.01 46.99 C 91.12 43.67 92.65 40.31 92.24 36.72 C 91.88 32.72 91.43 28.59 92.98 24.77 C 90.69 25.83 88.23 26.45 85.73 26.77 C 85.83 26.36 86.02 25.54 86.12 25.13 Z" />
<path fill="#d5dbed" opacity="1.00" d=" M 48.21 27.37 C 54.74 24.56 60.88 20.45 68.07 19.52 C 70.08 18.99 71.67 20.55 73.13 21.65 C 76.42 24.73 80.46 27.72 81.46 32.39 C 82.58 37.02 83.85 41.61 85.05 46.23 C 80.98 41.98 79.46 36.17 76.73 31.11 C 73.49 31.27 70.20 31.29 67.06 32.20 C 58.44 34.76 51.39 40.60 43.21 44.12 C 46.24 38.89 52.28 37.10 57.08 33.99 C 53.24 33.64 49.29 32.73 45.47 33.67 C 41.48 35.33 38.24 38.33 34.90 41.00 C 35.57 39.33 36.24 37.67 37.01 36.04 C 39.32 31.69 43.84 29.23 48.21 27.37 Z" />
<path fill="#d5dbed" opacity="1.00" d=" M 93.98 54.16 C 95.33 52.91 96.78 51.36 98.79 51.49 C 104.22 51.58 109.68 53.05 114.43 55.69 C 119.50 58.61 120.84 64.86 122.06 70.13 C 121.96 71.23 121.81 72.34 121.63 73.44 C 120.58 72.82 119.53 72.21 118.48 71.60 C 118.39 67.03 119.39 61.07 115.18 57.98 C 108.59 54.89 101.07 55.11 93.98 54.16 Z" />
<path fill="#d5dbed" opacity="1.00" d=" M 35.79 63.03 C 36.07 59.19 36.36 55.17 38.75 51.96 C 39.82 58.95 39.16 66.02 39.29 73.05 C 39.38 80.62 41.35 87.97 42.79 95.36 C 43.80 100.58 45.47 105.64 47.39 110.59 C 48.03 110.63 49.30 110.71 49.94 110.74 C 50.48 105.39 50.98 100.03 51.44 94.67 C 51.57 95.67 51.71 96.68 51.84 97.69 C 51.91 101.88 51.71 106.08 51.83 110.27 C 52.90 109.11 53.97 107.96 55.04 106.80 C 55.88 108.37 56.70 109.94 57.52 111.52 C 59.67 111.29 61.83 111.05 63.98 110.82 C 64.17 113.57 64.36 116.33 64.53 119.09 C 59.13 118.67 54.88 115.12 50.86 111.83 C 50.09 111.85 48.54 111.88 47.77 111.89 C 48.76 114.00 49.68 116.13 50.54 118.28 L 50.85 119.08 C 50.95 120.28 51.05 121.48 51.16 122.68 C 50.40 122.90 48.86 123.34 48.09 123.55 C 43.11 117.46 39.98 110.13 37.13 102.86 C 36.04 100.02 35.52 96.85 33.54 94.45 C 31.00 91.40 27.81 88.97 25.21 85.97 C 21.86 80.66 15.79 76.66 14.73 70.20 C 18.90 66.93 23.94 70.36 28.08 71.89 C 28.19 71.37 28.39 70.32 28.49 69.80 C 29.76 75.81 31.98 81.56 33.69 87.45 C 35.76 94.07 37.60 101.16 42.62 106.25 C 39.41 92.07 33.97 77.81 35.79 63.03 Z" />
<path fill="#d5dbed" opacity="1.00" d=" M 55.19 70.25 C 58.47 62.80 65.43 57.21 73.20 55.04 C 76.49 54.18 78.91 57.03 81.05 59.01 C 76.56 58.28 71.52 57.74 67.59 60.54 C 62.32 63.64 60.10 69.67 58.94 75.36 C 57.63 75.97 56.32 76.59 55.01 77.20 L 54.42 76.75 C 54.29 74.57 54.32 72.29 55.19 70.25 Z" />
<path fill="#d5dbed" opacity="1.00" d=" M 101.83 111.50 C 104.89 111.45 107.84 112.51 110.89 112.62 C 113.21 112.46 115.37 111.50 117.56 110.79 C 117.38 111.73 117.22 112.67 117.06 113.61 C 114.60 115.31 112.27 117.19 109.77 118.82 C 108.45 119.29 107.11 119.68 105.76 120.05 C 104.74 120.31 103.72 120.56 102.70 120.80 C 102.20 120.32 101.20 119.36 100.71 118.88 C 101.01 116.41 101.23 113.92 101.83 111.50 Z" />
<path fill="#d5dbed" opacity="1.00" d=" M 68.33 120.86 C 70.21 117.74 70.84 112.07 75.45 112.20 C 81.92 112.10 88.41 112.56 94.88 112.05 C 95.44 115.37 95.98 118.70 96.42 122.05 C 95.99 122.16 95.14 122.38 94.71 122.49 C 90.48 125.06 86.96 130.25 81.42 129.42 C 77.40 128.33 76.58 123.92 76.65 120.35 C 73.87 120.48 71.09 120.59 68.33 120.86 M 84.75 119.89 C 84.80 121.67 84.86 123.46 84.92 125.25 C 87.20 124.72 89.66 124.45 91.62 123.04 C 90.28 120.55 87.10 120.70 84.75 119.89 Z" />
<path fill="#d5dbed" opacity="1.00" d=" M 48.14 127.49 C 49.94 125.76 51.83 123.93 54.24 123.11 C 57.69 123.60 61.08 125.41 64.61 124.17 C 66.99 127.57 68.28 131.60 67.81 135.78 C 67.64 137.35 67.41 138.92 67.19 140.49 C 65.14 139.94 63.10 139.33 61.00 139.05 C 59.41 140.16 59.99 142.22 59.93 143.86 C 55.74 141.89 51.27 140.48 46.63 140.12 C 46.36 139.87 45.80 139.37 45.52 139.12 L 44.98 138.66 C 43.94 138.31 42.88 138.02 41.81 137.77 C 42.14 137.37 42.79 136.57 43.12 136.17 C 45.41 133.67 46.99 130.66 48.14 127.49 Z" />
<path fill="#d5dbed" opacity="1.00" d=" M 102.08 126.32 C 103.02 124.98 104.46 124.13 105.72 123.12 C 107.04 125.36 108.32 127.64 109.27 130.07 C 109.09 132.49 109.16 134.99 110.94 136.86 C 108.31 138.52 105.29 139.32 102.20 139.38 C 101.95 135.05 101.08 130.61 102.08 126.32 Z" />
<path fill="#d5dbed" opacity="1.00" d=" M 78.85 136.74 C 80.19 137.53 81.51 138.34 82.82 139.17 C 81.58 139.54 80.33 139.89 79.07 140.21 C 79.02 139.34 78.91 137.61 78.85 136.74 Z" />
<path fill="#d5dbed" opacity="1.00" d=" M 82.54 162.02 C 82.60 158.31 86.16 157.57 89.11 157.07 C 88.96 160.70 85.43 161.38 82.54 162.02 Z" />
<path fill="#d5dbed" opacity="1.00" d=" M 112.92 159.74 C 114.88 159.51 116.84 159.25 118.79 158.98 C 118.79 160.15 118.79 161.31 118.79 162.48 C 119.53 162.92 120.28 163.35 121.03 163.80 C 120.33 163.99 118.93 164.38 118.23 164.58 C 118.38 164.96 118.67 165.73 118.82 166.11 C 120.65 166.55 122.49 166.99 124.32 167.44 C 123.38 168.88 122.45 170.34 121.52 171.79 C 118.99 170.80 116.07 169.66 116.62 166.37 C 116.70 163.73 115.95 161.25 113.17 160.40 L 112.92 159.74 Z" />
<path fill="#d5dbed" opacity="1.00" d=" M 68.01 164.31 C 71.78 165.98 75.57 167.64 79.16 169.69 C 82.47 168.03 85.77 166.36 89.12 164.78 C 89.04 166.13 88.95 167.48 88.87 168.83 C 87.98 170.28 87.00 171.68 86.03 173.08 C 89.28 171.18 92.43 168.90 96.14 167.96 C 98.63 167.57 101.13 168.24 103.60 168.57 C 101.84 171.07 100.12 173.60 98.42 176.14 C 93.57 175.60 88.70 176.26 84.16 178.04 C 84.38 180.63 84.62 183.24 84.65 185.85 C 84.16 187.31 83.60 188.76 83.06 190.21 C 85.94 190.31 88.82 190.41 91.70 190.51 C 91.70 191.86 91.70 193.21 91.70 194.57 C 80.86 194.04 69.85 195.69 59.15 193.40 C 62.85 189.07 68.96 190.47 73.96 189.97 C 73.28 187.57 72.58 185.17 72.05 182.74 C 71.24 178.41 70.98 174.01 70.63 169.64 C 69.75 169.58 68.87 169.52 67.99 169.45 C 67.92 168.13 67.89 166.80 67.91 165.47 L 68.01 164.31 M 64.96 191.10 C 65.00 191.79 65.08 193.17 65.12 193.86 C 73.71 194.21 82.30 193.72 90.90 193.73 C 90.89 193.12 90.89 191.89 90.88 191.28 C 82.25 190.72 73.60 190.40 64.96 191.10 Z" />
<path fill="#d5dbed" opacity="1.00" d=" M 26.24 193.09 C 27.70 193.14 29.17 193.09 30.62 192.96 C 32.36 194.09 34.32 194.10 35.65 192.33 L 36.56 192.24 C 37.65 192.24 38.74 192.25 39.83 192.27 C 42.13 192.73 44.37 193.45 46.54 194.31 C 40.29 194.62 33.90 193.94 27.83 195.82 C 27.77 197.43 27.71 199.05 27.68 200.66 L 27.65 201.59 C 27.09 198.77 26.80 195.91 26.24 193.09 Z" />
</g>
<g id="#a48eb8fe">
<path fill="#a48eb8" opacity="1.00" d=" M 73.13 21.65 C 76.80 22.32 79.65 24.78 82.90 26.39 C 83.99 26.02 85.06 25.60 86.12 25.13 C 86.02 25.54 85.83 26.36 85.73 26.77 C 88.23 26.45 90.69 25.83 92.98 24.77 C 91.43 28.59 91.88 32.72 92.24 36.72 C 92.65 40.31 91.12 43.67 90.01 46.99 C 89.89 42.32 90.28 37.50 89.01 32.95 C 87.53 32.00 85.90 31.35 84.29 30.66 C 84.64 37.78 85.98 44.79 87.11 51.81 C 87.83 51.26 88.55 50.71 89.27 50.16 L 89.06 51.03 C 88.48 53.47 87.86 55.90 87.21 58.32 C 86.58 54.28 86.05 50.20 85.05 46.23 C 83.85 41.61 82.58 37.02 81.46 32.39 C 80.46 27.72 76.42 24.73 73.13 21.65 Z" />
<path fill="#a48eb8" opacity="1.00" d=" M 98.57 44.39 C 105.07 45.79 111.73 47.72 116.91 52.10 C 120.88 55.51 124.75 59.74 125.59 65.10 C 126.49 70.68 126.65 76.35 126.63 81.99 C 126.48 93.34 122.89 104.23 119.50 114.94 C 118.89 114.61 117.67 113.95 117.06 113.61 C 117.22 112.67 117.38 111.73 117.56 110.79 C 118.56 106.07 119.36 101.28 119.21 96.44 C 123.39 85.78 124.79 73.98 122.84 62.67 C 122.57 65.16 122.31 67.64 122.06 70.13 C 120.84 64.86 119.50 58.61 114.43 55.69 C 109.68 53.05 104.22 51.58 98.79 51.49 C 96.78 51.36 95.33 52.91 93.98 54.16 C 92.82 55.40 91.70 56.69 90.56 57.94 C 90.88 55.43 91.34 52.87 92.72 50.70 C 94.61 48.54 96.62 46.50 98.57 44.39 Z" />
<path fill="#a48eb8" opacity="1.00" d=" M 59.00 56.95 C 65.00 52.84 70.89 48.28 78.00 46.24 C 80.37 50.35 82.07 54.80 83.26 59.40 C 82.70 59.30 81.60 59.11 81.05 59.01 C 78.91 57.03 76.49 54.18 73.20 55.04 C 65.43 57.21 58.47 62.80 55.19 70.25 C 54.32 72.29 54.29 74.57 54.42 76.75 C 53.27 75.85 52.13 74.93 50.99 74.02 C 51.27 70.53 51.49 66.96 52.70 63.64 C 53.85 60.68 56.56 58.78 59.00 56.95 Z" />
<path fill="#a48eb8" opacity="1.00" d=" M 22.58 67.30 C 22.35 65.34 26.07 64.30 27.50 65.35 C 26.34 66.85 24.37 67.22 22.58 67.30 Z" />
<path fill="#a48eb8" opacity="1.00" d=" M 57.07 84.77 C 61.51 86.31 65.92 88.42 69.10 91.97 C 71.38 94.17 70.92 98.85 67.67 99.87 C 63.18 102.21 57.97 98.95 55.99 94.81 C 54.73 91.47 55.89 87.94 57.07 84.77 Z" />
<path fill="#a48eb8" opacity="1.00" d=" M 109.60 86.57 C 111.20 84.63 113.71 85.83 115.78 86.03 C 115.74 88.53 115.94 91.07 115.42 93.53 C 113.65 98.58 107.52 102.51 102.35 99.86 C 99.07 98.58 98.80 93.54 101.82 91.83 C 104.49 90.19 107.28 88.72 109.60 86.57 Z" />
<path fill="#a48eb8" opacity="1.00" d=" M 125.02 111.85 C 128.01 106.80 129.28 101.00 131.71 95.70 C 131.58 98.16 130.95 100.55 130.33 102.93 C 129.50 106.12 130.69 109.29 131.94 112.18 C 129.64 112.02 127.33 111.91 125.02 111.85 Z" />
<path fill="#a48eb8" opacity="1.00" d=" M 51.84 97.69 C 53.59 100.05 55.01 102.63 56.64 105.07 C 56.10 105.64 55.57 106.21 55.04 106.80 C 53.97 107.96 52.90 109.11 51.83 110.27 C 51.71 106.08 51.91 101.88 51.84 97.69 Z" />
<path fill="#a48eb8" opacity="1.00" d=" M 47.77 111.89 C 48.54 111.88 50.09 111.85 50.86 111.83 C 54.88 115.12 59.13 118.67 64.53 119.09 C 64.57 119.58 64.64 120.56 64.67 121.05 C 64.18 121.00 63.21 120.90 62.72 120.85 C 63.35 121.96 63.98 123.06 64.61 124.17 C 61.08 125.41 57.69 123.60 54.24 123.11 C 51.83 123.93 49.94 125.76 48.14 127.49 C 48.18 126.18 48.14 124.87 48.09 123.55 C 48.86 123.34 50.40 122.90 51.16 122.68 C 51.05 121.48 50.95 120.28 50.85 119.08 C 52.82 121.65 55.89 120.74 58.56 120.08 C 56.31 118.07 53.90 116.25 51.40 114.56 C 51.18 115.49 50.76 117.35 50.54 118.28 C 49.68 116.13 48.76 114.00 47.77 111.89 Z" />
<path fill="#a48eb8" opacity="1.00" d=" M 100.71 118.88 C 101.20 119.36 102.20 120.32 102.70 120.80 C 103.72 120.56 104.74 120.31 105.76 120.05 C 105.74 121.07 105.73 122.09 105.72 123.12 C 104.46 124.13 103.02 124.98 102.08 126.32 C 101.08 130.61 101.95 135.05 102.20 139.38 C 105.29 139.32 108.31 138.52 110.94 136.86 L 111.51 136.55 C 113.78 137.44 116.07 138.29 118.31 139.27 C 114.15 140.91 109.97 142.50 105.68 143.79 C 105.62 144.59 105.56 145.40 105.50 146.20 C 103.87 144.31 101.57 142.54 101.49 139.82 C 101.15 134.15 101.33 128.44 100.31 122.82 C 98.44 122.71 96.57 122.60 94.71 122.49 C 95.14 122.38 95.99 122.16 96.42 122.05 C 97.75 121.75 99.08 121.50 100.42 121.24 C 100.49 120.65 100.63 119.47 100.71 118.88 Z" />
<path fill="#a48eb8" opacity="1.00" d=" M 68.33 120.86 C 71.09 120.59 73.87 120.48 76.65 120.35 C 76.58 123.92 77.40 128.33 81.42 129.42 C 86.96 130.25 90.48 125.06 94.71 122.49 C 94.65 125.50 94.61 128.50 94.57 131.51 C 88.81 131.77 82.88 132.23 77.27 130.60 C 72.66 129.43 71.93 123.71 68.03 121.45 L 68.33 120.86 Z" />
<path fill="#a48eb8" opacity="1.00" d=" M 84.75 119.89 C 87.10 120.70 90.28 120.55 91.62 123.04 C 89.66 124.45 87.20 124.72 84.92 125.25 C 84.86 123.46 84.80 121.67 84.75 119.89 Z" />
<path fill="#a48eb8" opacity="1.00" d=" M 67.19 140.49 C 67.41 138.92 67.64 137.35 67.81 135.78 C 67.84 138.19 67.97 140.60 68.12 143.00 C 66.18 144.47 64.19 145.85 62.14 147.15 C 61.94 148.93 61.75 150.71 61.57 152.49 C 60.33 153.02 59.10 153.55 57.87 154.09 C 58.91 152.91 60.01 151.79 61.10 150.66 C 60.69 148.40 60.26 146.13 59.93 143.86 C 59.99 142.22 59.41 140.16 61.00 139.05 C 63.10 139.33 65.14 139.94 67.19 140.49 Z" />
<path fill="#a48eb8" opacity="1.00" d=" M 83.62 137.73 C 85.25 137.36 86.88 136.99 88.51 136.64 C 88.30 137.95 87.97 139.23 87.53 140.49 C 86.36 140.88 85.18 141.24 83.99 141.56 C 83.90 140.60 83.71 138.68 83.62 137.73 Z" />
<path fill="#a48eb8" opacity="1.00" d=" M 36.52 139.52 C 38.01 138.29 39.86 137.60 41.81 137.77 C 42.88 138.02 43.94 138.31 44.98 138.66 L 45.52 139.12 C 42.51 138.95 39.50 139.16 36.52 139.52 Z" />
<path fill="#a48eb8" opacity="1.00" d=" M 113.17 160.40 C 115.95 161.25 116.70 163.73 116.62 166.37 C 114.66 167.30 112.78 168.39 111.09 169.75 C 110.81 167.63 110.55 165.52 110.28 163.40 C 111.62 163.47 112.96 163.54 114.30 163.61 C 113.93 162.54 113.55 161.47 113.17 160.40 Z" />
<path fill="#a48eb8" opacity="1.00" d=" M 53.91 168.78 C 55.99 168.75 58.08 168.71 60.17 168.80 C 64.24 169.81 67.04 173.23 70.24 175.70 C 67.54 179.33 62.75 178.99 58.73 179.45 C 58.07 177.57 57.66 175.54 56.51 173.88 C 55.38 173.47 54.20 173.21 53.03 172.93 C 53.32 171.54 53.62 170.16 53.91 168.78 Z" />
<path fill="#a48eb8" opacity="1.00" d=" M 103.60 168.57 C 103.59 173.55 103.68 179.94 98.79 182.82 C 94.66 184.51 90.37 181.88 86.40 180.84 C 85.81 182.50 85.23 184.17 84.65 185.85 C 84.62 183.24 84.38 180.63 84.16 178.04 C 88.70 176.26 93.57 175.60 98.42 176.14 C 100.12 173.60 101.84 171.07 103.60 168.57 M 89.26 177.91 C 91.62 180.00 95.02 179.71 96.59 176.86 C 94.13 176.85 91.36 176.25 89.26 177.91 Z" />
<path fill="#a48eb8" opacity="1.00" d=" M 113.68 187.57 C 115.66 186.48 116.70 190.89 114.47 190.96 C 114.10 189.86 113.81 188.73 113.68 187.57 Z" />
<path fill="#a48eb8" opacity="1.00" d=" M 128.33 195.13 C 129.51 193.44 132.29 196.35 130.13 197.08 C 129.27 196.66 128.67 196.01 128.33 195.13 Z" />
</g>
<g id="#f2f3fdff">
<path fill="#f2f3fd" opacity="1.00" d=" M 67.06 32.20 C 70.20 31.29 73.49 31.27 76.73 31.11 C 79.46 36.17 80.98 41.98 85.05 46.23 C 86.05 50.20 86.58 54.28 87.21 58.32 C 87.86 55.90 88.48 53.47 89.06 51.03 C 90.08 49.90 91.10 48.77 92.12 47.65 C 92.32 48.67 92.52 49.68 92.72 50.70 C 91.34 52.87 90.88 55.43 90.56 57.94 C 91.70 56.69 92.82 55.40 93.98 54.16 C 101.07 55.11 108.59 54.89 115.18 57.98 C 119.39 61.07 118.39 67.03 118.48 71.60 C 119.53 72.21 120.58 72.82 121.63 73.44 C 118.14 76.48 114.11 78.78 110.11 81.06 C 107.43 78.46 104.70 75.88 101.78 73.55 C 101.61 77.67 101.70 81.80 101.83 85.92 C 97.48 88.39 93.11 90.85 88.91 93.58 C 92.57 97.32 95.70 101.98 100.63 104.13 C 105.50 105.10 110.58 104.00 115.43 105.30 C 116.15 102.14 117.46 99.16 119.21 96.44 C 119.36 101.28 118.56 106.07 117.56 110.79 C 115.37 111.50 113.21 112.46 110.89 112.62 C 107.84 112.51 104.89 111.45 101.83 111.50 C 101.23 113.92 101.01 116.41 100.71 118.88 C 100.63 119.47 100.49 120.65 100.42 121.24 C 99.08 121.50 97.75 121.75 96.42 122.05 C 95.98 118.70 95.44 115.37 94.88 112.05 C 88.41 112.56 81.92 112.10 75.45 112.20 C 70.84 112.07 70.21 117.74 68.33 120.86 L 68.03 121.45 C 66.92 121.30 65.79 121.16 64.67 121.05 C 64.64 120.56 64.57 119.58 64.53 119.09 C 64.36 116.33 64.17 113.57 63.98 110.82 C 61.83 111.05 59.67 111.29 57.52 111.52 C 56.70 109.94 55.88 108.37 55.04 106.80 C 55.57 106.21 56.10 105.64 56.64 105.07 C 60.94 102.47 66.08 105.53 70.54 103.55 C 75.52 101.75 78.77 97.32 81.58 93.08 C 77.61 90.86 73.32 89.13 69.70 86.34 C 68.95 81.71 69.75 76.98 69.33 72.32 C 66.26 74.97 63.37 77.82 60.60 80.79 C 58.72 79.62 56.82 78.47 55.01 77.20 C 56.32 76.59 57.63 75.97 58.94 75.36 C 60.10 69.67 62.32 63.64 67.59 60.54 C 71.52 57.74 76.56 58.28 81.05 59.01 C 81.60 59.11 82.70 59.30 83.26 59.40 C 82.07 54.80 80.37 50.35 78.00 46.24 C 70.89 48.28 65.00 52.84 59.00 56.95 C 56.56 58.78 53.85 60.68 52.70 63.64 C 51.49 66.96 51.27 70.53 50.99 74.02 C 50.60 80.91 51.33 87.78 51.44 94.67 C 50.98 100.03 50.48 105.39 49.94 110.74 C 49.30 110.71 48.03 110.63 47.39 110.59 C 45.47 105.64 43.80 100.58 42.79 95.36 C 41.35 87.97 39.38 80.62 39.29 73.05 C 39.16 66.02 39.82 58.95 38.75 51.96 C 36.36 55.17 36.07 59.19 35.79 63.03 C 33.97 77.81 39.41 92.07 42.62 106.25 C 37.60 101.16 35.76 94.07 33.69 87.45 C 31.98 81.56 29.76 75.81 28.49 69.80 C 28.88 67.49 29.34 65.19 29.73 62.88 C 29.84 62.26 30.06 61.03 30.17 60.41 C 31.62 53.92 32.43 47.22 34.90 41.00 C 38.24 38.33 41.48 35.33 45.47 33.67 C 49.29 32.73 53.24 33.64 57.08 33.99 C 52.28 37.10 46.24 38.89 43.21 44.12 C 51.39 40.60 58.44 34.76 67.06 32.20 M 84.28 72.30 C 81.18 77.51 79.91 85.63 85.87 89.33 C 87.61 86.84 89.47 84.18 89.45 81.00 C 89.77 77.86 88.11 75.06 86.83 72.32 C 86.19 72.32 84.92 72.31 84.28 72.30 Z" />
<path fill="#f2f3fd" opacity="1.00" d=" M 46.63 140.12 C 51.27 140.48 55.74 141.89 59.93 143.86 C 60.26 146.13 60.69 148.40 61.10 150.66 C 60.01 151.79 58.91 152.91 57.87 154.09 C 57.59 155.50 57.42 156.93 57.26 158.36 C 56.35 160.05 55.57 161.88 54.21 163.27 C 51.00 164.80 47.34 164.91 43.87 165.35 C 40.54 162.33 36.42 158.97 36.55 154.01 C 36.50 147.74 41.20 142.62 46.63 140.12 Z" />
<path fill="#f2f3fd" opacity="1.00" d=" M 112.87 150.85 C 116.08 149.16 119.45 147.80 122.94 146.78 C 125.75 148.54 128.74 150.20 130.65 153.03 C 130.52 158.53 127.30 163.09 124.32 167.44 C 122.49 166.99 120.65 166.55 118.82 166.11 C 118.67 165.73 118.38 164.96 118.23 164.58 C 118.93 164.38 120.33 163.99 121.03 163.80 C 120.28 163.35 119.53 162.92 118.79 162.48 C 118.79 161.31 118.79 160.15 118.79 158.98 C 116.84 159.25 114.88 159.51 112.92 159.74 C 112.37 156.80 112.78 153.81 112.87 150.85 Z" />
</g>
<g id="#584d7dfd">
<path fill="#584d7d" opacity="1.00" d=" M 84.29 30.66 C 85.90 31.35 87.53 32.00 89.01 32.95 C 90.28 37.50 89.89 42.32 90.01 46.99 C 89.76 48.04 89.51 49.10 89.27 50.16 C 88.55 50.71 87.83 51.26 87.11 51.81 C 85.98 44.79 84.64 37.78 84.29 30.66 Z" />
<path fill="#584d7d" opacity="1.00" d=" M 31.35 49.21 C 32.61 44.61 32.99 39.24 37.01 36.04 C 36.24 37.67 35.57 39.33 34.90 41.00 C 32.43 47.22 31.62 53.92 30.17 60.41 C 28.91 56.65 30.53 52.88 31.35 49.21 Z" />
<path fill="#584d7d" opacity="1.00" d=" M 27.50 65.35 C 28.26 64.53 29.00 63.71 29.73 62.88 C 29.34 65.19 28.88 67.49 28.49 69.80 C 28.39 70.32 28.19 71.37 28.08 71.89 C 23.94 70.36 18.90 66.93 14.73 70.20 C 15.79 76.66 21.86 80.66 25.21 85.97 C 21.31 84.36 19.27 80.42 16.35 77.60 C 13.79 75.18 14.18 71.39 13.56 68.19 C 16.56 67.87 19.57 67.55 22.58 67.30 C 24.37 67.22 26.34 66.85 27.50 65.35 Z" />
<path fill="#584d7d" opacity="1.00" d=" M 84.28 72.30 C 84.92 72.31 86.19 72.32 86.83 72.32 C 88.11 75.06 89.77 77.86 89.45 81.00 C 89.47 84.18 87.61 86.84 85.87 89.33 C 79.91 85.63 81.18 77.51 84.28 72.30 Z" />
<path fill="#584d7d" opacity="1.00" d=" M 37.13 102.86 C 39.98 110.13 43.11 117.46 48.09 123.55 C 48.14 124.87 48.18 126.18 48.14 127.49 C 46.99 130.66 45.41 133.67 43.12 136.17 C 42.29 132.08 44.46 128.61 46.02 125.05 C 43.84 119.48 40.84 114.27 38.19 108.93 C 37.27 107.04 37.31 104.90 37.13 102.86 Z" />
<path fill="#584d7d" opacity="1.00" d=" M 105.76 120.05 C 107.11 119.68 108.45 119.29 109.77 118.82 C 108.80 119.89 107.81 120.93 106.82 121.97 C 108.06 124.49 110.59 127.07 109.27 130.07 C 108.32 127.64 107.04 125.36 105.72 123.12 C 105.73 122.09 105.74 121.07 105.76 120.05 Z" />
<path fill="#584d7d" opacity="1.00" d=" M 62.72 120.85 C 63.21 120.90 64.18 121.00 64.67 121.05 C 65.79 121.16 66.92 121.30 68.03 121.45 C 71.93 123.71 72.66 129.43 77.27 130.60 C 82.88 132.23 88.81 131.77 94.57 131.51 C 94.61 128.50 94.65 125.50 94.71 122.49 C 96.57 122.60 98.44 122.71 100.31 122.82 C 101.33 128.44 101.15 134.15 101.49 139.82 C 101.57 142.54 103.87 144.31 105.50 146.20 C 105.56 145.40 105.62 144.59 105.68 143.79 C 109.97 142.50 114.15 140.91 118.31 139.27 C 118.57 139.17 119.11 138.96 119.37 138.85 C 120.56 141.50 121.87 144.09 122.94 146.78 C 119.45 147.80 116.08 149.16 112.87 150.85 C 112.55 147.98 110.51 145.89 108.29 144.26 C 105.08 147.82 103.94 153.01 100.12 155.97 C 99.44 152.60 99.54 149.15 99.59 145.74 C 95.39 145.93 91.67 147.79 88.00 149.64 C 86.57 149.03 85.24 148.22 83.80 147.65 C 81.45 148.28 79.44 149.72 77.34 150.90 C 74.51 148.00 71.48 145.28 68.12 143.00 C 67.97 140.60 67.84 138.19 67.81 135.78 C 68.28 131.60 66.99 127.57 64.61 124.17 C 63.98 123.06 63.35 121.96 62.72 120.85 M 78.85 136.74 C 78.91 137.61 79.02 139.34 79.07 140.21 C 80.33 139.89 81.58 139.54 82.82 139.17 C 81.51 138.34 80.19 137.53 78.85 136.74 M 83.62 137.73 C 83.71 138.68 83.90 140.60 83.99 141.56 C 85.18 141.24 86.36 140.88 87.53 140.49 C 87.97 139.23 88.30 137.95 88.51 136.64 C 86.88 136.99 85.25 137.36 83.62 137.73 Z" />
<path fill="#584d7d" opacity="1.00" d=" M 36.52 139.52 C 39.50 139.16 42.51 138.95 45.52 139.12 C 45.80 139.37 46.36 139.87 46.63 140.12 C 41.20 142.62 36.50 147.74 36.55 154.01 C 36.42 158.97 40.54 162.33 43.87 165.35 C 41.05 164.00 38.50 162.19 36.02 160.31 C 33.26 170.26 32.12 180.55 29.94 190.63 C 32.14 191.18 34.34 191.74 36.56 192.24 L 35.65 192.33 C 33.97 192.52 32.30 192.73 30.62 192.96 C 29.17 193.09 27.70 193.14 26.24 193.09 C 25.04 193.00 23.85 192.86 22.65 192.69 C 22.34 189.39 20.89 185.83 22.83 182.76 C 23.17 176.43 27.12 171.16 28.02 164.95 C 28.59 161.50 31.28 158.67 30.98 155.03 C 30.89 149.92 33.21 145.19 33.25 140.09 C 34.34 139.88 35.43 139.69 36.52 139.52 Z" />
<path fill="#584d7d" opacity="1.00" d=" M 130.65 153.03 C 130.93 155.30 131.94 157.74 130.80 159.93 C 129.05 163.80 126.83 167.46 125.30 171.43 C 123.92 171.74 122.54 172.04 121.16 172.35 L 121.52 171.79 C 122.45 170.34 123.38 168.88 124.32 167.44 C 127.30 163.09 130.52 158.53 130.65 153.03 Z" />
<path fill="#584d7d" opacity="1.00" d=" M 72.06 155.67 C 73.44 156.10 74.81 156.54 76.19 156.98 C 76.14 158.30 76.10 159.61 76.07 160.93 C 74.69 161.08 73.31 161.23 71.93 161.38 C 74.53 162.70 77.18 165.00 80.29 164.17 C 84.27 163.36 88.07 161.86 91.94 160.66 C 91.00 163.41 90.09 166.19 88.87 168.83 C 88.95 167.48 89.04 166.13 89.12 164.78 C 85.77 166.36 82.47 168.03 79.16 169.69 C 75.57 167.64 71.78 165.98 68.01 164.31 C 66.45 162.62 65.04 160.81 63.61 159.02 C 65.70 159.44 67.78 159.88 69.86 160.33 C 70.59 158.77 71.33 157.22 72.06 155.67 Z" />
<path fill="#584d7d" opacity="1.00" d=" M 70.24 175.70 C 69.75 172.15 66.71 169.25 67.91 165.47 C 67.89 166.80 67.92 168.13 67.99 169.45 C 68.87 169.52 69.75 169.58 70.63 169.64 C 70.98 174.01 71.24 178.41 72.05 182.74 C 68.41 183.55 64.79 184.69 61.04 184.83 C 57.98 184.97 54.99 183.14 53.61 180.43 C 51.66 176.68 51.74 172.11 53.35 168.26 C 55.63 168.35 57.91 168.47 60.17 168.80 C 58.08 168.71 55.99 168.75 53.91 168.78 C 53.62 170.16 53.32 171.54 53.03 172.93 C 54.20 173.21 55.38 173.47 56.51 173.88 C 57.66 175.54 58.07 177.57 58.73 179.45 C 62.75 178.99 67.54 179.33 70.24 175.70 Z" />
<path fill="#584d7d" opacity="1.00" d=" M 128.88 203.00 C 129.24 201.26 129.61 199.52 129.98 197.79 C 129.97 199.87 129.97 201.94 129.98 204.02 C 100.66 203.98 71.33 204.01 42.00 204.01 C 37.09 203.98 32.13 204.34 27.26 203.45 L 28.14 203.35 C 30.74 203.06 33.36 202.91 35.99 202.93 C 51.99 203.13 68.01 202.85 84.02 203.13 C 98.97 203.10 113.94 203.62 128.88 203.00 Z" />
</g>
<g id="#302d49ff">
<path fill="#302d49" opacity="1.00" d=" M 122.84 62.67 C 124.79 73.98 123.39 85.78 119.21 96.44 C 117.46 99.16 116.15 102.14 115.43 105.30 C 110.58 104.00 105.50 105.10 100.63 104.13 C 95.70 101.98 92.57 97.32 88.91 93.58 C 93.11 90.85 97.48 88.39 101.83 85.92 C 101.70 81.80 101.61 77.67 101.78 73.55 C 104.70 75.88 107.43 78.46 110.11 81.06 C 114.11 78.78 118.14 76.48 121.63 73.44 C 121.81 72.34 121.96 71.23 122.06 70.13 C 122.31 67.64 122.57 65.16 122.84 62.67 M 109.60 86.57 C 107.28 88.72 104.49 90.19 101.82 91.83 C 98.80 93.54 99.07 98.58 102.35 99.86 C 107.52 102.51 113.65 98.58 115.42 93.53 C 115.94 91.07 115.74 88.53 115.78 86.03 C 113.71 85.83 111.20 84.63 109.60 86.57 Z" />
<path fill="#302d49" opacity="1.00" d=" M 60.60 80.79 C 63.37 77.82 66.26 74.97 69.33 72.32 C 69.75 76.98 68.95 81.71 69.70 86.34 C 73.32 89.13 77.61 90.86 81.58 93.08 C 78.77 97.32 75.52 101.75 70.54 103.55 C 66.08 105.53 60.94 102.47 56.64 105.07 C 55.01 102.63 53.59 100.05 51.84 97.69 C 51.71 96.68 51.57 95.67 51.44 94.67 C 51.33 87.78 50.60 80.91 50.99 74.02 C 52.13 74.93 53.27 75.85 54.42 76.75 L 55.01 77.20 C 56.82 78.47 58.72 79.62 60.60 80.79 M 57.07 84.77 C 55.89 87.94 54.73 91.47 55.99 94.81 C 57.97 98.95 63.18 102.21 67.67 99.87 C 70.92 98.85 71.38 94.17 69.10 91.97 C 65.92 88.42 61.51 86.31 57.07 84.77 Z" />
<path fill="#302d49" opacity="1.00" d=" M 131.94 112.18 C 130.69 109.29 129.50 106.12 130.33 102.93 C 131.34 105.88 133.60 109.04 131.94 112.18 Z" />
<path fill="#302d49" opacity="1.00" d=" M 51.40 114.56 C 53.90 116.25 56.31 118.07 58.56 120.08 C 55.89 120.74 52.82 121.65 50.85 119.08 L 50.54 118.28 C 50.76 117.35 51.18 115.49 51.40 114.56 Z" />
<path fill="#302d49" opacity="1.00" d=" M 62.14 147.15 C 64.19 145.85 66.18 144.47 68.12 143.00 C 71.48 145.28 74.51 148.00 77.34 150.90 C 79.44 149.72 81.45 148.28 83.80 147.65 C 85.24 148.22 86.57 149.03 88.00 149.64 C 91.67 147.79 95.39 145.93 99.59 145.74 C 99.54 149.15 99.44 152.60 100.12 155.97 C 103.94 153.01 105.08 147.82 108.29 144.26 C 110.51 145.89 112.55 147.98 112.87 150.85 C 112.78 153.81 112.37 156.80 112.92 159.74 L 113.17 160.40 C 113.55 161.47 113.93 162.54 114.30 163.61 C 112.96 163.54 111.62 163.47 110.28 163.40 C 110.55 165.52 110.81 167.63 111.09 169.75 C 111.98 175.68 112.79 181.63 113.68 187.57 C 113.81 188.73 114.10 189.86 114.47 190.96 C 114.85 192.18 115.21 193.42 115.56 194.66 C 119.82 194.55 124.08 194.85 128.33 195.13 C 128.67 196.01 129.27 196.66 130.13 197.08 L 129.98 197.79 C 129.61 199.52 129.24 201.26 128.88 203.00 C 113.94 203.62 98.97 203.10 84.02 203.13 C 68.01 202.85 51.99 203.13 35.99 202.93 C 33.36 202.91 30.74 203.06 28.14 203.35 C 28.02 202.68 27.80 201.34 27.68 200.66 C 27.71 199.05 27.77 197.43 27.83 195.82 C 33.90 193.94 40.29 194.62 46.54 194.31 C 44.37 193.45 42.13 192.73 39.83 192.27 C 46.29 192.15 52.76 192.42 59.15 193.40 C 69.85 195.69 80.86 194.04 91.70 194.57 C 91.70 193.21 91.70 191.86 91.70 190.51 C 88.82 190.41 85.94 190.31 83.06 190.21 C 83.60 188.76 84.16 187.31 84.65 185.85 C 85.23 184.17 85.81 182.50 86.40 180.84 C 90.37 181.88 94.66 184.51 98.79 182.82 C 103.68 179.94 103.59 173.55 103.60 168.57 C 101.13 168.24 98.63 167.57 96.14 167.96 C 92.43 168.90 89.28 171.18 86.03 173.08 C 87.00 171.68 87.98 170.28 88.87 168.83 C 90.09 166.19 91.00 163.41 91.94 160.66 C 88.07 161.86 84.27 163.36 80.29 164.17 C 77.18 165.00 74.53 162.70 71.93 161.38 C 73.31 161.23 74.69 161.08 76.07 160.93 C 76.10 159.61 76.14 158.30 76.19 156.98 C 74.81 156.54 73.44 156.10 72.06 155.67 C 71.33 157.22 70.59 158.77 69.86 160.33 C 67.78 159.88 65.70 159.44 63.61 159.02 C 65.04 160.81 66.45 162.62 68.01 164.31 L 67.91 165.47 C 66.71 169.25 69.75 172.15 70.24 175.70 C 67.04 173.23 64.24 169.81 60.17 168.80 C 57.91 168.47 55.63 168.35 53.35 168.26 C 54.77 166.72 56.38 165.34 57.55 163.59 C 57.72 161.84 57.38 160.10 57.26 158.36 C 57.42 156.93 57.59 155.50 57.87 154.09 C 59.10 153.55 60.33 153.02 61.57 152.49 C 61.75 150.71 61.94 148.93 62.14 147.15 M 82.54 162.02 C 85.43 161.38 88.96 160.70 89.11 157.07 C 86.16 157.57 82.60 158.31 82.54 162.02 Z" />
<path fill="#302d49" opacity="1.00" d=" M 89.26 177.91 C 91.36 176.25 94.13 176.85 96.59 176.86 C 95.02 179.71 91.62 180.00 89.26 177.91 Z" />
</g>
<g id="#221f35ff">
<path fill="#221f35" opacity="1.00" d=" M 54.21 163.27 C 55.57 161.88 56.35 160.05 57.26 158.36 C 57.38 160.10 57.72 161.84 57.55 163.59 C 56.38 165.34 54.77 166.72 53.35 168.26 C 51.74 172.11 51.66 176.68 53.61 180.43 C 54.99 183.14 57.98 184.97 61.04 184.83 C 64.79 184.69 68.41 183.55 72.05 182.74 C 72.58 185.17 73.28 187.57 73.96 189.97 C 68.96 190.47 62.85 189.07 59.15 193.40 C 52.76 192.42 46.29 192.15 39.83 192.27 C 38.74 192.25 37.65 192.24 36.56 192.24 C 34.34 191.74 32.14 191.18 29.94 190.63 C 32.12 180.55 33.26 170.26 36.02 160.31 C 38.50 162.19 41.05 164.00 43.87 165.35 C 47.34 164.91 51.00 164.80 54.21 163.27 Z" />
</g>
</svg>
