<?xml version="1.0" encoding="UTF-8" ?>
<!DOCTYPE svg PUBLIC "-//W3C//DTD SVG 1.1//EN" "http://www.w3.org/Graphics/SVG/1.1/DTD/svg11.dtd">
<svg width="155pt" height="210pt" viewBox="0 0 155 210" version="1.1" xmlns="http://www.w3.org/2000/svg">
<g id="#3f311eff">
<path fill="#3f311e" opacity="1.00" d=" M 83.18 37.11 C 83.72 35.42 84.64 35.19 85.93 36.43 C 85.11 37.08 84.19 37.30 83.18 37.11 Z" />
<path fill="#3f311e" opacity="1.00" d=" M 73.81 49.78 C 83.03 50.74 91.40 42.74 100.54 46.61 C 96.99 50.28 91.95 51.48 87.08 52.10 C 84.83 52.18 83.22 53.75 81.83 55.32 C 79.85 54.23 78.22 52.59 76.33 51.35 C 75.54 51.76 74.77 52.21 74.03 52.71 C 73.72 51.74 73.41 50.76 73.10 49.79 L 73.81 49.78 Z" />
<path fill="#3f311e" opacity="1.00" d=" M 90.57 57.01 C 95.31 54.11 100.54 52.13 105.97 50.95 C 108.50 56.27 107.90 62.27 107.85 67.99 C 103.97 62.04 97.16 58.95 90.57 57.01 Z" />
<path fill="#3f311e" opacity="1.00" d=" M 84.94 56.71 C 86.11 55.36 87.06 55.48 87.81 57.07 C 86.79 57.38 85.84 57.26 84.94 56.71 Z" />
<path fill="#3f311e" opacity="1.00" d=" M 73.98 68.95 C 75.97 69.57 77.94 70.20 79.92 70.82 C 81.27 74.50 82.89 78.08 84.79 81.51 C 86.52 81.07 88.26 80.65 89.99 80.22 C 89.57 81.15 89.15 82.09 88.74 83.02 C 89.48 84.80 90.17 86.60 90.83 88.41 C 87.63 88.70 84.61 87.66 81.79 86.27 C 82.49 85.12 83.20 83.96 83.90 82.81 C 82.10 77.54 79.02 72.82 74.40 69.62 L 73.98 68.95 Z" />
<path fill="#3f311e" opacity="1.00" d=" M 93.42 72.23 C 95.74 72.76 98.05 73.29 100.36 73.87 C 99.02 75.42 97.80 77.08 96.58 78.73 C 96.05 77.39 95.52 76.05 94.99 74.72 C 93.97 75.09 92.94 75.45 91.92 75.82 C 92.42 74.62 92.92 73.43 93.42 72.23 Z" />
<path fill="#3f311e" opacity="1.00" d=" M 37.62 79.73 C 41.38 77.82 44.61 75.07 47.96 72.54 C 48.32 74.71 48.53 76.92 48.37 79.12 C 47.22 77.81 46.06 76.50 44.91 75.19 C 42.51 77.93 40.08 80.64 37.47 83.18 C 37.33 82.14 37.19 81.10 37.03 80.06 L 37.62 79.73 Z" />
<path fill="#3f311e" opacity="1.00" d=" M 57.67 75.83 C 60.73 74.43 64.08 75.57 67.14 76.36 C 64.59 76.29 62.03 75.92 59.49 76.27 C 57.18 77.17 55.53 79.14 53.64 80.65 C 54.75 78.90 55.54 76.60 57.67 75.83 Z" />
<path fill="#3f311e" opacity="1.00" d=" M 65.15 79.15 C 66.57 78.67 67.28 81.07 65.74 81.33 C 64.32 81.80 63.63 79.43 65.15 79.15 Z" />
<path fill="#3f311e" opacity="1.00" d=" M 116.73 83.04 C 115.33 83.83 114.22 81.72 115.73 81.08 C 116.03 81.37 116.63 81.95 116.94 82.24 L 116.73 83.04 Z" />
<path fill="#3f311e" opacity="1.00" d=" M 112.29 106.78 C 112.25 100.13 110.96 92.84 114.73 86.90 C 116.18 90.56 117.56 94.52 116.68 98.51 C 116.14 101.29 115.45 104.04 114.78 106.80 C 114.16 106.79 112.91 106.78 112.29 106.78 Z" />
<path fill="#3f311e" opacity="1.00" d=" M 29.25 92.10 C 30.22 92.71 31.19 93.31 32.17 93.92 C 29.72 93.94 27.28 93.97 24.83 94.01 C 26.30 93.37 27.78 92.74 29.25 92.10 Z" />
<path fill="#3f311e" opacity="1.00" d=" M 77.28 96.46 C 81.28 95.77 85.25 96.81 89.10 97.80 C 88.04 101.46 87.70 105.28 87.71 109.08 C 86.17 109.10 84.64 109.16 83.11 109.23 C 80.17 108.73 77.25 108.12 74.32 107.57 C 73.99 108.23 73.31 109.55 72.98 110.20 C 72.18 111.71 71.32 113.17 70.44 114.63 C 70.50 107.88 74.87 102.46 77.28 96.46 Z" />
<path fill="#3f311e" opacity="1.00" d=" M 17.92 102.13 C 20.39 101.42 22.30 99.55 24.41 98.17 C 25.17 101.39 25.92 104.72 28.01 107.38 C 29.38 104.99 30.37 102.41 31.40 99.87 C 31.53 102.62 31.42 105.37 31.09 108.10 C 29.10 107.80 27.12 107.47 25.15 107.03 C 24.33 106.27 23.53 105.50 22.74 104.72 C 21.80 105.34 20.88 105.97 19.96 106.62 C 15.95 109.14 17.74 114.26 19.22 117.74 C 20.52 121.29 24.65 122.33 28.04 122.40 C 30.94 122.57 34.39 120.93 34.79 117.78 C 35.54 113.35 35.51 108.83 36.07 104.38 C 43.72 105.38 51.27 103.56 58.88 103.30 C 61.42 102.97 62.36 105.92 63.12 107.80 C 64.78 113.53 64.90 119.61 66.89 125.28 C 68.20 123.23 69.47 121.15 70.71 119.06 C 73.02 123.60 77.12 128.23 82.69 127.85 C 85.48 126.38 86.23 122.84 87.69 120.25 C 89.21 121.19 90.73 122.13 92.24 123.08 C 92.10 120.89 91.46 118.52 92.56 116.48 C 94.38 113.03 96.74 109.90 98.80 106.59 C 102.43 108.43 104.15 112.21 105.54 115.82 C 107.70 116.26 109.85 116.69 112.03 116.98 C 107.58 118.42 103.13 120.10 99.62 123.33 C 101.01 120.45 101.98 117.38 102.44 114.22 C 99.76 115.49 97.50 117.45 96.10 120.09 C 92.59 126.29 85.96 129.55 80.12 133.15 C 76.43 129.45 71.16 128.57 66.71 126.22 C 62.35 121.38 60.32 114.94 56.97 109.40 C 54.68 109.75 52.42 110.24 50.18 110.81 C 51.98 115.11 55.15 119.41 54.32 124.31 C 53.07 131.89 48.64 138.46 47.18 145.98 C 44.88 143.17 42.91 140.06 40.31 137.50 C 37.36 135.18 33.39 135.04 29.84 134.36 C 33.02 133.81 36.93 133.87 39.11 131.07 C 40.88 128.52 40.78 125.23 41.28 122.28 C 36.46 125.47 31.43 128.93 25.36 128.75 C 26.50 130.67 27.64 132.58 28.79 134.49 C 27.42 133.74 26.05 132.99 24.69 132.22 C 22.20 135.11 19.57 138.03 15.94 139.49 C 15.59 135.44 16.00 131.38 16.67 127.38 C 14.82 126.25 12.70 125.36 11.34 123.59 C 10.53 119.69 12.02 115.81 12.97 112.07 C 11.15 109.13 9.55 106.00 9.06 102.54 C 12.01 102.38 14.98 102.50 17.92 102.13 M 42.07 124.43 C 41.48 127.76 40.99 131.11 40.61 134.48 C 42.62 134.25 44.64 134.07 46.60 133.59 C 47.53 131.59 47.65 129.28 47.17 127.14 C 45.93 125.55 43.80 125.25 42.07 124.43 Z" />
<path fill="#3f311e" opacity="1.00" d=" M 20.87 113.11 C 21.90 112.74 22.94 112.37 23.97 112.00 C 24.80 112.88 25.67 113.73 26.54 114.57 C 26.11 115.69 25.68 116.80 25.25 117.91 C 23.49 116.98 21.75 116.02 19.99 115.09 C 20.21 114.59 20.65 113.60 20.87 113.11 Z" />
<path fill="#3f311e" opacity="1.00" d=" M 99.80 125.16 C 101.66 126.60 103.32 128.31 104.84 130.11 C 102.56 129.18 100.84 127.35 99.80 125.16 Z" />
<path fill="#3f311e" opacity="1.00" d=" M 118.74 137.37 C 121.58 139.66 125.12 141.80 126.07 145.58 C 126.87 147.78 126.93 150.52 128.99 152.03 C 131.74 154.70 135.87 153.91 139.32 154.74 C 139.35 155.00 139.42 155.53 139.46 155.80 C 137.65 157.92 135.20 159.38 133.36 161.47 C 132.05 164.31 131.95 167.52 131.50 170.57 C 129.14 172.12 126.46 173.42 124.75 175.73 C 123.58 178.47 123.15 181.44 122.37 184.29 C 120.12 182.95 118.23 181.13 116.56 179.13 C 116.87 177.33 117.18 175.54 117.50 173.74 C 113.76 171.79 109.58 171.04 105.39 171.23 C 105.15 170.66 104.91 170.10 104.67 169.53 C 106.34 167.77 108.24 166.15 109.47 164.03 C 109.17 163.03 108.74 162.07 108.34 161.12 C 108.59 159.85 108.86 158.58 109.13 157.31 C 106.63 157.09 103.94 156.13 101.55 157.35 C 97.25 159.35 94.68 163.58 92.52 167.61 C 96.17 167.10 99.69 165.94 102.89 164.11 C 101.20 165.39 99.53 166.70 97.86 168.02 C 98.25 170.67 98.61 173.33 99.17 175.95 C 98.15 173.08 96.11 170.74 92.92 170.44 C 94.44 175.41 97.08 180.06 101.16 183.37 C 100.60 181.15 100.01 178.95 99.39 176.75 C 105.14 177.31 110.90 177.92 116.56 179.13 C 113.35 179.64 110.11 179.79 106.87 179.87 C 108.67 183.51 110.16 187.30 111.22 191.22 C 116.50 191.73 121.94 190.73 127.12 191.90 C 129.60 194.01 128.34 197.85 128.78 200.71 C 95.25 200.75 61.73 200.74 28.20 200.71 C 28.67 197.71 26.97 192.13 31.28 191.53 C 40.18 191.05 49.12 191.66 58.04 191.33 C 57.76 189.59 57.48 187.86 57.20 186.13 C 53.18 187.06 49.06 186.70 45.25 185.14 L 45.35 184.34 C 45.56 182.69 45.78 181.04 45.98 179.39 C 47.60 178.24 49.19 177.06 50.81 175.91 C 49.07 174.60 47.32 173.32 45.57 172.03 C 48.13 173.30 50.52 174.91 53.15 176.04 C 55.85 175.36 57.95 172.89 58.39 170.17 C 56.37 167.97 53.85 166.31 51.43 164.57 C 52.03 163.89 52.63 163.21 53.23 162.54 C 56.69 164.13 60.18 165.94 64.02 166.37 C 67.83 166.65 71.45 165.07 75.21 164.78 C 78.10 164.72 80.97 165.42 83.87 165.14 C 87.52 163.88 90.54 161.17 94.36 160.32 C 96.97 159.77 99.21 158.30 101.16 156.53 C 100.75 155.89 99.92 154.62 99.50 153.99 C 102.24 153.16 104.97 152.30 107.70 151.44 C 108.22 147.41 108.67 143.37 109.04 139.32 C 110.33 140.87 111.63 142.39 112.94 143.92 C 114.91 141.76 116.85 139.58 118.74 137.37 M 121.45 147.15 C 123.01 148.07 124.56 148.99 126.11 149.94 C 125.52 148.07 124.90 146.22 124.25 144.38 C 123.32 145.30 122.39 146.22 121.45 147.15 M 122.94 161.52 C 122.53 162.71 122.12 163.91 121.70 165.10 C 124.34 167.86 127.43 170.28 131.39 170.59 C 131.12 167.46 130.73 163.83 127.82 161.97 C 126.21 161.66 124.57 161.63 122.94 161.52 M 65.04 171.86 C 63.22 172.52 62.43 174.43 61.35 175.87 C 64.62 175.15 67.77 173.89 70.54 171.99 C 68.73 171.77 66.80 171.05 65.04 171.86 M 60.90 176.69 C 60.06 178.45 59.24 180.21 58.49 182.01 C 63.23 182.92 68.01 184.13 72.88 184.02 C 74.92 183.16 74.10 180.69 74.42 178.97 C 69.93 178.15 65.43 177.35 60.90 176.69 M 58.36 192.63 C 65.51 193.74 72.75 194.47 80.00 194.39 C 86.77 194.39 93.47 193.30 100.23 193.01 L 100.20 191.89 C 89.14 191.51 78.08 191.85 67.02 191.62 C 64.10 191.52 61.19 191.95 58.36 192.63 Z" />
</g>
<g id="#ae7936ff">
<path fill="#ae7936" opacity="1.00" d=" M 85.93 36.43 C 91.72 34.94 97.90 35.93 103.59 37.44 C 107.13 38.32 109.76 40.94 112.10 43.59 C 108.08 43.85 104.09 44.65 100.54 46.61 C 91.40 42.74 83.03 50.74 73.81 49.78 C 74.61 44.61 76.87 37.25 83.18 37.11 C 84.19 37.30 85.11 37.08 85.93 36.43 Z" />
<path fill="#ae7936" opacity="1.00" d=" M 52.32 56.43 C 54.66 52.28 55.15 46.90 59.10 43.82 C 64.53 45.55 67.64 50.72 72.06 53.96 C 72.55 53.65 73.54 53.03 74.03 52.71 C 74.77 52.21 75.54 51.76 76.33 51.35 C 78.22 52.59 79.85 54.23 81.83 55.32 C 82.61 55.67 84.16 56.36 84.94 56.71 C 85.84 57.26 86.79 57.38 87.81 57.07 C 88.50 57.06 89.88 57.03 90.57 57.01 C 97.16 58.95 103.97 62.04 107.85 67.99 C 108.56 69.39 109.11 70.87 109.70 72.33 C 108.58 73.05 107.49 73.81 106.41 74.58 C 105.92 73.42 105.44 72.26 104.97 71.09 C 103.41 71.98 101.84 72.85 100.36 73.87 C 98.05 73.29 95.74 72.76 93.42 72.23 C 92.92 73.43 92.42 74.62 91.92 75.82 C 91.29 77.29 90.64 78.76 89.99 80.22 C 88.26 80.65 86.52 81.07 84.79 81.51 C 82.89 78.08 81.27 74.50 79.92 70.82 C 77.94 70.20 75.97 69.57 73.98 68.95 C 72.65 66.82 71.36 64.65 70.07 62.49 C 68.99 64.35 67.90 66.21 66.81 68.08 C 62.60 63.52 58.19 58.82 52.32 56.43 Z" />
<path fill="#ae7936" opacity="1.00" d=" M 37.62 79.73 C 38.82 73.54 44.97 70.74 48.41 65.99 C 49.86 67.86 51.24 69.76 52.58 71.71 C 50.83 70.91 49.07 70.13 47.34 69.28 C 47.55 70.37 47.76 71.45 47.96 72.54 C 44.61 75.07 41.38 77.82 37.62 79.73 Z" />
<path fill="#ae7936" opacity="1.00" d=" M 37.47 83.18 C 40.08 80.64 42.51 77.93 44.91 75.19 C 46.06 76.50 47.22 77.81 48.37 79.12 C 48.14 80.38 47.90 81.64 47.66 82.90 C 46.78 87.77 45.56 92.64 42.98 96.92 C 40.54 93.21 39.07 89.00 38.14 84.68 C 37.71 84.57 36.87 84.33 36.45 84.22 C 36.70 83.96 37.22 83.44 37.47 83.18 Z" />
<path fill="#ae7936" opacity="1.00" d=" M 101.67 82.59 C 105.01 80.15 110.12 82.20 110.82 86.29 C 111.39 90.66 110.94 95.12 110.35 99.47 C 110.04 102.18 107.67 103.86 106.01 105.76 C 102.99 104.35 99.77 102.57 98.70 99.17 C 96.85 93.78 96.54 86.30 101.67 82.59 M 99.88 87.14 C 102.82 87.69 105.78 88.19 108.72 88.74 C 108.36 87.86 108.00 86.98 107.64 86.11 C 105.03 86.21 102.41 86.45 99.88 87.14 Z" />
<path fill="#ae7936" opacity="1.00" d=" M 78.25 92.82 C 80.43 92.84 82.61 92.80 84.79 92.77 C 88.53 93.48 92.23 94.38 95.92 95.29 C 93.99 96.94 91.74 98.22 89.10 97.80 C 85.25 96.81 81.28 95.77 77.28 96.46 C 76.54 95.28 75.79 94.11 75.06 92.93 C 75.86 92.91 77.45 92.85 78.25 92.82 Z" />
<path fill="#ae7936" opacity="1.00" d=" M 50.18 110.81 C 52.42 110.24 54.68 109.75 56.97 109.40 C 60.32 114.94 62.35 121.38 66.71 126.22 C 71.16 128.57 76.43 129.45 80.12 133.15 C 85.96 129.55 92.59 126.29 96.10 120.09 C 97.50 117.45 99.76 115.49 102.44 114.22 C 101.98 117.38 101.01 120.45 99.62 123.33 C 99.67 123.78 99.75 124.70 99.80 125.16 C 100.84 127.35 102.56 129.18 104.84 130.11 C 107.73 131.06 110.86 131.12 113.67 132.31 C 115.66 133.66 117.11 135.63 118.74 137.37 C 116.85 139.58 114.91 141.76 112.94 143.92 C 111.63 142.39 110.33 140.87 109.04 139.32 C 108.67 143.37 108.22 147.41 107.70 151.44 C 104.97 152.30 102.24 153.16 99.50 153.99 C 99.92 154.62 100.75 155.89 101.16 156.53 C 99.21 158.30 96.97 159.77 94.36 160.32 C 90.54 161.17 87.52 163.88 83.87 165.14 C 80.97 165.42 78.10 164.72 75.21 164.78 C 71.45 165.07 67.83 166.65 64.02 166.37 C 60.18 165.94 56.69 164.13 53.23 162.54 C 52.63 163.21 52.03 163.89 51.43 164.57 C 53.85 166.31 56.37 167.97 58.39 170.17 C 57.95 172.89 55.85 175.36 53.15 176.04 C 50.52 174.91 48.13 173.30 45.57 172.03 C 47.32 173.32 49.07 174.60 50.81 175.91 C 49.19 177.06 47.60 178.24 45.98 179.39 C 45.78 181.04 45.56 182.69 45.35 184.34 C 44.31 182.38 42.42 180.49 42.87 178.10 C 43.45 174.05 44.56 170.04 46.45 166.39 C 47.89 163.57 49.25 160.48 48.86 157.24 C 48.20 155.59 47.03 154.21 46.01 152.77 C 46.35 150.50 46.68 148.22 47.18 145.98 C 48.64 138.46 53.07 131.89 54.32 124.31 C 55.15 119.41 51.98 115.11 50.18 110.81 Z" />
<path fill="#ae7936" opacity="1.00" d=" M 25.36 128.75 C 31.43 128.93 36.46 125.47 41.28 122.28 C 40.78 125.23 40.88 128.52 39.11 131.07 C 36.93 133.87 33.02 133.81 29.84 134.36 L 28.79 134.49 C 27.64 132.58 26.50 130.67 25.36 128.75 Z" />
<path fill="#ae7936" opacity="1.00" d=" M 42.07 124.43 C 43.80 125.25 45.93 125.55 47.17 127.14 C 47.65 129.28 47.53 131.59 46.60 133.59 C 44.64 134.07 42.62 134.25 40.61 134.48 C 40.99 131.11 41.48 127.76 42.07 124.43 Z" />
<path fill="#ae7936" opacity="1.00" d=" M 101.55 157.35 C 103.94 156.13 106.63 157.09 109.13 157.31 C 108.86 158.58 108.59 159.85 108.34 161.12 C 108.74 162.07 109.17 163.03 109.47 164.03 C 108.24 166.15 106.34 167.77 104.67 169.53 C 104.91 170.10 105.15 170.66 105.39 171.23 C 109.58 171.04 113.76 171.79 117.50 173.74 C 117.18 175.54 116.87 177.33 116.56 179.13 C 110.90 177.92 105.14 177.31 99.39 176.75 L 99.17 175.95 C 98.61 173.33 98.25 170.67 97.86 168.02 C 99.53 166.70 101.20 165.39 102.89 164.11 C 99.69 165.94 96.17 167.10 92.52 167.61 C 94.68 163.58 97.25 159.35 101.55 157.35 Z" />
<path fill="#ae7936" opacity="1.00" d=" M 122.94 161.52 C 124.57 161.63 126.21 161.66 127.82 161.97 C 130.73 163.83 131.12 167.46 131.39 170.59 C 127.43 170.28 124.34 167.86 121.70 165.10 C 122.12 163.91 122.53 162.71 122.94 161.52 Z" />
<path fill="#ae7936" opacity="1.00" d=" M 60.90 176.69 C 65.43 177.35 69.93 178.15 74.42 178.97 C 74.10 180.69 74.92 183.16 72.88 184.02 C 68.01 184.13 63.23 182.92 58.49 182.01 C 59.24 180.21 60.06 178.45 60.90 176.69 Z" />
<path fill="#ae7936" opacity="1.00" d=" M 58.36 192.63 C 61.19 191.95 64.10 191.52 67.02 191.62 C 78.08 191.85 89.14 191.51 100.20 191.89 L 100.23 193.01 C 93.47 193.30 86.77 194.39 80.00 194.39 C 72.75 194.47 65.51 193.74 58.36 192.63 Z" />
</g>
<g id="#d1bb8dff">
<path fill="#d1bb8d" opacity="1.00" d=" M 48.33 54.84 C 49.67 55.34 51.01 55.84 52.32 56.43 C 58.19 58.82 62.60 63.52 66.81 68.08 C 67.90 66.21 68.99 64.35 70.07 62.49 C 71.36 64.65 72.65 66.82 73.98 68.95 L 74.40 69.62 C 75.12 74.21 75.16 78.89 74.93 83.53 C 76.01 81.03 77.18 78.56 78.44 76.15 C 79.56 79.26 79.04 82.35 76.82 84.79 C 78.49 85.23 80.16 85.69 81.79 86.27 C 84.61 87.66 87.63 88.70 90.83 88.41 C 91.06 89.06 91.51 90.37 91.74 91.03 C 89.43 91.63 87.13 92.30 84.79 92.77 C 82.61 92.80 80.43 92.84 78.25 92.82 C 77.10 92.42 75.97 91.97 74.83 91.52 C 73.27 95.13 72.20 99.94 67.98 101.33 C 65.86 100.87 63.91 99.90 61.92 99.06 C 65.34 94.29 69.80 90.01 71.21 84.10 C 68.69 87.30 66.95 91.43 63.28 93.50 C 56.52 96.17 46.36 91.04 47.66 82.90 C 47.90 81.64 48.14 80.38 48.37 79.12 C 48.53 76.92 48.32 74.71 47.96 72.54 C 47.76 71.45 47.55 70.37 47.34 69.28 C 49.07 70.13 50.83 70.91 52.58 71.71 C 51.24 69.76 49.86 67.86 48.41 65.99 C 49.67 62.34 48.94 58.53 48.33 54.84 M 57.67 75.83 C 55.54 76.60 54.75 78.90 53.64 80.65 C 55.53 79.14 57.18 77.17 59.49 76.27 C 62.03 75.92 64.59 76.29 67.14 76.36 C 64.08 75.57 60.73 74.43 57.67 75.83 M 65.15 79.15 C 63.63 79.43 64.32 81.80 65.74 81.33 C 67.28 81.07 66.57 78.67 65.15 79.15 Z" />
<path fill="#d1bb8d" opacity="1.00" d=" M 19.96 106.62 C 20.88 105.97 21.80 105.34 22.74 104.72 C 23.53 105.50 24.33 106.27 25.15 107.03 C 28.42 108.97 31.78 110.76 34.89 112.96 C 33.08 114.45 31.26 115.93 29.42 117.37 C 28.45 116.44 27.49 115.51 26.54 114.57 C 25.67 113.73 24.80 112.88 23.97 112.00 C 22.51 110.30 21.24 108.46 19.96 106.62 Z" />
<path fill="#d1bb8d" opacity="1.00" d=" M 74.32 107.57 C 77.25 108.12 80.17 108.73 83.11 109.23 C 79.77 109.87 76.38 110.30 72.98 110.20 C 73.31 109.55 73.99 108.23 74.32 107.57 Z" />
</g>
<g id="#a19c8aff">
<path fill="#a19c8a" opacity="1.00" d=" M 74.40 69.62 C 79.02 72.82 82.10 77.54 83.90 82.81 C 83.20 83.96 82.49 85.12 81.79 86.27 C 80.16 85.69 78.49 85.23 76.82 84.79 C 79.04 82.35 79.56 79.26 78.44 76.15 C 77.18 78.56 76.01 81.03 74.93 83.53 C 75.16 78.89 75.12 74.21 74.40 69.62 Z" />
<path fill="#a19c8a" opacity="1.00" d=" M 100.36 73.87 C 101.84 72.85 103.41 71.98 104.97 71.09 C 105.44 72.26 105.92 73.42 106.41 74.58 C 107.49 73.81 108.58 73.05 109.70 72.33 C 113.67 69.94 118.36 72.89 122.34 74.04 C 120.32 76.55 118.10 78.90 115.73 81.08 C 114.22 81.72 115.33 83.83 116.73 83.04 C 116.09 84.34 115.41 85.61 114.73 86.90 C 110.96 92.84 112.25 100.13 112.29 106.78 C 112.91 106.78 114.16 106.79 114.78 106.80 C 115.45 104.04 116.14 101.29 116.68 98.51 C 118.39 99.94 120.15 101.34 121.62 103.03 C 121.40 104.95 119.88 106.25 118.73 107.67 C 119.42 108.96 120.77 110.12 120.71 111.66 C 118.27 114.01 115.39 116.18 112.03 116.98 C 109.85 116.69 107.70 116.26 105.54 115.82 C 104.15 112.21 102.43 108.43 98.80 106.59 C 96.74 109.90 94.38 113.03 92.56 116.48 C 91.46 118.52 92.10 120.89 92.24 123.08 C 90.73 122.13 89.21 121.19 87.69 120.25 C 86.23 122.84 85.48 126.38 82.69 127.85 C 77.12 128.23 73.02 123.60 70.71 119.06 C 69.47 121.15 68.20 123.23 66.89 125.28 C 64.90 119.61 64.78 113.53 63.12 107.80 C 62.36 105.92 61.42 102.97 58.88 103.30 C 51.27 103.56 43.72 105.38 36.07 104.38 C 35.51 108.83 35.54 113.35 34.79 117.78 C 34.39 120.93 30.94 122.57 28.04 122.40 C 24.65 122.33 20.52 121.29 19.22 117.74 C 17.74 114.26 15.95 109.14 19.96 106.62 C 21.24 108.46 22.51 110.30 23.97 112.00 C 22.94 112.37 21.90 112.74 20.87 113.11 C 20.65 113.60 20.21 114.59 19.99 115.09 C 21.75 116.02 23.49 116.98 25.25 117.91 C 25.68 116.80 26.11 115.69 26.54 114.57 C 27.49 115.51 28.45 116.44 29.42 117.37 C 31.26 115.93 33.08 114.45 34.89 112.96 C 31.78 110.76 28.42 108.97 25.15 107.03 C 27.12 107.47 29.10 107.80 31.09 108.10 C 31.42 105.37 31.53 102.62 31.40 99.87 C 30.37 102.41 29.38 104.99 28.01 107.38 C 25.92 104.72 25.17 101.39 24.41 98.17 C 24.06 96.75 23.50 95.40 22.99 94.04 C 23.45 94.03 24.37 94.01 24.83 94.01 C 27.28 93.97 29.72 93.94 32.17 93.92 C 31.19 93.31 30.22 92.71 29.25 92.10 C 26.58 90.57 24.47 88.30 22.61 85.88 C 27.27 85.85 32.00 85.78 36.45 84.22 C 36.87 84.33 37.71 84.57 38.14 84.68 C 39.07 89.00 40.54 93.21 42.98 96.92 C 45.56 92.64 46.78 87.77 47.66 82.90 C 46.36 91.04 56.52 96.17 63.28 93.50 C 66.95 91.43 68.69 87.30 71.21 84.10 C 69.80 90.01 65.34 94.29 61.92 99.06 C 63.91 99.90 65.86 100.87 67.98 101.33 C 72.20 99.94 73.27 95.13 74.83 91.52 C 75.97 91.97 77.10 92.42 78.25 92.82 C 77.45 92.85 75.86 92.91 75.06 92.93 C 75.79 94.11 76.54 95.28 77.28 96.46 C 74.87 102.46 70.50 107.88 70.44 114.63 C 71.32 113.17 72.18 111.71 72.98 110.20 C 76.38 110.30 79.77 109.87 83.11 109.23 C 84.64 109.16 86.17 109.10 87.71 109.08 C 87.70 105.28 88.04 101.46 89.10 97.80 C 91.74 98.22 93.99 96.94 95.92 95.29 C 92.23 94.38 88.53 93.48 84.79 92.77 C 87.13 92.30 89.43 91.63 91.74 91.03 C 91.51 90.37 91.06 89.06 90.83 88.41 C 90.17 86.60 89.48 84.80 88.74 83.02 C 89.15 82.09 89.57 81.15 89.99 80.22 C 90.64 78.76 91.29 77.29 91.92 75.82 C 92.94 75.45 93.97 75.09 94.99 74.72 C 95.52 76.05 96.05 77.39 96.58 78.73 C 97.80 77.08 99.02 75.42 100.36 73.87 M 101.67 82.59 C 96.54 86.30 96.85 93.78 98.70 99.17 C 99.77 102.57 102.99 104.35 106.01 105.76 C 107.67 103.86 110.04 102.18 110.35 99.47 C 110.94 95.12 111.39 90.66 110.82 86.29 C 110.12 82.20 105.01 80.15 101.67 82.59 Z" />
<path fill="#a19c8a" opacity="1.00" d=" M 99.88 87.14 C 102.41 86.45 105.03 86.21 107.64 86.11 C 108.00 86.98 108.36 87.86 108.72 88.74 C 105.78 88.19 102.82 87.69 99.88 87.14 Z" />
<path fill="#a19c8a" opacity="1.00" d=" M 121.45 147.15 C 122.39 146.22 123.32 145.30 124.25 144.38 C 124.90 146.22 125.52 148.07 126.11 149.94 C 124.56 148.99 123.01 148.07 121.45 147.15 Z" />
</g>
</svg>
