<?xml version="1.0" encoding="UTF-8" ?>
<!DOCTYPE svg PUBLIC "-//W3C//DTD SVG 1.1//EN" "http://www.w3.org/Graphics/SVG/1.1/DTD/svg11.dtd">
<svg width="155pt" height="210pt" viewBox="0 0 155 210" version="1.1" xmlns="http://www.w3.org/2000/svg">
<g id="#b6955bff">
<path fill="#b6955b" opacity="1.00" d=" M 62.00 59.46 C 67.56 55.96 73.11 51.66 79.91 51.15 C 82.83 51.06 86.61 49.48 88.81 52.18 C 91.08 54.69 91.10 58.29 91.54 61.46 C 94.04 62.03 97.56 61.37 98.87 64.14 C 100.07 66.01 100.82 68.13 102.08 69.97 C 104.46 71.97 107.50 73.05 109.80 75.18 C 114.84 79.88 117.87 86.20 120.46 92.47 C 120.22 92.97 119.73 93.98 119.49 94.48 C 115.36 93.57 111.15 93.14 106.95 93.81 C 107.05 94.48 107.23 95.84 107.32 96.51 C 109.52 97.35 111.71 98.22 113.76 99.39 C 118.41 103.86 121.11 110.16 121.42 116.60 C 116.15 116.77 111.15 115.01 106.19 113.48 C 105.65 113.98 104.56 114.98 104.01 115.48 C 98.13 115.00 92.58 112.99 86.92 111.48 C 87.02 108.60 87.25 105.72 87.46 102.85 C 89.43 102.48 91.31 101.77 93.20 101.11 C 98.70 102.77 104.50 104.50 110.25 102.98 C 104.51 101.71 98.77 100.08 92.85 100.08 C 91.57 95.49 90.80 90.10 85.97 87.79 C 85.30 85.36 84.66 82.92 83.88 80.52 C 86.57 79.51 89.02 77.88 89.30 74.76 C 86.98 75.13 84.64 75.29 82.32 75.68 C 81.96 72.80 82.12 69.90 82.39 67.01 C 78.86 65.79 75.43 64.30 71.93 62.99 C 71.93 60.83 71.35 58.72 71.18 56.58 C 69.82 61.64 71.06 67.10 68.73 71.94 C 69.86 72.18 70.99 72.42 72.12 72.67 C 68.39 72.52 64.21 72.67 61.37 75.44 C 57.89 78.90 56.51 83.78 54.56 88.16 C 54.59 86.18 54.68 84.20 54.69 82.22 C 49.27 83.75 47.43 89.89 47.27 94.92 C 47.11 97.55 49.77 99.32 52.19 99.23 C 55.71 99.32 59.31 99.40 62.27 101.57 C 61.83 102.31 61.38 103.06 60.93 103.80 C 57.38 103.36 53.55 103.53 50.38 101.62 C 47.48 99.63 45.65 96.53 43.62 93.74 C 37.74 95.76 31.54 97.89 27.53 102.95 C 26.60 102.54 25.67 102.10 24.77 101.64 C 25.80 97.13 24.47 92.57 24.57 88.03 C 24.65 84.86 24.97 81.67 25.71 78.59 C 26.37 75.66 29.14 74.02 31.09 72.00 C 29.44 76.87 28.78 81.99 28.64 87.11 C 30.76 85.48 32.85 83.83 34.94 82.16 C 32.83 87.06 31.04 92.11 30.14 97.37 C 32.08 96.39 34.64 95.85 35.43 93.53 C 38.47 87.85 37.31 81.35 37.51 75.21 C 38.05 71.66 34.90 69.50 32.77 67.19 C 30.46 64.97 29.09 62.04 27.55 59.28 C 28.80 57.72 30.02 56.12 31.15 54.46 C 35.49 55.85 41.11 53.79 44.53 57.30 C 41.42 59.53 37.79 60.76 34.05 61.43 C 33.75 62.59 33.63 63.77 33.68 64.98 C 35.62 65.50 37.51 66.15 39.41 66.78 C 41.73 67.60 43.99 68.59 46.18 69.71 C 49.15 67.27 50.64 63.74 52.56 60.53 C 53.91 58.16 56.28 56.72 58.45 55.21 C 59.64 56.63 60.87 58.00 62.00 59.46 M 38.62 88.64 C 37.76 90.41 39.15 92.07 39.67 93.70 C 41.52 90.63 43.02 87.35 44.09 83.92 C 41.94 85.02 39.34 86.07 38.62 88.64 Z" />
<path fill="#b6955b" opacity="1.00" d=" M 56.24 114.36 C 57.25 112.33 58.74 110.62 60.31 109.01 C 64.79 117.32 73.37 121.78 80.44 127.52 C 76.28 128.39 72.09 127.65 68.13 126.27 C 71.49 129.99 74.98 133.60 79.01 136.62 C 80.67 136.14 82.32 135.56 84.01 135.16 C 84.22 135.49 84.63 136.14 84.84 136.47 C 81.13 138.27 77.34 140.66 73.04 140.29 C 69.84 139.88 67.18 137.90 64.47 136.32 C 64.90 135.05 65.87 133.82 65.80 132.45 C 64.95 130.63 63.41 129.24 62.16 127.69 C 60.07 131.38 57.90 135.06 56.49 139.08 C 56.72 135.95 56.10 132.86 54.29 130.26 C 55.64 125.09 57.95 119.73 56.24 114.36 M 74.59 136.35 C 73.80 137.98 77.32 139.10 77.46 137.23 C 77.19 136.07 75.44 135.47 74.59 136.35 Z" />
<path fill="#b6955b" opacity="1.00" d=" M 83.78 125.29 C 85.41 121.14 86.81 116.84 86.88 112.33 C 87.36 112.56 88.31 113.01 88.78 113.24 C 87.02 115.31 86.72 117.99 86.80 120.61 C 88.31 121.05 89.83 121.48 91.35 121.91 C 93.12 127.25 95.36 132.65 99.82 136.32 C 100.91 134.54 101.95 132.73 103.06 130.95 C 102.59 133.33 102.19 135.71 101.72 138.08 C 103.10 136.77 104.44 135.43 105.81 134.11 C 105.04 136.75 104.29 139.40 103.58 142.06 C 106.54 139.22 109.26 136.14 111.90 133.00 C 109.19 131.76 106.47 130.58 103.76 129.34 C 104.46 128.11 105.09 126.84 105.63 125.52 C 108.31 127.36 110.95 129.25 113.62 131.11 C 113.60 129.21 113.35 127.32 113.31 125.42 C 114.61 125.81 115.92 126.18 117.21 126.59 C 118.95 128.16 119.94 130.37 121.20 132.32 C 124.57 131.53 128.14 131.58 131.29 129.96 C 132.25 131.59 133.83 133.06 133.77 135.11 C 133.99 138.88 131.99 142.26 130.39 145.53 C 131.04 145.78 132.34 146.30 133.00 146.56 C 132.65 150.63 130.83 155.03 127.01 156.94 C 121.76 158.18 116.81 160.40 111.51 161.43 C 109.96 161.71 108.51 162.36 107.25 163.31 L 106.71 163.69 C 107.81 160.03 109.48 156.41 109.50 152.53 C 107.64 149.61 104.38 147.97 101.28 146.68 C 97.43 144.89 93.36 147.18 89.39 146.86 C 87.39 145.49 85.86 143.46 83.68 142.39 C 81.10 141.79 80.12 145.04 78.64 146.52 C 78.07 146.67 76.95 146.97 76.38 147.13 C 74.16 146.25 71.97 145.32 69.77 144.41 C 77.11 142.15 84.72 140.73 91.85 137.78 C 89.40 136.05 86.78 134.46 84.77 132.20 C 83.11 130.31 83.45 127.59 83.78 125.29 M 85.73 122.13 C 86.22 125.31 89.49 123.12 91.28 122.48 C 89.43 122.31 87.58 122.18 85.73 122.13 M 97.51 136.67 C 97.82 138.01 98.20 139.34 98.53 140.68 C 96.95 142.20 95.37 143.73 93.87 145.32 C 97.56 146.14 102.56 143.92 101.64 139.51 C 100.35 138.44 98.91 137.58 97.51 136.67 Z" />
<path fill="#b6955b" opacity="1.00" d=" M 32.46 123.01 C 32.94 123.14 33.88 123.39 34.36 123.51 C 34.67 124.51 34.97 125.50 35.26 126.50 L 35.54 127.50 C 34.86 127.39 33.49 127.17 32.80 127.05 C 32.73 125.70 32.58 124.36 32.46 123.01 Z" />
<path fill="#b6955b" opacity="1.00" d=" M 39.84 123.74 C 42.97 123.51 46.09 123.24 49.22 123.15 C 48.37 124.19 47.60 125.31 46.62 126.24 C 45.08 126.64 43.59 125.82 42.20 125.23 C 41.42 124.72 40.63 124.23 39.84 123.74 Z" />
<path fill="#b6955b" opacity="1.00" d=" M 41.73 137.11 C 42.04 134.04 42.49 130.97 42.36 127.89 C 42.51 130.90 42.67 133.92 42.93 136.93 C 43.46 136.67 44.51 136.15 45.03 135.89 C 43.37 136.94 41.73 138.09 40.42 139.57 C 39.35 142.80 40.22 146.18 42.68 148.49 C 41.47 148.02 40.22 147.62 39.10 146.95 C 37.96 144.39 36.92 141.80 35.70 139.28 C 37.02 136.71 38.57 134.28 39.87 131.71 L 40.11 131.03 C 40.70 133.04 41.22 135.07 41.73 137.11 Z" />
<path fill="#b6955b" opacity="1.00" d=" M 50.12 135.16 C 50.26 132.39 49.68 128.58 53.06 127.56 C 52.69 130.30 51.64 132.86 50.12 135.16 Z" />
<path fill="#b6955b" opacity="1.00" d=" M 59.96 142.19 C 61.58 143.36 63.09 144.68 64.76 145.79 C 64.07 148.11 63.44 150.44 62.64 152.73 C 61.55 154.89 59.90 156.67 58.32 158.47 C 53.99 158.50 54.41 163.87 53.23 166.87 L 52.54 167.31 C 50.95 165.25 49.35 163.19 47.93 161.01 C 49.49 160.93 51.05 160.87 52.61 160.80 C 52.31 162.13 52.02 163.48 51.76 164.83 C 55.24 160.12 55.29 153.89 58.82 149.22 C 58.26 149.29 57.16 149.42 56.61 149.48 C 57.71 147.04 58.84 144.62 59.96 142.19 Z" />
<path fill="#b6955b" opacity="1.00" d=" M 67.86 147.99 C 70.93 146.32 70.59 150.73 71.36 152.54 C 69.09 152.22 66.82 150.54 67.86 147.99 Z" />
<path fill="#b6955b" opacity="1.00" d=" M 82.09 155.11 C 82.68 154.61 83.26 154.08 83.81 153.53 C 85.82 154.75 87.72 156.17 90.03 156.80 C 90.49 156.89 91.41 157.06 91.87 157.14 C 89.78 160.21 88.96 163.87 88.25 167.45 C 92.88 165.63 95.99 161.68 99.27 158.14 C 98.17 161.08 97.02 163.99 95.92 166.93 C 97.82 166.88 99.68 167.35 101.58 167.20 C 102.04 168.27 102.65 169.26 103.26 170.26 C 99.96 169.13 96.63 168.07 93.40 166.75 C 91.75 168.60 89.70 172.19 86.82 170.23 C 83.74 167.27 80.63 163.48 79.95 159.18 C 82.49 158.22 85.24 158.63 87.88 158.74 C 85.92 157.57 84.00 156.35 82.09 155.11 Z" />
<path fill="#b6955b" opacity="1.00" d=" M 59.00 172.74 C 62.17 170.69 65.25 168.50 68.17 166.11 C 67.94 167.49 67.63 168.85 67.26 170.20 C 64.61 173.53 62.58 177.36 61.87 181.60 L 62.01 180.73 C 61.60 177.88 60.33 175.26 59.00 172.74 Z" />
<path fill="#b6955b" opacity="1.00" d=" M 76.95 170.10 C 78.19 168.91 80.08 169.58 81.62 169.31 C 82.82 173.12 82.45 177.10 81.16 180.84 C 83.21 184.07 85.56 187.39 85.55 191.40 C 82.92 191.17 80.08 191.46 77.66 190.21 C 73.26 187.27 70.27 181.75 71.43 176.41 C 72.93 174.04 74.86 171.95 76.95 170.10 Z" />
<path fill="#b6955b" opacity="1.00" d=" M 89.41 177.00 C 91.06 176.26 92.67 175.43 94.30 174.66 C 98.22 177.66 103.45 178.44 106.91 182.10 C 108.69 184.15 111.61 183.83 114.04 184.38 C 113.40 185.28 112.81 186.23 112.12 187.10 C 109.43 189.16 106.52 191.43 103.04 191.80 C 101.19 192.12 100.49 190.15 99.61 188.94 C 99.07 187.45 98.82 185.69 97.36 184.77 C 94.43 182.49 91.54 180.09 89.41 177.00 M 101.17 187.68 C 100.21 188.57 100.79 190.55 102.12 190.71 C 104.15 190.48 102.97 186.62 101.17 187.68 Z" />
<path fill="#b6955b" opacity="1.00" d=" M 82.28 178.04 C 83.77 177.84 85.27 177.67 86.75 177.45 C 87.39 182.01 89.64 186.09 92.81 189.37 C 92.40 190.24 91.99 191.11 91.57 191.98 C 90.17 192.02 88.76 192.09 87.36 192.19 C 86.86 187.09 84.18 182.69 82.28 178.04 Z" />
<path fill="#b6955b" opacity="1.00" d=" M 42.79 188.83 C 45.29 187.44 47.86 186.18 50.48 185.05 C 50.33 187.30 50.10 189.55 49.93 191.80 C 47.68 191.81 45.44 191.71 43.19 191.67 C 43.09 190.96 42.89 189.54 42.79 188.83 Z" />
</g>
<g id="#1e1a17ff">
<path fill="#1e1a17" opacity="1.00" d=" M 34.05 61.43 C 37.79 60.76 41.42 59.53 44.53 57.30 L 45.07 56.95 C 43.88 60.59 41.87 63.86 39.41 66.78 C 37.51 66.15 35.62 65.50 33.68 64.98 C 33.63 63.77 33.75 62.59 34.05 61.43 Z" />
<path fill="#1e1a17" opacity="1.00" d=" M 68.73 71.94 C 71.06 67.10 69.82 61.64 71.18 56.58 C 71.35 58.72 71.93 60.83 71.93 62.99 C 75.43 64.30 78.86 65.79 82.39 67.01 C 82.12 69.90 81.96 72.80 82.32 75.68 C 82.80 77.31 83.35 78.91 83.88 80.52 C 84.66 82.92 85.30 85.36 85.97 87.79 C 84.17 87.21 82.36 86.61 80.51 86.22 C 81.05 83.70 82.17 81.09 81.54 78.51 C 79.73 75.03 75.70 73.57 72.12 72.67 C 70.99 72.42 69.86 72.18 68.73 71.94 Z" />
<path fill="#1e1a17" opacity="1.00" d=" M 25.11 62.20 C 25.66 61.08 25.84 58.94 27.55 59.28 C 29.09 62.04 30.46 64.97 32.77 67.19 C 34.90 69.50 38.05 71.66 37.51 75.21 C 35.40 74.09 33.28 72.98 31.09 72.00 C 27.54 70.33 23.44 66.51 25.11 62.20 Z" />
<path fill="#1e1a17" opacity="1.00" d=" M 69.17 87.10 C 71.37 86.07 73.52 84.94 75.67 83.81 C 75.09 84.93 74.50 86.04 73.89 87.15 C 75.39 92.10 76.66 97.12 77.96 102.13 C 78.73 104.99 78.64 108.33 76.72 110.74 C 74.73 113.44 70.53 113.99 67.83 112.11 C 65.17 109.92 63.44 106.78 62.80 103.42 C 65.73 102.36 69.01 101.60 71.20 99.21 C 73.65 96.53 73.82 92.55 73.04 89.18 C 71.98 88.14 70.49 87.73 69.17 87.10 Z" />
<path fill="#1e1a17" opacity="1.00" d=" M 62.45 97.38 C 63.53 94.57 65.11 91.98 67.25 89.85 C 68.19 91.93 69.33 93.95 70.03 96.14 C 69.77 97.84 68.28 98.97 67.38 100.34 C 66.76 99.45 66.16 98.55 65.57 97.65 C 64.53 97.57 63.49 97.48 62.45 97.38 Z" />
<path fill="#1e1a17" opacity="1.00" d=" M 120.46 92.47 L 121.03 92.00 C 120.59 93.38 120.87 94.96 120.18 96.24 C 118.55 98.10 115.94 98.49 113.76 99.39 C 111.71 98.22 109.52 97.35 107.32 96.51 C 107.23 95.84 107.05 94.48 106.95 93.81 C 111.15 93.14 115.36 93.57 119.49 94.48 C 119.73 93.98 120.22 92.97 120.46 92.47 Z" />
<path fill="#1e1a17" opacity="1.00" d=" M 92.85 100.08 C 98.77 100.08 104.51 101.71 110.25 102.98 C 104.50 104.50 98.70 102.77 93.20 101.11 L 92.85 100.08 Z" />
<path fill="#1e1a17" opacity="1.00" d=" M 24.18 101.35 L 24.77 101.64 C 25.67 102.10 26.60 102.54 27.53 102.95 C 30.81 103.93 34.33 104.16 37.47 105.61 C 40.16 106.86 40.70 110.08 41.89 112.51 C 40.01 113.45 38.09 114.35 36.43 115.66 C 35.84 117.20 35.95 118.92 35.70 120.54 C 40.68 121.07 45.81 122.32 50.79 121.12 C 53.50 119.80 54.81 116.84 56.24 114.36 C 57.95 119.73 55.64 125.09 54.29 130.26 C 53.04 133.48 51.46 136.55 49.83 139.59 C 48.71 138.06 47.23 136.84 46.14 135.29 C 45.87 135.44 45.31 135.74 45.03 135.89 C 44.51 136.15 43.46 136.67 42.93 136.93 C 42.67 133.92 42.51 130.90 42.36 127.89 C 42.32 127.22 42.24 125.90 42.20 125.23 C 43.59 125.82 45.08 126.64 46.62 126.24 C 47.60 125.31 48.37 124.19 49.22 123.15 C 46.09 123.24 42.97 123.51 39.84 123.74 C 38.68 123.51 37.52 123.29 36.36 123.07 C 37.74 125.65 39.25 128.20 40.11 131.03 L 39.87 131.71 C 38.80 129.58 37.40 127.65 35.26 126.50 C 34.97 125.50 34.67 124.51 34.36 123.51 C 33.88 123.39 32.94 123.14 32.46 123.01 C 32.58 124.36 32.73 125.70 32.80 127.05 C 30.41 124.47 27.25 122.96 23.87 122.12 C 22.44 118.20 20.40 114.55 18.08 111.10 C 20.60 108.18 22.79 104.96 24.18 101.35 M 50.12 135.16 C 51.64 132.86 52.69 130.30 53.06 127.56 C 49.68 128.58 50.26 132.39 50.12 135.16 Z" />
<path fill="#1e1a17" opacity="1.00" d=" M 86.92 111.48 C 92.58 112.99 98.13 115.00 104.01 115.48 C 99.07 118.09 93.56 114.72 88.78 113.24 C 88.31 113.01 87.36 112.56 86.88 112.33 L 86.92 111.48 Z" />
<path fill="#1e1a17" opacity="1.00" d=" M 106.19 113.48 C 111.15 115.01 116.15 116.77 121.42 116.60 C 119.53 119.57 115.86 119.27 112.80 119.70 C 110.92 117.30 108.52 115.41 106.19 113.48 Z" />
<path fill="#1e1a17" opacity="1.00" d=" M 80.08 121.78 C 81.32 122.94 82.54 124.12 83.78 125.29 C 83.45 127.59 83.11 130.31 84.77 132.20 C 86.78 134.46 89.40 136.05 91.85 137.78 C 84.72 140.73 77.11 142.15 69.77 144.41 C 71.97 145.32 74.16 146.25 76.38 147.13 C 74.87 147.53 73.37 147.98 71.88 148.46 C 72.34 150.96 73.82 152.82 76.20 153.76 C 75.70 154.71 75.45 155.75 75.06 156.75 C 77.57 156.81 80.17 157.03 82.09 155.11 C 84.00 156.35 85.92 157.57 87.88 158.74 C 85.24 158.63 82.49 158.22 79.95 159.18 C 80.63 163.48 83.74 167.27 86.82 170.23 C 89.70 172.19 91.75 168.60 93.40 166.75 C 96.63 168.07 99.96 169.13 103.26 170.26 L 104.27 170.76 C 101.92 174.02 97.46 172.71 94.30 174.66 C 92.67 175.43 91.06 176.26 89.41 177.00 C 88.75 177.11 87.42 177.34 86.75 177.45 C 85.27 177.67 83.77 177.84 82.28 178.04 C 84.18 182.69 86.86 187.09 87.36 192.19 C 88.76 192.09 90.17 192.02 91.57 191.98 C 91.99 191.11 92.40 190.24 92.81 189.37 C 92.94 189.06 93.21 188.44 93.35 188.13 C 93.63 189.45 93.95 190.75 94.32 192.05 C 95.82 191.98 97.32 191.92 98.82 191.86 C 99.02 191.13 99.42 189.67 99.61 188.94 C 100.49 190.15 101.19 192.12 103.04 191.80 C 106.52 191.43 109.43 189.16 112.12 187.10 C 110.81 188.85 109.41 190.53 107.99 192.20 C 112.44 192.43 116.96 191.91 121.35 192.75 C 124.83 193.79 123.46 198.06 123.82 200.75 C 95.24 200.90 66.67 200.85 38.09 200.77 C 38.13 198.94 38.10 197.11 38.32 195.29 C 39.79 193.11 41.88 191.37 42.79 188.83 C 42.89 189.54 43.09 190.96 43.19 191.67 C 45.44 191.71 47.68 191.81 49.93 191.80 C 53.52 191.78 57.12 191.46 60.72 191.71 C 64.42 191.98 68.13 192.24 71.85 192.43 C 69.89 188.60 67.10 184.61 67.88 180.08 C 68.04 176.80 69.84 173.00 67.26 170.20 C 67.63 168.85 67.94 167.49 68.17 166.11 C 68.42 162.56 69.02 158.85 67.91 155.38 C 66.55 153.90 64.42 153.52 62.64 152.73 C 63.44 150.44 64.07 148.11 64.76 145.79 C 63.09 144.68 61.58 143.36 59.96 142.19 C 58.77 141.35 57.51 140.62 56.24 139.91 L 56.49 139.08 C 57.90 135.06 60.07 131.38 62.16 127.69 C 63.41 129.24 64.95 130.63 65.80 132.45 C 65.87 133.82 64.90 135.05 64.47 136.32 C 67.18 137.90 69.84 139.88 73.04 140.29 C 77.34 140.66 81.13 138.27 84.84 136.47 C 84.63 136.14 84.22 135.49 84.01 135.16 C 81.94 130.96 81.13 126.31 80.08 121.78 M 67.86 147.99 C 66.82 150.54 69.09 152.22 71.36 152.54 C 70.59 150.73 70.93 146.32 67.86 147.99 M 76.95 170.10 C 74.86 171.95 72.93 174.04 71.43 176.41 C 70.27 181.75 73.26 187.27 77.66 190.21 C 80.08 191.46 82.92 191.17 85.55 191.40 C 85.56 187.39 83.21 184.07 81.16 180.84 C 82.45 177.10 82.82 173.12 81.62 169.31 C 80.08 169.58 78.19 168.91 76.95 170.10 Z" />
<path fill="#1e1a17" opacity="1.00" d=" M 85.73 122.13 C 87.58 122.18 89.43 122.31 91.28 122.48 C 89.49 123.12 86.22 125.31 85.73 122.13 Z" />
<path fill="#1e1a17" opacity="1.00" d=" M 74.59 136.35 C 75.44 135.47 77.19 136.07 77.46 137.23 C 77.32 139.10 73.80 137.98 74.59 136.35 Z" />
<path fill="#1e1a17" opacity="1.00" d=" M 97.51 136.67 C 98.91 137.58 100.35 138.44 101.64 139.51 C 102.56 143.92 97.56 146.14 93.87 145.32 C 95.37 143.73 96.95 142.20 98.53 140.68 C 98.20 139.34 97.82 138.01 97.51 136.67 Z" />
<path fill="#1e1a17" opacity="1.00" d=" M 35.42 138.60 L 35.70 139.28 C 36.92 141.80 37.96 144.39 39.10 146.95 C 40.22 147.62 41.47 148.02 42.68 148.49 C 45.73 148.41 48.78 148.24 51.82 147.95 C 50.34 149.03 48.15 149.74 47.82 151.79 C 47.07 154.81 47.37 157.98 47.93 161.01 C 49.35 163.19 50.95 165.25 52.54 167.31 C 49.12 169.64 44.93 169.71 40.96 169.64 C 41.09 169.11 41.37 168.06 41.51 167.53 C 43.77 166.99 45.96 166.20 48.21 165.64 C 47.72 164.20 47.50 162.63 46.68 161.33 C 44.97 160.45 43.13 159.86 41.30 159.29 C 41.75 158.28 42.21 157.27 42.67 156.26 C 40.17 154.14 37.46 151.98 36.15 148.88 C 34.74 145.64 35.07 142.01 35.42 138.60 Z" />
<path fill="#1e1a17" opacity="1.00" d=" M 90.03 156.80 C 90.79 155.65 91.90 153.61 93.56 154.18 C 93.76 155.40 92.45 156.21 91.87 157.14 C 91.41 157.06 90.49 156.89 90.03 156.80 Z" />
<path fill="#1e1a17" opacity="1.00" d=" M 111.51 161.43 C 116.81 160.40 121.76 158.18 127.01 156.94 C 122.00 162.15 114.57 166.40 107.25 163.31 C 108.51 162.36 109.96 161.71 111.51 161.43 Z" />
<path fill="#1e1a17" opacity="1.00" d=" M 53.23 166.87 C 54.41 163.87 53.99 158.50 58.32 158.47 C 56.37 161.85 54.13 165.68 54.81 169.73 C 55.89 171.11 57.56 171.82 59.00 172.74 C 60.33 175.26 61.60 177.88 62.01 180.73 C 60.63 180.26 59.24 179.78 57.86 179.32 C 56.59 180.49 55.24 181.56 53.91 182.66 C 54.68 180.88 54.93 178.97 54.32 177.10 C 53.53 173.75 53.16 170.31 53.23 166.87 Z" />
<path fill="#1e1a17" opacity="1.00" d=" M 39.03 181.03 C 34.04 176.86 34.83 169.54 36.57 163.97 C 36.60 166.29 36.58 168.62 36.96 170.92 C 37.46 174.14 39.90 176.49 41.76 179.00 C 45.81 177.66 50.07 177.18 54.32 177.10 C 51.54 178.85 48.21 178.77 45.05 178.96 C 43.95 180.88 42.88 182.82 41.76 184.74 C 41.36 184.47 40.96 184.20 40.56 183.93 C 40.75 183.41 41.13 182.36 41.32 181.83 L 42.92 182.05 C 40.94 180.01 39.03 177.91 37.08 175.84 C 37.67 177.59 38.35 179.31 39.03 181.03 Z" />
</g>
<g id="#d4d0c6ff">
<path fill="#d4d0c6" opacity="1.00" d=" M 31.09 72.00 C 33.28 72.98 35.40 74.09 37.51 75.21 C 37.31 81.35 38.47 87.85 35.43 93.53 C 34.64 95.85 32.08 96.39 30.14 97.37 C 31.04 92.11 32.83 87.06 34.94 82.16 C 32.85 83.83 30.76 85.48 28.64 87.11 C 28.78 81.99 29.44 76.87 31.09 72.00 Z" />
<path fill="#d4d0c6" opacity="1.00" d=" M 61.37 75.44 C 64.21 72.67 68.39 72.52 72.12 72.67 C 75.70 73.57 79.73 75.03 81.54 78.51 C 82.17 81.09 81.05 83.70 80.51 86.22 C 82.36 86.61 84.17 87.21 85.97 87.79 C 90.80 90.10 91.57 95.49 92.85 100.08 L 93.20 101.11 C 91.31 101.77 89.43 102.48 87.46 102.85 C 87.25 105.72 87.02 108.60 86.92 111.48 L 86.88 112.33 C 86.81 116.84 85.41 121.14 83.78 125.29 C 82.54 124.12 81.32 122.94 80.08 121.78 C 81.13 126.31 81.94 130.96 84.01 135.16 C 82.32 135.56 80.67 136.14 79.01 136.62 C 74.98 133.60 71.49 129.99 68.13 126.27 C 72.09 127.65 76.28 128.39 80.44 127.52 C 73.37 121.78 64.79 117.32 60.31 109.01 C 58.74 110.62 57.25 112.33 56.24 114.36 C 54.81 116.84 53.50 119.80 50.79 121.12 C 45.81 122.32 40.68 121.07 35.70 120.54 C 35.95 118.92 35.84 117.20 36.43 115.66 C 38.09 114.35 40.01 113.45 41.89 112.51 C 40.70 110.08 40.16 106.86 37.47 105.61 C 34.33 104.16 30.81 103.93 27.53 102.95 C 31.54 97.89 37.74 95.76 43.62 93.74 C 45.65 96.53 47.48 99.63 50.38 101.62 C 53.55 103.53 57.38 103.36 60.93 103.80 C 61.38 103.06 61.83 102.31 62.27 101.57 C 59.31 99.40 55.71 99.32 52.19 99.23 C 49.77 99.32 47.11 97.55 47.27 94.92 C 47.43 89.89 49.27 83.75 54.69 82.22 C 54.68 84.20 54.59 86.18 54.56 88.16 C 56.51 83.78 57.89 78.90 61.37 75.44 M 69.17 87.10 C 70.49 87.73 71.98 88.14 73.04 89.18 C 73.82 92.55 73.65 96.53 71.20 99.21 C 69.01 101.60 65.73 102.36 62.80 103.42 C 63.44 106.78 65.17 109.92 67.83 112.11 C 70.53 113.99 74.73 113.44 76.72 110.74 C 78.64 108.33 78.73 104.99 77.96 102.13 C 76.66 97.12 75.39 92.10 73.89 87.15 C 74.50 86.04 75.09 84.93 75.67 83.81 C 73.52 84.94 71.37 86.07 69.17 87.10 M 62.45 97.38 C 63.49 97.48 64.53 97.57 65.57 97.65 C 66.16 98.55 66.76 99.45 67.38 100.34 C 68.28 98.97 69.77 97.84 70.03 96.14 C 69.33 93.95 68.19 91.93 67.25 89.85 C 65.11 91.98 63.53 94.57 62.45 97.38 Z" />
<path fill="#d4d0c6" opacity="1.00" d=" M 82.32 75.68 C 84.64 75.29 86.98 75.13 89.30 74.76 C 89.02 77.88 86.57 79.51 83.88 80.52 C 83.35 78.91 82.80 77.31 82.32 75.68 Z" />
<path fill="#d4d0c6" opacity="1.00" d=" M 38.62 88.64 C 39.34 86.07 41.94 85.02 44.09 83.92 C 43.02 87.35 41.52 90.63 39.67 93.70 C 39.15 92.07 37.76 90.41 38.62 88.64 Z" />
<path fill="#d4d0c6" opacity="1.00" d=" M 86.80 120.61 C 86.72 117.99 87.02 115.31 88.78 113.24 C 93.56 114.72 99.07 118.09 104.01 115.48 C 104.56 114.98 105.65 113.98 106.19 113.48 C 108.52 115.41 110.92 117.30 112.80 119.70 C 114.40 121.91 115.87 124.22 117.21 126.59 C 115.92 126.18 114.61 125.81 113.31 125.42 C 113.35 127.32 113.60 129.21 113.62 131.11 C 110.95 129.25 108.31 127.36 105.63 125.52 C 105.09 126.84 104.46 128.11 103.76 129.34 C 106.47 130.58 109.19 131.76 111.90 133.00 C 109.26 136.14 106.54 139.22 103.58 142.06 C 104.29 139.40 105.04 136.75 105.81 134.11 C 104.44 135.43 103.10 136.77 101.72 138.08 C 102.19 135.71 102.59 133.33 103.06 130.95 C 101.95 132.73 100.91 134.54 99.82 136.32 C 95.36 132.65 93.12 127.25 91.35 121.91 C 89.83 121.48 88.31 121.05 86.80 120.61 Z" />
<path fill="#d4d0c6" opacity="1.00" d=" M 36.36 123.07 C 37.52 123.29 38.68 123.51 39.84 123.74 C 40.63 124.23 41.42 124.72 42.20 125.23 C 42.24 125.90 42.32 127.22 42.36 127.89 C 42.49 130.97 42.04 134.04 41.73 137.11 C 41.22 135.07 40.70 133.04 40.11 131.03 C 39.25 128.20 37.74 125.65 36.36 123.07 Z" />
<path fill="#d4d0c6" opacity="1.00" d=" M 54.29 130.26 C 56.10 132.86 56.72 135.95 56.49 139.08 L 56.24 139.91 C 57.51 140.62 58.77 141.35 59.96 142.19 C 58.84 144.62 57.71 147.04 56.61 149.48 C 57.16 149.42 58.26 149.29 58.82 149.22 C 55.29 153.89 55.24 160.12 51.76 164.83 C 52.02 163.48 52.31 162.13 52.61 160.80 C 51.05 160.87 49.49 160.93 47.93 161.01 C 47.37 157.98 47.07 154.81 47.82 151.79 C 48.15 149.74 50.34 149.03 51.82 147.95 C 48.78 148.24 45.73 148.41 42.68 148.49 C 40.22 146.18 39.35 142.80 40.42 139.57 C 41.73 138.09 43.37 136.94 45.03 135.89 C 45.31 135.74 45.87 135.44 46.14 135.29 C 47.23 136.84 48.71 138.06 49.83 139.59 C 51.46 136.55 53.04 133.48 54.29 130.26 Z" />
<path fill="#d4d0c6" opacity="1.00" d=" M 78.64 146.52 C 80.12 145.04 81.10 141.79 83.68 142.39 C 85.86 143.46 87.39 145.49 89.39 146.86 C 93.36 147.18 97.43 144.89 101.28 146.68 C 104.38 147.97 107.64 149.61 109.50 152.53 C 109.48 156.41 107.81 160.03 106.71 163.69 C 105.89 166.04 105.02 168.38 104.27 170.76 L 103.26 170.26 C 102.65 169.26 102.04 168.27 101.58 167.20 C 99.68 167.35 97.82 166.88 95.92 166.93 C 97.02 163.99 98.17 161.08 99.27 158.14 C 95.99 161.68 92.88 165.63 88.25 167.45 C 88.96 163.87 89.78 160.21 91.87 157.14 C 92.45 156.21 93.76 155.40 93.56 154.18 C 91.90 153.61 90.79 155.65 90.03 156.80 C 87.72 156.17 85.82 154.75 83.81 153.53 C 83.26 154.08 82.68 154.61 82.09 155.11 C 80.17 157.03 77.57 156.81 75.06 156.75 C 75.45 155.75 75.70 154.71 76.20 153.76 C 73.82 152.82 72.34 150.96 71.88 148.46 C 73.37 147.98 74.87 147.53 76.38 147.13 C 76.95 146.97 78.07 146.67 78.64 146.52 Z" />
<path fill="#d4d0c6" opacity="1.00" d=" M 62.64 152.73 C 64.42 153.52 66.55 153.90 67.91 155.38 C 69.02 158.85 68.42 162.56 68.17 166.11 C 65.25 168.50 62.17 170.69 59.00 172.74 C 57.56 171.82 55.89 171.11 54.81 169.73 C 54.13 165.68 56.37 161.85 58.32 158.47 C 59.90 156.67 61.55 154.89 62.64 152.73 Z" />
<path fill="#d4d0c6" opacity="1.00" d=" M 36.57 163.97 C 38.25 162.52 39.81 160.94 41.30 159.29 C 43.13 159.86 44.97 160.45 46.68 161.33 C 47.50 162.63 47.72 164.20 48.21 165.64 C 45.96 166.20 43.77 166.99 41.51 167.53 C 41.37 168.06 41.09 169.11 40.96 169.64 C 44.93 169.71 49.12 169.64 52.54 167.31 L 53.23 166.87 C 53.16 170.31 53.53 173.75 54.32 177.10 C 50.07 177.18 45.81 177.66 41.76 179.00 C 39.90 176.49 37.46 174.14 36.96 170.92 C 36.58 168.62 36.60 166.29 36.57 163.97 Z" />
<path fill="#d4d0c6" opacity="1.00" d=" M 37.08 175.84 C 39.03 177.91 40.94 180.01 42.92 182.05 L 41.32 181.83 C 41.13 182.36 40.75 183.41 40.56 183.93 C 40.18 183.21 39.42 181.76 39.03 181.03 C 38.35 179.31 37.67 177.59 37.08 175.84 Z" />
<path fill="#d4d0c6" opacity="1.00" d=" M 86.75 177.45 C 87.42 177.34 88.75 177.11 89.41 177.00 C 91.54 180.09 94.43 182.49 97.36 184.77 C 98.82 185.69 99.07 187.45 99.61 188.94 C 99.42 189.67 99.02 191.13 98.82 191.86 C 97.32 191.92 95.82 191.98 94.32 192.05 C 93.95 190.75 93.63 189.45 93.35 188.13 C 93.21 188.44 92.94 189.06 92.81 189.37 C 89.64 186.09 87.39 182.01 86.75 177.45 Z" />
<path fill="#d4d0c6" opacity="1.00" d=" M 53.91 182.66 C 55.24 181.56 56.59 180.49 57.86 179.32 C 59.24 179.78 60.63 180.26 62.01 180.73 L 61.87 181.60 C 61.21 184.93 61.00 188.33 60.72 191.71 C 57.12 191.46 53.52 191.78 49.93 191.80 C 50.10 189.55 50.33 187.30 50.48 185.05 C 51.60 184.22 52.83 183.54 53.91 182.66 Z" />
<path fill="#d4d0c6" opacity="1.00" d=" M 101.17 187.68 C 102.97 186.62 104.15 190.48 102.12 190.71 C 100.79 190.55 100.21 188.57 101.17 187.68 Z" />
</g>
</svg>
