<?xml version="1.0" encoding="UTF-8" ?>
<!DOCTYPE svg PUBLIC "-//W3C//DTD SVG 1.1//EN" "http://www.w3.org/Graphics/SVG/1.1/DTD/svg11.dtd">
<svg width="155pt" height="210pt" viewBox="0 0 155 210" version="1.1" xmlns="http://www.w3.org/2000/svg">
<g id="#694a26ff">
<path fill="#694a26" opacity="1.00" d=" M 70.84 55.27 C 78.52 50.48 86.85 45.98 96.07 45.41 C 98.25 45.13 99.60 47.33 100.34 49.06 C 101.06 51.62 99.89 54.20 99.47 56.72 C 100.60 56.90 101.74 57.09 102.89 57.27 C 104.14 59.17 104.87 61.65 107.00 62.78 C 110.22 64.60 112.61 67.49 115.60 69.62 C 122.05 73.87 125.83 81.25 128.02 88.43 C 127.94 89.00 127.79 90.14 127.71 90.71 C 122.06 89.67 116.28 87.59 110.53 89.23 C 110.34 89.84 109.98 91.07 109.79 91.69 C 113.59 92.02 117.34 92.76 120.91 94.11 L 119.64 94.13 L 121.66 95.17 C 126.24 99.58 129.27 105.81 129.54 112.23 C 127.78 113.71 125.52 113.85 123.33 113.83 C 124.92 113.38 126.50 112.94 128.09 112.50 C 123.94 111.28 119.57 111.01 115.49 109.54 C 111.83 108.23 108.18 106.89 104.47 105.73 C 104.55 107.17 104.64 108.61 104.72 110.06 C 98.57 109.69 92.79 107.48 87.17 105.13 C 86.68 106.52 86.19 107.90 85.75 109.30 C 85.83 105.18 85.99 101.06 86.34 96.96 C 91.55 96.88 93.42 103.15 98.61 103.34 C 96.86 100.71 94.32 98.81 91.71 97.12 C 91.70 95.75 91.70 94.39 91.70 93.03 C 93.72 91.48 95.44 89.59 96.56 87.29 C 95.36 86.84 94.16 86.39 92.97 85.95 C 93.25 82.20 93.27 78.44 93.29 74.68 C 94.69 73.72 97.12 73.28 96.64 71.06 C 95.53 70.40 94.39 69.78 93.24 69.20 C 92.31 63.32 93.17 56.95 90.44 51.49 C 89.16 49.02 86.27 50.56 84.62 51.75 C 78.81 56.18 74.27 61.99 69.88 67.77 C 65.58 67.93 61.21 68.75 57.64 71.29 C 58.15 67.82 59.78 64.71 61.57 61.74 C 57.59 64.59 55.16 68.94 51.67 72.28 C 49.98 68.70 52.90 65.58 54.46 62.58 C 55.71 61.68 57.00 60.86 58.23 59.96 C 61.74 56.62 64.75 51.47 70.16 51.37 C 70.38 52.67 70.61 53.97 70.84 55.27 M 94.45 94.46 C 94.80 95.16 95.51 96.55 95.86 97.25 C 96.73 97.22 98.45 97.15 99.32 97.12 C 98.52 99.10 103.01 100.47 103.21 98.20 C 106.70 98.80 111.35 100.00 114.17 97.19 C 110.65 96.63 107.07 96.77 103.55 96.25 C 100.53 95.58 97.53 94.81 94.45 94.46 Z" />
<path fill="#694a26" opacity="1.00" d=" M 83.14 56.11 C 84.34 55.18 85.28 53.55 86.97 53.47 C 89.64 54.50 91.58 57.21 91.51 60.10 C 90.18 61.92 89.51 58.93 88.80 58.11 C 88.02 55.72 84.97 56.69 83.14 56.11 Z" />
<path fill="#694a26" opacity="1.00" d=" M 37.66 68.19 L 38.17 68.25 C 34.75 72.04 33.19 76.90 32.49 81.88 C 34.04 80.90 35.58 79.92 37.11 78.92 C 34.83 82.63 33.42 86.76 31.89 90.82 C 31.37 93.13 28.71 93.29 26.90 94.07 C 27.99 92.86 29.64 91.85 29.43 89.98 C 30.11 82.25 31.07 73.32 37.66 68.19 Z" />
<path fill="#694a26" opacity="1.00" d=" M 39.84 81.87 C 41.73 79.53 43.38 76.93 44.03 73.96 C 43.99 74.69 43.93 76.16 43.89 76.89 C 44.95 76.50 46.00 76.10 47.06 75.70 C 47.96 76.63 48.86 77.55 49.76 78.48 C 48.88 79.72 48.02 80.99 47.18 82.26 C 46.35 82.39 45.51 82.52 44.67 82.65 C 44.11 83.91 43.56 85.18 43.01 86.45 C 43.56 86.44 44.67 86.42 45.22 86.41 C 45.26 88.71 45.16 91.05 45.60 93.32 C 48.20 95.01 51.47 94.03 54.35 94.65 C 55.94 95.55 57.10 97.03 58.38 98.29 C 54.21 97.98 49.50 98.57 45.92 95.96 C 43.78 94.53 43.27 91.87 42.41 89.63 C 41.80 89.42 40.58 89.01 39.97 88.80 C 41.38 85.38 43.35 82.25 45.36 79.16 C 43.69 80.18 41.67 80.94 40.62 82.70 C 39.27 84.67 39.58 87.17 39.35 89.42 C 37.92 90.19 36.48 90.95 35.03 91.70 C 36.32 88.29 37.53 84.75 39.84 81.87 Z" />
<path fill="#694a26" opacity="1.00" d=" M 90.22 87.08 C 93.15 85.47 90.44 90.42 90.22 87.08 Z" />
<path fill="#694a26" opacity="1.00" d=" M 67.70 95.17 C 69.37 93.46 70.70 91.42 71.54 89.18 C 71.35 89.92 70.98 91.42 70.79 92.17 C 71.65 91.33 72.50 90.50 73.37 89.67 C 73.06 92.37 71.66 95.02 69.14 96.23 C 68.78 95.97 68.06 95.44 67.70 95.17 Z" />
<path fill="#694a26" opacity="1.00" d=" M 90.28 89.54 C 91.66 89.71 91.92 90.40 91.05 91.61 C 89.67 91.44 89.41 90.75 90.28 89.54 Z" />
<path fill="#694a26" opacity="1.00" d=" M 69.77 101.34 C 69.29 98.73 70.96 96.54 73.11 95.30 C 76.25 97.35 71.83 100.46 69.77 101.34 Z" />
<path fill="#694a26" opacity="1.00" d=" M 44.10 115.85 C 48.84 116.37 49.41 110.14 53.03 108.68 C 54.74 108.56 57.56 107.52 58.11 109.90 C 58.88 113.74 59.23 117.67 59.17 121.58 C 57.73 121.62 56.29 121.63 54.85 121.70 C 54.89 121.37 54.96 120.72 54.99 120.39 C 54.92 117.30 55.28 113.67 52.56 111.53 C 50.61 113.41 48.62 115.25 46.75 117.20 C 46.57 117.41 46.22 117.82 46.04 118.03 C 44.35 118.00 42.65 117.97 40.96 117.93 C 41.19 119.12 41.42 120.31 41.67 121.50 C 39.71 120.47 38.02 119.05 36.34 117.64 C 35.77 119.13 36.67 122.66 34.02 121.83 C 32.91 121.60 30.80 120.26 31.58 118.99 L 32.01 118.32 C 32.72 119.53 33.86 120.63 35.32 120.75 C 36.00 118.87 34.08 117.47 32.35 117.88 C 32.54 117.73 32.92 117.44 33.11 117.30 C 34.92 117.08 36.75 116.94 38.58 116.80 C 35.71 116.02 32.83 115.26 29.95 114.54 C 30.20 113.04 30.42 111.53 30.75 110.04 C 33.96 114.10 38.79 116.82 44.10 115.85 Z" />
<path fill="#694a26" opacity="1.00" d=" M 59.43 124.68 C 59.39 120.07 61.65 115.98 64.87 112.83 C 68.12 115.33 71.14 118.10 73.96 121.08 C 73.46 121.12 72.45 121.20 71.95 121.25 C 71.33 121.25 70.09 121.27 69.47 121.28 C 71.60 127.24 76.99 133.60 83.99 132.29 L 84.26 132.47 L 84.33 132.51 C 85.86 131.71 87.40 130.92 88.94 130.12 C 89.46 130.42 90.49 131.02 91.01 131.31 C 86.85 133.11 82.74 135.82 78.04 135.57 C 74.92 135.36 72.74 132.85 70.64 130.82 C 70.64 126.72 67.84 123.60 64.84 121.17 C 65.06 122.69 65.29 124.22 65.53 125.75 C 63.50 125.39 61.46 125.03 59.43 124.68 Z" />
<path fill="#694a26" opacity="1.00" d=" M 113.23 125.16 C 114.49 124.20 115.78 123.30 117.07 122.39 C 118.02 124.23 118.92 126.09 119.80 127.96 C 120.45 127.62 121.10 127.29 121.75 126.95 C 122.38 126.60 123.64 125.91 124.27 125.57 C 126.13 125.28 127.84 124.53 129.34 123.40 C 132.49 126.58 131.08 131.33 129.93 135.07 C 129.80 137.14 129.11 139.74 131.30 141.01 C 128.73 143.10 126.16 145.71 122.54 145.46 C 124.18 142.83 126.35 140.57 128.94 138.86 C 128.97 137.57 128.99 136.28 129.01 135.00 C 126.40 138.33 124.02 142.25 119.93 143.92 C 116.97 145.36 113.63 145.48 110.42 145.37 C 110.85 146.55 111.27 147.73 111.70 148.92 C 110.21 149.12 108.72 149.33 107.23 149.53 C 106.71 150.30 106.20 151.08 105.70 151.87 C 105.74 149.46 106.69 146.38 104.46 144.64 C 100.76 141.31 96.48 138.70 92.12 136.32 C 91.52 136.72 90.32 137.50 89.72 137.89 C 89.54 138.52 89.18 139.79 89.00 140.42 C 90.28 140.41 91.55 140.39 92.83 140.38 C 92.10 140.83 91.37 141.27 90.64 141.72 C 90.50 142.42 90.37 143.12 90.23 143.82 C 89.56 143.65 88.90 143.49 88.23 143.32 C 86.60 142.22 84.86 141.27 83.01 140.58 C 81.60 140.00 80.21 139.36 78.83 138.70 C 83.66 135.50 89.80 135.99 94.73 133.22 C 95.02 132.99 95.61 132.53 95.90 132.30 C 95.08 131.23 94.25 130.18 93.40 129.13 C 96.42 130.46 99.38 131.91 102.27 133.50 C 102.72 132.27 103.18 131.04 103.62 129.82 L 103.59 131.96 C 104.70 130.83 105.80 129.69 106.90 128.54 C 107.66 128.70 108.41 128.87 109.17 129.03 C 105.89 132.52 102.80 136.39 101.87 141.22 C 105.16 136.88 110.93 133.53 110.70 127.41 C 110.96 127.16 111.47 126.65 111.73 126.40 C 112.11 126.09 112.86 125.47 113.23 125.16 M 123.41 132.90 C 121.81 133.31 121.63 136.57 123.73 135.83 C 125.58 135.53 125.66 131.88 123.41 132.90 Z" />
<path fill="#694a26" opacity="1.00" d=" M 64.36 132.95 C 65.42 133.70 66.48 134.47 67.58 135.16 C 67.45 137.80 67.36 140.43 67.28 143.07 C 67.87 143.42 69.06 144.11 69.65 144.46 C 68.37 144.49 67.09 144.52 65.81 144.56 C 65.29 140.69 64.86 136.82 64.36 132.95 Z" />
<path fill="#694a26" opacity="1.00" d=" M 59.31 145.13 C 59.53 145.32 59.95 145.69 60.16 145.88 C 61.45 146.03 62.74 146.18 64.03 146.19 C 61.92 149.87 59.94 153.73 59.96 158.09 C 61.76 158.27 63.56 158.44 65.36 158.61 C 63.79 158.95 62.20 159.22 60.62 159.50 C 59.50 160.22 58.38 160.94 57.27 161.66 C 57.57 162.59 57.87 163.52 58.17 164.45 C 58.90 164.05 59.64 163.65 60.38 163.27 C 60.41 165.21 60.45 167.16 60.48 169.11 C 58.92 167.20 57.37 165.28 55.81 163.38 C 56.00 162.45 56.18 161.52 56.37 160.59 C 57.07 160.44 58.47 160.14 59.17 159.99 C 59.14 158.27 59.20 156.50 58.37 154.94 C 56.58 155.73 54.89 156.73 53.29 157.85 C 56.30 154.96 58.94 151.72 61.57 148.49 C 60.82 147.37 60.04 146.26 59.31 145.13 Z" />
<path fill="#694a26" opacity="1.00" d=" M 99.38 159.77 C 99.07 158.28 101.22 156.62 102.62 157.06 C 103.00 158.58 100.79 160.28 99.38 159.77 Z" />
<path fill="#694a26" opacity="1.00" d=" M 105.49 157.10 C 105.57 157.13 105.73 157.19 105.80 157.22 C 106.06 159.06 106.18 160.92 106.29 162.78 C 108.05 164.20 109.92 165.50 111.61 167.01 C 113.23 168.97 114.69 171.05 116.18 173.11 C 113.76 172.78 111.33 172.46 108.89 172.20 C 110.19 173.83 111.28 176.03 113.54 176.46 C 116.37 177.01 119.27 177.18 122.11 177.78 C 119.72 180.16 116.51 181.35 113.15 180.97 C 111.46 180.67 109.78 180.34 108.11 179.99 C 109.10 180.47 110.10 180.93 111.10 181.38 C 110.61 182.78 110.82 184.10 111.74 185.34 L 110.88 185.22 L 110.07 185.07 C 110.03 183.73 109.35 182.47 108.27 181.67 C 108.07 182.13 107.67 183.05 107.47 183.51 C 107.04 183.69 106.16 184.04 105.72 184.22 C 105.29 181.95 106.97 180.42 108.33 178.91 C 104.72 177.55 103.37 173.70 101.15 170.88 C 102.48 169.73 103.79 168.56 105.10 167.40 C 104.25 167.16 103.40 166.92 102.56 166.68 C 102.87 166.09 103.18 165.51 103.50 164.93 C 104.87 162.55 105.88 159.90 105.49 157.10 Z" />
<path fill="#694a26" opacity="1.00" d=" M 51.17 165.01 C 51.05 162.71 51.46 160.43 52.52 158.38 C 52.64 163.40 51.73 169.22 55.59 173.18 C 56.23 171.80 56.88 170.44 57.48 169.05 C 57.58 170.64 57.13 172.47 58.16 173.84 C 59.31 173.78 60.08 172.86 60.93 172.21 L 60.93 172.25 C 60.65 173.11 60.08 174.81 59.80 175.66 C 58.42 175.09 57.05 174.51 55.70 173.87 C 55.71 174.28 55.72 175.10 55.72 175.51 L 55.72 175.79 C 54.17 172.22 50.82 169.16 51.17 165.01 Z" />
<path fill="#694a26" opacity="1.00" d=" M 86.08 162.59 C 87.28 162.08 89.08 163.68 88.60 164.93 C 87.35 165.71 85.31 163.89 86.08 162.59 Z" />
<path fill="#694a26" opacity="1.00" d=" M 88.55 167.23 C 88.79 171.14 88.18 175.40 90.48 178.83 C 90.77 174.94 90.71 171.02 91.49 167.19 C 92.38 168.44 93.26 169.69 94.15 170.95 C 94.68 170.91 95.76 170.83 96.29 170.79 C 98.15 175.49 100.92 180.08 100.33 185.36 C 102.13 185.29 103.94 185.22 105.74 185.15 L 105.76 185.84 C 102.37 185.71 98.99 185.62 95.60 185.53 C 94.57 183.36 93.45 181.23 92.22 179.16 C 91.79 179.72 90.94 180.83 90.51 181.38 C 87.21 177.33 88.34 172.02 88.55 167.23 Z" />
</g>
<g id="#b78951ff">
<path fill="#b78951" opacity="1.00" d=" M 45.65 49.89 C 51.38 50.65 54.65 56.03 58.23 59.96 C 57.00 60.86 55.71 61.68 54.46 62.58 C 52.87 63.82 51.39 65.19 49.90 66.56 C 49.09 66.06 48.28 65.56 47.46 65.06 C 47.17 65.54 46.59 66.50 46.30 66.98 C 47.40 61.27 46.11 55.58 45.65 49.89 Z" />
<path fill="#b78951" opacity="1.00" d=" M 84.62 51.75 C 86.27 50.56 89.16 49.02 90.44 51.49 C 93.17 56.95 92.31 63.32 93.24 69.20 C 94.39 69.78 95.53 70.40 96.64 71.06 C 97.12 73.28 94.69 73.72 93.29 74.68 C 93.27 78.44 93.25 82.20 92.97 85.95 C 94.16 86.39 95.36 86.84 96.56 87.29 C 95.44 89.59 93.72 91.48 91.70 93.03 C 91.70 94.39 91.70 95.75 91.71 97.12 C 94.32 98.81 96.86 100.71 98.61 103.34 C 93.42 103.15 91.55 96.88 86.34 96.96 C 85.99 101.06 85.83 105.18 85.75 109.30 C 85.62 110.73 85.47 112.15 85.30 113.57 C 84.84 115.02 84.27 116.42 83.69 117.83 C 83.24 118.48 82.35 119.79 81.90 120.44 C 79.19 116.29 77.23 111.74 75.38 107.16 C 77.31 111.55 77.70 116.36 78.75 120.99 C 77.75 121.09 76.75 121.19 75.75 121.27 C 74.48 121.30 73.21 121.26 71.95 121.25 C 72.45 121.20 73.46 121.12 73.96 121.08 C 71.14 118.10 68.12 115.33 64.87 112.83 C 61.65 115.98 59.39 120.07 59.43 124.68 C 59.31 125.83 59.15 126.98 58.97 128.13 C 57.77 131.71 56.08 135.12 55.15 138.80 C 54.71 140.08 54.50 141.66 52.98 142.11 C 48.84 143.08 44.64 142.01 40.54 141.35 C 39.46 138.26 39.36 134.97 40.44 131.87 C 40.73 131.11 41.04 130.37 41.37 129.63 C 42.13 129.62 43.66 129.59 44.42 129.57 C 43.68 126.87 43.80 123.59 41.67 121.50 C 41.42 120.31 41.19 119.12 40.96 117.93 C 42.65 117.97 44.35 118.00 46.04 118.03 C 45.29 121.42 44.88 124.88 44.61 128.34 C 47.19 129.59 48.41 132.31 50.39 134.24 C 52.14 130.99 53.46 127.54 54.50 124.01 C 53.43 125.13 52.36 126.25 51.28 127.36 C 51.47 124.84 52.23 122.48 54.85 121.70 C 56.29 121.63 57.73 121.62 59.17 121.58 C 59.23 117.67 58.88 113.74 58.11 109.90 C 57.56 107.52 54.74 108.56 53.03 108.68 C 49.41 110.14 48.84 116.37 44.10 115.85 C 38.79 116.82 33.96 114.10 30.75 110.04 C 32.46 109.30 34.21 108.67 35.91 107.91 L 36.42 107.56 C 35.66 105.26 35.25 102.49 33.13 100.97 C 31.33 99.73 29.16 99.27 27.11 98.60 C 26.24 98.33 25.37 98.03 24.53 97.68 C 24.58 96.73 24.68 95.79 24.84 94.86 C 25.36 94.66 26.38 94.26 26.90 94.07 C 28.71 93.29 31.37 93.13 31.89 90.82 C 33.42 86.76 34.83 82.63 37.11 78.92 C 35.58 79.92 34.04 80.90 32.49 81.88 C 33.19 76.90 34.75 72.04 38.17 68.25 L 38.97 67.75 C 41.05 67.65 42.68 69.00 44.30 70.08 C 44.22 71.37 44.13 72.66 44.03 73.96 C 43.38 76.93 41.73 79.53 39.84 81.87 C 37.53 84.75 36.32 88.29 35.03 91.70 C 36.48 90.95 37.92 90.19 39.35 89.42 C 39.58 87.17 39.27 84.67 40.62 82.70 C 41.67 80.94 43.69 80.18 45.36 79.16 C 43.35 82.25 41.38 85.38 39.97 88.80 C 40.58 89.01 41.80 89.42 42.41 89.63 C 43.27 91.87 43.78 94.53 45.92 95.96 C 49.50 98.57 54.21 97.98 58.38 98.29 C 57.10 97.03 55.94 95.55 54.35 94.65 C 51.47 94.03 48.20 95.01 45.60 93.32 C 45.16 91.05 45.26 88.71 45.22 86.41 C 44.67 86.42 43.56 86.44 43.01 86.45 C 43.56 85.18 44.11 83.91 44.67 82.65 C 45.51 82.52 46.35 82.39 47.18 82.26 C 48.02 80.99 48.88 79.72 49.76 78.48 C 50.46 77.77 51.30 77.18 51.80 76.31 C 50.83 75.41 49.83 74.55 48.83 73.68 C 49.96 73.64 51.08 73.60 52.21 73.56 C 52.44 74.16 52.89 75.35 53.11 75.94 L 53.57 76.65 C 55.01 74.93 56.28 73.07 57.64 71.29 C 61.21 68.75 65.58 67.93 69.88 67.77 C 74.27 61.99 78.81 56.18 84.62 51.75 M 83.14 56.11 C 84.97 56.69 88.02 55.72 88.80 58.11 C 89.51 58.93 90.18 61.92 91.51 60.10 C 91.58 57.21 89.64 54.50 86.97 53.47 C 85.28 53.55 84.34 55.18 83.14 56.11 M 59.34 91.36 C 58.37 94.67 59.80 98.03 60.91 101.12 C 62.43 104.00 64.23 107.66 67.92 107.97 C 71.65 108.77 75.31 105.76 75.71 102.09 C 76.70 97.93 74.35 94.09 73.95 90.03 C 73.61 87.15 72.27 84.56 70.99 82.00 C 71.78 81.16 72.57 80.31 73.35 79.46 C 66.65 80.17 62.03 85.63 59.34 91.36 M 90.22 87.08 C 90.44 90.42 93.15 85.47 90.22 87.08 M 90.28 89.54 C 89.41 90.75 89.67 91.44 91.05 91.61 C 91.92 90.40 91.66 89.71 90.28 89.54 Z" />
<path fill="#b78951" opacity="1.00" d=" M 64.27 85.60 C 64.73 83.31 67.38 83.08 69.06 82.08 C 71.15 83.82 71.83 86.56 71.54 89.18 C 70.70 91.42 69.37 93.46 67.70 95.17 C 65.90 96.72 63.62 97.49 61.34 97.98 C 60.78 96.26 58.78 94.06 60.24 92.37 C 60.94 92.21 62.35 91.89 63.06 91.73 C 63.01 93.09 62.97 94.45 62.90 95.81 C 64.75 94.41 66.51 92.68 66.92 90.29 C 65.94 88.85 63.16 87.70 64.27 85.60 Z" />
<path fill="#b78951" opacity="1.00" d=" M 99.32 97.12 C 100.70 96.98 101.96 97.70 103.21 98.20 C 103.01 100.47 98.52 99.10 99.32 97.12 Z" />
<path fill="#b78951" opacity="1.00" d=" M 23.62 105.99 C 26.81 105.28 29.76 103.81 32.61 102.24 C 32.47 103.74 32.34 105.24 32.22 106.74 C 29.38 106.25 26.49 106.22 23.62 105.99 Z" />
<path fill="#b78951" opacity="1.00" d=" M 90.99 113.13 C 94.18 112.13 97.31 113.42 100.18 114.74 C 100.24 115.72 100.31 116.69 100.37 117.67 C 98.33 117.03 96.29 116.34 94.28 115.59 C 93.77 115.40 92.73 115.01 92.22 114.82 C 91.91 114.40 91.29 113.56 90.99 113.13 Z" />
<path fill="#b78951" opacity="1.00" d=" M 104.39 112.80 C 106.21 114.79 109.70 116.71 108.65 119.87 C 107.25 118.10 105.87 116.30 104.63 114.40 C 104.57 114.00 104.45 113.20 104.39 112.80 Z" />
<path fill="#b78951" opacity="1.00" d=" M 32.35 117.88 C 34.08 117.47 36.00 118.87 35.32 120.75 C 33.86 120.63 32.72 119.53 32.01 118.32 L 32.35 117.88 Z" />
<path fill="#b78951" opacity="1.00" d=" M 103.62 129.82 C 104.32 127.61 105.39 125.56 106.64 123.62 C 108.34 124.54 110.04 125.46 111.73 126.40 C 111.47 126.65 110.96 127.16 110.70 127.41 C 110.32 127.82 109.56 128.63 109.17 129.03 C 108.41 128.87 107.66 128.70 106.90 128.54 C 105.80 129.69 104.70 130.83 103.59 131.96 L 103.62 129.82 Z" />
<path fill="#b78951" opacity="1.00" d=" M 84.26 132.47 C 84.42 130.19 84.69 127.92 85.02 125.67 C 86.20 127.26 87.47 128.79 88.94 130.12 C 87.40 130.92 85.86 131.71 84.33 132.51 L 84.26 132.47 Z" />
<path fill="#b78951" opacity="1.00" d=" M 123.41 132.90 C 125.66 131.88 125.58 135.53 123.73 135.83 C 121.63 136.57 121.81 133.31 123.41 132.90 Z" />
<path fill="#b78951" opacity="1.00" d=" M 67.58 135.16 C 69.82 136.35 72.43 136.88 74.43 138.46 C 76.94 140.87 73.97 144.35 74.05 147.22 C 77.66 145.89 79.85 142.59 83.01 140.58 C 84.86 141.27 86.60 142.22 88.23 143.32 C 88.90 143.49 89.56 143.65 90.23 143.82 C 90.37 143.12 90.50 142.42 90.64 141.72 C 91.37 141.27 92.10 140.83 92.83 140.38 C 91.55 140.39 90.28 140.41 89.00 140.42 C 89.18 139.79 89.54 138.52 89.72 137.89 C 90.32 137.50 91.52 136.72 92.12 136.32 C 96.48 138.70 100.76 141.31 104.46 144.64 C 106.69 146.38 105.74 149.46 105.70 151.87 C 105.06 152.94 104.43 154.02 103.78 155.09 L 103.11 156.12 C 103.71 156.36 104.90 156.85 105.49 157.10 C 105.88 159.90 104.87 162.55 103.50 164.93 C 97.86 164.27 92.22 163.02 87.03 160.70 C 88.83 157.47 90.71 154.27 92.11 150.83 C 87.30 154.28 85.26 161.68 78.42 161.79 C 78.45 162.44 78.52 163.75 78.55 164.40 C 76.20 164.55 73.87 164.87 71.58 165.42 C 73.16 166.02 74.74 166.59 76.33 167.17 C 75.20 168.78 73.57 169.73 71.63 170.02 C 71.55 169.23 71.37 167.67 71.28 166.89 C 69.18 166.04 67.09 165.19 65.00 164.31 C 66.10 160.11 67.27 155.45 70.85 152.63 C 73.56 152.07 76.29 152.76 78.98 153.05 C 78.65 155.06 78.33 157.07 78.07 159.10 C 79.49 156.83 80.59 154.36 82.14 152.17 C 83.84 150.15 86.04 148.63 87.98 146.85 C 84.72 147.95 82.02 150.15 78.93 151.58 C 76.18 151.30 73.48 150.62 70.72 150.45 C 70.31 151.08 69.49 152.34 69.08 152.96 C 68.24 152.51 67.41 152.05 66.58 151.59 C 66.26 153.94 65.91 156.30 65.36 158.61 C 63.56 158.44 61.76 158.27 59.96 158.09 C 59.94 153.73 61.92 149.87 64.03 146.19 C 64.48 145.79 65.37 144.97 65.81 144.56 C 67.09 144.52 68.37 144.49 69.65 144.46 C 69.06 144.11 67.87 143.42 67.28 143.07 C 67.36 140.43 67.45 137.80 67.58 135.16 M 99.38 159.77 C 100.79 160.28 103.00 158.58 102.62 157.06 C 101.22 156.62 99.07 158.28 99.38 159.77 Z" />
<path fill="#b78951" opacity="1.00" d=" M 53.29 157.85 C 54.89 156.73 56.58 155.73 58.37 154.94 C 59.20 156.50 59.14 158.27 59.17 159.99 C 58.47 160.14 57.07 160.44 56.37 160.59 C 56.18 161.52 56.00 162.45 55.81 163.38 C 57.37 165.28 58.92 167.20 60.48 169.11 C 60.45 167.16 60.41 165.21 60.38 163.27 C 61.04 163.16 62.36 162.94 63.02 162.83 C 65.16 165.46 66.55 168.58 68.15 171.54 C 65.72 170.75 63.28 169.96 60.86 169.13 C 60.88 169.90 60.92 171.44 60.93 172.21 C 60.08 172.86 59.31 173.78 58.16 173.84 C 57.13 172.47 57.58 170.64 57.48 169.05 C 56.88 170.44 56.23 171.80 55.59 173.18 C 51.73 169.22 52.64 163.40 52.52 158.38 L 53.29 157.85 Z" />
<path fill="#b78951" opacity="1.00" d=" M 96.29 170.79 C 97.91 170.70 99.54 170.70 101.15 170.88 C 103.37 173.70 104.72 177.55 108.33 178.91 C 106.97 180.42 105.29 181.95 105.72 184.22 L 105.74 185.15 C 103.94 185.22 102.13 185.29 100.33 185.36 C 100.92 180.08 98.15 175.49 96.29 170.79 Z" />
<path fill="#b78951" opacity="1.00" d=" M 69.67 173.96 C 71.85 173.24 73.99 172.40 76.02 171.33 C 75.98 175.85 73.28 179.90 73.05 184.45 C 79.59 185.92 86.37 185.09 93.02 185.44 L 92.27 184.26 C 92.53 184.66 93.05 185.45 93.31 185.84 C 86.77 185.87 80.18 185.02 73.68 186.22 C 73.39 185.86 72.82 185.13 72.53 184.76 C 66.52 186.30 60.28 185.15 54.21 184.66 C 54.32 183.64 54.43 182.63 54.53 181.63 C 57.36 180.11 60.58 179.51 63.27 177.71 C 65.71 177.05 67.80 175.61 69.67 173.96 Z" />
<path fill="#b78951" opacity="1.00" d=" M 55.70 173.87 C 57.05 174.51 58.42 175.09 59.80 175.66 C 59.65 176.25 59.37 177.42 59.23 178.00 L 59.02 177.62 C 58.55 177.42 57.61 177.04 57.14 176.84 L 56.05 176.59 L 55.72 175.51 C 55.72 175.10 55.71 174.28 55.70 173.87 Z" />
<path fill="#b78951" opacity="1.00" d=" M 111.10 181.38 C 110.10 180.93 109.10 180.47 108.11 179.99 C 109.78 180.34 111.46 180.67 113.15 180.97 C 113.39 182.36 113.65 183.74 113.90 185.13 C 113.36 185.19 112.28 185.29 111.74 185.34 C 110.82 184.10 110.61 182.78 111.10 181.38 Z" />
<path fill="#b78951" opacity="1.00" d=" M 108.27 181.67 C 109.35 182.47 110.03 183.73 110.07 185.07 C 109.42 184.68 108.12 183.90 107.47 183.51 C 107.67 183.05 108.07 182.13 108.27 181.67 Z" />
</g>
<g id="#3e2e21ff">
<path fill="#3e2e21" opacity="1.00" d=" M 51.67 72.28 C 55.16 68.94 57.59 64.59 61.57 61.74 C 59.78 64.71 58.15 67.82 57.64 71.29 C 56.28 73.07 55.01 74.93 53.57 76.65 L 53.11 75.94 C 52.89 75.35 52.44 74.16 52.21 73.56 C 51.08 73.60 49.96 73.64 48.83 73.68 C 49.83 74.55 50.83 75.41 51.80 76.31 C 51.30 77.18 50.46 77.77 49.76 78.48 C 48.86 77.55 47.96 76.63 47.06 75.70 C 46.00 76.10 44.95 76.50 43.89 76.89 C 43.93 76.16 43.99 74.69 44.03 73.96 C 44.13 72.66 44.22 71.37 44.30 70.08 C 42.68 69.00 41.05 67.65 38.97 67.75 C 40.98 66.59 43.18 68.23 44.94 69.14 C 45.28 68.60 45.96 67.52 46.30 66.98 C 46.59 66.50 47.17 65.54 47.46 65.06 C 48.28 65.56 49.09 66.06 49.90 66.56 C 51.39 65.19 52.87 63.82 54.46 62.58 C 52.90 65.58 49.98 68.70 51.67 72.28 Z" />
<path fill="#3e2e21" opacity="1.00" d=" M 59.34 91.36 C 62.03 85.63 66.65 80.17 73.35 79.46 C 72.57 80.31 71.78 81.16 70.99 82.00 C 72.27 84.56 73.61 87.15 73.95 90.03 C 74.35 94.09 76.70 97.93 75.71 102.09 C 75.31 105.76 71.65 108.77 67.92 107.97 C 64.23 107.66 62.43 104.00 60.91 101.12 C 59.80 98.03 58.37 94.67 59.34 91.36 M 64.27 85.60 C 63.16 87.70 65.94 88.85 66.92 90.29 C 66.51 92.68 64.75 94.41 62.90 95.81 C 62.97 94.45 63.01 93.09 63.06 91.73 C 62.35 91.89 60.94 92.21 60.24 92.37 C 58.78 94.06 60.78 96.26 61.34 97.98 C 63.62 97.49 65.90 96.72 67.70 95.17 C 68.06 95.44 68.78 95.97 69.14 96.23 C 71.66 95.02 73.06 92.37 73.37 89.67 C 72.50 90.50 71.65 91.33 70.79 92.17 C 70.98 91.42 71.35 89.92 71.54 89.18 C 71.83 86.56 71.15 83.82 69.06 82.08 C 67.38 83.08 64.73 83.31 64.27 85.60 M 69.77 101.34 C 71.83 100.46 76.25 97.35 73.11 95.30 C 70.96 96.54 69.29 98.73 69.77 101.34 Z" />
<path fill="#3e2e21" opacity="1.00" d=" M 20.00 101.24 C 22.18 99.54 22.50 96.45 24.84 94.86 C 24.68 95.79 24.58 96.73 24.53 97.68 C 25.37 98.03 26.24 98.33 27.11 98.60 C 24.51 100.63 22.09 102.89 19.97 105.42 C 21.18 105.66 22.39 105.85 23.62 105.99 C 26.49 106.22 29.38 106.25 32.22 106.74 C 33.62 107.00 35.02 107.27 36.42 107.56 L 35.91 107.91 C 34.21 108.67 32.46 109.30 30.75 110.04 C 30.42 111.53 30.20 113.04 29.95 114.54 C 32.83 115.26 35.71 116.02 38.58 116.80 C 36.75 116.94 34.92 117.08 33.11 117.30 C 32.92 117.44 32.54 117.73 32.35 117.88 L 32.01 118.32 L 31.58 118.99 C 28.71 117.31 24.04 117.92 22.80 114.20 C 25.23 114.33 27.59 113.74 29.64 112.44 C 25.66 108.73 20.76 106.22 15.48 104.94 C 16.98 103.71 18.54 102.53 20.00 101.24 Z" />
<path fill="#3e2e21" opacity="1.00" d=" M 94.45 94.46 C 97.53 94.81 100.53 95.58 103.55 96.25 C 107.07 96.77 110.65 96.63 114.17 97.19 C 111.35 100.00 106.70 98.80 103.21 98.20 C 101.96 97.70 100.70 96.98 99.32 97.12 C 98.45 97.15 96.73 97.22 95.86 97.25 C 95.51 96.55 94.80 95.16 94.45 94.46 Z" />
<path fill="#3e2e21" opacity="1.00" d=" M 87.17 105.13 C 92.79 107.48 98.57 109.69 104.72 110.06 C 104.64 108.61 104.55 107.17 104.47 105.73 C 108.18 106.89 111.83 108.23 115.49 109.54 C 119.57 111.01 123.94 111.28 128.09 112.50 C 126.50 112.94 124.92 113.38 123.33 113.83 L 122.91 115.29 C 122.80 115.85 122.56 116.97 122.44 117.53 C 122.14 119.18 122.01 120.85 122.14 122.53 C 120.10 121.80 118.05 121.09 116.01 120.37 C 116.36 121.04 116.72 121.71 117.07 122.39 C 115.78 123.30 114.49 124.20 113.23 125.16 C 111.64 123.45 110.08 121.72 108.65 119.87 C 109.70 116.71 106.21 114.79 104.39 112.80 C 104.45 113.20 104.57 114.00 104.63 114.40 C 104.96 117.22 105.48 120.06 105.25 122.90 C 104.74 124.62 103.08 125.60 101.89 126.81 C 101.74 127.65 101.59 128.50 101.45 129.35 C 98.90 125.33 96.58 121.13 93.35 117.60 C 93.58 117.09 94.05 116.09 94.28 115.59 C 96.29 116.34 98.33 117.03 100.37 117.67 C 100.31 116.69 100.24 115.72 100.18 114.74 C 97.31 113.42 94.18 112.13 90.99 113.13 C 89.11 113.49 87.20 113.60 85.30 113.57 C 85.47 112.15 85.62 110.73 85.75 109.30 C 86.19 107.90 86.68 106.52 87.17 105.13 M 101.36 112.39 C 100.68 113.41 101.30 115.03 102.37 115.54 C 104.07 115.26 102.96 111.61 101.36 112.39 Z" />
<path fill="#3e2e21" opacity="1.00" d=" M 78.75 120.99 C 77.70 116.36 77.31 111.55 75.38 107.16 C 77.23 111.74 79.19 116.29 81.90 120.44 C 82.35 119.79 83.24 118.48 83.69 117.83 C 83.79 120.49 84.18 123.14 85.02 125.67 C 84.69 127.92 84.42 130.19 84.26 132.47 L 83.99 132.29 C 81.64 130.58 79.00 129.12 77.17 126.80 C 76.40 125.05 76.17 123.12 75.75 121.27 C 76.75 121.19 77.75 121.09 78.75 120.99 Z" />
<path fill="#3e2e21" opacity="1.00" d=" M 46.04 118.03 C 46.22 117.82 46.57 117.41 46.75 117.20 C 46.94 117.84 47.31 119.13 47.50 119.77 C 49.99 120.01 52.49 120.21 54.99 120.39 C 54.96 120.72 54.89 121.37 54.85 121.70 C 52.23 122.48 51.47 124.84 51.28 127.36 C 52.36 126.25 53.43 125.13 54.50 124.01 C 53.46 127.54 52.14 130.99 50.39 134.24 C 48.41 132.31 47.19 129.59 44.61 128.34 C 44.88 124.88 45.29 121.42 46.04 118.03 Z" />
<path fill="#3e2e21" opacity="1.00" d=" M 64.84 121.17 C 67.84 123.60 70.64 126.72 70.64 130.82 C 72.74 132.85 74.92 135.36 78.04 135.57 C 82.74 135.82 86.85 133.11 91.01 131.31 C 92.23 131.98 93.47 132.61 94.73 133.22 C 89.80 135.99 83.66 135.50 78.83 138.70 C 80.21 139.36 81.60 140.00 83.01 140.58 C 79.85 142.59 77.66 145.89 74.05 147.22 C 73.97 144.35 76.94 140.87 74.43 138.46 C 72.43 136.88 69.82 136.35 67.58 135.16 C 66.48 134.47 65.42 133.70 64.36 132.95 C 64.86 136.82 65.29 140.69 65.81 144.56 C 65.37 144.97 64.48 145.79 64.03 146.19 C 62.74 146.18 61.45 146.03 60.16 145.88 C 59.95 145.69 59.53 145.32 59.31 145.13 C 58.52 144.18 57.86 143.14 57.17 142.12 C 58.38 137.92 58.52 133.38 61.10 129.66 C 60.57 129.28 59.50 128.51 58.97 128.13 C 59.15 126.98 59.31 125.83 59.43 124.68 C 61.46 125.03 63.50 125.39 65.53 125.75 C 65.29 124.22 65.06 122.69 64.84 121.17 Z" />
<path fill="#3e2e21" opacity="1.00" d=" M 109.17 129.03 C 109.56 128.63 110.32 127.82 110.70 127.41 C 110.93 133.53 105.16 136.88 101.87 141.22 C 102.80 136.39 105.89 132.52 109.17 129.03 Z" />
<path fill="#3e2e21" opacity="1.00" d=" M 37.58 139.04 C 37.60 136.41 37.76 133.20 40.44 131.87 C 39.36 134.97 39.46 138.26 40.54 141.35 C 44.64 142.01 48.84 143.08 52.98 142.11 C 54.50 141.66 54.71 140.08 55.15 138.80 C 54.87 139.97 54.55 141.14 54.20 142.29 C 52.99 143.43 51.21 143.12 49.70 143.11 C 46.22 142.85 42.70 143.30 39.23 142.73 C 37.28 142.65 37.75 140.36 37.58 139.04 Z" />
<path fill="#3e2e21" opacity="1.00" d=" M 119.93 143.92 C 124.02 142.25 126.40 138.33 129.01 135.00 C 128.99 136.28 128.97 137.57 128.94 138.86 C 126.35 140.57 124.18 142.83 122.54 145.46 C 126.16 145.71 128.73 143.10 131.30 141.01 C 131.01 145.95 127.67 149.69 124.31 152.96 C 124.08 152.61 123.63 151.91 123.40 151.56 C 120.16 152.54 116.96 153.60 113.78 154.74 C 110.58 156.03 107.10 155.13 103.78 155.09 C 104.43 154.02 105.06 152.94 105.70 151.87 C 106.20 151.08 106.71 150.30 107.23 149.53 C 108.72 149.33 110.21 149.12 111.70 148.92 C 111.27 147.73 110.85 146.55 110.42 145.37 C 113.63 145.48 116.97 145.36 119.93 143.92 Z" />
<path fill="#3e2e21" opacity="1.00" d=" M 78.93 151.58 C 82.02 150.15 84.72 147.95 87.98 146.85 C 86.04 148.63 83.84 150.15 82.14 152.17 C 80.59 154.36 79.49 156.83 78.07 159.10 C 78.33 157.07 78.65 155.06 78.98 153.05 C 76.29 152.76 73.56 152.07 70.85 152.63 C 67.27 155.45 66.10 160.11 65.00 164.31 C 67.09 165.19 69.18 166.04 71.28 166.89 C 71.37 167.67 71.55 169.23 71.63 170.02 C 73.57 169.73 75.20 168.78 76.33 167.17 C 74.74 166.59 73.16 166.02 71.58 165.42 C 73.87 164.87 76.20 164.55 78.55 164.40 C 78.52 163.75 78.45 162.44 78.42 161.79 C 85.26 161.68 87.30 154.28 92.11 150.83 C 90.71 154.27 88.83 157.47 87.03 160.70 C 92.22 163.02 97.86 164.27 103.50 164.93 C 103.18 165.51 102.87 166.09 102.56 166.68 C 103.40 166.92 104.25 167.16 105.10 167.40 C 103.79 168.56 102.48 169.73 101.15 170.88 C 99.54 170.70 97.91 170.70 96.29 170.79 C 95.76 170.83 94.68 170.91 94.15 170.95 C 93.26 169.69 92.38 168.44 91.49 167.19 C 90.71 171.02 90.77 174.94 90.48 178.83 C 88.18 175.40 88.79 171.14 88.55 167.23 C 87.38 166.78 86.21 166.32 85.04 165.87 C 83.97 166.82 82.90 167.76 81.83 168.71 C 80.78 167.43 79.74 166.13 78.70 164.84 C 77.67 166.40 76.64 167.98 75.92 169.72 L 76.02 171.33 C 73.99 172.40 71.85 173.24 69.67 173.96 C 67.80 175.61 65.71 177.05 63.27 177.71 L 62.98 177.82 C 65.87 177.03 68.06 175.31 68.63 172.21 C 66.06 172.21 63.50 172.25 60.93 172.25 L 60.93 172.21 C 60.92 171.44 60.88 169.90 60.86 169.13 C 63.28 169.96 65.72 170.75 68.15 171.54 C 66.55 168.58 65.16 165.46 63.02 162.83 C 62.36 162.94 61.04 163.16 60.38 163.27 C 59.64 163.65 58.90 164.05 58.17 164.45 C 57.87 163.52 57.57 162.59 57.27 161.66 C 58.38 160.94 59.50 160.22 60.62 159.50 C 62.20 159.22 63.79 158.95 65.36 158.61 C 65.91 156.30 66.26 153.94 66.58 151.59 C 67.41 152.05 68.24 152.51 69.08 152.96 C 69.49 152.34 70.31 151.08 70.72 150.45 C 73.48 150.62 76.18 151.30 78.93 151.58 M 86.08 162.59 C 85.31 163.89 87.35 165.71 88.60 164.93 C 89.08 163.68 87.28 162.08 86.08 162.59 Z" />
<path fill="#3e2e21" opacity="1.00" d=" M 111.61 167.01 C 115.62 169.53 119.43 172.38 123.71 174.44 L 123.81 175.33 C 123.72 176.66 125.18 177.92 126.48 177.41 L 128.35 177.04 C 128.21 179.99 126.01 182.18 125.20 184.82 C 127.23 185.76 129.55 185.44 131.70 185.80 L 130.93 185.85 C 128.26 185.76 124.98 187.06 123.10 184.48 C 119.34 184.96 115.55 185.82 111.74 185.34 C 112.28 185.29 113.36 185.19 113.90 185.13 C 113.65 183.74 113.39 182.36 113.15 180.97 C 116.51 181.35 119.72 180.16 122.11 177.78 C 119.27 177.18 116.37 177.01 113.54 176.46 C 111.28 176.03 110.19 173.83 108.89 172.20 C 111.33 172.46 113.76 172.78 116.18 173.11 C 114.69 171.05 113.23 168.97 111.61 167.01 Z" />
</g>
<g id="#1c1918ff">
<path fill="#1c1918" opacity="1.00" d=" M 128.02 88.43 L 128.06 88.13 C 128.33 89.40 128.59 90.67 128.85 91.95 C 126.41 93.17 123.78 93.92 121.07 94.23 L 121.66 95.17 L 119.64 94.13 L 120.91 94.11 C 117.34 92.76 113.59 92.02 109.79 91.69 C 109.98 91.07 110.34 89.84 110.53 89.23 C 116.28 87.59 122.06 89.67 127.71 90.71 C 127.79 90.14 127.94 89.00 128.02 88.43 Z" />
<path fill="#1c1918" opacity="1.00" d=" M 14.71 104.72 L 15.48 104.94 C 20.76 106.22 25.66 108.73 29.64 112.44 C 27.59 113.74 25.23 114.33 22.80 114.20 C 19.74 111.46 15.98 108.80 14.71 104.72 Z" />
<path fill="#1c1918" opacity="1.00" d=" M 52.56 111.53 C 55.28 113.67 54.92 117.30 54.99 120.39 C 52.49 120.21 49.99 120.01 47.50 119.77 C 47.31 119.13 46.94 117.84 46.75 117.20 C 48.62 115.25 50.61 113.41 52.56 111.53 Z" />
<path fill="#1c1918" opacity="1.00" d=" M 85.30 113.57 C 87.20 113.60 89.11 113.49 90.99 113.13 C 91.29 113.56 91.91 114.40 92.22 114.82 C 92.73 115.01 93.77 115.40 94.28 115.59 C 94.05 116.09 93.58 117.09 93.35 117.60 C 96.58 121.13 98.90 125.33 101.45 129.35 C 101.59 128.50 101.74 127.65 101.89 126.81 C 103.08 125.60 104.74 124.62 105.25 122.90 C 105.48 120.06 104.96 117.22 104.63 114.40 C 105.87 116.30 107.25 118.10 108.65 119.87 C 110.08 121.72 111.64 123.45 113.23 125.16 C 112.86 125.47 112.11 126.09 111.73 126.40 C 110.04 125.46 108.34 124.54 106.64 123.62 C 105.39 125.56 104.32 127.61 103.62 129.82 C 103.18 131.04 102.72 132.27 102.27 133.50 C 99.38 131.91 96.42 130.46 93.40 129.13 C 94.25 130.18 95.08 131.23 95.90 132.30 C 95.61 132.53 95.02 132.99 94.73 133.22 C 93.47 132.61 92.23 131.98 91.01 131.31 C 90.49 131.02 89.46 130.42 88.94 130.12 C 87.47 128.79 86.20 127.26 85.02 125.67 C 84.18 123.14 83.79 120.49 83.69 117.83 C 84.27 116.42 84.84 115.02 85.30 113.57 Z" />
<path fill="#1c1918" opacity="1.00" d=" M 116.01 120.37 C 118.05 121.09 120.10 121.80 122.14 122.53 C 122.03 124.00 121.89 125.47 121.75 126.95 C 121.10 127.29 120.45 127.62 119.80 127.96 C 118.92 126.09 118.02 124.23 117.07 122.39 C 116.72 121.71 116.36 121.04 116.01 120.37 Z" />
<path fill="#1c1918" opacity="1.00" d=" M 69.47 121.28 C 70.09 121.27 71.33 121.25 71.95 121.25 C 73.21 121.26 74.48 121.30 75.75 121.27 C 76.17 123.12 76.40 125.05 77.17 126.80 C 79.00 129.12 81.64 130.58 83.99 132.29 C 76.99 133.60 71.60 127.24 69.47 121.28 Z" />
<path fill="#1c1918" opacity="1.00" d=" M 123.40 151.56 C 123.63 151.91 124.08 152.61 124.31 152.96 C 119.65 157.99 112.18 159.01 105.80 157.22 C 105.73 157.19 105.57 157.13 105.49 157.10 C 104.90 156.85 103.71 156.36 103.11 156.12 L 103.78 155.09 C 107.10 155.13 110.58 156.03 113.78 154.74 C 116.96 153.60 120.16 152.54 123.40 151.56 Z" />
<path fill="#1c1918" opacity="1.00" d=" M 90.51 181.38 C 90.94 180.83 91.79 179.72 92.22 179.16 C 93.45 181.23 94.57 183.36 95.60 185.53 C 98.99 185.62 102.37 185.71 105.76 185.84 L 105.81 186.91 C 98.76 187.07 91.69 186.70 84.67 187.50 C 85.76 189.44 86.94 191.33 88.17 193.19 C 75.68 193.68 63.17 193.56 50.67 193.45 C 50.82 191.04 50.66 188.48 51.85 186.29 C 52.44 185.88 53.62 185.07 54.21 184.66 C 60.28 185.15 66.52 186.30 72.53 184.76 C 72.82 185.13 73.39 185.86 73.68 186.22 C 80.18 185.02 86.77 185.87 93.31 185.84 C 93.05 185.45 92.53 184.66 92.27 184.26 C 91.66 183.32 91.07 182.36 90.51 181.38 Z" />
<path fill="#1c1918" opacity="1.00" d=" M 111.74 185.34 C 115.55 185.82 119.34 184.96 123.10 184.48 C 124.98 187.06 128.26 185.76 130.93 185.85 C 134.94 186.28 133.74 190.76 134.11 193.58 C 125.08 193.08 115.98 194.16 107.01 192.87 C 108.54 190.85 111.22 188.81 109.55 186.02 C 109.88 185.82 110.55 185.42 110.88 185.22 L 111.74 185.34 Z" />
</g>
<g id="#434349fc">
<path fill="#434349" opacity="1.00" d=" M 27.11 98.60 C 29.16 99.27 31.33 99.73 33.13 100.97 C 35.25 102.49 35.66 105.26 36.42 107.56 C 35.02 107.27 33.62 107.00 32.22 106.74 C 32.34 105.24 32.47 103.74 32.61 102.24 C 29.76 103.81 26.81 105.28 23.62 105.99 C 22.39 105.85 21.18 105.66 19.97 105.42 C 22.09 102.89 24.51 100.63 27.11 98.60 Z" />
<path fill="#434349" opacity="1.00" d=" M 101.36 112.39 C 102.96 111.61 104.07 115.26 102.37 115.54 C 101.30 115.03 100.68 113.41 101.36 112.39 Z" />
<path fill="#434349" opacity="1.00" d=" M 122.91 115.29 C 124.87 115.00 124.14 118.73 122.44 117.53 C 122.56 116.97 122.80 115.85 122.91 115.29 Z" />
<path fill="#434349" opacity="1.00" d=" M 123.81 175.33 C 124.92 174.81 126.77 176.20 126.48 177.41 C 125.18 177.92 123.72 176.66 123.81 175.33 Z" />
<path fill="#434349" opacity="1.00" d=" M 57.14 176.84 C 57.61 177.04 58.55 177.42 59.02 177.62 C 58.59 177.64 57.74 177.69 57.31 177.71 L 57.14 176.84 Z" />
<path fill="#434349" opacity="1.00" d=" M 105.72 184.22 C 106.16 184.04 107.04 183.69 107.47 183.51 C 108.12 183.90 109.42 184.68 110.07 185.07 L 110.88 185.22 C 110.55 185.42 109.88 185.82 109.55 186.02 C 111.22 188.81 108.54 190.85 107.01 192.87 C 115.98 194.16 125.08 193.08 134.11 193.58 C 131.75 193.83 129.38 193.89 127.01 193.86 C 101.43 193.76 75.84 193.90 50.26 193.81 C 50.62 191.34 49.29 187.88 51.85 186.29 C 50.66 188.48 50.82 191.04 50.67 193.45 C 63.17 193.56 75.68 193.68 88.17 193.19 C 86.94 191.33 85.76 189.44 84.67 187.50 C 91.69 186.70 98.76 187.07 105.81 186.91 L 105.76 185.84 L 105.74 185.15 L 105.72 184.22 Z" />
</g>
</svg>
