<?xml version="1.0" encoding="UTF-8" ?>
<!DOCTYPE svg PUBLIC "-//W3C//DTD SVG 1.1//EN" "http://www.w3.org/Graphics/SVG/1.1/DTD/svg11.dtd">
<svg width="155pt" height="210pt" viewBox="0 0 155 210" version="1.1" xmlns="http://www.w3.org/2000/svg">
<g id="#8b5e33ff">
<path fill="#8b5e33" opacity="1.00" d=" M 67.16 35.89 C 68.72 35.82 70.28 35.70 71.84 35.79 C 74.45 39.21 75.43 43.54 77.33 47.36 C 79.02 45.58 80.66 43.76 82.28 41.92 C 83.23 42.29 84.17 42.65 85.12 43.02 C 83.13 48.49 81.11 54.12 81.50 60.04 C 85.39 61.51 89.41 62.62 93.49 63.42 C 95.46 67.27 98.09 70.95 101.94 73.10 C 105.87 75.66 110.76 73.78 115.06 74.86 C 115.94 75.94 116.64 77.17 117.37 78.36 C 116.09 80.51 114.35 82.53 113.85 85.04 C 114.61 88.02 116.88 90.63 116.58 93.84 C 116.36 97.52 115.64 101.15 115.20 104.80 C 112.57 106.37 109.98 108.09 107.04 109.01 C 101.26 108.71 95.57 107.06 90.52 104.26 C 87.35 102.48 84.94 99.69 81.88 97.78 C 78.95 97.53 77.82 100.57 78.01 102.99 C 77.98 103.68 77.91 105.04 77.88 105.72 C 77.50 107.95 76.87 110.12 76.19 112.27 C 71.31 114.89 69.62 120.23 68.87 125.35 C 71.98 124.95 75.15 124.69 78.15 123.71 C 83.89 121.59 89.30 118.63 95.21 116.95 C 102.14 116.48 109.01 118.15 115.93 117.80 C 116.91 117.04 117.86 116.24 118.77 115.40 C 118.31 117.06 117.33 118.72 117.56 120.48 C 118.66 122.45 120.43 123.91 122.00 125.49 C 122.09 123.95 122.15 122.41 122.18 120.88 C 122.52 123.52 122.91 126.16 123.08 128.83 C 123.07 130.17 123.05 131.52 123.01 132.87 C 118.35 128.83 113.06 125.11 106.79 124.32 C 99.15 122.93 91.44 125.22 84.75 128.83 C 78.34 132.35 71.07 134.16 63.76 134.13 C 62.67 134.00 61.57 133.85 60.48 133.69 C 59.91 129.11 58.73 124.20 60.91 119.85 C 62.61 116.23 63.81 112.38 64.12 108.37 C 61.60 107.39 59.08 106.40 56.69 105.13 C 58.45 102.67 60.23 100.23 62.04 97.81 C 65.58 99.09 69.24 100.02 72.99 100.39 C 69.99 98.64 66.67 97.31 64.09 94.92 C 62.23 92.74 62.70 89.59 62.74 86.94 C 63.31 85.10 64.03 83.31 64.74 81.52 C 66.00 85.49 66.10 89.72 67.36 93.68 C 68.28 96.03 70.98 96.54 73.17 96.99 C 76.33 95.74 82.23 95.54 81.94 90.94 C 82.40 86.82 79.48 83.60 77.09 80.64 C 77.61 80.57 78.65 80.44 79.17 80.37 C 76.33 78.43 72.99 75.66 69.35 77.40 C 64.36 79.37 59.20 80.99 54.35 83.32 C 47.38 86.70 43.89 94.02 40.29 100.44 C 38.07 102.52 35.77 104.51 33.37 106.37 C 33.60 103.70 34.31 101.07 35.94 98.90 C 38.56 95.20 40.59 91.15 42.29 86.96 C 43.12 85.65 44.26 84.57 45.39 83.51 C 47.97 81.27 50.90 79.25 54.33 78.63 C 58.21 77.83 62.37 77.42 65.55 74.80 C 68.75 72.50 71.68 69.82 74.28 66.86 C 73.90 66.68 73.12 66.30 72.74 66.12 C 70.69 65.11 68.66 64.06 66.54 63.21 L 65.87 62.93 C 67.28 62.52 68.69 62.12 70.10 61.73 C 67.64 54.59 63.86 47.93 61.96 40.60 C 64.28 40.91 66.23 42.17 67.96 43.66 C 67.62 41.08 67.36 38.48 67.16 35.89 Z" />
<path fill="#8b5e33" opacity="1.00" d=" M 48.73 100.75 C 49.56 101.29 50.38 101.84 51.19 102.41 C 49.17 103.32 47.05 104.11 45.29 105.50 C 44.70 107.24 45.47 109.07 45.72 110.81 C 44.31 110.12 42.94 109.35 41.57 108.59 C 39.48 110.68 37.40 112.77 35.34 114.88 C 38.91 116.43 42.68 117.81 46.64 117.71 C 47.62 118.48 48.61 119.25 49.61 120.00 C 49.04 121.17 48.47 122.35 47.90 123.52 C 44.43 122.64 40.97 121.70 37.53 120.69 C 37.51 121.06 37.49 121.80 37.47 122.17 C 40.76 123.30 44.08 124.42 47.18 126.02 C 46.67 127.62 46.16 129.22 45.64 130.83 C 42.41 129.66 39.17 128.50 35.94 127.30 C 39.15 129.65 42.26 132.13 45.29 134.69 C 38.91 135.83 32.34 135.94 26.03 134.29 C 26.81 136.42 27.58 138.55 28.28 140.71 C 26.35 142.71 25.33 145.32 24.66 147.97 C 22.95 146.42 21.15 144.99 19.33 143.57 C 18.87 145.17 18.43 146.78 17.88 148.36 C 17.47 148.89 16.64 149.94 16.23 150.47 C 15.55 147.66 15.25 144.77 15.05 141.89 C 13.55 141.91 12.05 141.94 10.55 141.96 C 13.35 137.22 16.29 132.56 18.61 127.57 C 20.46 123.88 23.95 121.54 27.10 119.08 C 31.65 115.74 35.05 111.18 39.05 107.26 C 42.15 104.90 45.51 102.92 48.73 100.75 Z" />
<path fill="#8b5e33" opacity="1.00" d=" M 38.49 113.08 C 42.60 112.87 47.91 111.26 50.80 115.22 L 50.66 116.37 C 46.38 116.35 42.09 115.51 38.49 113.08 Z" />
<path fill="#8b5e33" opacity="1.00" d=" M 85.05 133.07 C 89.12 130.39 93.02 126.90 98.05 126.28 C 101.89 125.88 106.08 125.60 109.63 127.37 C 112.94 132.74 113.00 139.39 113.74 145.49 C 111.39 147.43 108.35 148.10 105.36 148.01 C 104.57 147.94 102.98 147.79 102.18 147.71 C 91.35 146.98 80.37 146.06 70.10 142.24 C 73.84 137.36 80.27 136.50 85.05 133.07 Z" />
<path fill="#8b5e33" opacity="1.00" d=" M 122.64 143.50 C 123.23 143.56 124.41 143.67 125.00 143.73 C 127.11 144.12 130.11 143.40 131.30 145.73 C 132.61 148.00 133.33 150.55 134.04 153.06 C 135.62 158.61 134.48 164.49 135.92 170.06 C 136.62 173.77 139.75 176.23 141.35 179.50 C 141.92 183.75 141.02 188.08 140.37 192.29 L 139.65 192.14 C 138.23 191.71 136.71 191.40 135.48 190.52 C 134.77 189.18 134.33 187.72 133.81 186.30 C 134.49 185.14 135.14 183.96 135.77 182.78 C 135.37 177.81 134.30 172.93 133.20 168.08 C 131.03 168.53 128.86 169.37 126.62 169.16 C 124.49 168.47 122.71 167.04 120.84 165.85 C 124.16 162.48 127.89 159.55 131.25 156.22 C 129.22 156.08 127.18 155.95 125.15 155.84 C 122.64 152.84 120.47 149.59 118.65 146.12 C 119.96 145.21 121.29 144.34 122.64 143.50 Z" />
<path fill="#8b5e33" opacity="1.00" d=" M 26.47 145.63 C 28.26 146.72 30.05 147.81 31.86 148.86 C 36.03 147.23 40.38 148.15 44.34 149.89 C 44.28 149.36 44.17 148.31 44.11 147.79 C 45.31 150.45 45.38 153.39 45.28 156.26 C 41.30 156.31 36.85 157.28 33.30 154.95 C 32.55 154.46 31.81 153.98 31.06 153.50 C 30.57 153.13 29.60 152.39 29.11 152.02 C 27.59 150.71 26.14 149.32 24.66 147.97 C 25.26 147.19 25.87 146.41 26.47 145.63 Z" />
<path fill="#8b5e33" opacity="1.00" d=" M 72.30 172.15 C 76.02 172.34 79.86 172.20 83.44 173.37 C 85.82 177.02 85.49 182.05 88.42 185.53 C 89.78 187.08 93.36 187.71 92.97 190.15 C 89.63 196.76 81.47 196.48 75.19 197.69 C 75.03 193.00 74.86 188.27 73.75 183.69 C 72.97 180.97 71.89 178.35 70.84 175.73 C 71.34 174.54 71.82 173.34 72.30 172.15 Z" />
<path fill="#8b5e33" opacity="1.00" d=" M 51.60 172.81 C 51.50 176.89 51.49 181.07 50.10 184.98 C 48.62 189.40 46.14 194.15 41.27 195.46 L 40.43 195.58 C 40.49 195.17 40.62 194.33 40.68 193.92 C 41.91 191.75 43.51 189.80 44.49 187.51 C 45.08 185.22 44.70 182.84 44.62 180.52 C 46.81 177.83 49.14 175.26 51.60 172.81 Z" />
</g>
<g id="#636053ff">
<path fill="#636053" opacity="1.00" d=" M 66.54 63.21 C 68.66 64.06 70.69 65.11 72.74 66.12 C 65.62 66.47 58.85 68.63 52.43 71.63 C 47.45 73.22 44.40 78.07 39.36 79.52 C 34.01 81.17 28.45 81.97 22.93 82.82 C 21.60 82.95 20.27 83.06 18.93 83.16 C 16.71 82.59 14.33 81.69 12.90 79.81 C 11.39 75.16 13.82 70.33 17.71 67.72 C 18.46 70.11 19.16 72.51 19.88 74.90 C 31.26 71.29 42.19 66.00 54.08 64.19 C 58.21 63.64 62.37 63.20 66.54 63.21 Z" />
<path fill="#636053" opacity="1.00" d=" M 93.49 63.42 C 101.53 65.63 110.00 65.61 118.01 68.01 C 124.56 69.49 130.52 73.52 137.42 73.23 C 137.64 71.36 137.83 69.49 138.12 67.63 C 142.01 69.15 145.22 72.35 146.60 76.31 C 146.98 80.10 143.27 83.73 139.41 82.68 C 131.99 81.64 124.72 79.75 117.37 78.36 C 116.64 77.17 115.94 75.94 115.06 74.86 C 110.76 73.78 105.87 75.66 101.94 73.10 C 98.09 70.95 95.46 67.27 93.49 63.42 Z" />
<path fill="#636053" opacity="1.00" d=" M 58.43 200.43 C 66.89 199.17 75.46 199.81 83.98 199.67 C 89.16 199.82 94.50 199.13 99.53 200.71 C 85.94 202.86 71.92 203.10 58.43 200.43 Z" />
</g>
<g id="#623b19ff">
<path fill="#623b19" opacity="1.00" d=" M 52.43 71.63 C 58.85 68.63 65.62 66.47 72.74 66.12 C 73.12 66.30 73.90 66.68 74.28 66.86 C 71.68 69.82 68.75 72.50 65.55 74.80 C 57.11 74.57 48.88 76.89 41.12 80.00 C 35.35 82.36 29.09 82.74 22.93 82.82 C 28.45 81.97 34.01 81.17 39.36 79.52 C 44.40 78.07 47.45 73.22 52.43 71.63 Z" />
<path fill="#623b19" opacity="1.00" d=" M 117.37 78.36 C 124.72 79.75 131.99 81.64 139.41 82.68 C 133.49 84.03 127.39 83.59 121.39 83.16 C 123.61 87.07 124.56 91.49 125.17 95.91 C 125.69 100.84 129.24 104.58 131.27 108.91 C 127.46 110.24 123.30 109.75 119.95 107.47 C 118.36 106.59 116.78 105.69 115.20 104.80 C 115.64 101.15 116.36 97.52 116.58 93.84 C 116.88 90.63 114.61 88.02 113.85 85.04 C 114.35 82.53 116.09 80.51 117.37 78.36 Z" />
<path fill="#623b19" opacity="1.00" d=" M 52.41 102.42 C 57.27 98.35 61.55 93.36 62.74 86.94 C 62.70 89.59 62.23 92.74 64.09 94.92 C 66.67 97.31 69.99 98.64 72.99 100.39 C 69.24 100.02 65.58 99.09 62.04 97.81 C 60.23 100.23 58.45 102.67 56.69 105.13 C 55.23 104.28 53.82 103.34 52.41 102.42 Z" />
<path fill="#623b19" opacity="1.00" d=" M 40.29 100.44 C 46.52 96.43 51.83 90.71 59.25 88.86 C 57.78 94.34 52.88 97.41 48.73 100.75 C 45.51 102.92 42.15 104.90 39.05 107.26 C 37.16 106.96 35.27 106.66 33.37 106.37 C 35.77 104.51 38.07 102.52 40.29 100.44 Z" />
<path fill="#623b19" opacity="1.00" d=" M 78.01 102.99 C 77.82 100.57 78.95 97.53 81.88 97.78 C 84.94 99.69 87.35 102.48 90.52 104.26 C 95.57 107.06 101.26 108.71 107.04 109.01 C 102.83 110.16 98.32 111.00 94.01 109.89 C 88.35 108.45 83.12 105.75 78.01 102.99 Z" />
<path fill="#623b19" opacity="1.00" d=" M 77.88 105.72 C 82.78 110.64 88.31 115.24 95.21 116.95 C 89.30 118.63 83.89 121.59 78.15 123.71 C 79.35 122.61 81.13 121.38 80.59 119.48 C 79.84 116.71 77.81 114.56 76.19 112.27 C 76.87 110.12 77.50 107.95 77.88 105.72 Z" />
<path fill="#623b19" opacity="1.00" d=" M 35.34 114.88 C 37.40 112.77 39.48 110.68 41.57 108.59 C 42.94 109.35 44.31 110.12 45.72 110.81 C 47.56 111.29 49.41 111.70 51.26 112.12 C 51.09 113.15 50.94 114.18 50.80 115.22 C 47.91 111.26 42.60 112.87 38.49 113.08 C 42.09 115.51 46.38 116.35 50.66 116.37 C 49.32 116.83 47.99 117.30 46.64 117.71 C 42.68 117.81 38.91 116.43 35.34 114.88 Z" />
<path fill="#623b19" opacity="1.00" d=" M 84.75 128.83 C 91.44 125.22 99.15 122.93 106.79 124.32 C 113.06 125.11 118.35 128.83 123.01 132.87 C 123.05 131.52 123.07 130.17 123.08 128.83 C 125.13 132.58 122.46 136.17 119.70 138.58 C 121.13 140.61 122.87 142.41 125.00 143.73 C 124.41 143.67 123.23 143.56 122.64 143.50 C 121.22 143.16 119.81 142.71 118.36 142.50 C 116.63 143.15 115.25 144.46 113.74 145.49 C 113.00 139.39 112.94 132.74 109.63 127.37 C 106.08 125.60 101.89 125.88 98.05 126.28 C 93.02 126.90 89.12 130.39 85.05 133.07 C 80.27 136.50 73.84 137.36 70.10 142.24 C 68.46 141.54 66.68 140.89 65.47 139.52 C 64.52 137.87 64.20 135.96 63.76 134.13 C 71.07 134.16 78.34 132.35 84.75 128.83 Z" />
<path fill="#623b19" opacity="1.00" d=" M 47.18 126.02 C 48.02 127.66 48.75 129.36 49.47 131.06 C 48.38 132.46 46.10 133.48 46.37 135.54 C 46.63 138.75 47.84 141.80 49.28 144.66 C 47.41 144.76 45.34 144.47 43.79 145.75 C 43.34 143.53 42.92 141.24 41.79 139.26 C 37.57 136.39 31.89 137.28 28.28 140.71 C 27.58 138.55 26.81 136.42 26.03 134.29 C 32.34 135.94 38.91 135.83 45.29 134.69 C 42.26 132.13 39.15 129.65 35.94 127.30 C 39.17 128.50 42.41 129.66 45.64 130.83 C 46.16 129.22 46.67 127.62 47.18 126.02 Z" />
<path fill="#623b19" opacity="1.00" d=" M 19.33 143.57 C 21.15 144.99 22.95 146.42 24.66 147.97 C 26.14 149.32 27.59 150.71 29.11 152.02 C 28.76 153.35 28.41 154.68 28.07 156.02 C 24.56 153.61 21.24 150.96 17.88 148.36 C 18.43 146.78 18.87 145.17 19.33 143.57 Z" />
<path fill="#623b19" opacity="1.00" d=" M 109.03 160.10 C 109.59 154.13 114.07 149.52 118.65 146.12 C 120.47 149.59 122.64 152.84 125.15 155.84 C 121.75 160.43 118.84 165.48 117.61 171.11 C 115.75 170.40 113.86 169.76 112.08 168.87 C 110.09 166.42 108.59 163.34 109.03 160.10 Z" />
<path fill="#623b19" opacity="1.00" d=" M 128.51 176.56 C 125.32 173.49 123.44 169.39 120.84 165.85 C 122.71 167.04 124.49 168.47 126.62 169.16 C 128.86 169.37 131.03 168.53 133.20 168.08 C 134.30 172.93 135.37 177.81 135.77 182.78 C 133.49 180.55 130.90 178.67 128.51 176.56 Z" />
<path fill="#623b19" opacity="1.00" d=" M 52.93 167.16 C 57.21 168.90 61.31 171.05 65.23 173.49 C 63.18 174.02 61.13 174.54 59.07 175.07 C 60.78 176.31 62.48 177.57 64.19 178.82 C 63.21 181.63 62.23 184.45 61.24 187.26 C 58.77 188.07 56.15 188.64 53.95 190.10 C 51.74 191.97 50.65 194.76 49.16 197.18 C 46.40 196.71 43.65 196.24 40.92 195.61 L 41.27 195.46 C 46.14 194.15 48.62 189.40 50.10 184.98 C 51.49 181.07 51.50 176.89 51.60 172.81 C 51.65 170.85 52.35 169.00 52.93 167.16 Z" />
<path fill="#623b19" opacity="1.00" d=" M 127.33 192.64 C 129.14 190.19 131.38 188.11 133.81 186.30 C 134.33 187.72 134.77 189.18 135.48 190.52 C 136.71 191.40 138.23 191.71 139.65 192.14 L 139.86 192.20 C 136.79 192.82 134.07 194.39 131.22 195.60 C 129.73 194.89 128.57 193.68 127.33 192.64 Z" />
</g>
<g id="#32251bff">
<path fill="#32251b" opacity="1.00" d=" M 41.12 80.00 C 48.88 76.89 57.11 74.57 65.55 74.80 C 62.37 77.42 58.21 77.83 54.33 78.63 C 50.90 79.25 47.97 81.27 45.39 83.51 C 36.67 81.17 27.70 85.41 18.93 83.16 C 20.27 83.06 21.60 82.95 22.93 82.82 C 29.09 82.74 35.35 82.36 41.12 80.00 Z" />
<path fill="#32251b" opacity="1.00" d=" M 54.35 83.32 C 59.20 80.99 64.36 79.37 69.35 77.40 C 72.99 75.66 76.33 78.43 79.17 80.37 C 78.65 80.44 77.61 80.57 77.09 80.64 C 74.80 81.05 72.29 81.07 70.24 82.29 C 67.62 84.50 67.22 88.51 68.33 91.59 C 69.42 93.79 71.46 95.29 73.17 96.99 C 70.98 96.54 68.28 96.03 67.36 93.68 C 66.10 89.72 66.00 85.49 64.74 81.52 C 64.03 83.31 63.31 85.10 62.74 86.94 C 61.55 93.36 57.27 98.35 52.41 102.42 C 53.82 103.34 55.23 104.28 56.69 105.13 C 59.08 106.40 61.60 107.39 64.12 108.37 C 63.81 112.38 62.61 116.23 60.91 119.85 C 58.73 124.20 59.91 129.11 60.48 133.69 C 61.57 133.85 62.67 134.00 63.76 134.13 C 64.20 135.96 64.52 137.87 65.47 139.52 C 66.68 140.89 68.46 141.54 70.10 142.24 C 80.37 146.06 91.35 146.98 102.18 147.71 C 99.63 147.88 97.71 149.34 96.49 151.53 C 94.64 154.62 91.44 156.37 88.34 157.98 C 89.60 161.14 89.02 164.49 88.27 167.70 C 92.14 171.52 95.55 176.06 96.04 181.66 C 93.26 182.40 90.40 183.31 88.42 185.53 C 85.49 182.05 85.82 177.02 83.44 173.37 C 79.86 172.20 76.02 172.34 72.30 172.15 C 71.82 173.34 71.34 174.54 70.84 175.73 C 69.42 179.27 67.31 182.56 66.35 186.27 C 66.10 190.65 67.70 194.87 68.35 199.16 C 69.95 199.21 71.56 199.25 73.17 199.29 C 71.91 195.39 69.72 191.89 68.34 188.06 C 68.60 185.40 71.86 184.87 73.75 183.69 C 74.86 188.27 75.03 193.00 75.19 197.69 C 81.47 196.48 89.63 196.76 92.97 190.15 C 95.06 193.12 96.54 196.62 99.19 199.13 C 108.48 200.18 117.96 198.44 127.20 199.84 C 129.62 201.99 128.34 205.84 128.77 208.72 C 95.25 208.77 61.73 208.76 28.21 208.73 C 28.62 205.84 27.32 201.96 29.79 199.82 C 35.70 198.54 41.84 200.06 47.81 199.18 C 48.15 198.68 48.82 197.68 49.16 197.18 C 50.65 194.76 51.74 191.97 53.95 190.10 C 56.15 188.64 58.77 188.07 61.24 187.26 C 62.23 184.45 63.21 181.63 64.19 178.82 C 62.48 177.57 60.78 176.31 59.07 175.07 C 61.13 174.54 63.18 174.02 65.23 173.49 C 61.31 171.05 57.21 168.90 52.93 167.16 C 52.34 161.79 52.62 156.41 54.45 151.29 C 53.16 148.77 50.83 147.00 49.28 144.66 C 47.84 141.80 46.63 138.75 46.37 135.54 C 46.10 133.48 48.38 132.46 49.47 131.06 C 48.75 129.36 48.02 127.66 47.18 126.02 C 44.08 124.42 40.76 123.30 37.47 122.17 C 37.49 121.80 37.51 121.06 37.53 120.69 C 40.97 121.70 44.43 122.64 47.90 123.52 C 48.47 122.35 49.04 121.17 49.61 120.00 C 48.61 119.25 47.62 118.48 46.64 117.71 C 47.99 117.30 49.32 116.83 50.66 116.37 L 50.80 115.22 C 50.94 114.18 51.09 113.15 51.26 112.12 C 51.85 112.25 53.03 112.51 53.62 112.64 C 53.85 109.06 53.70 105.25 51.19 102.41 C 50.38 101.84 49.56 101.29 48.73 100.75 C 52.88 97.41 57.78 94.34 59.25 88.86 C 51.83 90.71 46.52 96.43 40.29 100.44 C 43.89 94.02 47.38 86.70 54.35 83.32 M 58.43 200.43 C 71.92 203.10 85.94 202.86 99.53 200.71 C 94.50 199.13 89.16 199.82 83.98 199.67 C 75.46 199.81 66.89 199.17 58.43 200.43 Z" />
<path fill="#32251b" opacity="1.00" d=" M 78.01 102.99 C 83.12 105.75 88.35 108.45 94.01 109.89 C 98.32 111.00 102.83 110.16 107.04 109.01 C 109.98 108.09 112.57 106.37 115.20 104.80 C 116.78 105.69 118.36 106.59 119.95 107.47 C 117.70 108.62 115.37 109.73 113.47 111.43 C 113.18 113.81 114.95 115.78 115.93 117.80 C 109.01 118.15 102.14 116.48 95.21 116.95 C 88.31 115.24 82.78 110.64 77.88 105.72 C 77.91 105.04 77.98 103.68 78.01 102.99 Z" />
<path fill="#32251b" opacity="1.00" d=" M 118.36 142.50 C 119.81 142.71 121.22 143.16 122.64 143.50 C 121.29 144.34 119.96 145.21 118.65 146.12 C 114.07 149.52 109.59 154.13 109.03 160.10 C 108.59 163.34 110.09 166.42 112.08 168.87 C 111.73 169.34 111.03 170.27 110.69 170.74 C 107.52 170.70 104.37 170.38 101.26 169.77 C 101.07 166.43 101.13 163.07 101.48 159.74 C 99.32 160.12 97.16 160.50 95.00 160.84 C 96.78 155.38 101.14 151.60 105.36 148.01 C 108.35 148.10 111.39 147.43 113.74 145.49 C 115.25 144.46 116.63 143.15 118.36 142.50 Z" />
<path fill="#32251b" opacity="1.00" d=" M 31.06 153.50 C 31.81 153.98 32.55 154.46 33.30 154.95 C 33.51 158.41 28.50 155.39 31.06 153.50 Z" />
<path fill="#32251b" opacity="1.00" d=" M 125.15 155.84 C 127.18 155.95 129.22 156.08 131.25 156.22 C 127.89 159.55 124.16 162.48 120.84 165.85 C 123.44 169.39 125.32 173.49 128.51 176.56 C 130.90 178.67 133.49 180.55 135.77 182.78 C 135.14 183.96 134.49 185.14 133.81 186.30 C 131.38 188.11 129.14 190.19 127.33 192.64 C 127.13 192.89 126.74 193.39 126.54 193.65 C 121.24 192.47 116.94 189.12 112.89 185.70 C 113.96 184.41 114.66 181.66 116.83 182.41 C 118.67 182.86 120.33 183.81 122.03 184.62 C 120.00 180.35 117.86 175.91 117.61 171.11 C 118.84 165.48 121.75 160.43 125.15 155.84 Z" />
</g>
<g id="#b59c6fff">
<path fill="#b59c6f" opacity="1.00" d=" M 70.24 82.29 C 72.29 81.07 74.80 81.05 77.09 80.64 C 79.48 83.60 82.40 86.82 81.94 90.94 C 82.23 95.54 76.33 95.74 73.17 96.99 C 71.46 95.29 69.42 93.79 68.33 91.59 C 67.22 88.51 67.62 84.50 70.24 82.29 Z" />
<path fill="#b59c6f" opacity="1.00" d=" M 34.74 96.78 C 36.84 93.22 38.84 89.41 42.29 86.96 C 40.59 91.15 38.56 95.20 35.94 98.90 C 34.31 101.07 33.60 103.70 33.37 106.37 C 35.27 106.66 37.16 106.96 39.05 107.26 C 35.05 111.18 31.65 115.74 27.10 119.08 C 28.28 111.27 30.78 103.63 34.74 96.78 Z" />
<path fill="#b59c6f" opacity="1.00" d=" M 45.29 105.50 C 47.05 104.11 49.17 103.32 51.19 102.41 C 53.70 105.25 53.85 109.06 53.62 112.64 C 53.03 112.51 51.85 112.25 51.26 112.12 C 49.41 111.70 47.56 111.29 45.72 110.81 C 45.47 109.07 44.70 107.24 45.29 105.50 Z" />
<path fill="#b59c6f" opacity="1.00" d=" M 68.87 125.35 C 69.62 120.23 71.31 114.89 76.19 112.27 C 77.81 114.56 79.84 116.71 80.59 119.48 C 81.13 121.38 79.35 122.61 78.15 123.71 C 75.15 124.69 71.98 124.95 68.87 125.35 Z" />
<path fill="#b59c6f" opacity="1.00" d=" M 118.77 115.40 C 120.40 116.83 122.28 118.48 122.18 120.88 C 122.15 122.41 122.09 123.95 122.00 125.49 C 120.43 123.91 118.66 122.45 117.56 120.48 C 117.33 118.72 118.31 117.06 118.77 115.40 Z" />
<path fill="#b59c6f" opacity="1.00" d=" M 28.28 140.71 C 31.89 137.28 37.57 136.39 41.79 139.26 C 42.92 141.24 43.34 143.53 43.79 145.75 C 43.87 146.26 44.03 147.28 44.11 147.79 C 44.17 148.31 44.28 149.36 44.34 149.89 C 40.38 148.15 36.03 147.23 31.86 148.86 C 30.05 147.81 28.26 146.72 26.47 145.63 C 25.87 146.41 25.26 147.19 24.66 147.97 C 25.33 145.32 26.35 142.71 28.28 140.71 Z" />
<path fill="#b59c6f" opacity="1.00" d=" M 32.79 189.29 C 36.77 186.41 40.77 183.56 44.62 180.52 C 44.70 182.84 45.08 185.22 44.49 187.51 C 43.51 189.80 41.91 191.75 40.68 193.92 C 38.02 192.43 35.35 190.95 32.79 189.29 Z" />
</g>
</svg>
