<?xml version="1.0" encoding="UTF-8" ?>
<!DOCTYPE svg PUBLIC "-//W3C//DTD SVG 1.1//EN" "http://www.w3.org/Graphics/SVG/1.1/DTD/svg11.dtd">
<svg width="155pt" height="210pt" viewBox="0 0 155 210" version="1.1" xmlns="http://www.w3.org/2000/svg">
<g id="#806962ff">
<path fill="#806962" opacity="1.00" d=" M 64.46 49.52 C 65.55 48.15 65.85 45.51 67.93 45.38 C 70.53 46.69 72.68 49.04 75.72 49.34 C 82.52 50.47 89.88 51.24 95.35 55.88 C 91.28 54.43 86.94 54.23 82.66 54.44 C 77.67 53.28 72.69 51.66 67.51 51.83 C 62.64 52.00 57.78 52.38 52.94 52.84 C 56.39 50.62 60.47 50.00 64.46 49.52 Z" />
<path fill="#806962" opacity="1.00" d=" M 90.73 63.37 C 92.56 63.38 94.40 63.39 96.24 63.40 C 97.05 64.07 97.87 64.73 98.67 65.43 C 97.53 66.15 96.40 66.88 95.28 67.63 C 93.69 68.69 92.12 69.79 90.56 70.91 C 90.43 68.40 90.57 65.88 90.73 63.37 Z" />
<path fill="#806962" opacity="1.00" d=" M 96.49 74.26 C 95.82 78.77 98.71 82.31 101.92 85.06 C 93.72 80.79 84.26 80.45 75.24 79.62 C 64.77 78.64 54.14 80.04 44.10 83.11 C 39.57 84.77 34.66 86.71 31.68 90.70 C 29.37 96.02 29.75 102.03 29.78 107.70 C 28.43 105.00 27.63 102.04 27.74 99.01 C 28.35 91.12 23.30 83.60 26.15 75.75 C 26.21 77.19 26.33 78.63 26.50 80.07 C 27.54 81.94 28.73 83.73 29.96 85.50 C 33.89 83.44 37.78 81.25 41.89 79.56 C 53.39 79.40 64.45 74.84 76.00 75.94 C 81.39 76.29 86.92 77.94 92.25 76.29 C 93.69 75.67 95.09 74.97 96.49 74.26 Z" />
<path fill="#806962" opacity="1.00" d=" M 69.93 83.93 C 73.26 82.76 76.86 83.27 80.31 83.31 C 77.82 87.96 73.44 91.12 68.42 92.58 C 68.41 93.21 68.40 94.48 68.40 95.12 C 75.53 94.04 78.53 85.92 85.40 84.41 C 88.39 83.49 89.90 86.65 91.41 88.58 C 89.64 88.83 87.88 89.06 86.12 89.30 C 86.65 89.89 87.18 90.48 87.71 91.07 C 85.69 91.11 83.66 91.13 81.65 91.31 C 79.42 91.64 77.25 92.25 75.07 92.80 C 75.56 94.69 76.03 96.59 76.62 98.45 C 75.30 97.44 74.03 96.37 72.76 95.30 C 72.53 97.56 72.28 99.81 72.05 102.07 C 79.00 101.86 85.87 100.73 92.81 100.31 C 92.66 100.10 92.36 99.69 92.21 99.48 C 90.64 97.55 89.37 95.37 88.85 92.90 C 90.43 92.03 92.02 91.18 93.63 90.35 C 96.20 94.86 100.25 99.30 98.98 104.91 C 85.53 107.37 71.85 108.20 58.28 109.78 C 60.54 102.86 63.78 96.33 66.60 89.64 C 67.52 87.64 68.36 85.52 69.93 83.93 Z" />
<path fill="#806962" opacity="1.00" d=" M 113.74 115.88 C 114.07 116.12 114.71 116.59 115.03 116.83 C 114.96 121.86 113.75 127.09 115.90 131.89 C 113.85 135.13 112.18 138.60 111.27 142.33 C 109.56 148.92 106.46 154.99 103.60 161.12 C 103.18 160.15 102.74 159.20 102.28 158.26 C 109.91 146.35 112.49 132.00 113.58 118.11 C 113.62 117.56 113.70 116.44 113.74 115.88 Z" />
<path fill="#806962" opacity="1.00" d=" M 40.91 118.80 C 44.09 118.56 47.24 117.99 50.38 117.45 C 50.83 118.34 51.29 119.23 51.74 120.13 C 52.12 120.15 52.87 120.19 53.24 120.21 C 55.69 123.35 57.86 126.72 59.32 130.44 C 54.26 129.02 49.52 126.68 45.07 123.91 C 44.13 123.33 43.23 122.69 42.37 122.01 C 41.88 120.94 41.39 119.87 40.91 118.80 Z" />
<path fill="#806962" opacity="1.00" d=" M 62.94 151.49 C 64.64 151.77 66.35 152.04 68.06 152.32 C 68.35 155.46 68.58 158.64 68.24 161.80 C 68.05 163.44 67.80 165.07 67.56 166.71 C 65.67 167.83 63.80 169.00 61.86 170.02 C 57.35 169.37 52.78 169.59 48.28 170.12 C 47.81 168.81 47.38 167.49 46.98 166.15 C 47.39 165.45 48.19 164.05 48.59 163.34 C 49.21 164.79 49.83 166.23 50.46 167.67 C 52.40 167.96 54.34 168.24 56.28 168.52 C 56.12 166.78 55.96 165.04 55.83 163.30 C 56.16 162.72 56.82 161.56 57.15 160.98 C 58.17 159.13 59.09 157.23 59.99 155.32 C 60.91 154.00 61.90 152.73 62.94 151.49 Z" />
<path fill="#806962" opacity="1.00" d=" M 82.90 151.17 C 83.73 151.40 85.40 151.85 86.23 152.08 C 88.72 158.58 92.04 165.01 91.74 172.18 C 92.49 171.82 93.24 171.46 93.99 171.09 C 92.88 172.42 91.66 173.65 90.46 174.89 C 91.73 175.31 93.01 175.73 94.28 176.14 C 88.73 175.61 83.20 173.44 79.38 169.28 C 79.45 168.93 79.60 168.22 79.68 167.87 C 82.44 169.84 85.50 171.35 88.74 172.35 C 86.72 168.16 83.95 164.41 80.91 160.91 C 81.28 157.61 81.85 154.33 82.90 151.17 Z" />
<path fill="#806962" opacity="1.00" d=" M 42.98 178.10 C 40.46 174.95 38.82 170.88 39.88 166.84 C 40.72 170.64 41.86 174.37 42.98 178.10 Z" />
<path fill="#806962" opacity="1.00" d=" M 48.72 172.46 C 49.60 172.25 51.53 172.39 50.99 173.78 C 50.30 174.96 49.00 175.57 47.98 176.41 C 48.20 175.09 48.37 173.76 48.72 172.46 Z" />
<path fill="#806962" opacity="1.00" d=" M 85.44 177.84 C 89.03 177.69 92.96 176.85 96.29 178.59 C 97.54 180.03 98.27 181.82 99.11 183.50 C 98.45 183.67 97.12 184.02 96.45 184.19 C 92.33 183.97 88.22 183.61 84.13 183.05 C 85.29 182.59 86.44 182.13 87.60 181.68 C 86.88 180.39 86.16 179.11 85.44 177.84 M 87.77 179.28 C 89.40 179.94 91.04 180.57 92.67 181.22 C 93.07 180.60 93.88 179.35 94.28 178.73 C 92.11 178.91 89.94 179.10 87.77 179.28 Z" />
<path fill="#806962" opacity="1.00" d=" M 54.43 183.22 C 56.23 182.45 58.14 181.97 60.02 181.44 C 59.85 182.11 59.52 183.46 59.36 184.14 C 57.71 183.84 56.07 183.54 54.43 183.22 Z" />
</g>
<g id="#d18a5dff">
<path fill="#d18a5d" opacity="1.00" d=" M 120.51 53.41 C 124.02 48.92 129.86 48.36 135.12 48.14 C 130.73 48.73 126.71 50.69 123.64 53.89 C 122.59 53.73 121.55 53.57 120.51 53.41 Z" />
<path fill="#d18a5d" opacity="1.00" d=" M 67.51 51.83 C 72.69 51.66 77.67 53.28 82.66 54.44 C 87.35 57.16 92.04 59.94 96.24 63.40 C 94.40 63.39 92.56 63.38 90.73 63.37 C 90.57 65.88 90.43 68.40 90.56 70.91 C 91.07 72.72 91.66 74.50 92.25 76.29 C 86.92 77.94 81.39 76.29 76.00 75.94 C 64.45 74.84 53.39 79.40 41.89 79.56 C 48.15 76.24 55.32 76.37 62.07 74.98 C 66.89 74.03 68.99 68.57 68.22 64.14 C 67.66 60.46 66.80 55.50 62.68 54.23 C 57.38 52.97 51.95 54.56 46.79 55.76 C 48.77 54.65 50.74 53.46 52.94 52.84 C 57.78 52.38 62.64 52.00 67.51 51.83 M 74.38 60.41 C 69.46 61.78 69.03 70.46 74.31 71.63 C 78.55 72.78 81.58 67.98 80.75 64.22 C 80.63 61.15 76.98 59.81 74.38 60.41 Z" />
<path fill="#d18a5d" opacity="1.00" d=" M 28.62 61.24 C 31.13 61.18 33.65 61.13 36.16 61.12 C 33.75 63.12 31.43 65.22 29.29 67.51 C 28.99 65.43 28.76 63.34 28.62 61.24 Z" />
<path fill="#d18a5d" opacity="1.00" d=" M 120.17 66.98 C 121.58 65.17 123.32 63.65 124.98 62.08 C 124.74 66.66 124.13 71.38 121.46 75.26 C 120.71 74.94 119.22 74.29 118.47 73.97 L 118.65 73.19 C 119.14 71.12 119.63 69.04 120.17 66.98 Z" />
<path fill="#d18a5d" opacity="1.00" d=" M 109.11 71.22 C 109.02 68.64 109.98 66.27 112.32 64.97 C 113.16 67.06 113.35 69.31 113.25 71.54 C 111.87 71.45 110.49 71.36 109.11 71.22 Z" />
<path fill="#d18a5d" opacity="1.00" d=" M 113.30 81.95 C 114.30 84.11 114.25 86.43 113.48 88.65 C 113.10 86.43 113.11 84.18 113.30 81.95 Z" />
<path fill="#d18a5d" opacity="1.00" d=" M 93.99 171.09 C 95.47 169.26 96.89 167.38 98.40 165.57 C 98.69 169.58 96.92 173.23 94.28 176.14 C 93.01 175.73 91.73 175.31 90.46 174.89 C 91.66 173.65 92.88 172.42 93.99 171.09 Z" />
<path fill="#d18a5d" opacity="1.00" d=" M 47.74 176.81 C 49.20 176.55 50.67 176.28 52.14 176.06 L 53.02 176.11 C 55.06 176.83 56.84 178.09 58.55 179.38 C 54.47 179.56 50.40 179.33 46.33 179.15 C 46.79 178.36 47.26 177.58 47.74 176.81 Z" />
<path fill="#d18a5d" opacity="1.00" d=" M 87.77 179.28 C 89.94 179.10 92.11 178.91 94.28 178.73 C 93.88 179.35 93.07 180.60 92.67 181.22 C 91.04 180.57 89.40 179.94 87.77 179.28 Z" />
</g>
<g id="#67442fff">
<path fill="#67442f" opacity="1.00" d=" M 123.64 53.89 C 126.71 50.69 130.73 48.73 135.12 48.14 C 143.96 53.22 146.64 64.11 145.66 73.63 C 143.84 73.89 142.02 74.15 140.20 74.39 C 138.57 72.50 137.02 70.47 134.97 69.00 C 132.52 69.32 132.60 72.58 131.50 74.30 C 131.63 70.48 132.22 66.70 132.84 62.93 C 129.11 65.53 126.32 69.24 125.76 73.84 C 124.38 74.76 122.99 75.66 121.61 76.57 C 121.28 77.90 120.96 79.24 120.65 80.58 C 118.10 79.21 115.18 76.07 112.15 77.98 C 110.20 81.23 109.56 85.04 108.47 88.61 C 106.24 87.51 104.05 86.34 101.92 85.06 C 98.71 82.31 95.82 78.77 96.49 74.26 C 96.37 72.01 95.88 69.80 95.28 67.63 C 96.40 66.88 97.53 66.15 98.67 65.43 C 97.87 64.73 97.05 64.07 96.24 63.40 C 92.04 59.94 87.35 57.16 82.66 54.44 C 86.94 54.23 91.28 54.43 95.35 55.88 C 101.34 59.25 104.23 65.78 108.17 71.05 C 108.40 71.10 108.88 71.18 109.11 71.22 C 110.49 71.36 111.87 71.45 113.25 71.54 C 113.35 69.31 113.16 67.06 112.32 64.97 C 114.97 65.07 117.62 65.21 120.27 65.43 C 120.31 61.38 120.20 57.33 119.80 53.30 L 120.51 53.41 C 121.55 53.57 122.59 53.73 123.64 53.89 M 120.17 66.98 C 117.76 68.36 118.03 70.87 118.65 73.19 L 118.47 73.97 C 119.22 74.29 120.71 74.94 121.46 75.26 C 124.13 71.38 124.74 66.66 124.98 62.08 C 123.32 63.65 121.58 65.17 120.17 66.98 Z" />
<path fill="#67442f" opacity="1.00" d=" M 46.79 55.76 C 51.95 54.56 57.38 52.97 62.68 54.23 C 66.80 55.50 67.66 60.46 68.22 64.14 C 68.99 68.57 66.89 74.03 62.07 74.98 C 55.32 76.37 48.15 76.24 41.89 79.56 C 37.78 81.25 33.89 83.44 29.96 85.50 C 29.85 82.91 29.70 80.33 29.49 77.76 C 28.49 78.52 27.50 79.29 26.50 80.07 C 26.33 78.63 26.21 77.19 26.15 75.75 C 26.73 72.86 27.87 70.09 29.29 67.51 C 31.43 65.22 33.75 63.12 36.16 61.12 C 39.28 58.61 42.97 56.88 46.79 55.76 M 35.81 69.05 C 35.81 72.11 37.79 77.39 41.66 76.00 C 45.24 73.29 42.56 68.49 41.06 65.35 C 38.95 65.99 35.37 65.90 35.81 69.05 Z" />
<path fill="#67442f" opacity="1.00" d=" M 128.06 74.05 C 129.03 74.58 130.00 75.11 130.97 75.65 C 131.28 79.45 132.71 83.00 133.43 86.71 C 132.77 90.54 129.11 92.43 125.74 93.43 C 125.97 95.49 126.50 97.60 126.07 99.67 C 124.54 100.98 122.70 101.92 121.33 103.43 C 120.89 106.18 122.42 108.84 124.43 110.61 C 126.88 112.82 130.35 113.01 133.41 113.74 C 129.97 120.25 120.56 121.14 115.03 116.83 C 114.71 116.59 114.07 116.12 113.74 115.88 C 113.70 116.44 113.62 117.56 113.58 118.11 C 112.88 115.07 111.88 112.12 110.97 109.14 C 111.52 106.29 111.72 103.40 111.69 100.50 C 114.77 100.26 118.54 100.47 120.53 97.60 C 122.69 94.43 122.04 90.36 122.29 86.74 C 123.64 85.65 125.39 84.89 126.30 83.36 C 127.39 80.38 127.58 77.17 128.06 74.05 Z" />
<path fill="#67442f" opacity="1.00" d=" M 113.30 81.95 C 114.60 81.46 116.08 80.23 117.38 81.44 C 121.37 84.46 123.11 91.56 118.75 95.02 C 115.42 95.98 112.26 91.69 113.48 88.65 C 114.25 86.43 114.30 84.11 113.30 81.95 Z" />
<path fill="#67442f" opacity="1.00" d=" M 43.74 105.23 C 44.04 102.61 42.48 96.85 46.77 97.31 C 49.40 98.97 48.39 102.54 48.75 105.15 C 47.08 105.18 45.41 105.20 43.74 105.23 Z" />
<path fill="#67442f" opacity="1.00" d=" M 29.78 107.70 C 30.75 107.02 31.72 106.34 32.69 105.65 C 33.96 110.35 35.40 115.00 37.00 119.60 C 36.46 119.65 35.37 119.75 34.82 119.79 C 35.74 120.80 36.67 121.80 37.60 122.80 C 37.73 121.49 37.86 120.17 37.99 118.86 C 38.96 118.85 39.94 118.83 40.91 118.80 C 41.39 119.87 41.88 120.94 42.37 122.01 C 43.23 124.69 43.65 127.54 43.51 130.36 C 41.40 130.95 39.22 131.16 37.05 131.42 C 36.13 127.97 35.16 124.52 33.73 121.25 C 31.81 116.92 31.26 112.17 29.78 107.70 Z" />
<path fill="#67442f" opacity="1.00" d=" M 97.83 111.81 C 101.32 112.05 104.41 110.07 107.56 108.88 C 105.55 116.40 99.74 122.51 92.54 125.32 C 90.90 125.79 89.24 126.19 87.59 126.60 C 87.32 121.65 87.16 116.71 86.89 111.77 C 90.53 111.27 94.19 111.56 97.83 111.81 Z" />
<path fill="#67442f" opacity="1.00" d=" M 73.40 135.92 C 75.88 136.19 79.51 134.48 81.07 137.14 C 81.40 138.71 80.47 140.21 80.17 141.73 C 77.26 140.62 74.29 139.18 73.40 135.92 Z" />
<path fill="#67442f" opacity="1.00" d=" M 86.31 138.44 C 86.95 137.58 87.59 136.72 88.36 135.98 C 88.86 138.63 89.84 141.22 91.83 143.12 C 96.07 147.59 99.55 152.73 102.28 158.26 C 102.74 159.20 103.18 160.15 103.60 161.12 C 106.85 168.16 107.69 175.95 108.38 183.58 C 111.34 183.99 115.00 183.33 117.26 185.72 C 117.95 188.01 117.75 190.43 117.87 192.79 C 88.15 192.78 58.44 192.61 28.72 192.88 C 28.98 189.98 27.49 185.24 31.34 184.28 C 35.33 183.27 39.50 184.17 43.53 183.54 C 44.24 182.66 44.81 181.69 45.39 180.73 C 45.62 180.33 46.09 179.54 46.33 179.15 C 50.40 179.33 54.47 179.56 58.55 179.38 C 56.84 178.09 55.06 176.83 53.02 176.11 C 55.96 176.47 59.24 176.31 61.80 178.03 C 62.88 179.92 63.42 182.04 64.11 184.10 C 62.52 184.04 60.94 184.17 59.36 184.14 C 59.52 183.46 59.85 182.11 60.02 181.44 C 58.14 181.97 56.23 182.45 54.43 183.22 C 53.58 184.25 52.78 185.31 51.98 186.38 C 45.63 186.07 39.27 185.91 32.91 186.15 C 32.87 188.14 32.82 190.13 32.78 192.12 C 51.51 192.65 70.26 192.19 89.00 192.33 C 97.09 192.31 105.19 192.53 113.28 192.13 C 113.24 190.17 113.20 188.22 113.16 186.26 C 107.53 186.24 101.88 185.76 96.45 184.19 C 97.12 184.02 98.45 183.67 99.11 183.50 L 99.79 183.37 C 101.82 183.41 103.85 183.52 105.89 183.58 L 105.81 182.57 C 105.38 176.13 104.53 169.66 102.31 163.57 C 99.63 155.99 94.67 149.53 89.22 143.73 C 88.08 142.14 86.02 140.61 86.31 138.44 Z" />
<path fill="#67442f" opacity="1.00" d=" M 48.59 163.34 C 51.00 163.32 53.42 163.30 55.83 163.30 C 55.96 165.04 56.12 166.78 56.28 168.52 C 54.34 168.24 52.40 167.96 50.46 167.67 C 49.83 166.23 49.21 164.79 48.59 163.34 Z" />
<path fill="#67442f" opacity="1.00" d=" M 47.03 166.32 L 46.98 166.15 C 47.38 167.49 47.81 168.81 48.28 170.12 C 52.78 169.59 57.35 169.37 61.86 170.02 C 59.00 171.59 55.74 172.00 52.55 172.31 C 52.41 173.56 52.27 174.81 52.14 176.06 C 50.67 176.28 49.20 176.55 47.74 176.81 L 47.98 176.41 C 49.00 175.57 50.30 174.96 50.99 173.78 C 51.53 172.39 49.60 172.25 48.72 172.46 C 48.06 170.44 47.53 168.38 47.03 166.32 Z" />
</g>
<g id="#1e1a1aff">
<path fill="#1e1a1a" opacity="1.00" d=" M 74.38 60.41 C 76.98 59.81 80.63 61.15 80.75 64.22 C 81.58 67.98 78.55 72.78 74.31 71.63 C 69.03 70.46 69.46 61.78 74.38 60.41 Z" />
<path fill="#1e1a1a" opacity="1.00" d=" M 125.76 73.84 C 126.32 69.24 129.11 65.53 132.84 62.93 C 132.22 66.70 131.63 70.48 131.50 74.30 C 131.48 74.70 131.45 75.51 131.43 75.91 L 130.97 75.65 C 130.00 75.11 129.03 74.58 128.06 74.05 C 127.58 77.17 127.39 80.38 126.30 83.36 C 125.39 84.89 123.64 85.65 122.29 86.74 C 122.04 90.36 122.69 94.43 120.53 97.60 C 118.54 100.47 114.77 100.26 111.69 100.50 C 111.72 103.40 111.52 106.29 110.97 109.14 C 111.88 112.12 112.88 115.07 113.58 118.11 C 112.49 132.00 109.91 146.35 102.28 158.26 C 99.55 152.73 96.07 147.59 91.83 143.12 C 89.84 141.22 88.86 138.63 88.36 135.98 C 90.64 135.53 92.93 135.18 95.22 134.80 C 94.53 131.59 93.67 128.41 92.54 125.32 C 99.74 122.51 105.55 116.40 107.56 108.88 C 104.41 110.07 101.32 112.05 97.83 111.81 C 94.19 111.56 90.53 111.27 86.89 111.77 C 76.08 113.20 65.13 113.77 54.50 116.32 C 54.07 117.61 53.66 118.91 53.24 120.21 C 52.87 120.19 52.12 120.15 51.74 120.13 C 51.29 119.23 50.83 118.34 50.38 117.45 C 47.24 117.99 44.09 118.56 40.91 118.80 C 39.94 118.83 38.96 118.85 37.99 118.86 C 37.86 120.17 37.73 121.49 37.60 122.80 C 36.67 121.80 35.74 120.80 34.82 119.79 C 35.37 119.75 36.46 119.65 37.00 119.60 C 35.40 115.00 33.96 110.35 32.69 105.65 C 31.72 106.34 30.75 107.02 29.78 107.70 C 29.75 102.03 29.37 96.02 31.68 90.70 C 34.66 86.71 39.57 84.77 44.10 83.11 C 54.14 80.04 64.77 78.64 75.24 79.62 C 84.26 80.45 93.72 80.79 101.92 85.06 C 104.05 86.34 106.24 87.51 108.47 88.61 C 109.56 85.04 110.20 81.23 112.15 77.98 C 115.18 76.07 118.10 79.21 120.65 80.58 C 120.96 79.24 121.28 77.90 121.61 76.57 C 122.99 75.66 124.38 74.76 125.76 73.84 M 113.30 81.95 C 113.11 84.18 113.10 86.43 113.48 88.65 C 112.26 91.69 115.42 95.98 118.75 95.02 C 123.11 91.56 121.37 84.46 117.38 81.44 C 116.08 80.23 114.60 81.46 113.30 81.95 M 69.93 83.93 C 68.36 85.52 67.52 87.64 66.60 89.64 C 63.78 96.33 60.54 102.86 58.28 109.78 C 71.85 108.20 85.53 107.37 98.98 104.91 C 100.25 99.30 96.20 94.86 93.63 90.35 C 92.02 91.18 90.43 92.03 88.85 92.90 C 88.74 92.44 88.51 91.52 88.39 91.06 L 87.71 91.07 C 87.18 90.48 86.65 89.89 86.12 89.30 C 87.88 89.06 89.64 88.83 91.41 88.58 C 89.90 86.65 88.39 83.49 85.40 84.41 C 78.53 85.92 75.53 94.04 68.40 95.12 C 68.40 94.48 68.41 93.21 68.42 92.58 C 73.44 91.12 77.82 87.96 80.31 83.31 C 76.86 83.27 73.26 82.76 69.93 83.93 M 43.74 105.23 C 45.41 105.20 47.08 105.18 48.75 105.15 C 48.39 102.54 49.40 98.97 46.77 97.31 C 42.48 96.85 44.04 102.61 43.74 105.23 Z" />
<path fill="#1e1a1a" opacity="1.00" d=" M 35.81 69.05 C 35.37 65.90 38.95 65.99 41.06 65.35 C 42.56 68.49 45.24 73.29 41.66 76.00 C 37.79 77.39 35.81 72.11 35.81 69.05 Z" />
<path fill="#1e1a1a" opacity="1.00" d=" M 90.56 70.91 C 92.12 69.79 93.69 68.69 95.28 67.63 C 95.88 69.80 96.37 72.01 96.49 74.26 C 95.09 74.97 93.69 75.67 92.25 76.29 C 91.66 74.50 91.07 72.72 90.56 70.91 Z" />
<path fill="#1e1a1a" opacity="1.00" d=" M 26.50 80.07 C 27.50 79.29 28.49 78.52 29.49 77.76 C 29.70 80.33 29.85 82.91 29.96 85.50 C 28.73 83.73 27.54 81.94 26.50 80.07 Z" />
<path fill="#1e1a1a" opacity="1.00" d=" M 75.07 92.80 C 77.25 92.25 79.42 91.64 81.65 91.31 C 81.66 94.05 81.97 96.78 82.39 99.49 C 80.46 99.38 78.16 99.94 76.62 98.45 C 76.03 96.59 75.56 94.69 75.07 92.80 Z" />
<path fill="#1e1a1a" opacity="1.00" d=" M 60.93 127.38 C 61.40 123.31 62.55 119.33 64.60 115.76 C 68.58 118.43 72.24 121.53 75.54 124.99 C 73.74 125.90 71.93 126.79 70.13 127.69 C 71.21 129.73 72.30 131.77 73.37 133.82 C 72.08 136.44 69.15 139.52 71.35 142.46 C 73.86 146.61 79.49 144.26 83.42 144.40 C 84.38 146.95 85.30 149.51 86.23 152.08 C 85.40 151.85 83.73 151.40 82.90 151.17 C 81.96 150.91 81.03 150.65 80.09 150.39 C 79.58 150.97 79.06 151.55 78.54 152.13 C 77.27 152.23 76.01 152.33 74.75 152.43 C 74.90 156.61 75.88 160.75 78.09 164.34 C 77.27 166.61 76.41 168.86 75.52 171.10 C 74.29 168.51 72.53 165.81 73.18 162.81 C 73.72 159.26 74.34 155.23 71.81 152.24 C 69.76 149.27 65.60 149.62 62.94 151.49 C 61.90 152.73 60.91 154.00 59.99 155.32 C 60.12 152.46 60.28 149.59 60.07 146.73 C 60.06 144.34 57.94 142.82 56.57 141.13 C 55.86 140.36 55.16 139.59 54.46 138.82 C 52.40 139.37 50.33 139.90 48.27 140.42 C 48.08 134.77 46.57 129.32 45.07 123.91 C 49.52 126.68 54.26 129.02 59.32 130.44 C 62.56 131.11 65.87 131.23 69.16 131.41 C 68.67 130.31 68.17 129.21 67.68 128.11 C 65.43 127.87 63.18 127.62 60.93 127.38 Z" />
<path fill="#1e1a1a" opacity="1.00" d=" M 68.24 161.80 C 68.70 161.29 69.15 160.79 69.60 160.29 C 70.97 165.64 72.66 170.94 75.33 175.80 C 76.81 173.71 78.25 171.58 79.38 169.28 C 83.20 173.44 88.73 175.61 94.28 176.14 C 96.92 173.23 98.69 169.58 98.40 165.57 C 98.44 164.76 98.47 163.96 98.50 163.15 C 99.77 163.29 101.03 163.42 102.31 163.57 C 104.53 169.66 105.38 176.13 105.81 182.57 C 103.79 182.74 101.78 182.99 99.79 183.37 L 99.11 183.50 C 98.27 181.82 97.54 180.03 96.29 178.59 C 92.96 176.85 89.03 177.69 85.44 177.84 C 86.16 179.11 86.88 180.39 87.60 181.68 C 86.44 182.13 85.29 182.59 84.13 183.05 C 88.22 183.61 92.33 183.97 96.45 184.19 C 101.88 185.76 107.53 186.24 113.16 186.26 C 113.20 188.22 113.24 190.17 113.28 192.13 C 105.19 192.53 97.09 192.31 89.00 192.33 C 70.26 192.19 51.51 192.65 32.78 192.12 C 32.82 190.13 32.87 188.14 32.91 186.15 C 39.27 185.91 45.63 186.07 51.98 186.38 C 52.78 185.31 53.58 184.25 54.43 183.22 C 56.07 183.54 57.71 183.84 59.36 184.14 C 60.94 184.17 62.52 184.04 64.11 184.10 C 63.42 182.04 62.88 179.92 61.80 178.03 C 59.24 176.31 55.96 176.47 53.02 176.11 L 52.14 176.06 C 52.27 174.81 52.41 173.56 52.55 172.31 C 55.74 172.00 59.00 171.59 61.86 170.02 C 63.80 169.00 65.67 167.83 67.56 166.71 C 67.80 165.07 68.05 163.44 68.24 161.80 Z" />
<path fill="#1e1a1a" opacity="1.00" d=" M 80.91 160.91 C 83.95 164.41 86.72 168.16 88.74 172.35 C 85.50 171.35 82.44 169.84 79.68 167.87 C 80.17 165.56 80.60 163.24 80.91 160.91 Z" />
<path fill="#1e1a1a" opacity="1.00" d=" M 39.54 165.11 C 41.92 165.11 44.30 165.25 46.66 165.63 L 47.03 166.32 C 47.53 168.38 48.06 170.44 48.72 172.46 C 48.37 173.76 48.20 175.09 47.98 176.41 L 47.74 176.81 C 47.26 177.58 46.79 178.36 46.33 179.15 C 46.09 179.54 45.62 180.33 45.39 180.73 C 44.54 179.89 43.73 179.02 42.98 178.10 C 41.86 174.37 40.72 170.64 39.88 166.84 C 39.80 166.41 39.63 165.54 39.54 165.11 Z" />
</g>
<g id="#d8d6d8ff">
<path fill="#d8d6d8" opacity="1.00" d=" M 81.65 91.31 C 83.66 91.13 85.69 91.11 87.71 91.07 L 88.39 91.06 C 88.51 91.52 88.74 92.44 88.85 92.90 C 89.37 95.37 90.64 97.55 92.21 99.48 C 92.36 99.69 92.66 100.10 92.81 100.31 C 85.87 100.73 79.00 101.86 72.05 102.07 C 72.28 99.81 72.53 97.56 72.76 95.30 C 74.03 96.37 75.30 97.44 76.62 98.45 C 78.16 99.94 80.46 99.38 82.39 99.49 C 81.97 96.78 81.66 94.05 81.65 91.31 Z" />
</g>
<g id="#661f20ff">
<path fill="#661f20" opacity="1.00" d=" M 54.50 116.32 C 65.13 113.77 76.08 113.20 86.89 111.77 C 87.16 116.71 87.32 121.65 87.59 126.60 C 89.24 126.19 90.90 125.79 92.54 125.32 C 93.67 128.41 94.53 131.59 95.22 134.80 C 92.93 135.18 90.64 135.53 88.36 135.98 C 87.59 136.72 86.95 137.58 86.31 138.44 C 86.02 140.61 88.08 142.14 89.22 143.73 C 94.67 149.53 99.63 155.99 102.31 163.57 C 101.03 163.42 99.77 163.29 98.50 163.15 C 98.47 163.96 98.44 164.76 98.40 165.57 C 96.89 167.38 95.47 169.26 93.99 171.09 C 93.24 171.46 92.49 171.82 91.74 172.18 C 92.04 165.01 88.72 158.58 86.23 152.08 C 85.30 149.51 84.38 146.95 83.42 144.40 C 79.49 144.26 73.86 146.61 71.35 142.46 C 69.15 139.52 72.08 136.44 73.37 133.82 C 72.30 131.77 71.21 129.73 70.13 127.69 C 71.93 126.79 73.74 125.90 75.54 124.99 C 72.24 121.53 68.58 118.43 64.60 115.76 C 62.55 119.33 61.40 123.31 60.93 127.38 C 63.18 127.62 65.43 127.87 67.68 128.11 C 68.17 129.21 68.67 130.31 69.16 131.41 C 65.87 131.23 62.56 131.11 59.32 130.44 C 57.86 126.72 55.69 123.35 53.24 120.21 C 53.66 118.91 54.07 117.61 54.50 116.32 M 73.40 135.92 C 74.29 139.18 77.26 140.62 80.17 141.73 C 80.47 140.21 81.40 138.71 81.07 137.14 C 79.51 134.48 75.88 136.19 73.40 135.92 Z" />
<path fill="#661f20" opacity="1.00" d=" M 48.80 148.16 C 50.70 145.16 53.74 143.16 56.57 141.13 C 57.94 142.82 60.06 144.34 60.07 146.73 C 60.28 149.59 60.12 152.46 59.99 155.32 C 59.09 157.23 58.17 159.13 57.15 160.98 C 57.05 159.78 56.95 158.59 56.84 157.40 C 52.94 155.81 48.70 152.84 48.80 148.16 Z" />
<path fill="#661f20" opacity="1.00" d=" M 62.94 151.49 C 65.60 149.62 69.76 149.27 71.81 152.24 C 74.34 155.23 73.72 159.26 73.18 162.81 C 72.53 165.81 74.29 168.51 75.52 171.10 C 76.41 168.86 77.27 166.61 78.09 164.34 C 75.88 160.75 74.90 156.61 74.75 152.43 C 76.01 152.33 77.27 152.23 78.54 152.13 C 79.06 151.55 79.58 150.97 80.09 150.39 C 81.03 150.65 81.96 150.91 82.90 151.17 C 81.85 154.33 81.28 157.61 80.91 160.91 C 80.60 163.24 80.17 165.56 79.68 167.87 C 79.60 168.22 79.45 168.93 79.38 169.28 C 78.25 171.58 76.81 173.71 75.33 175.80 C 72.66 170.94 70.97 165.64 69.60 160.29 C 69.15 160.79 68.70 161.29 68.24 161.80 C 68.58 158.64 68.35 155.46 68.06 152.32 C 66.35 152.04 64.64 151.77 62.94 151.49 Z" />
</g>
</svg>
