<?xml version="1.0" encoding="UTF-8" ?>
<!DOCTYPE svg PUBLIC "-//W3C//DTD SVG 1.1//EN" "http://www.w3.org/Graphics/SVG/1.1/DTD/svg11.dtd">
<svg width="155pt" height="210pt" viewBox="0 0 155 210" version="1.1" xmlns="http://www.w3.org/2000/svg">
<g id="#6f7370ff">
<path fill="#6f7370" opacity="1.00" d=" M 113.84 37.46 C 119.53 36.64 126.05 37.29 130.01 41.95 C 134.03 46.88 136.28 53.09 137.66 59.24 C 138.58 62.43 135.43 64.48 133.66 66.62 C 128.89 71.17 125.68 76.95 121.97 82.32 C 121.17 80.62 120.24 78.93 119.88 77.07 C 120.14 75.03 121.80 73.52 122.82 71.81 C 125.66 68.26 124.35 63.29 126.26 59.31 C 128.15 55.12 128.85 50.56 128.81 45.99 C 126.25 48.93 124.02 52.30 123.64 56.28 C 123.40 59.25 121.55 61.58 119.58 63.65 C 119.37 67.42 120.28 71.66 118.19 75.04 C 115.96 76.39 113.42 77.09 110.97 77.90 C 110.79 81.08 110.65 84.26 110.29 87.43 C 107.03 85.34 103.51 83.69 100.25 81.61 C 98.02 80.18 97.17 77.53 95.94 75.33 L 95.63 74.76 C 96.12 72.30 96.59 69.83 96.98 67.35 C 98.04 66.79 99.09 66.19 100.14 65.60 C 104.34 69.40 107.03 75.09 112.80 76.84 C 115.98 64.19 116.85 51.07 116.80 38.07 C 116.06 37.92 114.58 37.61 113.84 37.46 Z" />
<path fill="#6f7370" opacity="1.00" d=" M 111.59 59.56 C 111.00 52.65 111.54 45.72 111.46 38.79 C 112.99 39.28 114.53 39.77 116.06 40.26 C 116.07 46.92 116.47 54.32 111.59 59.56 Z" />
<path fill="#6f7370" opacity="1.00" d=" M 49.61 53.50 C 54.35 51.31 59.32 48.11 64.79 49.45 C 67.63 50.13 70.41 51.04 73.18 51.97 C 67.33 51.84 61.35 50.55 55.62 52.37 C 57.14 52.51 58.66 52.64 60.18 52.75 C 65.21 56.28 67.61 62.69 66.54 68.68 C 65.42 71.37 62.94 73.14 60.94 75.14 C 54.32 75.30 47.62 76.20 41.67 79.29 C 37.43 81.14 33.61 83.79 29.72 86.25 C 28.47 83.87 27.24 81.49 25.97 79.12 C 25.95 81.09 26.00 83.06 26.11 85.03 C 23.75 80.18 27.09 74.99 27.15 70.00 C 26.82 63.54 24.18 57.37 24.57 50.85 C 26.54 56.79 27.19 63.02 28.23 69.15 C 29.96 66.97 31.68 64.78 33.56 62.72 C 37.98 58.26 44.12 56.28 49.61 53.50 M 38.15 64.76 C 35.61 68.21 36.62 72.70 39.31 75.73 C 42.94 75.89 43.68 71.22 42.43 68.59 C 42.10 66.36 39.93 65.58 38.15 64.76 Z" />
<path fill="#6f7370" opacity="1.00" d=" M 73.33 60.24 C 76.63 57.88 82.22 60.63 81.69 64.88 C 81.79 67.91 79.66 70.32 76.83 71.11 C 75.67 68.44 73.62 66.55 70.61 66.37 C 71.29 64.27 71.29 61.57 73.33 60.24 Z" />
<path fill="#6f7370" opacity="1.00" d=" M 120.91 63.61 C 123.88 64.44 123.87 67.31 123.20 69.77 C 120.35 68.86 120.71 65.97 120.91 63.61 Z" />
<path fill="#6f7370" opacity="1.00" d=" M 47.76 81.87 C 55.41 79.98 63.26 78.71 71.16 78.89 C 70.95 79.47 70.51 80.64 70.29 81.22 C 62.80 80.51 55.12 81.83 48.73 85.96 C 48.72 92.32 48.77 98.69 49.31 105.03 C 47.62 105.19 45.93 105.35 44.24 105.51 C 43.95 107.62 43.66 109.74 43.39 111.86 C 43.13 108.94 42.79 106.02 42.83 103.08 C 44.04 100.09 46.40 97.74 47.63 94.77 C 48.25 90.50 47.71 86.17 47.76 81.87 Z" />
<path fill="#6f7370" opacity="1.00" d=" M 115.12 80.51 C 120.32 80.00 122.15 85.83 122.34 90.00 C 122.44 92.41 120.15 95.47 117.51 94.57 C 115.20 94.00 114.64 91.44 113.65 89.61 L 114.11 88.77 C 115.86 86.75 115.75 84.29 114.31 82.14 C 114.51 81.73 114.91 80.92 115.12 80.51 Z" />
<path fill="#6f7370" opacity="1.00" d=" M 31.28 90.32 C 34.72 86.21 39.90 84.18 44.88 82.66 C 44.61 87.56 43.79 92.40 43.08 97.25 C 42.97 95.07 42.76 92.90 42.57 90.73 C 39.78 91.59 36.98 92.40 34.16 93.13 C 33.81 98.45 34.51 103.75 36.01 108.86 C 36.07 110.29 36.12 111.72 36.17 113.15 C 35.10 110.27 33.61 107.58 32.23 104.85 C 31.75 103.24 31.27 101.62 30.85 99.99 C 30.36 96.86 29.09 93.08 31.28 90.32 Z" />
<path fill="#6f7370" opacity="1.00" d=" M 58.58 108.83 C 62.44 100.38 66.59 92.04 69.56 83.21 C 72.78 84.52 76.13 85.48 79.57 85.94 C 76.19 88.68 72.49 90.99 68.83 93.34 C 74.11 94.29 79.10 90.49 80.26 85.40 C 82.59 82.86 86.05 82.59 89.31 82.74 C 87.96 83.38 86.62 84.03 85.30 84.71 C 87.06 85.76 88.81 86.83 90.56 87.92 C 88.67 88.52 86.78 89.12 84.89 89.73 C 86.32 90.11 87.76 90.49 89.20 90.87 C 86.75 90.99 84.30 91.08 81.86 91.35 C 79.65 91.74 77.48 92.35 75.31 92.91 C 75.84 94.35 76.38 95.79 76.93 97.22 C 75.80 96.58 74.71 95.88 73.62 95.17 C 73.44 97.38 73.22 99.59 73.00 101.80 C 75.25 101.76 77.50 101.73 79.75 101.67 C 85.74 101.89 91.88 102.11 97.56 99.88 C 96.12 97.85 94.61 95.87 92.99 93.98 C 92.33 95.05 91.66 96.12 91.00 97.19 C 90.82 96.59 90.46 95.40 90.28 94.80 C 90.17 94.38 89.95 93.53 89.83 93.11 C 91.20 92.20 92.56 91.29 93.93 90.39 C 96.26 94.01 99.78 97.43 100.04 101.94 C 100.26 105.76 95.58 105.37 92.97 106.03 C 81.52 107.12 70.11 109.01 58.58 108.83 Z" />
<path fill="#6f7370" opacity="1.00" d=" M 123.94 92.03 C 127.88 94.86 132.46 96.59 137.29 97.13 C 136.85 104.94 134.43 112.64 130.40 119.35 C 129.43 121.37 126.81 120.97 125.00 121.62 C 123.03 114.46 121.49 107.07 117.79 100.54 C 119.37 99.29 121.04 98.14 122.69 96.98 C 124.19 102.07 128.03 105.80 132.68 108.16 C 130.64 103.42 128.74 98.13 124.04 95.37 C 124.00 94.26 123.97 93.14 123.94 92.03 Z" />
<path fill="#6f7370" opacity="1.00" d=" M 109.36 107.26 C 111.63 104.58 112.20 100.97 113.28 97.73 C 114.08 99.44 114.79 101.20 115.35 103.01 C 116.26 106.36 115.89 109.87 115.83 113.29 C 115.58 110.60 115.15 107.93 114.73 105.26 C 110.63 106.84 108.65 110.86 106.35 114.29 C 103.01 119.45 97.77 122.87 93.37 127.03 C 92.12 126.86 90.88 126.68 89.63 126.51 C 93.37 122.39 98.33 119.13 100.30 113.70 C 103.37 111.63 106.75 109.92 109.36 107.26 Z" />
<path fill="#6f7370" opacity="1.00" d=" M 37.27 118.18 C 41.77 120.45 46.66 118.54 51.14 117.26 C 51.39 118.29 51.66 119.32 51.92 120.36 C 52.41 120.34 53.40 120.31 53.89 120.29 C 55.62 123.12 57.13 126.14 59.40 128.59 C 62.08 130.90 65.67 131.68 68.91 132.91 C 67.98 134.93 67.05 137.00 65.69 138.77 C 64.20 140.60 61.70 140.94 59.58 141.59 C 58.52 141.85 57.46 142.12 56.40 142.40 C 55.98 141.22 55.56 140.04 55.14 138.86 C 52.93 139.62 50.71 140.35 48.47 141.05 C 48.44 134.80 47.16 128.58 44.39 122.95 C 44.68 126.35 45.10 129.74 45.47 133.14 C 43.67 133.48 41.86 133.81 40.06 134.13 C 39.17 130.31 39.26 125.87 36.24 122.97 C 36.88 122.94 38.16 122.90 38.80 122.87 C 38.27 121.31 37.73 119.76 37.27 118.18 Z" />
<path fill="#6f7370" opacity="1.00" d=" M 74.66 135.42 C 76.56 135.80 78.51 136.03 80.31 136.75 C 81.04 137.77 81.61 138.90 82.22 140.00 C 80.56 140.25 78.66 140.94 77.13 139.88 C 75.52 139.00 75.37 136.94 74.66 135.42 Z" />
<path fill="#6f7370" opacity="1.00" d=" M 60.27 151.67 C 62.75 150.76 65.36 150.17 68.02 150.37 C 68.55 153.56 69.13 156.74 69.65 159.93 C 69.45 161.95 69.14 163.96 68.73 165.95 C 63.69 167.61 58.52 169.93 53.09 169.14 C 50.91 168.81 49.96 166.54 48.67 165.03 L 48.16 164.34 C 50.87 163.95 53.60 163.77 56.34 163.63 C 56.87 162.12 57.42 160.62 58.02 159.13 C 59.05 156.74 59.78 154.23 60.27 151.67 Z" />
<path fill="#6f7370" opacity="1.00" d=" M 83.06 152.66 C 83.67 152.69 84.91 152.74 85.53 152.76 C 89.60 157.32 90.78 163.52 93.80 168.71 C 94.81 166.98 95.82 165.25 96.74 163.48 C 97.80 164.47 98.85 165.47 99.89 166.48 C 97.34 167.53 95.57 169.60 95.16 172.36 C 92.21 172.81 89.18 173.15 86.22 172.58 C 86.78 169.49 85.73 166.55 83.87 164.11 C 81.17 160.81 82.51 156.44 83.06 152.66 Z" />
<path fill="#6f7370" opacity="1.00" d=" M 39.37 168.13 C 43.52 169.27 47.66 170.82 52.02 170.80 C 55.85 170.79 59.68 170.57 63.51 170.49 C 60.41 173.56 56.10 173.44 52.08 172.84 C 49.72 172.73 46.92 172.19 45.02 173.99 C 43.79 175.49 43.54 177.51 42.92 179.29 C 41.05 175.82 39.73 172.07 39.37 168.13 Z" />
<path fill="#6f7370" opacity="1.00" d=" M 48.14 175.31 C 48.84 173.78 50.59 173.26 52.08 172.84 L 52.21 173.25 C 51.58 174.25 50.81 175.12 49.90 175.87 C 49.33 176.62 47.43 176.66 48.14 175.31 Z" />
<path fill="#6f7370" opacity="1.00" d=" M 54.95 176.99 C 57.25 177.22 59.66 177.28 61.79 178.27 C 63.22 180.28 63.95 182.68 64.83 184.96 C 63.63 184.79 62.43 184.61 61.24 184.42 C 59.85 183.78 58.49 183.10 57.12 182.43 C 56.26 182.98 55.39 183.54 54.51 184.09 C 48.44 188.78 40.49 186.05 33.51 187.22 C 32.79 189.47 32.11 191.73 31.16 193.89 C 30.62 194.00 29.55 194.21 29.01 194.31 C 29.14 191.32 27.40 186.38 31.35 185.26 C 35.67 184.20 40.18 184.82 44.58 184.69 C 44.93 183.71 45.28 182.74 45.63 181.77 C 45.95 180.86 46.27 179.96 46.58 179.06 C 50.68 180.36 54.99 180.76 59.26 180.28 C 57.84 179.15 56.43 178.03 54.95 176.99 Z" />
<path fill="#6f7370" opacity="1.00" d=" M 85.52 179.58 C 85.85 179.53 86.53 179.43 86.87 179.37 C 88.55 180.34 90.16 181.41 91.79 182.46 C 90.88 183.34 89.98 184.22 89.08 185.11 C 91.87 183.64 94.67 182.17 97.48 180.74 C 97.38 180.25 97.18 179.26 97.09 178.77 C 98.04 180.13 98.92 181.55 99.82 182.95 C 100.06 183.33 100.56 184.10 100.81 184.48 C 102.69 184.66 104.58 184.70 106.47 184.73 C 107.09 184.75 108.32 184.77 108.94 184.78 C 112.07 184.98 115.96 184.00 118.28 186.74 C 118.91 189.02 118.71 191.42 118.80 193.77 C 117.60 193.79 116.40 193.78 115.21 193.75 C 114.78 191.57 114.34 189.38 113.92 187.20 C 106.86 187.19 99.86 185.14 92.82 186.31 C 89.56 186.82 86.44 185.48 83.39 184.56 C 84.08 182.89 84.76 181.22 85.52 179.58 M 94.74 183.25 C 94.34 184.67 96.75 185.10 97.22 183.88 C 97.62 182.46 95.22 182.02 94.74 183.25 Z" />
</g>
<g id="#efefe3ff">
<path fill="#efefe3" opacity="1.00" d=" M 111.46 38.79 C 112.05 38.46 113.24 37.79 113.84 37.46 C 114.58 37.61 116.06 37.92 116.80 38.07 C 116.85 51.07 115.98 64.19 112.80 76.84 C 107.03 75.09 104.34 69.40 100.14 65.60 C 97.78 64.26 95.25 63.26 92.75 62.22 C 91.51 66.04 90.90 70.02 90.74 74.03 C 92.02 73.69 93.30 73.36 94.58 73.04 C 94.84 73.47 95.36 74.33 95.63 74.76 L 95.94 75.33 C 89.41 77.91 82.56 75.59 75.87 75.28 C 64.28 74.51 53.18 78.78 41.67 79.29 C 47.62 76.20 54.32 75.30 60.94 75.14 C 63.53 74.88 66.67 74.51 67.89 71.81 C 70.10 67.07 70.08 61.40 68.77 56.40 C 67.60 52.85 63.15 53.31 60.18 52.75 C 58.66 52.64 57.14 52.51 55.62 52.37 C 61.35 50.55 67.33 51.84 73.18 51.97 C 70.41 51.04 67.63 50.13 64.79 49.45 C 65.58 47.85 66.26 46.19 67.24 44.70 C 70.51 44.09 72.01 48.25 75.10 48.54 C 82.08 49.69 89.49 50.47 95.49 54.55 C 101.87 58.98 105.73 65.89 109.72 72.34 C 110.51 68.11 110.24 63.67 111.59 59.56 C 116.47 54.32 116.07 46.92 116.06 40.26 C 114.53 39.77 112.99 39.28 111.46 38.79 M 73.33 60.24 C 71.29 61.57 71.29 64.27 70.61 66.37 C 71.46 69.27 74.14 70.46 76.83 71.11 C 79.66 70.32 81.79 67.91 81.69 64.88 C 82.22 60.63 76.63 57.88 73.33 60.24 Z" />
<path fill="#efefe3" opacity="1.00" d=" M 114.31 82.14 C 115.75 84.29 115.86 86.75 114.11 88.77 C 113.76 86.56 113.64 84.31 114.31 82.14 Z" />
<path fill="#efefe3" opacity="1.00" d=" M 81.86 91.35 C 84.30 91.08 86.75 90.99 89.20 90.87 C 89.36 91.43 89.67 92.55 89.83 93.11 C 89.95 93.53 90.17 94.38 90.28 94.80 C 90.16 96.07 90.03 97.35 89.90 98.62 C 86.52 99.67 83.18 100.82 79.75 101.67 C 77.50 101.73 75.25 101.76 73.00 101.80 C 73.22 99.59 73.44 97.38 73.62 95.17 C 74.71 95.88 75.80 96.58 76.93 97.22 C 78.51 97.80 80.12 98.29 81.72 98.81 C 81.75 96.32 81.80 93.84 81.86 91.35 Z" />
<path fill="#efefe3" opacity="1.00" d=" M 95.16 172.36 C 95.57 169.60 97.34 167.53 99.89 166.48 C 99.09 169.59 98.50 172.96 96.41 175.50 C 94.51 177.36 91.69 176.46 89.47 175.81 C 91.16 175.45 92.83 175.04 94.50 174.63 C 94.67 174.06 95.00 172.93 95.16 172.36 Z" />
<path fill="#efefe3" opacity="1.00" d=" M 46.58 179.06 C 48.80 178.28 51.03 177.52 53.30 176.89 C 53.71 176.91 54.54 176.96 54.95 176.99 C 56.43 178.03 57.84 179.15 59.26 180.28 C 54.99 180.76 50.68 180.36 46.58 179.06 Z" />
<path fill="#efefe3" opacity="1.00" d=" M 86.87 179.37 C 90.24 178.85 93.67 178.52 97.09 178.77 C 97.18 179.26 97.38 180.25 97.48 180.74 C 94.67 182.17 91.87 183.64 89.08 185.11 C 89.98 184.22 90.88 183.34 91.79 182.46 C 90.16 181.41 88.55 180.34 86.87 179.37 Z" />
<path fill="#efefe3" opacity="1.00" d=" M 54.51 184.09 C 55.39 183.54 56.26 182.98 57.12 182.43 C 58.49 183.10 59.85 183.78 61.24 184.42 C 59.00 184.26 56.75 184.20 54.51 184.09 Z" />
</g>
<g id="#0d1113ff">
<path fill="#0d1113" opacity="1.00" d=" M 123.64 56.28 C 124.02 52.30 126.25 48.93 128.81 45.99 C 128.85 50.56 128.15 55.12 126.26 59.31 C 124.35 63.29 125.66 68.26 122.82 71.81 C 121.80 73.52 120.14 75.03 119.88 77.07 C 120.24 78.93 121.17 80.62 121.97 82.32 C 123.73 85.25 123.97 88.69 123.94 92.03 C 123.97 93.14 124.00 94.26 124.04 95.37 C 128.74 98.13 130.64 103.42 132.68 108.16 C 128.03 105.80 124.19 102.07 122.69 96.98 C 121.04 98.14 119.37 99.29 117.79 100.54 C 116.92 101.31 116.11 102.13 115.35 103.01 C 114.79 101.20 114.08 99.44 113.28 97.73 C 110.19 92.06 104.97 88.08 100.09 84.06 C 103.22 85.68 106.53 89.44 110.29 87.43 C 110.65 84.26 110.79 81.08 110.97 77.90 C 113.42 77.09 115.96 76.39 118.19 75.04 C 120.28 71.66 119.37 67.42 119.58 63.65 C 121.55 61.58 123.40 59.25 123.64 56.28 M 120.91 63.61 C 120.71 65.97 120.35 68.86 123.20 69.77 C 123.87 67.31 123.88 64.44 120.91 63.61 M 115.12 80.51 C 114.91 80.92 114.51 81.73 114.31 82.14 C 113.64 84.31 113.76 86.56 114.11 88.77 L 113.65 89.61 C 114.64 91.44 115.20 94.00 117.51 94.57 C 120.15 95.47 122.44 92.41 122.34 90.00 C 122.15 85.83 120.32 80.00 115.12 80.51 Z" />
<path fill="#0d1113" opacity="1.00" d=" M 75.31 92.91 C 77.48 92.35 79.65 91.74 81.86 91.35 C 81.80 93.84 81.75 96.32 81.72 98.81 C 80.12 98.29 78.51 97.80 76.93 97.22 C 76.38 95.79 75.84 94.35 75.31 92.91 Z" />
<path fill="#0d1113" opacity="1.00" d=" M 61.03 127.22 C 61.77 123.19 63.27 119.35 65.51 115.92 C 69.27 118.75 72.77 121.91 76.10 125.22 C 74.24 126.15 72.37 127.07 70.50 128.00 C 71.47 130.02 72.52 132.00 73.47 134.03 C 72.46 136.63 70.22 139.41 71.46 142.30 C 72.75 145.89 77.24 146.59 80.52 145.81 C 81.70 144.15 82.71 142.37 83.71 140.61 C 85.73 144.33 88.20 148.69 85.53 152.76 C 84.91 152.74 83.67 152.69 83.06 152.66 C 80.34 152.63 77.62 152.70 74.91 152.76 C 75.53 156.54 76.70 160.19 77.81 163.84 C 78.77 166.49 76.86 168.97 75.99 171.36 C 75.02 169.38 73.67 167.48 73.31 165.27 C 73.16 161.46 75.21 157.51 73.37 153.85 C 72.70 151.44 70.04 151.06 68.02 150.37 C 65.36 150.17 62.75 150.76 60.27 151.67 C 58.80 151.07 57.34 150.46 55.88 149.86 C 57.28 149.46 58.69 149.07 60.09 148.68 C 59.91 146.32 59.75 143.95 59.58 141.59 C 61.70 140.94 64.20 140.60 65.69 138.77 C 67.05 137.00 67.98 134.93 68.91 132.91 C 68.97 131.44 68.97 129.96 68.76 128.50 C 66.23 127.84 63.61 127.58 61.03 127.22 Z" />
<path fill="#0d1113" opacity="1.00" d=" M 99.35 157.94 C 101.92 162.20 104.38 166.70 104.98 171.74 C 105.86 176.01 105.14 181.09 108.60 184.37 L 108.94 184.78 C 108.32 184.77 107.09 184.75 106.47 184.73 C 104.33 183.87 102.08 183.34 99.82 182.95 C 98.92 181.55 98.04 180.13 97.09 178.77 C 93.67 178.52 90.24 178.85 86.87 179.37 C 86.53 179.43 85.85 179.53 85.52 179.58 C 84.76 181.22 84.08 182.89 83.39 184.56 C 86.44 185.48 89.56 186.82 92.82 186.31 C 99.86 185.14 106.86 187.19 113.92 187.20 C 114.34 189.38 114.78 191.57 115.21 193.75 C 87.19 193.92 59.17 193.63 31.16 193.89 C 32.11 191.73 32.79 189.47 33.51 187.22 C 40.49 186.05 48.44 188.78 54.51 184.09 C 56.75 184.20 59.00 184.26 61.24 184.42 C 62.43 184.61 63.63 184.79 64.83 184.96 C 63.95 182.68 63.22 180.28 61.79 178.27 C 59.66 177.28 57.25 177.22 54.95 176.99 C 54.54 176.96 53.71 176.91 53.30 176.89 C 52.95 175.67 52.59 174.46 52.21 173.25 L 52.08 172.84 C 56.10 173.44 60.41 173.56 63.51 170.49 C 65.49 169.29 67.28 167.77 68.73 165.95 C 69.14 163.96 69.45 161.95 69.65 159.93 C 71.03 165.74 72.81 171.55 76.33 176.45 C 77.64 174.64 78.96 172.83 80.27 171.02 C 83.14 172.96 86.10 174.88 89.47 175.81 C 91.69 176.46 94.51 177.36 96.41 175.50 C 98.50 172.96 99.09 169.59 99.89 166.48 C 98.85 165.47 97.80 164.47 96.74 163.48 C 97.66 161.65 98.50 159.79 99.35 157.94 Z" />
</g>
<g id="#b6b49dff">
<path fill="#b6b49d" opacity="1.00" d=" M 24.57 50.85 C 26.66 50.60 28.75 50.37 30.84 50.11 C 31.79 54.31 32.54 58.54 33.56 62.72 C 31.68 64.78 29.96 66.97 28.23 69.15 C 27.19 63.02 26.54 56.79 24.57 50.85 Z" />
<path fill="#b6b49d" opacity="1.00" d=" M 60.18 52.75 C 63.15 53.31 67.60 52.85 68.77 56.40 C 70.08 61.40 70.10 67.07 67.89 71.81 C 66.67 74.51 63.53 74.88 60.94 75.14 C 62.94 73.14 65.42 71.37 66.54 68.68 C 67.61 62.69 65.21 56.28 60.18 52.75 Z" />
<path fill="#b6b49d" opacity="1.00" d=" M 92.75 62.22 C 95.25 63.26 97.78 64.26 100.14 65.60 C 99.09 66.19 98.04 66.79 96.98 67.35 C 95.33 68.13 93.61 68.75 91.91 69.40 C 92.83 70.59 93.74 71.79 94.58 73.04 C 93.30 73.36 92.02 73.69 90.74 74.03 C 90.90 70.02 91.51 66.04 92.75 62.22 Z" />
<path fill="#b6b49d" opacity="1.00" d=" M 70.61 66.37 C 73.62 66.55 75.67 68.44 76.83 71.11 C 74.14 70.46 71.46 69.27 70.61 66.37 Z" />
<path fill="#b6b49d" opacity="1.00" d=" M 41.67 79.29 C 53.18 78.78 64.28 74.51 75.87 75.28 C 82.56 75.59 89.41 77.91 95.94 75.33 C 97.17 77.53 98.02 80.18 100.25 81.61 C 103.51 83.69 107.03 85.34 110.29 87.43 C 106.53 89.44 103.22 85.68 100.09 84.06 C 104.97 88.08 110.19 92.06 113.28 97.73 C 112.20 100.97 111.63 104.58 109.36 107.26 C 106.75 109.92 103.37 111.63 100.30 113.70 C 99.69 113.32 98.46 112.56 97.84 112.18 C 100.19 107.40 102.72 102.28 102.30 96.81 C 101.25 93.82 98.51 91.84 96.66 89.36 C 94.12 86.60 92.47 82.93 89.29 80.83 C 83.46 78.96 77.20 79.32 71.16 78.89 C 63.26 78.71 55.41 79.98 47.76 81.87 C 46.80 82.12 45.84 82.38 44.88 82.66 C 39.90 84.18 34.72 86.21 31.28 90.32 C 29.09 93.08 30.36 96.86 30.85 99.99 C 30.32 99.79 29.26 99.38 28.72 99.17 C 28.58 100.53 28.44 101.89 28.34 103.26 C 28.25 97.10 27.30 91.05 26.11 85.03 C 26.00 83.06 25.95 81.09 25.97 79.12 C 27.24 81.49 28.47 83.87 29.72 86.25 C 33.61 83.79 37.43 81.14 41.67 79.29 Z" />
<path fill="#b6b49d" opacity="1.00" d=" M 48.73 85.96 C 55.12 81.83 62.80 80.51 70.29 81.22 C 70.11 81.72 69.75 82.71 69.56 83.21 C 66.59 92.04 62.44 100.38 58.58 108.83 C 56.87 112.59 55.35 116.43 53.89 120.29 C 53.40 120.31 52.41 120.34 51.92 120.36 C 51.66 119.32 51.39 118.29 51.14 117.26 C 50.15 113.25 49.64 109.14 49.31 105.03 C 48.77 98.69 48.72 92.32 48.73 85.96 Z" />
<path fill="#b6b49d" opacity="1.00" d=" M 79.57 85.94 L 80.26 85.40 C 79.10 90.49 74.11 94.29 68.83 93.34 C 72.49 90.99 76.19 88.68 79.57 85.94 Z" />
<path fill="#b6b49d" opacity="1.00" d=" M 34.16 93.13 C 36.98 92.40 39.78 91.59 42.57 90.73 C 42.76 92.90 42.97 95.07 43.08 97.25 C 42.98 99.19 42.88 101.14 42.83 103.08 C 42.79 106.02 43.13 108.94 43.39 111.86 C 40.40 113.49 38.06 110.64 36.01 108.86 C 34.51 103.75 33.81 98.45 34.16 93.13 Z" />
<path fill="#b6b49d" opacity="1.00" d=" M 92.99 93.98 C 94.61 95.87 96.12 97.85 97.56 99.88 C 91.88 102.11 85.74 101.89 79.75 101.67 C 83.18 100.82 86.52 99.67 89.90 98.62 C 90.03 97.35 90.16 96.07 90.28 94.80 C 90.46 95.40 90.82 96.59 91.00 97.19 C 91.66 96.12 92.33 95.05 92.99 93.98 Z" />
<path fill="#b6b49d" opacity="1.00" d=" M 32.23 104.85 C 33.61 107.58 35.10 110.27 36.17 113.15 C 36.49 114.84 36.83 116.52 37.27 118.18 C 37.73 119.76 38.27 121.31 38.80 122.87 C 38.16 122.90 36.88 122.94 36.24 122.97 C 32.61 121.73 31.96 116.53 31.86 113.09 C 31.92 110.34 32.16 107.60 32.23 104.85 Z" />
<path fill="#b6b49d" opacity="1.00" d=" M 106.35 114.29 C 108.65 110.86 110.63 106.84 114.73 105.26 C 115.15 107.93 115.58 110.60 115.83 113.29 C 116.32 118.18 115.17 123.06 115.58 127.93 C 115.63 129.59 117.45 130.93 116.62 132.63 C 115.39 135.10 113.64 137.33 112.97 140.05 C 110.97 147.42 108.25 154.65 104.19 161.15 C 102.07 156.96 99.75 152.85 96.83 149.17 C 94.28 145.82 91.11 142.89 89.23 139.08 C 90.42 136.55 93.26 135.49 95.45 133.99 C 94.73 131.68 94.04 129.36 93.37 127.03 C 97.77 122.87 103.01 119.45 106.35 114.29 Z" />
<path fill="#b6b49d" opacity="1.00" d=" M 48.67 165.03 C 49.96 166.54 50.91 168.81 53.09 169.14 C 58.52 169.93 63.69 167.61 68.73 165.95 C 67.28 167.77 65.49 169.29 63.51 170.49 C 59.68 170.57 55.85 170.79 52.02 170.80 C 47.66 170.82 43.52 169.27 39.37 168.13 C 40.68 163.89 46.06 167.72 48.67 165.03 Z" />
<path fill="#b6b49d" opacity="1.00" d=" M 80.06 168.37 C 82.08 169.83 84.09 171.29 86.22 172.58 C 89.18 173.15 92.21 172.81 95.16 172.36 C 95.00 172.93 94.67 174.06 94.50 174.63 C 92.83 175.04 91.16 175.45 89.47 175.81 C 86.10 174.88 83.14 172.96 80.27 171.02 C 80.20 170.13 80.13 169.25 80.06 168.37 Z" />
<path fill="#b6b49d" opacity="1.00" d=" M 94.74 183.25 C 95.22 182.02 97.62 182.46 97.22 183.88 C 96.75 185.10 94.34 184.67 94.74 183.25 Z" />
</g>
<g id="#1e475aff">
<path fill="#1e475a" opacity="1.00" d=" M 38.15 64.76 C 39.93 65.58 42.10 66.36 42.43 68.59 C 43.68 71.22 42.94 75.89 39.31 75.73 C 36.62 72.70 35.61 68.21 38.15 64.76 Z" />
<path fill="#1e475a" opacity="1.00" d=" M 91.91 69.40 C 93.61 68.75 95.33 68.13 96.98 67.35 C 96.59 69.83 96.12 72.30 95.63 74.76 C 95.36 74.33 94.84 73.47 94.58 73.04 C 93.74 71.79 92.83 70.59 91.91 69.40 Z" />
<path fill="#1e475a" opacity="1.00" d=" M 71.16 78.89 C 77.20 79.32 83.46 78.96 89.29 80.83 C 92.47 82.93 94.12 86.60 96.66 89.36 C 98.51 91.84 101.25 93.82 102.30 96.81 C 102.72 102.28 100.19 107.40 97.84 112.18 C 98.46 112.56 99.69 113.32 100.30 113.70 C 98.33 119.13 93.37 122.39 89.63 126.51 C 90.88 126.68 92.12 126.86 93.37 127.03 C 94.04 129.36 94.73 131.68 95.45 133.99 C 93.26 135.49 90.42 136.55 89.23 139.08 C 91.11 142.89 94.28 145.82 96.83 149.17 C 99.75 152.85 102.07 156.96 104.19 161.15 C 107.41 168.37 109.33 176.44 108.60 184.37 C 105.14 181.09 105.86 176.01 104.98 171.74 C 104.38 166.70 101.92 162.20 99.35 157.94 C 98.50 159.79 97.66 161.65 96.74 163.48 C 95.82 165.25 94.81 166.98 93.80 168.71 C 90.78 163.52 89.60 157.32 85.53 152.76 C 88.20 148.69 85.73 144.33 83.71 140.61 C 82.71 142.37 81.70 144.15 80.52 145.81 C 77.24 146.59 72.75 145.89 71.46 142.30 C 70.22 139.41 72.46 136.63 73.47 134.03 C 72.52 132.00 71.47 130.02 70.50 128.00 C 72.37 127.07 74.24 126.15 76.10 125.22 C 72.77 121.91 69.27 118.75 65.51 115.92 C 63.27 119.35 61.77 123.19 61.03 127.22 C 63.61 127.58 66.23 127.84 68.76 128.50 C 68.97 129.96 68.97 131.44 68.91 132.91 C 65.67 131.68 62.08 130.90 59.40 128.59 C 57.13 126.14 55.62 123.12 53.89 120.29 C 55.35 116.43 56.87 112.59 58.58 108.83 C 70.11 109.01 81.52 107.12 92.97 106.03 C 95.58 105.37 100.26 105.76 100.04 101.94 C 99.78 97.43 96.26 94.01 93.93 90.39 C 92.56 91.29 91.20 92.20 89.83 93.11 C 89.67 92.55 89.36 91.43 89.20 90.87 C 87.76 90.49 86.32 90.11 84.89 89.73 C 86.78 89.12 88.67 88.52 90.56 87.92 C 88.81 86.83 87.06 85.76 85.30 84.71 C 86.62 84.03 87.96 83.38 89.31 82.74 C 86.05 82.59 82.59 82.86 80.26 85.40 L 79.57 85.94 C 76.13 85.48 72.78 84.52 69.56 83.21 C 69.75 82.71 70.11 81.72 70.29 81.22 C 70.51 80.64 70.95 79.47 71.16 78.89 M 74.66 135.42 C 75.37 136.94 75.52 139.00 77.13 139.88 C 78.66 140.94 80.56 140.25 82.22 140.00 C 81.61 138.90 81.04 137.77 80.31 136.75 C 78.51 136.03 76.56 135.80 74.66 135.42 Z" />
<path fill="#1e475a" opacity="1.00" d=" M 44.88 82.66 C 45.84 82.38 46.80 82.12 47.76 81.87 C 47.71 86.17 48.25 90.50 47.63 94.77 C 46.40 97.74 44.04 100.09 42.83 103.08 C 42.88 101.14 42.98 99.19 43.08 97.25 C 43.79 92.40 44.61 87.56 44.88 82.66 Z" />
<path fill="#1e475a" opacity="1.00" d=" M 28.72 99.17 C 29.26 99.38 30.32 99.79 30.85 99.99 C 31.27 101.62 31.75 103.24 32.23 104.85 C 32.16 107.60 31.92 110.34 31.86 113.09 C 30.62 109.84 28.88 106.72 28.34 103.26 C 28.44 101.89 28.58 100.53 28.72 99.17 Z" />
<path fill="#1e475a" opacity="1.00" d=" M 44.24 105.51 C 45.93 105.35 47.62 105.19 49.31 105.03 C 49.64 109.14 50.15 113.25 51.14 117.26 C 46.66 118.54 41.77 120.45 37.27 118.18 C 36.83 116.52 36.49 114.84 36.17 113.15 C 36.12 111.72 36.07 110.29 36.01 108.86 C 38.06 110.64 40.40 113.49 43.39 111.86 C 43.66 109.74 43.95 107.62 44.24 105.51 Z" />
<path fill="#1e475a" opacity="1.00" d=" M 49.05 149.09 C 50.50 146.14 53.22 143.44 56.40 142.40 C 57.46 142.12 58.52 141.85 59.58 141.59 C 59.75 143.95 59.91 146.32 60.09 148.68 C 58.69 149.07 57.28 149.46 55.88 149.86 C 57.34 150.46 58.80 151.07 60.27 151.67 C 59.78 154.23 59.05 156.74 58.02 159.13 C 54.29 156.62 49.51 154.15 49.05 149.09 Z" />
<path fill="#1e475a" opacity="1.00" d=" M 68.02 150.37 C 70.04 151.06 72.70 151.44 73.37 153.85 C 75.21 157.51 73.16 161.46 73.31 165.27 C 73.67 167.48 75.02 169.38 75.99 171.36 C 76.86 168.97 78.77 166.49 77.81 163.84 C 76.70 160.19 75.53 156.54 74.91 152.76 C 77.62 152.70 80.34 152.63 83.06 152.66 C 82.51 156.44 81.17 160.81 83.87 164.11 C 85.73 166.55 86.78 169.49 86.22 172.58 C 84.09 171.29 82.08 169.83 80.06 168.37 C 80.13 169.25 80.20 170.13 80.27 171.02 C 78.96 172.83 77.64 174.64 76.33 176.45 C 72.81 171.55 71.03 165.74 69.65 159.93 C 69.13 156.74 68.55 153.56 68.02 150.37 Z" />
<path fill="#1e475a" opacity="1.00" d=" M 45.02 173.99 C 46.92 172.19 49.72 172.73 52.08 172.84 C 50.59 173.26 48.84 173.78 48.14 175.31 C 47.43 176.66 49.33 176.62 49.90 175.87 C 50.81 175.12 51.58 174.25 52.21 173.25 C 52.59 174.46 52.95 175.67 53.30 176.89 C 51.03 177.52 48.80 178.28 46.58 179.06 C 46.27 179.96 45.95 180.86 45.63 181.77 C 44.73 180.94 43.83 180.11 42.92 179.29 C 43.54 177.51 43.79 175.49 45.02 173.99 Z" />
</g>
</svg>
