<?xml version="1.0" encoding="UTF-8" ?>
<!DOCTYPE svg PUBLIC "-//W3C//DTD SVG 1.1//EN" "http://www.w3.org/Graphics/SVG/1.1/DTD/svg11.dtd">
<svg width="155pt" height="210pt" viewBox="0 0 155 210" version="1.1" xmlns="http://www.w3.org/2000/svg">
<g id="#65462afe">
<path fill="#65462a" opacity="1.00" d=" M 77.02 65.59 C 79.66 62.76 82.40 60.02 85.16 57.31 C 88.94 62.04 89.79 68.16 89.87 74.03 C 94.30 77.57 99.13 80.87 102.32 85.68 C 105.44 90.49 107.59 96.01 108.05 101.76 C 105.70 104.65 104.40 108.17 103.83 111.82 C 107.81 110.57 111.71 108.66 115.96 108.58 C 118.39 108.55 119.75 110.91 121.21 112.48 C 120.91 113.87 120.62 115.26 120.34 116.65 C 118.75 115.21 117.06 113.88 115.26 112.71 C 114.91 115.75 114.97 118.90 113.88 121.80 C 112.59 124.70 109.33 125.77 106.72 127.13 C 106.10 126.12 105.49 125.10 104.88 124.09 C 105.02 126.62 105.13 129.16 105.46 131.67 C 104.82 132.43 104.17 133.20 103.54 133.97 C 100.97 131.13 98.35 127.12 94.03 127.32 C 88.13 127.53 83.58 131.74 78.48 134.17 C 77.87 133.99 76.64 133.62 76.02 133.43 C 80.14 130.59 84.38 127.92 88.41 124.96 C 83.56 121.51 76.51 121.00 72.10 125.45 C 70.94 126.67 69.85 127.95 68.75 129.23 C 70.57 130.44 72.42 131.60 74.28 132.74 C 74.55 132.89 75.08 133.19 75.35 133.35 C 72.64 133.31 69.93 133.36 67.22 133.31 C 67.24 132.29 67.26 131.28 67.28 130.27 C 64.78 131.09 62.28 131.89 59.77 132.68 C 59.41 130.59 59.05 128.50 58.73 126.41 C 57.04 129.41 54.69 131.98 51.79 133.84 C 52.15 134.75 52.50 135.66 52.86 136.57 C 51.43 135.77 50.01 134.98 48.64 134.09 C 46.97 132.97 45.33 131.81 43.65 130.70 C 42.64 130.01 41.61 129.33 40.60 128.65 C 38.25 126.99 35.64 125.35 34.27 122.74 C 33.14 119.84 32.91 116.70 32.39 113.66 C 36.31 111.72 35.68 107.27 35.74 103.62 C 37.40 93.43 42.82 83.33 51.82 77.85 C 57.37 74.27 63.84 72.61 70.27 71.46 C 70.72 68.80 71.27 66.16 71.91 63.53 C 73.62 64.21 75.32 64.89 77.02 65.59 Z" />
<path fill="#65462a" opacity="1.00" d=" M 80.21 146.23 C 82.08 144.06 83.08 141.30 84.38 138.79 C 83.91 141.82 83.44 144.86 82.89 147.88 C 85.63 147.94 88.38 148.03 91.13 147.98 C 82.18 153.96 71.01 152.25 60.86 152.34 C 55.11 151.62 49.35 149.66 44.76 146.03 C 53.57 146.87 62.71 147.58 71.23 144.61 C 69.58 146.07 67.98 147.57 66.35 149.05 C 70.95 148.09 75.89 148.18 80.21 146.23 Z" />
<path fill="#65462a" opacity="1.00" d=" M 84.21 168.86 C 86.89 171.12 92.32 171.64 91.91 176.13 C 91.83 179.56 87.65 179.67 85.20 180.53 C 84.85 176.65 84.56 172.75 84.21 168.86 Z" />
<path fill="#65462a" opacity="1.00" d=" M 107.50 171.26 C 107.82 171.35 108.46 171.53 108.78 171.63 C 112.03 175.64 115.23 179.73 117.55 184.37 L 117.90 185.00 C 110.75 184.20 103.57 183.51 96.71 181.23 C 96.09 181.05 94.84 180.68 94.22 180.50 L 94.22 179.75 C 95.53 179.63 96.83 179.52 98.13 179.40 C 98.49 178.26 98.86 177.13 99.24 176.00 C 99.72 174.74 100.28 173.52 100.87 172.32 C 103.08 172.00 105.29 171.61 107.50 171.26 Z" />
<path fill="#65462a" opacity="1.00" d=" M 76.01 179.95 C 76.80 179.91 78.37 179.84 79.16 179.80 C 79.15 181.23 79.14 182.66 79.13 184.10 C 78.31 184.11 76.67 184.12 75.85 184.12 C 75.90 182.73 75.95 181.34 76.01 179.95 Z" />
<path fill="#65462a" opacity="1.00" d=" M 46.34 190.90 C 47.55 192.80 48.74 194.84 50.65 196.13 C 53.90 196.40 57.01 195.05 60.18 194.57 C 61.60 194.82 62.99 195.19 64.38 195.56 C 64.34 196.88 64.24 198.19 64.13 199.51 C 60.46 199.38 56.78 199.20 53.12 198.91 C 50.17 197.71 47.40 196.12 44.61 194.62 C 45.19 193.38 45.76 192.14 46.34 190.90 Z" />
<path fill="#65462a" opacity="1.00" d=" M 79.23 196.87 C 82.56 193.87 86.65 191.95 91.00 190.92 C 89.57 193.95 88.10 196.96 86.66 200.00 C 79.94 199.53 73.20 200.03 66.46 199.85 L 67.34 199.52 C 71.07 197.78 75.07 196.61 79.23 196.87 Z" />
</g>
<g id="#ce9f5bfe">
<path fill="#ce9f5b" opacity="1.00" d=" M 108.05 101.76 C 112.07 101.22 116.45 99.67 120.30 101.72 C 124.90 104.26 126.47 110.07 126.03 115.00 C 125.20 121.40 121.21 127.39 115.49 130.47 C 115.72 123.89 122.15 119.27 121.21 112.48 C 119.75 110.91 118.39 108.55 115.96 108.58 C 111.71 108.66 107.81 110.57 103.83 111.82 C 104.40 108.17 105.70 104.65 108.05 101.76 Z" />
<path fill="#ce9f5b" opacity="1.00" d=" M 32.39 113.66 C 30.55 109.87 31.90 105.45 35.74 103.62 C 35.68 107.27 36.31 111.72 32.39 113.66 Z" />
<path fill="#ce9f5b" opacity="1.00" d=" M 78.48 134.17 C 83.58 131.74 88.13 127.53 94.03 127.32 C 98.35 127.12 100.97 131.13 103.54 133.97 C 102.71 136.14 101.90 138.32 101.08 140.50 C 100.57 138.82 100.07 137.14 99.56 135.46 C 96.20 135.99 93.54 138.20 91.21 140.52 C 88.27 139.54 85.37 137.99 82.21 138.06 C 77.90 138.88 74.51 141.91 71.23 144.61 C 62.71 147.58 53.57 146.87 44.76 146.03 C 41.74 145.05 39.48 142.45 38.25 139.61 C 37.05 137.08 38.18 134.33 38.61 131.77 L 39.28 132.39 C 41.33 134.19 43.35 136.50 46.26 136.69 C 50.78 137.17 55.37 137.32 59.76 138.65 C 62.09 137.29 64.34 135.55 67.09 135.15 C 70.87 134.63 74.72 134.87 78.48 134.17 Z" />
<path fill="#ce9f5b" opacity="1.00" d=" M 100.87 172.32 C 101.46 171.12 102.07 169.93 102.70 168.75 C 104.28 169.61 105.87 170.47 107.50 171.26 C 105.29 171.61 103.08 172.00 100.87 172.32 Z" />
<path fill="#ce9f5b" opacity="1.00" d=" M 108.78 171.63 C 111.05 172.26 113.24 173.20 115.13 174.63 C 116.04 175.39 116.53 176.36 116.62 177.53 C 116.67 178.98 116.84 180.43 117.17 181.85 C 117.27 182.48 117.46 183.74 117.55 184.37 C 115.23 179.73 112.03 175.64 108.78 171.63 Z" />
<path fill="#ce9f5b" opacity="1.00" d=" M 41.43 193.06 C 42.50 193.55 43.56 194.07 44.61 194.62 C 47.40 196.12 50.17 197.71 53.12 198.91 C 50.48 198.76 47.85 198.69 45.21 198.82 C 43.78 197.01 42.46 195.12 41.43 193.06 Z" />
</g>
<g id="#987758fe">
<path fill="#987758" opacity="1.00" d=" M 115.26 112.71 C 117.06 113.88 118.75 115.21 120.34 116.65 C 120.62 115.26 120.91 113.87 121.21 112.48 C 122.15 119.27 115.72 123.89 115.49 130.47 L 115.36 131.30 C 112.27 132.42 108.95 133.26 105.67 132.46 L 105.46 131.67 C 105.13 129.16 105.02 126.62 104.88 124.09 C 105.49 125.10 106.10 126.12 106.72 127.13 C 109.33 125.77 112.59 124.70 113.88 121.80 C 114.97 118.90 114.91 115.75 115.26 112.71 Z" />
<path fill="#987758" opacity="1.00" d=" M 91.21 140.52 C 93.54 138.20 96.20 135.99 99.56 135.46 C 100.07 137.14 100.57 138.82 101.08 140.50 L 100.52 140.96 C 97.50 143.43 94.55 146.05 91.13 147.98 C 88.38 148.03 85.63 147.94 82.89 147.88 C 83.44 144.86 83.91 141.82 84.38 138.79 C 83.08 141.30 82.08 144.06 80.21 146.23 C 75.89 148.18 70.95 148.09 66.35 149.05 C 67.98 147.57 69.58 146.07 71.23 144.61 C 74.51 141.91 77.90 138.88 82.21 138.06 C 85.37 137.99 88.27 139.54 91.21 140.52 Z" />
<path fill="#987758" opacity="1.00" d=" M 50.82 166.84 C 58.66 161.14 69.01 162.84 77.79 159.64 C 78.43 160.21 79.07 160.78 79.72 161.35 C 76.90 161.74 74.09 162.13 71.28 162.48 C 73.16 165.02 74.58 167.87 75.42 170.92 C 74.47 169.29 73.54 167.65 72.62 166.00 C 65.36 166.38 58.10 166.88 50.82 166.84 Z" />
<path fill="#987758" opacity="1.00" d=" M 67.24 172.93 C 69.00 175.60 71.29 178.15 71.96 181.37 C 72.27 185.32 71.33 189.23 70.90 193.14 C 72.83 191.49 74.76 189.82 76.67 188.15 C 77.79 188.41 78.91 188.68 80.04 188.94 C 81.57 188.19 83.12 187.48 84.68 186.79 C 84.90 185.56 85.12 184.34 85.30 183.12 C 85.61 186.01 84.56 188.73 83.15 191.19 C 86.05 190.32 88.99 189.57 91.95 188.90 C 91.71 189.41 91.24 190.41 91.00 190.92 C 86.65 191.95 82.56 193.87 79.23 196.87 C 75.07 196.61 71.07 197.78 67.34 199.52 C 66.54 199.52 64.94 199.51 64.13 199.51 C 64.24 198.19 64.34 196.88 64.38 195.56 C 63.30 192.82 61.94 190.19 60.45 187.66 C 62.60 190.47 65.37 192.71 68.30 194.65 C 69.57 191.21 71.15 187.74 71.21 184.01 C 70.86 180.04 68.76 176.53 67.24 172.93 M 77.74 189.45 C 77.76 191.19 77.77 192.93 77.79 194.68 C 79.12 193.85 80.44 193.01 81.77 192.19 C 80.42 191.27 79.08 190.36 77.74 189.45 Z" />
<path fill="#987758" opacity="1.00" d=" M 94.48 175.45 C 96.07 175.62 97.66 175.81 99.24 176.00 C 98.86 177.13 98.49 178.26 98.13 179.40 C 96.83 179.52 95.53 179.63 94.22 179.75 C 94.28 178.31 94.38 176.88 94.48 175.45 Z" />
<path fill="#987758" opacity="1.00" d=" M 66.46 199.85 C 73.20 200.03 79.94 199.53 86.66 200.00 C 91.16 200.25 95.67 200.35 100.18 200.43 C 86.96 201.94 73.59 202.22 60.38 200.54 C 62.41 200.29 64.44 200.10 66.46 199.85 Z" />
</g>
<g id="#9b9a90fe">
<path fill="#9b9a90" opacity="1.00" d=" M 72.10 125.45 C 76.51 121.00 83.56 121.51 88.41 124.96 C 84.38 127.92 80.14 130.59 76.02 133.43 L 75.35 133.35 C 75.08 133.19 74.55 132.89 74.28 132.74 C 74.83 130.03 73.61 127.60 72.10 125.45 Z" />
<path fill="#9b9a90" opacity="1.00" d=" M 43.65 130.70 C 45.33 131.81 46.97 132.97 48.64 134.09 C 46.95 133.00 45.31 131.83 43.65 130.70 Z" />
<path fill="#9b9a90" opacity="1.00" d=" M 71.28 162.48 C 74.09 162.13 76.90 161.74 79.72 161.35 C 82.19 163.17 83.64 165.89 84.21 168.86 C 84.56 172.75 84.85 176.65 85.20 180.53 C 85.23 181.18 85.27 182.47 85.30 183.12 C 85.12 184.34 84.90 185.56 84.68 186.79 C 83.12 187.48 81.57 188.19 80.04 188.94 C 78.91 188.68 77.79 188.41 76.67 188.15 C 74.76 189.82 72.83 191.49 70.90 193.14 C 71.33 189.23 72.27 185.32 71.96 181.37 C 71.29 178.15 69.00 175.60 67.24 172.93 C 68.76 176.53 70.86 180.04 71.21 184.01 C 71.15 187.74 69.57 191.21 68.30 194.65 C 65.37 192.71 62.60 190.47 60.45 187.66 C 59.07 185.94 57.71 184.04 55.68 183.04 C 53.55 182.68 51.44 183.44 49.35 183.74 C 50.05 186.74 50.01 190.28 52.22 192.67 C 54.65 193.98 57.54 193.94 60.18 194.57 C 57.01 195.05 53.90 196.40 50.65 196.13 C 48.74 194.84 47.55 192.80 46.34 190.90 C 43.83 185.19 38.90 179.60 40.31 172.99 C 40.54 167.99 46.79 166.80 50.82 166.84 C 58.10 166.88 65.36 166.38 72.62 166.00 C 73.54 167.65 74.47 169.29 75.42 170.92 C 74.58 167.87 73.16 165.02 71.28 162.48 M 76.01 179.95 C 75.95 181.34 75.90 182.73 75.85 184.12 C 76.67 184.12 78.31 184.11 79.13 184.10 C 79.14 182.66 79.15 181.23 79.16 179.80 C 78.37 179.84 76.80 179.91 76.01 179.95 Z" />
</g>
<g id="#352b22fe">
<path fill="#352b22" opacity="1.00" d=" M 51.79 133.84 C 54.69 131.98 57.04 129.41 58.73 126.41 C 59.05 128.50 59.41 130.59 59.77 132.68 C 62.28 131.89 64.78 131.09 67.28 130.27 C 67.26 131.28 67.24 132.29 67.22 133.31 C 69.93 133.36 72.64 133.31 75.35 133.35 L 76.02 133.43 C 76.64 133.62 77.87 133.99 78.48 134.17 C 74.72 134.87 70.87 134.63 67.09 135.15 C 64.34 135.55 62.09 137.29 59.76 138.65 C 55.37 137.32 50.78 137.17 46.26 136.69 C 43.35 136.50 41.33 134.19 39.28 132.39 C 39.61 131.46 40.27 129.59 40.60 128.65 C 41.61 129.33 42.64 130.01 43.65 130.70 C 45.31 131.83 46.95 133.00 48.64 134.09 C 50.01 134.98 51.43 135.77 52.86 136.57 C 52.50 135.66 52.15 134.75 51.79 133.84 Z" />
<path fill="#352b22" opacity="1.00" d=" M 68.75 129.23 C 69.85 127.95 70.94 126.67 72.10 125.45 C 73.61 127.60 74.83 130.03 74.28 132.74 C 72.42 131.60 70.57 130.44 68.75 129.23 Z" />
<path fill="#352b22" opacity="1.00" d=" M 111.41 139.76 C 114.20 139.26 117.37 139.77 119.77 141.32 C 122.32 143.98 122.04 148.20 121.40 151.57 C 120.35 156.57 114.78 158.60 112.93 163.13 C 113.00 167.05 114.16 170.85 115.13 174.63 C 113.24 173.20 111.05 172.26 108.78 171.63 C 108.46 171.53 107.82 171.35 107.50 171.26 C 105.87 170.47 104.28 169.61 102.70 168.75 C 102.07 169.93 101.46 171.12 100.87 172.32 C 100.28 173.52 99.72 174.74 99.24 176.00 C 97.66 175.81 96.07 175.62 94.48 175.45 C 94.38 176.88 94.28 178.31 94.22 179.75 L 94.22 180.50 C 94.84 180.68 96.09 181.05 96.71 181.23 C 95.85 182.54 94.99 183.85 94.14 185.16 C 95.64 184.90 97.13 184.63 98.63 184.36 C 98.82 185.83 99.01 187.30 99.20 188.78 C 100.23 188.94 101.25 189.11 102.28 189.29 C 101.03 192.75 102.21 196.23 103.87 199.33 C 111.16 199.65 118.46 199.03 125.74 199.54 C 130.15 200.05 128.42 205.69 128.84 208.73 C 95.28 208.75 61.72 208.74 28.16 208.73 C 28.58 205.85 27.18 201.86 29.84 199.86 C 34.89 198.96 40.11 199.50 45.21 198.82 C 47.85 198.69 50.48 198.76 53.12 198.91 C 56.78 199.20 60.46 199.38 64.13 199.51 C 64.94 199.51 66.54 199.52 67.34 199.52 L 66.46 199.85 C 64.44 200.10 62.41 200.29 60.38 200.54 C 73.59 202.22 86.96 201.94 100.18 200.43 C 95.67 200.35 91.16 200.25 86.66 200.00 C 88.10 196.96 89.57 193.95 91.00 190.92 C 91.24 190.41 91.71 189.41 91.95 188.90 C 88.99 189.57 86.05 190.32 83.15 191.19 C 84.56 188.73 85.61 186.01 85.30 183.12 C 85.27 182.47 85.23 181.18 85.20 180.53 C 87.65 179.67 91.83 179.56 91.91 176.13 C 92.32 171.64 86.89 171.12 84.21 168.86 C 83.64 165.89 82.19 163.17 79.72 161.35 C 79.07 160.78 78.43 160.21 77.79 159.64 C 75.93 157.93 75.82 155.22 75.22 152.94 C 70.43 152.85 65.62 152.88 60.86 152.34 C 71.01 152.25 82.18 153.96 91.13 147.98 C 94.55 146.05 97.50 143.43 100.52 140.96 C 101.73 142.54 102.94 144.12 104.16 145.69 C 106.60 143.75 108.76 141.43 111.41 139.76 M 91.64 163.81 C 92.91 165.30 94.22 166.75 95.54 168.21 C 96.03 167.56 97.00 166.26 97.49 165.61 C 95.55 164.99 93.59 164.40 91.64 163.81 Z" />
<path fill="#352b22" opacity="1.00" d=" M 116.62 177.53 C 118.68 177.45 118.92 181.15 117.17 181.85 C 116.84 180.43 116.67 178.98 116.62 177.53 Z" />
<path fill="#352b22" opacity="1.00" d=" M 49.35 183.74 C 51.44 183.44 53.55 182.68 55.68 183.04 C 57.71 184.04 59.07 185.94 60.45 187.66 C 61.94 190.19 63.30 192.82 64.38 195.56 C 62.99 195.19 61.60 194.82 60.18 194.57 C 57.54 193.94 54.65 193.98 52.22 192.67 C 50.01 190.28 50.05 186.74 49.35 183.74 Z" />
<path fill="#352b22" opacity="1.00" d=" M 77.74 189.45 C 79.08 190.36 80.42 191.27 81.77 192.19 C 80.44 193.01 79.12 193.85 77.79 194.68 C 77.77 192.93 77.76 191.19 77.74 189.45 Z" />
</g>
</svg>
