<?xml version="1.0" encoding="UTF-8" ?>
<!DOCTYPE svg PUBLIC "-//W3C//DTD SVG 1.1//EN" "http://www.w3.org/Graphics/SVG/1.1/DTD/svg11.dtd">
<svg width="155pt" height="210pt" viewBox="0 0 155 210" version="1.1" xmlns="http://www.w3.org/2000/svg">
<g id="#523c58ff">
<path fill="#523c58" opacity="1.00" d=" M 63.65 56.43 C 68.86 51.82 75.42 49.32 82.14 47.84 C 87.57 49.23 90.37 54.78 90.27 60.07 C 92.15 59.77 94.02 59.45 95.89 59.07 C 97.39 61.03 98.72 63.12 100.08 65.18 C 100.04 65.75 99.97 66.90 99.93 67.47 C 99.90 67.84 99.83 68.56 99.80 68.92 C 91.52 70.47 83.10 69.35 74.75 69.76 C 71.31 69.97 67.48 69.27 64.45 71.30 C 61.78 72.87 60.14 75.57 58.55 78.13 C 55.84 78.38 53.15 78.75 50.46 79.14 C 49.16 77.75 47.79 76.40 46.69 74.85 C 46.23 70.83 48.38 66.93 51.34 64.34 C 54.07 62.03 54.57 58.32 55.89 55.20 C 56.80 54.55 57.81 54.13 58.93 53.95 C 59.96 55.54 61.44 58.30 63.65 56.43 M 68.26 67.64 C 69.51 68.70 71.64 66.81 70.84 65.45 C 69.64 64.53 67.25 66.25 68.26 67.64 M 58.95 68.35 C 57.75 71.47 62.30 68.09 58.95 68.35 Z" />
<path fill="#523c58" opacity="1.00" d=" M 36.20 57.75 C 37.28 57.78 38.37 57.80 39.46 57.82 C 40.15 60.77 40.46 63.81 40.19 66.85 C 42.58 66.19 44.16 68.05 45.77 69.41 C 46.11 69.00 46.80 68.18 47.15 67.77 C 46.05 71.27 44.69 74.74 44.46 78.44 C 43.78 78.46 42.42 78.49 41.75 78.51 C 40.31 75.64 40.36 72.45 40.74 69.35 C 39.51 69.99 38.31 70.71 37.07 71.34 C 35.94 70.55 34.76 69.83 33.60 69.07 C 30.34 73.78 30.48 79.69 30.12 85.16 C 32.01 83.31 33.94 81.52 35.97 79.83 C 34.34 84.34 32.97 88.93 31.40 93.45 C 31.75 93.77 32.46 94.40 32.81 94.71 C 31.48 96.05 30.15 97.38 28.83 98.73 C 30.25 99.11 31.67 99.46 33.10 99.80 C 30.76 100.02 28.40 99.85 26.11 99.32 C 26.73 98.52 27.35 97.73 27.99 96.96 C 25.78 88.29 26.38 79.05 28.67 70.46 C 30.54 66.87 32.48 63.21 35.21 60.19 C 33.83 62.77 33.32 65.65 33.21 68.54 C 35.35 68.59 37.48 68.63 39.62 68.68 C 39.64 65.19 39.63 61.70 39.43 58.22 C 38.69 58.11 37.23 57.90 36.49 57.79 L 36.20 57.75 M 40.20 67.32 C 40.74 67.87 40.74 67.87 40.20 67.32 Z" />
<path fill="#523c58" opacity="1.00" d=" M 52.48 58.72 C 52.51 58.68 52.58 58.60 52.61 58.56 C 52.58 58.60 52.51 58.68 52.48 58.72 Z" />
<path fill="#523c58" opacity="1.00" d=" M 51.35 60.57 C 51.38 60.52 51.43 60.42 51.46 60.37 C 51.43 60.42 51.38 60.52 51.35 60.57 Z" />
<path fill="#523c58" opacity="1.00" d=" M 50.39 62.64 C 50.41 62.59 50.45 62.49 50.48 62.45 C 50.45 62.49 50.41 62.59 50.39 62.64 Z" />
<path fill="#523c58" opacity="1.00" d=" M 102.29 81.88 C 107.86 80.87 112.22 77.07 116.60 73.77 C 115.79 75.56 114.12 76.69 112.75 78.01 C 114.57 82.85 117.78 87.30 117.80 92.66 C 114.95 88.73 109.36 89.69 105.20 90.29 C 105.33 91.28 105.46 92.28 105.59 93.28 C 107.60 93.92 109.60 94.59 111.64 95.16 C 112.97 98.39 115.78 100.72 117.09 103.98 C 117.23 106.19 117.49 108.53 116.63 110.64 C 115.53 111.93 113.52 111.38 112.07 111.15 C 108.90 110.34 105.89 109.00 102.71 108.20 C 105.04 110.97 108.39 112.42 111.31 114.42 L 111.52 114.45 L 111.63 114.63 C 114.05 119.36 116.54 124.06 119.91 128.19 C 120.45 127.69 121.53 126.70 122.07 126.20 C 123.05 126.77 123.82 127.90 125.06 127.87 C 126.26 126.94 127.28 125.81 128.34 124.74 C 134.19 128.33 130.33 136.03 127.87 140.66 C 128.69 140.73 130.33 140.87 131.15 140.94 C 130.53 143.01 129.80 145.05 128.96 147.04 C 124.90 147.75 121.75 150.62 117.89 151.83 C 114.94 152.88 112.24 150.57 109.43 149.96 C 108.66 152.32 107.86 154.67 107.03 157.02 C 108.03 157.30 109.04 157.57 110.05 157.83 C 109.20 157.67 107.49 157.35 106.64 157.19 C 106.30 157.69 105.60 158.68 105.26 159.17 C 106.13 155.08 108.30 151.24 108.58 147.07 C 106.43 142.73 101.13 141.63 97.14 139.58 C 98.21 138.02 99.28 136.45 100.34 134.88 C 100.20 134.62 99.91 134.08 99.76 133.82 C 99.76 133.75 99.76 133.63 99.76 133.57 C 101.34 132.53 102.76 131.25 104.20 130.01 C 102.13 133.45 101.08 137.41 101.81 141.43 C 103.63 136.14 106.87 131.55 111.13 127.93 C 111.40 127.69 111.94 127.20 112.21 126.95 C 109.88 124.91 107.47 122.97 104.98 121.14 C 104.00 122.21 103.02 123.29 102.04 124.36 L 103.00 124.69 C 102.53 126.25 101.96 127.78 101.41 129.32 C 96.57 126.40 94.22 121.11 91.43 116.46 C 89.59 116.60 87.75 116.75 85.92 116.91 C 86.05 116.50 86.33 115.69 86.46 115.28 C 86.77 114.93 87.39 114.24 87.70 113.90 C 87.41 113.45 86.83 112.57 86.54 112.13 C 86.62 111.35 86.79 109.78 86.87 109.00 C 91.46 110.69 96.22 111.85 101.05 112.60 C 98.30 114.10 102.28 115.99 103.78 116.49 C 103.26 115.22 102.65 113.98 101.98 112.78 C 102.09 112.44 102.31 111.77 102.42 111.43 C 97.20 110.45 92.23 108.50 87.03 107.50 C 87.22 104.54 87.32 101.58 87.55 98.63 C 89.36 98.55 91.16 98.44 92.97 98.39 C 98.12 98.43 103.17 100.73 108.32 99.27 C 103.03 98.41 97.70 95.68 92.32 96.75 C 91.28 94.11 91.13 91.25 90.33 88.55 C 88.60 86.24 85.63 85.53 83.11 84.44 C 89.54 83.91 95.92 82.92 102.29 81.88 M 107.35 140.34 C 107.86 140.91 107.86 140.91 107.35 140.34 Z" />
<path fill="#523c58" opacity="1.00" d=" M 78.07 86.15 C 79.29 84.45 79.90 80.79 82.63 81.49 C 81.37 83.28 80.15 85.22 78.07 86.15 Z" />
<path fill="#523c58" opacity="1.00" d=" M 46.74 90.95 C 46.78 89.09 48.19 87.67 49.05 86.13 C 49.50 89.19 47.93 93.82 51.60 95.37 C 54.77 97.14 57.99 94.94 61.07 94.18 C 61.67 94.91 62.22 95.67 62.72 96.47 C 63.24 97.27 63.76 98.05 64.29 98.84 C 65.53 99.65 67.74 99.20 67.40 97.32 C 67.88 96.50 68.37 95.68 68.85 94.86 C 68.68 94.42 68.32 93.56 68.14 93.13 C 68.77 93.20 70.03 93.34 70.65 93.42 C 70.06 95.09 69.57 96.81 69.00 98.49 C 68.71 98.82 68.13 99.47 67.84 99.79 C 66.61 99.86 65.38 99.92 64.16 99.96 C 60.56 99.48 56.83 99.54 53.34 98.49 C 50.44 96.82 47.41 94.43 46.74 90.95 Z" />
<path fill="#523c58" opacity="1.00" d=" M 33.10 99.80 C 37.06 100.41 42.07 101.18 43.31 105.71 C 41.81 106.68 40.48 108.57 38.48 108.29 C 34.18 107.97 29.85 107.56 25.70 106.34 C 28.17 104.16 30.67 102.02 33.10 99.80 Z" />
<path fill="#523c58" opacity="1.00" d=" M 57.58 110.22 C 58.56 107.90 60.21 105.99 62.50 104.89 C 62.86 110.96 63.36 119.57 56.47 122.23 C 56.92 118.28 59.45 114.09 57.58 110.22 Z" />
<path fill="#523c58" opacity="1.00" d=" M 60.01 126.97 C 61.38 122.95 62.06 116.99 67.14 116.06 C 69.27 115.23 69.26 118.72 69.69 120.00 C 68.83 120.06 67.10 120.18 66.23 120.24 C 67.36 122.79 68.48 125.36 69.92 127.76 C 68.31 128.62 66.69 129.49 65.08 130.36 C 67.59 131.00 70.12 131.58 72.69 131.93 L 72.78 131.16 C 74.98 131.78 78.88 134.61 80.30 131.99 C 76.51 128.87 70.38 126.00 70.70 120.27 C 73.90 121.17 77.21 121.60 80.51 121.90 C 80.29 126.04 83.41 128.86 85.93 131.67 C 80.17 133.62 74.67 137.51 68.31 136.59 C 63.79 135.31 62.74 130.18 60.01 126.97 Z" />
<path fill="#523c58" opacity="1.00" d=" M 35.19 122.15 C 34.45 120.69 34.66 119.56 35.83 118.77 C 36.99 119.50 37.28 120.56 36.72 121.95 L 35.97 122.43 L 35.19 122.15 Z" />
<path fill="#523c58" opacity="1.00" d=" M 37.25 128.75 C 37.91 128.89 39.25 129.17 39.91 129.31 C 42.56 130.76 42.77 133.56 41.56 136.09 C 41.93 137.85 42.33 139.61 42.71 141.37 C 46.46 142.29 50.33 142.53 54.18 142.39 C 52.47 143.47 50.71 144.51 49.29 145.97 C 48.67 148.27 51.08 148.75 52.61 149.45 C 49.51 149.21 47.97 151.72 47.96 154.52 C 50.15 154.65 52.40 154.64 54.29 155.93 C 52.86 156.35 51.42 156.76 49.98 157.15 C 49.50 156.83 48.53 156.20 48.05 155.89 C 45.30 154.19 41.96 153.95 39.29 155.94 C 40.81 154.29 42.32 152.59 43.30 150.55 C 44.01 149.67 44.71 148.80 45.41 147.92 C 42.99 146.26 40.26 144.99 38.15 142.94 C 36.88 140.89 36.09 138.59 35.19 136.36 C 35.42 133.73 36.61 131.29 37.25 128.75 M 46.21 151.21 C 44.72 151.34 44.58 153.99 46.15 154.11 C 47.67 154.02 47.80 151.27 46.21 151.21 Z" />
<path fill="#523c58" opacity="1.00" d=" M 56.55 135.01 C 57.25 132.82 58.35 130.79 59.30 128.70 C 59.89 131.30 61.25 133.59 62.73 135.77 C 62.02 135.81 60.60 135.87 59.88 135.91 C 61.27 137.28 62.84 138.54 63.83 140.26 C 63.24 142.31 61.87 144.14 61.76 146.32 C 60.22 147.58 58.56 148.70 56.90 149.80 C 56.53 147.91 54.99 145.89 56.08 143.98 C 57.03 141.67 58.39 139.56 59.64 137.41 C 58.58 136.64 57.55 135.84 56.55 135.01 M 57.29 144.18 C 57.81 144.74 57.81 144.74 57.29 144.18 Z" />
<path fill="#523c58" opacity="1.00" d=" M 91.95 129.29 C 94.14 130.49 96.45 131.80 97.57 134.16 C 95.27 138.14 90.17 139.11 86.48 141.47 C 85.91 141.52 84.76 141.63 84.19 141.68 C 82.41 144.39 80.37 147.06 77.35 148.46 C 74.15 148.16 70.96 147.76 67.75 147.59 C 67.15 145.65 66.68 143.66 66.34 141.66 C 68.33 141.90 70.32 142.24 72.32 142.42 C 72.97 144.25 73.62 146.12 74.81 147.69 C 75.98 146.89 77.15 146.07 78.31 145.25 C 80.97 143.47 83.63 141.69 86.18 139.76 C 84.78 138.81 83.39 137.84 82.03 136.84 C 80.81 138.18 79.63 139.56 78.35 140.85 C 75.04 140.66 71.73 140.47 68.45 140.01 C 70.44 137.39 73.95 137.38 76.87 136.57 C 81.89 135.62 86.49 133.25 91.52 132.34 C 91.62 131.57 91.84 130.05 91.95 129.29 Z" />
<path fill="#523c58" opacity="1.00" d=" M 65.39 138.24 C 66.62 137.51 68.56 139.31 67.84 140.58 C 66.63 141.19 64.76 139.49 65.39 138.24 Z" />
<path fill="#523c58" opacity="1.00" d=" M 81.46 150.74 C 82.22 149.53 82.75 148.09 83.94 147.21 C 86.20 147.50 87.30 149.60 88.34 151.36 C 90.60 149.65 92.91 147.98 95.48 146.76 C 94.41 149.16 92.43 150.93 90.95 153.05 C 89.98 155.59 89.25 158.27 89.07 161.00 C 91.08 160.90 92.12 159.06 93.34 157.75 C 93.94 157.62 94.54 157.50 95.13 157.38 C 96.41 155.84 97.70 154.32 99.06 152.87 C 98.06 155.50 96.26 157.78 95.39 160.46 C 96.61 162.08 98.81 161.41 100.56 161.61 C 101.38 162.37 102.20 163.13 103.02 163.90 C 103.52 162.96 104.02 162.02 104.50 161.08 C 104.34 162.76 103.68 164.28 102.51 165.50 C 101.30 165.11 100.09 164.73 98.89 164.34 C 97.57 162.88 96.28 162.68 95.04 164.37 C 93.76 164.30 92.48 164.26 91.20 164.25 C 91.33 163.76 91.60 162.78 91.73 162.28 C 90.15 161.98 87.69 162.81 87.29 160.63 C 87.50 157.84 88.78 155.27 89.76 152.69 C 86.39 152.97 82.97 152.60 79.66 153.39 C 80.92 153.93 82.18 154.45 83.46 154.97 C 84.20 157.42 84.35 160.11 85.57 162.38 C 87.37 163.22 89.31 163.67 91.20 164.25 C 86.53 165.81 82.46 162.79 78.97 160.08 C 80.53 163.26 81.48 166.71 81.79 170.25 C 82.66 170.33 84.39 170.50 85.26 170.59 C 84.20 170.86 83.14 171.15 82.09 171.46 C 82.39 174.53 83.77 177.33 86.43 178.99 C 86.46 180.72 86.47 182.45 86.48 184.19 C 87.61 183.04 88.72 181.87 89.86 180.74 C 89.64 182.15 89.41 183.56 89.19 184.97 C 85.81 184.88 82.21 185.26 79.01 183.98 C 76.01 182.15 72.20 180.56 71.05 176.93 C 70.06 174.35 70.36 171.53 70.36 168.83 C 73.24 167.58 75.23 165.20 76.38 162.32 C 75.13 162.44 73.89 162.56 72.64 162.69 C 72.28 161.71 71.92 160.73 71.56 159.76 C 70.33 158.51 69.12 157.24 67.94 155.95 C 68.07 154.08 68.12 152.20 68.14 150.33 C 71.05 150.31 73.67 151.55 76.10 153.03 C 77.06 152.22 78.01 151.41 78.96 150.61 C 79.79 150.64 80.63 150.68 81.46 150.74 M 75.28 174.24 C 75.80 174.77 75.80 174.77 75.28 174.24 Z" />
<path fill="#523c58" opacity="1.00" d=" M 63.03 164.00 C 65.93 162.33 67.24 159.06 67.94 155.95 C 68.27 158.81 68.21 161.70 67.76 164.54 C 66.39 165.50 64.85 166.44 64.20 168.07 C 62.29 172.15 60.81 176.66 61.28 181.23 C 61.13 182.73 60.96 184.23 60.79 185.73 C 59.79 185.56 57.80 185.20 56.80 185.02 C 56.36 184.02 55.94 183.01 55.53 182.00 C 55.82 181.83 56.40 181.51 56.69 181.34 C 57.15 181.50 58.08 181.80 58.54 181.95 C 58.22 182.66 57.57 184.07 57.24 184.77 C 58.00 184.61 59.53 184.27 60.29 184.10 C 60.86 180.47 60.61 176.79 60.58 173.13 C 58.85 173.46 57.13 173.85 55.41 174.20 C 55.91 173.36 56.44 172.54 57.00 171.74 C 58.76 171.79 60.48 172.13 62.21 172.45 C 60.28 171.18 58.42 169.82 56.60 168.40 C 57.32 168.22 58.75 167.86 59.46 167.68 C 59.44 167.37 59.40 166.75 59.38 166.44 C 60.61 165.65 61.81 164.81 63.03 164.00 Z" />
<path fill="#523c58" opacity="1.00" d=" M 42.22 177.79 C 36.03 173.03 33.71 163.79 38.16 157.09 C 37.62 159.98 36.98 163.08 38.20 165.89 C 39.30 168.24 41.13 170.14 42.68 172.19 C 43.12 171.36 43.60 170.56 44.12 169.78 C 46.99 169.76 49.87 170.06 52.72 169.60 C 52.84 169.14 53.07 168.22 53.19 167.76 C 53.73 168.65 54.29 169.55 54.84 170.44 C 54.77 170.48 54.62 170.56 54.55 170.60 C 51.33 172.04 47.70 171.50 44.30 172.11 C 43.62 174.00 42.92 175.89 42.22 177.79 M 37.84 169.88 C 39.17 171.88 39.92 174.60 42.01 175.90 C 42.96 173.43 39.26 171.67 37.84 169.88 Z" />
<path fill="#523c58" opacity="1.00" d=" M 87.89 170.31 C 89.53 169.59 91.10 168.70 92.58 167.68 C 94.52 171.23 99.12 171.15 102.44 172.54 C 102.68 173.07 103.17 174.13 103.41 174.67 C 101.04 174.61 98.66 174.63 96.29 174.59 C 96.67 175.59 97.06 176.59 97.45 177.60 C 96.85 177.43 95.67 177.11 95.08 176.95 C 92.12 175.41 89.73 173.07 87.89 170.31 Z" />
<path fill="#523c58" opacity="1.00" d=" M 65.85 173.15 C 65.53 171.84 65.89 170.76 66.94 169.91 C 67.53 171.34 67.17 172.42 65.85 173.15 Z" />
<path fill="#523c58" opacity="1.00" d=" M 97.87 176.91 C 99.68 176.40 101.45 175.76 103.15 174.96 C 103.65 175.77 104.16 176.57 104.67 177.37 C 106.37 177.11 108.08 176.90 109.78 176.65 L 110.57 176.54 C 110.29 177.27 109.74 178.73 109.46 179.46 C 107.52 180.22 105.53 180.86 103.57 181.54 C 103.48 182.24 103.30 183.63 103.21 184.33 C 102.38 184.42 101.55 184.49 100.71 184.55 L 100.35 184.34 C 102.56 183.19 101.17 180.59 99.51 179.71 C 98.97 178.77 98.43 177.83 97.87 176.91 Z" />
<path fill="#523c58" opacity="1.00" d=" M 66.44 177.31 C 66.47 177.40 66.53 177.59 66.56 177.68 C 66.53 177.59 66.47 177.40 66.44 177.31 Z" />
<path fill="#523c58" opacity="1.00" d=" M 69.28 183.20 C 70.66 182.86 71.21 183.38 70.95 184.77 C 69.56 185.11 69.00 184.59 69.28 183.20 Z" />
<path fill="#523c58" opacity="1.00" d=" M 75.71 187.18 C 82.34 186.25 89.18 187.50 95.65 185.33 C 95.45 185.65 95.06 186.28 94.87 186.59 C 95.34 186.93 96.28 187.60 96.75 187.93 C 95.91 189.03 95.09 190.15 94.27 191.26 C 93.49 191.58 91.95 192.21 91.17 192.53 C 101.04 193.76 111.05 192.53 120.97 193.22 C 112.71 194.48 104.29 193.25 95.96 193.64 C 89.66 193.03 83.28 192.77 76.98 193.63 C 65.65 193.73 54.33 193.69 43.00 193.74 C 41.59 193.77 40.23 193.42 38.87 193.10 C 52.35 192.94 65.82 193.12 79.30 193.00 C 78.12 191.05 76.90 189.12 75.71 187.18 Z" />
<path fill="#523c58" opacity="1.00" d=" M 38.99 185.86 L 40.10 186.18 C 38.86 188.28 39.01 190.76 38.87 193.10 L 38.21 192.91 C 38.19 190.96 38.17 189.01 38.12 187.07 L 39.00 187.17 L 38.99 185.86 Z" />
</g>
<g id="#19161cff">
<path fill="#19161c" opacity="1.00" d=" M 52.61 58.56 C 53.66 57.40 54.77 56.29 55.89 55.20 C 54.57 58.32 54.07 62.03 51.34 64.34 C 48.38 66.93 46.23 70.83 46.69 74.85 C 47.79 76.40 49.16 77.75 50.46 79.14 C 48.45 78.95 46.47 78.62 44.46 78.44 C 44.69 74.74 46.05 71.27 47.15 67.77 L 47.31 67.27 C 48.49 65.84 49.72 64.40 50.39 62.64 C 50.41 62.59 50.45 62.49 50.48 62.45 L 51.35 60.57 C 51.38 60.52 51.43 60.42 51.46 60.37 L 52.48 58.72 C 52.51 58.68 52.58 58.60 52.61 58.56 Z" />
<path fill="#19161c" opacity="1.00" d=" M 37.07 71.34 C 38.31 70.71 39.51 69.99 40.74 69.35 C 40.36 72.45 40.31 75.64 41.75 78.51 C 40.97 78.55 40.19 78.59 39.41 78.62 C 38.93 76.43 38.51 74.22 38.00 72.04 L 37.07 71.34 Z" />
<path fill="#19161c" opacity="1.00" d=" M 62.72 96.47 C 64.55 89.66 69.49 81.89 77.16 81.20 C 76.21 82.00 75.12 82.60 74.00 83.11 C 76.08 88.29 76.76 93.82 78.62 99.05 C 79.13 101.92 78.67 105.23 76.49 107.33 C 74.39 109.50 70.59 109.49 68.29 107.67 C 66.20 105.63 64.80 102.99 63.61 100.36 L 64.16 99.96 C 65.38 99.92 66.61 99.86 67.84 99.79 C 68.13 99.47 68.71 98.82 69.00 98.49 C 71.12 96.29 73.49 94.08 74.39 91.06 C 74.60 89.34 73.80 87.71 73.47 86.06 C 71.63 86.49 69.86 87.21 68.37 88.38 C 67.61 89.89 67.12 91.60 68.14 93.13 C 68.32 93.56 68.68 94.42 68.85 94.86 C 68.37 95.68 67.88 96.50 67.40 97.32 C 66.29 96.23 63.57 97.09 64.29 98.84 C 63.76 98.05 63.24 97.27 62.72 96.47 Z" />
<path fill="#19161c" opacity="1.00" d=" M 105.20 90.29 C 109.36 89.69 114.95 88.73 117.80 92.66 C 115.98 93.94 113.92 95.06 111.64 95.16 C 109.60 94.59 107.60 93.92 105.59 93.28 C 105.46 92.28 105.33 91.28 105.20 90.29 Z" />
<path fill="#19161c" opacity="1.00" d=" M 92.32 96.75 C 97.70 95.68 103.03 98.41 108.32 99.27 C 103.17 100.73 98.12 98.43 92.97 98.39 L 92.32 96.75 Z" />
<path fill="#19161c" opacity="1.00" d=" M 26.11 99.32 C 28.40 99.85 30.76 100.02 33.10 99.80 C 30.67 102.02 28.17 104.16 25.70 106.34 C 29.85 107.56 34.18 107.97 38.48 108.29 C 40.48 108.57 41.81 106.68 43.31 105.71 C 43.48 106.85 43.62 108.00 43.77 109.15 C 40.51 109.10 38.36 111.27 37.94 114.42 C 36.38 114.76 34.82 115.11 33.24 115.41 C 39.60 114.95 45.66 118.21 52.03 117.17 C 55.02 116.09 56.02 112.67 57.58 110.22 C 59.45 114.09 56.92 118.28 56.47 122.23 C 55.08 126.36 53.26 130.33 51.56 134.34 C 49.37 133.44 48.70 131.13 47.85 129.15 C 46.76 130.23 45.65 131.28 44.54 132.35 C 43.38 129.02 43.79 125.54 44.62 122.20 C 43.78 121.01 42.95 119.82 42.14 118.61 C 44.30 119.61 46.24 121.23 48.59 121.72 C 49.22 120.80 49.82 119.86 50.38 118.91 C 46.23 118.56 42.07 118.53 37.92 118.46 C 39.29 121.56 42.11 124.50 41.48 128.12 C 40.02 125.93 40.30 121.44 36.72 121.95 C 37.28 120.56 36.99 119.50 35.83 118.77 C 34.66 119.56 34.45 120.69 35.19 122.15 C 33.09 121.95 32.51 119.79 31.57 118.28 C 29.65 118.24 27.30 118.73 25.93 117.00 C 25.58 115.72 25.48 114.39 25.27 113.09 C 23.79 111.12 22.44 109.07 21.18 106.95 C 22.97 104.51 25.79 102.54 26.11 99.32 M 53.25 123.32 C 51.89 124.05 51.18 126.25 51.96 127.60 C 53.30 127.31 54.66 124.08 53.25 123.32 Z" />
<path fill="#19161c" opacity="1.00" d=" M 117.09 103.98 C 118.29 107.05 118.96 110.55 117.65 113.71 C 115.99 115.13 113.59 114.32 111.62 114.40 L 111.31 114.42 C 108.39 112.42 105.04 110.97 102.71 108.20 C 105.89 109.00 108.90 110.34 112.07 111.15 C 113.52 111.38 115.53 111.93 116.63 110.64 C 117.49 108.53 117.23 106.19 117.09 103.98 Z" />
<path fill="#19161c" opacity="1.00" d=" M 87.03 107.50 C 92.23 108.50 97.20 110.45 102.42 111.43 C 102.31 111.77 102.09 112.44 101.98 112.78 L 101.05 112.60 C 96.22 111.85 91.46 110.69 86.87 109.00 L 87.03 107.50 Z" />
<path fill="#19161c" opacity="1.00" d=" M 80.51 121.90 C 80.10 119.36 79.81 116.78 80.08 114.21 C 80.85 116.79 81.97 119.35 84.04 121.17 C 84.98 119.91 85.43 118.39 85.92 116.91 C 87.75 116.75 89.59 116.60 91.43 116.46 C 94.22 121.11 96.57 126.40 101.41 129.32 C 100.81 130.71 100.40 132.19 99.76 133.57 C 99.76 133.63 99.76 133.75 99.76 133.82 C 99.91 134.08 100.20 134.62 100.34 134.88 C 99.28 136.45 98.21 138.02 97.14 139.58 C 93.71 140.79 90.15 141.72 86.48 141.47 C 90.17 139.11 95.27 138.14 97.57 134.16 C 96.45 131.80 94.14 130.49 91.95 129.29 C 91.84 130.05 91.62 131.57 91.52 132.34 C 86.49 133.25 81.89 135.62 76.87 136.57 C 73.95 137.38 70.44 137.39 68.45 140.01 C 71.73 140.47 75.04 140.66 78.35 140.85 C 76.39 141.54 74.36 142.03 72.32 142.42 C 70.32 142.24 68.33 141.90 66.34 141.66 C 66.68 143.66 67.15 145.65 67.75 147.59 C 70.96 147.76 74.15 148.16 77.35 148.46 C 76.59 149.22 75.80 149.94 74.98 150.63 C 75.70 150.63 77.16 150.61 77.88 150.60 L 78.96 150.61 C 78.01 151.41 77.06 152.22 76.10 153.03 C 73.67 151.55 71.05 150.31 68.14 150.33 C 66.54 148.27 64.12 147.24 61.76 146.32 C 61.87 144.14 63.24 142.31 63.83 140.26 C 62.84 138.54 61.27 137.28 59.88 135.91 C 60.60 135.87 62.02 135.81 62.73 135.77 C 61.25 133.59 59.89 131.30 59.30 128.70 L 60.01 126.97 C 62.74 130.18 63.79 135.31 68.31 136.59 C 74.67 137.51 80.17 133.62 85.93 131.67 C 83.41 128.86 80.29 126.04 80.51 121.90 M 65.39 138.24 C 64.76 139.49 66.63 141.19 67.84 140.58 C 68.56 139.31 66.62 137.51 65.39 138.24 Z" />
<path fill="#19161c" opacity="1.00" d=" M 66.23 120.24 C 67.10 120.18 68.83 120.06 69.69 120.00 C 69.94 120.07 70.45 120.21 70.70 120.27 C 70.38 126.00 76.51 128.87 80.30 131.99 C 78.88 134.61 74.98 131.78 72.78 131.16 C 71.81 130.04 70.84 128.92 69.92 127.76 C 68.48 125.36 67.36 122.79 66.23 120.24 Z" />
<path fill="#19161c" opacity="1.00" d=" M 102.04 124.36 C 103.02 123.29 104.00 122.21 104.98 121.14 C 107.47 122.97 109.88 124.91 112.21 126.95 C 111.94 127.20 111.40 127.69 111.13 127.93 C 108.44 126.80 105.80 125.53 103.00 124.69 L 102.04 124.36 Z" />
<path fill="#19161c" opacity="1.00" d=" M 35.19 136.36 C 36.09 138.59 36.88 140.89 38.15 142.94 C 40.26 144.99 42.99 146.26 45.41 147.92 C 44.71 148.80 44.01 149.67 43.30 150.55 C 38.24 147.90 33.93 142.34 35.19 136.36 Z" />
<path fill="#19161c" opacity="1.00" d=" M 117.89 151.83 C 121.75 150.62 124.90 147.75 128.96 147.04 C 127.24 150.63 123.47 152.21 120.49 154.53 C 117.54 156.71 113.76 158.34 110.05 157.83 C 109.04 157.57 108.03 157.30 107.03 157.02 C 107.86 154.67 108.66 152.32 109.43 149.96 C 112.24 150.57 114.94 152.88 117.89 151.83 Z" />
<path fill="#19161c" opacity="1.00" d=" M 56.44 149.85 C 59.44 154.54 52.72 158.95 55.27 163.82 C 56.41 167.17 60.65 164.34 63.03 164.00 C 61.81 164.81 60.61 165.65 59.38 166.44 C 59.40 166.75 59.44 167.37 59.46 167.68 C 58.75 167.86 57.32 168.22 56.60 168.40 C 58.42 169.82 60.28 171.18 62.21 172.45 C 60.48 172.13 58.76 171.79 57.00 171.74 C 56.44 172.54 55.91 173.36 55.41 174.20 C 54.81 175.11 54.18 176.01 53.45 176.83 C 54.92 175.09 55.06 172.83 54.85 170.66 L 54.84 170.44 C 54.29 169.55 53.73 168.65 53.19 167.76 C 53.84 164.97 54.14 162.08 53.47 159.26 C 50.81 161.27 47.70 162.95 46.06 166.00 C 46.19 165.14 46.45 163.41 46.58 162.55 C 44.84 162.85 43.11 163.16 41.37 163.49 C 41.38 162.58 41.39 161.67 41.39 160.76 C 43.84 160.54 46.29 160.27 48.73 159.90 C 48.51 158.56 48.28 157.22 48.05 155.89 C 48.53 156.20 49.50 156.83 49.98 157.15 C 50.31 157.35 50.97 157.76 51.30 157.96 C 52.06 158.16 53.60 158.56 54.37 158.76 C 54.43 155.67 54.78 152.54 56.44 149.85 Z" />
<path fill="#19161c" opacity="1.00" d=" M 46.21 151.21 C 47.80 151.27 47.67 154.02 46.15 154.11 C 44.58 153.99 44.72 151.34 46.21 151.21 Z" />
<path fill="#19161c" opacity="1.00" d=" M 67.94 155.95 C 69.12 157.24 70.33 158.51 71.56 159.76 C 71.92 160.73 72.28 161.71 72.64 162.69 C 73.89 162.56 75.13 162.44 76.38 162.32 C 75.23 165.20 73.24 167.58 70.36 168.83 C 70.36 171.53 70.06 174.35 71.05 176.93 C 72.20 180.56 76.01 182.15 79.01 183.98 C 82.21 185.26 85.81 184.88 89.19 184.97 C 89.52 184.89 90.16 184.71 90.49 184.63 C 91.24 183.25 91.87 181.80 92.58 180.39 C 92.60 181.54 92.63 183.83 92.65 184.97 C 93.41 184.61 94.93 183.88 95.69 183.52 C 95.68 183.97 95.66 184.88 95.65 185.33 C 89.18 187.50 82.34 186.25 75.71 187.18 C 76.90 189.12 78.12 191.05 79.30 193.00 C 65.82 193.12 52.35 192.94 38.87 193.10 C 39.01 190.76 38.86 188.28 40.10 186.18 C 40.93 185.62 41.78 185.09 42.64 184.59 C 43.01 183.41 43.39 182.23 43.78 181.06 C 46.43 180.74 48.75 179.44 51.08 178.26 C 50.63 178.58 49.72 179.23 49.26 179.56 C 50.03 181.70 50.35 184.16 52.08 185.82 C 52.43 183.97 52.76 182.11 53.34 180.33 C 54.48 180.60 55.58 180.98 56.69 181.34 C 56.40 181.51 55.82 181.83 55.53 182.00 C 55.94 183.01 56.36 184.02 56.80 185.02 C 57.80 185.20 59.79 185.56 60.79 185.73 C 60.96 184.23 61.13 182.73 61.28 181.23 C 61.64 182.41 61.96 183.60 62.29 184.80 C 64.59 184.78 66.89 184.76 69.19 184.76 C 68.37 182.38 67.33 180.08 66.56 177.68 C 66.53 177.59 66.47 177.40 66.44 177.31 C 66.22 175.92 66.02 174.53 65.85 173.15 C 67.17 172.42 67.53 171.34 66.94 169.91 C 67.20 168.11 67.48 166.32 67.76 164.54 C 68.21 161.70 68.27 158.81 67.94 155.95 M 45.16 181.18 C 43.83 181.49 43.15 184.24 44.69 184.59 C 45.68 184.05 46.66 181.55 45.16 181.18 M 48.31 181.15 C 46.94 181.28 46.40 183.92 47.99 184.10 C 49.40 183.98 50.03 181.25 48.31 181.15 M 54.54 183.31 C 55.12 183.91 55.12 183.91 54.54 183.31 M 69.28 183.20 C 69.00 184.59 69.56 185.11 70.95 184.77 C 71.21 183.38 70.66 182.86 69.28 183.20 Z" />
<path fill="#19161c" opacity="1.00" d=" M 78.97 160.08 C 82.46 162.79 86.53 165.81 91.20 164.25 C 92.48 164.26 93.76 164.30 95.04 164.37 C 96.28 162.68 97.57 162.88 98.89 164.34 C 100.09 164.73 101.30 165.11 102.51 165.50 C 100.04 166.40 97.35 167.52 94.87 165.98 C 94.12 166.56 93.35 167.12 92.58 167.68 C 91.10 168.70 89.53 169.59 87.89 170.31 C 87.23 170.38 85.92 170.52 85.26 170.59 C 84.39 170.50 82.66 170.33 81.79 170.25 C 81.48 166.71 80.53 163.26 78.97 160.08 Z" />
<path fill="#19161c" opacity="1.00" d=" M 96.29 174.59 C 98.66 174.63 101.04 174.61 103.41 174.67 C 105.37 175.79 107.53 176.37 109.78 176.65 C 108.08 176.90 106.37 177.11 104.67 177.37 C 104.16 176.57 103.65 175.77 103.15 174.96 C 101.45 175.76 99.68 176.40 97.87 176.91 C 98.43 177.83 98.97 178.77 99.51 179.71 C 99.39 181.19 98.63 183.51 100.35 184.34 L 100.71 184.55 C 101.55 184.49 102.38 184.42 103.21 184.33 C 103.30 183.63 103.48 182.24 103.57 181.54 C 105.53 180.86 107.52 180.22 109.46 179.46 C 108.09 181.21 106.79 183.01 105.65 184.92 C 110.58 185.40 115.87 183.92 120.45 186.32 C 120.55 186.37 120.75 186.46 120.86 186.51 C 121.08 188.74 121.07 190.98 120.97 193.22 C 111.05 192.53 101.04 193.76 91.17 192.53 C 91.95 192.21 93.49 191.58 94.27 191.26 C 95.09 190.15 95.91 189.03 96.75 187.93 C 96.28 187.60 95.34 186.93 94.87 186.59 C 95.06 186.28 95.45 185.65 95.65 185.33 L 96.92 184.30 C 97.49 182.89 97.96 181.44 98.47 180.01 C 97.36 178.96 96.25 177.92 95.08 176.95 C 95.67 177.11 96.85 177.43 97.45 177.60 C 97.06 176.59 96.67 175.59 96.29 174.59 Z" />
</g>
<g id="#a8a1b2ff">
<path fill="#a8a1b2" opacity="1.00" d=" M 36.49 57.79 C 37.23 57.90 38.69 58.11 39.43 58.22 C 39.63 61.70 39.64 65.19 39.62 68.68 C 37.48 68.63 35.35 68.59 33.21 68.54 C 33.32 65.65 33.83 62.77 35.21 60.19 C 35.53 59.59 36.17 58.39 36.49 57.79 Z" />
<path fill="#a8a1b2" opacity="1.00" d=" M 125.39 58.03 C 126.75 57.97 128.11 57.94 129.47 57.91 C 128.34 60.52 126.60 62.79 125.02 65.14 L 124.55 65.16 C 122.64 68.62 119.42 71.08 116.60 73.77 C 112.22 77.07 107.86 80.87 102.29 81.88 C 95.92 82.92 89.54 83.91 83.11 84.44 C 85.63 85.53 88.60 86.24 90.33 88.55 C 91.13 91.25 91.28 94.11 92.32 96.75 L 92.97 98.39 C 91.16 98.44 89.36 98.55 87.55 98.63 C 87.32 101.58 87.22 104.54 87.03 107.50 L 86.87 109.00 C 86.79 109.78 86.62 111.35 86.54 112.13 C 86.83 112.57 87.41 113.45 87.70 113.90 C 87.39 114.24 86.77 114.93 86.46 115.28 C 86.33 115.69 86.05 116.50 85.92 116.91 C 85.43 118.39 84.98 119.91 84.04 121.17 C 81.97 119.35 80.85 116.79 80.08 114.21 C 79.81 116.78 80.10 119.36 80.51 121.90 C 77.21 121.60 73.90 121.17 70.70 120.27 C 70.45 120.21 69.94 120.07 69.69 120.00 C 69.26 118.72 69.27 115.23 67.14 116.06 C 62.06 116.99 61.38 122.95 60.01 126.97 L 59.30 128.70 C 58.35 130.79 57.25 132.82 56.55 135.01 C 57.55 135.84 58.58 136.64 59.64 137.41 C 58.39 139.56 57.03 141.67 56.08 143.98 C 54.99 145.89 56.53 147.91 56.90 149.80 C 58.56 148.70 60.22 147.58 61.76 146.32 C 64.12 147.24 66.54 148.27 68.14 150.33 C 68.12 152.20 68.07 154.08 67.94 155.95 C 67.24 159.06 65.93 162.33 63.03 164.00 C 60.65 164.34 56.41 167.17 55.27 163.82 C 52.72 158.95 59.44 154.54 56.44 149.85 C 54.78 152.54 54.43 155.67 54.37 158.76 C 53.60 158.56 52.06 158.16 51.30 157.96 C 50.97 157.76 50.31 157.35 49.98 157.15 C 51.42 156.76 52.86 156.35 54.29 155.93 C 52.40 154.64 50.15 154.65 47.96 154.52 C 47.97 151.72 49.51 149.21 52.61 149.45 C 51.08 148.75 48.67 148.27 49.29 145.97 C 50.71 144.51 52.47 143.47 54.18 142.39 C 50.33 142.53 46.46 142.29 42.71 141.37 C 42.33 139.61 41.93 137.85 41.56 136.09 C 42.77 133.56 42.56 130.76 39.91 129.31 C 40.31 129.01 41.09 128.41 41.48 128.12 C 42.11 124.50 39.29 121.56 37.92 118.46 C 42.07 118.53 46.23 118.56 50.38 118.91 C 49.82 119.86 49.22 120.80 48.59 121.72 C 46.24 121.23 44.30 119.61 42.14 118.61 C 42.95 119.82 43.78 121.01 44.62 122.20 C 43.79 125.54 43.38 129.02 44.54 132.35 C 45.65 131.28 46.76 130.23 47.85 129.15 C 48.70 131.13 49.37 133.44 51.56 134.34 C 53.26 130.33 55.08 126.36 56.47 122.23 C 63.36 119.57 62.86 110.96 62.50 104.89 C 60.21 105.99 58.56 107.90 57.58 110.22 C 56.02 112.67 55.02 116.09 52.03 117.17 C 45.66 118.21 39.60 114.95 33.24 115.41 C 34.82 115.11 36.38 114.76 37.94 114.42 C 38.36 111.27 40.51 109.10 43.77 109.15 C 43.62 108.00 43.48 106.85 43.31 105.71 C 42.07 101.18 37.06 100.41 33.10 99.80 C 31.67 99.46 30.25 99.11 28.83 98.73 C 30.15 97.38 31.48 96.05 32.81 94.71 C 32.46 94.40 31.75 93.77 31.40 93.45 C 32.97 88.93 34.34 84.34 35.97 79.83 C 33.94 81.52 32.01 83.31 30.12 85.16 C 30.48 79.69 30.34 73.78 33.60 69.07 C 34.76 69.83 35.94 70.55 37.07 71.34 L 38.00 72.04 C 38.51 74.22 38.93 76.43 39.41 78.62 C 40.19 78.59 40.97 78.55 41.75 78.51 C 42.42 78.49 43.78 78.46 44.46 78.44 C 46.47 78.62 48.45 78.95 50.46 79.14 C 53.15 78.75 55.84 78.38 58.55 78.13 C 60.14 75.57 61.78 72.87 64.45 71.30 C 67.48 69.27 71.31 69.97 74.75 69.76 C 83.10 69.35 91.52 70.47 99.80 68.92 C 99.83 68.56 99.90 67.84 99.93 67.47 C 100.96 67.65 102.01 68.10 103.05 67.78 C 109.66 65.91 115.85 62.92 122.17 60.28 C 123.40 59.78 124.54 59.08 125.39 58.03 M 113.68 67.49 C 103.62 71.74 92.87 74.90 81.86 74.79 C 82.18 76.19 82.49 77.59 82.81 78.99 C 84.15 78.46 85.43 77.63 86.90 77.54 C 93.59 77.16 100.49 78.45 106.98 76.24 C 110.68 75.30 113.36 72.44 116.08 69.96 C 118.62 67.55 121.96 65.78 123.33 62.37 C 119.79 63.43 117.08 66.12 113.68 67.49 M 79.49 72.18 C 79.84 73.73 82.49 73.73 83.56 72.89 C 83.10 71.58 80.57 71.45 79.49 72.18 M 62.72 96.47 C 62.22 95.67 61.67 94.91 61.07 94.18 C 57.99 94.94 54.77 97.14 51.60 95.37 C 47.93 93.82 49.50 89.19 49.05 86.13 C 48.19 87.67 46.78 89.09 46.74 90.95 C 47.41 94.43 50.44 96.82 53.34 98.49 C 56.83 99.54 60.56 99.48 64.16 99.96 L 63.61 100.36 C 64.80 102.99 66.20 105.63 68.29 107.67 C 70.59 109.49 74.39 109.50 76.49 107.33 C 78.67 105.23 79.13 101.92 78.62 99.05 C 76.76 93.82 76.08 88.29 74.00 83.11 C 75.12 82.60 76.21 82.00 77.16 81.20 C 69.49 81.89 64.55 89.66 62.72 96.47 M 78.07 86.15 C 80.15 85.22 81.37 83.28 82.63 81.49 C 79.90 80.79 79.29 84.45 78.07 86.15 Z" />
<path fill="#a8a1b2" opacity="1.00" d=" M 68.26 67.64 C 67.25 66.25 69.64 64.53 70.84 65.45 C 71.64 66.81 69.51 68.70 68.26 67.64 Z" />
<path fill="#a8a1b2" opacity="1.00" d=" M 40.20 67.32 C 40.74 67.87 40.74 67.87 40.20 67.32 Z" />
<path fill="#a8a1b2" opacity="1.00" d=" M 58.95 68.35 C 62.30 68.09 57.75 71.47 58.95 68.35 Z" />
<path fill="#a8a1b2" opacity="1.00" d=" M 68.37 88.38 C 69.86 87.21 71.63 86.49 73.47 86.06 C 73.80 87.71 74.60 89.34 74.39 91.06 C 73.49 94.08 71.12 96.29 69.00 98.49 C 69.57 96.81 70.06 95.09 70.65 93.42 C 71.07 92.45 71.49 91.50 71.91 90.54 C 70.69 89.88 69.55 89.11 68.37 88.38 Z" />
<path fill="#a8a1b2" opacity="1.00" d=" M 103.78 116.49 C 102.28 115.99 98.30 114.10 101.05 112.60 L 101.98 112.78 C 102.65 113.98 103.26 115.22 103.78 116.49 Z" />
<path fill="#a8a1b2" opacity="1.00" d=" M 111.31 114.42 L 111.62 114.40 L 111.63 114.63 L 111.52 114.45 L 111.31 114.42 Z" />
<path fill="#a8a1b2" opacity="1.00" d=" M 53.25 123.32 C 54.66 124.08 53.30 127.31 51.96 127.60 C 51.18 126.25 51.89 124.05 53.25 123.32 Z" />
<path fill="#a8a1b2" opacity="1.00" d=" M 103.00 124.69 C 105.80 125.53 108.44 126.80 111.13 127.93 C 106.87 131.55 103.63 136.14 101.81 141.43 C 101.08 137.41 102.13 133.45 104.20 130.01 C 102.76 131.25 101.34 132.53 99.76 133.57 C 100.40 132.19 100.81 130.71 101.41 129.32 C 101.96 127.78 102.53 126.25 103.00 124.69 Z" />
<path fill="#a8a1b2" opacity="1.00" d=" M 65.08 130.36 C 66.69 129.49 68.31 128.62 69.92 127.76 C 70.84 128.92 71.81 130.04 72.78 131.16 L 72.69 131.93 C 70.12 131.58 67.59 131.00 65.08 130.36 Z" />
<path fill="#a8a1b2" opacity="1.00" d=" M 78.35 140.85 C 79.63 139.56 80.81 138.18 82.03 136.84 C 83.39 137.84 84.78 138.81 86.18 139.76 C 83.63 141.69 80.97 143.47 78.31 145.25 C 77.15 146.07 75.98 146.89 74.81 147.69 C 73.62 146.12 72.97 144.25 72.32 142.42 C 74.36 142.03 76.39 141.54 78.35 140.85 Z" />
<path fill="#a8a1b2" opacity="1.00" d=" M 86.48 141.47 C 90.15 141.72 93.71 140.79 97.14 139.58 C 101.13 141.63 106.43 142.73 108.58 147.07 C 108.30 151.24 106.13 155.08 105.26 159.17 C 105.07 159.65 104.69 160.60 104.50 161.08 C 104.02 162.02 103.52 162.96 103.02 163.90 C 102.20 163.13 101.38 162.37 100.56 161.61 C 98.81 161.41 96.61 162.08 95.39 160.46 C 96.26 157.78 98.06 155.50 99.06 152.87 C 97.70 154.32 96.41 155.84 95.13 157.38 C 94.54 157.50 93.94 157.62 93.34 157.75 C 92.12 159.06 91.08 160.90 89.07 161.00 C 89.25 158.27 89.98 155.59 90.95 153.05 C 92.43 150.93 94.41 149.16 95.48 146.76 C 92.91 147.98 90.60 149.65 88.34 151.36 C 87.30 149.60 86.20 147.50 83.94 147.21 C 82.75 148.09 82.22 149.53 81.46 150.74 C 80.63 150.68 79.79 150.64 78.96 150.61 L 77.88 150.60 C 77.16 150.61 75.70 150.63 74.98 150.63 C 75.80 149.94 76.59 149.22 77.35 148.46 C 80.37 147.06 82.41 144.39 84.19 141.68 C 84.76 141.63 85.91 141.52 86.48 141.47 Z" />
<path fill="#a8a1b2" opacity="1.00" d=" M 107.35 140.34 C 107.86 140.91 107.86 140.91 107.35 140.34 Z" />
<path fill="#a8a1b2" opacity="1.00" d=" M 57.29 144.18 C 57.81 144.74 57.81 144.74 57.29 144.18 Z" />
<path fill="#a8a1b2" opacity="1.00" d=" M 79.66 153.39 C 82.97 152.60 86.39 152.97 89.76 152.69 C 88.78 155.27 87.50 157.84 87.29 160.63 C 87.69 162.81 90.15 161.98 91.73 162.28 C 91.60 162.78 91.33 163.76 91.20 164.25 C 89.31 163.67 87.37 163.22 85.57 162.38 C 84.35 160.11 84.20 157.42 83.46 154.97 C 82.18 154.45 80.92 153.93 79.66 153.39 Z" />
<path fill="#a8a1b2" opacity="1.00" d=" M 39.29 155.94 C 41.96 153.95 45.30 154.19 48.05 155.89 C 48.28 157.22 48.51 158.56 48.73 159.90 C 46.29 160.27 43.84 160.54 41.39 160.76 C 41.39 161.67 41.38 162.58 41.37 163.49 C 43.11 163.16 44.84 162.85 46.58 162.55 C 46.45 163.41 46.19 165.14 46.06 166.00 C 47.70 162.95 50.81 161.27 53.47 159.26 C 54.14 162.08 53.84 164.97 53.19 167.76 C 53.07 168.22 52.84 169.14 52.72 169.60 C 49.87 170.06 46.99 169.76 44.12 169.78 C 43.60 170.56 43.12 171.36 42.68 172.19 C 41.13 170.14 39.30 168.24 38.20 165.89 C 36.98 163.08 37.62 159.98 38.16 157.09 L 38.28 156.47 L 39.29 155.94 Z" />
<path fill="#a8a1b2" opacity="1.00" d=" M 37.84 169.88 C 39.26 171.67 42.96 173.43 42.01 175.90 C 39.92 174.60 39.17 171.88 37.84 169.88 Z" />
<path fill="#a8a1b2" opacity="1.00" d=" M 54.55 170.60 C 54.62 170.56 54.77 170.48 54.84 170.44 L 54.85 170.66 L 54.55 170.60 Z" />
<path fill="#a8a1b2" opacity="1.00" d=" M 85.26 170.59 C 85.92 170.52 87.23 170.38 87.89 170.31 C 89.73 173.07 92.12 175.41 95.08 176.95 C 96.25 177.92 97.36 178.96 98.47 180.01 C 97.96 181.44 97.49 182.89 96.92 184.30 L 95.65 185.33 C 95.66 184.88 95.68 183.97 95.69 183.52 C 94.93 183.88 93.41 184.61 92.65 184.97 C 92.63 183.83 92.60 181.54 92.58 180.39 C 91.87 181.80 91.24 183.25 90.49 184.63 C 90.16 184.71 89.52 184.89 89.19 184.97 C 89.41 183.56 89.64 182.15 89.86 180.74 C 88.72 181.87 87.61 183.04 86.48 184.19 C 86.47 182.45 86.46 180.72 86.43 178.99 C 83.77 177.33 82.39 174.53 82.09 171.46 C 83.14 171.15 84.20 170.86 85.26 170.59 Z" />
<path fill="#a8a1b2" opacity="1.00" d=" M 55.41 174.20 C 57.13 173.85 58.85 173.46 60.58 173.13 C 60.61 176.79 60.86 180.47 60.29 184.10 C 59.53 184.27 58.00 184.61 57.24 184.77 C 57.57 184.07 58.22 182.66 58.54 181.95 C 58.08 181.80 57.15 181.50 56.69 181.34 C 55.58 180.98 54.48 180.60 53.34 180.33 C 52.76 182.11 52.43 183.97 52.08 185.82 C 50.35 184.16 50.03 181.70 49.26 179.56 C 49.72 179.23 50.63 178.58 51.08 178.26 C 51.68 177.90 52.86 177.19 53.45 176.83 C 54.18 176.01 54.81 175.11 55.41 174.20 Z" />
<path fill="#a8a1b2" opacity="1.00" d=" M 75.28 174.24 C 75.80 174.77 75.80 174.77 75.28 174.24 Z" />
<path fill="#a8a1b2" opacity="1.00" d=" M 99.51 179.71 C 101.17 180.59 102.56 183.19 100.35 184.34 C 98.63 183.51 99.39 181.19 99.51 179.71 Z" />
<path fill="#a8a1b2" opacity="1.00" d=" M 45.16 181.18 C 46.66 181.55 45.68 184.05 44.69 184.59 C 43.15 184.24 43.83 181.49 45.16 181.18 Z" />
<path fill="#a8a1b2" opacity="1.00" d=" M 48.31 181.15 C 50.03 181.25 49.40 183.98 47.99 184.10 C 46.40 183.92 46.94 181.28 48.31 181.15 Z" />
<path fill="#a8a1b2" opacity="1.00" d=" M 54.54 183.31 C 55.12 183.91 55.12 183.91 54.54 183.31 Z" />
<path fill="#a8a1b2" opacity="1.00" d=" M 120.45 186.32 C 120.55 186.37 120.75 186.46 120.86 186.51 C 120.75 186.46 120.55 186.37 120.45 186.32 Z" />
</g>
<g id="#fefefeff">
<path fill="#fefefe" opacity="1.00" d=" M 113.68 67.49 C 117.08 66.12 119.79 63.43 123.33 62.37 C 121.96 65.78 118.62 67.55 116.08 69.96 C 113.36 72.44 110.68 75.30 106.98 76.24 C 100.49 78.45 93.59 77.16 86.90 77.54 C 85.43 77.63 84.15 78.46 82.81 78.99 C 82.49 77.59 82.18 76.19 81.86 74.79 C 92.87 74.90 103.62 71.74 113.68 67.49 Z" />
<path fill="#fefefe" opacity="1.00" d=" M 79.49 72.18 C 80.57 71.45 83.10 71.58 83.56 72.89 C 82.49 73.73 79.84 73.73 79.49 72.18 Z" />
<path fill="#fefefe" opacity="1.00" d=" M 68.37 88.38 C 69.55 89.11 70.69 89.88 71.91 90.54 C 71.49 91.50 71.07 92.45 70.65 93.42 C 70.03 93.34 68.77 93.20 68.14 93.13 C 67.12 91.60 67.61 89.89 68.37 88.38 Z" />
<path fill="#fefefe" opacity="1.00" d=" M 64.29 98.84 C 63.57 97.09 66.29 96.23 67.40 97.32 C 67.74 99.20 65.53 99.65 64.29 98.84 Z" />
</g>
</svg>
