<?xml version="1.0" encoding="UTF-8" ?>
<!DOCTYPE svg PUBLIC "-//W3C//DTD SVG 1.1//EN" "http://www.w3.org/Graphics/SVG/1.1/DTD/svg11.dtd">
<svg width="155pt" height="210pt" viewBox="0 0 155 210" version="1.1" xmlns="http://www.w3.org/2000/svg">
<g id="#292e30ff">
<path fill="#292e30" opacity="1.00" d=" M 69.77 52.77 C 78.65 43.99 89.63 35.53 102.68 35.31 C 102.34 37.17 101.97 39.01 101.57 40.85 C 110.38 41.70 119.08 45.25 125.13 51.88 C 138.25 65.87 143.15 85.94 141.44 104.71 C 140.84 110.12 140.46 115.65 138.79 120.86 C 138.36 122.73 136.04 123.01 134.47 122.60 C 130.44 119.62 128.04 115.02 124.46 111.56 C 123.37 110.66 122.19 109.88 120.91 109.28 C 118.83 110.19 117.02 111.58 115.16 112.86 C 112.97 107.15 113.10 100.47 108.81 95.72 C 108.80 98.85 109.45 102.17 108.27 105.17 C 106.47 108.30 102.84 109.58 99.86 111.28 C 97.44 110.54 94.98 110.01 92.52 109.48 C 91.51 104.55 89.57 99.58 90.55 94.48 C 90.66 92.24 91.83 89.67 90.35 87.65 C 88.70 85.25 86.44 83.36 84.25 81.47 C 80.69 78.45 76.68 76.03 72.54 73.90 C 72.51 77.87 71.87 81.81 71.95 85.78 C 73.28 89.00 76.33 91.14 78.56 93.74 C 78.07 98.51 77.15 103.26 75.36 107.73 C 72.06 109.51 67.90 109.99 65.02 107.15 C 67.62 106.99 70.20 106.66 72.79 106.38 C 72.71 104.14 72.77 101.87 72.29 99.67 C 70.26 96.94 66.35 97.62 63.38 97.16 C 63.44 100.15 63.49 103.16 63.81 106.15 C 62.70 105.16 61.63 104.13 60.56 103.11 C 60.81 99.73 61.09 96.35 61.39 92.97 C 59.83 93.39 58.28 93.82 56.72 94.25 C 56.26 97.56 55.76 100.85 55.11 104.13 C 52.57 101.10 50.43 97.72 49.10 93.99 C 48.69 92.90 48.31 91.80 47.95 90.69 L 47.72 89.87 C 47.61 87.22 47.65 84.57 47.83 81.92 C 48.60 79.24 50.08 76.79 50.61 74.04 C 49.91 72.01 48.21 70.32 47.99 68.14 C 50.94 63.94 56.52 64.28 60.88 62.77 C 64.26 59.84 66.44 55.77 69.77 52.77 M 58.06 82.31 C 57.16 85.07 56.36 87.87 55.66 90.68 C 59.08 88.69 62.62 86.73 65.29 83.73 C 62.89 83.22 60.47 82.77 58.06 82.31 M 101.53 97.65 C 98.51 98.72 94.35 100.29 94.26 104.09 C 93.49 108.80 100.55 109.96 103.49 107.46 C 107.37 105.52 106.61 96.51 101.53 97.65 Z" />
<path fill="#292e30" opacity="1.00" d=" M 83.67 155.06 C 87.44 155.92 90.95 157.63 94.31 159.50 C 91.45 160.74 88.77 162.32 86.09 163.91 C 85.23 160.97 84.39 158.03 83.67 155.06 Z" />
<path fill="#292e30" opacity="1.00" d=" M 74.15 156.21 C 76.45 156.28 78.75 156.34 81.05 156.42 C 80.28 159.20 79.50 161.97 78.71 164.75 C 75.80 163.87 72.89 162.96 69.90 162.41 C 71.33 160.35 72.76 158.30 74.15 156.21 Z" />
</g>
<g id="#a2a285ff">
<path fill="#a2a285" opacity="1.00" d=" M 72.54 73.90 C 76.68 76.03 80.69 78.45 84.25 81.47 C 84.18 84.86 84.34 88.28 83.76 91.63 C 82.25 92.77 80.32 93.13 78.56 93.74 C 76.33 91.14 73.28 89.00 71.95 85.78 C 71.87 81.81 72.51 77.87 72.54 73.90 Z" />
<path fill="#a2a285" opacity="1.00" d=" M 42.04 92.06 C 43.67 90.73 45.99 91.04 47.95 90.69 C 48.31 91.80 48.69 92.90 49.10 93.99 C 46.91 94.53 44.72 95.07 42.55 95.65 C 45.62 99.61 49.67 102.60 53.55 105.71 C 52.83 107.18 52.12 108.66 51.41 110.15 C 52.08 110.13 53.43 110.11 54.11 110.09 C 44.76 112.71 36.57 99.70 42.04 92.06 Z" />
<path fill="#a2a285" opacity="1.00" d=" M 55.73 110.02 C 55.45 106.79 56.78 103.81 58.41 101.12 C 58.95 101.62 60.02 102.62 60.56 103.11 C 61.63 104.13 62.70 105.16 63.81 106.15 C 64.11 106.40 64.71 106.90 65.02 107.15 C 67.90 109.99 72.06 109.51 75.36 107.73 C 77.93 106.10 80.27 104.06 83.10 102.87 C 86.98 103.69 89.80 106.81 92.52 109.48 C 93.97 111.12 95.33 112.83 96.70 114.54 C 86.08 118.02 74.33 116.78 63.92 113.11 C 64.64 114.81 64.73 117.61 67.23 117.47 C 76.54 117.86 85.94 117.84 95.09 119.90 C 88.76 123.53 81.44 126.24 74.07 125.87 C 67.36 123.81 62.78 117.74 56.07 115.51 C 55.93 113.68 55.77 111.86 55.73 110.02 Z" />
<path fill="#a2a285" opacity="1.00" d=" M 64.94 132.64 C 65.24 135.45 63.87 137.94 62.55 140.30 C 60.67 145.49 60.19 151.06 58.37 156.27 C 57.90 150.55 59.16 144.88 59.60 139.20 C 59.79 136.08 62.86 134.48 64.94 132.64 Z" />
<path fill="#a2a285" opacity="1.00" d=" M 80.28 141.48 C 82.58 142.83 84.85 144.25 87.26 145.43 C 87.55 145.28 88.13 144.99 88.42 144.84 C 89.68 144.17 90.95 143.53 92.25 142.94 C 94.26 142.57 96.23 143.69 98.19 144.07 C 94.88 145.21 92.11 147.41 89.91 150.10 C 89.46 150.16 88.54 150.28 88.08 150.34 C 85.93 150.67 83.78 151.07 81.65 151.52 C 82.11 149.42 82.56 147.31 83.01 145.21 C 81.65 146.66 80.29 148.10 78.93 149.54 C 79.24 147.16 79.54 144.78 79.96 142.42 L 80.28 141.48 Z" />
<path fill="#a2a285" opacity="1.00" d=" M 52.66 173.95 C 54.05 173.85 55.45 173.77 56.85 173.68 C 59.04 174.92 61.19 176.23 63.39 177.44 C 68.00 177.85 72.63 177.55 77.24 177.28 C 77.31 181.15 77.04 185.02 76.55 188.86 C 72.39 188.85 68.24 188.66 64.11 188.21 C 64.13 186.56 64.15 184.91 64.16 183.27 C 64.16 182.08 64.16 180.90 64.17 179.72 C 60.89 180.60 57.52 181.11 54.13 181.35 C 54.83 182.04 55.54 182.72 56.25 183.39 C 53.76 183.16 51.27 182.91 48.78 182.68 C 48.58 183.28 48.18 184.47 47.98 185.06 C 45.53 189.04 40.59 186.38 36.94 186.09 C 35.12 185.61 33.33 185.06 31.53 184.53 C 35.39 179.61 42.11 180.01 47.59 178.54 C 49.61 177.43 51.03 175.54 52.66 173.95 Z" />
<path fill="#a2a285" opacity="1.00" d=" M 100.75 180.09 C 104.36 180.92 108.25 181.44 111.34 183.67 C 114.14 185.71 113.19 189.54 113.20 192.52 C 112.20 190.59 111.36 188.56 110.03 186.82 C 108.41 186.26 106.67 186.43 105.00 186.53 C 100.38 187.23 95.74 187.84 91.08 188.22 C 94.46 186.14 97.51 183.59 100.17 180.65 L 100.75 180.09 Z" />
<path fill="#a2a285" opacity="1.00" d=" M 64.38 192.41 C 64.49 188.91 68.33 190.02 70.68 189.73 C 70.33 193.03 66.70 192.12 64.38 192.41 Z" />
</g>
<g id="#8f8e6dff">
<path fill="#8f8e6d" opacity="1.00" d=" M 47.72 89.87 C 47.37 87.23 47.41 84.55 47.83 81.92 C 47.65 84.57 47.61 87.22 47.72 89.87 Z" />
<path fill="#8f8e6d" opacity="1.00" d=" M 58.06 82.31 C 60.47 82.77 62.89 83.22 65.29 83.73 C 62.62 86.73 59.08 88.69 55.66 90.68 C 56.36 87.87 57.16 85.07 58.06 82.31 Z" />
<path fill="#8f8e6d" opacity="1.00" d=" M 84.25 81.47 C 86.44 83.36 88.70 85.25 90.35 87.65 C 91.83 89.67 90.66 92.24 90.55 94.48 C 89.57 99.58 91.51 104.55 92.52 109.48 C 89.80 106.81 86.98 103.69 83.10 102.87 C 80.27 104.06 77.93 106.10 75.36 107.73 C 77.15 103.26 78.07 98.51 78.56 93.74 C 80.32 93.13 82.25 92.77 83.76 91.63 C 84.34 88.28 84.18 84.86 84.25 81.47 Z" />
<path fill="#8f8e6d" opacity="1.00" d=" M 56.72 94.25 C 58.28 93.82 59.83 93.39 61.39 92.97 C 61.09 96.35 60.81 99.73 60.56 103.11 C 60.02 102.62 58.95 101.62 58.41 101.12 C 56.78 103.81 55.45 106.79 55.73 110.02 C 55.32 110.04 54.51 110.08 54.11 110.09 C 53.43 110.11 52.08 110.13 51.41 110.15 C 52.12 108.66 52.83 107.18 53.55 105.71 C 49.67 102.60 45.62 99.61 42.55 95.65 C 44.72 95.07 46.91 94.53 49.10 93.99 C 50.43 97.72 52.57 101.10 55.11 104.13 C 55.76 100.85 56.26 97.56 56.72 94.25 Z" />
<path fill="#8f8e6d" opacity="1.00" d=" M 92.52 109.48 C 94.98 110.01 97.44 110.54 99.86 111.28 C 103.86 113.06 107.46 115.58 111.13 117.94 C 111.70 116.49 112.27 115.04 112.84 113.59 C 114.08 119.83 110.99 126.44 105.34 129.38 C 100.44 132.20 94.26 130.57 89.43 133.52 C 88.76 133.76 88.10 133.99 87.43 134.22 C 84.48 132.61 81.34 131.33 78.01 130.75 C 74.27 130.05 70.45 129.88 66.71 129.16 C 60.46 127.80 56.41 121.68 56.07 115.51 C 62.78 117.74 67.36 123.81 74.07 125.87 C 81.44 126.24 88.76 123.53 95.09 119.90 C 85.94 117.84 76.54 117.86 67.23 117.47 C 64.73 117.61 64.64 114.81 63.92 113.11 C 74.33 116.78 86.08 118.02 96.70 114.54 C 95.33 112.83 93.97 111.12 92.52 109.48 Z" />
</g>
<g id="#626357fe">
<path fill="#626357" opacity="1.00" d=" M 108.81 95.72 C 113.10 100.47 112.97 107.15 115.16 112.86 C 117.02 111.58 118.83 110.19 120.91 109.28 C 122.19 109.88 123.37 110.66 124.46 111.56 C 121.06 114.07 116.89 114.89 112.84 113.59 C 112.27 115.04 111.70 116.49 111.13 117.94 C 107.46 115.58 103.86 113.06 99.86 111.28 C 102.84 109.58 106.47 108.30 108.27 105.17 C 109.45 102.17 108.80 98.85 108.81 95.72 Z" />
<path fill="#626357" opacity="1.00" d=" M 64.96 131.96 C 65.60 131.64 66.25 131.31 66.89 130.97 C 67.21 134.24 67.70 137.49 68.28 140.72 C 66.37 140.57 64.46 140.43 62.55 140.30 C 63.87 137.94 65.24 135.45 64.94 132.64 L 64.96 131.96 Z" />
<path fill="#626357" opacity="1.00" d=" M 78.01 130.75 C 81.34 131.33 84.48 132.61 87.43 134.22 C 88.10 133.99 88.76 133.76 89.43 133.52 C 90.90 136.48 91.72 139.69 92.25 142.94 C 90.95 143.53 89.68 144.17 88.42 144.84 C 88.12 138.51 83.43 133.48 78.01 130.75 Z" />
<path fill="#626357" opacity="1.00" d=" M 75.01 154.92 C 76.70 150.77 78.25 146.56 79.96 142.42 C 79.54 144.78 79.24 147.16 78.93 149.54 C 80.29 148.10 81.65 146.66 83.01 145.21 C 82.56 147.31 82.11 149.42 81.65 151.52 C 83.78 151.07 85.93 150.67 88.08 150.34 C 88.54 150.28 89.46 150.16 89.91 150.10 C 93.05 151.87 96.21 153.87 99.86 154.35 C 101.83 152.58 102.39 149.88 102.86 147.39 L 103.10 146.53 C 103.29 151.58 101.32 157.68 95.77 158.90 C 95.41 159.05 94.68 159.35 94.31 159.50 C 90.95 157.63 87.44 155.92 83.67 155.06 C 80.79 154.82 77.89 154.80 75.01 154.92 Z" />
<path fill="#626357" opacity="1.00" d=" M 93.11 174.26 C 93.45 174.08 94.12 173.72 94.45 173.54 C 96.07 176.15 98.18 178.39 100.75 180.09 L 100.17 180.65 C 95.98 180.99 91.76 181.01 87.56 180.90 C 88.39 177.93 90.16 175.39 93.11 174.26 Z" />
<path fill="#626357" opacity="1.00" d=" M 30.59 184.26 C 30.82 184.33 31.29 184.47 31.53 184.53 C 33.33 185.06 35.12 185.61 36.94 186.09 C 35.75 186.16 34.57 186.29 33.39 186.42 C 33.79 189.31 34.08 192.21 34.25 195.12 C 32.59 194.49 30.53 194.26 29.42 192.71 C 29.45 189.85 30.15 187.07 30.59 184.26 Z" />
<path fill="#626357" opacity="1.00" d=" M 105.00 186.53 C 106.67 186.43 108.41 186.26 110.03 186.82 C 111.36 188.56 112.20 190.59 113.20 192.52 L 113.56 193.32 C 111.83 193.96 110.11 194.68 108.30 195.06 C 107.50 194.99 105.91 194.85 105.12 194.78 C 105.66 192.88 106.21 190.99 106.77 189.10 C 106.18 188.24 105.59 187.38 105.00 186.53 Z" />
</g>
<g id="#722a26ff">
<path fill="#722a26" opacity="1.00" d=" M 63.38 97.16 C 66.35 97.62 70.26 96.94 72.29 99.67 C 72.77 101.87 72.71 104.14 72.79 106.38 C 70.20 106.66 67.62 106.99 65.02 107.15 C 64.71 106.90 64.11 106.40 63.81 106.15 C 63.49 103.16 63.44 100.15 63.38 97.16 Z" />
<path fill="#722a26" opacity="1.00" d=" M 101.53 97.65 C 106.61 96.51 107.37 105.52 103.49 107.46 C 100.55 109.96 93.49 108.80 94.26 104.09 C 94.35 100.29 98.51 98.72 101.53 97.65 Z" />
</g>
<g id="#3c4141ff">
<path fill="#3c4141" opacity="1.00" d=" M 66.71 129.16 C 70.45 129.88 74.27 130.05 78.01 130.75 C 83.43 133.48 88.12 138.51 88.42 144.84 C 88.13 144.99 87.55 145.28 87.26 145.43 C 84.85 144.25 82.58 142.83 80.28 141.48 C 80.10 140.64 79.74 138.98 79.57 138.15 C 74.10 139.75 72.68 145.65 69.89 149.89 C 67.48 153.66 65.64 157.76 64.39 162.05 C 66.23 162.14 68.07 162.20 69.90 162.41 C 72.89 162.96 75.80 163.87 78.71 164.75 C 79.50 161.97 80.28 159.20 81.05 156.42 C 78.75 156.34 76.45 156.28 74.15 156.21 C 74.37 155.89 74.79 155.24 75.01 154.92 C 77.89 154.80 80.79 154.82 83.67 155.06 C 84.39 158.03 85.23 160.97 86.09 163.91 C 88.77 162.32 91.45 160.74 94.31 159.50 C 94.68 159.35 95.41 159.05 95.77 158.90 C 96.03 159.41 96.56 160.41 96.83 160.91 C 94.70 162.06 92.57 163.20 90.44 164.34 C 90.31 167.57 90.05 170.79 89.52 173.98 C 90.72 174.07 91.92 174.16 93.11 174.26 C 90.16 175.39 88.39 177.93 87.56 180.90 C 91.76 181.01 95.98 180.99 100.17 180.65 C 97.51 183.59 94.46 186.14 91.08 188.22 C 95.74 187.84 100.38 187.23 105.00 186.53 C 105.59 187.38 106.18 188.24 106.77 189.10 C 106.21 190.99 105.66 192.88 105.12 194.78 C 105.91 194.85 107.50 194.99 108.30 195.06 C 102.18 197.90 95.33 197.88 88.77 198.79 C 76.20 200.43 63.49 199.60 50.88 198.90 C 45.18 199.09 39.82 196.89 34.29 195.85 L 34.25 195.12 C 34.08 192.21 33.79 189.31 33.39 186.42 C 34.57 186.29 35.75 186.16 36.94 186.09 C 40.59 186.38 45.53 189.04 47.98 185.06 C 53.41 185.36 59.22 186.16 64.16 183.27 C 64.15 184.91 64.13 186.56 64.11 188.21 C 68.24 188.66 72.39 188.85 76.55 188.86 C 77.04 185.02 77.31 181.15 77.24 177.28 C 77.18 173.83 77.21 170.37 77.52 166.93 C 75.05 166.80 72.23 165.55 69.95 166.88 C 67.40 170.17 66.74 174.68 63.39 177.44 C 61.19 176.23 59.04 174.92 56.85 173.68 C 60.08 173.51 63.32 173.04 66.34 171.85 C 63.69 167.94 58.69 167.57 54.56 166.32 C 56.23 164.74 57.98 163.25 59.84 161.90 C 58.90 161.27 57.95 160.63 57.01 160.00 C 57.81 159.24 58.64 158.51 59.45 157.77 C 59.09 157.27 58.73 156.77 58.37 156.27 C 60.19 151.06 60.67 145.49 62.55 140.30 C 64.46 140.43 66.37 140.57 68.28 140.72 C 67.70 137.49 67.21 134.24 66.89 130.97 C 66.84 130.52 66.76 129.61 66.71 129.16 M 64.38 192.41 C 66.70 192.12 70.33 193.03 70.68 189.73 C 68.33 190.02 64.49 188.91 64.38 192.41 Z" />
</g>
<g id="#b39f37ff">
<path fill="#b39f37" opacity="1.00" d=" M 69.89 149.89 C 72.68 145.65 74.10 139.75 79.57 138.15 C 79.74 138.98 80.10 140.64 80.28 141.48 L 79.96 142.42 C 78.25 146.56 76.70 150.77 75.01 154.92 C 74.79 155.24 74.37 155.89 74.15 156.21 C 72.76 158.30 71.33 160.35 69.90 162.41 C 68.07 162.20 66.23 162.14 64.39 162.05 C 65.64 157.76 67.48 153.66 69.89 149.89 Z" />
<path fill="#b39f37" opacity="1.00" d=" M 98.19 144.07 C 100.05 144.65 101.56 145.98 102.86 147.39 C 102.39 149.88 101.83 152.58 99.86 154.35 C 96.21 153.87 93.05 151.87 89.91 150.10 C 92.11 147.41 94.88 145.21 98.19 144.07 Z" />
<path fill="#b39f37" opacity="1.00" d=" M 49.72 172.34 C 50.95 170.05 52.64 168.06 54.56 166.32 C 58.69 167.57 63.69 167.94 66.34 171.85 C 63.32 173.04 60.08 173.51 56.85 173.68 C 55.45 173.77 54.05 173.85 52.66 173.95 C 51.92 173.55 50.45 172.74 49.72 172.34 Z" />
<path fill="#b39f37" opacity="1.00" d=" M 54.13 181.35 C 57.52 181.11 60.89 180.60 64.17 179.72 C 64.16 180.90 64.16 182.08 64.16 183.27 C 59.22 186.16 53.41 185.36 47.98 185.06 C 48.18 184.47 48.58 183.28 48.78 182.68 C 51.27 182.91 53.76 183.16 56.25 183.39 C 55.54 182.72 54.83 182.04 54.13 181.35 Z" />
</g>
</svg>
