<?xml version="1.0" encoding="UTF-8" ?>
<!DOCTYPE svg PUBLIC "-//W3C//DTD SVG 1.1//EN" "http://www.w3.org/Graphics/SVG/1.1/DTD/svg11.dtd">
<svg width="155pt" height="210pt" viewBox="0 0 155 210" version="1.1" xmlns="http://www.w3.org/2000/svg">
<g id="#586571ff">
<path fill="#586571" opacity="1.00" d=" M 28.68 24.35 C 30.01 22.10 30.81 19.21 33.08 17.76 C 36.70 17.19 35.55 21.67 36.00 23.88 C 37.99 23.75 39.98 23.65 41.96 23.54 C 40.90 30.21 40.58 38.44 45.99 43.40 C 42.57 45.84 39.04 48.14 35.36 50.15 C 35.21 49.09 35.07 48.03 34.95 46.96 C 35.89 45.55 36.88 44.17 37.86 42.79 C 35.54 38.50 32.23 34.83 27.99 32.36 C 26.71 33.53 25.40 34.67 24.20 35.92 C 23.68 34.22 23.17 32.51 22.64 30.80 C 21.33 33.05 20.61 35.57 20.16 38.12 C 20.29 35.91 20.33 33.69 20.38 31.48 C 21.43 31.14 22.47 30.81 23.52 30.48 C 23.79 28.43 24.10 26.39 24.40 24.35 C 25.82 24.34 27.25 24.35 28.68 24.35 M 34.32 34.21 C 33.72 37.54 37.96 37.21 40.09 38.08 C 39.64 35.68 39.01 33.33 38.14 31.06 C 36.84 32.02 35.00 32.62 34.32 34.21 Z" />
<path fill="#586571" opacity="1.00" d=" M 67.77 106.88 C 68.62 106.90 70.30 106.96 71.15 106.99 C 71.09 108.77 71.04 110.55 70.88 112.33 L 70.79 113.09 C 70.44 113.22 69.73 113.48 69.37 113.62 L 68.83 113.82 C 67.47 114.25 66.08 114.57 64.70 114.91 C 65.55 112.17 66.57 109.48 67.77 106.88 Z" />
<path fill="#586571" opacity="1.00" d=" M 107.02 107.24 C 108.07 107.18 109.11 107.08 110.15 106.93 C 109.49 108.14 108.82 109.35 108.15 110.55 C 110.89 110.24 113.64 109.98 116.40 109.79 C 114.19 112.77 111.50 115.39 108.25 117.23 C 107.90 115.68 107.55 114.13 107.20 112.58 C 105.64 112.97 104.07 113.37 102.50 113.75 C 103.91 111.52 105.43 109.35 107.02 107.24 Z" />
<path fill="#586571" opacity="1.00" d=" M 84.66 108.40 C 85.46 108.50 87.06 108.72 87.86 108.82 C 88.22 108.97 88.95 109.25 89.31 109.39 C 89.42 112.62 89.55 115.85 89.89 119.06 C 87.20 116.03 83.68 112.91 84.66 108.40 Z" />
<path fill="#586571" opacity="1.00" d=" M 121.11 146.02 C 124.20 134.90 124.27 123.26 126.10 111.93 C 125.80 118.53 127.14 125.03 128.66 131.41 C 130.38 138.16 128.41 145.05 128.71 151.88 C 125.85 151.16 123.07 150.15 120.30 149.16 C 120.57 148.11 120.84 147.07 121.11 146.02 Z" />
<path fill="#586571" opacity="1.00" d=" M 93.09 116.98 C 97.52 117.41 101.96 117.85 106.38 118.39 C 106.40 118.85 106.42 119.78 106.44 120.24 C 106.47 121.17 106.50 122.11 106.53 123.04 C 102.33 121.39 97.98 120.19 93.57 119.25 C 93.45 118.68 93.21 117.55 93.09 116.98 Z" />
<path fill="#586571" opacity="1.00" d=" M 87.74 123.18 C 90.72 122.95 95.15 120.50 97.06 123.93 C 98.20 125.79 98.67 127.96 99.12 130.08 C 98.94 130.47 98.59 131.25 98.41 131.63 C 94.45 129.37 90.82 126.55 87.74 123.18 Z" />
<path fill="#586571" opacity="1.00" d=" M 48.88 129.15 C 50.47 128.16 52.06 127.18 53.66 126.22 C 55.35 127.45 56.92 129.03 58.96 129.66 C 62.25 129.99 64.53 127.05 67.01 125.37 C 70.51 126.28 73.97 127.48 77.59 127.88 C 81.14 127.97 84.37 126.06 87.88 125.77 C 91.51 126.79 90.76 130.83 90.28 133.64 C 89.71 134.90 89.08 136.13 88.53 137.40 C 87.47 137.50 86.42 137.60 85.36 137.70 C 85.30 134.41 85.14 131.13 84.88 127.85 C 84.26 130.71 83.66 133.56 83.05 136.42 C 81.82 135.06 80.59 133.71 79.38 132.33 C 78.98 134.26 78.67 136.21 77.97 138.06 C 76.40 138.64 74.79 139.08 73.15 139.42 C 72.07 136.70 70.91 134.02 69.72 131.35 C 64.50 131.49 59.30 131.83 54.11 132.36 C 53.78 136.50 53.95 140.68 54.75 144.77 C 53.55 143.80 52.33 142.86 51.12 141.91 C 48.30 139.81 45.61 137.53 43.33 134.83 C 43.66 133.04 43.98 131.25 44.30 129.46 C 45.48 130.47 46.66 131.48 47.84 132.50 C 48.17 131.38 48.53 130.26 48.88 129.15 Z" />
<path fill="#586571" opacity="1.00" d=" M 14.91 132.64 C 17.73 129.72 20.78 132.89 22.84 135.01 C 23.25 135.39 24.07 136.14 24.48 136.51 C 26.86 138.82 29.74 140.52 32.74 141.89 C 32.90 144.84 32.01 147.74 30.14 150.04 C 26.75 152.79 22.49 154.00 18.18 154.20 C 17.95 154.35 17.50 154.67 17.27 154.83 C 15.74 152.83 13.64 151.43 11.19 150.85 C 11.01 150.79 10.65 150.67 10.48 150.62 C 11.30 148.08 10.40 145.61 9.09 143.43 C 10.80 142.85 12.49 142.21 14.16 141.51 C 11.92 141.53 9.68 141.66 7.44 141.77 C 8.08 139.83 8.16 137.35 10.04 136.12 C 12.86 136.35 15.49 137.47 18.11 138.45 C 16.70 141.28 16.25 144.47 17.64 147.43 C 19.54 145.98 21.54 144.60 23.08 142.75 C 23.28 140.43 22.67 138.14 22.28 135.88 C 20.96 136.55 19.64 137.22 18.33 137.89 C 16.94 137.04 15.53 136.23 14.13 135.40 C 15.06 135.14 15.92 134.73 16.71 134.17 C 16.26 133.79 15.36 133.03 14.91 132.64 M 25.23 143.27 C 24.77 144.04 23.84 145.58 23.37 146.35 C 25.29 147.93 28.01 150.86 30.10 147.83 C 30.67 144.93 27.30 144.02 25.23 143.27 Z" />
<path fill="#586571" opacity="1.00" d=" M 57.30 135.25 C 60.96 133.73 65.05 134.33 68.91 134.21 C 71.46 138.29 71.90 144.24 76.52 146.61 C 74.39 149.90 71.91 153.20 71.25 157.17 C 70.77 160.96 71.83 164.70 72.49 168.41 C 74.40 168.69 76.31 168.99 78.23 169.21 C 74.42 169.79 70.52 169.91 66.73 169.14 C 68.16 169.11 69.59 169.05 71.01 168.99 C 70.53 165.08 69.92 161.19 69.14 157.34 C 63.44 155.10 58.67 151.20 53.62 147.86 C 54.91 147.82 56.21 147.78 57.50 147.75 C 56.68 143.71 54.77 139.04 57.30 135.25 Z" />
<path fill="#586571" opacity="1.00" d=" M 91.51 143.10 C 92.80 143.40 94.09 143.69 95.38 143.98 C 95.49 144.59 95.71 145.82 95.82 146.44 C 96.95 151.69 100.77 157.55 96.66 162.50 L 96.01 162.92 C 95.14 157.35 94.47 151.70 92.67 146.32 C 92.31 145.24 91.91 144.17 91.51 143.10 Z" />
<path fill="#586571" opacity="1.00" d=" M 129.96 157.07 C 133.03 157.58 136.11 158.09 139.20 158.45 C 138.46 158.73 137.70 158.99 136.93 159.20 C 135.41 159.36 133.89 159.42 132.37 159.48 C 132.79 160.94 133.20 162.40 133.61 163.88 C 131.54 162.90 129.54 161.77 127.76 160.33 C 128.49 159.24 129.23 158.16 129.96 157.07 Z" />
<path fill="#586571" opacity="1.00" d=" M 126.63 165.86 C 128.81 165.73 131.00 165.61 133.19 165.54 C 131.81 166.53 130.43 167.53 129.05 168.51 C 130.43 168.81 131.82 169.11 133.21 169.43 C 132.64 171.18 131.83 173.18 129.63 173.13 C 128.19 173.19 126.75 173.17 125.31 173.16 L 125.34 172.30 C 125.64 170.13 126.12 167.99 126.63 165.86 Z" />
<path fill="#586571" opacity="1.00" d=" M 101.38 175.46 C 103.26 174.31 105.16 173.17 107.07 172.05 C 106.64 175.30 106.11 178.54 105.34 181.73 C 103.89 179.70 102.33 177.77 100.77 175.83 L 101.38 175.46 Z" />
<path fill="#586571" opacity="1.00" d=" M 50.95 181.04 C 51.13 179.95 51.30 178.86 51.48 177.78 C 52.74 178.48 54.02 179.16 55.30 179.83 C 54.92 180.88 54.53 181.93 54.13 182.98 C 53.08 182.32 52.02 181.67 50.95 181.04 Z" />
<path fill="#586571" opacity="1.00" d=" M 57.32 184.61 C 56.64 183.36 56.98 181.88 56.72 180.53 C 65.85 183.27 75.53 182.65 84.86 181.50 C 85.19 181.82 85.85 182.45 86.18 182.77 C 83.94 183.81 81.71 184.85 79.50 185.95 C 79.32 184.91 79.15 183.86 78.97 182.82 C 77.00 182.77 75.03 182.71 73.06 182.67 C 72.56 185.29 72.00 187.91 71.49 190.53 C 66.44 189.53 61.49 187.64 57.32 184.61 Z" />
<path fill="#586571" opacity="1.00" d=" M 58.54 200.10 C 64.31 199.10 70.18 199.62 76.01 199.55 C 81.74 199.57 87.47 199.35 93.19 199.66 C 95.25 199.79 97.31 199.97 99.37 200.08 C 94.65 201.13 89.82 201.67 84.98 201.43 C 76.16 201.02 67.20 202.33 58.54 200.10 Z" />
</g>
<g id="#b4ad86ff">
<path fill="#b4ad86" opacity="1.00" d=" M 20.16 38.12 C 20.61 35.57 21.33 33.05 22.64 30.80 C 23.17 32.51 23.68 34.22 24.20 35.92 C 23.40 37.34 22.68 38.80 22.09 40.32 C 21.61 39.77 20.65 38.67 20.16 38.12 Z" />
<path fill="#b4ad86" opacity="1.00" d=" M 34.32 34.21 C 35.00 32.62 36.84 32.02 38.14 31.06 C 39.01 33.33 39.64 35.68 40.09 38.08 C 37.96 37.21 33.72 37.54 34.32 34.21 Z" />
<path fill="#b4ad86" opacity="1.00" d=" M 119.82 72.02 C 129.87 73.03 138.39 79.91 144.22 87.79 C 147.55 92.66 150.87 97.74 152.55 103.45 C 153.08 107.54 151.18 112.21 147.25 113.96 C 147.73 115.98 148.20 118.13 147.25 120.09 C 143.59 129.77 139.18 139.35 138.06 149.76 C 137.84 151.02 137.63 152.28 137.42 153.54 C 134.51 152.99 131.60 152.50 128.71 151.88 C 128.41 145.05 130.38 138.16 128.66 131.41 C 127.14 125.03 125.80 118.53 126.10 111.93 C 126.99 103.38 125.88 94.80 124.62 86.35 C 123.92 81.30 121.57 76.74 119.82 72.02 Z" />
<path fill="#b4ad86" opacity="1.00" d=" M 70.79 113.09 C 74.14 112.13 79.62 109.05 81.57 113.63 C 84.09 119.48 75.14 123.71 71.02 120.05 C 69.84 118.14 69.86 115.76 69.37 113.62 C 69.73 113.48 70.44 113.22 70.79 113.09 Z" />
<path fill="#b4ad86" opacity="1.00" d=" M 45.90 113.63 C 48.31 114.32 50.70 115.08 53.08 115.88 C 53.28 116.23 53.66 116.93 53.85 117.28 C 54.27 118.08 54.69 118.89 55.10 119.71 C 54.79 120.96 54.45 122.21 54.09 123.46 C 51.96 122.77 49.58 122.53 47.73 121.18 C 45.99 119.10 46.33 116.14 45.90 113.63 Z" />
</g>
<g id="#d3af11ff">
<path fill="#d3af11" opacity="1.00" d=" M 24.20 35.92 C 25.40 34.67 26.71 33.53 27.99 32.36 C 32.23 34.83 35.54 38.50 37.86 42.79 C 36.88 44.17 35.89 45.55 34.95 46.96 C 32.56 50.69 30.06 54.33 27.51 57.95 C 26.21 56.70 24.43 55.66 24.04 53.76 C 22.96 49.38 21.88 44.87 22.09 40.32 C 22.68 38.80 23.40 37.34 24.20 35.92 Z" />
<path fill="#d3af11" opacity="1.00" d=" M 45.99 43.40 C 48.22 41.91 50.40 40.22 52.99 39.40 C 56.16 39.96 58.90 41.81 61.67 43.33 C 73.32 50.20 85.18 56.81 95.93 65.05 C 98.31 66.97 100.87 68.91 102.34 71.66 C 103.32 73.68 102.15 75.91 101.15 77.69 C 98.48 81.89 94.50 85.34 92.80 90.12 C 91.86 92.76 94.16 94.71 96.39 95.52 C 100.37 97.48 105.50 97.98 107.92 102.19 C 107.02 103.93 106.15 105.68 105.17 107.37 C 103.32 109.72 101.20 111.84 99.10 113.96 C 98.00 113.37 96.90 112.78 95.78 112.22 C 97.60 109.16 99.38 106.08 101.10 102.96 C 96.20 100.67 91.29 98.40 86.46 95.98 C 86.94 92.60 87.19 89.02 89.11 86.08 C 91.76 81.97 94.69 78.03 97.15 73.78 C 94.53 71.38 91.79 69.09 88.73 67.28 C 78.84 61.39 68.76 55.83 58.66 50.31 C 56.29 49.25 53.48 47.41 50.90 48.95 C 46.06 51.45 42.07 55.27 37.66 58.43 C 36.75 55.72 35.80 52.99 35.36 50.15 C 39.04 48.14 42.57 45.84 45.99 43.40 Z" />
<path fill="#d3af11" opacity="1.00" d=" M 33.31 52.70 C 34.55 55.03 37.82 57.97 35.53 60.62 C 31.94 65.05 27.56 68.83 24.51 73.71 C 28.67 78.59 34.38 83.66 33.74 90.72 C 33.89 96.60 28.36 99.84 24.43 103.18 C 25.92 105.98 27.54 108.73 29.52 111.22 C 29.83 111.62 30.46 112.42 30.78 112.82 C 30.46 113.26 29.81 114.13 29.48 114.56 C 25.13 111.42 20.37 106.89 20.54 101.13 C 23.70 97.38 28.75 94.39 28.91 88.93 C 29.10 82.64 22.69 79.22 20.49 73.96 C 20.74 69.58 23.97 66.07 25.15 61.91 C 26.33 62.85 27.51 63.79 28.69 64.72 C 29.50 61.85 30.36 58.98 31.33 56.15 C 32.38 57.13 33.43 58.12 34.48 59.10 C 34.05 56.98 33.67 54.84 33.31 52.70 Z" />
<path fill="#d3af11" opacity="1.00" d=" M 99.61 141.81 C 100.69 141.75 101.77 141.69 102.85 141.64 C 103.57 143.72 104.38 145.88 104.02 148.13 C 102.64 148.87 101.26 149.63 99.88 150.37 C 99.18 149.59 98.50 148.79 97.84 147.99 C 97.44 147.46 96.64 146.39 96.25 145.86 C 97.34 144.48 98.48 143.15 99.61 141.81 Z" />
<path fill="#d3af11" opacity="1.00" d=" M 45.64 150.45 C 48.27 149.65 50.96 149.08 53.67 148.66 C 53.74 153.80 53.58 158.95 53.67 164.09 C 53.65 160.79 53.28 157.50 52.72 154.25 C 48.96 159.20 52.73 165.59 50.20 170.98 C 48.73 171.16 47.27 171.32 45.80 171.50 C 44.90 173.85 43.97 176.19 43.04 178.53 C 43.31 179.13 43.58 179.73 43.85 180.33 C 41.37 182.69 39.36 185.48 37.64 188.43 C 35.85 186.52 33.74 184.79 32.57 182.39 C 32.12 180.56 32.43 178.66 32.47 176.80 C 34.40 179.13 36.41 181.38 38.51 183.56 C 38.03 180.01 37.52 176.42 38.07 172.85 C 38.22 172.41 38.52 171.53 38.67 171.10 C 39.98 171.96 41.29 172.84 42.59 173.72 C 43.90 168.88 45.70 164.15 46.53 159.19 C 46.70 158.07 46.69 156.95 46.50 155.84 C 46.23 154.04 45.85 152.26 45.64 150.45 Z" />
<path fill="#d3af11" opacity="1.00" d=" M 103.95 148.88 C 105.77 150.89 107.56 152.95 109.56 154.80 C 109.10 155.50 108.17 156.89 107.70 157.59 C 105.49 155.16 102.75 152.48 103.95 148.88 Z" />
<path fill="#d3af11" opacity="1.00" d=" M 138.06 149.76 C 140.55 151.08 145.15 152.08 144.04 155.84 C 143.88 158.18 140.97 158.27 139.20 158.45 C 136.11 158.09 133.03 157.58 129.96 157.07 C 128.18 156.78 126.41 156.50 124.64 156.19 C 124.88 155.49 125.36 154.10 125.60 153.40 C 129.53 153.63 133.48 153.68 137.42 153.54 C 137.63 152.28 137.84 151.02 138.06 149.76 Z" />
<path fill="#d3af11" opacity="1.00" d=" M 13.37 153.91 C 14.67 154.22 15.97 154.51 17.27 154.83 C 17.21 155.78 17.08 157.69 17.02 158.64 C 20.67 157.26 24.27 155.72 27.59 153.66 C 27.12 159.12 21.10 160.97 16.49 161.44 L 15.74 161.41 C 15.21 158.84 14.75 156.19 13.37 153.91 Z" />
<path fill="#d3af11" opacity="1.00" d=" M 110.78 155.63 C 112.03 156.38 113.31 157.06 114.58 157.76 C 115.07 158.88 115.56 160.00 116.06 161.13 C 114.47 162.35 112.88 163.58 111.28 164.79 C 110.07 163.19 108.87 161.59 107.66 160.00 C 108.70 158.54 109.74 157.08 110.78 155.63 Z" />
<path fill="#d3af11" opacity="1.00" d=" M 41.44 162.79 C 41.75 164.11 42.07 165.43 42.40 166.75 C 42.06 167.16 41.39 167.97 41.06 168.37 C 40.64 167.79 39.82 166.61 39.40 166.03 C 40.07 164.94 40.75 163.86 41.44 162.79 Z" />
<path fill="#d3af11" opacity="1.00" d=" M 112.82 165.31 C 113.41 164.87 114.58 163.98 115.16 163.54 C 116.53 165.96 117.82 168.44 119.02 170.95 C 117.98 171.31 116.94 171.68 115.90 172.05 C 114.83 169.82 113.80 167.57 112.82 165.31 Z" />
<path fill="#d3af11" opacity="1.00" d=" M 98.73 164.87 C 100.08 165.17 101.44 165.47 102.80 165.77 C 103.33 168.84 102.76 171.82 100.13 173.78 C 99.20 172.44 98.18 171.14 97.57 169.63 C 97.71 167.99 98.29 166.44 98.73 164.87 Z" />
<path fill="#d3af11" opacity="1.00" d=" M 53.07 169.46 C 54.62 170.62 57.20 171.14 57.69 173.27 C 57.43 174.97 56.81 176.57 56.25 178.19 C 54.82 177.05 53.41 175.90 52.00 174.76 C 52.34 172.99 52.72 171.22 53.07 169.46 Z" />
<path fill="#d3af11" opacity="1.00" d=" M 116.09 174.12 C 117.93 172.93 119.76 171.71 121.48 170.34 C 121.59 170.80 121.82 171.71 121.93 172.16 C 122.25 173.31 122.56 174.46 122.84 175.62 C 122.75 178.06 122.69 180.50 122.82 182.94 C 121.80 183.67 120.77 184.41 119.74 185.14 C 118.78 182.50 117.79 179.87 116.77 177.25 C 116.53 176.21 116.30 175.17 116.09 174.12 Z" />
<path fill="#d3af11" opacity="1.00" d=" M 78.39 172.46 C 80.79 171.67 83.62 173.41 83.70 176.00 C 83.32 178.19 81.49 180.27 79.09 179.73 C 74.94 179.93 74.07 173.13 78.39 172.46 Z" />
<path fill="#d3af11" opacity="1.00" d=" M 125.31 173.16 C 126.75 173.17 128.19 173.19 129.63 173.13 C 130.84 175.66 134.80 178.39 132.32 181.28 C 131.02 183.09 128.55 182.39 126.65 182.64 C 126.54 182.00 126.30 180.71 126.19 180.07 C 125.80 177.78 125.48 175.48 125.31 173.16 Z" />
</g>
<g id="#b52c13ff">
<path fill="#b52c13" opacity="1.00" d=" M 27.51 57.95 C 30.06 54.33 32.56 50.69 34.95 46.96 C 35.07 48.03 35.21 49.09 35.36 50.15 C 35.80 52.99 36.75 55.72 37.66 58.43 C 42.07 55.27 46.06 51.45 50.90 48.95 C 53.48 47.41 56.29 49.25 58.66 50.31 C 68.76 55.83 78.84 61.39 88.73 67.28 C 91.79 69.09 94.53 71.38 97.15 73.78 C 94.69 78.03 91.76 81.97 89.11 86.08 C 87.19 89.02 86.94 92.60 86.46 95.98 C 91.29 98.40 96.20 100.67 101.10 102.96 C 99.38 106.08 97.60 109.16 95.78 112.22 C 93.67 111.17 91.50 110.26 89.31 109.39 C 88.95 109.25 88.22 108.97 87.86 108.82 C 79.92 104.45 70.66 105.79 61.98 105.65 C 55.31 105.80 48.62 105.26 41.96 105.78 C 37.28 106.06 33.32 108.76 29.52 111.22 C 27.54 108.73 25.92 105.98 24.43 103.18 C 28.36 99.84 33.89 96.60 33.74 90.72 C 34.38 83.66 28.67 78.59 24.51 73.71 C 27.56 68.83 31.94 65.05 35.53 60.62 C 37.82 57.97 34.55 55.03 33.31 52.70 C 33.67 54.84 34.05 56.98 34.48 59.10 C 33.43 58.12 32.38 57.13 31.33 56.15 C 30.36 58.98 29.50 61.85 28.69 64.72 C 27.51 63.79 26.33 62.85 25.15 61.91 C 25.90 60.57 26.65 59.23 27.51 57.95 M 48.92 63.86 C 42.92 66.88 38.21 73.97 40.28 80.82 C 41.20 83.70 40.65 86.68 40.05 89.56 C 41.54 90.12 43.03 90.68 44.53 91.24 C 44.66 93.53 44.84 95.82 45.05 98.11 C 47.90 98.32 50.73 97.87 53.31 96.65 C 55.30 97.74 57.31 99.68 59.76 98.95 C 61.55 98.18 62.64 96.44 63.96 95.09 C 66.41 96.35 69.57 98.52 71.97 95.94 C 74.35 94.47 73.23 91.80 72.60 89.70 C 73.93 88.64 76.44 88.17 76.14 86.02 C 76.03 84.50 74.52 83.61 73.71 82.45 C 74.30 78.42 74.86 74.01 72.60 70.36 C 68.22 62.17 56.89 59.98 48.92 63.86 Z" />
<path fill="#b52c13" opacity="1.00" d=" M 62.46 72.46 C 65.78 71.31 69.65 74.96 68.36 78.33 C 67.38 81.42 63.10 82.83 60.78 80.31 C 57.98 78.17 59.26 73.47 62.46 72.46 Z" />
<path fill="#b52c13" opacity="1.00" d=" M 49.30 73.41 C 53.29 72.89 56.20 78.30 53.50 81.33 C 51.38 84.45 45.91 83.41 45.02 79.78 C 44.02 76.85 46.26 73.64 49.30 73.41 Z" />
<path fill="#b52c13" opacity="1.00" d=" M 102.62 81.94 C 102.46 81.41 102.16 80.34 102.01 79.80 C 106.06 82.03 109.34 85.36 113.33 87.67 C 115.94 89.37 118.89 90.81 120.75 93.40 C 121.58 98.18 117.97 102.17 115.74 106.05 C 113.88 106.34 112.01 106.64 110.15 106.93 C 109.11 107.08 108.07 107.18 107.02 107.24 C 106.56 107.27 105.63 107.33 105.17 107.37 C 106.15 105.68 107.02 103.93 107.92 102.19 C 108.15 102.49 108.63 103.08 108.87 103.38 C 111.61 102.65 114.81 101.58 115.92 98.67 C 117.02 96.26 116.09 93.47 114.29 91.67 C 110.77 88.00 106.28 85.45 102.62 81.94 Z" />
<path fill="#b52c13" opacity="1.00" d=" M 99.12 130.08 C 100.55 128.97 102.11 128.04 103.59 127.00 C 107.81 130.67 113.21 132.71 117.11 136.83 C 116.68 137.45 115.81 138.70 115.37 139.32 C 110.51 136.94 106.13 133.74 101.75 130.59 C 100.16 134.12 99.54 137.96 99.61 141.81 C 98.48 143.15 97.34 144.48 96.25 145.86 L 95.82 146.44 C 95.71 145.82 95.49 144.59 95.38 143.98 C 95.55 141.38 95.90 138.80 96.41 136.25 C 97.07 134.71 97.71 133.16 98.41 131.63 C 98.59 131.25 98.94 130.47 99.12 130.08 Z" />
<path fill="#b52c13" opacity="1.00" d=" M 37.04 131.72 C 37.53 131.73 38.49 131.74 38.98 131.74 C 39.06 132.23 39.23 133.20 39.31 133.69 C 37.71 134.00 36.96 133.34 37.04 131.72 Z" />
<path fill="#b52c13" opacity="1.00" d=" M 22.84 135.01 C 26.97 134.85 30.95 136.29 33.97 139.11 C 35.62 140.43 37.25 141.74 38.92 143.03 C 38.76 148.40 37.68 153.98 34.00 158.12 C 29.36 162.97 22.20 161.89 16.18 161.49 L 16.49 161.44 C 21.10 160.97 27.12 159.12 27.59 153.66 C 28.48 152.48 29.31 151.26 30.14 150.04 C 32.01 147.74 32.90 144.84 32.74 141.89 C 30.84 138.98 27.49 137.86 24.48 136.51 C 24.07 136.14 23.25 135.39 22.84 135.01 Z" />
<path fill="#b52c13" opacity="1.00" d=" M 114.48 147.73 C 116.52 146.62 118.80 146.16 121.11 146.02 C 120.84 147.07 120.57 148.11 120.30 149.16 C 123.07 150.15 125.85 151.16 128.71 151.88 C 131.60 152.50 134.51 152.99 137.42 153.54 C 133.48 153.68 129.53 153.63 125.60 153.40 C 125.36 154.10 124.88 155.49 124.64 156.19 C 124.21 156.10 123.36 155.92 122.93 155.84 C 120.10 153.14 117.43 150.29 114.48 147.73 Z" />
<path fill="#b52c13" opacity="1.00" d=" M 97.84 147.99 C 98.50 148.79 99.18 149.59 99.88 150.37 C 101.26 149.63 102.64 148.87 104.02 148.13 L 103.95 148.88 C 102.75 152.48 105.49 155.16 107.70 157.59 C 108.17 156.89 109.10 155.50 109.56 154.80 C 109.87 155.00 110.48 155.42 110.78 155.63 C 109.74 157.08 108.70 158.54 107.66 160.00 C 108.87 161.59 110.07 163.19 111.28 164.79 C 112.88 163.58 114.47 162.35 116.06 161.13 C 115.56 160.00 115.07 158.88 114.58 157.76 C 115.11 156.40 115.64 155.03 116.16 153.67 C 117.79 154.29 119.41 154.91 121.08 155.42 C 121.09 160.01 121.48 164.61 122.36 169.12 C 122.14 169.43 121.70 170.04 121.48 170.34 C 119.76 171.71 117.93 172.93 116.09 174.12 C 116.30 175.17 116.53 176.21 116.77 177.25 C 114.74 174.93 112.71 172.60 110.82 170.17 C 108.69 167.32 105.66 165.31 103.50 162.50 C 102.37 159.65 102.58 156.42 101.29 153.61 C 100.34 151.62 99.08 149.80 97.84 147.99 M 104.67 160.38 C 104.07 161.85 106.20 163.93 107.66 163.27 C 108.41 161.76 106.15 159.67 104.67 160.38 M 112.82 165.31 C 113.80 167.57 114.83 169.82 115.90 172.05 C 116.94 171.68 117.98 171.31 119.02 170.95 C 117.82 168.44 116.53 165.96 115.16 163.54 C 114.58 163.98 113.41 164.87 112.82 165.31 Z" />
<path fill="#b52c13" opacity="1.00" d=" M 96.66 162.50 C 97.17 162.53 98.18 162.60 98.69 162.64 C 98.70 163.38 98.71 164.12 98.73 164.87 C 98.29 166.44 97.71 167.99 97.57 169.63 C 98.18 171.14 99.20 172.44 100.13 173.78 C 100.44 174.20 101.07 175.04 101.38 175.46 L 100.77 175.83 C 96.80 178.30 92.42 180.08 87.83 181.00 C 86.84 181.19 85.85 181.36 84.86 181.50 C 75.53 182.65 65.85 183.27 56.72 180.53 C 56.37 180.35 55.66 180.00 55.30 179.83 C 54.02 179.16 52.74 178.48 51.48 177.78 C 51.64 176.77 51.81 175.76 52.00 174.76 C 53.41 175.90 54.82 177.05 56.25 178.19 C 56.81 176.57 57.43 174.97 57.69 173.27 C 57.20 171.14 54.62 170.62 53.07 169.46 C 53.29 168.23 53.50 167.00 53.64 165.76 C 57.97 166.99 62.28 168.37 66.73 169.14 C 70.52 169.91 74.42 169.79 78.23 169.21 C 80.31 168.96 82.37 168.59 84.42 168.16 C 85.19 167.96 85.95 167.73 86.70 167.47 C 89.91 166.19 93.02 164.67 96.01 162.92 L 96.66 162.50 M 78.39 172.46 C 74.07 173.13 74.94 179.93 79.09 179.73 C 81.49 180.27 83.32 178.19 83.70 176.00 C 83.62 173.41 80.79 171.67 78.39 172.46 Z" />
<path fill="#b52c13" opacity="1.00" d=" M 32.47 176.80 C 34.27 175.39 36.13 174.05 38.07 172.85 C 37.52 176.42 38.03 180.01 38.51 183.56 C 36.41 181.38 34.40 179.13 32.47 176.80 Z" />
</g>
<g id="#efebcaff">
<path fill="#efebca" opacity="1.00" d=" M 48.92 63.86 C 56.89 59.98 68.22 62.17 72.60 70.36 C 74.86 74.01 74.30 78.42 73.71 82.45 C 74.52 83.61 76.03 84.50 76.14 86.02 C 76.44 88.17 73.93 88.64 72.60 89.70 C 73.23 91.80 74.35 94.47 71.97 95.94 C 69.57 98.52 66.41 96.35 63.96 95.09 C 62.64 96.44 61.55 98.18 59.76 98.95 C 57.31 99.68 55.30 97.74 53.31 96.65 C 50.73 97.87 47.90 98.32 45.05 98.11 C 44.84 95.82 44.66 93.53 44.53 91.24 C 43.03 90.68 41.54 90.12 40.05 89.56 C 40.65 86.68 41.20 83.70 40.28 80.82 C 38.21 73.97 42.92 66.88 48.92 63.86 M 62.46 72.46 C 59.26 73.47 57.98 78.17 60.78 80.31 C 63.10 82.83 67.38 81.42 68.36 78.33 C 69.65 74.96 65.78 71.31 62.46 72.46 M 49.30 73.41 C 46.26 73.64 44.02 76.85 45.02 79.78 C 45.91 83.41 51.38 84.45 53.50 81.33 C 56.20 78.30 53.29 72.89 49.30 73.41 Z" />
</g>
<g id="#6c2208ff">
<path fill="#6c2208" opacity="1.00" d=" M 92.80 90.12 C 94.50 85.34 98.48 81.89 101.15 77.69 C 101.47 78.38 101.76 79.08 102.01 79.80 C 102.16 80.34 102.46 81.41 102.62 81.94 C 106.28 85.45 110.77 88.00 114.29 91.67 C 116.09 93.47 117.02 96.26 115.92 98.67 C 114.81 101.58 111.61 102.65 108.87 103.38 C 108.63 103.08 108.15 102.49 107.92 102.19 C 105.50 97.98 100.37 97.48 96.39 95.52 C 94.16 94.71 91.86 92.76 92.80 90.12 Z" />
<path fill="#6c2208" opacity="1.00" d=" M 29.52 111.22 C 33.32 108.76 37.28 106.06 41.96 105.78 C 48.62 105.26 55.31 105.80 61.98 105.65 C 70.66 105.79 79.92 104.45 87.86 108.82 C 87.06 108.72 85.46 108.50 84.66 108.40 C 80.17 107.77 75.68 107.17 71.15 106.99 C 70.30 106.96 68.62 106.90 67.77 106.88 C 58.76 107.08 49.60 106.20 40.71 108.06 C 38.30 109.93 36.12 112.08 33.71 113.95 C 32.31 114.78 30.59 114.80 29.03 115.17 L 29.48 114.56 C 29.81 114.13 30.46 113.26 30.78 112.82 C 30.46 112.42 29.83 111.62 29.52 111.22 Z" />
<path fill="#6c2208" opacity="1.00" d=" M 101.75 130.59 C 106.13 133.74 110.51 136.94 115.37 139.32 L 116.03 139.66 C 114.51 139.69 112.99 139.73 111.47 139.79 C 111.78 142.65 111.81 145.98 114.48 147.73 C 117.43 150.29 120.10 153.14 122.93 155.84 C 122.47 155.73 121.55 155.52 121.08 155.42 C 119.41 154.91 117.79 154.29 116.16 153.67 C 115.64 155.03 115.11 156.40 114.58 157.76 C 113.31 157.06 112.03 156.38 110.78 155.63 C 110.48 155.42 109.87 155.00 109.56 154.80 C 107.56 152.95 105.77 150.89 103.95 148.88 L 104.02 148.13 C 104.38 145.88 103.57 143.72 102.85 141.64 C 101.77 141.69 100.69 141.75 99.61 141.81 C 99.54 137.96 100.16 134.12 101.75 130.59 Z" />
<path fill="#6c2208" opacity="1.00" d=" M 39.79 136.15 C 40.96 135.68 42.14 135.25 43.33 134.83 C 45.61 137.53 48.30 139.81 51.12 141.91 C 52.12 143.82 52.97 145.81 53.62 147.86 L 53.67 148.66 C 50.96 149.08 48.27 149.65 45.64 150.45 C 46.08 147.31 46.76 144.22 47.26 141.09 C 44.47 141.68 41.69 142.32 38.92 143.03 C 37.25 141.74 35.62 140.43 33.97 139.11 C 35.88 138.07 37.77 136.98 39.79 136.15 Z" />
<path fill="#6c2208" opacity="1.00" d=" M 18.18 154.20 C 22.49 154.00 26.75 152.79 30.14 150.04 C 29.31 151.26 28.48 152.48 27.59 153.66 C 24.27 155.72 20.67 157.26 17.02 158.64 C 17.08 157.69 17.21 155.78 17.27 154.83 C 17.50 154.67 17.95 154.35 18.18 154.20 Z" />
<path fill="#6c2208" opacity="1.00" d=" M 41.26 162.06 C 43.01 161.10 44.76 160.13 46.53 159.19 C 45.70 164.15 43.90 168.88 42.59 173.72 C 41.29 172.84 39.98 171.96 38.67 171.10 C 39.49 170.21 40.29 169.30 41.06 168.37 C 41.39 167.97 42.06 167.16 42.40 166.75 C 42.07 165.43 41.75 164.11 41.44 162.79 L 41.26 162.06 Z" />
<path fill="#6c2208" opacity="1.00" d=" M 104.67 160.38 C 106.15 159.67 108.41 161.76 107.66 163.27 C 106.20 163.93 104.07 161.85 104.67 160.38 Z" />
<path fill="#6c2208" opacity="1.00" d=" M 45.80 171.50 C 47.27 171.32 48.73 171.16 50.20 170.98 C 49.62 172.97 49.04 174.97 48.65 177.01 C 48.29 178.86 48.18 180.77 47.64 182.59 C 46.00 185.12 43.64 187.07 41.68 189.34 C 40.33 189.04 38.99 188.74 37.64 188.43 C 39.36 185.48 41.37 182.69 43.85 180.33 C 43.58 179.73 43.31 179.13 43.04 178.53 C 43.97 176.19 44.90 173.85 45.80 171.50 Z" />
<path fill="#6c2208" opacity="1.00" d=" M 108.90 173.95 C 108.48 172.40 110.35 171.48 110.82 170.17 C 112.71 172.60 114.74 174.93 116.77 177.25 C 117.79 179.87 118.78 182.50 119.74 185.14 L 119.99 185.81 C 115.87 185.36 111.76 184.81 107.72 183.89 C 107.84 183.23 108.08 181.91 108.20 181.24 C 110.07 180.97 111.94 180.69 113.82 180.43 C 112.02 178.42 109.76 176.58 108.90 173.95 Z" />
<path fill="#6c2208" opacity="1.00" d=" M 123.53 172.27 C 123.98 172.27 124.89 172.29 125.34 172.30 L 125.31 173.16 C 125.48 175.48 125.80 177.78 126.19 180.07 C 125.02 178.62 123.85 177.18 122.84 175.62 C 122.56 174.46 122.25 173.31 121.93 172.16 C 122.33 172.19 123.13 172.24 123.53 172.27 Z" />
</g>
<g id="#97b1c3ff">
<path fill="#97b1c3" opacity="1.00" d=" M 110.15 106.93 C 112.01 106.64 113.88 106.34 115.74 106.05 C 117.61 105.84 119.48 106.13 121.34 106.28 C 118.74 112.92 112.15 116.61 106.44 120.24 C 106.42 119.78 106.40 118.85 106.38 118.39 C 106.85 118.10 107.78 117.52 108.25 117.23 C 111.50 115.39 114.19 112.77 116.40 109.79 C 113.64 109.98 110.89 110.24 108.15 110.55 C 108.82 109.35 109.49 108.14 110.15 106.93 Z" />
<path fill="#97b1c3" opacity="1.00" d=" M 40.71 108.06 C 49.60 106.20 58.76 107.08 67.77 106.88 C 66.57 109.48 65.55 112.17 64.70 114.91 C 66.08 114.57 67.47 114.25 68.83 113.82 C 68.49 116.00 67.72 118.67 69.60 120.38 C 72.34 123.77 77.57 123.23 80.81 120.92 C 84.52 118.48 84.11 112.41 80.70 109.91 C 77.25 108.68 73.70 110.40 70.88 112.33 C 71.04 110.55 71.09 108.77 71.15 106.99 C 75.68 107.17 80.17 107.77 84.66 108.40 C 83.68 112.91 87.20 116.03 89.89 119.06 C 90.09 119.37 90.50 120.01 90.70 120.32 C 87.15 122.61 83.73 125.52 79.45 126.28 C 75.28 126.47 71.20 124.76 67.01 125.37 C 64.53 127.05 62.25 129.99 58.96 129.66 C 56.92 129.03 55.35 127.45 53.66 126.22 C 52.06 127.18 50.47 128.16 48.88 129.15 C 46.60 128.13 44.33 127.09 42.06 126.05 C 42.80 123.48 43.53 120.91 44.19 118.32 C 45.68 120.61 46.78 123.56 49.37 124.82 C 51.13 125.64 52.80 124.60 54.09 123.46 C 54.45 122.21 54.79 120.96 55.10 119.71 C 57.88 119.27 60.75 118.30 63.54 119.04 C 64.44 120.16 65.19 121.39 66.00 122.58 C 66.06 120.77 66.36 118.97 66.47 117.17 C 62.27 116.79 58.04 116.75 53.85 117.28 C 53.66 116.93 53.28 116.23 53.08 115.88 C 51.46 113.05 49.47 110.45 47.43 107.91 C 46.06 110.23 44.71 112.55 43.37 114.88 C 42.47 112.61 41.58 110.34 40.71 108.06 Z" />
<path fill="#97b1c3" opacity="1.00" d=" M 14.13 135.40 C 12.49 135.01 13.40 132.32 14.91 132.64 C 15.36 133.03 16.26 133.79 16.71 134.17 C 15.92 134.73 15.06 135.14 14.13 135.40 Z" />
<path fill="#97b1c3" opacity="1.00" d=" M 18.33 137.89 C 19.64 137.22 20.96 136.55 22.28 135.88 C 22.67 138.14 23.28 140.43 23.08 142.75 C 21.54 144.60 19.54 145.98 17.64 147.43 C 16.25 144.47 16.70 141.28 18.11 138.45 L 18.33 137.89 Z" />
<path fill="#97b1c3" opacity="1.00" d=" M 10.48 150.62 C 8.22 148.83 7.50 145.91 9.09 143.43 C 10.40 145.61 11.30 148.08 10.48 150.62 Z" />
<path fill="#97b1c3" opacity="1.00" d=" M 25.23 143.27 C 27.30 144.02 30.67 144.93 30.10 147.83 C 28.01 150.86 25.29 147.93 23.37 146.35 C 23.84 145.58 24.77 144.04 25.23 143.27 Z" />
<path fill="#97b1c3" opacity="1.00" d=" M 76.52 146.61 C 78.15 146.38 79.76 146.08 81.37 145.81 C 82.89 153.17 84.65 160.60 84.42 168.16 C 82.37 168.59 80.31 168.96 78.23 169.21 C 76.31 168.99 74.40 168.69 72.49 168.41 C 71.83 164.70 70.77 160.96 71.25 157.17 C 71.91 153.20 74.39 149.90 76.52 146.61 Z" />
<path fill="#97b1c3" opacity="1.00" d=" M 83.97 147.77 C 86.92 147.62 89.83 147.11 92.67 146.32 C 94.47 151.70 95.14 157.35 96.01 162.92 C 93.02 164.67 89.91 166.19 86.70 167.47 C 84.27 161.20 84.22 154.40 83.97 147.77 Z" />
<path fill="#97b1c3" opacity="1.00" d=" M 53.62 147.86 C 58.67 151.20 63.44 155.10 69.14 157.34 C 69.92 161.19 70.53 165.08 71.01 168.99 C 69.59 169.05 68.16 169.11 66.73 169.14 C 62.28 168.37 57.97 166.99 53.64 165.76 C 53.65 165.34 53.66 164.51 53.67 164.09 C 53.58 158.95 53.74 153.80 53.67 148.66 L 53.62 147.86 Z" />
<path fill="#97b1c3" opacity="1.00" d=" M 11.19 150.85 C 13.64 151.43 15.74 152.83 17.27 154.83 C 15.97 154.51 14.67 154.22 13.37 153.91 C 12.93 153.80 12.03 153.57 11.59 153.46 C 11.49 152.80 11.29 151.50 11.19 150.85 Z" />
<path fill="#97b1c3" opacity="1.00" d=" M 122.18 156.69 C 124.14 157.74 126.02 158.93 127.76 160.33 C 129.54 161.77 131.54 162.90 133.61 163.88 C 133.20 162.40 132.79 160.94 132.37 159.48 C 133.89 159.42 135.41 159.36 136.93 159.20 C 136.03 162.72 134.65 166.09 133.21 169.43 C 131.82 169.11 130.43 168.81 129.05 168.51 C 130.43 167.53 131.81 166.53 133.19 165.54 C 131.00 165.61 128.81 165.73 126.63 165.86 C 126.94 164.62 127.27 163.38 127.60 162.15 C 126.16 162.15 124.71 162.16 123.27 162.17 C 122.89 160.35 122.51 158.52 122.18 156.69 Z" />
<path fill="#97b1c3" opacity="1.00" d=" M 87.83 181.00 C 92.42 180.08 96.80 178.30 100.77 175.83 C 102.33 177.77 103.89 179.70 105.34 181.73 L 105.16 182.49 C 102.81 182.79 100.45 182.97 98.10 183.32 C 94.76 183.79 92.12 186.07 89.47 187.97 C 88.70 185.70 88.27 183.34 87.83 181.00 Z" />
<path fill="#97b1c3" opacity="1.00" d=" M 79.50 185.95 C 81.71 184.85 83.94 183.81 86.18 182.77 C 86.43 184.31 86.62 185.88 86.52 187.45 C 84.68 188.94 82.49 189.92 80.26 190.64 C 80.00 189.08 79.75 187.51 79.50 185.95 Z" />
</g>
<g id="#2f3133ff">
<path fill="#2f3133" opacity="1.00" d=" M 105.17 107.37 C 105.63 107.33 106.56 107.27 107.02 107.24 C 105.43 109.35 103.91 111.52 102.50 113.75 C 104.07 113.37 105.64 112.97 107.20 112.58 C 107.55 114.13 107.90 115.68 108.25 117.23 C 107.78 117.52 106.85 118.10 106.38 118.39 C 101.96 117.85 97.52 117.41 93.09 116.98 C 93.21 117.55 93.45 118.68 93.57 119.25 C 97.98 120.19 102.33 121.39 106.53 123.04 C 105.72 124.46 105.14 126.19 103.59 127.00 C 102.11 128.04 100.55 128.97 99.12 130.08 C 98.67 127.96 98.20 125.79 97.06 123.93 C 95.15 120.50 90.72 122.95 87.74 123.18 C 90.82 126.55 94.45 129.37 98.41 131.63 C 97.71 133.16 97.07 134.71 96.41 136.25 C 94.73 137.32 93.06 138.42 91.31 139.37 C 90.94 137.46 90.56 135.56 90.28 133.64 C 90.76 130.83 91.51 126.79 87.88 125.77 C 84.37 126.06 81.14 127.97 77.59 127.88 C 73.97 127.48 70.51 126.28 67.01 125.37 C 71.20 124.76 75.28 126.47 79.45 126.28 C 83.73 125.52 87.15 122.61 90.70 120.32 C 90.50 120.01 90.09 119.37 89.89 119.06 C 89.55 115.85 89.42 112.62 89.31 109.39 C 91.50 110.26 93.67 111.17 95.78 112.22 C 96.90 112.78 98.00 113.37 99.10 113.96 C 101.20 111.84 103.32 109.72 105.17 107.37 Z" />
<path fill="#2f3133" opacity="1.00" d=" M 33.71 113.95 C 36.12 112.08 38.30 109.93 40.71 108.06 C 41.58 110.34 42.47 112.61 43.37 114.88 C 44.71 112.55 46.06 110.23 47.43 107.91 C 49.47 110.45 51.46 113.05 53.08 115.88 C 50.70 115.08 48.31 114.32 45.90 113.63 C 46.33 116.14 45.99 119.10 47.73 121.18 C 49.58 122.53 51.96 122.77 54.09 123.46 C 52.80 124.60 51.13 125.64 49.37 124.82 C 46.78 123.56 45.68 120.61 44.19 118.32 C 43.53 120.91 42.80 123.48 42.06 126.05 C 44.33 127.09 46.60 128.13 48.88 129.15 C 48.53 130.26 48.17 131.38 47.84 132.50 C 46.66 131.48 45.48 130.47 44.30 129.46 C 43.98 131.25 43.66 133.04 43.33 134.83 C 42.14 135.25 40.96 135.68 39.79 136.15 C 39.67 135.54 39.43 134.31 39.31 133.69 C 39.23 133.20 39.06 132.23 38.98 131.74 C 38.49 131.74 37.53 131.73 37.04 131.72 C 34.41 131.14 33.76 127.76 33.48 125.43 C 32.86 121.91 36.25 119.62 38.14 117.15 C 36.65 116.10 35.18 115.03 33.71 113.95 Z" />
<path fill="#2f3133" opacity="1.00" d=" M 53.85 117.28 C 58.04 116.75 62.27 116.79 66.47 117.17 C 66.36 118.97 66.06 120.77 66.00 122.58 C 65.19 121.39 64.44 120.16 63.54 119.04 C 60.75 118.30 57.88 119.27 55.10 119.71 C 54.69 118.89 54.27 118.08 53.85 117.28 Z" />
<path fill="#2f3133" opacity="1.00" d=" M 84.88 127.85 C 85.14 131.13 85.30 134.41 85.36 137.70 C 86.42 137.60 87.47 137.50 88.53 137.40 C 87.79 139.46 87.24 141.57 86.64 143.67 C 83.88 143.04 81.36 141.74 79.25 139.86 C 77.87 141.38 76.43 142.85 75.04 144.37 C 74.41 142.72 73.79 141.06 73.15 139.42 C 74.79 139.08 76.40 138.64 77.97 138.06 C 78.67 136.21 78.98 134.26 79.38 132.33 C 80.59 133.71 81.82 135.06 83.05 136.42 C 83.66 133.56 84.26 130.71 84.88 127.85 Z" />
<path fill="#2f3133" opacity="1.00" d=" M 121.08 155.42 C 121.55 155.52 122.47 155.73 122.93 155.84 C 123.36 155.92 124.21 156.10 124.64 156.19 C 126.41 156.50 128.18 156.78 129.96 157.07 C 129.23 158.16 128.49 159.24 127.76 160.33 C 126.02 158.93 124.14 157.74 122.18 156.69 C 122.51 158.52 122.89 160.35 123.27 162.17 C 124.71 162.16 126.16 162.15 127.60 162.15 C 127.27 163.38 126.94 164.62 126.63 165.86 C 126.12 167.99 125.64 170.13 125.34 172.30 C 124.89 172.29 123.98 172.27 123.53 172.27 C 123.31 171.15 122.92 170.11 122.36 169.12 C 121.48 164.61 121.09 160.01 121.08 155.42 Z" />
<path fill="#2f3133" opacity="1.00" d=" M 55.30 179.83 C 55.66 180.00 56.37 180.35 56.72 180.53 C 56.98 181.88 56.64 183.36 57.32 184.61 C 61.49 187.64 66.44 189.53 71.49 190.53 C 72.00 187.91 72.56 185.29 73.06 182.67 C 75.03 182.71 77.00 182.77 78.97 182.82 C 79.15 183.86 79.32 184.91 79.50 185.95 C 79.75 187.51 80.00 189.08 80.26 190.64 C 77.12 191.24 73.93 191.30 70.75 191.35 C 65.07 191.40 59.48 192.49 53.83 192.85 L 53.09 192.91 C 51.91 189.05 51.12 185.08 50.95 181.04 C 52.02 181.67 53.08 182.32 54.13 182.98 C 54.53 181.93 54.92 180.88 55.30 179.83 Z" />
<path fill="#2f3133" opacity="1.00" d=" M 98.10 183.32 C 100.45 182.97 102.81 182.79 105.16 182.49 L 104.77 182.95 C 103.52 184.30 102.02 185.44 100.92 186.93 C 100.01 189.41 99.99 192.10 99.81 194.71 C 97.85 190.60 93.34 189.50 89.47 187.97 C 92.12 186.07 94.76 183.79 98.10 183.32 Z" />
<path fill="#2f3133" opacity="1.00" d=" M 28.75 200.63 C 31.06 198.93 34.29 199.70 37.00 199.48 C 44.17 199.86 51.43 198.84 58.54 200.10 C 67.20 202.33 76.16 201.02 84.98 201.43 C 89.82 201.67 94.65 201.13 99.37 200.08 C 108.48 199.33 117.65 199.56 126.74 200.28 C 127.14 200.35 127.93 200.50 128.33 200.58 C 128.72 203.01 128.72 205.48 128.82 207.94 C 126.56 208.08 124.29 208.20 122.02 208.24 C 93.01 208.27 63.99 208.27 34.98 208.24 C 32.71 208.20 30.44 208.09 28.17 207.97 C 28.26 205.52 28.12 203.02 28.75 200.63 Z" />
</g>
<g id="#111217ff">
<path fill="#111217" opacity="1.00" d=" M 70.88 112.33 C 73.70 110.40 77.25 108.68 80.70 109.91 C 84.11 112.41 84.52 118.48 80.81 120.92 C 77.57 123.23 72.34 123.77 69.60 120.38 C 67.72 118.67 68.49 116.00 68.83 113.82 L 69.37 113.62 C 69.86 115.76 69.84 118.14 71.02 120.05 C 75.14 123.71 84.09 119.48 81.57 113.63 C 79.62 109.05 74.14 112.13 70.79 113.09 L 70.88 112.33 Z" />
<path fill="#111217" opacity="1.00" d=" M 54.11 132.36 C 59.30 131.83 64.50 131.49 69.72 131.35 C 70.91 134.02 72.07 136.70 73.15 139.42 C 73.79 141.06 74.41 142.72 75.04 144.37 C 76.43 142.85 77.87 141.38 79.25 139.86 C 81.36 141.74 83.88 143.04 86.64 143.67 C 87.24 141.57 87.79 139.46 88.53 137.40 C 89.08 136.13 89.71 134.90 90.28 133.64 C 90.56 135.56 90.94 137.46 91.31 139.37 C 93.06 138.42 94.73 137.32 96.41 136.25 C 95.90 138.80 95.55 141.38 95.38 143.98 C 94.09 143.69 92.80 143.40 91.51 143.10 C 91.91 144.17 92.31 145.24 92.67 146.32 C 89.83 147.11 86.92 147.62 83.97 147.77 C 84.22 154.40 84.27 161.20 86.70 167.47 C 85.95 167.73 85.19 167.96 84.42 168.16 C 84.65 160.60 82.89 153.17 81.37 145.81 C 79.76 146.08 78.15 146.38 76.52 146.61 C 71.90 144.24 71.46 138.29 68.91 134.21 C 65.05 134.33 60.96 133.73 57.30 135.25 C 54.77 139.04 56.68 143.71 57.50 147.75 C 56.21 147.78 54.91 147.82 53.62 147.86 C 52.97 145.81 52.12 143.82 51.12 141.91 C 52.33 142.86 53.55 143.80 54.75 144.77 C 53.95 140.68 53.78 136.50 54.11 132.36 Z" />
<path fill="#111217" opacity="1.00" d=" M 24.48 136.51 C 27.49 137.86 30.84 138.98 32.74 141.89 C 29.74 140.52 26.86 138.82 24.48 136.51 Z" />
<path fill="#111217" opacity="1.00" d=" M 38.92 143.03 C 41.69 142.32 44.47 141.68 47.26 141.09 C 46.76 144.22 46.08 147.31 45.64 150.45 C 45.85 152.26 46.23 154.04 46.50 155.84 C 42.49 157.32 38.35 158.89 34.00 158.12 C 37.68 153.98 38.76 148.40 38.92 143.03 Z" />
<path fill="#111217" opacity="1.00" d=" M 95.82 146.44 L 96.25 145.86 C 96.64 146.39 97.44 147.46 97.84 147.99 C 99.08 149.80 100.34 151.62 101.29 153.61 C 102.58 156.42 102.37 159.65 103.50 162.50 C 105.66 165.31 108.69 167.32 110.82 170.17 C 110.35 171.48 108.48 172.40 108.90 173.95 C 109.76 176.58 112.02 178.42 113.82 180.43 C 111.94 180.69 110.07 180.97 108.20 181.24 C 108.08 181.91 107.84 183.23 107.72 183.89 C 106.74 183.57 105.75 183.26 104.77 182.95 L 105.16 182.49 L 105.34 181.73 C 106.11 178.54 106.64 175.30 107.07 172.05 C 105.16 173.17 103.26 174.31 101.38 175.46 C 101.07 175.04 100.44 174.20 100.13 173.78 C 102.76 171.82 103.33 168.84 102.80 165.77 C 101.44 165.47 100.08 165.17 98.73 164.87 C 98.71 164.12 98.70 163.38 98.69 162.64 C 98.18 162.60 97.17 162.53 96.66 162.50 C 100.77 157.55 96.95 151.69 95.82 146.44 Z" />
<path fill="#111217" opacity="1.00" d=" M 50.20 170.98 C 52.73 165.59 48.96 159.20 52.72 154.25 C 53.28 157.50 53.65 160.79 53.67 164.09 C 53.66 164.51 53.65 165.34 53.64 165.76 C 53.50 167.00 53.29 168.23 53.07 169.46 C 52.72 171.22 52.34 172.99 52.00 174.76 C 51.81 175.76 51.64 176.77 51.48 177.78 C 51.30 178.86 51.13 179.95 50.95 181.04 C 50.17 179.70 49.43 178.34 48.65 177.01 C 49.04 174.97 49.62 172.97 50.20 170.98 Z" />
<path fill="#111217" opacity="1.00" d=" M 84.86 181.50 C 85.85 181.36 86.84 181.19 87.83 181.00 C 88.27 183.34 88.70 185.70 89.47 187.97 C 93.34 189.50 97.85 190.60 99.81 194.71 C 98.10 196.19 96.35 197.64 94.63 199.12 C 105.37 199.61 116.12 199.27 126.87 199.31 L 126.74 200.28 C 117.65 199.56 108.48 199.33 99.37 200.08 C 97.31 199.97 95.25 199.79 93.19 199.66 C 84.46 199.04 75.69 199.81 66.96 199.34 C 62.09 198.68 56.82 197.02 53.83 192.85 C 59.48 192.49 65.07 191.40 70.75 191.35 C 73.93 191.30 77.12 191.24 80.26 190.64 C 82.49 189.92 84.68 188.94 86.52 187.45 C 86.62 185.88 86.43 184.31 86.18 182.77 C 85.85 182.45 85.19 181.82 84.86 181.50 Z" />
</g>
</svg>
