<?xml version="1.0" encoding="UTF-8" ?>
<!DOCTYPE svg PUBLIC "-//W3C//DTD SVG 1.1//EN" "http://www.w3.org/Graphics/SVG/1.1/DTD/svg11.dtd">
<svg width="155pt" height="210pt" viewBox="0 0 155 210" version="1.1" xmlns="http://www.w3.org/2000/svg">
<g id="#bfd07cff">
<path fill="#bfd07c" opacity="1.00" d=" M 54.82 48.99 C 56.77 43.36 59.83 37.69 65.03 34.49 C 69.74 37.17 70.87 42.99 74.14 46.96 C 77.35 45.92 80.43 44.14 83.93 44.49 C 83.85 47.39 83.76 50.29 83.76 53.20 C 86.20 53.65 88.64 54.18 91.04 54.82 C 88.86 57.29 86.50 59.58 84.02 61.75 C 80.67 60.97 77.35 60.09 74.05 59.12 C 73.90 57.27 73.76 55.42 73.62 53.57 C 65.59 53.98 57.44 55.13 50.37 59.23 C 47.58 55.67 46.44 51.25 46.74 46.77 C 49.45 47.45 52.13 48.23 54.82 48.99 Z" />
<path fill="#bfd07c" opacity="1.00" d=" M 51.65 64.25 C 62.81 62.32 74.87 62.68 85.03 68.17 C 87.44 69.99 89.51 72.24 91.36 74.62 C 95.30 79.82 96.53 86.45 100.13 91.85 C 104.65 99.20 111.62 104.49 118.32 109.71 C 122.38 112.76 124.43 117.56 127.57 121.41 C 131.32 126.08 134.67 131.04 138.06 135.97 C 140.34 139.47 143.26 143.22 142.78 147.65 C 142.08 149.72 139.53 150.35 137.76 149.26 C 132.53 146.36 128.80 141.50 124.14 137.85 C 114.32 129.89 105.29 120.98 97.05 111.40 C 95.03 108.97 92.88 106.66 90.62 104.45 C 89.91 109.90 91.49 115.19 93.37 120.24 C 94.47 122.54 92.97 124.83 91.59 126.60 C 89.32 129.39 86.75 131.99 83.69 133.91 C 80.63 135.73 77.45 137.34 74.15 138.67 C 66.10 141.75 57.31 141.99 48.82 141.30 C 44.98 140.30 41.40 138.30 38.46 135.64 L 37.88 135.09 C 39.46 135.26 41.03 135.45 42.61 135.69 C 50.82 138.84 59.98 139.80 68.50 137.28 C 72.27 136.22 75.80 134.48 79.35 132.84 C 81.42 131.87 83.64 130.96 85.15 129.18 C 86.57 127.26 87.22 124.92 88.07 122.73 C 79.48 125.73 72.00 131.67 62.81 132.94 C 55.34 133.96 46.91 133.80 40.67 129.03 C 38.62 127.16 36.27 125.67 33.75 124.54 C 33.81 125.74 33.87 126.94 33.95 128.14 C 34.02 129.12 34.08 130.11 34.14 131.10 C 30.32 126.10 31.79 119.70 32.21 113.96 C 32.71 109.23 30.65 104.82 28.67 100.68 C 27.78 105.54 27.23 110.58 24.95 115.05 C 21.47 122.00 16.09 127.83 12.94 134.98 C 8.95 143.23 7.62 152.45 7.19 161.52 C 2.64 154.01 4.07 144.61 6.70 136.69 C 9.70 127.51 15.96 120.02 20.84 111.83 C 25.83 103.48 27.40 93.76 29.73 84.48 C 32.51 74.21 41.73 67.05 51.65 64.25 M 64.14 103.14 C 61.78 106.24 58.96 109.26 57.90 113.10 C 57.33 115.31 59.92 116.09 61.40 116.94 C 62.13 119.67 62.74 123.45 66.20 123.85 C 70.86 123.73 75.14 121.33 79.12 119.10 C 81.83 117.75 83.28 114.52 82.39 111.61 C 81.57 108.56 78.45 107.19 76.02 105.64 C 79.83 102.53 75.92 96.77 71.98 95.98 C 68.60 97.33 66.44 100.47 64.14 103.14 M 36.02 99.55 C 34.88 102.56 32.95 106.50 35.43 109.35 C 34.87 112.04 33.94 114.98 35.18 117.63 C 36.95 122.08 42.01 123.56 46.15 124.94 C 47.64 125.19 49.58 126.27 50.77 124.80 C 52.65 123.09 51.34 120.25 51.43 118.05 C 53.77 116.59 52.10 113.82 50.77 112.28 C 46.58 107.29 41.73 102.76 36.02 99.55 Z" />
<path fill="#bfd07c" opacity="1.00" d=" M 53.06 148.36 C 61.47 148.48 69.90 147.97 78.21 146.62 C 78.53 148.42 78.87 150.21 79.19 152.01 C 76.62 153.47 73.81 154.41 70.95 155.08 C 70.69 158.24 70.52 161.41 70.37 164.58 C 65.26 164.46 61.19 161.42 57.30 158.48 C 57.35 156.92 57.42 155.35 57.48 153.79 C 55.50 152.43 53.93 150.61 53.06 148.36 Z" />
<path fill="#bfd07c" opacity="1.00" d=" M 88.49 168.66 C 91.83 166.00 95.99 164.44 100.27 165.47 C 96.48 166.21 91.51 167.13 90.15 171.35 C 89.49 174.62 90.70 178.51 93.36 180.57 C 97.69 181.94 102.31 182.56 106.21 185.07 C 103.40 185.54 100.49 185.72 97.79 186.69 C 96.44 187.72 95.71 189.32 94.75 190.67 C 86.88 192.20 78.82 192.53 70.84 191.74 C 76.51 191.39 81.28 188.04 85.76 184.88 C 87.28 183.59 89.60 182.34 89.30 180.01 C 89.24 176.48 88.04 173.09 86.62 169.90 C 87.24 169.48 87.86 169.07 88.49 168.66 Z" />
<path fill="#bfd07c" opacity="1.00" d=" M 51.58 188.39 C 55.61 186.40 60.11 186.64 64.18 188.33 C 62.62 188.99 61.05 189.64 59.45 190.24 C 56.79 189.83 54.15 189.21 51.58 188.39 Z" />
</g>
<g id="#486b51fe">
<path fill="#486b51" opacity="1.00" d=" M 50.37 59.23 C 57.44 55.13 65.59 53.98 73.62 53.57 C 73.76 55.42 73.90 57.27 74.05 59.12 C 77.35 60.09 80.67 60.97 84.02 61.75 C 85.07 63.74 85.49 65.94 85.03 68.17 C 74.87 62.68 62.81 62.32 51.65 64.25 C 51.26 62.56 50.84 60.89 50.37 59.23 Z" />
<path fill="#486b51" opacity="1.00" d=" M 64.14 103.14 C 66.44 100.47 68.60 97.33 71.98 95.98 C 75.92 96.77 79.83 102.53 76.02 105.64 C 75.23 106.47 74.43 107.29 73.63 108.11 C 74.11 110.63 74.75 113.17 74.60 115.75 C 74.42 118.93 71.23 121.48 68.11 121.18 C 65.62 120.22 63.56 118.46 61.40 116.94 C 59.92 116.09 57.33 115.31 57.90 113.10 C 58.96 109.26 61.78 106.24 64.14 103.14 M 66.96 113.10 C 64.74 110.84 62.40 116.76 65.65 116.10 C 67.10 117.63 68.80 119.32 70.93 117.83 L 71.80 117.61 L 72.15 116.61 L 71.62 115.87 C 71.64 113.73 71.14 111.63 70.79 109.52 C 69.22 110.33 67.39 111.20 66.96 113.10 Z" />
<path fill="#486b51" opacity="1.00" d=" M 36.02 99.55 C 41.73 102.76 46.58 107.29 50.77 112.28 C 52.10 113.82 53.77 116.59 51.43 118.05 C 48.91 119.80 45.99 122.88 42.65 121.50 C 39.09 119.72 39.06 115.14 38.04 111.79 C 37.16 110.99 36.28 110.19 35.43 109.35 C 32.95 106.50 34.88 102.56 36.02 99.55 M 39.35 112.90 C 40.34 114.06 41.20 115.34 41.94 116.68 L 41.50 117.53 C 42.87 117.98 44.12 118.70 45.29 119.54 C 45.85 118.70 46.39 117.85 46.91 116.98 C 46.35 115.40 44.76 114.61 43.54 113.63 C 42.14 113.40 40.74 113.15 39.35 112.90 M 46.91 116.98 C 45.37 119.94 50.25 117.21 46.91 116.98 Z" />
<path fill="#486b51" opacity="1.00" d=" M 74.15 138.67 C 77.45 137.34 80.63 135.73 83.69 133.91 C 85.37 137.24 87.15 140.60 89.75 143.32 C 91.66 145.40 94.88 145.27 96.96 147.05 C 100.33 151.00 101.84 156.12 103.06 161.07 C 100.28 156.73 97.36 152.47 94.18 148.42 C 94.61 153.22 94.16 158.89 97.94 162.54 C 95.32 162.78 92.71 162.99 90.09 163.21 C 90.68 162.53 91.27 161.85 91.87 161.17 C 87.87 160.45 83.89 159.69 79.91 158.91 C 81.83 155.65 83.64 152.31 85.08 148.81 C 83.11 149.86 81.15 150.93 79.19 152.01 C 78.87 150.21 78.53 148.42 78.21 146.62 C 69.90 147.97 61.47 148.48 53.06 148.36 C 56.67 147.74 60.33 147.45 63.97 146.99 C 69.20 146.56 74.77 145.60 78.27 141.26 C 76.90 140.39 75.52 139.53 74.15 138.67 Z" />
</g>
<g id="#80424dff">
<path fill="#80424d" opacity="1.00" d=" M 28.67 100.68 C 30.65 104.82 32.71 109.23 32.21 113.96 C 31.79 119.70 30.32 126.10 34.14 131.10 C 35.32 132.49 36.58 133.81 37.88 135.09 L 38.46 135.64 C 36.00 138.15 32.70 138.15 29.52 137.22 C 28.70 141.32 29.03 145.65 27.66 149.63 C 25.93 153.61 20.97 152.10 17.58 152.71 C 16.33 156.06 16.64 160.25 13.90 162.88 C 12.05 164.77 7.82 164.02 7.19 161.52 C 7.62 152.45 8.95 143.23 12.94 134.98 C 16.09 127.83 21.47 122.00 24.95 115.05 C 27.23 110.58 27.78 105.54 28.67 100.68 Z" />
</g>
<g id="#191816fe">
<path fill="#191816" opacity="1.00" d=" M 90.62 104.45 C 92.88 106.66 95.03 108.97 97.05 111.40 C 95.48 114.19 94.28 117.17 93.37 120.24 C 91.49 115.19 89.91 109.90 90.62 104.45 Z" />
<path fill="#191816" opacity="1.00" d=" M 66.96 113.10 C 67.39 111.20 69.22 110.33 70.79 109.52 C 71.14 111.63 71.64 113.73 71.62 115.87 C 71.45 116.36 71.10 117.34 70.93 117.83 C 68.80 119.32 67.10 117.63 65.65 116.10 C 66.19 115.15 66.63 114.15 66.96 113.10 Z" />
<path fill="#191816" opacity="1.00" d=" M 43.54 113.63 C 44.76 114.61 46.35 115.40 46.91 116.98 C 46.39 117.85 45.85 118.70 45.29 119.54 C 44.12 118.70 42.87 117.98 41.50 117.53 L 41.94 116.68 C 42.34 115.92 43.14 114.39 43.54 113.63 Z" />
<path fill="#191816" opacity="1.00" d=" M 33.75 124.54 C 36.27 125.67 38.62 127.16 40.67 129.03 C 39.16 128.04 37.63 127.07 36.12 126.09 C 35.58 126.60 34.49 127.62 33.95 128.14 C 33.87 126.94 33.81 125.74 33.75 124.54 Z" />
<path fill="#191816" opacity="1.00" d=" M 63.48 136.68 C 68.73 135.26 73.94 133.59 79.35 132.84 C 75.80 134.48 72.27 136.22 68.50 137.28 C 59.98 139.80 50.82 138.84 42.61 135.69 C 49.52 136.36 56.56 138.57 63.48 136.68 Z" />
<path fill="#191816" opacity="1.00" d=" M 48.82 141.30 C 57.31 141.99 66.10 141.75 74.15 138.67 C 75.52 139.53 76.90 140.39 78.27 141.26 C 74.77 145.60 69.20 146.56 63.97 146.99 C 65.40 146.15 66.86 145.35 68.29 144.50 C 65.86 141.06 61.56 142.49 58.00 142.36 C 54.90 142.44 51.84 141.93 48.82 141.30 Z" />
<path fill="#191816" opacity="1.00" d=" M 79.19 152.01 C 81.15 150.93 83.11 149.86 85.08 148.81 C 83.64 152.31 81.83 155.65 79.91 158.91 C 83.89 159.69 87.87 160.45 91.87 161.17 C 91.27 161.85 90.68 162.53 90.09 163.21 C 88.69 164.82 87.31 166.44 85.92 168.06 C 86.78 168.26 87.63 168.46 88.49 168.66 C 87.86 169.07 87.24 169.48 86.62 169.90 C 84.76 167.78 82.72 165.51 79.90 164.74 C 76.74 163.97 73.43 164.54 70.33 165.36 L 70.37 164.58 C 70.52 161.41 70.69 158.24 70.95 155.08 C 73.81 154.41 76.62 153.47 79.19 152.01 Z" />
<path fill="#191816" opacity="1.00" d=" M 94.18 148.42 C 97.36 152.47 100.28 156.73 103.06 161.07 C 104.22 162.66 104.40 164.64 104.32 166.54 C 104.00 166.36 103.35 166.01 103.03 165.84 C 101.30 164.79 99.58 163.72 97.94 162.54 C 94.16 158.89 94.61 153.22 94.18 148.42 Z" />
<path fill="#191816" opacity="1.00" d=" M 38.10 186.31 C 41.19 182.33 46.38 180.90 51.13 180.04 C 50.18 181.30 49.20 182.59 48.67 184.10 C 48.28 186.12 50.27 187.29 51.58 188.39 C 54.15 189.21 56.79 189.83 59.45 190.24 C 63.23 190.88 67.02 191.49 70.84 191.74 C 78.82 192.53 86.88 192.20 94.75 190.67 C 99.33 190.03 103.84 188.93 108.21 187.41 C 108.26 184.89 108.41 182.37 108.63 179.86 C 112.27 181.86 116.82 183.11 119.20 186.75 C 119.99 190.08 120.40 194.87 116.80 196.75 C 110.82 200.12 103.85 201.12 97.14 202.04 C 88.80 202.84 80.40 203.70 72.01 203.08 C 62.69 202.43 53.21 201.77 44.30 198.72 C 42.02 197.82 39.48 196.86 38.07 194.72 C 37.23 192.03 37.19 188.98 38.10 186.31 Z" />
</g>
<g id="#ece7d1ff">
<path fill="#ece7d1" opacity="1.00" d=" M 73.63 108.11 C 74.43 107.29 75.23 106.47 76.02 105.64 C 78.45 107.19 81.57 108.56 82.39 111.61 C 83.28 114.52 81.83 117.75 79.12 119.10 C 75.14 121.33 70.86 123.73 66.20 123.85 C 62.74 123.45 62.13 119.67 61.40 116.94 C 63.56 118.46 65.62 120.22 68.11 121.18 C 71.23 121.48 74.42 118.93 74.60 115.75 C 74.75 113.17 74.11 110.63 73.63 108.11 Z" />
<path fill="#ece7d1" opacity="1.00" d=" M 35.43 109.35 C 36.28 110.19 37.16 110.99 38.04 111.79 C 39.06 115.14 39.09 119.72 42.65 121.50 C 45.99 122.88 48.91 119.80 51.43 118.05 C 51.34 120.25 52.65 123.09 50.77 124.80 C 49.58 126.27 47.64 125.19 46.15 124.94 C 42.01 123.56 36.95 122.08 35.18 117.63 C 33.94 114.98 34.87 112.04 35.43 109.35 Z" />
<path fill="#ece7d1" opacity="1.00" d=" M 39.35 112.90 C 40.74 113.15 42.14 113.40 43.54 113.63 C 43.14 114.39 42.34 115.92 41.94 116.68 C 41.20 115.34 40.34 114.06 39.35 112.90 Z" />
<path fill="#ece7d1" opacity="1.00" d=" M 65.65 116.10 C 62.40 116.76 64.74 110.84 66.96 113.10 C 66.63 114.15 66.19 115.15 65.65 116.10 Z" />
<path fill="#ece7d1" opacity="1.00" d=" M 70.93 117.83 C 71.10 117.34 71.45 116.36 71.62 115.87 L 72.15 116.61 L 71.80 117.61 L 70.93 117.83 Z" />
<path fill="#ece7d1" opacity="1.00" d=" M 46.91 116.98 C 50.25 117.21 45.37 119.94 46.91 116.98 Z" />
<path fill="#ece7d1" opacity="1.00" d=" M 62.81 132.94 C 72.00 131.67 79.48 125.73 88.07 122.73 C 87.22 124.92 86.57 127.26 85.15 129.18 C 83.64 130.96 81.42 131.87 79.35 132.84 C 73.94 133.59 68.73 135.26 63.48 136.68 C 56.56 138.57 49.52 136.36 42.61 135.69 C 41.03 135.45 39.46 135.26 37.88 135.09 C 36.58 133.81 35.32 132.49 34.14 131.10 C 34.08 130.11 34.02 129.12 33.95 128.14 C 34.49 127.62 35.58 126.60 36.12 126.09 C 37.63 127.07 39.16 128.04 40.67 129.03 C 46.91 133.80 55.34 133.96 62.81 132.94 Z" />
<path fill="#ece7d1" opacity="1.00" d=" M 70.33 165.36 C 73.43 164.54 76.74 163.97 79.90 164.74 C 82.72 165.51 84.76 167.78 86.62 169.90 C 88.04 173.09 89.24 176.48 89.30 180.01 C 89.60 182.34 87.28 183.59 85.76 184.88 C 81.28 188.04 76.51 191.39 70.84 191.74 C 67.02 191.49 63.23 190.88 59.45 190.24 C 61.05 189.64 62.62 188.99 64.18 188.33 C 60.11 186.64 55.61 186.40 51.58 188.39 C 50.27 187.29 48.28 186.12 48.67 184.10 C 49.20 182.59 50.18 181.30 51.13 180.04 C 56.55 174.05 63.21 169.13 70.33 165.36 Z" />
<path fill="#ece7d1" opacity="1.00" d=" M 90.15 171.35 C 91.51 167.13 96.48 166.21 100.27 165.47 C 100.96 165.56 102.34 165.74 103.03 165.84 C 103.35 166.01 104.00 166.36 104.32 166.54 C 106.00 170.92 109.95 174.77 108.63 179.86 C 108.41 182.37 108.26 184.89 108.21 187.41 C 103.84 188.93 99.33 190.03 94.75 190.67 C 95.71 189.32 96.44 187.72 97.79 186.69 C 100.49 185.72 103.40 185.54 106.21 185.07 C 102.31 182.56 97.69 181.94 93.36 180.57 C 90.70 178.51 89.49 174.62 90.15 171.35 Z" />
</g>
</svg>
