<?xml version="1.0" encoding="UTF-8" ?>
<!DOCTYPE svg PUBLIC "-//W3C//DTD SVG 1.1//EN" "http://www.w3.org/Graphics/SVG/1.1/DTD/svg11.dtd">
<svg width="155pt" height="210pt" viewBox="0 0 155 210" version="1.1" xmlns="http://www.w3.org/2000/svg">
<g id="#2d2820ff">
<path fill="#2d2820" opacity="1.00" d=" M 91.69 61.84 C 93.63 59.48 95.45 56.97 98.00 55.22 C 98.61 55.73 99.23 56.25 99.85 56.76 C 98.72 57.02 97.18 56.61 96.34 57.58 C 98.73 58.84 101.14 60.09 103.46 61.49 C 102.33 63.04 101.13 64.53 99.87 65.98 C 97.15 64.58 94.41 63.22 91.69 61.84 Z" />
<path fill="#2d2820" opacity="1.00" d=" M 84.13 70.14 C 85.12 68.93 87.93 70.19 86.74 71.71 C 85.75 72.93 82.91 71.66 84.13 70.14 Z" />
<path fill="#2d2820" opacity="1.00" d=" M 85.72 76.78 C 88.39 74.64 90.72 72.13 93.13 69.70 C 93.07 70.28 92.93 71.44 92.87 72.03 C 90.16 75.50 86.29 78.07 84.37 82.20 C 81.62 86.27 78.85 90.34 76.39 94.61 C 73.41 99.73 71.37 105.33 68.53 110.53 C 66.09 114.73 68.56 119.54 68.86 123.96 C 71.02 123.70 73.13 123.17 75.14 122.36 C 75.84 120.55 76.57 118.77 77.35 116.99 C 77.37 118.94 77.38 120.89 77.40 122.84 C 79.29 122.82 81.19 122.78 83.09 122.74 C 84.75 121.24 86.42 119.73 88.22 118.40 C 91.41 116.56 94.74 114.94 97.81 112.90 C 99.20 112.62 100.56 112.63 101.90 112.93 C 102.65 114.06 103.14 115.33 103.59 116.61 C 104.04 118.81 104.51 121.02 105.08 123.20 C 98.84 126.49 91.78 129.25 84.62 128.45 C 83.77 127.24 83.51 125.74 83.07 124.35 C 80.39 124.76 77.94 123.80 75.84 122.17 C 74.35 123.18 72.87 124.20 71.39 125.22 C 71.41 126.89 71.43 128.55 71.45 130.21 C 69.46 131.56 67.31 132.65 65.07 133.51 C 64.57 134.97 64.08 136.44 63.61 137.91 C 65.34 138.73 67.08 139.55 68.82 140.37 C 68.76 142.12 68.72 143.88 68.60 145.63 C 68.22 144.52 67.92 143.39 67.51 142.30 C 65.53 141.36 63.34 141.08 61.26 140.46 C 61.07 140.34 60.69 140.12 60.50 140.00 C 62.12 137.76 63.28 135.24 64.01 132.58 C 62.37 132.07 60.72 131.56 59.08 131.03 C 58.14 130.72 57.20 130.41 56.25 130.09 C 56.53 134.29 56.30 138.58 57.30 142.69 C 57.78 144.92 60.16 145.70 62.02 146.44 C 71.42 149.95 82.34 150.80 91.68 146.68 C 94.95 145.23 98.17 143.67 101.47 142.30 C 102.37 141.93 103.25 141.55 104.14 141.16 C 102.15 142.90 99.72 143.99 97.34 145.05 C 98.11 145.96 98.85 146.90 99.55 147.88 C 98.76 150.96 96.72 153.61 94.40 155.74 C 93.92 156.15 92.95 156.99 92.47 157.40 C 93.55 158.82 94.63 160.25 95.72 161.66 C 94.48 162.37 93.95 163.50 94.20 164.92 C 88.79 167.22 82.92 167.86 77.15 168.58 C 73.41 168.86 69.66 168.89 65.92 168.91 C 65.83 167.79 65.78 166.67 65.75 165.56 C 65.94 164.90 66.31 163.58 66.49 162.91 C 66.15 162.39 65.47 161.35 65.13 160.83 C 65.73 160.26 66.92 159.12 67.52 158.56 C 66.50 158.06 65.47 157.56 64.45 157.07 C 64.47 158.55 64.47 160.03 64.52 161.51 C 61.88 161.32 59.44 162.35 56.95 162.99 C 56.88 161.37 56.88 159.76 56.80 158.14 C 59.34 156.36 60.61 153.51 61.81 150.76 C 59.78 148.46 57.51 146.36 54.73 144.99 C 54.92 148.68 55.29 152.38 56.19 155.98 C 54.60 151.93 54.35 147.57 54.75 143.28 C 54.33 137.67 51.75 132.55 49.53 127.47 C 49.72 126.57 50.09 124.76 50.28 123.85 C 51.93 124.51 53.58 125.18 55.22 125.87 C 55.87 125.47 56.52 125.07 57.17 124.67 C 55.60 121.08 58.78 117.04 56.28 113.71 C 53.32 108.82 46.91 107.93 41.93 109.99 C 40.90 107.70 39.70 105.49 38.50 103.29 C 39.61 103.93 40.85 104.28 42.14 104.27 C 46.35 104.45 50.56 104.49 54.76 104.87 C 55.63 105.24 56.49 105.62 57.35 106.01 C 56.62 111.12 61.92 113.27 65.35 115.72 C 66.51 110.87 68.97 106.51 71.12 102.06 C 74.02 96.01 77.37 90.18 81.01 84.55 C 83.05 82.27 84.43 79.53 85.72 76.78 M 90.18 118.97 C 91.24 120.78 90.28 122.54 89.51 124.24 C 88.05 124.17 86.67 123.66 85.37 123.01 C 85.05 124.37 84.76 125.74 84.49 127.11 C 89.75 127.11 95.06 126.11 99.88 123.95 C 103.32 122.66 103.10 117.07 100.87 114.98 C 97.07 115.53 93.68 117.53 90.18 118.97 Z" />
<path fill="#2d2820" opacity="1.00" d=" M 73.77 82.89 C 75.51 82.04 77.26 82.19 78.58 83.69 C 76.90 84.55 75.22 85.40 73.55 86.27 C 73.60 85.43 73.71 83.74 73.77 82.89 Z" />
<path fill="#2d2820" opacity="1.00" d=" M 66.21 92.23 C 66.64 92.79 66.64 92.79 66.21 92.23 Z" />
<path fill="#2d2820" opacity="1.00" d=" M 43.23 112.85 C 44.20 113.18 45.16 113.57 46.09 114.01 C 47.91 115.08 45.82 117.08 45.65 118.52 C 44.87 116.62 44.05 114.73 43.23 112.85 Z" />
<path fill="#2d2820" opacity="1.00" d=" M 49.05 114.25 C 51.92 112.71 56.55 116.04 53.87 118.92 C 50.73 120.07 49.31 116.73 49.05 114.25 Z" />
<path fill="#2d2820" opacity="1.00" d=" M 72.39 131.19 C 73.94 129.63 75.37 126.94 78.00 127.59 C 80.20 128.61 81.35 130.86 82.68 132.75 C 79.77 132.66 76.86 132.69 73.95 132.78 C 73.56 132.38 72.78 131.59 72.39 131.19 Z" />
<path fill="#2d2820" opacity="1.00" d=" M 101.73 131.71 C 101.57 129.37 104.51 130.18 104.36 132.06 C 103.97 132.27 103.18 132.69 102.79 132.90 L 102.02 132.48 L 101.73 131.71 Z" />
<path fill="#2d2820" opacity="1.00" d=" M 86.46 138.39 C 88.76 136.33 91.32 134.61 93.90 132.95 C 94.48 133.46 95.63 134.46 96.20 134.96 C 96.28 135.42 96.45 136.33 96.53 136.78 C 96.17 136.94 95.45 137.24 95.09 137.39 C 91.80 138.66 88.52 139.97 85.23 141.25 C 85.24 140.82 85.26 139.96 85.27 139.54 C 85.57 139.25 86.17 138.67 86.46 138.39 Z" />
<path fill="#2d2820" opacity="1.00" d=" M 95.09 166.82 L 95.45 166.21 C 95.36 166.70 95.18 167.69 95.09 168.18 C 94.05 168.96 93.06 169.80 92.09 170.67 C 90.92 171.69 89.73 172.69 88.54 173.68 C 88.21 177.43 87.69 181.30 85.17 184.28 C 85.61 182.13 86.18 180.01 86.51 177.84 C 85.18 177.65 83.83 177.72 82.49 177.69 C 83.92 175.01 85.87 172.64 88.26 170.76 C 90.33 169.68 92.48 168.77 94.56 167.71 C 94.69 167.49 94.96 167.04 95.09 166.82 Z" />
<path fill="#2d2820" opacity="1.00" d=" M 95.49 177.71 C 94.11 176.14 94.74 173.73 96.75 173.09 C 96.96 174.61 96.57 176.56 95.49 177.71 Z" />
<path fill="#2d2820" opacity="1.00" d=" M 58.80 177.07 L 59.15 177.30 C 60.01 178.54 60.75 179.87 61.50 181.19 C 60.16 180.84 58.82 180.49 57.49 180.14 C 57.67 181.11 57.84 182.09 58.01 183.08 C 57.77 185.06 60.24 185.93 61.39 184.35 L 61.79 184.03 C 63.89 183.35 65.88 182.40 67.76 181.24 C 70.79 183.26 72.06 186.73 70.77 190.22 C 69.14 190.99 66.59 190.81 65.91 192.82 C 64.69 195.07 67.04 197.22 67.61 199.32 C 73.06 199.38 78.53 199.54 83.98 199.29 C 84.31 198.88 84.96 198.06 85.29 197.64 C 87.26 197.53 89.22 197.53 91.19 197.52 C 91.21 197.02 91.26 196.02 91.29 195.52 C 89.72 195.50 88.14 195.49 86.57 195.48 C 86.99 194.72 87.83 193.20 88.25 192.44 C 87.49 192.26 85.97 191.90 85.21 191.72 C 85.66 189.74 85.97 187.73 86.11 185.71 C 86.42 185.28 87.05 184.44 87.37 184.02 C 89.93 183.17 92.50 182.35 95.14 181.77 L 96.60 181.80 C 97.69 181.63 98.47 182.05 98.94 183.05 C 100.53 185.60 102.94 188.03 102.76 191.26 C 101.81 191.31 99.92 191.43 98.97 191.49 C 100.56 194.00 101.94 196.64 103.09 199.39 C 110.41 199.51 117.73 199.36 125.04 199.46 C 126.48 199.37 127.64 200.32 128.86 200.93 C 128.78 203.55 128.77 206.18 128.76 208.81 C 95.29 208.77 61.82 208.81 28.36 208.79 C 28.88 205.81 26.76 200.90 30.48 199.57 C 39.39 199.20 48.34 199.59 57.27 199.39 C 57.36 198.69 57.55 197.30 57.65 196.60 C 58.20 196.34 59.32 195.81 59.87 195.54 C 59.81 194.09 59.80 192.63 59.61 191.19 C 58.47 190.36 57.19 189.75 56.05 188.92 C 54.38 185.88 55.88 182.58 56.94 179.64 C 57.69 178.87 58.31 178.01 58.80 177.07 M 89.89 187.71 C 90.55 187.72 91.89 187.73 92.56 187.74 C 92.46 187.31 92.26 186.47 92.16 186.05 C 93.11 185.39 94.06 184.73 95.00 184.07 C 92.50 184.04 89.89 184.72 89.89 187.71 M 93.55 195.25 C 93.51 195.82 93.44 196.96 93.41 197.53 C 95.87 197.41 98.34 197.32 100.80 197.51 C 100.85 197.20 100.93 196.58 100.97 196.27 C 98.31 196.99 96.21 194.64 93.55 195.25 M 56.87 200.47 C 72.55 201.81 88.41 202.01 104.08 200.39 C 88.34 200.52 72.60 200.15 56.87 200.47 Z" />
<path fill="#2d2820" opacity="1.00" d=" M 71.98 184.95 C 75.51 183.23 79.51 184.99 83.22 183.94 C 83.95 184.80 84.67 185.65 85.40 186.52 C 81.14 189.16 75.85 187.54 71.98 184.95 Z" />
</g>
<g id="#625f51ff">
<path fill="#625f51" opacity="1.00" d=" M 96.34 57.58 C 97.18 56.61 98.72 57.02 99.85 56.76 C 101.87 57.78 104.34 59.09 103.92 61.77 L 103.46 61.49 C 101.14 60.09 98.73 58.84 96.34 57.58 Z" />
<path fill="#625f51" opacity="1.00" d=" M 82.77 62.43 C 85.27 62.40 87.70 62.99 90.06 63.78 C 90.47 63.30 91.28 62.33 91.69 61.84 C 94.41 63.22 97.15 64.58 99.87 65.98 C 100.06 66.64 100.26 67.30 100.46 67.96 C 94.99 64.94 88.83 63.66 82.77 62.43 Z" />
<path fill="#625f51" opacity="1.00" d=" M 83.14 68.02 C 86.53 67.81 90.18 67.73 93.13 69.70 C 90.72 72.13 88.39 74.64 85.72 76.78 C 84.43 79.53 83.05 82.27 81.01 84.55 C 78.45 85.06 75.76 89.00 73.55 86.27 C 75.22 85.40 76.90 84.55 78.58 83.69 C 77.26 82.19 75.51 82.04 73.77 82.89 C 71.67 85.23 69.68 87.66 67.81 90.18 C 67.55 92.47 66.39 94.46 65.48 96.52 C 67.32 98.40 69.34 100.10 71.12 102.06 C 68.97 106.51 66.51 110.87 65.35 115.72 C 61.92 113.27 56.62 111.12 57.35 106.01 C 56.49 105.62 55.63 105.24 54.76 104.87 C 55.40 104.84 56.67 104.79 57.30 104.76 C 59.31 100.23 63.07 96.80 65.09 92.28 C 66.23 89.80 67.75 87.52 69.37 85.32 C 73.88 79.50 77.44 72.84 83.14 68.02 M 84.13 70.14 C 82.91 71.66 85.75 72.93 86.74 71.71 C 87.93 70.19 85.12 68.93 84.13 70.14 M 66.21 92.23 C 66.64 92.79 66.64 92.79 66.21 92.23 Z" />
<path fill="#625f51" opacity="1.00" d=" M 96.88 73.67 C 98.78 72.89 100.68 72.12 102.49 71.14 C 102.81 72.13 103.14 73.13 103.47 74.12 C 101.29 73.82 99.08 73.75 96.88 73.67 Z" />
<path fill="#625f51" opacity="1.00" d=" M 96.00 128.93 C 97.26 128.41 98.35 130.50 97.76 131.51 C 96.52 131.97 95.35 129.95 96.00 128.93 Z" />
<path fill="#625f51" opacity="1.00" d=" M 56.25 130.09 C 57.20 130.41 58.14 130.72 59.08 131.03 C 59.24 134.05 59.26 137.18 60.50 140.00 C 60.69 140.12 61.07 140.34 61.26 140.46 C 63.34 141.08 65.53 141.36 67.51 142.30 C 67.92 143.39 68.22 144.52 68.60 145.63 C 68.72 143.88 68.76 142.12 68.82 140.37 C 67.08 139.55 65.34 138.73 63.61 137.91 C 64.08 136.44 64.57 134.97 65.07 133.51 C 67.31 132.65 69.46 131.56 71.45 130.21 C 71.69 130.46 72.15 130.95 72.39 131.19 C 72.78 131.59 73.56 132.38 73.95 132.78 C 73.49 133.38 72.56 134.58 72.09 135.17 C 73.55 136.93 74.88 138.93 76.96 140.02 C 78.85 138.37 80.43 136.40 82.45 134.90 C 84.22 135.44 85.18 137.18 86.46 138.39 C 86.17 138.67 85.57 139.25 85.27 139.54 C 84.54 138.35 83.73 137.20 82.79 136.17 C 81.21 135.52 80.84 137.39 80.21 138.41 C 79.05 140.81 78.78 143.51 78.35 146.11 C 80.67 146.26 82.99 146.42 85.31 146.56 C 85.44 145.59 85.70 143.66 85.83 142.69 C 86.13 143.99 86.42 145.28 86.72 146.58 C 88.37 146.63 90.03 146.66 91.68 146.68 C 82.34 150.80 71.42 149.95 62.02 146.44 C 60.16 145.70 57.78 144.92 57.30 142.69 C 56.30 138.58 56.53 134.29 56.25 130.09 M 70.42 136.96 C 70.26 139.86 70.17 142.76 70.02 145.66 C 71.19 146.10 74.35 147.96 73.92 145.12 L 74.08 143.95 C 74.78 144.36 76.20 145.17 76.91 145.58 C 75.85 142.14 74.36 137.90 70.42 136.96 Z" />
<path fill="#625f51" opacity="1.00" d=" M 92.47 157.40 C 92.95 156.99 93.92 156.15 94.40 155.74 C 95.40 156.71 97.33 157.25 97.31 158.95 C 96.91 159.62 96.11 160.98 95.72 161.66 C 94.63 160.25 93.55 158.82 92.47 157.40 Z" />
<path fill="#625f51" opacity="1.00" d=" M 65.92 168.91 C 69.66 168.89 73.41 168.86 77.15 168.58 C 79.77 172.52 84.37 170.96 88.26 170.76 C 85.87 172.64 83.92 175.01 82.49 177.69 C 83.83 177.72 85.18 177.65 86.51 177.84 C 86.18 180.01 85.61 182.13 85.17 184.28 C 87.69 181.30 88.21 177.43 88.54 173.68 C 89.73 172.69 90.92 171.69 92.09 170.67 C 91.51 172.71 90.94 174.76 90.31 176.79 C 90.91 176.92 92.11 177.17 92.70 177.29 C 91.86 178.02 91.01 178.76 90.17 179.50 C 91.79 180.32 93.42 181.14 95.14 181.77 C 92.50 182.35 89.93 183.17 87.37 184.02 C 87.05 184.44 86.42 185.28 86.11 185.71 L 85.40 186.52 C 84.67 185.65 83.95 184.80 83.22 183.94 C 79.51 184.99 75.51 183.23 71.98 184.95 C 70.24 183.31 68.90 181.33 67.42 179.47 C 66.72 175.98 66.15 172.46 65.92 168.91 Z" />
<path fill="#625f51" opacity="1.00" d=" M 89.89 187.71 C 89.89 184.72 92.50 184.04 95.00 184.07 C 94.06 184.73 93.11 185.39 92.16 186.05 C 92.26 186.47 92.46 187.31 92.56 187.74 C 91.89 187.73 90.55 187.72 89.89 187.71 Z" />
</g>
<g id="#c0bfb2ff">
<path fill="#c0bfb2" opacity="1.00" d=" M 81.85 65.08 C 82.08 64.42 82.54 63.09 82.77 62.43 C 88.83 63.66 94.99 64.94 100.46 67.96 C 101.00 68.30 102.09 68.99 102.63 69.34 C 101.11 70.29 99.63 71.36 97.94 71.99 C 95.98 72.30 94.61 70.66 93.13 69.70 C 90.18 67.73 86.53 67.81 83.14 68.02 L 81.90 68.05 C 81.88 67.31 81.86 65.82 81.85 65.08 Z" />
<path fill="#c0bfb2" opacity="1.00" d=" M 93.17 76.23 C 96.89 74.00 101.38 77.08 105.13 74.89 C 105.84 75.93 106.59 76.94 107.25 78.02 C 107.53 84.06 108.32 90.19 107.04 96.17 C 105.30 96.32 103.47 96.15 101.82 96.83 C 100.13 97.86 99.01 99.55 97.74 101.01 C 100.83 99.87 103.93 98.73 107.08 97.74 C 107.77 100.41 109.60 103.52 108.14 106.19 C 104.85 108.65 100.91 110.13 97.81 112.90 C 94.74 114.94 91.41 116.56 88.22 118.40 C 85.43 118.87 82.60 118.98 79.77 119.06 C 79.71 116.11 79.88 113.13 79.38 110.22 C 78.70 107.46 77.06 105.02 76.49 102.23 C 76.09 99.71 76.34 97.14 76.39 94.61 C 78.85 90.34 81.62 86.27 84.37 82.20 C 87.26 80.14 90.05 77.92 93.17 76.23 Z" />
<path fill="#c0bfb2" opacity="1.00" d=" M 43.95 86.77 C 44.61 83.17 46.41 79.90 48.62 77.03 C 54.94 78.36 61.48 76.73 67.75 78.12 C 70.87 79.25 70.17 82.87 69.37 85.32 C 67.75 87.52 66.23 89.80 65.09 92.28 C 62.92 93.20 60.56 94.44 58.19 93.38 C 54.01 91.94 49.77 90.65 45.34 90.29 C 45.07 90.67 44.54 91.43 44.27 91.81 C 44.15 90.13 44.02 88.45 43.95 86.77 Z" />
<path fill="#c0bfb2" opacity="1.00" d=" M 25.22 85.02 C 24.37 82.92 27.56 83.89 27.77 85.22 C 29.63 87.98 31.93 90.71 32.88 93.90 C 32.70 96.03 32.71 98.17 33.10 100.28 C 33.68 98.94 34.26 97.59 34.84 96.25 C 36.16 98.54 37.32 100.92 38.50 103.29 C 39.70 105.49 40.90 107.70 41.93 109.99 C 42.36 110.94 42.80 111.89 43.23 112.85 C 44.05 114.73 44.87 116.62 45.65 118.52 C 46.85 121.55 48.15 124.53 49.53 127.47 C 51.75 132.55 54.33 137.67 54.75 143.28 C 51.11 141.90 47.41 140.68 43.63 139.77 C 38.05 121.34 31.77 103.13 25.22 85.02 Z" />
<path fill="#c0bfb2" opacity="1.00" d=" M 103.59 116.61 C 106.46 114.55 110.20 114.84 113.55 114.37 C 113.55 116.69 114.05 119.14 113.29 121.38 C 110.69 125.81 105.98 128.90 100.83 129.32 C 101.13 130.11 101.43 130.91 101.73 131.71 L 102.02 132.48 C 101.88 134.70 101.63 136.90 101.38 139.11 C 99.65 137.72 97.91 136.37 96.20 134.96 C 95.63 134.46 94.48 133.46 93.90 132.95 C 91.32 134.61 88.76 136.33 86.46 138.39 C 85.18 137.18 84.22 135.44 82.45 134.90 C 80.43 136.40 78.85 138.37 76.96 140.02 C 74.88 138.93 73.55 136.93 72.09 135.17 C 72.56 134.58 73.49 133.38 73.95 132.78 C 76.86 132.69 79.77 132.66 82.68 132.75 C 81.35 130.86 80.20 128.61 78.00 127.59 C 75.37 126.94 73.94 129.63 72.39 131.19 C 72.15 130.95 71.69 130.46 71.45 130.21 C 71.43 128.55 71.41 126.89 71.39 125.22 C 72.87 124.20 74.35 123.18 75.84 122.17 C 77.94 123.80 80.39 124.76 83.07 124.35 C 83.51 125.74 83.77 127.24 84.62 128.45 C 91.78 129.25 98.84 126.49 105.08 123.20 C 104.51 121.02 104.04 118.81 103.59 116.61 M 96.00 128.93 C 95.35 129.95 96.52 131.97 97.76 131.51 C 98.35 130.50 97.26 128.41 96.00 128.93 Z" />
<path fill="#c0bfb2" opacity="1.00" d=" M 90.18 118.97 C 93.68 117.53 97.07 115.53 100.87 114.98 C 103.10 117.07 103.32 122.66 99.88 123.95 C 95.06 126.11 89.75 127.11 84.49 127.11 C 84.76 125.74 85.05 124.37 85.37 123.01 C 86.67 123.66 88.05 124.17 89.51 124.24 C 90.28 122.54 91.24 120.78 90.18 118.97 Z" />
<path fill="#c0bfb2" opacity="1.00" d=" M 116.27 117.46 C 117.71 117.70 117.71 121.34 116.30 121.58 C 115.50 120.42 115.44 118.61 116.27 117.46 Z" />
<path fill="#c0bfb2" opacity="1.00" d=" M 104.36 132.06 C 107.07 130.19 109.81 128.33 112.94 127.24 C 113.41 128.84 113.98 130.41 114.34 132.03 C 112.84 134.46 110.66 136.45 108.24 137.94 C 106.63 138.56 105.00 139.12 103.38 139.70 C 103.23 137.43 103.09 135.16 102.79 132.90 C 103.18 132.69 103.97 132.27 104.36 132.06 Z" />
<path fill="#c0bfb2" opacity="1.00" d=" M 80.21 138.41 C 80.84 137.39 81.21 135.52 82.79 136.17 C 83.73 137.20 84.54 138.35 85.27 139.54 C 85.26 139.96 85.24 140.82 85.23 141.25 C 88.52 139.97 91.80 138.66 95.09 137.39 C 97.66 138.38 99.61 140.36 101.47 142.30 C 98.17 143.67 94.95 145.23 91.68 146.68 C 90.03 146.66 88.37 146.63 86.72 146.58 C 86.42 145.28 86.13 143.99 85.83 142.69 C 85.70 143.66 85.44 145.59 85.31 146.56 C 82.99 146.42 80.67 146.26 78.35 146.11 C 78.78 143.51 79.05 140.81 80.21 138.41 Z" />
<path fill="#c0bfb2" opacity="1.00" d=" M 70.42 136.96 C 74.36 137.90 75.85 142.14 76.91 145.58 C 76.20 145.17 74.78 144.36 74.08 143.95 L 73.92 145.12 C 74.35 147.96 71.19 146.10 70.02 145.66 C 70.17 142.76 70.26 139.86 70.42 136.96 Z" />
<path fill="#c0bfb2" opacity="1.00" d=" M 85.29 197.64 C 85.73 196.93 86.16 196.21 86.57 195.48 C 88.14 195.49 89.72 195.50 91.29 195.52 C 91.26 196.02 91.21 197.02 91.19 197.52 C 89.22 197.53 87.26 197.53 85.29 197.64 Z" />
<path fill="#c0bfb2" opacity="1.00" d=" M 93.55 195.25 C 96.21 194.64 98.31 196.99 100.97 196.27 C 100.93 196.58 100.85 197.20 100.80 197.51 C 98.34 197.32 95.87 197.41 93.41 197.53 C 93.44 196.96 93.51 195.82 93.55 195.25 Z" />
</g>
<g id="#a4a091ff">
<path fill="#a4a091" opacity="1.00" d=" M 80.64 68.32 C 81.04 67.24 81.45 66.16 81.85 65.08 C 81.86 65.82 81.88 67.31 81.90 68.05 L 83.14 68.02 C 77.44 72.84 73.88 79.50 69.37 85.32 C 70.17 82.87 70.87 79.25 67.75 78.12 C 61.48 76.73 54.94 78.36 48.62 77.03 C 56.94 68.77 69.67 68.58 80.64 68.32 Z" />
<path fill="#a4a091" opacity="1.00" d=" M 102.63 69.34 L 103.01 69.09 C 102.88 69.61 102.62 70.63 102.49 71.14 C 100.68 72.12 98.78 72.89 96.88 73.67 C 99.08 73.75 101.29 73.82 103.47 74.12 L 105.13 74.89 C 101.38 77.08 96.89 74.00 93.17 76.23 C 90.05 77.92 87.26 80.14 84.37 82.20 C 86.29 78.07 90.16 75.50 92.87 72.03 C 92.93 71.44 93.07 70.28 93.13 69.70 C 94.61 70.66 95.98 72.30 97.94 71.99 C 99.63 71.36 101.11 70.29 102.63 69.34 Z" />
<path fill="#a4a091" opacity="1.00" d=" M 107.25 78.02 C 112.82 87.69 113.99 99.55 112.27 110.44 C 113.14 110.38 114.87 110.25 115.74 110.19 C 116.74 114.26 117.57 118.38 117.49 122.60 C 116.17 123.01 114.85 123.41 113.52 123.78 C 113.33 124.93 113.16 126.09 112.94 127.24 C 109.81 128.33 107.07 130.19 104.36 132.06 C 104.51 130.18 101.57 129.37 101.73 131.71 C 101.43 130.91 101.13 130.11 100.83 129.32 C 105.98 128.90 110.69 125.81 113.29 121.38 C 114.05 119.14 113.55 116.69 113.55 114.37 C 110.20 114.84 106.46 114.55 103.59 116.61 C 103.14 115.33 102.65 114.06 101.90 112.93 C 100.56 112.63 99.20 112.62 97.81 112.90 C 100.91 110.13 104.85 108.65 108.14 106.19 C 109.60 103.52 107.77 100.41 107.08 97.74 C 103.93 98.73 100.83 99.87 97.74 101.01 C 99.01 99.55 100.13 97.86 101.82 96.83 C 103.47 96.15 105.30 96.32 107.04 96.17 C 108.32 90.19 107.53 84.06 107.25 78.02 M 116.27 117.46 C 115.44 118.61 115.50 120.42 116.30 121.58 C 117.71 121.34 117.71 117.70 116.27 117.46 Z" />
<path fill="#a4a091" opacity="1.00" d=" M 67.81 90.18 C 69.68 87.66 71.67 85.23 73.77 82.89 C 73.71 83.74 73.60 85.43 73.55 86.27 C 75.76 89.00 78.45 85.06 81.01 84.55 C 77.37 90.18 74.02 96.01 71.12 102.06 C 69.34 100.10 67.32 98.40 65.48 96.52 C 66.39 94.46 67.55 92.47 67.81 90.18 Z" />
<path fill="#a4a091" opacity="1.00" d=" M 42.14 104.27 C 42.95 98.46 42.32 92.48 43.95 86.77 C 44.02 88.45 44.15 90.13 44.27 91.81 C 44.54 91.43 45.07 90.67 45.34 90.29 C 49.77 90.65 54.01 91.94 58.19 93.38 C 60.56 94.44 62.92 93.20 65.09 92.28 C 63.07 96.80 59.31 100.23 57.30 104.76 C 56.67 104.79 55.40 104.84 54.76 104.87 C 50.56 104.49 46.35 104.45 42.14 104.27 Z" />
<path fill="#a4a091" opacity="1.00" d=" M 32.88 93.90 C 33.54 94.67 34.19 95.46 34.84 96.25 C 34.26 97.59 33.68 98.94 33.10 100.28 C 32.71 98.17 32.70 96.03 32.88 93.90 Z" />
<path fill="#a4a091" opacity="1.00" d=" M 68.53 110.53 C 71.37 105.33 73.41 99.73 76.39 94.61 C 76.34 97.14 76.09 99.71 76.49 102.23 C 77.06 105.02 78.70 107.46 79.38 110.22 C 79.88 113.13 79.71 116.11 79.77 119.06 C 82.60 118.98 85.43 118.87 88.22 118.40 C 86.42 119.73 84.75 121.24 83.09 122.74 C 81.19 122.78 79.29 122.82 77.40 122.84 C 77.38 120.89 77.37 118.94 77.35 116.99 C 76.57 118.77 75.84 120.55 75.14 122.36 C 73.13 123.17 71.02 123.70 68.86 123.96 C 68.56 119.54 66.09 114.73 68.53 110.53 Z" />
<path fill="#a4a091" opacity="1.00" d=" M 59.08 131.03 C 60.72 131.56 62.37 132.07 64.01 132.58 C 63.28 135.24 62.12 137.76 60.50 140.00 C 59.26 137.18 59.24 134.05 59.08 131.03 Z" />
<path fill="#a4a091" opacity="1.00" d=" M 102.02 132.48 L 102.79 132.90 C 103.09 135.16 103.23 137.43 103.38 139.70 C 105.00 139.12 106.63 138.56 108.24 137.94 C 106.98 139.14 105.68 140.33 104.14 141.16 C 103.25 141.55 102.37 141.93 101.47 142.30 C 99.61 140.36 97.66 138.38 95.09 137.39 C 95.45 137.24 96.17 136.94 96.53 136.78 C 96.45 136.33 96.28 135.42 96.20 134.96 C 97.91 136.37 99.65 137.72 101.38 139.11 C 101.63 136.90 101.88 134.70 102.02 132.48 Z" />
<path fill="#a4a091" opacity="1.00" d=" M 43.63 139.77 C 47.41 140.68 51.11 141.90 54.75 143.28 C 54.35 147.57 54.60 151.93 56.19 155.98 C 56.34 156.52 56.65 157.60 56.80 158.14 C 56.88 159.76 56.88 161.37 56.95 162.99 C 55.30 162.52 53.70 161.93 52.06 161.44 C 49.97 153.95 46.68 146.89 43.63 139.77 Z" />
<path fill="#a4a091" opacity="1.00" d=" M 51.55 165.22 C 53.68 169.49 56.39 173.42 59.15 177.30 L 58.80 177.07 C 54.66 174.66 50.01 170.58 51.55 165.22 Z" />
<path fill="#a4a091" opacity="1.00" d=" M 77.15 168.58 C 82.92 167.86 88.79 167.22 94.20 164.92 C 94.42 165.40 94.87 166.35 95.09 166.82 C 94.96 167.04 94.69 167.49 94.56 167.71 C 92.48 168.77 90.33 169.68 88.26 170.76 C 84.37 170.96 79.77 172.52 77.15 168.58 Z" />
<path fill="#a4a091" opacity="1.00" d=" M 92.09 170.67 C 93.06 169.80 94.05 168.96 95.09 168.18 C 96.38 169.51 97.03 171.24 96.75 173.09 C 94.74 173.73 94.11 176.14 95.49 177.71 C 96.23 178.96 96.60 180.32 96.60 181.80 L 95.14 181.77 C 93.42 181.14 91.79 180.32 90.17 179.50 C 91.01 178.76 91.86 178.02 92.70 177.29 C 92.11 177.17 90.91 176.92 90.31 176.79 C 90.94 174.76 91.51 172.71 92.09 170.67 Z" />
<path fill="#a4a091" opacity="1.00" d=" M 58.01 183.08 C 59.40 182.82 60.52 183.24 61.39 184.35 C 60.24 185.93 57.77 185.06 58.01 183.08 Z" />
<path fill="#a4a091" opacity="1.00" d=" M 56.87 200.47 C 72.60 200.15 88.34 200.52 104.08 200.39 C 88.41 202.01 72.55 201.81 56.87 200.47 Z" />
</g>
<g id="#c02c15ff">
<path fill="#c02c15" opacity="1.00" d=" M 41.93 109.99 C 46.91 107.93 53.32 108.82 56.28 113.71 C 58.78 117.04 55.60 121.08 57.17 124.67 C 56.52 125.07 55.87 125.47 55.22 125.87 C 53.58 125.18 51.93 124.51 50.28 123.85 C 50.09 124.76 49.72 126.57 49.53 127.47 C 48.15 124.53 46.85 121.55 45.65 118.52 C 45.82 117.08 47.91 115.08 46.09 114.01 C 45.16 113.57 44.20 113.18 43.23 112.85 C 42.80 111.89 42.36 110.94 41.93 109.99 M 49.05 114.25 C 49.31 116.73 50.73 120.07 53.87 118.92 C 56.55 116.04 51.92 112.71 49.05 114.25 Z" />
<path fill="#c02c15" opacity="1.00" d=" M 49.65 161.66 C 50.25 161.60 51.46 161.49 52.06 161.44 C 53.70 161.93 55.30 162.52 56.95 162.99 C 59.44 162.35 61.88 161.32 64.52 161.51 C 64.72 162.92 65.24 164.24 65.75 165.56 C 65.78 166.67 65.83 167.79 65.92 168.91 C 66.15 172.46 66.72 175.98 67.42 179.47 C 65.89 181.38 63.47 182.27 61.79 184.03 L 61.39 184.35 C 60.52 183.24 59.40 182.82 58.01 183.08 C 57.84 182.09 57.67 181.11 57.49 180.14 C 58.82 180.49 60.16 180.84 61.50 181.19 C 60.75 179.87 60.01 178.54 59.15 177.30 C 56.39 173.42 53.68 169.49 51.55 165.22 C 50.91 164.03 50.27 162.85 49.65 161.66 Z" />
</g>
</svg>
