<?xml version="1.0" encoding="UTF-8" ?>
<!DOCTYPE svg PUBLIC "-//W3C//DTD SVG 1.1//EN" "http://www.w3.org/Graphics/SVG/1.1/DTD/svg11.dtd">
<svg width="155pt" height="210pt" viewBox="0 0 155 210" version="1.1" xmlns="http://www.w3.org/2000/svg">
<g id="#3c75afff">
<path fill="#3c75af" opacity="1.00" d=" M 51.28 41.29 C 54.19 39.40 57.78 39.37 61.10 38.87 C 66.90 38.02 72.40 40.52 77.78 42.27 C 85.80 44.96 90.95 52.96 92.23 61.04 C 92.64 62.93 91.71 64.71 91.19 66.47 C 88.73 63.14 86.66 59.08 82.72 57.26 C 77.49 54.89 71.62 54.80 65.99 54.68 C 60.73 54.73 55.10 54.56 50.39 57.28 C 44.28 60.71 38.73 65.08 33.90 70.14 C 33.23 66.12 31.46 61.58 33.86 57.81 C 36.11 54.18 38.97 50.98 41.72 47.73 C 44.24 44.71 48.04 43.35 51.28 41.29 Z" />
<path fill="#3c75af" opacity="1.00" d=" M 72.08 71.74 C 72.59 71.86 73.59 72.09 74.09 72.20 C 78.66 73.32 83.37 73.59 88.05 74.01 C 96.91 75.35 104.53 81.06 110.40 87.59 C 113.99 91.28 115.54 96.44 119.30 99.99 C 120.65 101.85 121.84 103.94 123.76 105.28 C 126.78 106.81 130.28 105.99 133.48 105.70 C 132.32 107.48 131.25 109.32 129.91 110.97 C 128.99 112.13 127.97 113.20 126.99 114.31 C 124.13 113.70 121.27 113.11 118.38 112.64 C 119.38 113.70 120.29 114.86 121.28 115.93 C 122.96 116.11 124.64 115.81 126.30 115.55 C 126.65 117.37 126.95 119.20 127.26 121.03 C 125.04 124.49 123.63 128.38 122.16 132.20 C 120.80 135.29 122.50 138.62 122.02 141.81 C 120.60 144.88 118.07 147.31 116.86 150.51 C 115.91 152.64 114.96 154.77 113.99 156.90 C 112.97 155.40 111.75 154.06 110.70 152.59 C 111.47 143.14 113.94 133.94 114.80 124.50 C 116.01 118.24 116.95 111.72 115.15 105.46 C 114.67 103.27 113.94 101.14 113.19 99.03 C 113.01 98.56 112.66 97.61 112.48 97.14 C 110.30 89.67 104.60 83.63 97.74 80.18 C 91.23 77.11 83.71 77.50 76.80 78.79 C 68.29 80.65 60.39 85.30 54.56 91.78 C 52.92 102.58 56.66 113.34 55.31 124.16 C 54.58 129.47 54.02 134.99 51.71 139.89 C 48.76 144.16 42.90 144.30 38.21 144.34 C 37.00 143.69 36.32 142.47 35.84 141.25 C 33.47 134.61 30.66 128.01 30.18 120.89 C 32.35 122.39 34.68 123.65 37.00 124.90 C 40.37 127.58 42.99 131.04 45.55 134.46 C 46.07 131.68 46.54 128.88 46.79 126.06 C 46.74 123.08 46.47 120.10 45.91 117.18 C 44.38 109.55 42.10 102.09 40.73 94.43 C 37.45 95.02 34.16 95.59 30.86 96.11 C 30.38 94.10 30.57 92.06 30.87 90.03 C 32.34 90.70 33.74 91.51 35.20 92.22 C 39.68 88.77 43.35 84.31 48.23 81.37 C 48.86 81.00 49.49 80.64 50.13 80.29 C 52.39 79.08 54.71 77.99 57.03 76.92 C 61.86 74.68 66.84 72.71 72.08 71.74 Z" />
<path fill="#3c75af" opacity="1.00" d=" M 59.44 117.08 C 63.04 117.13 66.71 116.94 70.23 117.82 C 74.72 118.74 74.88 124.28 76.51 127.69 C 71.67 132.40 65.62 135.53 59.05 137.04 C 57.35 137.08 55.64 137.06 53.94 137.04 C 57.45 130.96 59.54 124.15 59.44 117.08 Z" />
<path fill="#3c75af" opacity="1.00" d=" M 88.00 119.63 C 92.35 116.18 98.15 117.28 103.31 116.81 C 105.33 121.92 107.49 126.99 109.09 132.26 C 105.90 132.50 102.45 133.04 99.51 131.41 C 95.24 129.16 92.18 125.31 88.77 122.01 C 89.78 125.93 91.22 129.89 94.44 132.55 C 88.32 135.14 82.49 130.27 78.88 125.75 C 77.34 123.27 76.09 120.63 74.83 118.01 C 79.26 118.19 83.64 118.86 88.00 119.63 Z" />
<path fill="#3c75af" opacity="1.00" d=" M 72.27 159.22 L 72.88 158.79 C 73.57 158.84 74.94 158.94 75.63 158.99 C 79.59 159.38 83.55 159.76 87.52 160.10 C 87.82 161.81 88.25 163.48 88.75 165.14 C 82.37 166.63 75.70 167.35 69.30 165.50 L 69.71 164.76 C 70.53 162.90 71.41 161.06 72.27 159.22 Z" />
<path fill="#3c75af" opacity="1.00" d=" M 36.66 170.29 C 38.67 169.11 40.71 167.99 42.78 166.94 C 43.02 167.56 43.48 168.80 43.72 169.42 C 43.55 170.59 43.39 171.75 43.30 172.93 C 40.89 172.59 38.66 171.64 36.66 170.29 Z" />
</g>
<g id="#b19662ff">
<path fill="#b19662" opacity="1.00" d=" M 126.76 48.04 C 128.78 47.65 130.79 47.20 132.78 46.67 C 133.09 47.31 133.71 48.58 134.02 49.22 C 132.89 50.01 131.75 50.79 130.62 51.57 C 131.23 56.74 131.46 61.94 131.67 67.13 C 133.00 62.15 133.72 57.03 134.08 51.90 C 135.94 52.34 137.84 52.65 139.68 53.18 C 142.02 55.28 143.76 57.94 145.95 60.18 C 144.06 62.99 142.26 65.90 141.11 69.10 C 137.60 78.90 134.93 88.97 131.91 98.92 C 130.84 101.36 129.99 105.65 126.39 104.61 C 123.09 104.32 123.17 100.64 123.12 98.14 C 124.75 86.38 127.62 74.82 129.11 63.04 C 129.90 57.89 127.87 52.98 126.76 48.04 M 135.22 61.21 C 136.32 62.49 137.42 63.77 138.53 65.04 C 139.03 63.40 139.58 61.77 140.10 60.14 C 138.46 60.44 136.86 60.91 135.22 61.21 Z" />
<path fill="#b19662" opacity="1.00" d=" M 39.11 110.55 C 42.50 111.29 44.65 114.13 45.91 117.18 C 46.47 120.10 46.74 123.08 46.79 126.06 C 43.52 125.72 40.24 125.43 37.00 124.90 C 34.68 123.65 32.35 122.39 30.18 120.89 C 27.04 118.62 24.06 116.15 20.90 113.92 C 27.53 114.84 34.25 114.94 40.91 114.36 C 40.32 113.09 39.71 111.82 39.11 110.55 Z" />
<path fill="#b19662" opacity="1.00" d=" M 126.30 115.55 C 129.88 114.62 133.58 115.10 137.01 116.38 C 134.15 118.66 130.79 120.15 127.26 121.03 C 126.95 119.20 126.65 117.37 126.30 115.55 Z" />
<path fill="#b19662" opacity="1.00" d=" M 76.51 127.69 C 77.29 127.04 78.08 126.39 78.88 125.75 C 82.49 130.27 88.32 135.14 94.44 132.55 C 96.93 134.79 99.38 137.07 101.69 139.50 C 94.37 143.10 86.23 145.71 77.98 145.00 C 71.03 144.11 64.73 140.74 58.54 137.65 L 59.05 137.04 C 65.62 135.53 71.67 132.40 76.51 127.69 Z" />
<path fill="#b19662" opacity="1.00" d=" M 61.67 151.73 C 64.23 150.01 65.89 147.32 67.76 144.92 C 67.98 145.30 68.44 146.05 68.67 146.43 C 69.80 149.19 71.99 151.02 74.78 151.92 C 74.78 150.72 74.76 149.53 74.72 148.34 C 76.83 148.27 78.93 148.52 81.04 148.44 C 80.16 149.47 79.26 150.50 78.34 151.51 C 82.03 150.80 85.40 149.17 88.10 146.54 C 90.77 145.77 92.23 148.98 93.91 150.46 C 92.32 151.88 90.70 153.26 89.25 154.83 C 88.54 156.54 88.07 158.34 87.52 160.10 C 83.55 159.76 79.59 159.38 75.63 158.99 C 79.69 159.02 83.75 158.69 87.81 158.37 C 87.28 156.10 86.76 153.84 86.24 151.57 C 81.80 154.01 77.08 155.94 72.88 158.79 L 72.27 159.22 C 69.00 161.70 65.02 162.93 60.91 162.47 C 62.22 164.03 63.59 165.54 64.74 167.22 C 64.98 168.42 65.16 169.62 65.29 170.84 C 64.58 173.83 63.77 177.19 61.10 179.06 C 58.18 181.14 54.50 181.56 51.05 181.98 C 48.87 180.68 46.90 179.07 44.85 177.58 C 48.74 176.72 52.71 176.05 56.39 174.47 C 58.97 173.36 60.51 170.86 62.26 168.80 C 60.35 168.19 58.73 165.93 56.54 166.72 C 52.36 168.01 48.18 169.62 43.72 169.42 C 43.48 168.80 43.02 167.56 42.78 166.94 L 42.60 166.39 C 43.22 166.41 44.45 166.43 45.07 166.45 C 47.11 166.44 49.17 166.48 51.17 166.02 C 54.47 165.00 56.89 162.37 59.39 160.11 C 57.16 158.74 54.81 157.60 52.38 156.64 C 52.42 156.15 52.48 155.17 52.51 154.69 C 55.61 153.88 58.87 153.38 61.67 151.73 Z" />
<path fill="#b19662" opacity="1.00" d=" M 107.22 150.49 C 107.64 150.43 108.49 150.31 108.91 150.25 C 109.25 150.70 109.94 151.58 110.29 152.02 C 108.14 152.18 106.00 152.35 103.85 152.47 C 105.32 153.52 106.87 154.45 108.30 155.56 C 107.52 157.12 106.73 158.67 105.94 160.23 C 104.05 159.82 102.21 159.17 100.27 159.00 C 99.13 158.83 97.99 158.75 96.84 158.76 C 98.25 157.88 99.90 157.14 100.87 155.73 C 101.15 154.49 100.80 153.21 100.66 151.98 C 102.84 151.46 105.03 150.95 107.22 150.49 Z" />
<path fill="#b19662" opacity="1.00" d=" M 85.86 187.64 C 87.83 187.41 89.79 187.15 91.76 186.92 C 91.33 188.94 91.20 191.14 90.09 192.94 C 88.59 193.94 86.71 194.10 85.03 194.64 C 85.24 192.29 85.71 189.98 85.86 187.64 Z" />
<path fill="#b19662" opacity="1.00" d=" M 59.21 190.79 C 61.56 190.49 63.92 190.38 66.28 190.23 C 65.81 191.94 65.35 193.65 64.89 195.37 C 61.72 195.55 58.52 195.15 55.77 193.45 C 56.86 192.48 58.01 191.60 59.21 190.79 Z" />
<path fill="#b19662" opacity="1.00" d=" M 95.11 190.30 C 98.36 190.43 102.21 191.89 103.44 194.84 C 100.09 194.53 96.72 194.54 93.40 194.02 C 93.81 192.73 93.66 190.96 95.11 190.30 Z" />
</g>
<g id="#30353bff">
<path fill="#30353b" opacity="1.00" d=" M 134.02 49.22 C 135.92 50.53 137.82 51.82 139.68 53.18 C 137.84 52.65 135.94 52.34 134.08 51.90 C 133.72 57.03 133.00 62.15 131.67 67.13 C 131.46 61.94 131.23 56.74 130.62 51.57 C 131.75 50.79 132.89 50.01 134.02 49.22 Z" />
<path fill="#30353b" opacity="1.00" d=" M 135.22 61.21 C 136.86 60.91 138.46 60.44 140.10 60.14 C 139.58 61.77 139.03 63.40 138.53 65.04 C 137.42 63.77 136.32 62.49 135.22 61.21 Z" />
<path fill="#30353b" opacity="1.00" d=" M 65.73 61.46 C 73.11 60.42 79.61 65.75 83.55 71.46 C 80.41 71.87 77.26 72.24 74.09 72.20 C 73.59 72.09 72.59 71.86 72.08 71.74 C 70.58 68.85 69.36 64.99 65.77 64.13 C 62.16 63.33 58.61 65.77 56.56 68.58 C 54.57 71.09 56.46 74.25 57.03 76.92 C 54.71 77.99 52.39 79.08 50.13 80.29 C 48.33 77.73 44.85 74.54 47.15 71.22 C 51.66 65.68 58.53 61.85 65.73 61.46 Z" />
<path fill="#30353b" opacity="1.00" d=" M 102.86 115.96 C 106.00 115.53 109.11 114.94 112.24 114.47 C 111.60 118.05 112.81 121.55 114.80 124.50 C 113.94 133.94 111.47 143.14 110.70 152.59 L 110.29 152.02 C 109.94 151.58 109.25 150.70 108.91 150.25 C 109.17 149.61 109.69 148.33 109.96 147.69 C 108.94 146.75 107.92 145.82 106.90 144.88 C 106.43 146.57 105.95 148.26 105.56 149.97 C 105.97 150.10 106.81 150.36 107.22 150.49 C 105.03 150.95 102.84 151.46 100.66 151.98 C 100.03 151.87 98.76 151.64 98.13 151.52 C 101.58 149.90 103.63 146.64 105.88 143.75 C 106.83 142.91 107.83 142.14 108.83 141.36 C 109.05 138.34 109.41 135.29 109.09 132.26 C 107.49 126.99 105.33 121.92 103.31 116.81 L 102.86 115.96 Z" />
<path fill="#30353b" opacity="1.00" d=" M 37.00 124.90 C 40.24 125.43 43.52 125.72 46.79 126.06 C 46.54 128.88 46.07 131.68 45.55 134.46 C 42.99 131.04 40.37 127.58 37.00 124.90 Z" />
<path fill="#30353b" opacity="1.00" d=" M 68.67 146.43 C 75.16 145.87 81.61 147.70 88.10 146.54 C 85.40 149.17 82.03 150.80 78.34 151.51 C 79.26 150.50 80.16 149.47 81.04 148.44 C 78.93 148.52 76.83 148.27 74.72 148.34 C 74.76 149.53 74.78 150.72 74.78 151.92 C 71.99 151.02 69.80 149.19 68.67 146.43 Z" />
<path fill="#30353b" opacity="1.00" d=" M 117.73 152.45 C 119.58 151.51 119.88 155.35 117.91 154.70 C 117.87 154.14 117.77 153.01 117.73 152.45 Z" />
<path fill="#30353b" opacity="1.00" d=" M 87.52 160.10 C 88.07 158.34 88.54 156.54 89.25 154.83 C 91.53 156.51 93.77 158.88 96.84 158.76 C 97.99 158.75 99.13 158.83 100.27 159.00 C 100.52 161.84 100.71 164.68 100.89 167.52 C 100.23 167.70 98.92 168.05 98.27 168.23 C 98.34 170.66 98.70 173.11 98.32 175.54 C 97.67 177.54 96.00 178.98 94.73 180.60 C 91.18 177.35 90.70 172.50 89.55 168.12 C 89.31 167.12 89.04 166.13 88.75 165.14 C 88.25 163.48 87.82 161.81 87.52 160.10 Z" />
<path fill="#30353b" opacity="1.00" d=" M 52.38 156.64 C 54.81 157.60 57.16 158.74 59.39 160.11 C 56.89 162.37 54.47 165.00 51.17 166.02 C 49.17 166.48 47.11 166.44 45.07 166.45 C 49.32 165.74 53.11 163.59 56.50 161.02 C 53.67 160.66 50.84 160.32 48.00 160.10 C 49.51 159.01 50.97 157.84 52.38 156.64 Z" />
<path fill="#30353b" opacity="1.00" d=" M 83.07 171.59 C 84.52 175.23 85.86 178.94 87.75 182.39 C 89.01 184.63 91.71 185.24 93.85 186.32 C 93.40 186.73 92.49 187.56 92.04 187.98 C 93.83 188.25 95.62 188.55 97.41 188.83 C 98.00 186.90 98.64 184.99 99.23 183.07 C 99.16 183.73 99.03 185.04 98.96 185.70 C 101.17 185.60 103.36 186.22 105.57 185.90 C 105.42 189.42 105.54 192.95 106.14 196.43 L 105.32 196.43 C 98.51 196.59 91.67 196.24 85.03 194.64 C 86.71 194.10 88.59 193.94 90.09 192.94 C 91.20 191.14 91.33 188.94 91.76 186.92 C 89.79 187.15 87.83 187.41 85.86 187.64 L 85.92 186.78 C 85.03 181.70 83.53 176.74 83.07 171.59 M 95.11 190.30 C 93.66 190.96 93.81 192.73 93.40 194.02 C 96.72 194.54 100.09 194.53 103.44 194.84 C 102.21 191.89 98.36 190.43 95.11 190.30 Z" />
<path fill="#30353b" opacity="1.00" d=" M 68.57 183.61 C 70.23 180.01 71.47 176.24 72.71 172.48 C 72.30 177.15 71.25 181.73 69.95 186.23 C 72.06 186.38 74.16 186.58 76.28 186.68 L 75.31 186.79 C 72.91 187.05 70.51 187.30 68.10 187.54 C 68.37 188.07 68.64 188.61 68.92 189.14 C 69.94 191.15 70.89 193.20 71.83 195.25 C 66.83 196.93 61.54 197.48 56.29 197.08 L 55.25 197.03 C 55.42 195.84 55.61 194.65 55.77 193.45 C 58.52 195.15 61.72 195.55 64.89 195.37 C 65.35 193.65 65.81 191.94 66.28 190.23 C 63.92 190.38 61.56 190.49 59.21 190.79 C 59.81 190.44 60.41 190.11 61.02 189.79 C 63.84 188.17 67.05 186.64 68.57 183.61 M 65.67 194.25 C 67.34 194.24 69.01 194.22 70.67 194.19 C 70.12 192.97 69.52 191.78 68.90 190.61 C 66.87 190.61 66.56 192.89 65.67 194.25 Z" />
<path fill="#30353b" opacity="1.00" d=" M 41.68 200.33 C 51.15 200.08 60.58 198.41 70.05 199.03 C 74.02 199.31 78.00 199.35 81.98 199.20 C 89.20 199.12 96.42 197.13 103.62 198.51 C 107.84 199.26 112.06 200.01 116.32 200.56 C 111.75 201.86 107.17 203.14 102.68 204.69 C 110.55 208.42 119.51 206.27 127.89 206.95 C 127.87 204.90 128.19 202.87 128.27 200.83 C 128.48 203.46 128.93 206.07 128.79 208.72 C 95.26 208.85 61.72 208.62 28.19 208.84 C 28.20 206.27 28.19 203.69 28.16 201.12 L 28.94 201.00 C 28.99 203.19 29.04 205.37 29.09 207.56 C 35.07 206.91 41.09 206.75 47.11 206.75 C 50.01 206.86 52.75 205.86 55.33 204.65 C 50.86 202.96 46.25 201.68 41.68 200.33 M 61.85 200.39 C 73.51 202.32 85.47 202.13 97.14 200.43 C 85.39 199.76 73.61 199.91 61.85 200.39 Z" />
</g>
<g id="#22456bff">
<path fill="#22456b" opacity="1.00" d=" M 50.39 57.28 C 55.10 54.56 60.73 54.73 65.99 54.68 C 71.62 54.80 77.49 54.89 82.72 57.26 C 86.66 59.08 88.73 63.14 91.19 66.47 C 89.39 68.46 87.67 70.50 85.97 72.58 C 86.49 72.93 87.53 73.65 88.05 74.01 C 83.37 73.59 78.66 73.32 74.09 72.20 C 77.26 72.24 80.41 71.87 83.55 71.46 C 79.61 65.75 73.11 60.42 65.73 61.46 C 58.53 61.85 51.66 65.68 47.15 71.22 C 44.85 74.54 48.33 77.73 50.13 80.29 C 49.49 80.64 48.86 81.00 48.23 81.37 C 45.16 79.06 41.67 77.42 38.26 75.68 C 36.05 74.58 35.16 72.10 33.90 70.14 C 38.73 65.08 44.28 60.71 50.39 57.28 Z" />
<path fill="#22456b" opacity="1.00" d=" M 55.31 124.16 C 56.66 113.34 52.92 102.58 54.56 91.78 C 55.24 99.29 55.00 107.15 57.68 114.29 C 59.25 114.91 60.95 115.15 62.61 115.35 C 75.97 116.86 89.46 116.51 102.86 115.96 L 103.31 116.81 C 98.15 117.28 92.35 116.18 88.00 119.63 C 83.64 118.86 79.26 118.19 74.83 118.01 C 76.09 120.63 77.34 123.27 78.88 125.75 C 78.08 126.39 77.29 127.04 76.51 127.69 C 74.88 124.28 74.72 118.74 70.23 117.82 C 66.71 116.94 63.04 117.13 59.44 117.08 C 59.54 124.15 57.45 130.96 53.94 137.04 C 55.64 137.06 57.35 137.08 59.05 137.04 L 58.54 137.65 C 55.98 140.94 55.43 145.16 53.72 148.85 C 51.69 151.49 48.46 152.81 45.72 154.58 C 45.87 156.39 46.02 158.19 46.17 159.99 C 45.76 160.34 44.95 161.02 44.54 161.36 C 44.20 159.40 43.69 157.47 43.32 155.51 C 39.69 154.45 35.85 153.43 33.30 150.42 C 35.44 149.51 37.60 148.68 39.77 147.86 C 39.25 146.68 38.73 145.51 38.21 144.34 C 42.90 144.30 48.76 144.16 51.71 139.89 C 54.02 134.99 54.58 129.47 55.31 124.16 Z" />
<path fill="#22456b" opacity="1.00" d=" M 30.86 96.11 C 34.16 95.59 37.45 95.02 40.73 94.43 C 42.10 102.09 44.38 109.55 45.91 117.18 C 44.65 114.13 42.50 111.29 39.11 110.55 C 36.33 110.28 33.55 110.21 30.76 110.14 C 31.03 106.33 32.49 102.78 33.38 99.11 C 32.73 97.98 31.71 97.09 30.86 96.11 Z" />
<path fill="#22456b" opacity="1.00" d=" M 88.77 122.01 C 92.18 125.31 95.24 129.16 99.51 131.41 C 102.45 133.04 105.90 132.50 109.09 132.26 C 109.41 135.29 109.05 138.34 108.83 141.36 C 107.83 142.14 106.83 142.91 105.88 143.75 C 104.48 142.33 103.08 140.92 101.69 139.50 C 99.38 137.07 96.93 134.79 94.44 132.55 C 91.22 129.89 89.78 125.93 88.77 122.01 Z" />
<path fill="#22456b" opacity="1.00" d=" M 105.94 160.23 C 106.73 158.67 107.52 157.12 108.30 155.56 C 111.73 157.66 111.82 161.84 111.79 165.42 C 111.20 169.60 110.29 173.73 109.28 177.82 C 106.72 176.99 104.18 176.11 101.67 175.14 C 102.42 172.89 103.20 170.66 103.98 168.43 C 103.21 168.20 101.66 167.75 100.89 167.52 C 100.71 164.68 100.52 161.84 100.27 159.00 C 102.21 159.17 104.05 159.82 105.94 160.23 Z" />
<path fill="#22456b" opacity="1.00" d=" M 100.45 178.99 C 102.82 179.59 105.19 180.16 107.58 180.66 C 107.83 182.15 108.07 183.64 108.31 185.13 C 107.62 185.32 106.25 185.71 105.57 185.90 C 103.36 186.22 101.17 185.60 98.96 185.70 C 99.03 185.04 99.16 183.73 99.23 183.07 C 99.61 181.70 100.03 180.35 100.45 178.99 Z" />
<path fill="#22456b" opacity="1.00" d=" M 61.85 200.39 C 73.61 199.91 85.39 199.76 97.14 200.43 C 85.47 202.13 73.51 202.32 61.85 200.39 Z" />
</g>
<g id="#ddadd2ff">
<path fill="#ddadd2" opacity="1.00" d=" M 56.56 68.58 C 58.61 65.77 62.16 63.33 65.77 64.13 C 69.36 64.99 70.58 68.85 72.08 71.74 C 66.84 72.71 61.86 74.68 57.03 76.92 C 56.46 74.25 54.57 71.09 56.56 68.58 Z" />
<path fill="#ddadd2" opacity="1.00" d=" M 78.81 85.73 C 81.87 83.38 85.68 82.41 89.28 81.23 C 94.21 82.99 99.76 84.51 103.02 88.96 C 105.52 92.37 108.09 96.07 112.48 97.14 C 112.66 97.61 113.01 98.56 113.19 99.03 C 111.09 102.65 109.48 107.53 105.04 108.84 C 100.92 106.49 97.71 102.51 92.81 101.63 C 89.23 101.62 85.49 102.40 82.63 104.68 C 80.15 106.32 78.02 108.90 75.00 109.45 C 68.78 109.00 65.45 102.87 62.63 98.08 C 65.51 96.87 68.54 95.83 71.04 93.91 C 73.86 91.41 75.81 88.06 78.81 85.73 Z" />
<path fill="#ddadd2" opacity="1.00" d=" M 88.36 104.71 C 89.98 103.67 91.76 102.90 93.50 102.09 C 94.46 104.09 96.00 106.21 95.55 108.55 C 94.58 110.72 92.29 111.87 90.41 113.14 C 89.31 110.55 86.53 107.59 88.36 104.71 Z" />
<path fill="#ddadd2" opacity="1.00" d=" M 20.00 110.39 C 23.59 110.19 27.18 110.09 30.76 110.14 C 33.55 110.21 36.33 110.28 39.11 110.55 C 39.71 111.82 40.32 113.09 40.91 114.36 C 34.25 114.94 27.53 114.84 20.90 113.92 L 19.84 113.79 C 19.88 112.66 19.93 111.52 20.00 110.39 Z" />
<path fill="#ddadd2" opacity="1.00" d=" M 129.91 110.97 C 134.09 111.12 138.30 111.28 142.36 112.35 C 141.62 114.60 139.53 116.72 137.01 116.38 C 133.58 115.10 129.88 114.62 126.30 115.55 C 124.64 115.81 122.96 116.11 121.28 115.93 C 120.29 114.86 119.38 113.70 118.38 112.64 C 121.27 113.11 124.13 113.70 126.99 114.31 C 127.97 113.20 128.99 112.13 129.91 110.97 Z" />
<path fill="#ddadd2" opacity="1.00" d=" M 72.88 158.79 C 77.08 155.94 81.80 154.01 86.24 151.57 C 86.76 153.84 87.28 156.10 87.81 158.37 C 83.75 158.69 79.69 159.02 75.63 158.99 C 74.94 158.94 73.57 158.84 72.88 158.79 Z" />
<path fill="#ddadd2" opacity="1.00" d=" M 116.86 150.51 C 117.08 150.99 117.51 151.96 117.73 152.45 C 117.77 153.01 117.87 154.14 117.91 154.70 C 117.44 158.92 115.56 163.17 111.79 165.42 C 111.82 161.84 111.73 157.66 108.30 155.56 C 106.87 154.45 105.32 153.52 103.85 152.47 C 106.00 152.35 108.14 152.18 110.29 152.02 L 110.70 152.59 C 111.75 154.06 112.97 155.40 113.99 156.90 C 114.96 154.77 115.91 152.64 116.86 150.51 Z" />
<path fill="#ddadd2" opacity="1.00" d=" M 69.30 165.50 C 75.70 167.35 82.37 166.63 88.75 165.14 C 89.04 166.13 89.31 167.12 89.55 168.12 C 89.61 168.43 89.72 169.05 89.78 169.36 C 87.31 168.71 84.89 167.91 82.46 167.14 C 82.66 168.63 82.85 170.11 83.07 171.59 C 83.53 176.74 85.03 181.70 85.92 186.78 C 83.88 186.77 81.84 186.81 79.80 186.79 C 78.63 186.73 77.45 186.69 76.28 186.68 C 74.16 186.58 72.06 186.38 69.95 186.23 C 71.25 181.73 72.30 177.15 72.71 172.48 C 72.96 170.69 73.16 168.90 73.35 167.11 C 71.33 167.67 69.34 168.30 67.33 168.89 C 68.02 167.78 68.67 166.65 69.30 165.50 Z" />
<path fill="#ddadd2" opacity="1.00" d=" M 56.54 166.72 C 58.73 165.93 60.35 168.19 62.26 168.80 C 60.51 170.86 58.97 173.36 56.39 174.47 C 52.71 176.05 48.74 176.72 44.85 177.58 C 44.29 176.04 43.60 174.54 43.30 172.93 C 43.39 171.75 43.55 170.59 43.72 169.42 C 48.18 169.62 52.36 168.01 56.54 166.72 Z" />
<path fill="#ddadd2" opacity="1.00" d=" M 100.45 178.99 C 100.84 177.70 101.25 176.42 101.67 175.14 C 104.18 176.11 106.72 176.99 109.28 177.82 C 108.72 178.77 108.15 179.72 107.58 180.66 C 105.19 180.16 102.82 179.59 100.45 178.99 Z" />
</g>
<g id="#8ba956ff">
<path fill="#8ba956" opacity="1.00" d=" M 76.80 78.79 C 83.71 77.50 91.23 77.11 97.74 80.18 C 104.60 83.63 110.30 89.67 112.48 97.14 C 108.09 96.07 105.52 92.37 103.02 88.96 C 99.76 84.51 94.21 82.99 89.28 81.23 C 85.26 79.83 81.06 78.94 76.80 78.79 Z" />
<path fill="#8ba956" opacity="1.00" d=" M 113.19 99.03 C 113.94 101.14 114.67 103.27 115.15 105.46 C 114.32 108.51 113.18 111.46 112.24 114.47 C 109.11 114.94 106.00 115.53 102.86 115.96 C 89.46 116.51 75.97 116.86 62.61 115.35 C 68.09 115.23 73.57 115.17 79.05 115.39 C 82.95 115.56 86.91 114.93 90.41 113.14 C 92.29 111.87 94.58 110.72 95.55 108.55 C 96.00 106.21 94.46 104.09 93.50 102.09 L 92.81 101.63 C 97.71 102.51 100.92 106.49 105.04 108.84 C 109.48 107.53 111.09 102.65 113.19 99.03 Z" />
<path fill="#8ba956" opacity="1.00" d=" M 46.17 159.99 C 46.63 160.02 47.54 160.08 48.00 160.10 C 50.84 160.32 53.67 160.66 56.50 161.02 C 53.11 163.59 49.32 165.74 45.07 166.45 C 44.45 166.43 43.22 166.41 42.60 166.39 C 42.33 164.42 42.69 162.44 44.54 161.36 C 44.95 161.02 45.76 160.34 46.17 159.99 Z" />
<path fill="#8ba956" opacity="1.00" d=" M 64.74 167.22 C 66.38 166.36 68.05 165.58 69.71 164.76 L 69.30 165.50 C 68.67 166.65 68.02 167.78 67.33 168.89 C 69.34 168.30 71.33 167.67 73.35 167.11 C 73.16 168.90 72.96 170.69 72.71 172.48 C 71.47 176.24 70.23 180.01 68.57 183.61 C 67.05 186.64 63.84 188.17 61.02 189.79 C 61.26 188.58 61.49 187.38 61.73 186.18 C 61.23 185.79 60.23 185.01 59.73 184.62 C 62.97 180.18 66.08 175.61 68.36 170.58 C 67.33 170.66 66.31 170.75 65.29 170.84 C 65.16 169.62 64.98 168.42 64.74 167.22 Z" />
<path fill="#8ba956" opacity="1.00" d=" M 82.46 167.14 C 84.89 167.91 87.31 168.71 89.78 169.36 C 89.72 169.05 89.61 168.43 89.55 168.12 C 90.70 172.50 91.18 177.35 94.73 180.60 C 95.51 181.48 96.30 182.36 97.08 183.25 C 96.01 184.28 94.94 185.31 93.85 186.32 C 91.71 185.24 89.01 184.63 87.75 182.39 C 85.86 178.94 84.52 175.23 83.07 171.59 C 82.85 170.11 82.66 168.63 82.46 167.14 Z" />
</g>
<g id="#bad567ff">
<path fill="#bad567" opacity="1.00" d=" M 54.56 91.78 C 60.39 85.30 68.29 80.65 76.80 78.79 C 81.06 78.94 85.26 79.83 89.28 81.23 C 85.68 82.41 81.87 83.38 78.81 85.73 C 75.81 88.06 73.86 91.41 71.04 93.91 C 68.54 95.83 65.51 96.87 62.63 98.08 C 65.45 102.87 68.78 109.00 75.00 109.45 C 78.02 108.90 80.15 106.32 82.63 104.68 C 85.49 102.40 89.23 101.62 92.81 101.63 L 93.50 102.09 C 91.76 102.90 89.98 103.67 88.36 104.71 C 86.53 107.59 89.31 110.55 90.41 113.14 C 86.91 114.93 82.95 115.56 79.05 115.39 C 73.57 115.17 68.09 115.23 62.61 115.35 C 60.95 115.15 59.25 114.91 57.68 114.29 C 55.00 107.15 55.24 99.29 54.56 91.78 Z" />
<path fill="#bad567" opacity="1.00" d=" M 93.91 150.46 C 95.30 150.85 96.71 151.23 98.13 151.52 C 98.76 151.64 100.03 151.87 100.66 151.98 C 100.80 153.21 101.15 154.49 100.87 155.73 C 99.90 157.14 98.25 157.88 96.84 158.76 C 93.77 158.88 91.53 156.51 89.25 154.83 C 90.70 153.26 92.32 151.88 93.91 150.46 Z" />
<path fill="#bad567" opacity="1.00" d=" M 65.67 194.25 C 66.56 192.89 66.87 190.61 68.90 190.61 C 69.52 191.78 70.12 192.97 70.67 194.19 C 69.01 194.22 67.34 194.24 65.67 194.25 Z" />
</g>
<g id="#141b23ff">
<path fill="#141b23" opacity="1.00" d=" M 118.73 99.07 C 119.83 98.83 122.02 98.37 123.12 98.14 C 123.17 100.64 123.09 104.32 126.39 104.61 C 129.99 105.65 130.84 101.36 131.91 98.92 C 132.71 101.13 133.51 103.35 134.25 105.59 L 133.48 105.70 C 130.28 105.99 126.78 106.81 123.76 105.28 C 121.84 103.94 120.65 101.85 119.30 99.99 L 118.73 99.07 Z" />
<path fill="#141b23" opacity="1.00" d=" M 115.15 105.46 C 116.95 111.72 116.01 118.24 114.80 124.50 C 112.81 121.55 111.60 118.05 112.24 114.47 C 113.18 111.46 114.32 108.51 115.15 105.46 Z" />
<path fill="#141b23" opacity="1.00" d=" M 53.72 148.85 C 55.43 145.16 55.98 140.94 58.54 137.65 C 64.73 140.74 71.03 144.11 77.98 145.00 C 86.23 145.71 94.37 143.10 101.69 139.50 C 103.08 140.92 104.48 142.33 105.88 143.75 C 103.63 146.64 101.58 149.90 98.13 151.52 C 96.71 151.23 95.30 150.85 93.91 150.46 C 92.23 148.98 90.77 145.77 88.10 146.54 C 81.61 147.70 75.16 145.87 68.67 146.43 C 68.44 146.05 67.98 145.30 67.76 144.92 C 65.89 147.32 64.23 150.01 61.67 151.73 C 58.87 153.38 55.61 153.88 52.51 154.69 C 52.48 155.17 52.42 156.15 52.38 156.64 C 50.97 157.84 49.51 159.01 48.00 160.10 C 47.54 160.08 46.63 160.02 46.17 159.99 C 46.02 158.19 45.87 156.39 45.72 154.58 C 48.46 152.81 51.69 151.49 53.72 148.85 Z" />
<path fill="#141b23" opacity="1.00" d=" M 60.91 162.47 C 65.02 162.93 69.00 161.70 72.27 159.22 C 71.41 161.06 70.53 162.90 69.71 164.76 C 68.05 165.58 66.38 166.36 64.74 167.22 C 63.59 165.54 62.22 164.03 60.91 162.47 Z" />
<path fill="#141b23" opacity="1.00" d=" M 65.29 170.84 C 66.31 170.75 67.33 170.66 68.36 170.58 C 66.08 175.61 62.97 180.18 59.73 184.62 C 56.56 184.88 52.81 185.25 51.05 181.98 C 54.50 181.56 58.18 181.14 61.10 179.06 C 63.77 177.19 64.58 173.83 65.29 170.84 Z" />
<path fill="#141b23" opacity="1.00" d=" M 68.10 187.54 C 70.51 187.30 72.91 187.05 75.31 186.79 C 73.15 187.50 71.03 188.31 68.92 189.14 C 68.64 188.61 68.37 188.07 68.10 187.54 Z" />
<path fill="#141b23" opacity="1.00" d=" M 79.80 186.79 C 81.84 186.81 83.88 186.77 85.92 186.78 L 85.86 187.64 C 85.71 189.98 85.24 192.29 85.03 194.64 C 91.67 196.24 98.51 196.59 105.32 196.43 C 106.35 197.65 107.03 199.67 109.00 199.35 C 115.42 199.65 121.88 198.95 128.29 199.81 L 128.27 200.83 C 128.19 202.87 127.87 204.90 127.89 206.95 C 119.51 206.27 110.55 208.42 102.68 204.69 C 107.17 203.14 111.75 201.86 116.32 200.56 C 112.06 200.01 107.84 199.26 103.62 198.51 C 96.42 197.13 89.20 199.12 81.98 199.20 C 81.42 197.98 80.85 196.76 80.29 195.55 C 81.67 194.93 83.05 194.31 84.43 193.70 C 84.33 191.87 84.23 190.05 84.13 188.22 C 82.69 187.73 81.25 187.23 79.80 186.79 Z" />
<path fill="#141b23" opacity="1.00" d=" M 71.83 195.25 C 71.23 196.51 70.64 197.77 70.05 199.03 C 60.58 198.41 51.15 200.08 41.68 200.33 C 46.25 201.68 50.86 202.96 55.33 204.65 C 52.75 205.86 50.01 206.86 47.11 206.75 C 41.09 206.75 35.07 206.91 29.09 207.56 C 29.04 205.37 28.99 203.19 28.94 201.00 L 28.92 199.88 C 38.15 198.55 47.52 200.18 56.76 198.96 C 56.64 198.49 56.41 197.55 56.29 197.08 C 61.54 197.48 66.83 196.93 71.83 195.25 Z" />
</g>
</svg>
