<?xml version="1.0" encoding="UTF-8" ?>
<!DOCTYPE svg PUBLIC "-//W3C//DTD SVG 1.1//EN" "http://www.w3.org/Graphics/SVG/1.1/DTD/svg11.dtd">
<svg width="155pt" height="210pt" viewBox="0 0 155 210" version="1.1" xmlns="http://www.w3.org/2000/svg">
<g id="#de9700ff">
<path fill="#de9700" opacity="1.00" d=" M 80.77 79.72 C 85.34 76.47 92.78 81.24 91.62 86.74 C 90.13 91.74 86.88 96.08 85.70 101.18 C 85.24 106.15 84.75 111.14 84.69 116.13 C 84.69 117.67 84.73 119.21 84.76 120.76 C 85.76 121.56 86.74 122.38 87.72 123.21 C 87.44 123.56 86.86 124.25 86.58 124.60 C 83.23 126.31 79.48 126.87 75.81 127.45 C 76.15 131.60 76.57 135.74 77.17 139.86 C 73.98 137.70 70.96 135.31 68.17 132.67 C 64.76 134.28 61.36 135.90 57.87 137.32 C 57.51 136.62 56.80 135.20 56.44 134.49 C 57.36 133.41 58.27 132.33 59.19 131.25 C 57.51 131.58 55.82 131.91 54.15 132.32 C 54.12 126.49 60.63 125.69 64.33 122.87 C 64.78 115.88 60.05 110.10 57.38 103.99 C 54.34 103.44 50.60 103.07 48.99 100.00 C 46.98 96.87 49.09 93.41 50.27 90.43 C 51.48 87.75 52.26 84.28 55.33 83.12 C 58.44 81.57 62.45 82.85 64.21 85.81 C 65.65 87.82 64.84 90.33 64.71 92.58 C 64.04 96.22 67.06 99.18 69.31 101.64 C 71.17 103.88 74.16 103.30 76.70 103.11 C 76.80 102.36 77.00 100.84 77.10 100.08 C 75.87 97.90 74.15 95.73 74.17 93.11 C 75.01 90.27 76.70 87.78 77.62 84.97 C 78.42 83.12 78.85 80.79 80.77 79.72 Z" />
<path fill="#de9700" opacity="1.00" d=" M 32.23 121.32 C 32.24 117.79 34.04 113.17 38.04 112.74 C 40.71 112.41 42.28 114.94 42.64 117.24 C 43.89 123.43 44.93 129.67 45.74 135.93 C 45.79 136.41 45.90 137.38 45.95 137.87 C 44.84 135.72 43.76 133.55 42.68 131.39 C 42.13 136.05 41.36 140.67 40.40 145.26 C 39.63 143.74 38.88 142.22 38.12 140.69 C 36.98 138.39 35.82 136.09 34.63 133.82 C 36.06 128.29 35.57 122.52 35.43 116.88 C 34.28 122.67 33.32 128.59 34.22 134.49 C 32.35 137.30 30.26 139.96 28.33 142.74 L 27.75 143.55 C 27.95 141.68 27.59 139.64 28.44 137.91 C 29.14 137.10 29.39 136.17 29.19 135.13 C 29.25 134.61 29.38 133.58 29.44 133.06 C 30.15 132.24 30.42 131.29 30.24 130.22 C 30.29 129.71 30.40 128.68 30.45 128.16 C 30.63 127.65 30.98 126.62 31.15 126.10 C 31.20 125.60 31.30 124.58 31.35 124.07 C 32.09 123.29 32.39 122.38 32.23 121.32 Z" />
<path fill="#de9700" opacity="1.00" d=" M 120.23 116.26 C 120.51 113.33 124.11 111.81 126.52 113.37 C 129.59 115.38 130.35 119.31 131.27 122.61 C 132.75 129.55 134.59 136.46 135.02 143.58 C 132.44 140.34 130.03 136.97 127.89 133.43 C 126.12 137.21 124.54 141.07 122.67 144.81 L 122.06 145.23 C 121.86 140.60 120.84 136.07 119.60 131.63 C 118.37 134.77 117.19 137.93 116.03 141.09 C 117.10 132.77 118.55 124.48 120.23 116.26 Z" />
</g>
<g id="#1b292fff">
<path fill="#1b292f" opacity="1.00" d=" M 84.69 116.13 C 87.08 121.17 93.37 120.01 97.54 122.48 C 99.39 123.39 100.13 125.45 101.10 127.13 C 96.71 125.60 92.21 124.41 87.72 123.21 C 86.74 122.38 85.76 121.56 84.76 120.76 C 84.73 119.21 84.69 117.67 84.69 116.13 Z" />
<path fill="#1b292f" opacity="1.00" d=" M 75.81 127.45 C 79.48 126.87 83.23 126.31 86.58 124.60 C 85.88 125.69 85.25 126.82 84.68 127.98 C 82.86 132.34 80.78 136.68 77.17 139.86 C 76.57 135.74 76.15 131.60 75.81 127.45 Z" />
<path fill="#1b292f" opacity="1.00" d=" M 40.40 145.26 C 41.36 140.67 42.13 136.05 42.68 131.39 C 43.76 133.55 44.84 135.72 45.95 137.87 C 45.90 137.38 45.79 136.41 45.74 135.93 C 46.29 138.02 46.82 140.11 47.33 142.21 C 47.56 143.18 47.78 144.15 48.00 145.12 C 50.69 141.48 53.51 137.94 56.44 134.49 C 56.80 135.20 57.51 136.62 57.87 137.32 C 55.96 140.23 54.50 143.47 54.34 146.99 C 54.03 151.91 52.50 156.67 52.25 161.58 C 53.22 163.27 54.65 164.62 55.95 166.06 C 55.54 168.56 54.92 171.11 55.30 173.66 C 55.85 175.76 57.09 177.58 58.14 179.46 C 56.37 180.72 54.58 181.96 52.72 183.08 C 45.45 184.12 37.93 184.51 30.73 182.80 C 32.17 182.42 33.61 182.04 35.05 181.67 C 38.28 172.47 38.48 162.63 38.52 152.99 C 38.54 148.62 37.53 144.34 36.28 140.18 C 36.74 140.31 37.66 140.56 38.12 140.69 C 38.88 142.22 39.63 143.74 40.40 145.26 Z" />
<path fill="#1b292f" opacity="1.00" d=" M 122.67 144.81 C 124.54 141.07 126.12 137.21 127.89 133.43 C 130.03 136.97 132.44 140.34 135.02 143.58 L 135.30 143.94 C 136.91 153.60 137.58 163.52 136.21 173.25 C 135.65 177.10 134.39 181.83 130.14 183.05 C 122.92 185.12 115.39 182.96 108.04 183.58 C 105.99 178.56 107.76 173.20 107.64 168.01 C 107.52 162.45 107.99 156.91 109.08 151.46 C 110.34 151.15 111.60 150.83 112.86 150.51 C 114.29 158.02 112.54 165.54 112.50 173.06 C 112.58 175.80 112.64 179.69 116.00 180.41 C 120.66 179.47 121.60 174.10 122.43 170.19 C 123.84 161.09 123.65 151.75 126.22 142.83 C 125.03 143.48 123.84 144.12 122.67 144.81 Z" />
<path fill="#1b292f" opacity="1.00" d=" M 69.67 158.30 C 71.08 160.27 73.03 161.99 73.66 164.41 C 74.51 167.02 74.05 169.78 73.84 172.45 C 71.96 167.88 70.99 163.04 69.67 158.30 Z" />
<path fill="#1b292f" opacity="1.00" d=" M 95.48 170.58 C 96.08 168.73 97.06 168.49 98.40 169.85 C 97.63 170.92 96.66 171.16 95.48 170.58 Z" />
<path fill="#1b292f" opacity="1.00" d=" M 65.14 170.11 C 66.77 169.59 67.33 170.14 66.83 171.77 C 65.21 172.28 64.64 171.73 65.14 170.11 Z" />
<path fill="#1b292f" opacity="1.00" d=" M 53.96 183.11 C 55.43 183.13 56.90 183.12 58.37 183.10 C 57.36 184.15 56.34 185.19 55.37 186.28 C 55.02 185.49 54.32 183.90 53.96 183.11 Z" />
<path fill="#1b292f" opacity="1.00" d=" M 101.81 183.62 C 103.97 183.96 106.13 184.32 108.31 184.62 C 108.11 186.16 107.90 187.69 107.69 189.22 C 105.94 188.30 104.13 187.49 102.34 186.67 C 102.20 185.91 101.94 184.38 101.81 183.62 Z" />
<path fill="#1b292f" opacity="1.00" d=" M 52.21 191.22 L 52.85 191.43 C 54.12 191.85 55.39 192.26 56.66 192.67 C 56.41 194.86 56.20 197.06 55.98 199.26 C 59.62 197.68 63.54 194.28 67.68 196.29 C 73.35 198.56 79.56 198.31 85.54 198.00 C 90.04 197.88 94.42 196.69 98.54 194.93 C 100.74 195.69 102.94 196.47 105.14 197.27 C 105.58 195.86 106.01 194.45 106.45 193.04 C 107.68 192.63 108.90 192.21 110.13 191.80 C 110.31 194.29 110.60 196.78 110.90 199.26 C 116.29 199.65 121.83 198.75 127.13 199.90 C 129.57 202.01 128.34 205.86 128.80 208.72 C 95.26 208.75 61.72 208.74 28.18 208.72 C 28.69 205.72 26.94 200.09 31.28 199.53 C 37.83 199.03 44.43 199.67 50.99 199.22 C 51.39 196.55 51.82 193.89 52.21 191.22 M 59.86 200.34 C 73.53 202.57 87.42 201.64 101.13 200.40 C 87.38 200.18 73.62 200.28 59.86 200.34 Z" />
</g>
<g id="#e7dfddff">
<path fill="#e7dfdd" opacity="1.00" d=" M 34.22 134.49 C 33.32 128.59 34.28 122.67 35.43 116.88 C 35.57 122.52 36.06 128.29 34.63 133.82 L 34.22 134.49 Z" />
<path fill="#e7dfdd" opacity="1.00" d=" M 31.35 124.07 C 30.25 122.71 30.54 121.79 32.23 121.32 C 32.39 122.38 32.09 123.29 31.35 124.07 Z" />
<path fill="#e7dfdd" opacity="1.00" d=" M 29.95 127.42 C 30.25 127.09 30.85 126.43 31.15 126.10 C 30.98 126.62 30.63 127.65 30.45 128.16 L 29.95 127.42 Z" />
<path fill="#e7dfdd" opacity="1.00" d=" M 77.17 139.86 C 80.78 136.68 82.86 132.34 84.68 127.98 C 88.63 128.93 92.51 130.13 96.35 131.47 C 96.31 138.00 97.12 144.79 101.35 150.05 C 102.82 149.00 104.29 147.96 105.77 146.93 C 103.12 151.41 100.15 155.69 97.17 159.96 C 97.24 156.62 97.59 153.14 96.36 149.95 C 95.36 147.39 93.91 145.03 92.59 142.63 C 91.98 146.12 91.77 149.86 89.83 152.94 C 88.37 155.27 86.54 157.32 84.84 159.46 C 88.13 158.81 91.41 158.12 94.68 157.35 C 91.43 163.88 88.65 170.68 87.55 177.94 C 87.09 182.58 81.79 183.67 78.48 185.80 C 82.57 186.95 87.21 187.11 90.69 189.75 C 89.21 192.64 87.28 195.27 85.54 198.00 C 79.56 198.31 73.35 198.56 67.68 196.29 C 63.54 194.28 59.62 197.68 55.98 199.26 C 56.20 197.06 56.41 194.86 56.66 192.67 C 55.39 192.26 54.12 191.85 52.85 191.43 C 55.60 189.06 57.99 186.05 61.37 184.56 C 63.56 184.43 65.71 184.99 67.86 185.30 C 67.01 183.74 66.23 182.13 65.17 180.69 C 63.01 179.60 60.49 179.70 58.14 179.46 C 57.09 177.58 55.85 175.76 55.30 173.66 C 54.92 171.11 55.54 168.56 55.95 166.06 C 54.65 164.62 53.22 163.27 52.25 161.58 C 52.50 156.67 54.03 151.91 54.34 146.99 C 54.50 143.47 55.96 140.23 57.87 137.32 C 61.36 135.90 64.76 134.28 68.17 132.67 C 70.96 135.31 73.98 137.70 77.17 139.86 M 61.89 152.74 C 63.32 156.26 64.36 160.62 68.14 162.35 C 67.69 158.28 65.20 154.98 61.89 152.74 M 69.67 158.30 C 70.99 163.04 71.96 167.88 73.84 172.45 C 74.05 169.78 74.51 167.02 73.66 164.41 C 73.03 161.99 71.08 160.27 69.67 158.30 M 65.14 170.11 C 64.64 171.73 65.21 172.28 66.83 171.77 C 67.33 170.14 66.77 169.59 65.14 170.11 Z" />
<path fill="#e7dfdd" opacity="1.00" d=" M 29.44 133.06 C 28.32 131.72 28.59 130.78 30.24 130.22 C 30.42 131.29 30.15 132.24 29.44 133.06 Z" />
<path fill="#e7dfdd" opacity="1.00" d=" M 54.15 132.32 C 55.82 131.91 57.51 131.58 59.19 131.25 C 58.27 132.33 57.36 133.41 56.44 134.49 C 53.51 137.94 50.69 141.48 48.00 145.12 C 47.78 144.15 47.56 143.18 47.33 142.21 C 49.63 138.95 50.35 134.30 54.15 132.32 Z" />
<path fill="#e7dfdd" opacity="1.00" d=" M 28.44 137.91 C 27.27 136.60 27.52 135.68 29.19 135.13 C 29.39 136.17 29.14 137.10 28.44 137.91 Z" />
<path fill="#e7dfdd" opacity="1.00" d=" M 98.40 169.85 C 99.59 168.62 102.69 165.66 103.52 168.46 C 104.37 172.77 99.52 176.55 95.43 175.62 C 93.22 174.58 93.53 171.78 92.95 169.80 C 93.58 169.99 94.85 170.39 95.48 170.58 C 96.66 171.16 97.63 170.92 98.40 169.85 Z" />
<path fill="#e7dfdd" opacity="1.00" d=" M 98.48 188.68 C 101.19 190.03 103.85 191.49 106.45 193.04 C 106.01 194.45 105.58 195.86 105.14 197.27 C 102.94 196.47 100.74 195.69 98.54 194.93 C 98.50 192.84 98.48 190.76 98.48 188.68 Z" />
</g>
<g id="#8d8371ff">
<path fill="#8d8371" opacity="1.00" d=" M 87.72 123.21 C 92.21 124.41 96.71 125.60 101.10 127.13 C 107.71 130.89 114.31 137.11 114.55 145.24 C 114.00 147.00 113.42 148.76 112.86 150.51 C 111.60 150.83 110.34 151.15 109.08 151.46 C 107.99 156.91 107.52 162.45 107.64 168.01 C 107.76 173.20 105.99 178.56 108.04 183.58 C 108.11 183.84 108.24 184.36 108.31 184.62 C 106.13 184.32 103.97 183.96 101.81 183.62 C 101.94 184.38 102.20 185.91 102.34 186.67 C 104.13 187.49 105.94 188.30 107.69 189.22 C 108.71 189.86 109.35 190.91 110.13 191.80 C 108.90 192.21 107.68 192.63 106.45 193.04 C 103.85 191.49 101.19 190.03 98.48 188.68 C 98.48 190.76 98.50 192.84 98.54 194.93 C 94.42 196.69 90.04 197.88 85.54 198.00 C 87.28 195.27 89.21 192.64 90.69 189.75 C 87.21 187.11 82.57 186.95 78.48 185.80 C 81.79 183.67 87.09 182.58 87.55 177.94 C 88.65 170.68 91.43 163.88 94.68 157.35 C 91.41 158.12 88.13 158.81 84.84 159.46 C 86.54 157.32 88.37 155.27 89.83 152.94 C 91.77 149.86 91.98 146.12 92.59 142.63 C 93.91 145.03 95.36 147.39 96.36 149.95 C 97.59 153.14 97.24 156.62 97.17 159.96 C 100.15 155.69 103.12 151.41 105.77 146.93 C 104.29 147.96 102.82 149.00 101.35 150.05 C 97.12 144.79 96.31 138.00 96.35 131.47 C 92.51 130.13 88.63 128.93 84.68 127.98 C 85.25 126.82 85.88 125.69 86.58 124.60 C 86.86 124.25 87.44 123.56 87.72 123.21 M 98.40 169.85 C 97.06 168.49 96.08 168.73 95.48 170.58 C 94.85 170.39 93.58 169.99 92.95 169.80 C 93.53 171.78 93.22 174.58 95.43 175.62 C 99.52 176.55 104.37 172.77 103.52 168.46 C 102.69 165.66 99.59 168.62 98.40 169.85 Z" />
<path fill="#8d8371" opacity="1.00" d=" M 61.89 152.74 C 65.20 154.98 67.69 158.28 68.14 162.35 C 64.36 160.62 63.32 156.26 61.89 152.74 Z" />
<path fill="#8d8371" opacity="1.00" d=" M 58.14 179.46 C 60.49 179.70 63.01 179.60 65.17 180.69 C 66.23 182.13 67.01 183.74 67.86 185.30 C 65.71 184.99 63.56 184.43 61.37 184.56 C 57.99 186.05 55.60 189.06 52.85 191.43 C 53.56 189.66 54.08 187.74 55.37 186.28 C 56.34 185.19 57.36 184.15 58.37 183.10 C 56.90 183.12 55.43 183.13 53.96 183.11 C 53.65 183.10 53.03 183.08 52.72 183.08 C 54.58 181.96 56.37 180.72 58.14 179.46 Z" />
<path fill="#8d8371" opacity="1.00" d=" M 59.86 200.34 C 73.62 200.28 87.38 200.18 101.13 200.40 C 87.42 201.64 73.53 202.57 59.86 200.34 Z" />
</g>
<g id="#2d758aff">
<path fill="#2d758a" opacity="1.00" d=" M 119.60 131.63 C 120.84 136.07 121.86 140.60 122.06 145.23 L 122.67 144.81 C 123.84 144.12 125.03 143.48 126.22 142.83 C 123.65 151.75 123.84 161.09 122.43 170.19 C 121.60 174.10 120.66 179.47 116.00 180.41 C 112.64 179.69 112.58 175.80 112.50 173.06 C 112.54 165.54 114.29 158.02 112.86 150.51 C 113.42 148.76 114.00 147.00 114.55 145.24 C 115.01 143.85 115.53 142.47 116.03 141.09 C 117.19 137.93 118.37 134.77 119.60 131.63 Z" />
<path fill="#2d758a" opacity="1.00" d=" M 34.22 134.49 L 34.63 133.82 C 35.82 136.09 36.98 138.39 38.12 140.69 C 37.66 140.56 36.74 140.31 36.28 140.18 C 37.53 144.34 38.54 148.62 38.52 152.99 C 38.48 162.63 38.28 172.47 35.05 181.67 C 33.61 182.04 32.17 182.42 30.73 182.80 C 29.14 180.72 27.33 178.64 26.85 175.98 C 25.01 167.44 25.28 158.59 26.33 149.96 C 26.69 147.50 26.91 144.87 28.33 142.74 C 30.26 139.96 32.35 137.30 34.22 134.49 Z" />
</g>
</svg>
