<?xml version="1.0" encoding="UTF-8" ?>
<!DOCTYPE svg PUBLIC "-//W3C//DTD SVG 1.1//EN" "http://www.w3.org/Graphics/SVG/1.1/DTD/svg11.dtd">
<svg width="155pt" height="210pt" viewBox="0 0 155 210" version="1.1" xmlns="http://www.w3.org/2000/svg">
<g id="#aeaa61fd">
<path fill="#aeaa61" opacity="1.00" d=" M 52.19 26.79 C 52.39 20.30 61.19 20.60 65.36 23.13 C 64.61 24.83 63.82 26.51 63.02 28.18 C 59.74 27.83 56.45 27.46 53.19 26.94 L 52.19 26.79 Z" />
<path fill="#aeaa61" opacity="1.00" d=" M 124.92 37.99 C 129.18 36.81 133.58 37.55 137.56 39.34 C 137.66 42.19 137.73 45.05 137.79 47.90 C 134.39 43.54 129.89 40.33 124.92 37.99 Z" />
<path fill="#aeaa61" opacity="1.00" d=" M 63.84 42.44 C 73.93 36.12 87.52 35.38 97.98 41.21 C 102.13 43.32 105.44 46.62 108.68 49.88 C 110.97 52.10 113.43 54.15 115.58 56.51 C 116.04 57.54 116.48 58.59 116.91 59.64 C 116.07 64.20 115.56 68.85 116.08 73.48 C 118.12 70.17 119.00 66.34 119.09 62.48 C 120.03 61.88 120.97 61.29 121.92 60.70 C 122.15 62.69 122.30 64.68 122.39 66.67 C 121.48 70.80 120.44 74.93 118.77 78.83 C 117.18 78.85 115.60 78.88 114.01 78.90 C 114.17 77.30 114.31 75.70 114.45 74.10 C 111.49 74.03 108.57 74.59 105.90 75.86 C 99.80 78.62 92.94 78.11 86.51 79.51 C 78.79 81.16 70.59 81.42 63.05 78.81 C 60.12 77.70 56.86 76.64 54.81 74.14 C 52.41 68.99 53.00 62.92 54.54 57.61 C 56.26 51.89 58.77 45.97 63.84 42.44 Z" />
<path fill="#aeaa61" opacity="1.00" d=" M 53.16 46.40 C 54.42 46.64 55.69 46.89 56.96 47.14 C 54.19 53.82 51.53 60.54 48.85 67.25 C 48.61 62.80 48.89 58.32 49.94 53.98 C 50.65 51.32 51.94 48.86 53.16 46.40 Z" />
<path fill="#aeaa61" opacity="1.00" d=" M 24.11 53.28 C 25.32 53.31 26.54 53.33 27.76 53.35 C 29.89 56.52 30.48 60.30 30.73 64.04 C 30.65 68.15 35.34 69.79 36.37 73.46 C 37.56 77.59 38.05 81.95 40.05 85.82 C 41.41 88.41 41.81 91.32 41.65 94.21 C 38.90 90.11 37.60 85.27 35.28 80.94 C 32.03 74.77 31.70 67.32 27.30 61.73 C 25.30 59.33 24.15 56.42 24.11 53.28 Z" />
<path fill="#aeaa61" opacity="1.00" d=" M 71.66 86.05 C 74.79 82.47 79.84 82.52 84.20 82.12 C 84.05 82.75 83.75 84.02 83.60 84.66 C 79.81 86.11 75.67 86.30 71.66 86.05 Z" />
<path fill="#aeaa61" opacity="1.00" d=" M 70.24 91.42 C 82.95 86.37 97.08 84.29 110.60 87.00 C 113.31 89.47 116.01 91.95 118.73 94.41 C 120.09 95.65 121.44 96.90 122.78 98.17 C 123.84 99.18 124.89 100.21 125.95 101.23 C 127.51 102.75 129.08 104.26 130.68 105.75 C 134.01 108.77 137.33 111.81 140.32 115.18 C 139.22 116.72 138.08 118.24 136.94 119.76 C 133.89 116.87 131.10 113.71 128.56 110.37 C 123.85 110.43 119.10 111.18 114.41 110.55 C 111.63 108.74 110.26 105.45 107.57 103.54 C 105.02 102.94 102.37 103.04 99.76 102.94 C 98.50 99.46 97.87 95.58 100.39 92.49 C 99.31 90.94 98.21 89.40 97.11 87.88 C 97.16 94.63 98.59 101.25 99.23 107.95 C 96.40 107.59 93.59 107.16 90.79 106.64 C 90.45 103.99 90.09 101.35 89.69 98.71 C 88.99 101.44 88.34 104.19 87.71 106.93 C 81.21 107.27 74.72 107.55 68.22 107.70 C 66.80 104.53 63.74 102.80 60.94 101.02 C 63.18 97.13 65.75 92.96 70.24 91.42 Z" />
<path fill="#aeaa61" opacity="1.00" d=" M 67.63 114.55 C 68.28 112.71 68.84 110.85 69.32 108.96 C 69.40 113.50 70.80 118.76 75.57 120.42 C 79.48 122.45 83.25 119.76 86.71 118.15 L 87.67 118.41 C 85.35 121.17 82.36 124.28 78.37 123.53 C 73.15 123.19 70.29 118.39 67.63 114.55 Z" />
<path fill="#aeaa61" opacity="1.00" d=" M 44.47 110.25 C 45.28 111.26 46.05 112.30 46.76 113.39 C 45.30 115.72 43.97 118.13 42.83 120.63 C 42.61 121.10 42.17 122.05 41.95 122.52 C 41.02 121.80 40.28 120.95 39.73 119.96 C 41.12 116.63 43.07 113.57 44.47 110.25 Z" />
<path fill="#aeaa61" opacity="1.00" d=" M 123.05 113.61 C 126.38 114.83 128.97 117.26 131.16 119.98 C 129.19 120.72 127.22 121.45 125.25 122.20 C 123.82 119.56 123.23 116.59 123.05 113.61 Z" />
<path fill="#aeaa61" opacity="1.00" d=" M 97.21 119.09 C 99.08 119.99 100.90 121.20 103.00 121.45 C 105.47 121.00 107.87 120.22 110.37 119.93 C 107.92 123.64 103.52 124.22 99.42 123.88 C 98.69 122.28 97.95 120.68 97.21 119.09 Z" />
<path fill="#aeaa61" opacity="1.00" d=" M 39.35 129.20 C 40.23 126.92 43.11 128.17 44.96 127.96 C 44.76 132.28 45.10 137.22 49.04 139.88 C 50.11 141.13 52.00 142.12 51.97 143.99 C 52.10 145.95 50.18 147.04 48.96 148.24 C 47.00 149.75 44.94 151.15 43.10 152.82 C 42.42 148.69 41.47 144.59 39.92 140.69 C 39.99 145.64 40.49 150.58 41.35 155.47 C 39.72 158.63 37.15 161.09 34.11 162.89 C 31.54 164.49 30.51 167.51 28.65 169.77 C 26.69 170.49 25.89 168.12 25.07 166.82 C 22.57 161.23 23.11 154.59 25.25 148.98 C 25.93 148.20 26.20 147.30 26.08 146.28 C 26.19 145.90 26.43 145.13 26.55 144.74 C 29.73 143.46 33.26 143.55 36.47 142.37 C 37.86 140.69 39.01 138.79 39.77 136.74 C 40.12 134.22 39.31 131.72 39.35 129.20 Z" />
<path fill="#aeaa61" opacity="1.00" d=" M 109.79 148.18 C 110.37 145.64 110.97 143.10 111.63 140.58 C 113.96 145.20 115.75 150.12 116.81 155.18 C 117.35 158.89 114.95 162.02 112.92 164.85 C 111.28 164.10 109.63 163.37 107.95 162.73 C 107.21 160.43 105.73 158.02 106.37 155.54 C 107.52 153.73 109.20 152.36 110.73 150.89 C 109.28 150.77 107.84 150.66 106.39 150.55 C 106.67 150.04 107.25 149.02 107.53 148.51 C 108.28 148.40 109.04 148.28 109.79 148.18 Z" />
<path fill="#aeaa61" opacity="1.00" d=" M 78.04 152.88 C 84.14 149.35 90.72 146.59 97.58 144.90 C 98.13 144.83 99.24 144.69 99.79 144.62 C 101.60 145.25 103.38 145.96 105.09 146.82 C 98.13 146.87 91.75 150.01 86.16 153.92 L 85.68 154.12 C 86.48 157.85 86.73 161.67 86.49 165.48 C 84.51 163.30 83.26 160.61 82.38 157.83 C 82.82 156.81 83.27 155.81 83.74 154.81 C 79.71 155.77 75.66 156.66 71.60 157.45 C 73.67 155.83 75.78 154.25 78.04 152.88 Z" />
<path fill="#aeaa61" opacity="1.00" d=" M 98.07 150.12 C 99.33 150.46 100.60 150.81 101.86 151.17 C 101.06 153.13 100.10 155.07 98.31 156.31 C 98.18 154.25 98.11 152.18 98.07 150.12 Z" />
<path fill="#aeaa61" opacity="1.00" d=" M 67.66 159.03 C 70.79 158.90 73.92 158.84 77.05 158.94 C 74.54 161.61 72.03 165.67 67.77 164.71 C 68.51 163.65 69.25 162.60 70.00 161.56 C 69.22 160.72 68.44 159.87 67.66 159.03 Z" />
</g>
<g id="#252a1ffd">
<path fill="#252a1f" opacity="1.00" d=" M 53.19 26.94 C 56.45 27.46 59.74 27.83 63.02 28.18 C 63.32 32.93 63.42 37.70 63.84 42.44 C 58.77 45.97 56.26 51.89 54.54 57.61 C 53.00 62.92 52.41 68.99 54.81 74.14 C 56.86 76.64 60.12 77.70 63.05 78.81 C 70.59 81.42 78.79 81.16 86.51 79.51 C 92.94 78.11 99.80 78.62 105.90 75.86 C 108.57 74.59 111.49 74.03 114.45 74.10 C 114.31 75.70 114.17 77.30 114.01 78.90 C 115.60 78.88 117.18 78.85 118.77 78.83 C 115.63 81.11 111.76 82.95 110.60 87.00 C 97.08 84.29 82.95 86.37 70.24 91.42 C 65.75 92.96 63.18 97.13 60.94 101.02 C 63.74 102.80 66.80 104.53 68.22 107.70 C 74.72 107.55 81.21 107.27 87.71 106.93 C 88.34 104.19 88.99 101.44 89.69 98.71 C 90.09 101.35 90.45 103.99 90.79 106.64 C 93.59 107.16 96.40 107.59 99.23 107.95 C 98.59 101.25 97.16 94.63 97.11 87.88 C 98.21 89.40 99.31 90.94 100.39 92.49 C 97.87 95.58 98.50 99.46 99.76 102.94 C 102.37 103.04 105.02 102.94 107.57 103.54 C 110.26 105.45 111.63 108.74 114.41 110.55 C 119.10 111.18 123.85 110.43 128.56 110.37 C 131.10 113.71 133.89 116.87 136.94 119.76 C 133.10 120.83 129.18 121.57 125.25 122.20 C 127.22 121.45 129.19 120.72 131.16 119.98 C 128.97 117.26 126.38 114.83 123.05 113.61 C 123.23 116.59 123.82 119.56 125.25 122.20 L 125.52 122.78 C 124.20 122.92 122.88 123.07 121.56 123.22 C 121.74 127.61 122.06 133.12 117.67 135.68 C 114.62 138.10 110.83 136.37 107.76 135.00 C 106.48 135.85 105.20 136.72 103.94 137.60 C 106.01 137.97 108.10 138.31 110.19 138.60 C 107.12 138.79 103.75 138.27 100.95 139.80 C 100.00 141.19 100.14 143.02 99.79 144.62 C 99.24 144.69 98.13 144.83 97.58 144.90 C 96.51 143.27 95.97 140.97 94.00 140.17 C 90.00 138.57 85.66 138.09 81.44 137.35 C 78.00 141.78 77.75 147.50 78.04 152.88 C 75.78 154.25 73.67 155.83 71.60 157.45 C 75.66 156.66 79.71 155.77 83.74 154.81 C 83.27 155.81 82.82 156.81 82.38 157.83 C 81.18 161.09 81.13 164.60 81.25 168.03 C 74.26 171.94 66.35 173.66 59.10 176.97 C 57.21 177.76 55.81 179.27 54.41 180.70 C 62.14 184.03 70.69 184.62 79.01 184.74 C 87.38 184.58 95.86 184.09 103.92 181.64 C 103.51 179.78 103.10 177.91 102.69 176.05 C 93.54 181.46 82.35 181.80 72.12 180.08 C 76.15 177.25 80.53 174.90 85.13 173.14 C 88.91 171.65 93.04 172.58 96.96 172.84 C 96.71 170.32 97.41 167.38 96.00 165.17 C 93.51 163.48 90.61 162.09 89.79 158.89 C 94.72 156.55 99.03 161.25 104.05 160.39 C 104.97 156.72 105.30 152.93 104.89 149.16 C 102.51 149.02 99.95 148.42 97.73 149.62 C 94.04 151.49 90.23 153.11 86.16 153.92 C 91.75 150.01 98.13 146.87 105.09 146.82 C 105.91 147.37 106.72 147.93 107.53 148.51 C 107.25 149.02 106.67 150.04 106.39 150.55 C 107.84 150.66 109.28 150.77 110.73 150.89 C 109.20 152.36 107.52 153.73 106.37 155.54 C 105.73 158.02 107.21 160.43 107.95 162.73 C 105.16 165.28 101.54 166.35 97.81 166.29 C 97.65 168.63 97.52 170.96 97.37 173.30 C 104.35 176.44 112.71 175.99 118.77 181.24 C 118.86 184.03 118.82 186.83 118.66 189.63 C 110.37 194.13 100.70 194.48 91.52 195.40 C 79.35 195.84 67.08 196.10 54.99 194.36 C 49.49 193.57 43.71 193.02 38.77 190.27 C 36.57 189.11 37.20 186.10 37.12 184.04 C 36.99 181.31 39.32 179.55 41.48 178.43 C 43.48 177.24 45.68 176.32 47.39 174.72 C 48.10 172.43 47.91 169.96 48.63 167.67 C 50.26 164.44 54.10 163.00 55.78 159.86 C 56.91 154.71 52.50 151.10 48.96 148.24 C 50.18 147.04 52.10 145.95 51.97 143.99 C 52.00 142.12 50.11 141.13 49.04 139.88 C 50.94 139.47 52.85 139.06 54.76 138.65 C 54.78 134.72 54.99 130.54 52.99 126.99 C 51.24 123.82 49.09 120.77 48.57 117.10 C 53.95 121.12 58.16 126.57 63.97 130.05 C 68.20 132.56 72.32 135.54 77.12 136.83 C 77.47 136.64 78.18 136.25 78.53 136.06 C 75.43 129.11 69.50 124.04 65.00 118.03 C 59.70 112.01 56.18 104.74 53.14 97.38 C 54.63 95.10 57.14 92.73 56.29 89.72 C 55.12 84.51 49.74 82.02 46.01 78.80 C 43.80 71.79 40.39 64.17 43.45 56.87 C 44.62 57.81 45.79 58.76 46.97 59.71 C 47.94 57.79 48.93 55.88 49.94 53.98 C 48.89 58.32 48.61 62.80 48.85 67.25 C 51.53 60.54 54.19 53.82 56.96 47.14 C 55.69 46.89 54.42 46.64 53.16 46.40 C 56.55 40.31 54.32 33.33 53.19 26.94 M 71.66 86.05 C 75.67 86.30 79.81 86.11 83.60 84.66 C 83.75 84.02 84.05 82.75 84.20 82.12 C 79.84 82.52 74.79 82.47 71.66 86.05 M 91.33 108.42 C 90.21 109.48 89.47 111.59 87.64 111.38 C 82.99 111.17 78.24 110.26 73.75 112.01 C 77.04 115.82 82.24 116.49 86.71 118.15 C 83.25 119.76 79.48 122.45 75.57 120.42 C 70.80 118.76 69.40 113.50 69.32 108.96 C 68.84 110.85 68.28 112.71 67.63 114.55 C 66.88 118.82 70.24 122.26 72.33 125.63 C 74.59 129.44 79.13 130.36 82.97 131.81 C 83.95 133.47 84.64 136.08 87.09 135.80 C 91.08 136.39 93.71 133.01 96.19 130.49 C 99.87 131.87 103.97 131.69 107.09 129.10 C 111.11 126.12 116.78 121.31 114.19 115.75 C 112.91 117.14 111.67 118.56 110.37 119.93 C 107.87 120.22 105.47 121.00 103.00 121.45 C 100.90 121.20 99.08 119.99 97.21 119.09 C 100.53 117.62 104.21 117.06 107.38 115.22 C 104.08 113.85 100.54 113.30 97.06 112.59 C 94.52 112.30 92.99 110.09 91.33 108.42 M 67.66 159.03 C 68.44 159.87 69.22 160.72 70.00 161.56 C 69.25 162.60 68.51 163.65 67.77 164.71 C 72.03 165.67 74.54 161.61 77.05 158.94 C 73.92 158.84 70.79 158.90 67.66 159.03 Z" />
<path fill="#252a1f" opacity="1.00" d=" M 108.68 49.88 C 113.12 50.27 117.74 49.79 122.04 51.14 C 126.56 53.60 126.71 59.43 126.78 63.95 C 126.61 75.43 126.15 87.11 122.78 98.17 C 121.44 96.90 120.09 95.65 118.73 94.41 C 120.97 85.36 123.40 76.09 122.39 66.67 C 122.30 64.68 122.15 62.69 121.92 60.70 C 121.52 59.60 121.13 58.48 120.51 57.49 C 119.03 56.62 117.22 56.75 115.58 56.51 C 113.43 54.15 110.97 52.10 108.68 49.88 Z" />
<path fill="#252a1f" opacity="1.00" d=" M 116.91 59.64 C 117.62 60.60 118.35 61.54 119.09 62.48 C 119.00 66.34 118.12 70.17 116.08 73.48 C 115.56 68.85 116.07 64.20 116.91 59.64 Z" />
<path fill="#252a1f" opacity="1.00" d=" M 125.95 101.23 C 127.99 98.08 130.11 94.97 132.33 91.93 C 132.58 94.43 132.83 96.94 133.08 99.45 C 134.79 99.77 136.49 100.10 138.19 100.43 C 135.49 101.91 132.90 103.61 130.68 105.75 C 129.08 104.26 127.51 102.75 125.95 101.23 Z" />
<path fill="#252a1f" opacity="1.00" d=" M 42.83 120.63 C 43.97 118.13 45.30 115.72 46.76 113.39 C 48.04 116.22 47.20 119.28 46.35 122.09 C 45.18 121.59 44.00 121.11 42.83 120.63 Z" />
<path fill="#252a1f" opacity="1.00" d=" M 39.92 140.69 C 41.47 144.59 42.42 148.69 43.10 152.82 C 42.50 153.69 41.91 154.57 41.35 155.47 C 40.49 150.58 39.99 145.64 39.92 140.69 Z" />
</g>
<g id="#1e7364e8">
<path fill="#1e7364" opacity="0.91" d=" M 97.98 41.21 C 109.57 35.17 122.85 31.82 135.92 33.93 C 139.97 34.62 143.60 37.86 144.11 42.05 C 145.14 49.35 143.36 56.69 144.01 64.01 C 144.29 72.79 145.37 81.75 143.38 90.40 C 142.51 94.12 140.83 97.64 138.19 100.43 C 136.49 100.10 134.79 99.77 133.08 99.45 C 132.83 96.94 132.58 94.43 132.33 91.93 C 130.11 94.97 127.99 98.08 125.95 101.23 C 124.89 100.21 123.84 99.18 122.78 98.17 C 126.15 87.11 126.61 75.43 126.78 63.95 C 126.71 59.43 126.56 53.60 122.04 51.14 C 117.74 49.79 113.12 50.27 108.68 49.88 C 105.44 46.62 102.13 43.32 97.98 41.21 M 124.92 37.99 C 129.89 40.33 134.39 43.54 137.79 47.90 C 137.73 45.05 137.66 42.19 137.56 39.34 C 133.58 37.55 129.18 36.81 124.92 37.99 Z" />
<path fill="#1e7364" opacity="0.91" d=" M 16.92 49.15 C 18.97 42.58 28.95 40.07 33.49 45.50 C 36.88 49.05 40.64 52.25 43.68 56.12 L 43.45 56.87 C 40.39 64.17 43.80 71.79 46.01 78.80 C 48.06 85.11 50.37 91.34 53.14 97.38 C 56.18 104.74 59.70 112.01 65.00 118.03 C 69.50 124.04 75.43 129.11 78.53 136.06 C 78.18 136.25 77.47 136.64 77.12 136.83 C 72.32 135.54 68.20 132.56 63.97 130.05 C 58.16 126.57 53.95 121.12 48.57 117.10 C 49.09 120.77 51.24 123.82 52.99 126.99 C 54.99 130.54 54.78 134.72 54.76 138.65 C 52.85 139.06 50.94 139.47 49.04 139.88 C 45.10 137.22 44.76 132.28 44.96 127.96 C 45.18 125.95 45.80 124.02 46.35 122.09 C 47.20 119.28 48.04 116.22 46.76 113.39 C 46.05 112.30 45.28 111.26 44.47 110.25 C 42.10 106.81 38.20 104.73 35.96 101.23 C 31.93 90.92 25.34 81.79 21.73 71.29 C 20.28 66.93 19.37 62.40 17.90 58.05 C 17.04 55.19 15.91 52.11 16.92 49.15 M 24.11 53.28 C 24.15 56.42 25.30 59.33 27.30 61.73 C 31.70 67.32 32.03 74.77 35.28 80.94 C 37.60 85.27 38.90 90.11 41.65 94.21 C 41.81 91.32 41.41 88.41 40.05 85.82 C 38.05 81.95 37.56 77.59 36.37 73.46 C 35.34 69.79 30.65 68.15 30.73 64.04 C 30.48 60.30 29.89 56.52 27.76 53.35 C 26.54 53.33 25.32 53.31 24.11 53.28 Z" />
<path fill="#1e7364" opacity="0.91" d=" M 91.33 108.42 C 92.99 110.09 94.52 112.30 97.06 112.59 C 100.54 113.30 104.08 113.85 107.38 115.22 C 104.21 117.06 100.53 117.62 97.21 119.09 C 97.95 120.68 98.69 122.28 99.42 123.88 C 103.52 124.22 107.92 123.64 110.37 119.93 C 111.67 118.56 112.91 117.14 114.19 115.75 C 116.78 121.31 111.11 126.12 107.09 129.10 C 103.97 131.69 99.87 131.87 96.19 130.49 C 93.71 133.01 91.08 136.39 87.09 135.80 C 84.64 136.08 83.95 133.47 82.97 131.81 C 79.13 130.36 74.59 129.44 72.33 125.63 C 70.24 122.26 66.88 118.82 67.63 114.55 C 70.29 118.39 73.15 123.19 78.37 123.53 C 82.36 124.28 85.35 121.17 87.67 118.41 L 86.71 118.15 C 82.24 116.49 77.04 115.82 73.75 112.01 C 78.24 110.26 82.99 111.17 87.64 111.38 C 89.47 111.59 90.21 109.48 91.33 108.42 Z" />
<path fill="#1e7364" opacity="0.91" d=" M 81.44 137.35 C 85.66 138.09 90.00 138.57 94.00 140.17 C 95.97 140.97 96.51 143.27 97.58 144.90 C 90.72 146.59 84.14 149.35 78.04 152.88 C 77.75 147.50 78.00 141.78 81.44 137.35 Z" />
<path fill="#1e7364" opacity="0.91" d=" M 100.95 139.80 C 103.75 138.27 107.12 138.79 110.19 138.60 C 110.60 138.92 111.41 139.56 111.81 139.88 L 111.63 140.58 C 110.97 143.10 110.37 145.64 109.79 148.18 C 109.04 148.28 108.28 148.40 107.53 148.51 C 106.72 147.93 105.91 147.37 105.09 146.82 C 103.38 145.96 101.60 145.25 99.79 144.62 C 100.14 143.02 100.00 141.19 100.95 139.80 Z" />
<path fill="#1e7364" opacity="0.91" d=" M 25.25 148.98 C 24.07 147.61 24.35 146.71 26.08 146.28 C 26.20 147.30 25.93 148.20 25.25 148.98 Z" />
<path fill="#1e7364" opacity="0.91" d=" M 43.10 152.82 C 44.94 151.15 47.00 149.75 48.96 148.24 C 52.50 151.10 56.91 154.71 55.78 159.86 C 54.10 163.00 50.26 164.44 48.63 167.67 C 47.91 169.96 48.10 172.43 47.39 174.72 C 45.68 176.32 43.48 177.24 41.48 178.43 C 38.18 173.96 37.12 168.46 36.85 163.03 C 36.16 163.00 34.80 162.92 34.11 162.89 C 37.15 161.09 39.72 158.63 41.35 155.47 C 41.91 154.57 42.50 153.69 43.10 152.82 Z" />
<path fill="#1e7364" opacity="0.91" d=" M 97.73 149.62 C 99.95 148.42 102.51 149.02 104.89 149.16 C 105.30 152.93 104.97 156.72 104.05 160.39 C 99.03 161.25 94.72 156.55 89.79 158.89 C 90.61 162.09 93.51 163.48 96.00 165.17 C 97.41 167.38 96.71 170.32 96.96 172.84 C 93.04 172.58 88.91 171.65 85.13 173.14 C 80.53 174.90 76.15 177.25 72.12 180.08 C 82.35 181.80 93.54 181.46 102.69 176.05 C 103.10 177.91 103.51 179.78 103.92 181.64 C 95.86 184.09 87.38 184.58 79.01 184.74 C 70.69 184.62 62.14 184.03 54.41 180.70 C 55.81 179.27 57.21 177.76 59.10 176.97 C 66.35 173.66 74.26 171.94 81.25 168.03 C 81.13 164.60 81.18 161.09 82.38 157.83 C 83.26 160.61 84.51 163.30 86.49 165.48 C 86.73 161.67 86.48 157.85 85.68 154.12 L 86.16 153.92 C 90.23 153.11 94.04 151.49 97.73 149.62 M 98.07 150.12 C 98.11 152.18 98.18 154.25 98.31 156.31 C 100.10 155.07 101.06 153.13 101.86 151.17 C 100.60 150.81 99.33 150.46 98.07 150.12 Z" />
</g>
</svg>
