<?xml version="1.0" encoding="UTF-8" ?>
<!DOCTYPE svg PUBLIC "-//W3C//DTD SVG 1.1//EN" "http://www.w3.org/Graphics/SVG/1.1/DTD/svg11.dtd">
<svg width="155pt" height="210pt" viewBox="0 0 155 210" version="1.1" xmlns="http://www.w3.org/2000/svg">
<g id="#d5aa53ff">
<path fill="#d5aa53" opacity="1.00" d=" M 76.74 76.77 C 78.65 76.23 80.55 75.54 82.55 75.44 C 87.22 78.43 90.55 83.03 94.44 86.91 C 99.60 84.60 104.14 80.48 109.88 79.79 C 113.47 81.77 114.50 86.08 116.21 89.50 C 119.13 87.43 121.80 84.92 125.07 83.40 C 126.62 83.66 128.08 84.31 129.56 84.82 C 127.34 87.51 124.83 89.95 122.83 92.80 C 119.83 97.17 118.50 102.36 116.84 107.31 C 115.25 106.49 113.64 105.72 112.05 104.93 C 110.80 101.61 108.07 99.53 104.63 98.92 C 103.28 95.22 103.24 89.36 98.46 88.43 C 94.79 87.54 91.11 86.53 87.83 84.62 C 88.12 85.71 88.41 86.81 88.71 87.91 C 85.17 87.44 81.63 86.91 78.10 86.37 C 77.82 84.51 77.53 82.66 77.27 80.80 C 77.08 79.45 76.90 78.11 76.74 76.77 Z" />
<path fill="#d5aa53" opacity="1.00" d=" M 44.29 116.21 C 47.42 115.50 50.55 114.81 53.70 114.20 C 53.20 115.40 53.45 117.32 51.87 117.71 C 49.42 118.55 46.81 118.68 44.26 119.01 C 44.27 118.31 44.28 116.91 44.29 116.21 Z" />
<path fill="#d5aa53" opacity="1.00" d=" M 98.49 116.41 C 102.97 113.75 108.80 112.45 113.54 115.20 C 108.61 116.34 103.55 116.89 98.49 116.41 Z" />
<path fill="#d5aa53" opacity="1.00" d=" M 100.27 168.52 C 105.81 167.01 109.45 162.62 113.03 158.48 C 113.18 162.51 111.50 166.79 107.67 168.60 C 105.24 169.14 102.73 168.62 100.27 168.52 Z" />
</g>
<g id="#7f622eff">
<path fill="#7f622e" opacity="1.00" d=" M 77.27 80.80 C 77.53 82.66 77.82 84.51 78.10 86.37 C 81.63 86.91 85.17 87.44 88.71 87.91 C 88.41 86.81 88.12 85.71 87.83 84.62 C 91.11 86.53 94.79 87.54 98.46 88.43 C 103.24 89.36 103.28 95.22 104.63 98.92 C 108.07 99.53 110.80 101.61 112.05 104.93 C 102.77 106.56 93.29 106.18 83.98 107.62 C 86.36 104.36 87.57 100.50 88.15 96.55 C 85.04 96.43 81.93 96.34 78.82 96.27 C 79.15 100.57 80.11 105.09 83.98 107.62 C 81.73 107.82 79.46 107.95 77.21 108.13 C 77.11 99.02 76.81 89.90 77.27 80.80 Z" />
<path fill="#7f622e" opacity="1.00" d=" M 59.34 161.95 C 59.92 161.58 61.09 160.85 61.67 160.49 C 64.24 161.04 66.80 161.62 69.39 162.03 C 67.89 162.76 66.45 163.66 64.84 164.14 C 62.77 164.27 61.13 162.74 59.34 161.95 Z" />
<path fill="#7f622e" opacity="1.00" d=" M 47.51 163.66 C 49.99 166.27 52.06 169.25 53.79 172.41 C 50.47 170.29 47.25 168.04 44.09 165.70 C 45.23 165.01 46.37 164.33 47.51 163.66 Z" />
</g>
<g id="#4c212afe">
<path fill="#4c212a" opacity="1.00" d=" M 78.82 96.27 C 81.93 96.34 85.04 96.43 88.15 96.55 C 87.57 100.50 86.36 104.36 83.98 107.62 C 80.11 105.09 79.15 100.57 78.82 96.27 Z" />
<path fill="#4c212a" opacity="1.00" d=" M 94.22 156.83 C 94.69 155.54 95.32 154.32 95.90 153.09 C 98.15 154.85 102.02 156.38 101.40 159.88 C 100.90 163.78 96.03 164.90 93.14 162.78 C 93.16 160.75 93.62 158.76 94.22 156.83 M 98.20 160.30 C 97.77 161.71 98.25 162.18 99.65 161.70 C 100.08 160.29 99.59 159.82 98.20 160.30 Z" />
<path fill="#4c212a" opacity="1.00" d=" M 62.33 155.51 C 63.58 155.19 64.84 154.87 66.10 154.56 C 67.43 156.94 68.80 159.29 70.21 161.63 L 69.39 162.03 C 66.80 161.62 64.24 161.04 61.67 160.49 C 61.89 158.83 62.10 157.17 62.33 155.51 Z" />
<path fill="#4c212a" opacity="1.00" d=" M 38.10 161.25 C 41.27 161.91 44.45 162.58 47.51 163.66 C 46.37 164.33 45.23 165.01 44.09 165.70 C 47.25 168.04 50.47 170.29 53.79 172.41 C 52.67 173.47 51.72 175.25 49.91 175.04 C 44.59 175.16 39.94 172.18 35.76 169.21 C 36.39 166.51 37.17 163.85 38.10 161.25 Z" />
<path fill="#4c212a" opacity="1.00" d=" M 123.45 163.41 C 126.06 165.22 130.52 166.83 129.71 170.78 C 128.19 174.57 125.73 177.98 124.91 182.06 C 125.14 180.25 125.32 178.45 125.51 176.65 C 119.98 177.37 114.37 177.28 108.94 175.97 C 110.97 169.17 117.95 166.71 123.45 163.41 Z" />
</g>
<g id="#e3ac02ff">
<path fill="#e3ac02" opacity="1.00" d=" M 83.98 107.62 C 93.29 106.18 102.77 106.56 112.05 104.93 C 113.64 105.72 115.25 106.49 116.84 107.31 C 121.17 109.30 122.71 114.51 122.30 118.94 C 120.51 133.70 121.43 148.71 123.45 163.41 C 117.95 166.71 110.97 169.17 108.94 175.97 C 114.37 177.28 119.98 177.37 125.51 176.65 C 125.32 178.45 125.14 180.25 124.91 182.06 C 124.51 186.34 122.17 190.43 118.74 193.01 C 116.61 193.85 114.24 193.61 112.00 193.72 C 89.31 193.70 66.62 193.80 43.94 193.55 C 40.08 193.64 37.76 189.94 35.97 187.04 C 32.80 181.52 34.82 175.04 35.76 169.21 C 39.94 172.18 44.59 175.16 49.91 175.04 C 51.72 175.25 52.67 173.47 53.79 172.41 C 52.06 169.25 49.99 166.27 47.51 163.66 C 44.45 162.58 41.27 161.91 38.10 161.25 C 39.25 151.54 39.09 141.67 37.73 131.99 C 37.22 126.80 36.99 121.20 39.44 116.44 C 41.63 112.39 46.54 111.40 50.70 110.75 C 59.50 109.58 68.37 109.01 77.21 108.13 C 79.46 107.95 81.73 107.82 83.98 107.62 M 44.29 116.21 C 44.28 116.91 44.27 118.31 44.26 119.01 C 46.81 118.68 49.42 118.55 51.87 117.71 C 53.45 117.32 53.20 115.40 53.70 114.20 C 50.55 114.81 47.42 115.50 44.29 116.21 M 98.49 116.41 C 103.55 116.89 108.61 116.34 113.54 115.20 C 108.80 112.45 102.97 113.75 98.49 116.41 M 101.26 145.22 C 98.89 147.39 97.52 150.37 95.90 153.09 C 95.32 154.32 94.69 155.54 94.22 156.83 C 92.49 158.85 90.78 160.90 89.07 162.95 C 94.02 164.26 99.62 165.98 104.49 163.51 C 110.79 160.06 112.36 151.72 110.94 145.22 C 108.46 142.49 103.87 142.87 101.26 145.22 M 51.75 146.65 C 50.22 151.27 50.45 156.46 52.10 161.01 C 54.50 167.13 62.65 168.53 68.16 166.15 C 70.31 165.45 70.40 162.96 71.13 161.18 L 70.21 161.63 C 68.80 159.29 67.43 156.94 66.10 154.56 C 64.58 151.93 63.24 149.12 61.04 146.97 C 58.55 144.60 54.54 145.14 51.75 146.65 M 100.27 168.52 C 102.73 168.62 105.24 169.14 107.67 168.60 C 111.50 166.79 113.18 162.51 113.03 158.48 C 109.45 162.62 105.81 167.01 100.27 168.52 M 95.37 172.41 C 89.72 173.80 84.71 177.16 78.92 178.07 C 73.26 178.99 67.68 177.06 62.04 176.99 C 60.34 177.09 57.79 176.76 57.59 179.08 C 58.16 182.23 61.11 184.38 64.16 184.75 C 70.76 185.55 77.31 183.05 83.90 184.18 C 89.88 185.03 95.70 187.95 101.84 186.99 C 106.78 185.58 107.49 178.77 104.96 174.97 C 102.95 171.79 98.68 171.52 95.37 172.41 Z" />
</g>
<g id="#e1dce0ff">
<path fill="#e1dce0" opacity="1.00" d=" M 101.26 145.22 C 103.87 142.87 108.46 142.49 110.94 145.22 C 112.36 151.72 110.79 160.06 104.49 163.51 C 99.62 165.98 94.02 164.26 89.07 162.95 C 90.78 160.90 92.49 158.85 94.22 156.83 C 93.62 158.76 93.16 160.75 93.14 162.78 C 96.03 164.90 100.90 163.78 101.40 159.88 C 102.02 156.38 98.15 154.85 95.90 153.09 C 97.52 150.37 98.89 147.39 101.26 145.22 Z" />
<path fill="#e1dce0" opacity="1.00" d=" M 51.75 146.65 C 54.54 145.14 58.55 144.60 61.04 146.97 C 63.24 149.12 64.58 151.93 66.10 154.56 C 64.84 154.87 63.58 155.19 62.33 155.51 C 62.10 157.17 61.89 158.83 61.67 160.49 C 61.09 160.85 59.92 161.58 59.34 161.95 C 61.13 162.74 62.77 164.27 64.84 164.14 C 66.45 163.66 67.89 162.76 69.39 162.03 L 70.21 161.63 L 71.13 161.18 C 70.40 162.96 70.31 165.45 68.16 166.15 C 62.65 168.53 54.50 167.13 52.10 161.01 C 50.45 156.46 50.22 151.27 51.75 146.65 Z" />
</g>
<g id="#b3b4a4ff">
<path fill="#b3b4a4" opacity="1.00" d=" M 98.20 160.30 C 99.59 159.82 100.08 160.29 99.65 161.70 C 98.25 162.18 97.77 161.71 98.20 160.30 Z" />
<path fill="#b3b4a4" opacity="1.00" d=" M 95.37 172.41 C 98.68 171.52 102.95 171.79 104.96 174.97 C 107.49 178.77 106.78 185.58 101.84 186.99 C 95.70 187.95 89.88 185.03 83.90 184.18 C 77.31 183.05 70.76 185.55 64.16 184.75 C 61.11 184.38 58.16 182.23 57.59 179.08 C 57.79 176.76 60.34 177.09 62.04 176.99 C 67.68 177.06 73.26 178.99 78.92 178.07 C 84.71 177.16 89.72 173.80 95.37 172.41 Z" />
</g>
</svg>
