<?xml version="1.0" encoding="UTF-8" ?>
<!DOCTYPE svg PUBLIC "-//W3C//DTD SVG 1.1//EN" "http://www.w3.org/Graphics/SVG/1.1/DTD/svg11.dtd">
<svg width="155pt" height="210pt" viewBox="0 0 155 210" version="1.1" xmlns="http://www.w3.org/2000/svg">
<g id="#815730fe">
<path fill="#815730" opacity="1.00" d=" M 77.04 64.95 C 83.10 65.50 85.82 71.53 90.02 75.03 C 92.00 77.22 94.65 74.84 96.76 74.13 C 97.16 74.37 97.95 74.83 98.34 75.07 C 97.64 75.96 96.94 76.86 96.24 77.76 C 99.41 80.72 101.01 84.73 101.25 89.01 C 102.84 89.32 104.47 89.54 106.01 90.11 C 107.56 91.39 108.07 93.52 108.99 95.25 C 104.65 95.15 100.32 95.26 95.99 95.37 C 87.97 95.57 80.12 97.45 72.13 98.08 C 73.37 96.67 74.54 95.05 74.34 93.06 C 74.34 85.29 74.41 77.52 74.30 69.76 C 74.56 71.94 74.91 74.11 75.25 76.28 C 78.36 76.78 81.47 77.30 84.59 77.77 C 85.14 77.12 85.69 76.48 86.24 75.83 C 88.48 76.70 90.73 77.53 92.98 78.35 C 87.49 74.08 83.19 68.37 77.04 64.95 Z" />
<path fill="#815730" opacity="1.00" d=" M 97.45 144.83 C 97.72 146.39 97.98 147.95 98.24 149.52 C 97.41 149.55 96.57 149.59 95.73 149.63 C 95.19 150.98 94.64 152.33 94.08 153.67 C 93.65 153.42 92.78 152.91 92.35 152.66 C 91.88 152.28 90.94 151.52 90.47 151.14 C 92.76 149.00 95.09 146.90 97.45 144.83 Z" />
<path fill="#815730" opacity="1.00" d=" M 57.35 150.55 C 58.10 149.71 58.85 148.86 59.60 148.02 C 61.80 148.98 64.00 149.93 66.26 150.72 C 64.83 151.57 63.55 152.78 61.89 153.13 C 59.98 153.28 58.76 151.53 57.35 150.55 Z" />
</g>
<g id="#d5aa54ff">
<path fill="#d5aa54" opacity="1.00" d=" M 74.30 69.76 C 73.58 67.62 75.98 66.44 77.04 64.95 C 83.19 68.37 87.49 74.08 92.98 78.35 C 90.73 77.53 88.48 76.70 86.24 75.83 C 85.69 76.48 85.14 77.12 84.59 77.77 C 81.47 77.30 78.36 76.78 75.25 76.28 C 74.91 74.11 74.56 71.94 74.30 69.76 Z" />
<path fill="#d5aa54" opacity="1.00" d=" M 96.76 74.13 C 99.78 72.13 103.07 69.86 106.82 69.91 C 109.88 72.06 110.83 75.93 112.47 79.10 C 115.27 77.73 117.76 75.85 120.35 74.15 C 122.01 72.72 123.92 74.47 125.60 74.90 C 123.43 77.58 120.85 79.92 118.81 82.71 C 115.98 86.98 114.45 91.98 113.56 96.99 C 112.07 96.32 110.54 95.74 108.99 95.25 C 108.07 93.52 107.56 91.39 106.01 90.11 C 104.47 89.54 102.84 89.32 101.25 89.01 C 101.01 84.73 99.41 80.72 96.24 77.76 C 96.94 76.86 97.64 75.96 98.34 75.07 C 97.95 74.83 97.16 74.37 96.76 74.13 Z" />
<path fill="#d5aa54" opacity="1.00" d=" M 94.85 105.53 C 99.83 102.63 105.79 103.09 111.30 103.58 C 106.31 106.36 100.33 105.62 94.85 105.53 Z" />
<path fill="#d5aa54" opacity="1.00" d=" M 41.41 106.31 C 45.33 104.13 49.90 103.76 54.16 105.11 C 50.78 108.51 45.70 108.18 41.30 108.79 C 41.33 108.17 41.38 106.93 41.41 106.31 Z" />
<path fill="#d5aa54" opacity="1.00" d=" M 103.29 154.30 C 105.49 152.46 107.08 150.03 109.05 147.97 C 108.65 151.20 107.46 154.61 104.54 156.40 C 102.06 157.04 99.47 156.80 96.94 156.85 C 99.07 156.06 101.30 155.45 103.29 154.30 Z" />
</g>
<g id="#90c701ff">
<path fill="#90c701" opacity="1.00" d=" M 72.13 98.08 C 80.12 97.45 87.97 95.57 95.99 95.37 C 100.32 95.26 104.65 95.15 108.99 95.25 C 110.54 95.74 112.07 96.32 113.56 96.99 C 116.67 98.35 118.35 101.74 118.55 105.00 C 118.97 110.68 117.40 116.29 117.76 121.97 C 118.21 132.22 118.24 142.52 119.94 152.66 C 115.19 155.03 109.46 156.75 106.49 161.47 C 105.37 163.61 107.55 165.01 109.42 165.34 C 113.61 166.08 117.91 165.68 122.09 165.06 C 122.07 170.82 120.34 176.90 115.81 180.73 C 113.94 182.33 111.29 181.91 109.02 182.09 C 89.68 182.10 70.34 182.11 51.01 182.03 C 47.15 181.93 43.20 182.45 39.43 181.44 C 36.64 180.04 34.77 177.30 33.36 174.60 C 30.92 169.26 32.36 163.24 33.73 157.82 C 38.66 161.75 44.91 164.40 51.29 163.04 C 50.31 157.86 46.87 153.25 42.14 150.93 C 40.11 150.30 37.95 150.53 35.87 150.48 C 36.62 144.36 36.57 138.18 36.46 132.03 C 36.35 124.10 34.18 116.05 36.19 108.20 C 37.10 104.48 40.39 101.69 44.11 101.03 C 53.33 99.15 62.77 98.68 72.13 98.08 M 94.85 105.53 C 100.33 105.62 106.31 106.36 111.30 103.58 C 105.79 103.09 99.83 102.63 94.85 105.53 M 41.41 106.31 C 41.38 106.93 41.33 108.17 41.30 108.79 C 45.70 108.18 50.78 108.51 54.16 105.11 C 49.90 103.76 45.33 104.13 41.41 106.31 M 100.62 132.57 C 96.43 134.08 94.79 138.67 92.54 142.11 L 93.17 142.46 C 92.38 143.59 91.52 144.68 90.93 145.92 C 89.14 147.64 87.49 149.50 85.94 151.44 C 88.06 151.91 90.19 152.34 92.35 152.66 C 92.78 152.91 93.65 153.42 94.08 153.67 C 97.26 152.88 100.92 152.81 103.44 150.44 C 107.42 146.88 108.27 141.09 107.95 136.03 C 107.96 132.37 103.36 131.72 100.62 132.57 M 49.19 135.13 C 48.41 140.89 47.82 147.54 51.52 152.47 C 55.39 156.36 62.30 156.83 66.84 153.88 C 68.35 152.99 67.64 151.22 67.63 149.83 C 66.04 147.73 64.55 145.55 63.08 143.36 C 61.69 140.20 60.15 136.74 56.97 134.99 C 54.53 133.73 51.73 134.80 49.19 135.13 M 103.29 154.30 C 101.30 155.45 99.07 156.06 96.94 156.85 C 99.47 156.80 102.06 157.04 104.54 156.40 C 107.46 154.61 108.65 151.20 109.05 147.97 C 107.08 150.03 105.49 152.46 103.29 154.30 M 77.24 166.26 C 69.77 168.15 62.26 163.80 54.83 166.09 C 55.52 168.18 55.92 170.79 58.17 171.81 C 63.72 174.76 70.08 172.19 75.96 172.08 C 83.80 171.36 91.03 176.34 98.86 175.13 C 105.54 172.56 103.82 161.18 96.77 160.36 C 89.75 160.08 83.94 164.95 77.24 166.26 Z" />
</g>
<g id="#cec8c9ff">
<path fill="#cec8c9" opacity="1.00" d=" M 100.62 132.57 C 103.36 131.72 107.96 132.37 107.95 136.03 C 108.27 141.09 107.42 146.88 103.44 150.44 C 100.92 152.81 97.26 152.88 94.08 153.67 C 94.64 152.33 95.19 150.98 95.73 149.63 C 96.57 149.59 97.41 149.55 98.24 149.52 C 97.98 147.95 97.72 146.39 97.45 144.83 C 96.02 144.04 94.60 143.25 93.17 142.46 L 92.54 142.11 C 94.79 138.67 96.43 134.08 100.62 132.57 Z" />
<path fill="#cec8c9" opacity="1.00" d=" M 49.19 135.13 C 51.73 134.80 54.53 133.73 56.97 134.99 C 60.15 136.74 61.69 140.20 63.08 143.36 C 61.82 143.91 60.56 144.46 59.30 145.02 C 59.40 146.02 59.50 147.02 59.60 148.02 C 58.85 148.86 58.10 149.71 57.35 150.55 C 58.76 151.53 59.98 153.28 61.89 153.13 C 63.55 152.78 64.83 151.57 66.26 150.72 C 66.60 150.50 67.29 150.05 67.63 149.83 C 67.64 151.22 68.35 152.99 66.84 153.88 C 62.30 156.83 55.39 156.36 51.52 152.47 C 47.82 147.54 48.41 140.89 49.19 135.13 Z" />
<path fill="#cec8c9" opacity="1.00" d=" M 85.94 151.44 C 87.49 149.50 89.14 147.64 90.93 145.92 C 90.46 147.36 90.03 148.82 89.69 150.30 C 89.88 150.51 90.27 150.93 90.47 151.14 C 90.94 151.52 91.88 152.28 92.35 152.66 C 90.19 152.34 88.06 151.91 85.94 151.44 Z" />
</g>
<g id="#010101ff">
<path fill="#010101" opacity="1.00" d=" M 90.93 145.92 C 91.52 144.68 92.38 143.59 93.17 142.46 C 94.60 143.25 96.02 144.04 97.45 144.83 C 95.09 146.90 92.76 149.00 90.47 151.14 C 90.27 150.93 89.88 150.51 89.69 150.30 C 90.03 148.82 90.46 147.36 90.93 145.92 Z" />
<path fill="#010101" opacity="1.00" d=" M 59.30 145.02 C 60.56 144.46 61.82 143.91 63.08 143.36 C 64.55 145.55 66.04 147.73 67.63 149.83 C 67.29 150.05 66.60 150.50 66.26 150.72 C 64.00 149.93 61.80 148.98 59.60 148.02 C 59.50 147.02 59.40 146.02 59.30 145.02 Z" />
<path fill="#010101" opacity="1.00" d=" M 35.87 150.48 C 37.95 150.53 40.11 150.30 42.14 150.93 C 46.87 153.25 50.31 157.86 51.29 163.04 C 44.91 164.40 38.66 161.75 33.73 157.82 C 34.04 155.27 34.68 152.77 35.87 150.48 Z" />
<path fill="#010101" opacity="1.00" d=" M 106.49 161.47 C 109.46 156.75 115.19 155.03 119.94 152.66 C 122.18 153.71 125.36 154.37 125.95 157.21 C 126.81 160.37 124.74 163.50 122.09 165.06 C 117.91 165.68 113.61 166.08 109.42 165.34 C 107.55 165.01 105.37 163.61 106.49 161.47 Z" />
</g>
<g id="#8c9682ff">
<path fill="#8c9682" opacity="1.00" d=" M 77.24 166.26 C 83.94 164.95 89.75 160.08 96.77 160.36 C 103.82 161.18 105.54 172.56 98.86 175.13 C 91.03 176.34 83.80 171.36 75.96 172.08 C 70.08 172.19 63.72 174.76 58.17 171.81 C 55.92 170.79 55.52 168.18 54.83 166.09 C 62.26 163.80 69.77 168.15 77.24 166.26 Z" />
</g>
</svg>
