<?xml version="1.0" encoding="UTF-8" ?>
<!DOCTYPE svg PUBLIC "-//W3C//DTD SVG 1.1//EN" "http://www.w3.org/Graphics/SVG/1.1/DTD/svg11.dtd">
<svg width="155pt" height="210pt" viewBox="0 0 155 210" version="1.1" xmlns="http://www.w3.org/2000/svg">
<g id="#2e2f42ff">
<path fill="#2e2f42" opacity="1.00" d=" M 72.79 19.88 C 76.66 17.63 82.52 19.33 83.97 23.73 C 84.96 26.63 85.96 29.61 88.13 31.88 C 92.05 36.29 91.88 42.53 91.48 48.05 C 96.32 51.60 101.92 53.89 106.92 57.17 C 112.13 61.24 117.04 66.00 120.01 72.00 C 121.82 75.63 124.18 79.09 125.12 83.10 C 125.58 87.39 124.96 91.72 125.13 96.04 C 123.51 88.76 122.84 81.19 119.70 74.33 C 115.81 65.48 108.20 58.64 99.69 54.29 C 95.21 51.76 90.63 49.30 85.62 48.00 C 85.51 52.46 88.77 55.47 91.37 58.63 C 93.32 60.80 92.52 63.86 92.47 66.48 C 91.19 64.83 89.82 63.24 88.47 61.65 C 87.59 63.60 87.10 65.87 85.54 67.42 C 82.81 68.84 79.68 69.12 76.71 69.74 C 78.97 68.30 81.25 66.90 83.56 65.55 C 83.23 60.09 81.23 54.84 81.23 49.37 C 83.71 45.79 89.68 44.24 89.23 39.03 C 88.39 35.38 85.02 33.01 83.64 29.58 C 82.04 26.50 81.50 22.13 77.76 20.83 C 74.54 19.71 71.35 22.07 69.45 24.50 C 66.93 27.62 69.38 31.59 70.16 34.90 C 68.94 34.13 67.58 33.50 66.60 32.42 C 66.00 30.13 65.96 27.68 66.46 25.36 C 67.91 22.94 70.41 21.30 72.79 19.88 Z" />
<path fill="#2e2f42" opacity="1.00" d=" M 46.01 31.06 C 49.20 28.74 54.30 27.57 57.48 30.53 C 60.54 33.06 61.64 37.02 63.04 40.56 C 64.58 40.53 66.12 40.51 67.67 40.50 C 68.52 38.65 69.35 36.78 70.16 34.90 C 70.93 34.98 72.48 35.13 73.25 35.21 C 73.27 36.40 73.28 37.59 73.28 38.79 C 71.90 39.57 70.51 40.35 69.13 41.15 C 67.70 41.96 66.32 42.87 64.95 43.78 C 61.33 42.25 57.25 40.35 53.34 42.05 C 50.53 43.02 50.31 46.48 50.53 48.98 C 50.74 51.90 53.13 53.89 55.02 55.84 C 52.78 55.39 50.62 54.45 48.33 54.27 C 46.65 54.75 45.36 56.04 44.01 57.08 C 45.36 55.04 47.15 53.22 48.05 50.91 C 48.13 49.35 47.96 47.80 47.86 46.25 C 46.05 45.33 44.25 44.39 42.45 43.44 C 42.26 39.11 42.33 34.06 46.01 31.06 M 48.19 31.87 C 45.70 33.68 44.78 36.97 44.70 39.92 C 44.58 41.76 45.99 43.89 48.04 43.43 C 51.81 42.25 54.54 39.14 57.67 36.87 C 57.63 32.19 51.92 30.66 48.19 31.87 Z" />
<path fill="#2e2f42" opacity="1.00" d=" M 73.98 45.64 C 75.29 47.20 77.88 48.47 77.29 50.86 C 77.02 54.14 74.44 57.38 71.02 57.54 C 68.62 57.18 66.85 55.29 64.93 53.97 C 65.14 52.35 65.36 50.73 65.47 49.09 C 68.58 48.72 71.51 47.58 73.98 45.64 Z" />
<path fill="#2e2f42" opacity="1.00" d=" M 61.18 61.57 C 61.62 61.06 62.48 60.06 62.91 59.55 C 64.07 63.20 65.12 66.88 66.43 70.48 C 68.64 70.85 70.85 71.23 73.05 71.62 C 70.55 72.71 68.02 73.74 65.47 74.74 C 62.54 70.96 61.22 66.31 61.18 61.57 Z" />
<path fill="#2e2f42" opacity="1.00" d=" M 92.35 68.52 C 93.46 70.36 94.60 72.20 95.93 73.90 C 92.75 73.64 89.55 73.77 86.37 73.93 C 86.57 75.07 86.77 76.21 86.97 77.35 C 84.54 77.88 82.23 78.89 80.11 80.19 C 76.74 82.29 73.55 84.85 69.63 85.89 C 72.72 84.03 75.31 81.48 77.60 78.70 C 73.71 79.67 69.99 81.18 66.42 82.99 C 65.67 81.76 64.91 80.53 64.15 79.31 C 70.62 78.05 76.33 74.56 82.65 72.81 C 86.06 71.82 89.28 70.29 92.35 68.52 Z" />
<path fill="#2e2f42" opacity="1.00" d=" M 87.87 85.68 C 93.01 83.45 98.02 86.88 102.22 89.55 C 107.32 94.91 113.77 99.60 116.11 106.94 C 118.06 113.17 121.06 119.34 121.06 125.99 C 120.05 131.91 115.52 136.34 112.88 141.57 C 112.20 142.97 111.57 144.40 111.14 145.91 C 110.68 147.54 110.30 149.19 110.01 150.87 C 107.73 151.06 105.45 151.24 103.17 151.42 C 102.56 158.76 96.22 163.82 95.40 171.09 C 94.69 176.24 92.97 181.56 94.17 186.74 C 98.57 191.90 106.09 190.87 112.16 191.70 C 111.92 193.90 111.68 196.11 111.45 198.32 C 114.72 198.58 118.00 198.81 121.28 198.97 C 122.00 201.54 122.33 204.19 122.25 206.86 C 112.19 207.99 102.09 207.19 92.04 206.46 C 72.63 206.11 53.22 206.51 33.82 206.19 C 32.32 206.08 30.83 205.88 29.34 205.69 C 29.36 202.61 29.39 199.54 29.40 196.46 C 30.26 196.51 31.12 196.56 31.98 196.61 C 34.83 196.69 37.76 197.13 40.56 196.44 C 43.10 195.07 45.19 193.00 47.79 191.73 C 51.16 189.87 55.24 188.85 57.67 185.66 C 59.13 183.78 58.60 181.27 58.34 179.10 C 56.50 174.61 54.26 170.29 51.92 166.05 C 48.90 161.01 47.14 155.41 45.26 149.89 C 44.89 148.80 44.50 147.72 44.11 146.65 C 37.51 147.43 30.86 148.07 24.35 149.42 C 21.57 150.09 21.54 153.57 21.45 155.87 C 21.41 158.95 21.36 162.03 21.19 165.11 C 19.80 160.54 20.30 155.64 20.59 150.94 C 21.43 146.21 27.00 145.49 30.55 143.58 C 35.32 141.60 35.29 135.68 36.57 131.41 C 37.13 129.15 37.74 126.91 38.35 124.66 C 39.34 125.57 40.33 126.49 41.28 127.44 C 45.00 132.83 48.83 138.46 50.18 144.98 C 50.94 148.48 51.34 152.04 51.82 155.59 C 53.01 155.54 54.21 155.49 55.40 155.44 C 56.20 151.78 57.24 147.92 56.15 144.20 C 54.40 137.99 50.61 132.39 49.98 125.87 C 49.72 121.91 52.45 118.66 54.52 115.56 C 58.49 110.32 62.08 104.77 66.29 99.71 C 72.97 94.37 79.82 88.82 87.87 85.68 M 57.44 127.97 C 60.71 128.40 64.17 128.31 67.18 129.84 C 70.69 131.57 73.92 134.09 77.96 134.45 C 77.90 130.32 77.36 125.81 74.19 122.81 C 69.28 116.97 58.52 120.69 57.44 127.97 M 93.87 135.19 C 97.76 135.36 101.77 135.06 105.29 133.27 C 108.89 131.55 112.72 128.51 112.27 124.06 C 104.56 123.81 97.87 128.98 93.87 135.19 M 77.29 136.18 C 77.31 136.59 77.35 137.39 77.36 137.80 C 78.47 137.81 79.58 137.83 80.70 137.85 C 80.69 137.43 80.67 136.59 80.66 136.17 C 79.53 136.17 78.41 136.18 77.29 136.18 M 74.41 141.33 C 71.16 141.73 67.71 141.71 64.84 143.48 C 66.44 144.15 68.05 144.80 69.67 145.44 C 69.12 147.12 68.56 148.79 68.04 150.47 C 68.78 150.28 70.27 149.88 71.02 149.69 C 71.16 150.54 71.30 151.39 71.44 152.25 C 69.42 154.67 68.90 157.91 68.15 160.88 C 68.67 160.72 69.73 160.41 70.25 160.25 L 70.76 159.57 C 72.61 159.90 74.57 159.97 76.32 160.73 C 78.53 163.12 80.36 165.86 82.71 168.13 C 84.70 165.64 87.08 163.52 89.61 161.60 C 93.05 158.97 94.01 154.52 95.36 150.64 C 96.33 150.44 97.31 150.24 98.29 150.05 C 98.67 148.48 99.05 146.92 99.43 145.35 C 99.95 144.59 100.46 143.82 100.98 143.05 C 96.83 142.10 92.71 140.96 88.50 140.32 C 83.78 139.56 79.08 140.79 74.41 141.33 M 66.08 179.14 C 66.83 181.01 67.60 182.88 68.39 184.74 C 69.81 184.64 71.23 184.53 72.65 184.42 C 72.48 181.67 71.42 179.13 69.79 176.93 C 68.52 177.60 67.27 178.33 66.08 179.14 Z" />
<path fill="#2e2f42" opacity="1.00" d=" M 131.07 109.04 C 134.00 110.86 135.29 114.13 135.97 117.37 C 134.95 117.02 133.92 116.70 132.89 116.39 C 132.41 113.91 131.90 111.42 131.07 109.04 Z" />
<path fill="#2e2f42" opacity="1.00" d=" M 137.71 118.00 C 137.70 120.44 138.07 123.24 136.35 125.24 C 134.93 126.50 133.09 127.09 131.39 127.86 C 131.54 129.80 131.59 131.77 132.11 133.66 C 134.11 135.41 136.66 136.32 139.05 137.39 C 138.61 138.52 138.16 139.65 137.83 140.82 C 139.61 142.95 142.51 144.25 142.72 147.39 C 140.70 146.28 138.80 144.93 137.35 143.13 C 136.91 142.58 136.03 141.49 135.59 140.94 C 133.62 141.71 131.65 142.48 129.68 143.23 C 127.42 142.47 125.07 140.84 122.61 141.58 C 119.89 144.22 120.33 148.28 122.61 151.04 C 123.67 149.57 124.69 148.09 125.71 146.60 C 126.77 148.95 128.02 151.24 129.82 153.12 C 133.53 156.96 136.43 161.46 139.60 165.73 C 138.24 166.52 136.88 167.30 135.49 168.04 C 134.30 168.07 133.11 168.11 131.93 168.19 C 128.60 168.47 125.28 169.03 121.92 168.90 C 120.75 168.79 119.51 168.34 118.94 167.23 C 117.19 164.47 115.55 161.64 113.64 158.98 C 113.98 157.29 114.32 155.60 114.68 153.92 C 115.10 151.93 115.54 149.95 115.98 147.96 C 118.78 140.08 124.09 133.50 128.41 126.44 C 130.06 123.55 133.19 122.20 136.08 120.91 C 136.62 119.94 137.16 118.97 137.71 118.00 Z" />
<path fill="#2e2f42" opacity="1.00" d=" M 32.03 152.62 C 35.39 152.39 38.58 153.51 41.60 154.87 C 41.92 157.49 42.25 160.11 42.26 162.76 C 42.02 165.38 41.65 168.05 40.71 170.52 C 37.70 173.92 34.47 177.63 29.74 178.41 C 30.33 177.22 30.94 176.05 31.49 174.85 C 31.58 174.50 31.75 173.81 31.84 173.47 C 31.08 172.86 30.30 172.26 29.52 171.68 C 28.39 170.22 27.39 168.68 26.39 167.14 C 27.33 167.09 29.20 166.99 30.14 166.94 C 31.56 166.90 32.98 166.84 34.40 166.77 C 31.86 163.96 29.24 161.22 26.65 158.45 C 30.10 159.80 33.65 160.85 37.31 161.47 C 35.68 158.44 33.83 155.55 32.03 152.62 Z" />
<path fill="#2e2f42" opacity="1.00" d=" M 114.13 197.14 C 116.91 197.19 119.69 197.44 122.44 197.93 L 121.56 198.00 C 119.21 198.20 116.85 198.21 114.50 198.02 L 114.13 197.14 Z" />
</g>
<g id="#b89f60ff">
<path fill="#b89f60" opacity="1.00" d=" M 69.45 24.50 C 71.35 22.07 74.54 19.71 77.76 20.83 C 81.50 22.13 82.04 26.50 83.64 29.58 C 85.02 33.01 88.39 35.38 89.23 39.03 C 89.68 44.24 83.71 45.79 81.23 49.37 C 81.23 54.84 83.23 60.09 83.56 65.55 C 81.25 66.90 78.97 68.30 76.71 69.74 C 79.68 69.12 82.81 68.84 85.54 67.42 C 87.10 65.87 87.59 63.60 88.47 61.65 C 89.82 63.24 91.19 64.83 92.47 66.48 C 92.44 66.99 92.38 68.01 92.35 68.52 C 89.28 70.29 86.06 71.82 82.65 72.81 C 76.33 74.56 70.62 78.05 64.15 79.31 C 62.15 75.95 59.63 72.75 58.71 68.87 C 57.97 66.14 59.61 63.63 61.18 61.57 C 61.22 66.31 62.54 70.96 65.47 74.74 C 68.02 73.74 70.55 72.71 73.05 71.62 C 70.85 71.23 68.64 70.85 66.43 70.48 C 65.12 66.88 64.07 63.20 62.91 59.55 C 62.48 58.51 62.02 57.46 61.36 56.54 C 59.62 55.79 57.67 55.99 55.82 55.88 L 55.02 55.84 C 53.13 53.89 50.74 51.90 50.53 48.98 C 50.31 46.48 50.53 43.02 53.34 42.05 C 57.25 40.35 61.33 42.25 64.95 43.78 C 65.15 45.55 65.37 47.32 65.47 49.09 C 65.36 50.73 65.14 52.35 64.93 53.97 C 66.85 55.29 68.62 57.18 71.02 57.54 C 74.44 57.38 77.02 54.14 77.29 50.86 C 77.88 48.47 75.29 47.20 73.98 45.64 C 73.43 44.04 72.90 42.44 72.37 40.85 C 71.29 40.93 70.21 41.03 69.13 41.15 C 70.51 40.35 71.90 39.57 73.28 38.79 C 73.28 37.59 73.27 36.40 73.25 35.21 C 72.48 35.13 70.93 34.98 70.16 34.90 C 69.38 31.59 66.93 27.62 69.45 24.50 Z" />
<path fill="#b89f60" opacity="1.00" d=" M 48.19 31.87 C 51.92 30.66 57.63 32.19 57.67 36.87 C 54.54 39.14 51.81 42.25 48.04 43.43 C 45.99 43.89 44.58 41.76 44.70 39.92 C 44.78 36.97 45.70 33.68 48.19 31.87 Z" />
<path fill="#b89f60" opacity="1.00" d=" M 86.37 73.93 C 89.55 73.77 92.75 73.64 95.93 73.90 C 97.32 74.86 98.71 75.82 100.09 76.78 C 95.73 77.16 91.35 77.21 86.97 77.35 C 86.77 76.21 86.57 75.07 86.37 73.93 Z" />
<path fill="#b89f60" opacity="1.00" d=" M 66.42 82.99 C 69.99 81.18 73.71 79.67 77.60 78.70 C 75.31 81.48 72.72 84.03 69.63 85.89 C 68.02 86.32 66.36 86.50 64.71 86.68 C 65.28 85.45 65.85 84.22 66.42 82.99 Z" />
<path fill="#b89f60" opacity="1.00" d=" M 122.61 141.58 C 125.07 140.84 127.42 142.47 129.68 143.23 C 129.03 145.02 128.40 146.81 127.79 148.61 C 131.41 147.63 134.66 145.73 137.35 143.13 C 138.80 144.93 140.70 146.28 142.72 147.39 L 143.43 147.81 C 141.59 148.11 139.65 148.14 137.95 148.96 C 135.61 150.36 134.72 153.11 133.52 155.40 C 135.74 154.79 138.12 154.44 140.08 153.16 C 141.79 151.84 142.46 149.66 143.43 147.81 C 144.65 150.92 146.73 153.75 147.32 157.08 C 147.22 160.95 147.35 164.82 147.94 168.65 C 144.84 170.15 141.65 171.66 138.17 171.97 C 135.86 171.12 133.82 169.73 131.93 168.19 C 133.11 168.11 134.30 168.07 135.49 168.04 C 138.44 168.35 141.83 169.54 144.45 167.51 C 146.63 166.41 145.96 163.81 146.02 161.85 C 143.88 163.14 141.76 164.47 139.60 165.73 C 136.43 161.46 133.53 156.96 129.82 153.12 C 128.02 151.24 126.77 148.95 125.71 146.60 C 124.69 148.09 123.67 149.57 122.61 151.04 C 120.33 148.28 119.89 144.22 122.61 141.58 M 135.70 160.14 C 139.59 162.86 144.10 159.17 146.50 156.10 C 145.66 155.22 144.83 154.35 143.99 153.47 C 141.03 155.43 138.04 157.44 135.70 160.14 Z" />
<path fill="#b89f60" opacity="1.00" d=" M 71.02 149.69 C 76.11 148.47 80.86 145.94 86.10 145.36 C 89.94 145.63 93.36 147.67 96.89 149.06 C 97.74 147.82 98.59 146.59 99.43 145.35 C 99.05 146.92 98.67 148.48 98.29 150.05 C 97.31 150.24 96.33 150.44 95.36 150.64 C 94.01 154.52 93.05 158.97 89.61 161.60 C 87.08 163.52 84.70 165.64 82.71 168.13 C 80.36 165.86 78.53 163.12 76.32 160.73 C 74.57 159.97 72.61 159.90 70.76 159.57 C 72.07 158.08 73.10 155.70 75.38 155.64 C 78.83 155.23 82.32 155.78 85.77 155.33 C 88.95 154.91 91.79 153.28 94.56 151.76 C 91.90 149.52 88.98 146.47 85.15 147.22 C 80.33 148.06 75.82 150.14 71.44 152.25 C 71.30 151.39 71.16 150.54 71.02 149.69 Z" />
</g>
<g id="#566aa1ff">
<path fill="#566aa1" opacity="1.00" d=" M 64.95 43.78 C 66.32 42.87 67.70 41.96 69.13 41.15 C 70.21 41.03 71.29 40.93 72.37 40.85 C 72.90 42.44 73.43 44.04 73.98 45.64 C 71.51 47.58 68.58 48.72 65.47 49.09 C 65.37 47.32 65.15 45.55 64.95 43.78 Z" />
<path fill="#566aa1" opacity="1.00" d=" M 85.62 48.00 C 90.63 49.30 95.21 51.76 99.69 54.29 C 108.20 58.64 115.81 65.48 119.70 74.33 C 122.84 81.19 123.51 88.76 125.13 96.04 C 126.49 100.61 127.87 105.35 131.07 109.04 C 131.90 111.42 132.41 113.91 132.89 116.39 C 133.92 116.70 134.95 117.02 135.97 117.37 C 136.40 117.53 137.27 117.84 137.71 118.00 C 137.16 118.97 136.62 119.94 136.08 120.91 C 133.19 122.20 130.06 123.55 128.41 126.44 C 124.09 133.50 118.78 140.08 115.98 147.96 C 115.84 145.99 115.62 144.02 115.39 142.06 C 114.55 141.89 113.72 141.73 112.88 141.57 C 115.52 136.34 120.05 131.91 121.06 125.99 C 121.06 119.34 118.06 113.17 116.11 106.94 C 113.77 99.60 107.32 94.91 102.22 89.55 C 105.67 91.64 109.25 93.71 113.27 94.44 C 112.49 91.00 112.96 87.49 114.52 84.34 C 112.56 83.42 110.61 82.50 108.66 81.58 C 109.14 83.16 109.63 84.75 110.11 86.34 C 109.39 86.29 107.95 86.19 107.22 86.14 C 104.90 83.51 103.04 79.36 98.99 79.35 C 92.70 78.94 86.35 79.31 80.11 80.19 C 82.23 78.89 84.54 77.88 86.97 77.35 C 91.35 77.21 95.73 77.16 100.09 76.78 C 98.71 75.82 97.32 74.86 95.93 73.90 C 94.60 72.20 93.46 70.36 92.35 68.52 C 92.38 68.01 92.44 66.99 92.47 66.48 C 92.52 63.86 93.32 60.80 91.37 58.63 C 88.77 55.47 85.51 52.46 85.62 48.00 Z" />
<path fill="#566aa1" opacity="1.00" d=" M 55.82 55.88 C 57.67 55.99 59.62 55.79 61.36 56.54 C 62.02 57.46 62.48 58.51 62.91 59.55 C 62.48 60.06 61.62 61.06 61.18 61.57 C 59.61 63.63 57.97 66.14 58.71 68.87 C 59.63 72.75 62.15 75.95 64.15 79.31 C 64.91 80.53 65.67 81.76 66.42 82.99 C 65.85 84.22 65.28 85.45 64.71 86.68 C 64.28 86.73 63.41 86.81 62.97 86.85 C 62.92 84.90 63.10 82.89 62.62 80.97 C 61.39 78.87 59.11 77.71 57.23 76.27 C 54.26 78.53 50.98 80.34 47.45 81.56 C 48.06 79.56 48.31 77.33 49.59 75.61 C 51.62 73.22 54.44 71.68 56.51 69.34 C 57.52 65.91 51.90 65.09 51.74 61.98 C 52.46 59.60 54.35 57.82 55.82 55.88 Z" />
<path fill="#566aa1" opacity="1.00" d=" M 61.27 98.82 C 62.95 99.11 64.62 99.41 66.29 99.71 C 62.08 104.77 58.49 110.32 54.52 115.56 C 52.45 118.66 49.72 121.91 49.98 125.87 C 50.61 132.39 54.40 137.99 56.15 144.20 C 57.24 147.92 56.20 151.78 55.40 155.44 C 54.21 155.49 53.01 155.54 51.82 155.59 C 51.34 152.04 50.94 148.48 50.18 144.98 C 48.83 138.46 45.00 132.83 41.28 127.44 C 46.35 124.25 48.20 118.32 51.57 113.69 C 55.00 108.86 58.17 103.86 61.27 98.82 Z" />
<path fill="#566aa1" opacity="1.00" d=" M 110.01 150.87 C 110.30 149.19 110.68 147.54 111.14 145.91 C 111.07 148.85 111.23 151.79 111.37 154.73 C 112.47 154.46 113.57 154.19 114.68 153.92 C 114.32 155.60 113.98 157.29 113.64 158.98 C 113.00 158.94 111.71 158.85 111.07 158.80 C 110.54 156.19 109.86 153.55 110.01 150.87 Z" />
<path fill="#566aa1" opacity="1.00" d=" M 45.26 149.89 C 47.14 155.41 48.90 161.01 51.92 166.05 C 49.54 164.37 47.24 162.59 45.01 160.71 C 44.09 161.39 43.17 162.08 42.26 162.76 C 42.25 160.11 41.92 157.49 41.60 154.87 C 42.67 154.79 43.74 154.71 44.82 154.64 C 44.98 153.05 45.16 151.47 45.26 149.89 Z" />
<path fill="#566aa1" opacity="1.00" d=" M 21.45 155.87 C 21.67 158.40 21.90 161.00 22.92 163.35 C 24.85 165.29 27.61 166.07 30.14 166.94 C 29.20 166.99 27.33 167.09 26.39 167.14 C 27.39 168.68 28.39 170.22 29.52 171.68 C 26.70 170.07 24.52 167.66 22.94 164.85 C 22.27 166.78 21.56 168.69 20.84 170.60 C 21.00 168.77 21.11 166.94 21.19 165.11 C 21.36 162.03 21.41 158.95 21.45 155.87 Z" />
<path fill="#566aa1" opacity="1.00" d=" M 121.92 168.90 C 125.28 169.03 128.60 168.47 131.93 168.19 C 133.82 169.73 135.86 171.12 138.17 171.97 C 135.81 171.54 133.45 171.09 131.13 170.50 C 130.92 171.62 130.72 172.73 130.51 173.85 C 128.93 173.75 127.31 173.86 125.78 173.39 C 124.38 171.99 123.20 170.40 121.92 168.90 Z" />
<path fill="#566aa1" opacity="1.00" d=" M 66.08 179.14 C 67.27 178.33 68.52 177.60 69.79 176.93 C 71.42 179.13 72.48 181.67 72.65 184.42 C 71.23 184.53 69.81 184.64 68.39 184.74 C 67.60 182.88 66.83 181.01 66.08 179.14 Z" />
</g>
<g id="#657fb6ff">
<path fill="#657fb6" opacity="1.00" d=" M 48.33 54.27 C 50.62 54.45 52.78 55.39 55.02 55.84 L 55.82 55.88 C 54.35 57.82 52.46 59.60 51.74 61.98 C 51.90 65.09 57.52 65.91 56.51 69.34 C 54.44 71.68 51.62 73.22 49.59 75.61 C 48.31 77.33 48.06 79.56 47.45 81.56 C 50.98 80.34 54.26 78.53 57.23 76.27 C 59.11 77.71 61.39 78.87 62.62 80.97 C 63.10 82.89 62.92 84.90 62.97 86.85 C 63.41 86.81 64.28 86.73 64.71 86.68 C 66.36 86.50 68.02 86.32 69.63 85.89 C 73.55 84.85 76.74 82.29 80.11 80.19 C 86.35 79.31 92.70 78.94 98.99 79.35 C 103.04 79.36 104.90 83.51 107.22 86.14 C 107.95 86.19 109.39 86.29 110.11 86.34 C 109.63 84.75 109.14 83.16 108.66 81.58 C 110.61 82.50 112.56 83.42 114.52 84.34 C 112.96 87.49 112.49 91.00 113.27 94.44 C 109.25 93.71 105.67 91.64 102.22 89.55 C 98.02 86.88 93.01 83.45 87.87 85.68 C 79.82 88.82 72.97 94.37 66.29 99.71 C 64.62 99.41 62.95 99.11 61.27 98.82 C 58.17 103.86 55.00 108.86 51.57 113.69 C 48.20 118.32 46.35 124.25 41.28 127.44 C 40.33 126.49 39.34 125.57 38.35 124.66 C 37.74 126.91 37.13 129.15 36.57 131.41 C 33.83 129.17 31.47 126.49 28.67 124.31 C 25.78 122.07 21.73 122.33 18.82 120.16 C 17.33 119.07 17.40 117.05 16.96 115.43 C 15.24 114.52 13.53 113.59 11.83 112.64 C 13.49 107.49 20.20 109.81 23.39 106.41 C 30.94 99.80 30.34 88.85 34.85 80.50 C 33.44 80.94 32.02 81.36 30.59 81.76 C 33.31 76.82 37.20 72.67 41.18 68.74 C 40.82 66.58 40.25 64.43 40.30 62.23 C 41.09 60.25 42.55 58.60 44.01 57.08 C 45.36 56.04 46.65 54.75 48.33 54.27 M 48.85 102.04 C 49.35 102.38 50.37 103.07 50.88 103.42 C 52.92 100.60 55.34 98.02 56.93 94.90 C 56.81 94.27 56.56 93.01 56.44 92.39 C 52.90 94.70 50.39 98.15 48.85 102.04 M 39.87 116.07 C 39.30 118.44 37.79 121.51 39.92 123.50 C 42.20 123.21 42.53 120.71 43.29 118.98 C 44.32 116.32 44.95 113.43 44.15 110.61 C 42.31 112.05 40.44 113.69 39.87 116.07 Z" />
<path fill="#657fb6" opacity="1.00" d=" M 77.29 136.18 C 78.41 136.18 79.53 136.17 80.66 136.17 C 80.67 136.59 80.69 137.43 80.70 137.85 C 79.58 137.83 78.47 137.81 77.36 137.80 C 77.35 137.39 77.31 136.59 77.29 136.18 Z" />
<path fill="#657fb6" opacity="1.00" d=" M 112.88 141.57 C 113.72 141.73 114.55 141.89 115.39 142.06 C 115.62 144.02 115.84 145.99 115.98 147.96 C 115.54 149.95 115.10 151.93 114.68 153.92 C 113.57 154.19 112.47 154.46 111.37 154.73 C 111.23 151.79 111.07 148.85 111.14 145.91 C 111.57 144.40 112.20 142.97 112.88 141.57 Z" />
<path fill="#657fb6" opacity="1.00" d=" M 20.12 170.13 L 20.84 170.60 C 23.95 172.95 27.56 174.58 31.49 174.85 C 30.94 176.05 30.33 177.22 29.74 178.41 C 25.32 177.47 22.21 173.91 20.12 170.13 Z" />
<path fill="#657fb6" opacity="1.00" d=" M 58.34 179.10 C 58.60 181.27 59.13 183.78 57.67 185.66 C 55.24 188.85 51.16 189.87 47.79 191.73 C 45.19 193.00 43.10 195.07 40.56 196.44 C 37.76 197.13 34.83 196.69 31.98 196.61 C 34.81 196.16 37.71 196.09 40.50 195.43 C 42.73 193.70 44.41 191.31 46.89 189.90 C 49.62 188.54 52.92 188.36 55.29 186.32 C 57.30 184.46 57.72 181.63 58.34 179.10 Z" />
<path fill="#657fb6" opacity="1.00" d=" M 112.16 191.70 C 112.81 193.51 113.41 195.35 114.13 197.14 L 114.50 198.02 C 116.85 198.21 119.21 198.20 121.56 198.00 C 122.91 200.86 125.08 204.43 122.24 207.16 C 117.94 208.37 113.40 207.58 109.00 207.81 C 96.33 208.79 83.68 206.73 71.00 206.71 C 60.99 206.75 50.99 206.71 40.98 206.86 C 38.58 206.90 36.17 206.72 33.82 206.19 C 53.22 206.51 72.63 206.11 92.04 206.46 C 102.09 207.19 112.19 207.99 122.25 206.86 C 122.33 204.19 122.00 201.54 121.28 198.97 C 118.00 198.81 114.72 198.58 111.45 198.32 C 111.68 196.11 111.92 193.90 112.16 191.70 Z" />
</g>
<g id="#d8d7d2ff">
<path fill="#d8d7d2" opacity="1.00" d=" M 48.85 102.04 C 50.39 98.15 52.90 94.70 56.44 92.39 C 56.56 93.01 56.81 94.27 56.93 94.90 C 55.34 98.02 52.92 100.60 50.88 103.42 C 50.37 103.07 49.35 102.38 48.85 102.04 Z" />
<path fill="#d8d7d2" opacity="1.00" d=" M 39.87 116.07 C 40.44 113.69 42.31 112.05 44.15 110.61 C 44.95 113.43 44.32 116.32 43.29 118.98 C 42.53 120.71 42.20 123.21 39.92 123.50 C 37.79 121.51 39.30 118.44 39.87 116.07 Z" />
<path fill="#d8d7d2" opacity="1.00" d=" M 57.44 127.97 C 58.52 120.69 69.28 116.97 74.19 122.81 C 77.36 125.81 77.90 130.32 77.96 134.45 C 73.92 134.09 70.69 131.57 67.18 129.84 C 64.17 128.31 60.71 128.40 57.44 127.97 Z" />
<path fill="#d8d7d2" opacity="1.00" d=" M 93.87 135.19 C 97.87 128.98 104.56 123.81 112.27 124.06 C 112.72 128.51 108.89 131.55 105.29 133.27 C 101.77 135.06 97.76 135.36 93.87 135.19 Z" />
<path fill="#d8d7d2" opacity="1.00" d=" M 74.41 141.33 C 79.08 140.79 83.78 139.56 88.50 140.32 C 92.71 140.96 96.83 142.10 100.98 143.05 C 100.46 143.82 99.95 144.59 99.43 145.35 C 98.59 146.59 97.74 147.82 96.89 149.06 C 93.36 147.67 89.94 145.63 86.10 145.36 C 80.86 145.94 76.11 148.47 71.02 149.69 C 70.27 149.88 68.78 150.28 68.04 150.47 C 68.56 148.79 69.12 147.12 69.67 145.44 C 68.05 144.80 66.44 144.15 64.84 143.48 C 67.71 141.71 71.16 141.73 74.41 141.33 Z" />
<path fill="#d8d7d2" opacity="1.00" d=" M 129.68 143.23 C 131.65 142.48 133.62 141.71 135.59 140.94 C 136.03 141.49 136.91 142.58 137.35 143.13 C 134.66 145.73 131.41 147.63 127.79 148.61 C 128.40 146.81 129.03 145.02 129.68 143.23 Z" />
<path fill="#d8d7d2" opacity="1.00" d=" M 24.35 149.42 C 30.86 148.07 37.51 147.43 44.11 146.65 C 44.50 147.72 44.89 148.80 45.26 149.89 C 45.16 151.47 44.98 153.05 44.82 154.64 C 43.74 154.71 42.67 154.79 41.60 154.87 C 38.58 153.51 35.39 152.39 32.03 152.62 C 33.83 155.55 35.68 158.44 37.31 161.47 C 33.65 160.85 30.10 159.80 26.65 158.45 C 29.24 161.22 31.86 163.96 34.40 166.77 C 32.98 166.84 31.56 166.90 30.14 166.94 C 27.61 166.07 24.85 165.29 22.92 163.35 C 21.90 161.00 21.67 158.40 21.45 155.87 C 21.54 153.57 21.57 150.09 24.35 149.42 Z" />
<path fill="#d8d7d2" opacity="1.00" d=" M 71.44 152.25 C 75.82 150.14 80.33 148.06 85.15 147.22 C 88.98 146.47 91.90 149.52 94.56 151.76 C 91.79 153.28 88.95 154.91 85.77 155.33 C 82.32 155.78 78.83 155.23 75.38 155.64 C 73.10 155.70 72.07 158.08 70.76 159.57 L 70.25 160.25 C 69.73 160.41 68.67 160.72 68.15 160.88 C 68.90 157.91 69.42 154.67 71.44 152.25 Z" />
<path fill="#d8d7d2" opacity="1.00" d=" M 137.95 148.96 C 139.65 148.14 141.59 148.11 143.43 147.81 C 142.46 149.66 141.79 151.84 140.08 153.16 C 138.12 154.44 135.74 154.79 133.52 155.40 C 134.72 153.11 135.61 150.36 137.95 148.96 Z" />
<path fill="#d8d7d2" opacity="1.00" d=" M 135.70 160.14 C 138.04 157.44 141.03 155.43 143.99 153.47 C 144.83 154.35 145.66 155.22 146.50 156.10 C 144.10 159.17 139.59 162.86 135.70 160.14 Z" />
<path fill="#d8d7d2" opacity="1.00" d=" M 139.60 165.73 C 141.76 164.47 143.88 163.14 146.02 161.85 C 145.96 163.81 146.63 166.41 144.45 167.51 C 141.83 169.54 138.44 168.35 135.49 168.04 C 136.88 167.30 138.24 166.52 139.60 165.73 Z" />
<path fill="#d8d7d2" opacity="1.00" d=" M 22.94 164.85 C 24.52 167.66 26.70 170.07 29.52 171.68 C 30.30 172.26 31.08 172.86 31.84 173.47 C 31.75 173.81 31.58 174.50 31.49 174.85 C 27.56 174.58 23.95 172.95 20.84 170.60 C 21.56 168.69 22.27 166.78 22.94 164.85 Z" />
</g>
</svg>
