<?xml version="1.0" encoding="UTF-8" ?>
<!DOCTYPE svg PUBLIC "-//W3C//DTD SVG 1.1//EN" "http://www.w3.org/Graphics/SVG/1.1/DTD/svg11.dtd">
<svg width="155pt" height="210pt" viewBox="0 0 155 210" version="1.1" xmlns="http://www.w3.org/2000/svg">
<g id="#d3a853ff">
<path fill="#d3a853" opacity="1.00" d=" M 75.47 65.92 C 74.93 62.52 80.00 61.48 82.40 62.58 C 86.91 66.12 90.40 70.78 94.80 74.46 C 99.81 71.78 104.54 68.34 110.08 66.83 C 111.46 66.30 112.58 67.72 113.45 68.57 C 115.54 71.16 116.64 74.37 118.07 77.34 C 121.31 75.03 124.24 72.15 127.95 70.59 C 129.54 71.09 131.01 71.89 132.51 72.60 C 129.80 75.54 126.86 78.32 124.73 81.73 C 121.88 86.38 120.23 91.62 118.86 96.86 C 116.86 95.92 114.82 95.08 112.72 94.42 C 111.85 92.55 111.92 89.61 109.50 89.01 C 106.47 87.89 103.25 87.43 100.14 86.62 C 100.09 82.94 99.82 79.25 98.93 75.66 C 95.31 75.71 91.73 74.97 88.40 73.56 C 88.41 74.20 88.42 74.83 88.42 75.46 C 86.06 75.78 83.70 76.10 81.34 76.40 C 80.07 79.45 78.63 82.47 77.90 85.71 C 77.05 89.55 78.15 93.44 79.06 97.16 C 77.98 97.24 76.90 97.31 75.82 97.38 C 75.33 86.90 75.61 76.41 75.47 65.92 Z" />
<path fill="#d3a853" opacity="1.00" d=" M 38.37 108.80 C 41.29 106.20 44.82 104.42 48.59 103.44 C 50.86 104.28 53.14 105.11 55.39 105.99 C 50.27 109.01 44.22 110.60 38.37 108.80 Z" />
</g>
<g id="#704d2cff">
<path fill="#704d2c" opacity="1.00" d=" M 88.40 73.56 C 91.73 74.97 95.31 75.71 98.93 75.66 C 99.82 79.25 100.09 82.94 100.14 86.62 C 97.99 89.02 96.82 92.04 96.64 95.25 L 95.81 95.32 C 90.23 95.94 84.67 96.79 79.06 97.16 C 78.15 93.44 77.05 89.55 77.90 85.71 C 78.63 82.47 80.07 79.45 81.34 76.40 C 83.70 76.10 86.06 75.78 88.42 75.46 C 88.42 74.83 88.41 74.20 88.40 73.56 Z" />
<path fill="#704d2c" opacity="1.00" d=" M 33.35 125.66 C 35.50 135.45 34.68 145.50 34.10 155.42 C 36.08 155.40 38.06 155.40 40.04 155.39 C 44.94 158.82 48.86 163.54 50.78 169.25 C 46.19 170.19 41.25 170.21 37.05 167.89 C 34.97 166.66 33.00 165.26 31.03 163.88 C 31.78 159.21 33.32 154.70 33.65 149.96 C 34.73 141.88 33.58 133.75 33.35 125.66 Z" />
<path fill="#704d2c" opacity="1.00" d=" M 59.69 148.84 C 61.06 148.48 62.43 148.14 63.80 147.79 C 65.25 149.98 66.76 152.13 68.37 154.21 C 66.74 155.67 65.28 157.41 63.34 158.47 C 61.36 159.25 59.13 158.13 57.81 156.63 C 58.02 153.95 58.97 151.40 59.69 148.84 Z" />
<path fill="#704d2c" opacity="1.00" d=" M 95.25 146.90 C 97.61 148.05 101.12 148.44 101.91 151.40 C 103.56 155.75 97.54 160.42 93.92 157.23 C 91.54 155.57 93.50 152.64 93.95 150.48 C 94.36 149.27 94.79 148.08 95.25 146.90 M 98.29 154.18 C 97.76 155.80 98.31 156.36 99.94 155.85 C 100.47 154.22 99.92 153.67 98.29 154.18 Z" />
<path fill="#704d2c" opacity="1.00" d=" M 124.82 152.90 C 125.32 154.48 125.78 156.07 126.25 157.67 C 128.88 159.52 133.12 161.08 132.82 164.98 C 132.04 168.21 129.67 170.79 128.69 173.96 C 127.98 176.26 127.48 178.61 126.82 180.92 C 127.30 178.09 127.51 175.23 127.79 172.38 C 123.49 172.43 119.17 172.55 114.88 172.12 C 112.91 172.05 111.25 170.81 110.57 168.98 C 112.85 163.11 119.43 161.09 124.55 158.42 C 124.65 156.58 124.76 154.74 124.82 152.90 Z" />
</g>
<g id="#c93133ff">
<path fill="#c93133" opacity="1.00" d=" M 96.64 95.25 C 96.82 92.04 97.99 89.02 100.14 86.62 C 103.25 87.43 106.47 87.89 109.50 89.01 C 111.92 89.61 111.85 92.55 112.72 94.42 C 107.35 94.60 102.00 94.95 96.64 95.25 Z" />
<path fill="#c93133" opacity="1.00" d=" M 79.06 97.16 C 84.67 96.79 90.23 95.94 95.81 95.32 C 95.52 96.94 95.22 98.55 94.91 100.16 C 79.46 100.63 63.68 99.33 48.59 103.44 C 44.82 104.42 41.29 106.20 38.37 108.80 C 37.90 108.71 36.96 108.53 36.50 108.45 C 36.65 113.16 36.72 117.88 37.25 122.58 C 43.31 120.36 49.69 119.20 56.12 118.85 C 50.52 122.72 43.17 124.67 39.08 130.35 C 38.26 138.67 40.19 147.03 40.04 155.39 C 38.06 155.40 36.08 155.40 34.10 155.42 C 34.68 145.50 35.50 135.45 33.35 125.66 C 32.24 119.42 31.85 112.57 34.72 106.73 C 37.34 101.79 43.37 100.94 48.35 100.19 C 57.48 99.06 66.66 98.33 75.82 97.38 C 76.90 97.31 77.98 97.24 79.06 97.16 Z" />
<path fill="#c93133" opacity="1.00" d=" M 124.18 103.77 C 125.44 110.18 123.43 116.57 123.60 122.99 C 123.71 129.10 123.78 135.20 123.72 141.31 C 121.28 128.92 122.95 116.21 124.18 103.77 Z" />
<path fill="#c93133" opacity="1.00" d=" M 92.63 120.64 C 97.29 112.32 107.55 108.35 116.71 110.21 C 119.42 110.71 120.34 113.54 120.56 115.94 C 117.48 116.38 114.50 115.07 111.49 114.60 C 107.37 114.21 103.24 115.22 99.78 117.50 C 100.28 117.51 101.28 117.52 101.78 117.52 L 101.55 118.74 C 100.34 118.29 99.14 117.83 97.93 117.38 C 96.17 118.47 94.40 119.56 92.63 120.64 Z" />
<path fill="#c93133" opacity="1.00" d=" M 104.34 132.19 C 109.05 130.74 113.96 132.58 117.66 135.55 C 116.08 136.20 114.50 136.85 112.90 137.44 C 110.42 136.70 107.89 135.60 105.24 135.91 C 102.02 136.75 99.98 139.64 98.13 142.20 C 97.81 141.61 97.18 140.44 96.86 139.85 C 98.75 136.85 100.59 133.14 104.34 132.19 Z" />
<path fill="#c93133" opacity="1.00" d=" M 31.03 163.88 C 33.00 165.26 34.97 166.66 37.05 167.89 C 36.31 168.02 34.84 168.26 34.10 168.38 C 33.93 171.85 33.84 175.32 33.78 178.80 C 37.38 177.82 41.01 176.34 44.81 176.53 C 49.92 177.61 53.69 182.07 58.99 182.67 C 66.79 183.47 74.61 182.23 82.35 181.39 C 80.52 180.80 78.69 180.20 76.82 179.72 C 85.50 179.84 93.70 183.50 102.41 183.74 C 102.13 184.09 101.59 184.80 101.31 185.15 C 104.35 183.17 107.28 181.01 110.54 179.39 C 115.31 176.97 121.01 177.88 125.75 175.34 C 123.51 171.88 118.43 173.13 114.88 172.12 C 119.17 172.55 123.49 172.43 127.79 172.38 C 127.51 175.23 127.30 178.09 126.82 180.92 C 125.95 183.94 124.05 186.61 121.76 188.72 C 119.69 190.67 116.62 190.27 114.02 190.45 C 92.34 190.53 70.67 190.53 49.00 190.33 C 43.71 190.12 36.92 191.77 33.46 186.56 C 27.42 180.47 28.89 171.32 31.03 163.88 Z" />
<path fill="#c93133" opacity="1.00" d=" M 77.69 170.44 C 83.21 169.52 88.43 167.27 94.02 166.66 C 88.49 169.56 82.92 172.93 76.55 173.46 C 69.66 174.00 62.87 172.21 56.02 171.76 C 62.86 168.36 70.51 171.62 77.69 170.44 Z" />
</g>
<g id="#c90404ff">
<path fill="#c90404" opacity="1.00" d=" M 96.64 95.25 C 102.00 94.95 107.35 94.60 112.72 94.42 C 114.82 95.08 116.86 95.92 118.86 96.86 C 121.63 98.10 123.73 100.75 124.18 103.77 C 122.95 116.21 121.28 128.92 123.72 141.31 C 124.55 145.11 124.89 149.01 124.82 152.90 C 124.76 154.74 124.65 156.58 124.55 158.42 C 119.43 161.09 112.85 163.11 110.57 168.98 C 111.25 170.81 112.91 172.05 114.88 172.12 C 118.43 173.13 123.51 171.88 125.75 175.34 C 121.01 177.88 115.31 176.97 110.54 179.39 C 107.28 181.01 104.35 183.17 101.31 185.15 C 101.59 184.80 102.13 184.09 102.41 183.74 C 104.14 181.93 106.26 180.28 107.14 177.84 C 108.15 173.93 106.65 169.09 102.87 167.22 C 100.09 166.00 96.95 166.28 94.02 166.66 C 88.43 167.27 83.21 169.52 77.69 170.44 C 70.51 171.62 62.86 168.36 56.02 171.76 C 55.36 172.10 54.02 172.78 53.35 173.12 C 55.01 175.80 56.48 179.22 59.77 180.20 C 65.39 181.79 71.15 179.83 76.82 179.72 C 78.69 180.20 80.52 180.80 82.35 181.39 C 74.61 182.23 66.79 183.47 58.99 182.67 C 53.69 182.07 49.92 177.61 44.81 176.53 C 41.01 176.34 37.38 177.82 33.78 178.80 C 33.84 175.32 33.93 171.85 34.10 168.38 C 34.84 168.26 36.31 168.02 37.05 167.89 C 41.25 170.21 46.19 170.19 50.78 169.25 C 48.86 163.54 44.94 158.82 40.04 155.39 C 40.19 147.03 38.26 138.67 39.08 130.35 C 43.17 124.67 50.52 122.72 56.12 118.85 C 49.69 119.20 43.31 120.36 37.25 122.58 C 36.72 117.88 36.65 113.16 36.50 108.45 C 36.96 108.53 37.90 108.71 38.37 108.80 C 44.22 110.60 50.27 109.01 55.39 105.99 C 53.14 105.11 50.86 104.28 48.59 103.44 C 63.68 99.33 79.46 100.63 94.91 100.16 C 95.22 98.55 95.52 96.94 95.81 95.32 L 96.64 95.25 M 83.93 109.78 C 88.49 109.71 93.07 109.47 97.55 108.47 C 104.18 106.98 111.09 106.80 117.57 104.62 C 106.20 100.56 94.74 106.68 83.93 109.78 M 92.63 120.64 C 94.40 119.56 96.17 118.47 97.93 117.38 C 99.14 117.83 100.34 118.29 101.55 118.74 L 101.78 117.52 C 105.27 117.76 108.72 116.74 111.49 114.60 C 114.50 115.07 117.48 116.38 120.56 115.94 C 120.34 113.54 119.42 110.71 116.71 110.21 C 107.55 108.35 97.29 112.32 92.63 120.64 M 104.34 132.19 C 100.59 133.14 98.75 136.85 96.86 139.85 C 97.18 140.44 97.81 141.61 98.13 142.20 C 97.10 143.73 96.20 145.33 95.25 146.90 C 94.79 148.08 94.36 149.27 93.95 150.48 C 91.83 152.77 90.04 155.71 87.06 156.96 C 83.74 156.20 80.76 154.22 77.33 153.88 C 75.24 155.13 73.48 156.85 71.63 158.42 C 73.68 157.60 75.65 156.41 77.88 156.18 C 84.74 156.13 91.24 158.77 98.03 159.36 C 103.07 159.76 108.24 156.97 110.57 152.46 C 113.12 147.89 112.73 142.49 112.90 137.44 C 114.50 136.85 116.08 136.20 117.66 135.55 C 113.96 132.58 109.05 130.74 104.34 132.19 M 48.09 139.06 C 46.56 143.25 47.11 147.96 47.60 152.32 C 48.76 161.69 62.48 164.86 68.63 158.51 C 68.68 157.07 68.52 155.64 68.37 154.21 C 66.76 152.13 65.25 149.98 63.80 147.79 C 62.23 144.94 60.84 141.87 58.43 139.61 C 55.62 137.07 51.23 137.22 48.09 139.06 M 107.01 159.96 C 98.42 164.19 88.58 161.38 79.45 162.66 C 83.94 165.85 89.32 163.76 94.22 163.06 C 99.94 162.00 105.49 164.23 110.95 165.59 C 112.57 163.01 114.46 160.51 115.32 157.54 C 116.03 154.33 115.67 151.01 115.60 147.76 C 112.57 151.70 110.94 156.78 107.01 159.96 Z" />
</g>
<g id="#b1aba8ff">
<path fill="#b1aba8" opacity="1.00" d=" M 83.93 109.78 C 94.74 106.68 106.20 100.56 117.57 104.62 C 111.09 106.80 104.18 106.98 97.55 108.47 C 93.07 109.47 88.49 109.71 83.93 109.78 Z" />
<path fill="#b1aba8" opacity="1.00" d=" M 99.78 117.50 C 103.24 115.22 107.37 114.21 111.49 114.60 C 108.72 116.74 105.27 117.76 101.78 117.52 C 101.28 117.52 100.28 117.51 99.78 117.50 Z" />
<path fill="#b1aba8" opacity="1.00" d=" M 107.01 159.96 C 110.94 156.78 112.57 151.70 115.60 147.76 C 115.67 151.01 116.03 154.33 115.32 157.54 C 114.46 160.51 112.57 163.01 110.95 165.59 C 105.49 164.23 99.94 162.00 94.22 163.06 C 89.32 163.76 83.94 165.85 79.45 162.66 C 88.58 161.38 98.42 164.19 107.01 159.96 Z" />
<path fill="#b1aba8" opacity="1.00" d=" M 98.29 154.18 C 99.92 153.67 100.47 154.22 99.94 155.85 C 98.31 156.36 97.76 155.80 98.29 154.18 Z" />
<path fill="#b1aba8" opacity="1.00" d=" M 94.02 166.66 C 96.95 166.28 100.09 166.00 102.87 167.22 C 106.65 169.09 108.15 173.93 107.14 177.84 C 106.26 180.28 104.14 181.93 102.41 183.74 C 93.70 183.50 85.50 179.84 76.82 179.72 C 71.15 179.83 65.39 181.79 59.77 180.20 C 56.48 179.22 55.01 175.80 53.35 173.12 C 54.02 172.78 55.36 172.10 56.02 171.76 C 62.87 172.21 69.66 174.00 76.55 173.46 C 82.92 172.93 88.49 169.56 94.02 166.66 Z" />
</g>
<g id="#dedddfff">
<path fill="#dedddf" opacity="1.00" d=" M 98.13 142.20 C 99.98 139.64 102.02 136.75 105.24 135.91 C 107.89 135.60 110.42 136.70 112.90 137.44 C 112.73 142.49 113.12 147.89 110.57 152.46 C 108.24 156.97 103.07 159.76 98.03 159.36 C 91.24 158.77 84.74 156.13 77.88 156.18 C 75.65 156.41 73.68 157.60 71.63 158.42 C 73.48 156.85 75.24 155.13 77.33 153.88 C 80.76 154.22 83.74 156.20 87.06 156.96 C 90.04 155.71 91.83 152.77 93.95 150.48 C 93.50 152.64 91.54 155.57 93.92 157.23 C 97.54 160.42 103.56 155.75 101.91 151.40 C 101.12 148.44 97.61 148.05 95.25 146.90 C 96.20 145.33 97.10 143.73 98.13 142.20 Z" />
<path fill="#dedddf" opacity="1.00" d=" M 48.09 139.06 C 51.23 137.22 55.62 137.07 58.43 139.61 C 60.84 141.87 62.23 144.94 63.80 147.79 C 62.43 148.14 61.06 148.48 59.69 148.84 C 58.97 151.40 58.02 153.95 57.81 156.63 C 59.13 158.13 61.36 159.25 63.34 158.47 C 65.28 157.41 66.74 155.67 68.37 154.21 C 68.52 155.64 68.68 157.07 68.63 158.51 C 62.48 164.86 48.76 161.69 47.60 152.32 C 47.11 147.96 46.56 143.25 48.09 139.06 Z" />
</g>
</svg>
