<?xml version="1.0" encoding="UTF-8" ?>
<!DOCTYPE svg PUBLIC "-//W3C//DTD SVG 1.1//EN" "http://www.w3.org/Graphics/SVG/1.1/DTD/svg11.dtd">
<svg width="155pt" height="210pt" viewBox="0 0 155 210" version="1.1" xmlns="http://www.w3.org/2000/svg">
<g id="#ece8d3ff">
<path fill="#ece8d3" opacity="1.00" d=" M 85.14 23.17 C 86.86 20.34 88.19 16.31 92.15 16.28 C 93.52 22.44 92.30 28.74 92.26 34.96 C 91.94 40.24 92.15 45.67 90.56 50.78 C 90.39 51.29 90.05 52.30 89.88 52.81 C 83.88 51.77 77.68 51.35 71.68 52.62 C 72.67 49.31 72.95 44.70 76.93 43.59 C 78.02 43.07 79.13 42.56 80.23 42.06 C 78.82 41.60 77.41 41.14 76.01 40.68 C 78.46 34.55 82.10 29.01 85.14 23.17 Z" />
<path fill="#ece8d3" opacity="1.00" d=" M 114.82 89.29 C 119.71 83.28 126.34 78.03 134.25 76.98 C 134.92 82.21 131.83 86.82 128.74 90.72 C 124.24 96.02 118.09 99.50 112.28 103.14 C 113.02 99.21 113.49 95.24 114.25 91.32 C 114.39 90.81 114.67 89.80 114.82 89.29 M 115.79 97.97 C 118.45 96.44 120.69 94.19 121.11 91.01 C 118.44 92.53 116.44 94.92 115.79 97.97 Z" />
<path fill="#ece8d3" opacity="1.00" d=" M 26.43 79.44 C 31.18 80.23 35.34 83.05 38.72 86.38 C 42.31 90.09 43.17 95.23 42.64 100.20 C 42.32 99.91 41.66 99.33 41.34 99.03 C 35.37 93.46 28.44 87.72 26.43 79.44 Z" />
<path fill="#ece8d3" opacity="1.00" d=" M 110.77 107.03 C 110.86 107.40 111.05 108.13 111.14 108.50 C 110.76 112.88 111.23 118.36 107.40 121.40 C 104.51 123.65 101.18 125.25 97.90 126.84 C 89.11 130.66 79.36 130.49 69.98 130.49 C 64.40 130.56 59.00 128.75 54.17 126.05 C 49.09 123.15 42.13 118.54 44.29 111.68 C 51.18 116.73 58.96 120.79 67.41 122.44 C 76.20 123.85 85.01 121.30 93.13 118.12 C 95.51 117.32 97.90 116.55 100.33 115.92 C 97.47 120.95 91.78 122.97 86.64 124.80 C 79.31 127.39 71.43 126.38 63.83 126.35 C 76.34 129.31 89.86 126.44 100.44 119.27 C 102.22 118.39 102.16 116.40 102.11 114.71 C 105.42 112.67 108.63 110.36 110.77 107.03 Z" />
<path fill="#ece8d3" opacity="1.00" d=" M 52.81 138.73 C 53.67 137.37 54.59 136.05 55.59 134.79 C 55.54 135.96 55.48 137.12 55.41 138.29 C 54.76 138.40 53.46 138.62 52.81 138.73 Z" />
<path fill="#ece8d3" opacity="1.00" d=" M 102.54 137.04 C 104.68 137.96 106.74 139.04 108.74 140.24 C 108.72 140.99 108.68 142.48 108.66 143.23 C 107.80 142.10 106.87 141.03 105.88 140.02 C 105.12 139.33 104.35 138.65 103.58 137.97 C 103.32 137.74 102.80 137.27 102.54 137.04 Z" />
<path fill="#ece8d3" opacity="1.00" d=" M 83.58 143.13 C 85.59 142.63 87.60 142.09 89.59 141.49 C 89.24 143.03 88.91 144.58 88.59 146.14 C 86.97 146.88 85.34 147.60 83.72 148.34 C 84.08 150.19 84.45 152.04 84.84 153.89 C 87.54 152.81 90.19 151.64 92.80 150.36 C 92.94 150.69 93.21 151.36 93.35 151.70 C 90.14 153.99 86.34 155.06 82.44 155.21 C 82.88 151.18 83.25 147.16 83.58 143.13 Z" />
<path fill="#ece8d3" opacity="1.00" d=" M 52.75 146.13 C 53.08 145.97 53.74 145.66 54.06 145.51 C 55.12 146.43 56.10 147.42 57.14 148.37 C 55.65 147.66 54.20 146.90 52.75 146.13 Z" />
<path fill="#ece8d3" opacity="1.00" d=" M 101.25 151.80 C 100.72 149.89 102.79 148.80 103.75 147.48 C 103.72 148.97 103.62 150.46 103.53 151.95 C 104.62 151.76 105.71 151.58 106.79 151.40 C 106.67 153.58 105.45 155.41 104.19 157.11 C 103.12 155.40 101.76 153.79 101.25 151.80 Z" />
<path fill="#ece8d3" opacity="1.00" d=" M 86.33 149.20 C 87.34 147.71 89.84 149.41 88.65 150.85 C 87.65 152.35 85.14 150.64 86.33 149.20 Z" />
<path fill="#ece8d3" opacity="1.00" d=" M 90.24 166.05 C 91.47 166.36 92.70 166.68 93.93 167.01 C 93.33 167.98 92.72 168.95 92.12 169.93 C 91.71 169.60 90.88 168.94 90.47 168.61 C 90.41 167.97 90.30 166.69 90.24 166.05 Z" />
</g>
<g id="#54504aff">
<path fill="#54504a" opacity="1.00" d=" M 76.01 40.68 C 77.41 41.14 78.82 41.60 80.23 42.06 C 79.13 42.56 78.02 43.07 76.93 43.59 C 76.63 42.62 76.32 41.65 76.01 40.68 Z" />
<path fill="#54504a" opacity="1.00" d=" M 94.36 54.79 C 95.44 51.71 97.00 48.74 99.77 46.84 C 102.11 50.27 103.48 54.49 106.92 57.06 C 109.37 58.98 111.51 61.28 113.18 63.91 C 110.85 63.65 108.52 63.39 106.19 63.13 C 107.99 68.39 111.02 73.82 109.86 79.54 C 107.31 82.37 103.30 78.84 100.79 77.37 C 97.99 78.40 95.21 79.49 92.42 80.57 C 90.97 79.36 89.61 77.97 87.87 77.17 C 85.49 77.58 83.37 78.79 81.21 79.81 C 82.07 81.78 82.92 83.75 83.77 85.72 C 80.51 87.75 76.82 89.35 74.25 92.29 C 72.49 97.31 73.30 102.82 73.22 108.04 C 73.44 111.24 73.31 115.70 76.94 117.05 C 82.10 118.92 87.75 118.40 93.13 118.12 C 85.01 121.30 76.20 123.85 67.41 122.44 C 58.96 120.79 51.18 116.73 44.29 111.68 C 43.99 110.11 43.61 108.56 43.35 106.99 C 43.01 104.74 42.79 102.47 42.64 100.20 C 43.17 95.23 42.31 90.09 38.72 86.38 C 39.76 86.80 40.79 87.24 41.83 87.68 C 41.42 82.33 40.68 76.46 43.69 71.66 C 47.64 65.43 53.39 60.23 60.13 57.18 C 63.95 55.58 67.76 53.93 71.68 52.62 C 77.68 51.35 83.88 51.77 89.88 52.81 C 90.05 52.30 90.39 51.29 90.56 50.78 C 90.72 51.56 91.04 53.12 91.20 53.91 C 92.25 54.20 93.31 54.50 94.36 54.79 M 50.17 99.86 C 50.37 102.89 49.58 106.60 52.02 108.95 C 54.91 111.83 58.96 114.14 63.17 113.20 C 62.79 112.37 62.41 111.55 62.03 110.73 C 61.54 110.74 60.57 110.77 60.09 110.79 C 59.59 107.61 56.96 105.66 54.38 104.14 C 53.73 102.21 51.58 101.22 50.17 99.86 Z" />
<path fill="#54504a" opacity="1.00" d=" M 107.41 96.21 C 109.69 94.58 111.97 92.95 114.25 91.32 C 113.49 95.24 113.02 99.21 112.28 103.14 C 111.95 104.93 111.55 106.72 111.14 108.50 C 111.05 108.13 110.86 107.40 110.77 107.03 C 109.58 103.45 108.35 99.87 107.41 96.21 Z" />
<path fill="#54504a" opacity="1.00" d=" M 86.95 102.02 C 87.55 98.29 90.60 96.01 94.05 95.03 C 92.48 98.07 90.05 100.56 86.95 102.02 Z" />
<path fill="#54504a" opacity="1.00" d=" M 74.07 148.06 C 75.33 147.10 76.82 146.51 78.23 145.83 C 77.55 149.04 76.36 152.65 72.77 153.54 C 73.05 151.72 72.25 149.28 74.07 148.06 Z" />
<path fill="#54504a" opacity="1.00" d=" M 49.15 156.24 C 49.36 155.62 49.76 154.38 49.97 153.76 C 51.88 153.68 52.13 155.96 51.32 157.23 C 50.78 156.99 49.69 156.49 49.15 156.24 Z" />
<path fill="#54504a" opacity="1.00" d=" M 106.75 157.50 C 110.25 162.52 112.77 168.27 113.71 174.34 C 113.01 174.41 111.61 174.57 110.90 174.65 C 110.16 172.69 109.13 170.87 108.12 169.05 C 107.44 171.40 106.80 173.77 106.17 176.14 C 102.30 177.22 98.53 178.64 95.00 180.56 C 97.32 175.98 98.85 171.03 99.48 165.92 C 102.08 163.27 104.61 160.55 106.75 157.50 Z" />
<path fill="#54504a" opacity="1.00" d=" M 82.31 163.32 C 86.02 160.83 90.89 161.82 94.53 159.19 C 93.48 162.98 90.16 165.09 86.83 166.69 C 87.63 168.11 88.40 169.57 89.40 170.87 C 92.08 172.04 94.40 170.10 95.48 167.76 C 95.82 171.05 96.52 174.66 94.75 177.69 C 93.19 180.81 89.54 181.63 86.59 182.87 C 87.48 180.57 88.99 178.23 88.44 175.66 C 87.79 170.98 85.00 167.05 82.31 163.32 Z" />
<path fill="#54504a" opacity="1.00" d=" M 72.08 171.07 C 74.41 171.41 76.74 171.81 79.05 172.28 C 78.32 174.10 77.56 175.90 76.78 177.70 C 75.58 177.70 74.38 177.71 73.17 177.72 C 71.96 175.69 71.37 173.40 72.08 171.07 Z" />
</g>
<g id="#151616ff">
<path fill="#151616" opacity="1.00" d=" M 106.19 63.13 C 108.52 63.39 110.85 63.65 113.18 63.91 L 114.09 64.02 C 113.82 66.26 113.71 68.60 112.63 70.64 C 111.86 72.64 110.17 74.59 110.88 76.86 C 111.80 81.11 113.25 85.24 114.82 89.29 C 114.67 89.80 114.39 90.81 114.25 91.32 C 111.97 92.95 109.69 94.58 107.41 96.21 C 108.35 99.87 109.58 103.45 110.77 107.03 C 108.63 110.36 105.42 112.67 102.11 114.71 C 102.16 116.40 102.22 118.39 100.44 119.27 C 89.86 126.44 76.34 129.31 63.83 126.35 C 71.43 126.38 79.31 127.39 86.64 124.80 C 91.78 122.97 97.47 120.95 100.33 115.92 C 97.90 116.55 95.51 117.32 93.13 118.12 C 87.75 118.40 82.10 118.92 76.94 117.05 C 73.31 115.70 73.44 111.24 73.22 108.04 C 73.30 102.82 72.49 97.31 74.25 92.29 C 76.82 89.35 80.51 87.75 83.77 85.72 C 82.92 83.75 82.07 81.78 81.21 79.81 C 83.37 78.79 85.49 77.58 87.87 77.17 C 89.61 77.97 90.97 79.36 92.42 80.57 C 95.21 79.49 97.99 78.40 100.79 77.37 C 103.30 78.84 107.31 82.37 109.86 79.54 C 111.02 73.82 107.99 68.39 106.19 63.13 M 86.95 102.02 C 90.05 100.56 92.48 98.07 94.05 95.03 C 90.60 96.01 87.55 98.29 86.95 102.02 M 94.94 101.65 C 96.33 104.35 96.91 108.30 94.39 110.45 C 91.89 112.08 89.47 110.13 87.93 108.20 C 87.11 109.42 86.27 110.63 85.65 111.96 C 85.73 113.62 87.88 113.68 89.12 113.73 C 93.60 113.51 97.47 110.55 100.20 107.18 C 102.28 104.78 100.86 101.48 100.64 98.71 C 98.56 99.32 96.65 100.33 94.94 101.65 Z" />
<path fill="#151616" opacity="1.00" d=" M 115.79 97.97 C 116.44 94.92 118.44 92.53 121.11 91.01 C 120.69 94.19 118.45 96.44 115.79 97.97 Z" />
<path fill="#151616" opacity="1.00" d=" M 54.38 104.14 C 56.96 105.66 59.59 107.61 60.09 110.79 C 58.47 110.63 56.38 111.18 55.29 109.62 C 54.45 107.93 54.67 105.96 54.38 104.14 Z" />
<path fill="#151616" opacity="1.00" d=" M 54.17 126.05 C 59.00 128.75 64.40 130.56 69.98 130.49 C 79.36 130.49 89.11 130.66 97.90 126.84 C 96.41 128.39 94.55 129.49 92.61 130.37 C 93.50 132.72 94.00 135.20 93.95 137.72 C 93.71 140.30 96.45 141.59 97.94 143.25 C 99.73 141.40 101.61 139.63 103.58 137.97 C 104.35 138.65 105.12 139.33 105.88 140.02 C 104.90 140.95 103.93 141.87 102.96 142.80 C 104.31 145.64 105.68 148.47 106.79 151.40 C 105.71 151.58 104.62 151.76 103.53 151.95 C 103.62 150.46 103.72 148.97 103.75 147.48 C 103.79 145.12 101.79 143.26 99.41 143.79 C 97.10 145.87 95.00 148.22 92.25 149.77 C 91.03 148.55 89.81 147.34 88.59 146.14 C 88.91 144.58 89.24 143.03 89.59 141.49 C 87.60 142.09 85.59 142.63 83.58 143.13 C 83.25 147.16 82.88 151.18 82.44 155.21 C 86.34 155.06 90.14 153.99 93.35 151.70 C 94.30 154.06 95.25 156.63 94.53 159.19 C 90.89 161.82 86.02 160.83 82.31 163.32 C 85.00 167.05 87.79 170.98 88.44 175.66 C 88.99 178.23 87.48 180.57 86.59 182.87 C 89.54 181.63 93.19 180.81 94.75 177.69 C 96.52 174.66 95.82 171.05 95.48 167.76 C 95.72 167.31 96.20 166.41 96.44 165.96 C 97.20 165.95 98.72 165.93 99.48 165.92 C 98.85 171.03 97.32 175.98 95.00 180.56 C 98.53 178.64 102.30 177.22 106.17 176.14 C 106.80 173.77 107.44 171.40 108.12 169.05 C 109.13 170.87 110.16 172.69 110.90 174.65 C 110.93 175.17 110.99 176.19 111.02 176.71 C 114.18 178.12 118.18 178.94 120.03 182.16 C 120.56 184.57 120.68 187.27 119.62 189.56 C 117.14 191.54 113.96 192.29 110.95 193.02 C 100.12 195.25 89.03 195.91 77.99 195.68 C 68.72 195.97 59.50 194.87 50.36 193.53 C 46.55 192.77 42.48 192.05 39.37 189.56 C 37.89 185.96 38.92 181.84 38.90 178.04 C 45.39 176.79 51.66 174.46 57.58 171.55 C 64.29 167.34 69.36 161.01 74.07 154.74 C 71.78 154.24 69.45 154.18 67.13 154.42 C 66.40 153.66 65.68 152.90 64.96 152.13 C 64.03 152.65 63.11 153.17 62.19 153.69 C 61.36 152.91 60.53 152.14 59.70 151.36 C 59.25 151.44 58.35 151.58 57.90 151.66 C 55.62 150.77 53.31 149.93 51.01 149.08 C 50.20 148.77 49.40 148.44 48.61 148.10 C 50.00 147.47 51.37 146.80 52.75 146.13 C 54.20 146.90 55.65 147.66 57.14 148.37 C 59.68 149.65 62.44 150.39 65.15 151.20 C 61.38 145.94 59.19 139.83 58.11 133.49 C 56.45 133.62 54.80 133.74 53.14 133.90 C 53.52 131.29 53.86 128.67 54.17 126.05 M 74.07 148.06 C 72.25 149.28 73.05 151.72 72.77 153.54 C 76.36 152.65 77.55 149.04 78.23 145.83 C 76.82 146.51 75.33 147.10 74.07 148.06 M 72.08 171.07 C 71.37 173.40 71.96 175.69 73.17 177.72 C 74.38 177.71 75.58 177.70 76.78 177.70 C 77.56 175.90 78.32 174.10 79.05 172.28 C 76.74 171.81 74.41 171.41 72.08 171.07 Z" />
</g>
<g id="#b40133ff">
<path fill="#b40133" opacity="1.00" d=" M 34.64 98.88 C 36.87 98.89 39.11 98.84 41.34 99.03 C 41.66 99.33 42.32 99.91 42.64 100.20 C 42.79 102.47 43.01 104.74 43.35 106.99 C 40.13 105.81 36.88 104.26 34.59 101.64 C 34.56 100.72 34.58 99.80 34.64 98.88 Z" />
<path fill="#b40133" opacity="1.00" d=" M 53.14 133.90 C 54.80 133.74 56.45 133.62 58.11 133.49 C 59.19 139.83 61.38 145.94 65.15 151.20 C 62.44 150.39 59.68 149.65 57.14 148.37 C 56.10 147.42 55.12 146.43 54.06 145.51 C 53.74 145.66 53.08 145.97 52.75 146.13 C 51.37 146.80 50.00 147.47 48.61 148.10 C 48.21 148.27 47.42 148.61 47.02 148.78 C 45.88 144.85 44.75 140.13 47.55 136.60 C 48.72 134.63 50.98 133.95 53.14 133.90 M 52.81 138.73 C 53.46 138.62 54.76 138.40 55.41 138.29 C 55.48 137.12 55.54 135.96 55.59 134.79 C 54.59 136.05 53.67 137.37 52.81 138.73 Z" />
<path fill="#b40133" opacity="1.00" d=" M 105.88 140.02 C 106.87 141.03 107.80 142.10 108.66 143.23 C 109.82 145.14 111.54 147.13 111.42 149.48 C 110.43 152.44 108.40 154.90 106.75 157.50 C 104.61 160.55 102.08 163.27 99.48 165.92 C 98.72 165.93 97.20 165.95 96.44 165.96 C 96.20 166.41 95.72 167.31 95.48 167.76 C 94.40 170.10 92.08 172.04 89.40 170.87 C 88.40 169.57 87.63 168.11 86.83 166.69 C 90.16 165.09 93.48 162.98 94.53 159.19 C 95.25 156.63 94.30 154.06 93.35 151.70 C 93.21 151.36 92.94 150.69 92.80 150.36 C 90.19 151.64 87.54 152.81 84.84 153.89 C 84.45 152.04 84.08 150.19 83.72 148.34 C 85.34 147.60 86.97 146.88 88.59 146.14 C 89.81 147.34 91.03 148.55 92.25 149.77 C 95.00 148.22 97.10 145.87 99.41 143.79 C 101.79 143.26 103.79 145.12 103.75 147.48 C 102.79 148.80 100.72 149.89 101.25 151.80 C 101.76 153.79 103.12 155.40 104.19 157.11 C 105.45 155.41 106.67 153.58 106.79 151.40 C 105.68 148.47 104.31 145.64 102.96 142.80 C 103.93 141.87 104.90 140.95 105.88 140.02 M 86.33 149.20 C 85.14 150.64 87.65 152.35 88.65 150.85 C 89.84 149.41 87.34 147.71 86.33 149.20 M 90.24 166.05 C 90.30 166.69 90.41 167.97 90.47 168.61 C 90.88 168.94 91.71 169.60 92.12 169.93 C 92.72 168.95 93.33 167.98 93.93 167.01 C 92.70 166.68 91.47 166.36 90.24 166.05 Z" />
<path fill="#b40133" opacity="1.00" d=" M 51.01 149.08 C 53.31 149.93 55.62 150.77 57.90 151.66 C 58.30 158.80 53.28 164.40 50.62 170.62 C 49.98 170.68 48.72 170.79 48.09 170.85 C 47.77 166.12 46.96 161.24 48.53 156.64 C 48.23 157.67 48.84 160.13 50.32 159.14 C 50.57 158.66 51.07 157.71 51.32 157.23 C 52.13 155.96 51.88 153.68 49.97 153.76 C 50.33 152.20 50.67 150.64 51.01 149.08 Z" />
</g>
<g id="#ffffffff">
<path fill="#ffffff" opacity="1.00" d=" M 94.94 101.65 C 96.65 100.33 98.56 99.32 100.64 98.71 C 100.86 101.48 102.28 104.78 100.20 107.18 C 97.47 110.55 93.60 113.51 89.12 113.73 C 87.88 113.68 85.73 113.62 85.65 111.96 C 86.27 110.63 87.11 109.42 87.93 108.20 C 89.47 110.13 91.89 112.08 94.39 110.45 C 96.91 108.30 96.33 104.35 94.94 101.65 Z" />
<path fill="#ffffff" opacity="1.00" d=" M 50.17 99.86 C 51.58 101.22 53.73 102.21 54.38 104.14 C 54.67 105.96 54.45 107.93 55.29 109.62 C 56.38 111.18 58.47 110.63 60.09 110.79 C 60.57 110.77 61.54 110.74 62.03 110.73 C 62.41 111.55 62.79 112.37 63.17 113.20 C 58.96 114.14 54.91 111.83 52.02 108.95 C 49.58 106.60 50.37 102.89 50.17 99.86 Z" />
<path fill="#ffffff" opacity="1.00" d=" M 49.15 156.24 C 49.69 156.49 50.78 156.99 51.32 157.23 C 51.07 157.71 50.57 158.66 50.32 159.14 C 48.84 160.13 48.23 157.67 48.53 156.64 L 49.15 156.24 Z" />
</g>
</svg>
