<?xml version="1.0" encoding="UTF-8" ?>
<!DOCTYPE svg PUBLIC "-//W3C//DTD SVG 1.1//EN" "http://www.w3.org/Graphics/SVG/1.1/DTD/svg11.dtd">
<svg width="155pt" height="210pt" viewBox="0 0 155 210" version="1.1" xmlns="http://www.w3.org/2000/svg">
<g id="#907565ff">
<path fill="#907565" opacity="1.00" d=" M 14.50 40.23 C 15.96 34.38 17.02 28.16 20.71 23.22 C 20.11 27.17 19.19 31.35 20.57 35.25 C 23.38 43.61 29.67 50.37 37.05 54.99 C 41.44 57.91 47.02 61.14 47.46 67.01 C 46.21 68.05 44.66 68.64 43.20 69.30 C 43.20 71.13 43.23 72.96 43.25 74.78 C 46.43 74.91 49.62 75.01 52.80 75.07 C 54.76 70.88 56.37 66.55 58.33 62.36 C 58.87 60.15 61.09 61.25 62.44 61.96 L 62.27 62.85 C 60.42 70.42 67.29 77.63 63.21 84.89 C 59.38 84.90 55.42 85.15 51.88 86.73 C 48.84 88.22 47.18 91.40 44.51 93.35 C 40.24 93.17 36.00 92.23 31.70 92.64 C 31.62 91.09 31.53 89.54 31.41 87.99 C 33.59 88.67 35.81 89.17 38.05 89.64 C 37.73 88.38 37.41 87.14 37.09 85.89 C 36.99 85.52 36.80 84.79 36.70 84.43 C 32.55 83.56 28.54 82.12 24.84 80.04 C 26.01 78.37 27.20 76.71 28.36 75.04 C 25.15 73.09 21.49 72.13 17.85 73.47 C 12.21 63.49 12.20 51.19 14.50 40.23 M 25.19 49.07 C 25.93 50.66 26.66 52.26 27.39 53.86 C 25.82 56.14 24.32 58.46 22.87 60.81 C 24.76 59.03 26.08 55.97 28.91 55.68 C 33.51 59.10 37.29 63.54 42.14 66.67 C 37.23 60.09 29.76 55.97 25.19 49.07 Z" />
<path fill="#907565" opacity="1.00" d=" M 134.12 61.76 C 136.50 55.69 137.68 49.16 137.57 42.63 C 141.48 53.64 142.71 66.16 138.56 77.29 C 138.33 77.06 137.87 76.60 137.65 76.36 C 136.30 74.98 134.88 73.66 133.57 72.24 C 133.10 73.41 132.62 74.58 132.14 75.76 C 130.97 76.42 129.79 77.09 128.62 77.76 C 130.16 79.48 131.69 81.21 133.16 82.99 C 129.21 85.32 124.48 85.90 120.70 88.52 C 120.01 87.97 119.29 87.46 118.59 86.95 C 118.97 85.01 119.09 83.03 119.47 81.09 C 117.96 82.31 116.47 83.67 114.68 84.43 C 110.95 85.01 107.20 84.04 103.51 83.57 C 103.51 78.70 103.48 73.83 103.07 68.97 C 105.36 71.09 107.44 74.39 110.94 74.25 C 115.97 74.21 121.57 74.12 125.62 70.69 C 128.81 68.13 132.68 65.80 134.12 61.76 Z" />
<path fill="#907565" opacity="1.00" d=" M 126.84 55.84 C 129.51 53.13 131.72 50.02 134.03 47.00 C 132.76 54.96 127.10 61.19 121.16 66.20 C 119.70 67.48 117.73 67.73 115.93 68.20 C 118.50 63.23 123.07 59.84 126.84 55.84 Z" />
<path fill="#907565" opacity="1.00" d=" M 81.31 96.05 C 83.68 95.04 87.31 93.26 89.06 96.24 C 90.53 99.33 87.65 102.28 84.53 102.02 C 83.75 101.05 83.00 100.07 82.33 99.03 C 82.07 98.28 81.56 96.79 81.31 96.05 Z" />
<path fill="#907565" opacity="1.00" d=" M 33.21 111.55 C 37.49 112.95 42.03 112.39 46.40 111.82 C 48.72 114.10 51.19 116.21 53.59 118.40 C 55.25 120.23 56.68 122.24 58.09 124.27 C 54.60 124.99 51.04 125.08 47.49 125.15 C 44.83 125.11 42.80 127.08 40.71 128.44 C 35.53 127.23 35.29 121.07 31.06 118.61 C 30.82 116.00 31.20 113.41 33.21 111.55 Z" />
<path fill="#907565" opacity="1.00" d=" M 75.85 116.13 C 77.47 115.18 79.07 114.18 80.81 113.45 C 84.20 113.57 88.22 113.57 90.63 116.39 C 93.43 119.18 93.25 123.36 93.38 127.01 C 88.49 127.11 83.59 127.43 78.78 128.37 C 82.99 128.67 87.36 128.18 91.43 129.47 C 92.64 130.69 92.97 132.45 93.74 133.93 C 90.29 133.91 86.84 133.55 83.39 133.76 C 79.44 133.98 76.45 136.91 73.55 139.27 C 72.60 138.68 71.64 138.13 70.70 137.53 C 68.10 135.80 65.87 133.60 63.48 131.61 C 66.90 127.37 71.49 124.13 74.36 119.44 C 74.89 118.35 75.37 117.24 75.85 116.13 Z" />
<path fill="#907565" opacity="1.00" d=" M 81.55 135.93 C 83.07 135.94 84.59 135.96 86.11 135.98 C 87.14 140.50 87.69 145.15 87.03 149.77 C 82.79 146.60 82.60 140.70 81.55 135.93 Z" />
<path fill="#907565" opacity="1.00" d=" M 76.49 141.47 C 79.10 141.29 81.26 142.53 82.67 144.70 C 82.05 145.13 80.81 145.99 80.19 146.42 C 78.92 144.79 77.73 143.11 76.49 141.47 Z" />
<path fill="#907565" opacity="1.00" d=" M 99.94 145.99 C 102.22 147.74 104.77 149.83 107.82 149.66 C 109.82 149.08 111.47 147.70 113.24 146.64 C 113.24 146.91 113.25 147.43 113.26 147.69 C 112.75 149.80 110.39 150.77 108.92 152.18 C 105.32 151.16 101.46 149.77 99.94 145.99 Z" />
<path fill="#907565" opacity="1.00" d=" M 66.17 154.27 C 67.01 152.31 68.69 150.89 70.10 149.35 C 70.73 150.10 71.35 150.85 71.97 151.60 C 70.39 153.99 68.87 156.42 67.25 158.78 C 66.94 157.27 66.12 155.85 66.17 154.27 Z" />
<path fill="#907565" opacity="1.00" d=" M 71.55 152.64 C 73.79 154.17 75.86 155.98 78.33 157.14 C 80.74 158.15 83.42 158.08 85.96 158.53 C 86.44 158.64 87.41 158.87 87.89 158.98 C 86.73 159.73 85.57 160.49 84.42 161.26 C 82.00 162.91 79.93 164.98 77.88 167.06 C 74.17 164.90 70.33 162.85 66.08 162.02 C 63.95 161.44 61.66 161.54 59.61 160.67 L 59.43 159.82 C 59.62 159.07 60.00 157.55 60.19 156.79 C 64.35 158.07 68.50 159.39 72.51 161.10 C 71.52 158.38 71.19 155.50 71.55 152.64 Z" />
<path fill="#907565" opacity="1.00" d=" M 95.67 163.93 C 94.42 163.41 94.40 161.83 95.58 161.22 C 95.75 161.70 96.09 162.67 96.26 163.15 L 95.67 163.93 Z" />
<path fill="#907565" opacity="1.00" d=" M 54.69 174.23 C 55.48 172.16 55.88 169.67 57.90 168.39 C 65.42 169.27 71.81 173.56 78.84 175.97 C 79.96 174.22 81.06 172.47 82.11 170.69 C 82.42 171.12 83.05 171.98 83.36 172.41 C 82.12 174.64 80.91 176.88 79.70 179.12 C 81.37 179.93 83.04 180.75 84.71 181.56 C 85.57 182.03 86.43 182.49 87.29 182.95 C 85.15 183.04 82.64 183.79 80.88 182.13 C 77.42 179.41 73.96 176.42 69.52 175.48 C 64.73 174.00 59.67 173.65 54.69 174.23 Z" />
<path fill="#907565" opacity="1.00" d=" M 37.72 187.09 C 37.61 181.14 41.91 176.03 46.35 172.54 C 46.29 177.21 43.49 181.13 40.70 184.64 C 39.72 185.47 38.72 186.28 37.72 187.09 Z" />
<path fill="#907565" opacity="1.00" d=" M 95.12 177.04 C 97.47 175.96 99.82 174.89 102.21 173.92 L 103.07 173.57 C 103.06 175.40 103.01 177.43 101.11 178.32 C 99.29 178.47 97.47 178.56 95.65 178.54 C 95.52 178.16 95.25 177.41 95.12 177.04 Z" />
<path fill="#907565" opacity="1.00" d=" M 59.34 175.07 C 62.04 175.20 64.72 175.59 67.31 176.36 C 64.67 177.58 61.79 178.12 58.94 178.56 C 59.07 177.39 59.21 176.23 59.34 175.07 Z" />
<path fill="#907565" opacity="1.00" d=" M 60.24 184.13 C 63.79 182.73 68.27 182.12 71.38 184.81 L 70.41 184.97 C 69.03 185.08 67.66 185.15 66.28 185.19 C 66.49 186.73 66.68 188.28 66.87 189.83 C 66.00 188.95 65.13 188.08 64.26 187.20 C 64.08 187.79 63.72 188.98 63.53 189.58 C 61.21 189.69 58.88 189.77 56.56 189.83 C 57.41 187.76 57.96 185.12 60.24 184.13 Z" />
</g>
<g id="#614d53ff">
<path fill="#614d53" opacity="1.00" d=" M 20.71 23.22 C 23.59 25.52 23.47 29.36 24.35 32.62 C 25.37 37.49 28.54 41.56 32.14 44.85 C 40.02 51.87 49.64 56.46 58.33 62.36 C 56.37 66.55 54.76 70.88 52.80 75.07 C 49.62 75.01 46.43 74.91 43.25 74.78 C 43.23 72.96 43.20 71.13 43.20 69.30 C 44.66 68.64 46.21 68.05 47.46 67.01 C 47.02 61.14 41.44 57.91 37.05 54.99 C 29.67 50.37 23.38 43.61 20.57 35.25 C 19.19 31.35 20.11 27.17 20.71 23.22 Z" />
<path fill="#614d53" opacity="1.00" d=" M 129.57 27.62 C 130.20 27.41 131.46 27.00 132.09 26.79 C 134.66 31.75 136.89 37.05 137.57 42.63 C 137.68 49.16 136.50 55.69 134.12 61.76 C 132.68 65.80 128.81 68.13 125.62 70.69 C 121.57 74.12 115.97 74.21 110.94 74.25 C 107.44 74.39 105.36 71.09 103.07 68.97 C 102.98 67.76 102.88 66.54 102.78 65.33 C 108.10 61.10 113.65 57.16 119.13 53.14 C 123.39 50.00 127.24 45.74 128.29 40.40 C 129.02 36.17 129.06 31.87 129.57 27.62 M 126.84 55.84 C 123.07 59.84 118.50 63.23 115.93 68.20 C 117.73 67.73 119.70 67.48 121.16 66.20 C 127.10 61.19 132.76 54.96 134.03 47.00 C 131.72 50.02 129.51 53.13 126.84 55.84 Z" />
<path fill="#614d53" opacity="1.00" d=" M 62.27 62.85 C 63.65 63.08 65.03 63.29 66.41 63.49 C 67.13 64.44 67.84 65.39 68.55 66.35 C 67.96 67.15 67.33 67.93 66.70 68.70 C 68.48 74.20 68.64 80.01 69.53 85.68 C 67.43 85.38 65.32 85.07 63.21 84.89 C 67.29 77.63 60.42 70.42 62.27 62.85 Z" />
<path fill="#614d53" opacity="1.00" d=" M 80.00 99.39 C 80.78 99.27 81.55 99.15 82.33 99.03 C 83.00 100.07 83.75 101.05 84.53 102.02 C 87.08 104.33 87.78 107.59 87.31 110.92 C 84.95 111.00 82.60 111.07 80.25 111.14 C 79.83 107.24 79.78 103.31 80.00 99.39 Z" />
<path fill="#614d53" opacity="1.00" d=" M 80.81 113.45 C 84.54 112.98 88.31 113.27 92.01 113.84 C 94.35 115.88 96.66 118.67 100.04 118.67 C 106.71 118.69 113.44 117.77 119.80 115.73 C 119.73 117.91 119.62 120.09 119.48 122.28 C 115.90 124.31 113.44 127.93 109.70 129.63 C 106.45 130.79 103.16 131.83 100.03 133.27 C 98.83 133.79 98.13 134.73 97.94 136.09 C 95.84 138.13 93.39 139.73 91.08 141.50 C 89.98 144.16 89.30 146.98 88.55 149.76 C 87.52 149.85 86.48 149.95 85.45 150.05 C 87.53 152.32 89.53 154.66 91.46 157.06 C 91.80 153.95 92.25 150.85 92.58 147.74 C 94.36 152.42 93.70 157.40 92.01 161.99 C 89.48 161.73 86.95 161.48 84.42 161.26 C 85.57 160.49 86.73 159.73 87.89 158.98 C 86.44 154.19 83.43 150.15 80.19 146.42 C 80.81 145.99 82.05 145.13 82.67 144.70 C 81.26 142.53 79.10 141.29 76.49 141.47 C 75.55 140.68 74.57 139.95 73.55 139.27 C 76.45 136.91 79.44 133.98 83.39 133.76 C 86.84 133.55 90.29 133.91 93.74 133.93 C 92.97 132.45 92.64 130.69 91.43 129.47 C 87.36 128.18 82.99 128.67 78.78 128.37 C 83.59 127.43 88.49 127.11 93.38 127.01 C 93.25 123.36 93.43 119.18 90.63 116.39 C 88.22 113.57 84.20 113.57 80.81 113.45 M 81.55 135.93 C 82.60 140.70 82.79 146.60 87.03 149.77 C 87.69 145.15 87.14 140.50 86.11 135.98 C 84.59 135.96 83.07 135.94 81.55 135.93 Z" />
<path fill="#614d53" opacity="1.00" d=" M 53.59 118.40 C 60.53 118.22 67.45 118.93 74.36 119.44 C 71.49 124.13 66.90 127.37 63.48 131.61 C 60.41 130.01 57.08 130.89 54.42 132.87 C 49.98 130.98 45.09 130.51 40.71 128.44 C 42.80 127.08 44.83 125.11 47.49 125.15 C 51.04 125.08 54.60 124.99 58.09 124.27 C 56.68 122.24 55.25 120.23 53.59 118.40 Z" />
<path fill="#614d53" opacity="1.00" d=" M 69.68 148.87 C 72.01 148.69 74.35 148.50 76.68 148.32 C 76.99 148.81 77.61 149.79 77.91 150.28 C 75.93 150.72 73.95 151.16 71.97 151.60 C 71.35 150.85 70.73 150.10 70.10 149.35 L 69.68 148.87 Z" />
<path fill="#614d53" opacity="1.00" d=" M 46.52 171.02 C 47.63 170.84 48.74 170.66 49.86 170.50 C 49.61 171.78 49.57 173.08 49.53 174.37 C 49.26 177.38 46.76 179.54 44.64 181.43 C 43.34 182.52 42.00 183.56 40.70 184.64 C 43.49 181.13 46.29 177.21 46.35 172.54 C 46.39 172.16 46.48 171.40 46.52 171.02 Z" />
<path fill="#614d53" opacity="1.00" d=" M 70.41 184.97 L 71.38 184.81 L 72.18 184.68 C 72.88 186.42 73.58 188.16 74.29 189.90 C 71.69 189.41 67.97 189.87 67.67 186.35 C 68.35 186.00 69.72 185.31 70.41 184.97 Z" />
</g>
<g id="#3c3d27ff">
<path fill="#3c3d27" opacity="1.00" d=" M 25.19 49.07 C 29.76 55.97 37.23 60.09 42.14 66.67 C 37.29 63.54 33.51 59.10 28.91 55.68 C 26.08 55.97 24.76 59.03 22.87 60.81 C 24.32 58.46 25.82 56.14 27.39 53.86 C 26.66 52.26 25.93 50.66 25.19 49.07 Z" />
<path fill="#3c3d27" opacity="1.00" d=" M 65.96 55.55 C 74.66 57.69 83.74 57.56 92.64 57.37 C 95.92 60.15 99.36 62.72 102.78 65.33 C 102.88 66.54 102.98 67.76 103.07 68.97 C 103.48 73.83 103.51 78.70 103.51 83.57 C 107.20 84.04 110.95 85.01 114.68 84.43 C 116.47 83.67 117.96 82.31 119.47 81.09 C 119.09 83.03 118.97 85.01 118.59 86.95 C 119.29 87.46 120.01 87.97 120.70 88.52 C 121.89 89.52 123.19 90.40 124.40 91.40 C 125.34 98.41 125.70 105.67 123.21 112.44 C 122.37 113.80 121.12 114.85 119.80 115.73 C 113.44 117.77 106.71 118.69 100.04 118.67 C 96.66 118.67 94.35 115.88 92.01 113.84 C 93.94 114.12 95.86 114.43 97.79 114.75 C 96.16 110.96 94.37 107.13 94.01 102.97 C 93.69 99.21 94.71 95.52 95.66 91.92 C 89.08 92.56 82.43 92.31 75.93 91.08 C 77.08 94.96 78.49 98.89 78.30 103.00 C 77.94 107.11 76.10 110.88 74.64 114.68 C 74.94 115.04 75.55 115.77 75.85 116.13 C 75.37 117.24 74.89 118.35 74.36 119.44 C 67.45 118.93 60.53 118.22 53.59 118.40 C 51.19 116.21 48.72 114.10 46.40 111.82 C 42.03 112.39 37.49 112.95 33.21 111.55 C 32.02 111.04 30.91 110.39 29.78 109.78 C 30.33 107.17 31.13 104.62 31.97 102.08 C 33.06 98.99 31.62 95.79 31.70 92.64 C 36.00 92.23 40.24 93.17 44.51 93.35 C 47.18 91.40 48.84 88.22 51.88 86.73 C 55.42 85.15 59.38 84.90 63.21 84.89 C 65.32 85.07 67.43 85.38 69.53 85.68 C 68.64 80.01 68.48 74.20 66.70 68.70 C 67.33 67.93 67.96 67.15 68.55 66.35 C 70.38 62.62 67.26 58.92 65.96 55.55 M 82.73 63.75 C 85.47 64.12 88.28 64.17 90.95 64.94 C 85.69 63.55 79.12 65.42 76.50 70.47 C 74.99 74.26 75.34 78.93 77.76 82.27 C 81.57 86.62 89.13 87.69 93.44 83.44 C 97.62 79.52 96.95 72.99 95.07 68.10 C 100.80 73.34 97.78 83.06 91.38 86.22 C 86.47 88.02 81.29 86.31 76.77 84.24 C 77.77 85.51 78.33 87.54 80.20 87.74 C 84.01 88.43 88.00 88.88 91.83 88.06 C 100.95 84.27 102.30 69.35 93.71 64.24 C 90.39 62.23 86.30 62.83 82.73 63.75 M 99.52 105.54 C 101.76 110.79 108.58 112.86 113.65 110.73 C 117.61 108.72 118.96 104.18 119.54 100.10 C 118.42 100.38 117.31 100.67 116.20 100.96 C 117.16 99.09 118.10 97.21 119.00 95.31 C 115.57 92.75 111.58 90.28 107.09 91.16 C 100.38 91.54 96.79 99.86 99.52 105.54 M 58.48 92.66 C 50.52 95.85 50.49 108.09 57.80 112.08 C 60.88 113.12 64.34 113.01 67.49 112.32 C 70.71 110.44 72.94 106.80 72.82 103.02 C 73.06 99.42 72.49 95.04 68.92 93.20 C 65.68 91.79 61.88 91.94 58.48 92.66 Z" />
<path fill="#3c3d27" opacity="1.00" d=" M 133.57 72.24 C 134.88 73.66 136.30 74.98 137.65 76.36 C 135.81 76.18 133.97 75.97 132.14 75.76 C 132.62 74.58 133.10 73.41 133.57 72.24 Z" />
<path fill="#3c3d27" opacity="1.00" d=" M 30.70 87.77 C 32.81 87.10 34.95 86.49 37.09 85.89 C 37.41 87.14 37.73 88.38 38.05 89.64 C 35.81 89.17 33.59 88.67 31.41 87.99 L 30.70 87.77 Z" />
<path fill="#3c3d27" opacity="1.00" d=" M 54.42 132.87 C 57.08 130.89 60.41 130.01 63.48 131.61 C 65.87 133.60 68.10 135.80 70.70 137.53 C 70.37 137.70 69.71 138.03 69.39 138.20 C 64.59 135.86 59.11 135.47 54.42 132.87 Z" />
<path fill="#3c3d27" opacity="1.00" d=" M 88.55 149.76 C 89.30 146.98 89.98 144.16 91.08 141.50 C 91.57 143.58 92.10 145.65 92.58 147.74 C 92.25 150.85 91.80 153.95 91.46 157.06 C 89.53 154.66 87.53 152.32 85.45 150.05 C 86.48 149.95 87.52 149.85 88.55 149.76 Z" />
<path fill="#3c3d27" opacity="1.00" d=" M 63.06 155.00 C 60.83 151.22 59.35 146.31 62.56 142.59 C 65.04 144.56 67.53 146.53 69.68 148.87 L 70.10 149.35 C 68.69 150.89 67.01 152.31 66.17 154.27 C 66.12 155.85 66.94 157.27 67.25 158.78 C 68.87 156.42 70.39 153.99 71.97 151.60 C 73.95 151.16 75.93 150.72 77.91 150.28 C 79.90 153.63 82.74 156.37 85.96 158.53 C 83.42 158.08 80.74 158.15 78.33 157.14 C 75.86 155.98 73.79 154.17 71.55 152.64 C 71.19 155.50 71.52 158.38 72.51 161.10 C 68.50 159.39 64.35 158.07 60.19 156.79 C 60.00 157.55 59.62 159.07 59.43 159.82 L 59.36 160.10 C 59.32 158.94 59.30 157.77 59.29 156.61 C 60.55 156.09 61.81 155.55 63.06 155.00 Z" />
<path fill="#3c3d27" opacity="1.00" d=" M 98.38 143.26 C 98.89 144.17 99.39 145.10 99.94 145.99 C 101.46 149.77 105.32 151.16 108.92 152.18 C 108.56 152.65 107.85 153.59 107.49 154.05 C 104.99 153.06 102.64 151.77 100.17 150.71 C 98.35 149.86 96.56 151.33 94.88 151.87 C 95.91 148.95 97.20 146.13 98.38 143.26 Z" />
<path fill="#3c3d27" opacity="1.00" d=" M 77.88 167.06 C 79.93 164.98 82.00 162.91 84.42 161.26 C 88.27 163.48 92.60 164.51 96.97 165.08 C 98.93 165.45 100.88 165.92 102.83 166.36 C 102.83 166.92 102.83 168.05 102.83 168.62 C 101.65 169.34 100.47 170.07 99.30 170.79 C 96.75 169.22 94.04 167.95 91.37 166.61 C 92.81 170.02 94.02 173.51 95.12 177.04 C 95.25 177.41 95.52 178.16 95.65 178.54 C 97.47 178.56 99.29 178.47 101.11 178.32 C 98.74 180.90 95.37 182.02 92.17 183.18 C 95.10 185.14 98.24 187.02 100.19 190.07 C 98.38 189.91 96.58 189.75 94.78 189.59 C 94.49 188.26 94.20 186.92 93.91 185.60 C 90.86 187.89 87.61 190.33 83.56 190.11 C 85.35 187.57 87.94 185.84 90.72 184.56 C 89.57 184.04 88.43 183.51 87.29 182.95 C 86.43 182.49 85.57 182.03 84.71 181.56 C 85.32 181.07 86.55 180.09 87.16 179.60 C 86.08 177.11 84.94 174.63 83.36 172.41 C 83.05 171.98 82.42 171.12 82.11 170.69 C 82.46 170.08 82.81 169.47 83.15 168.86 C 81.38 168.31 79.58 167.81 77.88 167.06 Z" />
<path fill="#3c3d27" opacity="1.00" d=" M 54.69 174.23 C 59.67 173.65 64.73 174.00 69.52 175.48 C 63.70 180.71 55.53 183.95 47.68 183.25 C 50.54 181.41 53.29 179.39 55.86 177.15 C 55.57 176.42 54.98 174.96 54.69 174.23 M 59.34 175.07 C 59.21 176.23 59.07 177.39 58.94 178.56 C 61.79 178.12 64.67 177.58 67.31 176.36 C 64.72 175.59 62.04 175.20 59.34 175.07 Z" />
</g>
<g id="#1e1e1cff">
<path fill="#1e1e1c" opacity="1.00" d=" M 62.44 61.96 C 62.94 59.51 64.43 57.46 65.96 55.55 C 67.26 58.92 70.38 62.62 68.55 66.35 C 67.84 65.39 67.13 64.44 66.41 63.49 C 65.03 63.29 63.65 63.08 62.27 62.85 L 62.44 61.96 Z" />
<path fill="#1e1e1c" opacity="1.00" d=" M 82.73 63.75 C 86.30 62.83 90.39 62.23 93.71 64.24 C 102.30 69.35 100.95 84.27 91.83 88.06 C 88.00 88.88 84.01 88.43 80.20 87.74 C 78.33 87.54 77.77 85.51 76.77 84.24 C 81.29 86.31 86.47 88.02 91.38 86.22 C 97.78 83.06 100.80 73.34 95.07 68.10 C 93.93 66.79 92.61 65.55 90.95 64.94 C 88.28 64.17 85.47 64.12 82.73 63.75 Z" />
<path fill="#1e1e1c" opacity="1.00" d=" M 75.93 91.08 C 82.43 92.31 89.08 92.56 95.66 91.92 C 94.71 95.52 93.69 99.21 94.01 102.97 C 94.37 107.13 96.16 110.96 97.79 114.75 C 95.86 114.43 93.94 114.12 92.01 113.84 C 88.31 113.27 84.54 112.98 80.81 113.45 C 79.07 114.18 77.47 115.18 75.85 116.13 C 75.55 115.77 74.94 115.04 74.64 114.68 C 76.10 110.88 77.94 107.11 78.30 103.00 C 78.49 98.89 77.08 94.96 75.93 91.08 M 81.31 96.05 C 81.56 96.79 82.07 98.28 82.33 99.03 C 81.55 99.15 80.78 99.27 80.00 99.39 C 79.78 103.31 79.83 107.24 80.25 111.14 C 82.60 111.07 84.95 111.00 87.31 110.92 C 87.78 107.59 87.08 104.33 84.53 102.02 C 87.65 102.28 90.53 99.33 89.06 96.24 C 87.31 93.26 83.68 95.04 81.31 96.05 Z" />
<path fill="#1e1e1c" opacity="1.00" d=" M 100.03 133.27 C 103.16 131.83 106.45 130.79 109.70 129.63 C 111.25 131.40 113.68 132.94 113.75 135.55 C 114.09 139.59 113.99 143.70 113.26 147.69 C 113.25 147.43 113.24 146.91 113.24 146.64 C 111.47 147.70 109.82 149.08 107.82 149.66 C 104.77 149.83 102.22 147.74 99.94 145.99 C 99.39 145.10 98.89 144.17 98.38 143.26 C 97.20 146.13 95.91 148.95 94.88 151.87 C 94.21 154.99 95.33 158.11 95.58 161.22 C 94.40 161.83 94.42 163.41 95.67 163.93 C 96.00 164.22 96.65 164.80 96.97 165.08 C 92.60 164.51 88.27 163.48 84.42 161.26 C 86.95 161.48 89.48 161.73 92.01 161.99 C 93.70 157.40 94.36 152.42 92.58 147.74 C 92.10 145.65 91.57 143.58 91.08 141.50 C 93.39 139.73 95.84 138.13 97.94 136.09 C 99.75 137.54 102.07 134.55 100.03 133.27 Z" />
<path fill="#1e1e1c" opacity="1.00" d=" M 70.70 137.53 C 71.64 138.13 72.60 138.68 73.55 139.27 C 74.57 139.95 75.55 140.68 76.49 141.47 C 77.73 143.11 78.92 144.79 80.19 146.42 C 83.43 150.15 86.44 154.19 87.89 158.98 C 87.41 158.87 86.44 158.64 85.96 158.53 C 82.74 156.37 79.90 153.63 77.91 150.28 C 77.61 149.79 76.99 148.81 76.68 148.32 C 74.35 148.50 72.01 148.69 69.68 148.87 C 67.53 146.53 65.04 144.56 62.56 142.59 C 64.82 141.11 67.03 139.54 69.39 138.20 C 69.71 138.03 70.37 137.70 70.70 137.53 Z" />
<path fill="#1e1e1c" opacity="1.00" d=" M 60.97 161.55 C 62.67 161.66 64.38 161.77 66.08 162.02 C 70.33 162.85 74.17 164.90 77.88 167.06 C 79.58 167.81 81.38 168.31 83.15 168.86 C 82.81 169.47 82.46 170.08 82.11 170.69 C 81.06 172.47 79.96 174.22 78.84 175.97 C 71.81 173.56 65.42 169.27 57.90 168.39 C 58.89 166.10 59.93 163.82 60.97 161.55 Z" />
<path fill="#1e1e1c" opacity="1.00" d=" M 91.37 166.61 C 94.04 167.95 96.75 169.22 99.30 170.79 C 100.38 171.73 101.27 172.85 102.21 173.92 C 99.82 174.89 97.47 175.96 95.12 177.04 C 94.02 173.51 92.81 170.02 91.37 166.61 Z" />
<path fill="#1e1e1c" opacity="1.00" d=" M 49.86 170.50 C 51.90 170.39 51.56 174.82 49.53 174.37 C 49.57 173.08 49.61 171.78 49.86 170.50 Z" />
<path fill="#1e1e1c" opacity="1.00" d=" M 83.36 172.41 C 84.94 174.63 86.08 177.11 87.16 179.60 C 86.55 180.09 85.32 181.07 84.71 181.56 C 83.04 180.75 81.37 179.93 79.70 179.12 C 80.91 176.88 82.12 174.64 83.36 172.41 Z" />
<path fill="#1e1e1c" opacity="1.00" d=" M 47.68 183.25 C 55.53 183.95 63.70 180.71 69.52 175.48 C 73.96 176.42 77.42 179.41 80.88 182.13 C 82.64 183.79 85.15 183.04 87.29 182.95 C 88.43 183.51 89.57 184.04 90.72 184.56 C 87.94 185.84 85.35 187.57 83.56 190.11 C 87.61 190.33 90.86 187.89 93.91 185.60 C 94.20 186.92 94.49 188.26 94.78 189.59 C 96.58 189.75 98.38 189.91 100.19 190.07 C 107.29 191.30 115.12 188.42 121.67 192.14 C 121.67 194.36 121.69 196.58 121.74 198.80 C 92.73 199.16 63.72 198.94 34.71 198.92 C 34.69 196.68 34.57 194.43 34.95 192.21 C 37.23 190.39 40.31 190.61 43.05 190.27 C 41.27 189.21 39.50 188.14 37.72 187.09 C 38.72 186.28 39.72 185.47 40.70 184.64 C 42.00 183.56 43.34 182.52 44.64 181.43 C 45.64 182.06 46.63 182.71 47.68 183.25 M 71.51 183.01 C 71.67 183.43 72.01 184.26 72.18 184.68 L 71.38 184.81 C 68.27 182.12 63.79 182.73 60.24 184.13 C 57.96 185.12 57.41 187.76 56.56 189.83 C 58.88 189.77 61.21 189.69 63.53 189.58 C 63.72 188.98 64.08 187.79 64.26 187.20 C 65.13 188.08 66.00 188.95 66.87 189.83 C 66.68 188.28 66.49 186.73 66.28 185.19 C 67.66 185.15 69.03 185.08 70.41 184.97 C 69.72 185.31 68.35 186.00 67.67 186.35 C 67.97 189.87 71.69 189.41 74.29 189.90 C 76.38 187.89 78.40 185.81 80.33 183.64 C 79.15 182.87 78.01 182.03 76.74 181.42 C 74.89 181.33 73.22 182.46 71.51 183.01 Z" />
</g>
<g id="#c1ed08ff">
<path fill="#c1ed08" opacity="1.00" d=" M 76.50 70.47 C 79.12 65.42 85.69 63.55 90.95 64.94 C 92.61 65.55 93.93 66.79 95.07 68.10 C 96.95 72.99 97.62 79.52 93.44 83.44 C 89.13 87.69 81.57 86.62 77.76 82.27 C 75.34 78.93 74.99 74.26 76.50 70.47 Z" />
<path fill="#c1ed08" opacity="1.00" d=" M 99.52 105.54 C 96.79 99.86 100.38 91.54 107.09 91.16 C 111.58 90.28 115.57 92.75 119.00 95.31 C 118.10 97.21 117.16 99.09 116.20 100.96 C 117.31 100.67 118.42 100.38 119.54 100.10 C 118.96 104.18 117.61 108.72 113.65 110.73 C 108.58 112.86 101.76 110.79 99.52 105.54 Z" />
<path fill="#c1ed08" opacity="1.00" d=" M 58.48 92.66 C 61.88 91.94 65.68 91.79 68.92 93.20 C 72.49 95.04 73.06 99.42 72.82 103.02 C 72.94 106.80 70.71 110.44 67.49 112.32 C 64.34 113.01 60.88 113.12 57.80 112.08 C 50.49 108.09 50.52 95.85 58.48 92.66 Z" />
</g>
</svg>
