<?xml version="1.0" encoding="UTF-8" ?>
<!DOCTYPE svg PUBLIC "-//W3C//DTD SVG 1.1//EN" "http://www.w3.org/Graphics/SVG/1.1/DTD/svg11.dtd">
<svg width="155pt" height="210pt" viewBox="0 0 155 210" version="1.1" xmlns="http://www.w3.org/2000/svg">
<g id="#323434ff">
<path fill="#323434" opacity="1.00" d=" M 71.03 83.94 C 74.58 83.67 78.62 82.99 81.61 85.45 C 84.29 87.79 85.19 91.42 86.85 94.44 C 84.85 95.01 82.53 95.46 81.18 97.20 C 80.12 99.37 79.87 101.81 79.41 104.16 C 77.87 103.83 76.32 103.50 74.77 103.23 C 73.89 103.07 73.01 102.94 72.12 102.82 C 74.50 101.31 77.75 100.09 78.28 96.95 C 78.93 94.06 79.41 90.78 78.01 88.04 C 76.32 85.83 73.42 85.13 71.03 83.94 Z" />
<path fill="#323434" opacity="1.00" d=" M 98.93 88.99 C 102.24 88.75 105.90 88.16 108.79 90.22 C 110.67 91.22 111.21 93.41 111.97 95.22 C 111.74 95.01 111.27 94.60 111.04 94.39 C 110.05 97.09 108.79 99.69 107.36 102.19 C 108.27 106.26 110.35 110.84 107.96 114.80 C 104.64 119.48 96.50 119.65 93.05 115.02 C 91.89 111.94 92.72 108.54 92.63 105.33 C 92.87 101.36 91.65 97.52 90.19 93.89 C 91.82 94.06 93.45 94.18 95.09 94.28 C 95.83 95.74 96.69 97.14 97.50 98.56 L 97.90 99.26 C 98.67 100.53 99.47 101.78 100.27 103.03 C 102.32 101.00 105.49 99.23 105.51 95.99 C 105.70 92.21 101.43 90.86 98.93 88.99 M 93.77 113.62 L 94.40 113.32 C 95.17 113.98 96.71 115.31 97.48 115.97 C 99.72 115.36 101.95 114.69 104.17 114.01 C 103.06 111.27 103.53 105.72 99.48 105.83 C 97.15 108.08 95.57 110.96 93.77 113.62 M 103.69 107.72 C 104.01 109.99 104.97 112.06 106.83 113.46 C 106.50 111.21 106.20 108.58 103.69 107.72 Z" />
<path fill="#323434" opacity="1.00" d=" M 113.47 96.56 C 116.77 97.43 120.86 97.51 123.02 100.56 C 123.59 104.12 123.20 107.78 121.41 110.96 C 120.39 108.02 119.70 104.97 118.52 102.08 C 117.55 99.70 115.28 98.25 113.47 96.56 Z" />
<path fill="#323434" opacity="1.00" d=" M 71.90 113.71 C 72.45 113.96 73.56 114.48 74.11 114.73 C 73.81 118.66 73.82 122.61 73.36 126.53 L 73.21 127.25 C 73.50 122.70 72.87 118.15 71.90 113.71 Z" />
<path fill="#323434" opacity="1.00" d=" M 86.63 131.61 C 87.71 127.97 88.73 124.32 89.82 120.69 C 90.03 124.08 90.25 127.47 90.37 130.86 C 91.97 130.85 93.56 130.78 95.16 130.67 C 95.76 127.53 95.50 124.30 93.71 121.58 C 97.46 121.73 101.22 121.74 104.98 121.72 C 105.22 127.07 105.18 132.43 105.40 137.79 C 105.42 138.85 105.43 139.92 105.44 140.99 C 100.17 140.44 94.97 139.39 89.88 137.93 C 91.56 137.87 93.25 137.76 94.93 137.67 C 94.54 135.92 94.14 134.18 93.73 132.45 C 91.36 132.16 89.00 131.88 86.63 131.61 Z" />
<path fill="#323434" opacity="1.00" d=" M 115.79 156.46 C 117.76 156.45 117.91 160.00 116.33 160.78 C 115.80 159.40 115.72 157.92 115.79 156.46 Z" />
<path fill="#323434" opacity="1.00" d=" M 74.34 159.22 C 75.74 159.71 77.14 160.22 78.54 160.70 C 78.05 161.85 77.55 163.01 77.05 164.17 C 76.38 164.01 75.05 163.69 74.38 163.53 C 74.36 162.09 74.35 160.65 74.34 159.22 Z" />
<path fill="#323434" opacity="1.00" d=" M 87.41 161.27 C 89.31 160.82 91.20 160.33 93.11 159.94 C 93.34 160.35 93.81 161.15 94.04 161.56 C 92.94 162.85 92.11 164.71 90.27 165.05 C 89.23 163.85 88.33 162.55 87.41 161.27 Z" />
<path fill="#323434" opacity="1.00" d=" M 128.37 173.85 C 129.61 176.00 130.91 178.16 131.54 180.59 C 128.76 183.65 125.46 186.16 121.97 188.35 C 119.35 186.33 116.85 184.16 114.67 181.66 C 120.18 181.07 124.38 177.33 128.37 173.85 Z" />
<path fill="#323434" opacity="1.00" d=" M 43.96 179.66 C 44.41 179.39 45.31 178.86 45.76 178.60 L 45.69 179.51 L 44.77 180.05 L 43.96 179.66 Z" />
<path fill="#323434" opacity="1.00" d=" M 84.97 192.22 C 91.61 191.65 98.34 191.61 104.87 190.17 C 105.49 191.08 106.09 192.01 106.67 192.95 C 103.10 192.82 100.80 195.31 99.62 198.42 C 104.82 198.64 110.03 198.59 115.22 198.93 C 119.20 199.37 123.26 199.06 127.19 199.87 C 129.58 202.00 128.33 205.84 128.79 208.71 C 95.26 208.80 61.72 208.77 28.19 208.72 C 28.29 206.06 28.13 203.35 28.77 200.75 C 29.69 199.34 31.52 199.54 32.98 199.39 C 37.86 199.26 42.74 199.41 47.63 199.32 C 52.52 199.37 57.42 199.35 62.31 199.19 C 62.21 197.17 62.08 195.16 61.92 193.16 C 69.53 191.73 77.30 192.85 84.97 192.22 M 67.17 194.59 C 66.68 196.23 66.21 197.88 65.76 199.54 C 67.41 198.94 70.97 199.63 69.97 196.83 C 69.05 196.07 68.10 195.33 67.17 194.59 M 69.57 196.39 L 69.97 196.83 C 71.34 198.11 72.96 199.40 74.95 199.32 C 80.61 199.62 86.28 199.33 91.95 199.26 C 92.41 198.23 92.85 197.20 93.28 196.16 C 85.40 197.28 77.47 196.19 69.57 196.39 Z" />
</g>
<g id="#a9a699ff">
<path fill="#a9a699" opacity="1.00" d=" M 66.14 94.91 C 65.29 90.53 68.08 86.80 71.03 83.94 C 73.42 85.13 76.32 85.83 78.01 88.04 C 79.41 90.78 78.93 94.06 78.28 96.95 C 77.75 100.09 74.50 101.31 72.12 102.82 C 69.39 100.90 66.28 98.59 66.14 94.91 M 69.84 88.97 C 69.73 91.12 69.68 93.28 69.82 95.43 C 72.23 94.52 73.68 92.52 74.50 90.16 C 72.95 89.75 71.39 89.35 69.84 88.97 Z" />
<path fill="#a9a699" opacity="1.00" d=" M 95.09 94.28 C 95.12 91.92 97.60 90.65 98.93 88.99 C 101.43 90.86 105.70 92.21 105.51 95.99 C 105.49 99.23 102.32 101.00 100.27 103.03 C 99.47 101.78 98.67 100.53 97.90 99.26 C 99.09 98.70 100.28 98.15 101.48 97.61 C 100.64 96.43 99.88 95.20 99.17 93.94 C 98.54 95.45 97.99 96.99 97.50 98.56 C 96.69 97.14 95.83 95.74 95.09 94.28 Z" />
<path fill="#a9a699" opacity="1.00" d=" M 86.85 94.44 C 87.69 94.30 89.36 94.03 90.19 93.89 C 91.65 97.52 92.87 101.36 92.63 105.33 C 92.72 108.54 91.89 111.94 93.05 115.02 C 96.50 119.65 104.64 119.48 107.96 114.80 C 110.35 110.84 108.27 106.26 107.36 102.19 C 108.79 99.69 110.05 97.09 111.04 94.39 C 111.27 94.60 111.74 95.01 111.97 95.22 C 112.35 95.56 113.10 96.22 113.47 96.56 C 115.28 98.25 117.55 99.70 118.52 102.08 C 119.70 104.97 120.39 108.02 121.41 110.96 C 123.20 107.78 123.59 104.12 123.02 100.56 C 125.70 104.86 125.75 111.12 121.52 114.46 C 118.22 117.28 113.71 116.21 109.90 115.34 C 108.20 117.41 106.53 119.53 104.98 121.72 C 101.22 121.74 97.46 121.73 93.71 121.58 C 95.50 124.30 95.76 127.53 95.16 130.67 C 93.56 130.78 91.97 130.85 90.37 130.86 C 90.25 127.47 90.03 124.08 89.82 120.69 C 88.73 124.32 87.71 127.97 86.63 131.61 C 89.00 131.88 91.36 132.16 93.73 132.45 C 94.14 134.18 94.54 135.92 94.93 137.67 C 93.25 137.76 91.56 137.87 89.88 137.93 C 87.99 137.47 86.12 136.99 84.26 136.45 C 80.54 135.18 76.65 133.96 73.56 131.45 C 72.02 130.52 73.18 128.63 73.21 127.25 L 73.36 126.53 C 74.65 123.00 75.67 119.33 75.65 115.55 C 75.26 115.35 74.49 114.94 74.11 114.73 C 73.56 114.48 72.45 113.96 71.90 113.71 C 67.55 114.30 63.40 116.40 60.91 120.11 C 59.87 119.56 58.83 119.01 57.79 118.47 C 57.34 117.45 56.90 116.44 56.45 115.43 C 59.99 113.33 63.64 110.72 67.90 110.63 C 71.03 111.21 74.11 112.07 77.31 112.25 C 76.62 109.20 75.72 106.20 74.77 103.23 C 76.32 103.50 77.87 103.83 79.41 104.16 C 79.87 101.81 80.12 99.37 81.18 97.20 C 82.53 95.46 84.85 95.01 86.85 94.44 M 82.84 105.42 C 85.27 104.60 86.82 102.68 87.73 100.36 C 86.91 99.89 85.27 98.94 84.45 98.47 C 83.07 100.53 82.79 102.99 82.84 105.42 M 109.92 102.99 C 110.43 104.74 110.94 106.49 111.44 108.24 C 112.14 106.60 112.82 104.96 113.47 103.30 C 112.58 103.22 110.81 103.07 109.92 102.99 M 82.17 120.02 C 83.10 121.33 84.03 122.65 84.96 123.97 C 85.59 122.70 86.22 121.44 86.85 120.18 C 85.29 120.13 83.73 120.07 82.17 120.02 M 78.61 129.09 C 79.95 131.10 82.10 132.01 84.42 132.34 C 83.48 129.92 80.91 129.35 78.61 129.09 Z" />
<path fill="#a9a699" opacity="1.00" d=" M 93.77 113.62 C 95.57 110.96 97.15 108.08 99.48 105.83 C 103.53 105.72 103.06 111.27 104.17 114.01 C 101.95 114.69 99.72 115.36 97.48 115.97 C 98.03 114.34 98.59 112.72 99.15 111.10 C 97.56 111.84 95.98 112.58 94.40 113.32 L 93.77 113.62 Z" />
<path fill="#a9a699" opacity="1.00" d=" M 93.11 159.94 C 97.41 159.12 101.77 158.71 106.10 158.16 C 109.11 162.99 110.19 169.64 106.36 174.35 C 103.57 178.16 98.43 178.35 94.17 177.73 C 96.82 172.67 97.84 166.33 94.04 161.56 C 93.81 161.15 93.34 160.35 93.11 159.94 Z" />
<path fill="#a9a699" opacity="1.00" d=" M 26.46 170.89 C 28.07 169.49 30.00 168.55 31.92 167.66 C 31.63 172.69 31.12 178.24 34.85 182.25 C 32.34 182.26 29.83 182.30 27.32 182.37 C 26.42 178.61 25.96 174.74 26.46 170.89 Z" />
<path fill="#a9a699" opacity="1.00" d=" M 99.62 198.42 C 100.80 195.31 103.10 192.82 106.67 192.95 C 110.18 193.76 113.65 195.51 115.22 198.93 C 110.03 198.59 104.82 198.64 99.62 198.42 Z" />
<path fill="#a9a699" opacity="1.00" d=" M 67.17 194.59 C 68.10 195.33 69.05 196.07 69.97 196.83 C 70.97 199.63 67.41 198.94 65.76 199.54 C 66.21 197.88 66.68 196.23 67.17 194.59 Z" />
</g>
<g id="#f0f6daff">
<path fill="#f0f6da" opacity="1.00" d=" M 69.84 88.97 C 71.39 89.35 72.95 89.75 74.50 90.16 C 73.68 92.52 72.23 94.52 69.82 95.43 C 69.68 93.28 69.73 91.12 69.84 88.97 Z" />
<path fill="#f0f6da" opacity="1.00" d=" M 97.50 98.56 C 97.99 96.99 98.54 95.45 99.17 93.94 C 99.88 95.20 100.64 96.43 101.48 97.61 C 100.28 98.15 99.09 98.70 97.90 99.26 L 97.50 98.56 Z" />
<path fill="#f0f6da" opacity="1.00" d=" M 82.84 105.42 C 82.79 102.99 83.07 100.53 84.45 98.47 C 85.27 98.94 86.91 99.89 87.73 100.36 C 86.82 102.68 85.27 104.60 82.84 105.42 Z" />
<path fill="#f0f6da" opacity="1.00" d=" M 109.92 102.99 C 110.81 103.07 112.58 103.22 113.47 103.30 C 112.82 104.96 112.14 106.60 111.44 108.24 C 110.94 106.49 110.43 104.74 109.92 102.99 Z" />
<path fill="#f0f6da" opacity="1.00" d=" M 94.40 113.32 C 95.98 112.58 97.56 111.84 99.15 111.10 C 98.59 112.72 98.03 114.34 97.48 115.97 C 96.71 115.31 95.17 113.98 94.40 113.32 Z" />
<path fill="#f0f6da" opacity="1.00" d=" M 82.17 120.02 C 83.73 120.07 85.29 120.13 86.85 120.18 C 86.22 121.44 85.59 122.70 84.96 123.97 C 84.03 122.65 83.10 121.33 82.17 120.02 Z" />
<path fill="#f0f6da" opacity="1.00" d=" M 58.52 123.64 C 58.89 123.07 59.27 122.51 59.64 121.94 C 61.08 123.43 62.52 124.91 63.96 126.40 C 63.18 126.59 61.62 126.98 60.85 127.17 C 60.07 125.99 59.29 124.82 58.52 123.64 Z" />
<path fill="#f0f6da" opacity="1.00" d=" M 78.61 129.09 C 80.91 129.35 83.48 129.92 84.42 132.34 C 82.10 132.01 79.95 131.10 78.61 129.09 Z" />
<path fill="#f0f6da" opacity="1.00" d=" M 61.66 154.59 C 62.79 151.94 64.42 148.50 67.93 149.11 C 71.23 148.77 71.54 152.52 71.31 154.90 C 68.09 154.86 64.87 154.78 61.66 154.59 Z" />
<path fill="#f0f6da" opacity="1.00" d=" M 58.85 155.91 C 64.04 156.86 69.24 157.83 74.34 159.22 C 74.35 160.65 74.36 162.09 74.38 163.53 C 75.05 163.69 76.38 164.01 77.05 164.17 C 77.55 163.01 78.05 161.85 78.54 160.70 C 81.38 161.75 84.46 161.98 87.41 161.27 C 88.33 162.55 89.23 163.85 90.27 165.05 C 92.11 164.71 92.94 162.85 94.04 161.56 C 97.84 166.33 96.82 172.67 94.17 177.73 C 90.75 175.82 87.64 173.43 84.67 170.89 C 83.70 170.09 82.74 169.29 81.77 168.50 C 79.18 172.13 78.01 176.48 78.15 180.92 C 74.87 181.24 71.47 181.73 68.27 180.71 C 62.24 178.88 58.13 173.12 56.63 167.23 C 55.57 163.30 57.35 159.45 58.85 155.91 Z" />
<path fill="#f0f6da" opacity="1.00" d=" M 35.37 168.33 C 37.39 166.54 40.30 166.53 42.80 165.93 C 42.13 168.51 41.43 171.08 40.72 173.65 C 38.46 173.65 36.20 173.63 33.95 173.62 C 34.39 171.87 34.32 169.87 35.37 168.33 Z" />
<path fill="#f0f6da" opacity="1.00" d=" M 50.14 177.26 C 50.39 175.13 50.94 173.05 51.90 171.14 C 53.57 173.10 53.89 175.54 53.32 177.98 C 52.52 177.80 50.93 177.44 50.14 177.26 Z" />
<path fill="#f0f6da" opacity="1.00" d=" M 55.21 194.65 C 57.45 194.15 59.66 193.58 61.92 193.16 C 62.08 195.16 62.21 197.17 62.31 199.19 C 57.42 199.35 52.52 199.37 47.63 199.32 C 48.64 197.01 50.42 193.97 53.39 194.44 C 53.85 194.49 54.76 194.60 55.21 194.65 Z" />
</g>
<g id="#f1e232ff">
<path fill="#f1e232" opacity="1.00" d=" M 60.91 120.11 C 63.40 116.40 67.55 114.30 71.90 113.71 C 72.87 118.15 73.50 122.70 73.21 127.25 C 73.18 128.63 72.02 130.52 73.56 131.45 C 76.65 133.96 80.54 135.18 84.26 136.45 C 84.41 139.43 84.37 142.59 85.86 145.28 C 87.37 148.49 89.97 151.34 90.35 154.97 C 90.18 158.28 86.43 159.27 84.13 160.84 C 83.80 157.05 83.55 153.26 83.33 149.47 C 82.41 149.45 81.49 149.42 80.57 149.40 C 79.27 153.11 77.50 156.74 74.34 159.22 C 69.24 157.83 64.04 156.86 58.85 155.91 C 57.35 159.45 55.57 163.30 56.63 167.23 C 58.13 173.12 62.24 178.88 68.27 180.71 C 71.47 181.73 74.87 181.24 78.15 180.92 C 78.01 176.48 79.18 172.13 81.77 168.50 C 82.74 169.29 83.70 170.09 84.67 170.89 C 84.84 175.85 84.41 182.01 79.68 184.84 C 74.08 186.31 68.87 182.46 63.37 182.34 C 60.30 183.40 57.82 185.64 55.14 187.40 C 52.54 184.78 50.37 181.77 48.61 178.52 C 47.66 178.56 46.71 178.58 45.76 178.60 C 45.31 178.86 44.41 179.39 43.96 179.66 C 41.16 181.17 37.92 181.54 34.85 182.25 C 31.12 178.24 31.63 172.69 31.92 167.66 L 31.95 166.80 C 36.45 165.55 41.00 164.43 45.69 164.29 C 46.46 155.97 48.44 147.56 53.57 140.77 C 51.26 138.28 47.81 135.87 48.19 132.02 C 48.64 125.68 52.22 119.99 56.45 115.43 C 56.90 116.44 57.34 117.45 57.79 118.47 C 53.95 122.15 51.65 127.03 50.88 132.27 C 53.59 133.16 56.23 134.46 59.09 134.77 C 60.97 134.61 62.51 133.31 64.15 132.50 C 63.03 130.73 61.97 128.93 60.85 127.17 C 61.62 126.98 63.18 126.59 63.96 126.40 C 62.52 124.91 61.08 123.43 59.64 121.94 C 59.96 121.49 60.60 120.57 60.91 120.11 M 61.66 154.59 C 64.87 154.78 68.09 154.86 71.31 154.90 C 71.54 152.52 71.23 148.77 67.93 149.11 C 64.42 148.50 62.79 151.94 61.66 154.59 M 35.37 168.33 C 34.32 169.87 34.39 171.87 33.95 173.62 C 36.20 173.63 38.46 173.65 40.72 173.65 C 41.43 171.08 42.13 168.51 42.80 165.93 C 40.30 166.53 37.39 166.54 35.37 168.33 M 50.14 177.26 C 50.93 177.44 52.52 177.80 53.32 177.98 C 53.89 175.54 53.57 173.10 51.90 171.14 C 50.94 173.05 50.39 175.13 50.14 177.26 Z" />
<path fill="#f1e232" opacity="1.00" d=" M 74.11 114.73 C 74.49 114.94 75.26 115.35 75.65 115.55 C 75.67 119.33 74.65 123.00 73.36 126.53 C 73.82 122.61 73.81 118.66 74.11 114.73 Z" />
<path fill="#f1e232" opacity="1.00" d=" M 23.92 178.79 C 22.94 175.85 24.99 173.23 26.46 170.89 C 25.96 174.74 26.42 178.61 27.32 182.37 C 26.13 181.24 24.72 180.26 23.92 178.79 Z" />
</g>
<g id="#c6a60cff">
<path fill="#c6a60c" opacity="1.00" d=" M 50.88 132.27 C 51.65 127.03 53.95 122.15 57.79 118.47 C 58.83 119.01 59.87 119.56 60.91 120.11 C 60.60 120.57 59.96 121.49 59.64 121.94 C 59.27 122.51 58.89 123.07 58.52 123.64 C 59.29 124.82 60.07 125.99 60.85 127.17 C 61.97 128.93 63.03 130.73 64.15 132.50 C 62.51 133.31 60.97 134.61 59.09 134.77 C 56.23 134.46 53.59 133.16 50.88 132.27 Z" />
<path fill="#c6a60c" opacity="1.00" d=" M 84.26 136.45 C 86.12 136.99 87.99 137.47 89.88 137.93 C 94.97 139.39 100.17 140.44 105.44 140.99 C 105.43 139.92 105.42 138.85 105.40 137.79 C 110.48 142.79 115.68 148.97 115.79 156.46 C 115.72 157.92 115.80 159.40 116.33 160.78 C 116.97 162.65 117.22 164.89 119.06 166.02 C 122.31 168.45 125.53 170.94 128.37 173.85 C 124.38 177.33 120.18 181.07 114.67 181.66 C 110.22 182.69 108.93 188.28 104.87 190.17 C 98.34 191.61 91.61 191.65 84.97 192.22 C 77.30 192.85 69.53 191.73 61.92 193.16 C 59.66 193.58 57.45 194.15 55.21 194.65 C 54.76 194.60 53.85 194.49 53.39 194.44 C 54.98 193.15 56.62 191.93 58.23 190.68 C 57.21 189.58 56.18 188.48 55.14 187.40 C 57.82 185.64 60.30 183.40 63.37 182.34 C 68.87 182.46 74.08 186.31 79.68 184.84 C 84.41 182.01 84.84 175.85 84.67 170.89 C 87.64 173.43 90.75 175.82 94.17 177.73 C 98.43 178.35 103.57 178.16 106.36 174.35 C 110.19 169.64 109.11 162.99 106.10 158.16 C 101.77 158.71 97.41 159.12 93.11 159.94 C 91.20 160.33 89.31 160.82 87.41 161.27 C 84.46 161.98 81.38 161.75 78.54 160.70 C 77.14 160.22 75.74 159.71 74.34 159.22 C 77.50 156.74 79.27 153.11 80.57 149.40 C 81.49 149.42 82.41 149.45 83.33 149.47 C 83.55 153.26 83.80 157.05 84.13 160.84 C 86.43 159.27 90.18 158.28 90.35 154.97 C 89.97 151.34 87.37 148.49 85.86 145.28 C 84.37 142.59 84.41 139.43 84.26 136.45 Z" />
<path fill="#c6a60c" opacity="1.00" d=" M 121.97 188.35 C 125.46 186.16 128.76 183.65 131.54 180.59 C 132.31 183.67 132.01 187.31 129.32 189.40 C 126.90 190.51 124.33 188.92 121.97 188.35 Z" />
</g>
</svg>
