<?xml version="1.0" encoding="UTF-8" ?>
<!DOCTYPE svg PUBLIC "-//W3C//DTD SVG 1.1//EN" "http://www.w3.org/Graphics/SVG/1.1/DTD/svg11.dtd">
<svg width="155pt" height="210pt" viewBox="0 0 155 210" version="1.1" xmlns="http://www.w3.org/2000/svg">
<g id="#514d4bff">
<path fill="#514d4b" opacity="1.00" d=" M 35.37 41.15 C 37.08 41.16 38.50 42.20 39.85 43.12 C 44.33 46.33 48.35 50.11 52.35 53.88 C 66.27 49.73 81.39 50.16 94.97 55.32 C 101.67 51.83 106.73 45.26 114.09 42.63 C 116.45 47.38 116.51 52.78 117.03 57.95 C 117.61 66.16 116.73 74.73 113.32 82.28 C 112.83 83.16 112.32 84.02 111.82 84.89 C 110.62 83.62 109.43 82.34 108.25 81.06 C 108.56 83.46 108.87 85.87 109.18 88.28 C 107.91 88.34 106.65 88.40 105.38 88.46 C 103.98 90.91 102.60 93.35 101.27 95.83 C 102.04 97.99 105.06 100.60 102.82 102.74 C 100.98 104.57 98.58 105.66 96.30 106.81 C 93.20 108.01 90.21 109.69 88.89 112.92 C 87.91 112.30 86.94 111.68 85.97 111.06 C 84.57 111.81 83.17 112.58 81.78 113.33 C 83.53 114.29 85.44 115.30 87.50 114.78 C 90.25 114.45 93.21 114.22 95.50 112.52 C 97.52 110.96 99.01 108.87 100.61 106.92 C 103.03 108.49 105.74 110.67 105.20 113.93 C 104.63 119.88 98.80 122.84 94.06 125.18 C 90.76 126.83 87.27 128.54 83.48 128.22 C 79.28 127.98 75.15 128.76 70.99 129.12 C 65.16 129.53 59.78 126.89 54.39 125.11 C 56.97 127.90 60.63 128.99 64.12 130.14 C 56.68 129.27 49.15 126.57 43.66 121.33 C 39.33 116.95 40.26 109.99 42.91 104.98 C 43.53 105.09 44.78 105.31 45.41 105.43 C 47.76 108.83 50.59 112.93 55.29 112.54 C 55.71 112.57 56.55 112.64 56.97 112.67 C 56.78 111.37 56.59 110.06 56.40 108.76 C 53.95 107.79 51.50 106.83 49.12 105.72 C 46.51 104.19 43.58 102.61 42.22 99.77 C 42.67 97.90 43.70 96.24 44.61 94.56 C 43.49 91.77 42.23 89.04 40.93 86.34 C 39.66 86.40 38.40 86.46 37.14 86.52 C 37.79 83.42 39.18 80.15 37.96 77.01 C 36.60 72.87 34.61 68.98 32.88 65.00 C 32.22 61.63 31.61 58.24 31.51 54.80 C 32.57 50.23 32.72 45.16 35.37 41.15 M 59.45 109.79 C 58.98 111.20 58.50 112.62 58.03 114.03 C 59.78 113.91 61.54 113.75 63.29 113.56 C 62.52 111.84 61.00 110.75 59.45 109.79 M 65.75 118.79 C 65.80 120.35 65.84 121.92 65.90 123.48 C 66.75 123.26 67.60 123.05 68.47 122.87 C 70.77 125.07 75.23 125.67 76.12 121.79 L 74.92 121.94 C 74.99 121.17 75.13 119.63 75.20 118.86 C 72.06 118.68 68.90 118.67 65.75 118.79 Z" />
<path fill="#514d4b" opacity="1.00" d=" M 18.71 77.07 C 20.45 77.61 22.18 78.22 23.90 78.84 C 23.27 81.90 22.80 84.98 22.19 88.05 C 21.97 84.12 19.38 80.90 18.71 77.07 Z" />
<path fill="#514d4b" opacity="1.00" d=" M 30.42 112.57 C 28.87 106.35 33.26 100.85 33.92 94.81 C 34.65 104.03 33.41 113.51 34.45 122.57 L 35.16 122.94 C 38.69 124.09 40.84 127.24 43.10 129.95 C 45.52 132.90 48.92 134.75 52.17 136.62 C 47.94 137.04 44.38 134.70 41.06 132.43 C 40.48 133.94 39.92 135.46 39.35 136.98 C 39.01 136.27 38.67 135.56 38.33 134.84 L 38.03 134.18 C 37.25 132.68 35.94 131.59 34.62 130.59 C 34.52 132.24 34.41 133.89 34.29 135.55 C 33.83 136.38 33.33 137.20 32.80 138.00 C 27.66 130.24 32.23 120.99 30.42 112.57 Z" />
<path fill="#514d4b" opacity="1.00" d=" M 122.64 136.82 C 124.98 137.14 127.16 136.24 128.94 134.77 C 132.60 139.45 131.24 146.85 125.86 149.56 C 124.43 150.41 122.93 151.12 121.56 152.05 C 121.55 151.73 121.52 151.08 121.50 150.76 C 123.35 148.52 125.99 147.03 127.80 144.71 C 126.29 144.65 124.78 144.61 123.27 144.57 C 121.92 141.86 120.54 139.15 119.10 136.48 C 120.28 136.61 121.46 136.72 122.64 136.82 Z" />
<path fill="#514d4b" opacity="1.00" d=" M 81.75 139.16 C 84.44 138.55 87.09 137.79 89.76 137.11 C 91.19 137.33 92.61 137.61 94.03 137.88 C 93.43 138.95 92.84 140.03 92.24 141.10 C 88.75 140.40 85.27 139.63 81.75 139.16 Z" />
<path fill="#514d4b" opacity="1.00" d=" M 19.11 141.33 C 21.23 142.84 23.49 144.14 25.84 145.28 C 26.73 145.70 27.62 146.13 28.52 146.55 C 28.56 147.63 28.60 148.72 28.64 149.81 C 28.66 150.29 28.69 151.27 28.71 151.76 L 27.88 151.70 C 26.40 151.60 24.92 151.49 23.45 151.39 C 23.78 153.41 24.13 155.42 24.45 157.44 C 24.57 158.36 24.68 159.29 24.78 160.22 C 22.93 159.49 21.06 158.80 19.18 158.14 C 17.79 154.61 15.93 151.08 16.08 147.18 C 16.37 144.93 17.86 143.13 19.11 141.33 Z" />
<path fill="#514d4b" opacity="1.00" d=" M 84.87 153.66 C 87.72 152.07 90.16 149.88 92.56 147.69 C 92.71 154.77 92.73 161.85 93.16 168.91 C 94.23 168.33 95.31 167.75 96.39 167.17 C 97.33 168.39 97.69 171.20 99.76 169.95 C 105.47 167.97 111.81 166.24 115.82 161.40 C 115.08 160.87 113.60 159.82 112.86 159.29 C 115.02 158.99 117.19 159.18 119.33 159.49 C 119.64 163.20 121.00 167.04 119.85 170.72 C 117.84 172.39 115.10 172.65 112.66 173.34 C 106.00 174.66 98.19 177.50 92.03 173.24 C 91.10 170.82 90.84 168.22 90.16 165.74 C 92.78 162.28 92.25 157.88 92.09 153.82 C 89.68 153.74 87.28 153.64 84.87 153.66 Z" />
<path fill="#514d4b" opacity="1.00" d=" M 70.33 167.56 C 70.48 164.89 70.80 162.24 71.30 159.62 C 71.81 161.77 72.12 164.00 72.99 166.05 C 74.26 167.90 76.32 168.98 78.09 170.31 C 77.76 171.16 77.43 172.02 77.10 172.88 C 73.79 172.16 69.58 171.91 68.12 168.26 C 68.67 168.08 69.77 167.73 70.33 167.56 Z" />
<path fill="#514d4b" opacity="1.00" d=" M 89.51 171.60 C 89.86 173.35 90.24 175.09 90.54 176.85 C 86.08 175.03 81.22 174.18 76.52 175.66 C 76.67 174.97 76.96 173.57 77.10 172.88 C 81.12 171.67 85.35 171.55 89.51 171.60 Z" />
<path fill="#514d4b" opacity="1.00" d=" M 75.83 182.70 C 75.92 180.34 76.08 177.98 76.52 175.66 C 76.74 176.57 77.16 178.37 77.38 179.27 C 80.44 179.21 83.58 178.36 86.57 179.40 C 87.92 178.59 89.24 177.73 90.54 176.85 C 90.50 178.76 91.27 181.37 89.60 182.75 C 85.14 184.18 80.38 183.09 75.83 182.70 Z" />
</g>
<g id="#549593ff">
<path fill="#549593" opacity="1.00" d=" M 29.82 55.68 C 30.24 55.46 31.08 55.02 31.51 54.80 C 31.61 58.24 32.22 61.63 32.88 65.00 C 33.17 67.95 33.32 70.91 33.47 73.88 C 33.18 80.49 30.13 86.56 29.59 93.13 C 28.03 110.49 28.26 127.99 25.84 145.28 C 23.49 144.14 21.23 142.84 19.11 141.33 C 17.16 139.99 15.32 138.49 13.52 136.96 C 16.53 131.30 16.39 124.73 17.42 118.56 C 18.30 113.39 18.58 108.11 19.83 103.01 C 21.69 98.21 20.68 92.94 22.19 88.05 C 22.80 84.98 23.27 81.90 23.90 78.84 C 25.73 71.09 26.95 63.12 29.82 55.68 Z" />
<path fill="#549593" opacity="1.00" d=" M 121.56 152.05 C 122.93 151.12 124.43 150.41 125.86 149.56 C 125.88 150.54 125.92 152.51 125.94 153.49 C 124.90 153.48 123.86 153.44 122.82 153.40 C 122.51 153.06 121.88 152.39 121.56 152.05 Z" />
<path fill="#549593" opacity="1.00" d=" M 18.91 162.72 C 20.68 162.39 22.44 161.88 23.91 160.79 C 24.10 162.32 24.33 163.84 24.47 165.38 C 24.58 165.77 24.80 166.55 24.91 166.94 L 25.35 167.83 C 22.21 169.96 17.96 169.61 16.04 166.07 C 16.98 164.94 17.92 163.81 18.91 162.72 Z" />
</g>
<g id="#b22c0bff">
<path fill="#b22c0b" opacity="1.00" d=" M 129.45 58.45 C 129.99 57.38 130.38 55.49 131.97 55.69 C 133.13 59.34 133.45 63.16 133.93 66.94 C 134.95 76.24 136.15 85.62 135.11 94.98 C 136.68 106.52 134.44 118.25 136.32 129.79 C 133.81 131.37 131.33 133.00 128.94 134.77 C 127.16 136.24 124.98 137.14 122.64 136.82 C 121.85 135.88 121.06 134.94 120.25 134.03 C 118.58 132.16 116.76 130.44 114.92 128.74 C 115.57 127.55 115.66 126.32 115.18 125.05 L 114.94 124.22 C 115.55 122.51 115.62 120.68 115.18 118.92 C 115.20 118.48 115.24 117.60 115.26 117.16 C 116.45 116.40 116.85 115.36 116.46 114.05 C 116.35 113.56 116.13 112.57 116.02 112.08 C 117.32 111.50 117.71 110.49 117.20 109.05 C 117.23 108.60 117.29 107.69 117.32 107.24 C 117.99 104.23 118.63 101.22 119.09 98.17 C 119.37 96.41 119.66 94.65 120.01 92.91 C 121.12 88.61 122.02 84.27 123.00 79.95 C 124.95 72.73 126.89 65.48 129.45 58.45 Z" />
<path fill="#b22c0b" opacity="1.00" d=" M 122.82 153.40 C 123.86 153.44 124.90 153.48 125.94 153.49 C 126.61 155.06 127.31 156.62 127.99 158.19 C 125.76 160.72 122.39 160.82 119.72 158.91 C 120.89 157.16 121.95 155.32 122.82 153.40 Z" />
<path fill="#b22c0b" opacity="1.00" d=" M 59.28 158.68 L 59.72 158.29 C 61.43 159.94 63.17 161.56 64.95 163.15 C 62.58 165.42 60.08 167.56 57.68 169.81 C 56.07 167.65 55.20 165.14 55.34 162.44 C 55.68 162.12 56.36 161.47 56.70 161.15 C 57.56 160.32 58.41 159.49 59.28 158.68 Z" />
</g>
<g id="#272625ff">
<path fill="#272625" opacity="1.00" d=" M 32.88 65.00 C 34.61 68.98 36.60 72.87 37.96 77.01 C 39.18 80.15 37.79 83.42 37.14 86.52 C 38.40 86.46 39.66 86.40 40.93 86.34 C 42.23 89.04 43.49 91.77 44.61 94.56 C 43.70 96.24 42.67 97.90 42.22 99.77 C 43.58 102.61 46.51 104.19 49.12 105.72 C 49.14 106.45 49.18 107.90 49.21 108.63 C 51.24 109.93 53.28 111.22 55.29 112.54 C 50.59 112.93 47.76 108.83 45.41 105.43 C 44.78 105.31 43.53 105.09 42.91 104.98 C 40.26 109.99 39.33 116.95 43.66 121.33 C 49.15 126.57 56.68 129.27 64.12 130.14 C 60.63 128.99 56.97 127.90 54.39 125.11 C 59.78 126.89 65.16 129.53 70.99 129.12 C 75.15 128.76 79.28 127.98 83.48 128.22 C 87.27 128.54 90.76 126.83 94.06 125.18 C 98.80 122.84 104.63 119.88 105.20 113.93 C 105.74 110.67 103.03 108.49 100.61 106.92 C 99.01 108.87 97.52 110.96 95.50 112.52 C 93.21 114.22 90.25 114.45 87.50 114.78 C 90.68 113.17 93.84 111.52 96.88 109.66 C 96.69 108.71 96.50 107.76 96.30 106.81 C 98.58 105.66 100.98 104.57 102.82 102.74 C 105.06 100.60 102.04 97.99 101.27 95.83 C 102.60 93.35 103.98 90.91 105.38 88.46 C 106.65 88.40 107.91 88.34 109.18 88.28 C 108.87 85.87 108.56 83.46 108.25 81.06 C 109.43 82.34 110.62 83.62 111.82 84.89 C 112.32 84.02 112.83 83.16 113.32 82.28 C 116.71 83.81 119.82 80.78 123.00 79.95 C 122.02 84.27 121.12 88.61 120.01 92.91 C 118.53 94.79 116.98 96.61 115.49 98.47 C 116.69 98.37 117.89 98.27 119.09 98.17 C 118.63 101.22 117.99 104.23 117.32 107.24 C 117.28 106.63 117.20 105.41 117.16 104.80 C 115.78 106.21 114.40 107.64 113.20 109.20 C 110.73 111.95 112.02 115.96 110.82 119.22 C 110.70 116.82 110.61 114.43 110.62 112.03 C 107.93 120.41 100.37 126.16 92.43 129.23 C 77.07 135.69 58.45 134.72 44.33 125.70 C 40.73 122.99 39.11 118.62 37.00 114.81 C 36.42 113.64 35.77 112.50 35.11 111.37 C 35.02 114.91 34.28 118.68 35.23 122.10 C 37.32 122.81 37.22 119.98 37.45 118.70 C 37.70 119.95 37.97 121.20 38.26 122.44 C 37.22 122.57 36.19 122.73 35.16 122.94 L 34.45 122.57 C 33.41 113.51 34.65 104.03 33.92 94.81 C 34.14 87.83 34.06 80.84 33.47 73.88 C 33.32 70.91 33.17 67.95 32.88 65.00 Z" />
<path fill="#272625" opacity="1.00" d=" M 116.02 112.08 C 115.63 110.79 116.03 109.78 117.20 109.05 C 117.71 110.49 117.32 111.50 116.02 112.08 Z" />
<path fill="#272625" opacity="1.00" d=" M 115.26 117.16 C 114.80 115.70 115.20 114.67 116.46 114.05 C 116.85 115.36 116.45 116.40 115.26 117.16 Z" />
<path fill="#272625" opacity="1.00" d=" M 114.94 124.22 C 113.63 122.61 113.71 120.40 115.18 118.92 C 115.62 120.68 115.55 122.51 114.94 124.22 Z" />
<path fill="#272625" opacity="1.00" d=" M 89.76 137.11 C 97.70 134.72 105.85 130.56 109.80 122.88 C 109.69 125.53 109.60 128.22 109.93 130.86 C 112.00 134.56 116.59 134.49 120.25 134.03 C 121.06 134.94 121.85 135.88 122.64 136.82 C 121.46 136.72 120.28 136.61 119.10 136.48 C 120.54 139.15 121.92 141.86 123.27 144.57 C 124.78 144.61 126.29 144.65 127.80 144.71 C 125.99 147.03 123.35 148.52 121.50 150.76 C 121.52 151.08 121.55 151.73 121.56 152.05 C 121.88 152.39 122.51 153.06 122.82 153.40 C 121.95 155.32 120.89 157.16 119.72 158.91 C 119.63 159.06 119.43 159.35 119.33 159.49 C 117.19 159.18 115.02 158.99 112.86 159.29 C 107.29 161.74 101.72 164.24 96.39 167.17 C 95.31 167.75 94.23 168.33 93.16 168.91 C 92.73 161.85 92.71 154.77 92.56 147.69 C 90.16 149.88 87.72 152.07 84.87 153.66 C 80.45 154.12 76.07 155.10 72.00 156.94 C 70.90 157.45 69.34 157.85 69.27 159.34 C 68.63 162.27 68.41 165.28 68.12 168.26 C 69.58 171.91 73.79 172.16 77.10 172.88 C 76.96 173.57 76.67 174.97 76.52 175.66 C 76.08 177.98 75.92 180.34 75.83 182.70 C 80.38 183.09 85.14 184.18 89.60 182.75 C 91.27 181.37 90.50 178.76 90.54 176.85 C 90.24 175.09 89.86 173.35 89.51 171.60 C 87.75 170.72 85.98 169.85 84.11 169.23 C 84.07 167.18 84.03 165.14 83.96 163.09 C 83.11 163.02 81.40 162.87 80.54 162.79 C 81.06 164.87 81.57 166.96 82.23 169.01 C 80.83 169.40 79.46 169.85 78.09 170.31 C 76.32 168.98 74.26 167.90 72.99 166.05 C 72.12 164.00 71.81 161.77 71.30 159.62 C 77.02 159.24 82.78 159.88 88.19 161.82 C 88.86 163.12 89.54 164.42 90.16 165.74 C 90.84 168.22 91.10 170.82 92.03 173.24 C 98.19 177.50 106.00 174.66 112.66 173.34 C 115.20 175.80 120.33 176.75 120.24 180.99 C 120.18 183.18 120.77 186.28 118.29 187.40 C 110.99 190.96 102.65 191.26 94.72 192.19 C 78.78 193.07 62.61 193.09 46.90 189.92 C 43.84 189.01 40.04 188.54 38.07 185.78 C 37.81 183.03 36.82 179.26 39.42 177.33 C 44.02 173.62 50.11 172.96 55.70 171.82 C 56.36 171.15 57.02 170.48 57.68 169.81 C 60.08 167.56 62.58 165.42 64.95 163.15 C 63.17 161.56 61.43 159.94 59.72 158.29 C 64.47 154.58 70.82 154.48 76.19 152.08 C 82.25 149.39 88.74 147.50 94.24 143.70 C 93.53 143.42 92.10 142.87 91.39 142.60 C 91.60 142.22 92.03 141.47 92.24 141.10 C 92.84 140.03 93.43 138.95 94.03 137.88 C 92.61 137.61 91.19 137.33 89.76 137.11 M 96.61 145.90 C 97.12 145.38 98.14 144.35 98.64 143.83 C 98.34 149.80 100.04 155.68 101.10 161.52 C 103.90 160.28 106.35 158.39 109.17 157.19 C 111.91 156.49 114.77 157.05 117.55 156.75 C 120.57 153.92 120.93 149.92 120.43 146.03 C 118.57 145.11 116.83 143.82 114.77 143.38 C 112.19 143.17 109.63 143.81 107.05 143.80 C 104.79 143.72 103.01 141.82 100.77 141.70 L 100.10 142.03 C 101.61 140.13 102.57 137.89 103.05 135.52 C 99.48 137.37 94.46 141.48 96.61 145.90 Z" />
<path fill="#272625" opacity="1.00" d=" M 114.92 128.74 C 113.47 127.93 113.59 125.62 115.18 125.05 C 115.66 126.32 115.57 127.55 114.92 128.74 Z" />
<path fill="#272625" opacity="1.00" d=" M 34.29 135.55 C 35.55 135.12 36.80 134.66 38.03 134.18 L 38.33 134.84 C 38.99 143.72 39.48 152.62 40.50 161.46 C 43.75 160.99 47.01 160.61 50.26 160.17 C 47.61 161.14 44.90 162.14 42.06 162.33 C 40.64 162.54 39.33 161.18 39.31 159.80 C 38.94 155.52 39.26 151.21 39.06 146.92 C 35.88 148.76 32.23 149.34 28.64 149.81 C 28.60 148.72 28.56 147.63 28.52 146.55 C 27.62 146.13 26.73 145.70 25.84 145.28 C 28.28 142.97 30.74 140.66 32.80 138.00 C 33.33 137.20 33.83 136.38 34.29 135.55 Z" />
<path fill="#272625" opacity="1.00" d=" M 23.45 151.39 C 24.92 151.49 26.40 151.60 27.88 151.70 C 27.04 153.78 26.78 156.44 24.45 157.44 C 24.13 155.42 23.78 153.41 23.45 151.39 Z" />
<path fill="#272625" opacity="1.00" d=" M 54.78 158.55 C 56.28 158.59 57.78 158.62 59.28 158.68 C 58.41 159.49 57.56 160.32 56.70 161.15 C 56.22 160.50 55.26 159.20 54.78 158.55 Z" />
<path fill="#272625" opacity="1.00" d=" M 52.03 159.53 C 52.50 159.28 53.42 158.77 53.88 158.51 C 53.62 158.86 53.10 159.56 52.84 159.91 L 52.03 159.53 Z" />
<path fill="#272625" opacity="1.00" d=" M 24.47 165.38 C 26.12 165.49 26.27 166.01 24.91 166.94 C 24.80 166.55 24.58 165.77 24.47 165.38 Z" />
</g>
<g id="#5a5f5dff">
<path fill="#5a5f5d" opacity="1.00" d=" M 33.47 73.88 C 34.06 80.84 34.14 87.83 33.92 94.81 C 33.26 100.85 28.87 106.35 30.42 112.57 C 32.23 120.99 27.66 130.24 32.80 138.00 C 30.74 140.66 28.28 142.97 25.84 145.28 C 28.26 127.99 28.03 110.49 29.59 93.13 C 30.13 86.56 33.18 80.49 33.47 73.88 Z" />
<path fill="#5a5f5d" opacity="1.00" d=" M 65.75 118.79 C 68.90 118.67 72.06 118.68 75.20 118.86 C 75.13 119.63 74.99 121.17 74.92 121.94 C 72.76 122.21 70.60 122.45 68.47 122.87 C 67.60 123.05 66.75 123.26 65.90 123.48 C 65.84 121.92 65.80 120.35 65.75 118.79 Z" />
<path fill="#5a5f5d" opacity="1.00" d=" M 39.35 136.98 C 39.92 135.46 40.48 133.94 41.06 132.43 C 44.38 134.70 47.94 137.04 52.17 136.62 C 56.80 137.77 61.35 139.30 66.12 139.75 C 71.33 140.40 76.56 139.63 81.75 139.16 C 85.27 139.63 88.75 140.40 92.24 141.10 C 92.03 141.47 91.60 142.22 91.39 142.60 C 92.10 142.87 93.53 143.42 94.24 143.70 C 88.74 147.50 82.25 149.39 76.19 152.08 C 70.82 154.48 64.47 154.58 59.72 158.29 L 59.28 158.68 C 57.78 158.62 56.28 158.59 54.78 158.55 L 53.88 158.51 C 53.42 158.77 52.50 159.28 52.03 159.53 C 51.59 159.69 50.70 160.01 50.26 160.17 C 47.01 160.61 43.75 160.99 40.50 161.46 C 39.48 152.62 38.99 143.72 38.33 134.84 C 38.67 135.56 39.01 136.27 39.35 136.98 M 40.84 134.92 C 40.64 139.62 41.57 144.33 40.86 149.01 C 40.35 152.22 41.15 155.39 41.88 158.50 C 45.94 157.88 49.95 156.92 53.93 155.91 C 61.70 153.92 69.77 152.63 76.92 148.80 C 81.32 146.36 86.20 144.79 90.27 141.78 C 86.27 142.62 82.58 144.51 78.56 145.28 C 75.16 145.92 71.74 146.48 68.39 147.36 C 63.42 143.68 57.13 142.96 51.64 140.38 C 47.96 138.72 44.54 136.54 40.84 134.92 Z" />
<path fill="#5a5f5d" opacity="1.00" d=" M 96.61 145.90 C 94.46 141.48 99.48 137.37 103.05 135.52 C 102.57 137.89 101.61 140.13 100.10 142.03 C 99.74 142.48 99.01 143.38 98.64 143.83 C 98.14 144.35 97.12 145.38 96.61 145.90 Z" />
<path fill="#5a5f5d" opacity="1.00" d=" M 72.00 156.94 C 76.07 155.10 80.45 154.12 84.87 153.66 C 87.28 153.64 89.68 153.74 92.09 153.82 C 92.25 157.88 92.78 162.28 90.16 165.74 C 89.54 164.42 88.86 163.12 88.19 161.82 C 89.14 160.46 90.08 159.11 91.03 157.75 C 84.83 156.01 78.33 156.20 72.00 156.94 Z" />
<path fill="#5a5f5d" opacity="1.00" d=" M 96.39 167.17 C 101.72 164.24 107.29 161.74 112.86 159.29 C 113.60 159.82 115.08 160.87 115.82 161.40 C 111.81 166.24 105.47 167.97 99.76 169.95 C 97.69 171.20 97.33 168.39 96.39 167.17 Z" />
<path fill="#5a5f5d" opacity="1.00" d=" M 80.54 162.79 C 81.40 162.87 83.11 163.02 83.96 163.09 C 84.03 165.14 84.07 167.18 84.11 169.23 C 83.64 169.17 82.70 169.06 82.23 169.01 C 81.57 166.96 81.06 164.87 80.54 162.79 Z" />
</g>
<g id="#e4e1c0ff">
<path fill="#e4e1c0" opacity="1.00" d=" M 49.12 105.72 C 51.50 106.83 53.95 107.79 56.40 108.76 C 56.59 110.06 56.78 111.37 56.97 112.67 C 56.55 112.64 55.71 112.57 55.29 112.54 C 53.28 111.22 51.24 109.93 49.21 108.63 C 49.18 107.90 49.14 106.45 49.12 105.72 Z" />
<path fill="#e4e1c0" opacity="1.00" d=" M 88.89 112.92 C 90.21 109.69 93.20 108.01 96.30 106.81 C 96.50 107.76 96.69 108.71 96.88 109.66 C 93.84 111.52 90.68 113.17 87.50 114.78 C 85.44 115.30 83.53 114.29 81.78 113.33 C 83.17 112.58 84.57 111.81 85.97 111.06 C 86.94 111.68 87.91 112.30 88.89 112.92 Z" />
<path fill="#e4e1c0" opacity="1.00" d=" M 59.45 109.79 C 61.00 110.75 62.52 111.84 63.29 113.56 C 61.54 113.75 59.78 113.91 58.03 114.03 C 58.50 112.62 58.98 111.20 59.45 109.79 Z" />
<path fill="#e4e1c0" opacity="1.00" d=" M 92.43 129.23 C 100.37 126.16 107.93 120.41 110.62 112.03 C 110.61 114.43 110.70 116.82 110.82 119.22 C 110.56 120.46 110.18 121.67 109.80 122.88 C 105.85 130.56 97.70 134.72 89.76 137.11 C 87.09 137.79 84.44 138.55 81.75 139.16 C 76.56 139.63 71.33 140.40 66.12 139.75 C 61.35 139.30 56.80 137.77 52.17 136.62 C 48.92 134.75 45.52 132.90 43.10 129.95 C 40.84 127.24 38.69 124.09 35.16 122.94 C 36.19 122.73 37.22 122.57 38.26 122.44 C 37.97 121.20 37.70 119.95 37.45 118.70 C 37.30 117.40 37.15 116.11 37.00 114.81 C 39.11 118.62 40.73 122.99 44.33 125.70 C 58.45 134.72 77.07 135.69 92.43 129.23 Z" />
<path fill="#e4e1c0" opacity="1.00" d=" M 68.47 122.87 C 70.60 122.45 72.76 122.21 74.92 121.94 L 76.12 121.79 C 75.23 125.67 70.77 125.07 68.47 122.87 Z" />
<path fill="#e4e1c0" opacity="1.00" d=" M 40.84 134.92 C 44.54 136.54 47.96 138.72 51.64 140.38 C 57.13 142.96 63.42 143.68 68.39 147.36 C 71.74 146.48 75.16 145.92 78.56 145.28 C 82.58 144.51 86.27 142.62 90.27 141.78 C 86.20 144.79 81.32 146.36 76.92 148.80 C 69.77 152.63 61.70 153.92 53.93 155.91 C 49.95 156.92 45.94 157.88 41.88 158.50 C 41.15 155.39 40.35 152.22 40.86 149.01 C 41.57 144.33 40.64 139.62 40.84 134.92 Z" />
<path fill="#e4e1c0" opacity="1.00" d=" M 72.00 156.94 C 78.33 156.20 84.83 156.01 91.03 157.75 C 90.08 159.11 89.14 160.46 88.19 161.82 C 82.78 159.88 77.02 159.24 71.30 159.62 C 70.80 162.24 70.48 164.89 70.33 167.56 C 69.77 167.73 68.67 168.08 68.12 168.26 C 68.41 165.28 68.63 162.27 69.27 159.34 C 69.34 157.85 70.90 157.45 72.00 156.94 Z" />
<path fill="#e4e1c0" opacity="1.00" d=" M 19.18 158.14 C 21.06 158.80 22.93 159.49 24.78 160.22 L 23.91 160.79 C 22.44 161.88 20.68 162.39 18.91 162.72 C 18.98 161.58 19.11 159.28 19.18 158.14 Z" />
<path fill="#e4e1c0" opacity="1.00" d=" M 78.09 170.31 C 79.46 169.85 80.83 169.40 82.23 169.01 C 82.70 169.06 83.64 169.17 84.11 169.23 C 85.98 169.85 87.75 170.72 89.51 171.60 C 85.35 171.55 81.12 171.67 77.10 172.88 C 77.43 172.02 77.76 171.16 78.09 170.31 Z" />
<path fill="#e4e1c0" opacity="1.00" d=" M 76.52 175.66 C 81.22 174.18 86.08 175.03 90.54 176.85 C 89.24 177.73 87.92 178.59 86.57 179.40 C 83.58 178.36 80.44 179.21 77.38 179.27 C 77.16 178.37 76.74 176.57 76.52 175.66 Z" />
</g>
</svg>
