<?xml version="1.0" encoding="UTF-8" ?>
<!DOCTYPE svg PUBLIC "-//W3C//DTD SVG 1.1//EN" "http://www.w3.org/Graphics/SVG/1.1/DTD/svg11.dtd">
<svg width="155pt" height="210pt" viewBox="0 0 155 210" version="1.1" xmlns="http://www.w3.org/2000/svg">
<g id="#9fa3adfc">
<path fill="#9fa3ad" opacity="1.00" d=" M 58.57 45.40 C 62.83 42.97 67.88 42.10 72.73 42.44 C 77.02 42.85 78.89 47.45 82.37 49.21 C 84.41 48.92 87.07 46.66 88.78 48.72 C 91.90 53.79 89.71 59.83 87.77 64.89 C 87.89 61.06 87.69 57.23 87.48 53.40 C 86.06 52.61 84.64 51.83 83.23 51.04 C 83.30 55.10 83.41 59.16 83.68 63.21 C 80.04 57.40 81.35 48.83 75.32 44.64 C 65.54 42.40 56.77 48.87 47.90 51.90 C 51.02 49.08 54.93 47.41 58.57 45.40 Z" />
<path fill="#9fa3ad" opacity="1.00" d=" M 88.96 73.08 C 90.16 69.25 91.51 63.94 96.07 63.09 C 103.19 64.09 109.86 68.07 114.84 73.19 C 120.27 78.75 118.43 87.02 118.71 94.01 C 119.06 103.81 116.73 113.59 112.10 122.23 C 111.63 122.22 110.68 122.19 110.21 122.18 C 113.28 117.22 113.03 111.23 112.17 105.69 C 114.57 101.36 116.30 96.33 114.96 91.37 C 114.32 91.22 113.02 90.93 112.37 90.79 C 114.74 86.05 114.44 80.00 111.26 75.70 C 109.35 73.10 106.26 71.85 103.31 70.84 C 99.39 69.68 94.35 67.63 91.01 71.11 C 90.30 71.75 89.62 72.40 88.96 73.08 Z" />
<path fill="#9fa3ad" opacity="1.00" d=" M 73.13 66.10 C 74.46 65.49 76.03 64.34 77.46 65.39 C 79.13 67.32 79.98 69.77 81.07 72.04 C 80.76 73.10 80.46 74.16 80.16 75.22 C 77.76 70.91 72.36 71.67 68.69 73.74 C 65.35 75.47 61.83 77.35 59.62 80.51 C 57.97 83.45 57.52 86.87 56.76 90.11 C 57.07 90.06 57.70 89.97 58.02 89.92 C 56.87 90.65 55.76 91.43 54.64 92.21 C 54.68 88.12 54.73 83.93 56.02 80.01 C 57.09 76.69 60.23 74.78 62.91 72.85 C 66.31 70.60 69.57 68.10 73.13 66.10 Z" />
<path fill="#9fa3ad" opacity="1.00" d=" M 116.08 122.09 C 119.59 116.85 122.50 111.24 124.03 105.10 C 123.56 108.31 123.17 111.53 122.79 114.75 C 123.94 116.27 125.06 117.86 125.49 119.76 C 122.45 120.83 119.39 122.32 116.08 122.09 Z" />
<path fill="#9fa3ad" opacity="1.00" d=" M 69.78 127.03 C 72.11 127.12 74.44 127.23 76.77 127.34 C 76.62 128.82 76.46 130.31 76.38 131.80 C 75.18 131.31 73.98 130.83 72.77 130.34 C 72.99 131.47 73.20 132.60 73.42 133.73 C 74.12 133.93 75.53 134.32 76.23 134.52 C 72.96 135.37 69.37 135.46 67.06 132.55 C 67.70 131.26 68.30 129.96 68.94 128.67 C 69.15 128.26 69.57 127.44 69.78 127.03 Z" />
<path fill="#9fa3ad" opacity="1.00" d=" M 82.61 127.09 C 85.56 127.18 88.61 126.91 91.47 127.80 C 93.44 129.14 93.99 131.67 94.68 133.81 C 94.30 133.97 93.54 134.30 93.16 134.46 C 90.82 132.81 88.05 132.15 85.21 132.44 C 84.69 132.30 83.64 132.03 83.12 131.89 C 82.90 130.29 82.76 128.69 82.61 127.09 Z" />
<path fill="#9fa3ad" opacity="1.00" d=" M 91.58 140.53 C 92.88 141.82 94.19 143.09 95.47 144.39 C 95.82 143.75 96.52 142.47 96.87 141.83 C 97.11 142.82 98.28 144.18 97.04 144.97 C 93.62 147.70 89.45 149.26 86.00 151.96 C 84.88 151.31 83.77 150.65 82.66 149.99 C 83.73 148.96 84.80 147.94 85.88 146.92 C 86.10 147.37 86.54 148.27 86.76 148.72 C 87.97 147.23 88.70 145.46 88.97 143.56 C 90.21 143.88 91.46 144.18 92.72 144.48 C 92.34 143.16 91.97 141.84 91.58 140.53 Z" />
<path fill="#9fa3ad" opacity="1.00" d=" M 81.70 162.37 C 81.14 159.11 84.92 159.50 87.05 158.95 C 85.97 161.02 84.00 162.17 81.70 162.37 Z" />
<path fill="#9fa3ad" opacity="1.00" d=" M 66.58 160.75 C 72.14 161.88 76.86 166.01 82.80 165.20 C 81.93 166.28 81.07 167.38 80.17 168.44 C 79.77 168.71 78.97 169.24 78.57 169.51 C 75.30 167.98 72.02 166.46 68.81 164.80 C 67.99 164.33 67.19 163.84 66.40 163.33 C 66.45 162.69 66.54 161.39 66.58 160.75 Z" />
<path fill="#9fa3ad" opacity="1.00" d=" M 81.99 173.61 C 87.05 170.82 92.02 165.94 98.30 167.99 C 97.32 170.96 96.05 174.00 93.47 175.94 C 91.28 175.66 89.10 175.39 86.90 175.23 C 84.70 175.03 82.32 175.43 81.46 177.77 C 81.22 176.36 80.74 174.71 81.99 173.61 Z" />
</g>
<g id="#d5def0ff">
<path fill="#d5def0" opacity="1.00" d=" M 82.37 49.21 C 83.76 46.69 84.95 43.41 88.04 42.60 C 97.16 41.18 107.21 44.60 112.99 51.91 C 116.95 57.30 123.52 61.33 124.59 68.39 C 125.08 75.42 123.42 82.54 124.97 89.51 C 130.38 88.68 135.41 85.83 141.01 86.23 C 138.12 94.47 130.54 99.79 124.03 105.10 C 122.50 111.24 119.59 116.85 116.08 122.09 C 115.58 122.89 115.07 123.69 114.56 124.48 C 113.91 124.58 112.62 124.78 111.97 124.88 C 112.00 124.21 112.07 122.89 112.10 122.23 C 116.73 113.59 119.06 103.81 118.71 94.01 C 118.43 87.02 120.27 78.75 114.84 73.19 C 109.86 68.07 103.19 64.09 96.07 63.09 C 91.51 63.94 90.16 69.25 88.96 73.08 C 87.69 75.96 85.92 78.67 83.10 80.23 C 82.11 78.56 81.17 76.87 80.16 75.22 C 80.46 74.16 80.76 73.10 81.07 72.04 C 82.05 74.16 83.27 76.15 84.56 78.10 C 84.27 73.97 84.17 69.83 84.10 65.69 C 84.54 67.79 85.05 69.88 85.55 71.96 C 86.31 69.61 87.04 67.25 87.77 64.89 C 89.71 59.83 91.90 53.79 88.78 48.72 C 87.07 46.66 84.41 48.92 82.37 49.21 Z" />
<path fill="#d5def0" opacity="1.00" d=" M 49.60 60.55 C 53.56 57.76 57.61 54.83 62.39 53.67 C 60.97 56.25 58.25 57.51 55.82 58.96 C 52.34 60.94 49.30 63.67 45.55 65.21 C 46.57 63.40 47.86 61.72 49.60 60.55 Z" />
<path fill="#d5def0" opacity="1.00" d=" M 91.01 71.11 C 94.35 67.63 99.39 69.68 103.31 70.84 C 99.32 72.26 95.05 72.40 91.01 71.11 Z" />
<path fill="#d5def0" opacity="1.00" d=" M 43.05 72.98 C 43.59 72.89 44.68 72.72 45.22 72.63 C 43.15 88.54 46.50 104.53 51.62 119.55 C 52.60 119.68 53.59 119.81 54.57 119.94 C 54.71 115.75 54.91 111.57 54.97 107.38 C 55.54 109.90 56.16 112.41 56.81 114.92 C 57.57 117.45 58.34 120.55 61.00 121.74 C 62.55 122.03 64.14 121.75 65.71 121.65 C 66.25 124.21 66.99 126.80 68.94 128.67 C 68.30 129.96 67.70 131.26 67.06 132.55 C 66.25 134.14 65.30 135.66 64.35 137.18 C 63.35 134.08 63.35 130.82 64.27 127.70 C 63.82 127.48 62.92 127.04 62.47 126.82 C 59.02 124.93 56.01 122.13 52.07 121.27 C 50.45 120.91 48.93 120.08 48.63 118.29 C 46.45 110.55 43.65 102.88 42.97 94.81 C 42.53 87.55 42.23 80.21 43.05 72.98 Z" />
<path fill="#d5def0" opacity="1.00" d=" M 59.62 80.51 C 61.83 77.35 65.35 75.47 68.69 73.74 C 64.52 77.32 61.58 82.05 59.33 87.02 C 61.19 87.81 63.04 88.62 64.94 89.33 C 62.62 89.35 60.31 89.55 58.02 89.92 C 57.70 89.97 57.07 90.06 56.76 90.11 C 57.52 86.87 57.97 83.45 59.62 80.51 Z" />
<path fill="#d5def0" opacity="1.00" d=" M 23.82 84.89 L 24.94 84.67 C 28.59 84.46 32.12 85.54 35.52 86.75 C 36.91 92.53 39.33 98.03 40.28 103.94 C 33.75 99.44 27.88 93.87 23.93 86.93 C 23.90 86.42 23.85 85.40 23.82 84.89 Z" />
<path fill="#d5def0" opacity="1.00" d=" M 112.17 105.69 C 113.03 111.23 113.28 117.22 110.21 122.18 C 107.57 124.68 104.37 126.59 100.94 127.78 C 99.17 128.04 97.40 128.23 95.63 128.43 C 96.17 125.22 96.86 122.04 97.82 118.94 C 100.79 120.02 104.30 122.69 107.37 120.42 C 110.23 118.70 110.64 115.23 110.39 112.21 C 110.10 109.85 111.01 107.68 112.17 105.69 Z" />
<path fill="#d5def0" opacity="1.00" d=" M 72.27 121.10 C 78.73 120.29 85.28 120.40 91.76 120.99 C 92.16 123.01 92.60 125.02 93.03 127.04 C 93.89 127.50 94.76 127.96 95.63 128.43 C 95.78 129.97 95.96 131.51 96.24 133.04 L 96.44 134.08 C 96.61 134.84 96.94 136.37 97.11 137.13 C 95.80 136.23 94.50 135.32 93.16 134.46 C 93.54 134.30 94.30 133.97 94.68 133.81 C 93.99 131.67 93.44 129.14 91.47 127.80 C 88.61 126.91 85.56 127.18 82.61 127.09 C 82.76 128.69 82.90 130.29 83.12 131.89 C 83.64 132.03 84.69 132.30 85.21 132.44 C 82.50 133.09 79.82 133.84 77.09 134.38 C 76.91 133.74 76.56 132.45 76.38 131.80 C 76.46 130.31 76.62 128.82 76.77 127.34 C 74.44 127.23 72.11 127.12 69.78 127.03 C 70.74 125.11 71.53 123.11 72.27 121.10 Z" />
<path fill="#d5def0" opacity="1.00" d=" M 96.87 141.83 C 97.70 139.84 99.94 139.40 101.73 138.68 C 103.09 140.15 104.82 141.74 104.71 143.93 C 104.08 145.63 102.91 147.06 102.10 148.67 C 101.02 150.71 100.19 152.86 99.45 155.04 C 98.18 156.90 96.14 157.85 94.08 158.56 C 93.64 157.60 93.20 156.63 92.77 155.67 C 91.05 157.47 88.92 158.48 86.46 157.44 C 88.11 155.17 89.91 153.01 91.80 150.94 C 89.52 152.72 87.19 155.42 83.98 154.38 C 84.63 153.56 85.31 152.75 86.00 151.96 C 89.45 149.26 93.62 147.70 97.04 144.97 C 98.28 144.18 97.11 142.82 96.87 141.83 Z" />
<path fill="#d5def0" opacity="1.00" d=" M 68.81 164.80 C 72.02 166.46 75.30 167.98 78.57 169.51 C 78.97 169.24 79.77 168.71 80.17 168.44 C 82.25 167.28 84.40 166.27 86.57 165.29 C 86.75 165.96 87.11 167.32 87.28 167.99 C 85.38 169.73 83.58 171.58 81.99 173.61 C 80.74 174.71 81.22 176.36 81.46 177.77 C 81.97 179.34 82.54 180.88 83.07 182.44 C 82.74 183.96 82.38 185.47 82.02 186.98 C 84.14 187.24 86.26 187.52 88.38 187.80 C 88.54 188.71 88.70 189.63 88.86 190.56 C 80.45 190.64 72.04 190.77 63.63 190.55 C 63.35 189.50 63.08 188.46 62.80 187.43 C 66.54 187.39 70.28 187.36 74.02 187.15 C 73.45 184.65 72.79 182.18 72.29 179.68 C 72.24 179.22 72.14 178.32 72.09 177.86 C 71.90 176.17 71.69 174.47 71.34 172.81 C 70.35 170.18 68.42 167.80 68.81 164.80 Z" />
<path fill="#d5def0" opacity="1.00" d=" M 29.03 187.00 C 31.56 188.90 34.48 190.44 37.72 189.48 C 40.76 189.16 43.82 189.10 46.87 189.25 C 47.96 189.68 49.03 190.15 50.10 190.61 C 46.17 190.78 42.19 190.47 38.29 191.18 C 36.41 191.52 35.52 193.44 34.31 194.71 C 32.80 191.94 29.68 190.21 29.03 187.00 Z" />
</g>
<g id="#f4f5feff">
<path fill="#f4f5fe" opacity="1.00" d=" M 47.90 51.90 C 56.77 48.87 65.54 42.40 75.32 44.64 C 81.35 48.83 80.04 57.40 83.68 63.21 C 83.79 63.83 84.00 65.07 84.10 65.69 C 84.17 69.83 84.27 73.97 84.56 78.10 C 83.27 76.15 82.05 74.16 81.07 72.04 C 79.98 69.77 79.13 67.32 77.46 65.39 C 76.03 64.34 74.46 65.49 73.13 66.10 C 69.57 68.10 66.31 70.60 62.91 72.85 C 60.23 74.78 57.09 76.69 56.02 80.01 C 54.73 83.93 54.68 88.12 54.64 92.21 C 54.65 97.26 54.65 102.33 54.97 107.38 C 54.91 111.57 54.71 115.75 54.57 119.94 C 53.59 119.81 52.60 119.68 51.62 119.55 C 46.50 104.53 43.15 88.54 45.22 72.63 C 44.68 72.72 43.59 72.89 43.05 72.98 C 42.23 80.21 42.53 87.55 42.97 94.81 C 43.65 102.88 46.45 110.55 48.63 118.29 C 48.93 120.08 50.45 120.91 52.07 121.27 C 54.26 123.87 55.47 127.10 55.34 130.52 L 54.75 131.30 C 52.77 130.11 50.82 128.86 49.11 127.29 C 47.27 124.46 46.20 121.22 44.77 118.18 C 42.88 113.56 41.30 108.82 40.28 103.94 C 39.33 98.03 36.91 92.53 35.52 86.75 C 35.91 84.16 36.48 81.61 37.02 79.05 C 38.16 73.39 40.23 67.92 40.62 62.10 C 40.89 57.66 43.83 53.64 47.90 51.90 M 49.60 60.55 C 47.86 61.72 46.57 63.40 45.55 65.21 C 49.30 63.67 52.34 60.94 55.82 58.96 C 58.25 57.51 60.97 56.25 62.39 53.67 C 57.61 54.83 53.56 57.76 49.60 60.55 Z" />
<path fill="#f4f5fe" opacity="1.00" d=" M 91.01 71.11 C 95.05 72.40 99.32 72.26 103.31 70.84 C 106.26 71.85 109.35 73.10 111.26 75.70 C 114.44 80.00 114.74 86.05 112.37 90.79 C 106.10 88.80 99.22 90.37 93.21 87.40 C 93.48 91.38 94.10 95.44 93.22 99.38 C 92.19 102.85 90.23 105.94 88.66 109.18 C 95.30 112.68 103.11 112.33 110.39 112.21 C 110.64 115.23 110.23 118.70 107.37 120.42 C 104.30 122.69 100.79 120.02 97.82 118.94 C 96.86 122.04 96.17 125.22 95.63 128.43 C 94.76 127.96 93.89 127.50 93.03 127.04 C 92.60 125.02 92.16 123.01 91.76 120.99 C 85.28 120.40 78.73 120.29 72.27 121.10 C 71.53 123.11 70.74 125.11 69.78 127.03 C 69.57 127.44 69.15 128.26 68.94 128.67 C 66.99 126.80 66.25 124.21 65.71 121.65 C 64.14 121.75 62.55 122.03 61.00 121.74 C 58.34 120.55 57.57 117.45 56.81 114.92 C 58.67 113.66 60.60 112.16 62.98 112.23 C 68.01 112.07 73.15 111.88 77.79 109.71 C 76.28 106.10 74.14 102.68 73.46 98.78 C 72.96 94.65 73.77 90.52 74.18 86.42 C 71.35 88.04 68.35 89.85 64.94 89.33 C 63.04 88.62 61.19 87.81 59.33 87.02 C 61.58 82.05 64.52 77.32 68.69 73.74 C 72.36 71.67 77.76 70.91 80.16 75.22 C 81.17 76.87 82.11 78.56 83.10 80.23 C 85.92 78.67 87.69 75.96 88.96 73.08 C 89.62 72.40 90.30 71.75 91.01 71.11 Z" />
<path fill="#f4f5fe" opacity="1.00" d=" M 85.21 132.44 C 88.05 132.15 90.82 132.81 93.16 134.46 C 94.50 135.32 95.80 136.23 97.11 137.13 C 96.94 136.37 96.61 134.84 96.44 134.08 C 97.95 135.88 99.67 137.52 101.73 138.68 C 99.94 139.40 97.70 139.84 96.87 141.83 C 96.52 142.47 95.82 143.75 95.47 144.39 C 94.19 143.09 92.88 141.82 91.58 140.53 C 91.97 141.84 92.34 143.16 92.72 144.48 C 91.46 144.18 90.21 143.88 88.97 143.56 C 88.70 145.46 87.97 147.23 86.76 148.72 C 86.54 148.27 86.10 147.37 85.88 146.92 C 84.27 143.00 80.26 140.61 76.25 139.78 C 74.95 141.05 73.94 142.56 72.70 143.88 C 70.73 145.25 68.30 145.71 66.06 146.50 C 65.42 143.40 65.00 140.27 64.35 137.18 C 65.30 135.66 66.25 134.14 67.06 132.55 C 69.37 135.46 72.96 135.37 76.23 134.52 L 77.09 134.38 C 79.82 133.84 82.50 133.09 85.21 132.44 Z" />
</g>
<g id="#433f50ff">
<path fill="#433f50" opacity="1.00" d=" M 83.23 51.04 C 84.64 51.83 86.06 52.61 87.48 53.40 C 87.69 57.23 87.89 61.06 87.77 64.89 C 87.04 67.25 86.31 69.61 85.55 71.96 C 85.05 69.88 84.54 67.79 84.10 65.69 C 84.00 65.07 83.79 63.83 83.68 63.21 C 83.41 59.16 83.30 55.10 83.23 51.04 Z" />
<path fill="#433f50" opacity="1.00" d=" M 112.99 51.91 C 120.28 56.15 126.80 64.08 125.70 73.00 C 125.26 78.50 125.97 84.06 124.97 89.51 C 123.42 82.54 125.08 75.42 124.59 68.39 C 123.52 61.33 116.95 57.30 112.99 51.91 Z" />
<path fill="#433f50" opacity="1.00" d=" M 24.94 84.67 C 29.17 83.33 34.02 82.69 37.02 79.05 C 36.48 81.61 35.91 84.16 35.52 86.75 C 32.12 85.54 28.59 84.46 24.94 84.67 Z" />
<path fill="#433f50" opacity="1.00" d=" M 64.94 89.33 C 68.35 89.85 71.35 88.04 74.18 86.42 C 73.77 90.52 72.96 94.65 73.46 98.78 C 74.14 102.68 76.28 106.10 77.79 109.71 C 73.15 111.88 68.01 112.07 62.98 112.23 C 60.60 112.16 58.67 113.66 56.81 114.92 C 56.16 112.41 55.54 109.90 54.97 107.38 C 54.65 102.33 54.65 97.26 54.64 92.21 C 55.76 91.43 56.87 90.65 58.02 89.92 C 60.31 89.55 62.62 89.35 64.94 89.33 M 58.27 97.32 C 58.07 100.98 57.69 105.51 61.09 107.92 C 63.70 109.95 68.83 111.09 70.54 107.41 C 72.55 104.21 70.35 100.28 68.32 97.66 C 65.35 95.70 61.44 96.02 58.27 97.32 Z" />
<path fill="#433f50" opacity="1.00" d=" M 93.21 87.40 C 99.22 90.37 106.10 88.80 112.37 90.79 C 113.02 90.93 114.32 91.22 114.96 91.37 C 116.30 96.33 114.57 101.36 112.17 105.69 C 111.01 107.68 110.10 109.85 110.39 112.21 C 103.11 112.33 95.30 112.68 88.66 109.18 C 90.23 105.94 92.19 102.85 93.22 99.38 C 94.10 95.44 93.48 91.38 93.21 87.40 M 101.56 96.60 C 97.11 98.10 94.12 103.44 96.09 107.89 C 96.81 109.82 99.22 109.74 100.92 109.74 C 106.29 109.63 111.21 103.00 108.07 98.07 C 107.09 95.39 103.71 95.87 101.56 96.60 Z" />
<path fill="#433f50" opacity="1.00" d=" M 52.07 121.27 C 56.01 122.13 59.02 124.93 62.47 126.82 C 60.12 128.10 57.72 129.29 55.34 130.52 C 55.47 127.10 54.26 123.87 52.07 121.27 Z" />
<path fill="#433f50" opacity="1.00" d=" M 95.63 128.43 C 97.40 128.23 99.17 128.04 100.94 127.78 C 100.05 130.05 97.85 131.33 96.24 133.04 C 95.96 131.51 95.78 129.97 95.63 128.43 Z" />
<path fill="#433f50" opacity="1.00" d=" M 72.77 130.34 C 73.98 130.83 75.18 131.31 76.38 131.80 C 76.56 132.45 76.91 133.74 77.09 134.38 L 76.23 134.52 C 75.53 134.32 74.12 133.93 73.42 133.73 C 73.20 132.60 72.99 131.47 72.77 130.34 Z" />
<path fill="#433f50" opacity="1.00" d=" M 72.70 143.88 C 73.94 142.56 74.95 141.05 76.25 139.78 C 80.26 140.61 84.27 143.00 85.88 146.92 C 84.80 147.94 83.73 148.96 82.66 149.99 C 83.77 150.65 84.88 151.31 86.00 151.96 C 85.31 152.75 84.63 153.56 83.98 154.38 C 87.19 155.42 89.52 152.72 91.80 150.94 C 89.91 153.01 88.11 155.17 86.46 157.44 C 88.92 158.48 91.05 157.47 92.77 155.67 C 93.20 156.63 93.64 157.60 94.08 158.56 C 92.36 162.06 90.36 165.51 87.28 167.99 C 87.11 167.32 86.75 165.96 86.57 165.29 C 84.40 166.27 82.25 167.28 80.17 168.44 C 81.07 167.38 81.93 166.28 82.80 165.20 C 76.86 166.01 72.14 161.88 66.58 160.75 C 66.54 161.39 66.45 162.69 66.40 163.33 C 63.05 161.22 65.02 156.91 66.14 154.07 C 67.50 151.67 66.56 148.98 66.06 146.50 C 68.30 145.71 70.73 145.25 72.70 143.88 M 70.94 158.90 C 71.25 159.43 71.88 160.49 72.19 161.02 C 73.50 161.30 74.80 161.58 76.11 161.84 C 75.74 159.20 73.43 157.46 70.94 158.90 M 81.70 162.37 C 84.00 162.17 85.97 161.02 87.05 158.95 C 84.92 159.50 81.14 159.11 81.70 162.37 Z" />
<path fill="#433f50" opacity="1.00" d=" M 99.45 155.04 C 100.19 152.86 101.02 150.71 102.10 148.67 C 104.91 151.81 105.09 156.04 104.70 160.02 C 104.02 166.01 106.73 171.58 107.29 177.44 C 107.80 181.21 107.61 185.60 110.61 188.42 C 113.53 190.90 117.76 189.44 120.99 191.00 C 123.14 192.71 125.06 197.19 121.83 198.80 C 119.24 199.20 116.61 199.03 114.00 199.04 C 87.62 198.90 61.24 199.15 34.87 198.92 C 34.68 197.51 34.49 196.11 34.31 194.71 C 35.52 193.44 36.41 191.52 38.29 191.18 C 42.19 190.47 46.17 190.78 50.10 190.61 C 49.03 190.15 47.96 189.68 46.87 189.25 C 48.64 189.43 50.54 189.20 52.21 189.95 C 53.72 191.15 55.12 192.48 56.71 193.59 C 58.03 191.56 59.30 189.50 60.60 187.46 C 61.15 187.45 62.25 187.44 62.80 187.43 C 63.08 188.46 63.35 189.50 63.63 190.55 C 72.04 190.77 80.45 190.64 88.86 190.56 C 88.70 189.63 88.54 188.71 88.38 187.80 C 86.26 187.52 84.14 187.24 82.02 186.98 C 82.38 185.47 82.74 183.96 83.07 182.44 L 83.33 183.17 C 83.44 183.49 83.66 184.13 83.77 184.45 C 89.98 183.23 96.42 184.03 102.56 182.38 C 102.82 173.15 100.08 164.20 99.45 155.04 Z" />
<path fill="#433f50" opacity="1.00" d=" M 86.90 175.23 C 89.10 175.39 91.28 175.66 93.47 175.94 C 92.39 176.59 91.28 177.21 90.18 177.83 C 89.08 176.96 87.99 176.10 86.90 175.23 Z" />
<path fill="#433f50" opacity="1.00" d=" M 57.81 180.51 C 62.37 178.79 67.21 177.89 72.09 177.86 C 72.14 178.32 72.24 179.22 72.29 179.68 C 68.25 182.71 61.48 185.65 57.81 180.51 Z" />
</g>
<g id="#c88774fe">
<path fill="#c88774" opacity="1.00" d=" M 23.93 86.93 C 27.88 93.87 33.75 99.44 40.28 103.94 C 41.30 108.82 42.88 113.56 44.77 118.18 C 40.67 114.93 38.09 110.25 34.14 106.86 C 30.26 103.40 26.83 99.40 24.16 94.94 C 22.74 92.49 23.49 89.54 23.93 86.93 Z" />
<path fill="#c88774" opacity="1.00" d=" M 58.27 97.32 C 61.44 96.02 65.35 95.70 68.32 97.66 C 70.35 100.28 72.55 104.21 70.54 107.41 C 68.83 111.09 63.70 109.95 61.09 107.92 C 57.69 105.51 58.07 100.98 58.27 97.32 Z" />
<path fill="#c88774" opacity="1.00" d=" M 101.56 96.60 C 103.71 95.87 107.09 95.39 108.07 98.07 C 111.21 103.00 106.29 109.63 100.92 109.74 C 99.22 109.74 96.81 109.82 96.09 107.89 C 94.12 103.44 97.11 98.10 101.56 96.60 Z" />
<path fill="#c88774" opacity="1.00" d=" M 49.11 127.29 C 50.82 128.86 52.77 130.11 54.75 131.30 C 47.23 145.13 42.84 160.38 39.46 175.68 C 38.43 180.21 36.59 184.78 37.72 189.48 C 34.48 190.44 31.56 188.90 29.03 187.00 C 29.33 184.04 29.20 180.98 30.23 178.15 C 31.84 173.59 34.62 169.55 36.04 164.91 C 37.42 160.04 40.53 155.94 42.20 151.18 C 43.87 146.40 47.44 142.50 48.59 137.50 C 49.66 134.20 49.35 130.70 49.11 127.29 Z" />
<path fill="#c88774" opacity="1.00" d=" M 70.94 158.90 C 73.43 157.46 75.74 159.20 76.11 161.84 C 74.80 161.58 73.50 161.30 72.19 161.02 C 71.88 160.49 71.25 159.43 70.94 158.90 Z" />
<path fill="#c88774" opacity="1.00" d=" M 56.38 168.28 C 59.16 168.24 62.10 168.18 64.62 169.55 C 66.98 170.91 68.87 172.90 70.95 174.63 C 71.05 174.17 71.24 173.26 71.34 172.81 C 71.69 174.47 71.90 176.17 72.09 177.86 C 67.21 177.89 62.37 178.79 57.81 180.51 C 55.68 176.78 55.41 172.40 56.38 168.28 Z" />
<path fill="#c88774" opacity="1.00" d=" M 98.30 167.99 L 99.24 168.23 C 99.35 172.63 99.06 178.44 94.60 180.70 C 91.02 181.02 87.56 179.64 84.09 178.97 C 83.81 180.37 83.56 181.77 83.33 183.17 L 83.07 182.44 C 82.54 180.88 81.97 179.34 81.46 177.77 C 82.32 175.43 84.70 175.03 86.90 175.23 C 87.99 176.10 89.08 176.96 90.18 177.83 C 91.28 177.21 92.39 176.59 93.47 175.94 C 96.05 174.00 97.32 170.96 98.30 167.99 Z" />
</g>
<g id="#382d3aff">
<path fill="#382d3a" opacity="1.00" d=" M 55.34 130.52 C 57.72 129.29 60.12 128.10 62.47 126.82 C 62.92 127.04 63.82 127.48 64.27 127.70 C 63.35 130.82 63.35 134.08 64.35 137.18 C 65.00 140.27 65.42 143.40 66.06 146.50 C 66.56 148.98 67.50 151.67 66.14 154.07 C 65.02 156.91 63.05 161.22 66.40 163.33 C 67.19 163.84 67.99 164.33 68.81 164.80 C 68.42 167.80 70.35 170.18 71.34 172.81 C 71.24 173.26 71.05 174.17 70.95 174.63 C 68.87 172.90 66.98 170.91 64.62 169.55 C 62.10 168.18 59.16 168.24 56.38 168.28 C 55.41 172.40 55.68 176.78 57.81 180.51 C 61.48 185.65 68.25 182.71 72.29 179.68 C 72.79 182.18 73.45 184.65 74.02 187.15 C 70.28 187.36 66.54 187.39 62.80 187.43 C 62.25 187.44 61.15 187.45 60.60 187.46 C 59.30 189.50 58.03 191.56 56.71 193.59 C 55.12 192.48 53.72 191.15 52.21 189.95 C 50.54 189.20 48.64 189.43 46.87 189.25 C 43.82 189.10 40.76 189.16 37.72 189.48 C 36.59 184.78 38.43 180.21 39.46 175.68 C 42.84 160.38 47.23 145.13 54.75 131.30 L 55.34 130.52 Z" />
<path fill="#382d3a" opacity="1.00" d=" M 99.45 155.04 C 100.08 164.20 102.82 173.15 102.56 182.38 C 96.42 184.03 89.98 183.23 83.77 184.45 C 83.66 184.13 83.44 183.49 83.33 183.17 C 83.56 181.77 83.81 180.37 84.09 178.97 C 87.56 179.64 91.02 181.02 94.60 180.70 C 99.06 178.44 99.35 172.63 99.24 168.23 L 98.30 167.99 C 92.02 165.94 87.05 170.82 81.99 173.61 C 83.58 171.58 85.38 169.73 87.28 167.99 C 90.36 165.51 92.36 162.06 94.08 158.56 C 96.14 157.85 98.18 156.90 99.45 155.04 Z" />
</g>
</svg>
