<?xml version="1.0" encoding="UTF-8" ?>
<!DOCTYPE svg PUBLIC "-//W3C//DTD SVG 1.1//EN" "http://www.w3.org/Graphics/SVG/1.1/DTD/svg11.dtd">
<svg width="155pt" height="210pt" viewBox="0 0 155 210" version="1.1" xmlns="http://www.w3.org/2000/svg">
<g id="#201c2dff">
<path fill="#201c2d" opacity="1.00" d=" M 81.98 32.21 C 83.83 31.65 85.81 29.95 87.78 31.06 C 101.32 38.16 110.25 51.59 115.32 65.68 C 117.62 70.73 118.37 76.45 121.05 81.29 C 121.51 81.29 122.43 81.30 122.90 81.30 C 121.26 83.33 119.65 85.38 118.01 87.41 C 115.47 82.83 113.21 77.67 108.53 74.86 C 108.05 79.98 108.24 85.26 106.46 90.16 C 106.08 83.46 105.50 76.76 105.50 70.05 C 103.79 68.96 102.05 67.92 100.27 66.94 C 100.36 75.95 102.71 84.85 101.73 93.90 C 101.34 93.95 100.54 94.05 100.15 94.10 C 96.48 86.79 90.81 80.51 83.93 76.10 C 79.69 73.85 74.40 71.55 69.69 73.74 C 64.01 76.63 59.76 82.25 58.76 88.57 C 57.23 96.52 60.22 104.28 62.10 111.89 C 62.88 115.39 65.03 118.30 67.17 121.09 C 62.43 121.63 60.43 116.75 58.71 113.28 C 56.44 108.04 51.41 104.82 46.40 102.56 C 40.83 100.12 35.13 97.53 28.98 97.16 C 29.34 99.09 29.79 101.00 30.56 102.81 C 29.72 103.21 29.11 103.83 28.76 104.67 C 26.38 110.04 24.95 115.74 23.32 121.36 C 23.02 122.92 21.48 123.51 20.21 124.07 C 16.29 116.90 13.88 108.89 13.05 100.76 C 12.50 95.58 12.55 90.36 13.04 85.18 C 13.97 70.97 21.87 57.69 33.60 49.74 C 32.02 53.53 28.25 55.66 26.04 59.01 C 23.83 62.31 21.67 65.96 21.37 70.00 C 21.49 75.02 24.96 79.31 29.03 81.93 C 32.44 84.21 36.76 83.53 40.61 84.28 C 43.54 84.53 46.47 85.76 49.42 85.30 C 53.26 83.11 54.77 78.57 57.04 75.01 C 54.34 69.00 51.49 62.72 52.06 55.96 C 51.82 49.37 54.68 43.28 55.31 36.81 C 58.19 39.47 55.41 42.96 54.97 46.00 C 54.46 49.98 54.14 53.99 53.75 57.98 C 53.26 62.76 55.01 67.32 56.98 71.56 C 62.57 68.96 67.57 65.16 73.59 63.50 C 78.83 61.58 84.47 61.46 89.97 61.73 C 88.98 55.63 87.19 49.70 85.25 43.84 C 84.02 40.00 82.20 36.29 81.98 32.21 M 95.07 52.03 C 95.61 56.28 96.83 60.78 99.89 63.94 C 99.27 59.65 97.60 55.54 95.07 52.03 Z" />
<path fill="#201c2d" opacity="1.00" d=" M 71.86 77.86 C 72.65 76.75 73.99 77.88 74.91 78.14 C 81.69 81.19 88.64 84.81 92.94 91.13 C 86.52 87.67 80.79 81.56 73.04 81.62 C 68.70 83.24 67.48 88.34 64.06 91.04 C 65.56 86.12 68.32 81.58 71.86 77.86 Z" />
<path fill="#201c2d" opacity="1.00" d=" M 107.18 101.46 C 109.54 97.89 111.62 94.03 115.02 91.30 C 115.35 92.28 115.42 93.28 115.24 94.30 C 114.61 94.51 113.35 94.95 112.72 95.17 C 110.50 95.54 110.60 98.83 113.13 97.90 C 113.59 97.80 114.49 97.62 114.95 97.52 L 115.06 98.24 C 115.11 98.56 115.22 99.19 115.27 99.51 C 112.56 100.12 109.92 100.98 107.18 101.46 Z" />
<path fill="#201c2d" opacity="1.00" d=" M 77.40 92.94 C 78.92 93.97 80.14 95.35 81.48 96.59 C 84.76 97.74 88.17 98.56 91.28 100.18 C 91.24 100.97 91.19 101.76 91.12 102.55 C 90.28 101.54 87.65 99.97 87.07 101.93 C 87.64 103.47 89.67 103.11 90.96 103.06 C 89.95 103.72 88.90 104.30 87.83 104.84 C 87.19 105.08 85.91 105.56 85.27 105.80 C 85.49 107.52 85.69 109.26 85.80 111.00 C 84.49 109.43 83.52 107.46 81.77 106.31 C 80.21 106.31 78.68 106.75 77.16 107.03 C 75.57 104.83 74.27 102.45 73.14 99.99 C 74.61 98.97 76.11 98.01 77.61 97.03 C 77.53 95.67 77.46 94.31 77.40 92.94 M 77.11 100.14 C 75.20 101.31 76.89 103.57 77.04 105.22 C 78.71 104.84 80.36 104.36 81.99 103.83 C 83.31 103.50 84.64 103.21 85.98 102.93 C 85.62 100.69 84.06 99.44 81.93 98.94 C 80.31 99.24 78.55 99.27 77.11 100.14 Z" />
<path fill="#201c2d" opacity="1.00" d=" M 52.73 121.79 C 55.31 121.36 57.93 121.29 60.54 121.33 C 62.42 124.25 64.93 126.67 67.58 128.88 C 67.56 127.07 67.57 125.26 67.67 123.45 C 68.68 124.68 69.64 125.96 70.56 127.27 C 69.98 128.42 69.48 129.62 68.98 130.82 C 71.21 130.64 73.50 130.55 75.62 129.73 C 75.94 128.03 73.94 127.54 72.97 126.59 C 72.88 125.91 72.71 124.56 72.62 123.89 C 72.73 123.32 72.94 122.18 73.05 121.61 C 74.13 122.60 75.17 123.64 76.04 124.82 C 76.75 127.32 77.25 129.87 77.65 132.44 C 84.22 133.18 90.96 132.54 97.15 130.16 C 100.07 129.09 102.80 127.28 104.10 124.35 C 104.77 123.02 105.41 121.67 106.11 120.35 C 106.36 121.02 106.86 122.37 107.11 123.04 C 107.51 124.99 107.39 127.42 109.68 128.15 C 106.96 131.89 101.63 132.22 97.51 133.61 C 97.42 134.14 97.24 135.19 97.15 135.72 C 100.96 136.79 103.31 140.17 104.29 143.83 C 105.23 143.07 106.16 142.31 107.11 141.56 C 108.56 142.79 108.88 144.60 108.89 146.41 C 106.84 146.29 104.80 146.27 102.75 146.26 C 101.58 144.40 100.50 142.50 99.50 140.55 C 96.60 140.30 93.71 139.92 90.87 139.28 C 88.99 143.39 91.74 147.15 94.35 150.13 C 90.96 151.67 87.30 152.49 83.88 153.98 C 90.24 153.40 96.44 150.45 102.90 152.01 C 102.90 152.51 102.90 153.51 102.90 154.01 C 101.59 153.62 100.58 153.95 99.88 155.01 C 100.10 156.18 100.86 156.84 102.15 156.99 C 101.38 158.72 99.80 159.30 98.00 159.32 C 97.84 157.78 97.69 156.24 97.54 154.71 C 95.63 154.36 93.71 154.04 91.80 153.72 C 92.09 154.48 92.69 156.01 92.99 156.77 C 90.00 157.70 86.82 157.14 83.74 157.46 C 86.09 157.77 88.66 157.53 90.69 158.99 C 89.16 159.13 87.63 159.21 86.10 159.23 C 83.95 158.61 81.86 157.82 79.79 156.99 C 78.90 159.29 78.47 161.72 78.31 164.17 C 75.24 164.73 72.31 165.89 69.82 167.78 C 67.87 167.27 65.94 166.73 64.01 166.17 C 64.65 168.92 65.94 172.02 64.12 174.61 C 63.88 173.08 63.69 171.54 63.54 170.00 C 61.82 169.81 60.00 169.58 58.41 170.44 C 55.80 171.47 55.89 175.33 53.11 176.07 C 53.76 171.10 54.86 165.36 58.95 162.05 C 63.09 159.61 66.89 156.60 70.33 153.25 C 71.41 152.39 71.41 150.97 71.62 149.73 C 71.77 148.32 72.56 147.10 73.11 145.83 C 72.28 145.78 70.63 145.67 69.81 145.61 C 69.76 144.19 69.71 142.76 69.76 141.34 L 70.60 140.66 C 71.67 142.33 71.83 145.46 74.30 145.58 C 77.09 145.77 79.61 144.24 82.07 143.14 C 84.14 143.57 86.75 144.05 88.41 142.37 C 89.24 141.03 89.41 137.85 87.05 138.40 C 82.57 139.06 78.42 135.29 74.12 137.64 C 74.37 136.45 74.63 135.27 74.89 134.10 C 73.88 134.49 72.87 134.88 71.87 135.27 C 72.37 136.64 72.95 138.00 73.91 139.13 C 73.53 139.29 72.78 139.60 72.41 139.76 C 71.52 138.72 70.59 137.73 69.54 136.85 C 68.09 135.75 68.51 133.66 68.12 132.10 C 63.54 129.72 59.80 126.07 56.86 121.87 C 55.48 121.84 54.11 121.82 52.73 121.79 Z" />
<path fill="#201c2d" opacity="1.00" d=" M 62.94 145.70 C 64.19 145.11 65.42 144.48 66.66 143.86 C 66.92 145.02 67.18 146.19 67.43 147.35 L 67.62 148.23 C 65.93 147.63 64.41 146.68 62.94 145.70 Z" />
<path fill="#201c2d" opacity="1.00" d=" M 96.61 144.74 C 96.93 144.62 97.58 144.37 97.90 144.25 C 98.09 144.75 98.46 145.75 98.64 146.25 C 99.80 146.89 100.95 147.52 102.07 148.22 C 102.20 148.55 102.44 149.22 102.57 149.55 C 100.34 149.43 98.11 149.28 95.88 149.13 C 96.10 147.95 96.30 146.78 96.50 145.60 L 96.61 144.74 Z" />
<path fill="#201c2d" opacity="1.00" d=" M 118.35 149.07 C 121.12 148.53 119.46 152.00 117.63 151.87 C 115.21 152.34 116.91 149.09 118.35 149.07 Z" />
<path fill="#201c2d" opacity="1.00" d=" M 117.00 167.75 C 117.48 167.82 118.45 167.97 118.94 168.04 C 122.17 169.28 126.66 169.76 128.34 173.13 C 125.78 173.22 123.22 173.18 120.67 173.27 C 119.34 171.50 118.16 169.62 117.00 167.75 Z" />
<path fill="#201c2d" opacity="1.00" d=" M 68.43 172.32 C 69.56 172.30 70.70 172.28 71.83 172.25 C 70.35 175.61 68.94 179.04 68.30 182.68 C 69.77 183.45 71.24 184.23 72.71 185.02 C 72.24 185.62 71.78 186.22 71.32 186.82 C 85.26 187.43 99.22 186.78 113.17 186.87 C 114.54 186.83 115.90 186.71 117.27 186.64 C 120.73 186.81 124.66 186.28 127.63 188.42 C 128.59 190.28 128.05 192.47 128.19 194.48 C 107.47 194.95 86.73 194.60 66.00 194.69 C 59.28 194.57 52.55 194.95 45.85 194.45 C 45.92 191.90 45.12 188.23 48.36 187.33 C 54.26 185.91 61.94 188.58 66.18 182.80 C 66.37 182.54 66.75 182.03 66.95 181.77 C 65.93 178.49 66.81 175.24 68.43 172.32 Z" />
</g>
<g id="#524d5cff">
<path fill="#524d5c" opacity="1.00" d=" M 42.69 42.70 C 46.69 40.37 50.53 37.28 55.31 36.81 C 54.68 43.28 51.82 49.37 52.06 55.96 C 51.49 62.72 54.34 69.00 57.04 75.01 C 54.77 78.57 53.26 83.11 49.42 85.30 C 46.47 85.76 43.54 84.53 40.61 84.28 C 36.76 83.53 32.44 84.21 29.03 81.93 C 24.96 79.31 21.49 75.02 21.37 70.00 C 21.67 65.96 23.83 62.31 26.04 59.01 C 28.25 55.66 32.02 53.53 33.60 49.74 C 35.90 46.65 39.64 44.97 42.69 42.70 Z" />
<path fill="#524d5c" opacity="1.00" d=" M 95.07 52.03 C 97.60 55.54 99.27 59.65 99.89 63.94 C 96.83 60.78 95.61 56.28 95.07 52.03 Z" />
<path fill="#524d5c" opacity="1.00" d=" M 91.28 100.18 C 93.43 100.81 95.63 101.30 97.86 101.52 C 94.91 103.65 91.60 105.28 87.83 104.84 C 88.90 104.30 89.95 103.72 90.96 103.06 L 91.12 102.55 C 91.19 101.76 91.24 100.97 91.28 100.18 Z" />
<path fill="#524d5c" opacity="1.00" d=" M 41.26 117.40 C 41.36 117.47 41.56 117.61 41.66 117.68 C 41.56 117.61 41.36 117.47 41.26 117.40 Z" />
<path fill="#524d5c" opacity="1.00" d=" M 44.25 119.42 C 44.35 119.49 44.56 119.62 44.67 119.69 C 44.56 119.62 44.35 119.49 44.25 119.42 Z" />
<path fill="#524d5c" opacity="1.00" d=" M 90.87 139.28 C 93.71 139.92 96.60 140.30 99.50 140.55 C 100.50 142.50 101.58 144.40 102.75 146.26 C 102.58 146.75 102.24 147.73 102.07 148.22 C 100.95 147.52 99.80 146.89 98.64 146.25 C 98.46 145.75 98.09 144.75 97.90 144.25 C 97.58 144.37 96.93 144.62 96.61 144.74 C 96.20 144.84 95.39 145.03 94.98 145.12 L 94.97 145.87 C 95.35 145.81 96.12 145.67 96.50 145.60 C 96.30 146.78 96.10 147.95 95.88 149.13 C 98.11 149.28 100.34 149.43 102.57 149.55 C 103.58 151.89 104.83 154.12 106.05 156.37 C 105.27 157.29 104.47 158.19 103.68 159.11 L 103.28 159.60 C 104.57 164.84 107.92 169.32 108.88 174.65 L 109.08 175.61 L 107.93 175.73 C 106.41 175.88 104.88 176.04 103.35 176.20 C 102.67 175.76 101.99 175.32 101.30 174.90 C 101.64 171.25 101.80 167.58 101.44 163.92 C 98.14 163.09 95.07 161.60 92.01 160.15 C 92.62 161.49 93.26 162.81 93.83 164.16 C 89.80 165.56 85.57 166.53 81.88 168.75 C 86.05 168.38 90.24 167.70 94.09 165.98 C 94.21 167.85 94.19 169.73 94.26 171.60 C 87.42 171.74 81.09 175.05 74.22 174.67 C 74.45 173.50 74.46 172.24 75.04 171.17 C 76.35 170.29 77.93 169.98 79.41 169.48 C 81.24 167.22 83.11 164.99 85.13 162.90 C 84.95 162.04 84.78 161.19 84.60 160.34 C 84.97 160.06 85.72 159.51 86.10 159.23 C 87.63 159.21 89.16 159.13 90.69 158.99 C 88.66 157.53 86.09 157.77 83.74 157.46 C 86.82 157.14 90.00 157.70 92.99 156.77 C 93.94 156.75 94.90 156.75 95.86 156.76 C 96.28 156.24 97.12 155.22 97.54 154.71 C 97.69 156.24 97.84 157.78 98.00 159.32 C 99.80 159.30 101.38 158.72 102.15 156.99 C 102.78 156.10 103.03 155.11 102.90 154.01 C 102.90 153.51 102.90 152.51 102.90 152.01 C 96.44 150.45 90.24 153.40 83.88 153.98 C 87.30 152.49 90.96 151.67 94.35 150.13 C 91.74 147.15 88.99 143.39 90.87 139.28 M 94.19 141.12 C 93.67 142.74 94.23 143.28 95.87 142.75 C 96.39 141.13 95.83 140.58 94.19 141.12 M 99.18 145.28 C 99.69 145.79 99.69 145.79 99.18 145.28 Z" />
<path fill="#524d5c" opacity="1.00" d=" M 58.95 162.05 C 62.08 157.00 67.37 153.78 71.62 149.73 C 71.41 150.97 71.41 152.39 70.33 153.25 C 66.89 156.60 63.09 159.61 58.95 162.05 Z" />
<path fill="#524d5c" opacity="1.00" d=" M 72.15 179.17 C 73.12 177.84 75.86 179.22 74.69 180.74 C 73.71 182.06 70.97 180.68 72.15 179.17 Z" />
<path fill="#524d5c" opacity="1.00" d=" M 102.15 181.89 C 102.60 179.45 106.06 180.40 107.86 180.10 C 108.23 180.48 108.98 181.23 109.36 181.61 C 107.04 182.18 104.37 183.46 102.15 181.89 Z" />
<path fill="#524d5c" opacity="1.00" d=" M 108.83 184.02 C 110.92 184.25 112.99 184.58 115.03 185.08 C 115.59 185.47 116.71 186.25 117.27 186.64 C 115.90 186.71 114.54 186.83 113.17 186.87 C 111.51 186.27 110.11 185.20 108.83 184.02 Z" />
</g>
<g id="#dcd7cbff">
<path fill="#dcd7cb" opacity="1.00" d=" M 100.27 66.94 C 102.05 67.92 103.79 68.96 105.50 70.05 C 105.50 76.76 106.08 83.46 106.46 90.16 C 108.24 85.26 108.05 79.98 108.53 74.86 C 113.21 77.67 115.47 82.83 118.01 87.41 C 119.65 85.38 121.26 83.33 122.90 81.30 C 123.67 80.15 124.83 79.38 125.98 78.64 C 128.50 85.05 131.03 92.46 128.24 99.20 C 127.32 101.75 126.13 104.24 124.36 106.31 C 123.43 101.25 124.23 95.92 121.89 91.14 C 121.04 91.56 120.20 91.99 119.36 92.42 C 118.61 91.55 117.86 90.67 117.05 89.85 C 116.33 90.29 115.66 90.77 115.02 91.30 C 111.62 94.03 109.54 97.89 107.18 101.46 C 109.92 100.98 112.56 100.12 115.27 99.51 C 120.79 102.57 120.90 110.44 120.06 116.00 C 119.63 118.11 118.35 119.89 117.21 121.67 C 113.79 120.18 110.31 121.81 107.11 123.04 C 106.86 122.37 106.36 121.02 106.11 120.35 C 105.41 121.67 104.77 123.02 104.10 124.35 C 96.44 125.76 88.99 123.34 81.81 120.95 C 77.06 119.03 72.03 120.79 67.17 121.09 C 65.03 118.30 62.88 115.39 62.10 111.89 C 60.22 104.28 57.23 96.52 58.76 88.57 C 59.76 82.25 64.01 76.63 69.69 73.74 C 74.40 71.55 79.69 73.85 83.93 76.10 C 90.81 80.51 96.48 86.79 100.15 94.10 C 100.54 94.05 101.34 93.95 101.73 93.90 C 102.71 84.85 100.36 75.95 100.27 66.94 M 71.86 77.86 C 68.32 81.58 65.56 86.12 64.06 91.04 C 67.48 88.34 68.70 83.24 73.04 81.62 C 80.79 81.56 86.52 87.67 92.94 91.13 C 88.64 84.81 81.69 81.19 74.91 78.14 C 73.99 77.88 72.65 76.75 71.86 77.86 M 77.40 92.94 C 77.46 94.31 77.53 95.67 77.61 97.03 C 76.11 98.01 74.61 98.97 73.14 99.99 C 74.27 102.45 75.57 104.83 77.16 107.03 C 78.68 106.75 80.21 106.31 81.77 106.31 C 83.52 107.46 84.49 109.43 85.80 111.00 C 85.69 109.26 85.49 107.52 85.27 105.80 C 85.91 105.56 87.19 105.08 87.83 104.84 C 91.60 105.28 94.91 103.65 97.86 101.52 C 95.63 101.30 93.43 100.81 91.28 100.18 C 88.17 98.56 84.76 97.74 81.48 96.59 C 80.14 95.35 78.92 93.97 77.40 92.94 M 97.04 112.63 C 91.92 112.85 86.80 112.46 81.68 112.83 C 84.45 116.74 88.85 119.23 93.08 121.27 C 99.74 121.39 106.11 118.61 112.74 118.18 L 112.58 117.52 C 114.93 115.91 116.39 113.46 117.34 110.83 C 115.85 110.80 114.36 110.76 112.87 110.71 C 107.52 110.63 102.37 112.40 97.04 112.63 Z" />
<path fill="#dcd7cb" opacity="1.00" d=" M 112.72 95.17 C 113.35 94.95 114.61 94.51 115.24 94.30 C 115.16 95.37 115.07 96.45 114.95 97.52 C 114.49 97.62 113.59 97.80 113.13 97.90 C 113.03 97.21 112.82 95.85 112.72 95.17 Z" />
<path fill="#dcd7cb" opacity="1.00" d=" M 77.11 100.14 C 78.55 99.27 80.31 99.24 81.93 98.94 C 81.95 100.57 81.97 102.20 81.99 103.83 C 80.36 104.36 78.71 104.84 77.04 105.22 C 76.89 103.57 75.20 101.31 77.11 100.14 Z" />
<path fill="#dcd7cb" opacity="1.00" d=" M 69.54 136.85 C 70.59 137.73 71.52 138.72 72.41 139.76 C 71.96 139.99 71.05 140.44 70.60 140.66 L 69.76 141.34 C 69.09 140.34 68.43 139.33 67.83 138.29 C 68.26 137.93 69.11 137.21 69.54 136.85 Z" />
<path fill="#dcd7cb" opacity="1.00" d=" M 65.05 139.95 C 65.58 139.74 66.63 139.33 67.16 139.12 C 67.08 140.50 67.01 141.87 66.94 143.25 C 65.82 142.98 64.71 142.72 63.59 142.47 C 63.95 141.84 64.69 140.58 65.05 139.95 Z" />
<path fill="#dcd7cb" opacity="1.00" d=" M 57.64 144.84 C 58.24 143.48 59.57 143.00 60.91 142.69 C 61.15 143.26 61.62 144.40 61.86 144.96 C 61.08 145.35 60.29 145.75 59.52 146.16 C 59.05 145.83 58.11 145.17 57.64 144.84 Z" />
<path fill="#dcd7cb" opacity="1.00" d=" M 120.79 146.34 C 122.99 147.11 125.28 147.54 127.60 147.78 C 127.44 148.50 127.39 149.23 127.43 149.97 C 125.42 148.43 123.16 147.24 120.79 146.34 Z" />
</g>
<g id="#10041ecd">
<path fill="#10041e" opacity="0.80" d=" M 12.28 85.09 L 13.04 85.18 C 12.55 90.36 12.50 95.58 13.05 100.76 L 12.27 100.86 C 12.01 95.60 12.05 90.34 12.28 85.09 Z" />
<path fill="#10041e" opacity="0.80" d=" M 56.05 143.69 C 57.76 141.60 60.65 142.59 62.96 142.48 C 62.44 142.53 61.42 142.64 60.91 142.69 C 59.57 143.00 58.24 143.48 57.64 144.84 C 57.25 144.55 56.45 143.98 56.05 143.69 Z" />
<path fill="#10041e" opacity="0.80" d=" M 123.06 154.31 C 124.74 153.75 124.75 157.32 123.05 156.64 C 123.05 156.06 123.05 154.90 123.06 154.31 Z" />
<path fill="#10041e" opacity="0.80" d=" M 79.79 156.99 C 81.86 157.82 83.95 158.61 86.10 159.23 C 85.72 159.51 84.97 160.06 84.60 160.34 C 84.78 161.19 84.95 162.04 85.13 162.90 C 83.11 164.99 81.24 167.22 79.41 169.48 C 77.93 169.98 76.35 170.29 75.04 171.17 C 74.46 172.24 74.45 173.50 74.22 174.67 C 81.09 175.05 87.42 171.74 94.26 171.60 C 94.54 175.30 98.34 176.43 101.30 174.90 C 101.99 175.32 102.67 175.76 103.35 176.20 C 104.88 176.04 106.41 175.88 107.93 175.73 C 107.70 176.30 107.24 177.44 107.01 178.02 C 107.22 178.54 107.65 179.58 107.86 180.10 C 106.06 180.40 102.60 179.45 102.15 181.89 C 104.37 183.46 107.04 182.18 109.36 181.61 C 111.60 181.01 113.78 180.22 116.04 179.70 C 115.89 181.52 115.69 183.36 115.03 185.08 C 112.99 184.58 110.92 184.25 108.83 184.02 C 110.11 185.20 111.51 186.27 113.17 186.87 C 99.22 186.78 85.26 187.43 71.32 186.82 C 71.78 186.22 72.24 185.62 72.71 185.02 C 71.24 184.23 69.77 183.45 68.30 182.68 C 68.94 179.04 70.35 175.61 71.83 172.25 C 70.70 172.28 69.56 172.30 68.43 172.32 C 66.81 175.24 65.93 178.49 66.95 181.77 C 66.75 182.03 66.37 182.54 66.18 182.80 C 65.46 180.08 64.52 177.41 64.12 174.61 C 65.94 172.02 64.65 168.92 64.01 166.17 C 65.94 166.73 67.87 167.27 69.82 167.78 C 72.31 165.89 75.24 164.73 78.31 164.17 C 78.47 161.72 78.90 159.29 79.79 156.99 M 72.15 179.17 C 70.97 180.68 73.71 182.06 74.69 180.74 C 75.86 179.22 73.12 177.84 72.15 179.17 Z" />
<path fill="#10041e" opacity="0.80" d=" M 118.47 159.15 C 118.76 158.87 119.34 158.31 119.63 158.02 C 120.27 159.52 119.89 159.90 118.47 159.15 Z" />
<path fill="#10041e" opacity="0.80" d=" M 103.28 159.60 L 103.68 159.11 C 105.53 161.71 108.78 163.63 111.96 162.23 C 114.21 164.26 116.56 166.16 118.94 168.04 C 118.45 167.97 117.48 167.82 117.00 167.75 C 118.16 169.62 119.34 171.50 120.67 173.27 L 121.15 173.92 C 117.18 172.93 112.53 172.46 108.88 174.65 C 107.92 169.32 104.57 164.84 103.28 159.60 Z" />
</g>
<g id="#c2bcacff">
<path fill="#c2bcac" opacity="1.00" d=" M 115.02 91.30 C 115.66 90.77 116.33 90.29 117.05 89.85 C 117.86 90.67 118.61 91.55 119.36 92.42 C 120.20 91.99 121.04 91.56 121.89 91.14 C 124.23 95.92 123.43 101.25 124.36 106.31 C 123.33 106.88 122.29 107.45 121.26 108.02 C 121.25 110.16 121.23 112.30 121.19 114.44 C 120.91 114.83 120.34 115.61 120.06 116.00 C 120.90 110.44 120.79 102.57 115.27 99.51 C 115.22 99.19 115.11 98.56 115.06 98.24 L 114.95 97.52 C 115.07 96.45 115.16 95.37 115.24 94.30 C 115.42 93.28 115.35 92.28 115.02 91.30 Z" />
<path fill="#c2bcac" opacity="1.00" d=" M 28.98 97.16 C 35.13 97.53 40.83 100.12 46.40 102.56 C 51.41 104.82 56.44 108.04 58.71 113.28 C 60.43 116.75 62.43 121.63 67.17 121.09 C 72.03 120.79 77.06 119.03 81.81 120.95 C 88.99 123.34 96.44 125.76 104.10 124.35 C 102.80 127.28 100.07 129.09 97.15 130.16 C 89.99 128.85 83.41 124.88 76.04 124.82 C 75.17 123.64 74.13 122.60 73.05 121.61 C 72.94 122.18 72.73 123.32 72.62 123.89 C 71.95 125.02 71.22 126.12 70.56 127.27 C 69.64 125.96 68.68 124.68 67.67 123.45 C 67.57 125.26 67.56 127.07 67.58 128.88 C 64.93 126.67 62.42 124.25 60.54 121.33 C 57.93 121.29 55.31 121.36 52.73 121.79 C 49.78 122.85 47.03 121.36 44.67 119.69 C 44.56 119.62 44.35 119.49 44.25 119.42 C 43.60 118.98 42.31 118.12 41.66 117.68 C 41.56 117.61 41.36 117.47 41.26 117.40 C 35.98 114.06 32.97 108.37 30.56 102.81 C 29.79 101.00 29.34 99.09 28.98 97.16 Z" />
<path fill="#c2bcac" opacity="1.00" d=" M 97.04 112.63 C 102.37 112.40 107.52 110.63 112.87 110.71 C 112.44 112.94 111.78 115.28 112.58 117.52 L 112.74 118.18 C 106.11 118.61 99.74 121.39 93.08 121.27 C 88.85 119.23 84.45 116.74 81.68 112.83 C 86.80 112.46 91.92 112.85 97.04 112.63 Z" />
<path fill="#c2bcac" opacity="1.00" d=" M 107.11 123.04 C 110.31 121.81 113.79 120.18 117.21 121.67 C 115.10 124.30 111.98 125.75 109.68 128.15 C 107.39 127.42 107.51 124.99 107.11 123.04 Z" />
<path fill="#c2bcac" opacity="1.00" d=" M 71.87 135.27 C 72.87 134.88 73.88 134.49 74.89 134.10 C 74.63 135.27 74.37 136.45 74.12 137.64 C 78.42 135.29 82.57 139.06 87.05 138.40 C 89.41 137.85 89.24 141.03 88.41 142.37 C 86.75 144.05 84.14 143.57 82.07 143.14 C 79.40 141.69 76.67 140.38 73.91 139.13 C 72.95 138.00 72.37 136.64 71.87 135.27 Z" />
<path fill="#c2bcac" opacity="1.00" d=" M 123.26 150.64 C 123.89 150.63 125.13 150.61 125.75 150.60 C 126.34 152.28 122.70 152.33 123.26 150.64 Z" />
<path fill="#c2bcac" opacity="1.00" d=" M 92.01 160.15 C 95.07 161.60 98.14 163.09 101.44 163.92 C 101.80 167.58 101.64 171.25 101.30 174.90 C 98.34 176.43 94.54 175.30 94.26 171.60 C 94.19 169.73 94.21 167.85 94.09 165.98 C 94.03 165.53 93.90 164.62 93.83 164.16 C 93.26 162.81 92.62 161.49 92.01 160.15 Z" />
</g>
<g id="#61b5daff">
<path fill="#61b5da" opacity="1.00" d=" M 113.13 97.90 C 110.60 98.83 110.50 95.54 112.72 95.17 C 112.82 95.85 113.03 97.21 113.13 97.90 Z" />
<path fill="#61b5da" opacity="1.00" d=" M 81.93 98.94 C 84.06 99.44 85.62 100.69 85.98 102.93 C 84.64 103.21 83.31 103.50 81.99 103.83 C 81.97 102.20 81.95 100.57 81.93 98.94 Z" />
<path fill="#61b5da" opacity="1.00" d=" M 87.07 101.93 C 87.65 99.97 90.28 101.54 91.12 102.55 L 90.96 103.06 C 89.67 103.11 87.64 103.47 87.07 101.93 Z" />
</g>
<g id="#8f8573ff">
<path fill="#8f8573" opacity="1.00" d=" M 112.87 110.71 C 114.36 110.76 115.85 110.80 117.34 110.83 C 116.39 113.46 114.93 115.91 112.58 117.52 C 111.78 115.28 112.44 112.94 112.87 110.71 Z" />
<path fill="#8f8573" opacity="1.00" d=" M 70.56 127.27 C 71.22 126.12 71.95 125.02 72.62 123.89 C 72.71 124.56 72.88 125.91 72.97 126.59 C 73.94 127.54 75.94 128.03 75.62 129.73 C 73.50 130.55 71.21 130.64 68.98 130.82 C 69.48 129.62 69.98 128.42 70.56 127.27 Z" />
<path fill="#8f8573" opacity="1.00" d=" M 76.04 124.82 C 83.41 124.88 89.99 128.85 97.15 130.16 C 90.96 132.54 84.22 133.18 77.65 132.44 C 77.25 129.87 76.75 127.32 76.04 124.82 Z" />
<path fill="#8f8573" opacity="1.00" d=" M 65.05 139.95 C 65.31 138.52 66.66 138.47 67.83 138.29 C 68.43 139.33 69.09 140.34 69.76 141.34 C 69.71 142.76 69.76 144.19 69.81 145.61 C 69.21 146.05 68.03 146.92 67.43 147.35 C 67.18 146.19 66.92 145.02 66.66 143.86 C 65.42 144.48 64.19 145.11 62.94 145.70 C 61.69 146.35 60.31 146.63 58.94 146.88 L 59.52 146.16 C 60.29 145.75 61.08 145.35 61.86 144.96 C 61.62 144.40 61.15 143.26 60.91 142.69 C 61.42 142.64 62.44 142.53 62.96 142.48 L 63.59 142.47 C 64.71 142.72 65.82 142.98 66.94 143.25 C 67.01 141.87 67.08 140.50 67.16 139.12 C 66.63 139.33 65.58 139.74 65.05 139.95 Z" />
<path fill="#8f8573" opacity="1.00" d=" M 73.91 139.13 C 76.67 140.38 79.40 141.69 82.07 143.14 C 79.61 144.24 77.09 145.77 74.30 145.58 C 71.83 145.46 71.67 142.33 70.60 140.66 C 71.05 140.44 71.96 139.99 72.41 139.76 C 72.78 139.60 73.53 139.29 73.91 139.13 Z" />
<path fill="#8f8573" opacity="1.00" d=" M 94.19 141.12 C 95.83 140.58 96.39 141.13 95.87 142.75 C 94.23 143.28 93.67 142.74 94.19 141.12 Z" />
<path fill="#8f8573" opacity="1.00" d=" M 94.98 145.12 C 95.39 145.03 96.20 144.84 96.61 144.74 L 96.50 145.60 C 96.12 145.67 95.35 145.81 94.97 145.87 L 94.98 145.12 Z" />
<path fill="#8f8573" opacity="1.00" d=" M 99.18 145.28 C 99.69 145.79 99.69 145.79 99.18 145.28 Z" />
<path fill="#8f8573" opacity="1.00" d=" M 102.75 146.26 C 104.80 146.27 106.84 146.29 108.89 146.41 C 111.06 146.52 113.26 147.09 115.41 146.56 C 117.20 146.30 119.06 145.28 120.79 146.34 C 123.16 147.24 125.42 148.43 127.43 149.97 C 127.01 150.12 126.17 150.44 125.75 150.60 C 125.13 150.61 123.89 150.63 123.26 150.64 C 122.71 150.76 121.60 151.00 121.05 151.12 C 121.70 152.19 122.38 153.25 123.06 154.31 C 123.05 154.90 123.05 156.06 123.05 156.64 C 121.89 157.06 120.75 157.52 119.63 158.02 C 119.34 158.31 118.76 158.87 118.47 159.15 C 116.90 158.69 115.64 157.67 114.63 156.39 C 111.79 156.95 108.91 156.17 106.05 156.37 C 104.83 154.12 103.58 151.89 102.57 149.55 C 102.44 149.22 102.20 148.55 102.07 148.22 C 102.24 147.73 102.58 146.75 102.75 146.26 M 118.35 149.07 C 116.91 149.09 115.21 152.34 117.63 151.87 C 119.46 152.00 121.12 148.53 118.35 149.07 Z" />
<path fill="#8f8573" opacity="1.00" d=" M 91.80 153.72 C 93.71 154.04 95.63 154.36 97.54 154.71 C 97.12 155.22 96.28 156.24 95.86 156.76 C 94.90 156.75 93.94 156.75 92.99 156.77 C 92.69 156.01 92.09 154.48 91.80 153.72 Z" />
<path fill="#8f8573" opacity="1.00" d=" M 99.88 155.01 C 100.58 153.95 101.59 153.62 102.90 154.01 C 103.03 155.11 102.78 156.10 102.15 156.99 C 100.86 156.84 100.10 156.18 99.88 155.01 Z" />
<path fill="#8f8573" opacity="1.00" d=" M 81.88 168.75 C 85.57 166.53 89.80 165.56 93.83 164.16 C 93.90 164.62 94.03 165.53 94.09 165.98 C 90.24 167.70 86.05 168.38 81.88 168.75 Z" />
</g>
</svg>
