<?xml version="1.0" encoding="UTF-8" ?>
<!DOCTYPE svg PUBLIC "-//W3C//DTD SVG 1.1//EN" "http://www.w3.org/Graphics/SVG/1.1/DTD/svg11.dtd">
<svg width="155pt" height="210pt" viewBox="0 0 155 210" version="1.1" xmlns="http://www.w3.org/2000/svg">
<g id="#6eb2c0c9">
<path fill="#6eb2c0" opacity="0.79" d=" M 107.63 32.50 C 110.43 29.26 114.16 26.90 117.87 24.81 C 117.61 27.56 117.23 30.30 116.73 33.02 C 123.55 32.58 128.12 38.15 133.01 41.96 C 137.78 45.68 141.18 50.78 143.89 56.12 C 141.57 55.54 139.50 53.63 137.10 53.75 C 133.47 55.72 130.19 58.45 127.73 61.78 C 126.91 62.83 127.05 64.29 127.70 65.38 C 129.06 68.01 130.07 70.80 130.76 73.68 C 130.35 74.00 129.55 74.63 129.15 74.94 C 129.41 76.12 129.67 77.31 129.93 78.50 C 126.56 77.92 123.18 77.36 119.76 77.33 C 119.40 77.66 118.70 78.33 118.34 78.67 C 117.61 72.65 115.51 66.34 110.70 62.35 C 112.65 60.62 114.75 58.98 116.32 56.87 C 117.06 54.62 114.55 53.54 113.29 52.18 C 113.89 51.51 114.47 50.82 115.05 50.12 C 113.93 49.60 112.80 49.08 111.68 48.56 C 109.22 46.29 106.94 43.83 104.34 41.72 C 105.95 38.84 106.87 35.69 107.63 32.50 M 126.13 48.18 C 124.35 48.50 124.79 51.56 126.68 50.84 C 128.42 50.52 127.94 47.56 126.13 48.18 M 125.95 59.02 C 128.59 58.73 129.00 55.80 129.88 53.82 C 127.77 54.78 125.36 56.29 125.95 59.02 M 118.53 71.25 C 117.76 72.39 119.67 73.88 120.59 72.86 C 121.36 71.71 119.45 70.24 118.53 71.25 Z" />
<path fill="#6eb2c0" opacity="0.79" d=" M 37.89 29.62 C 43.54 29.42 48.44 32.79 52.00 36.87 C 52.89 40.16 53.44 43.60 54.96 46.72 C 50.78 47.76 47.15 50.31 44.84 53.95 C 43.87 55.58 42.02 56.96 41.90 58.91 C 42.99 60.90 44.54 62.57 45.98 64.31 C 42.88 69.82 41.60 76.12 40.69 82.31 L 40.44 81.67 C 40.30 81.35 40.01 80.70 39.87 80.38 C 37.93 80.53 35.98 80.63 34.03 80.66 C 34.61 79.44 35.21 78.23 35.84 77.03 C 32.57 77.61 29.25 77.75 25.94 77.64 C 27.80 74.89 29.87 72.32 31.86 69.67 C 30.24 69.67 28.63 69.65 27.01 69.61 C 28.06 67.69 29.33 65.92 30.66 64.19 C 27.88 59.69 24.41 55.54 19.93 52.66 C 17.48 52.77 15.24 54.06 12.82 54.48 C 15.47 49.81 18.67 45.05 23.63 42.61 C 29.55 39.50 35.39 34.86 42.48 35.68 C 41.17 33.50 39.52 31.56 37.89 29.62 M 26.92 55.73 C 27.81 57.23 30.13 61.77 31.76 58.84 C 31.03 56.88 28.63 56.46 26.92 55.73 M 35.20 71.18 C 33.97 70.94 32.42 72.43 33.28 73.61 C 34.67 75.01 37.28 71.92 35.20 71.18 Z" />
<path fill="#6eb2c0" opacity="0.79" d=" M 62.13 105.17 C 63.97 106.02 65.72 107.07 67.32 108.31 C 65.80 107.93 64.26 107.63 62.72 107.32 C 63.39 108.38 64.06 109.43 64.72 110.49 C 63.76 110.14 62.80 109.75 61.86 109.34 C 61.96 107.95 62.05 106.56 62.13 105.17 Z" />
<path fill="#6eb2c0" opacity="0.79" d=" M 89.73 109.01 C 91.39 107.89 93.13 106.91 94.92 106.04 C 94.44 107.40 93.95 108.76 93.48 110.12 C 92.53 110.27 91.59 110.42 90.64 110.56 C 90.42 110.17 89.96 109.40 89.73 109.01 Z" />
<path fill="#6eb2c0" opacity="0.79" d=" M 108.11 165.79 C 111.80 164.35 115.70 163.53 119.42 162.17 C 123.58 164.38 128.41 163.33 132.87 164.24 C 132.85 164.88 132.81 166.15 132.80 166.79 C 128.11 168.69 123.08 169.95 118.90 172.90 C 116.54 174.34 114.32 176.34 111.47 176.64 C 109.85 176.80 108.12 177.22 107.10 178.60 C 106.74 178.99 106.01 179.76 105.65 180.14 C 103.65 180.28 101.67 180.56 99.70 180.86 C 103.18 176.69 105.02 170.69 110.83 169.17 C 109.93 168.03 109.03 166.91 108.11 165.79 Z" />
<path fill="#6eb2c0" opacity="0.79" d=" M 93.92 168.89 C 97.23 167.99 100.69 168.08 104.09 167.90 C 97.82 172.26 89.96 173.00 82.78 175.06 C 80.03 175.54 76.46 174.96 74.84 177.81 C 69.39 178.01 63.95 177.33 58.65 176.04 C 60.01 173.90 61.21 171.65 62.83 169.69 C 66.56 169.07 70.28 170.58 74.05 170.44 C 76.52 170.26 78.99 169.90 81.47 169.75 C 84.85 174.01 89.97 170.04 93.92 168.89 Z" />
<path fill="#6eb2c0" opacity="0.79" d=" M 43.07 182.47 C 45.17 178.74 47.40 174.13 52.19 173.66 C 52.63 173.97 53.51 174.59 53.95 174.90 C 52.87 176.56 51.80 178.23 50.81 179.95 C 52.48 180.02 54.16 180.08 55.84 180.11 L 55.92 180.87 C 51.58 180.76 47.24 181.26 43.07 182.47 Z" />
<path fill="#6eb2c0" opacity="0.79" d=" M 33.92 187.59 C 36.04 184.63 40.16 184.40 43.07 182.47 C 43.47 184.45 43.68 186.46 43.67 188.48 C 42.02 188.07 40.37 187.65 38.66 187.57 C 37.08 187.56 35.50 187.62 33.92 187.59 Z" />
<path fill="#6eb2c0" opacity="0.79" d=" M 67.48 184.62 C 73.07 184.07 78.70 184.80 84.30 184.57 C 76.54 186.76 68.43 187.14 60.56 188.79 C 62.37 186.72 64.62 184.84 67.48 184.62 Z" />
</g>
<g id="#ba9257ff">
<path fill="#ba9257" opacity="1.00" d=" M 91.15 40.16 C 94.80 38.60 98.36 36.65 102.33 36.04 C 102.20 36.68 101.95 37.96 101.82 38.60 C 96.65 43.13 89.55 44.80 84.77 49.76 C 88.85 49.81 93.99 51.64 97.35 48.54 C 101.79 50.54 106.99 48.81 111.68 48.56 C 112.80 49.08 113.93 49.60 115.05 50.12 C 114.47 50.82 113.89 51.51 113.29 52.18 C 111.16 54.38 108.85 56.41 106.35 58.17 C 105.68 58.62 105.00 59.06 104.31 59.50 C 107.89 65.44 113.41 70.06 116.46 76.31 C 116.11 80.14 112.91 83.20 111.31 86.66 C 110.01 88.19 108.63 89.65 107.13 90.99 C 105.02 92.43 102.80 93.69 100.56 94.91 C 101.48 93.01 102.49 91.15 103.54 89.32 C 106.75 88.51 108.12 85.27 109.59 82.64 C 110.66 80.36 112.08 77.92 111.69 75.31 C 110.62 72.65 108.14 70.96 106.03 69.17 C 106.08 69.62 106.17 70.51 106.22 70.96 C 105.20 69.33 104.13 67.73 103.08 66.12 C 104.60 72.38 105.07 79.10 102.13 85.04 C 100.79 86.39 99.47 87.78 98.07 89.07 C 92.32 93.27 86.57 97.51 80.65 101.44 C 76.01 100.85 72.25 97.44 68.91 94.39 C 69.77 93.83 70.64 93.28 71.51 92.73 C 71.33 91.12 71.14 89.51 70.96 87.90 C 72.66 89.81 73.87 93.23 76.99 92.77 C 82.12 92.67 85.96 88.72 89.26 85.25 C 92.80 81.70 94.50 76.43 93.55 71.49 C 89.44 66.84 82.60 67.49 76.99 67.17 C 69.11 67.35 62.32 62.58 54.64 61.55 C 51.72 60.79 48.98 62.38 46.48 63.67 C 49.00 60.53 51.74 57.49 55.12 55.25 C 59.33 52.25 64.06 50.13 69.20 49.39 C 76.71 46.79 83.88 43.34 91.15 40.16 Z" />
<path fill="#ba9257" opacity="1.00" d=" M 41.16 83.79 C 42.03 81.55 42.98 79.35 43.99 77.17 C 44.92 80.67 45.86 84.19 46.26 87.80 C 46.75 96.31 48.04 105.54 54.07 112.05 C 52.69 112.21 51.32 112.36 49.95 112.52 C 51.49 115.43 53.27 118.21 55.06 120.98 C 54.57 121.02 53.59 121.11 53.10 121.16 C 46.79 118.53 42.06 113.13 38.61 107.39 C 36.82 104.58 38.59 101.20 37.95 98.18 C 36.66 96.24 35.04 94.53 33.63 92.68 C 33.56 92.59 33.43 92.42 33.36 92.34 C 31.29 89.75 29.52 86.88 28.71 83.63 C 30.31 83.30 31.72 83.57 32.96 84.44 C 33.46 84.63 34.45 85.01 34.94 85.19 C 37.51 85.20 39.62 84.27 40.44 81.67 L 40.69 82.31 C 40.81 82.68 41.04 83.42 41.16 83.79 Z" />
<path fill="#ba9257" opacity="1.00" d=" M 111.27 92.07 C 113.30 89.47 115.41 86.94 117.43 84.33 C 117.82 84.76 118.59 85.62 118.98 86.04 C 119.27 86.37 119.85 87.01 120.14 87.33 C 123.15 86.79 126.16 86.21 129.18 85.72 C 128.07 90.53 126.04 95.10 123.25 99.16 C 121.53 101.32 122.55 104.55 120.62 106.62 C 116.38 111.95 111.66 117.34 104.94 119.46 C 104.46 119.10 103.48 118.39 103.00 118.04 C 103.33 117.62 103.99 116.78 104.31 116.37 C 104.96 115.54 105.61 114.72 106.25 113.90 C 106.18 113.49 106.04 112.68 105.97 112.28 C 111.60 107.43 111.71 99.55 110.91 92.75 L 111.27 92.07 Z" />
<path fill="#ba9257" opacity="1.00" d=" M 52.62 98.69 C 54.88 98.78 57.13 99.06 59.33 99.54 C 62.47 101.47 65.56 103.49 68.51 105.70 C 68.76 105.26 69.26 104.38 69.51 103.94 C 71.28 106.60 73.02 109.28 74.75 111.97 C 73.76 112.35 72.76 112.73 71.76 113.11 C 71.25 112.53 70.73 111.94 70.22 111.36 C 69.30 110.30 68.42 109.19 67.32 108.31 C 65.72 107.07 63.97 106.02 62.13 105.17 C 61.07 104.73 60.01 104.29 58.95 103.87 C 58.53 103.70 57.68 103.35 57.26 103.18 C 57.79 105.00 58.32 106.82 58.83 108.65 C 58.34 109.00 57.37 109.72 56.88 110.08 C 56.51 110.35 55.79 110.88 55.43 111.15 C 55.03 106.90 53.96 102.74 52.62 98.69 Z" />
<path fill="#ba9257" opacity="1.00" d=" M 60.83 125.13 C 63.17 127.04 64.14 129.85 64.59 132.74 C 63.29 134.04 61.98 135.35 60.63 136.60 C 60.70 137.94 60.77 139.28 60.83 140.62 C 59.36 142.29 57.93 144.00 56.65 145.82 C 55.94 145.83 54.53 145.85 53.82 145.86 C 54.73 142.90 55.82 140.01 56.99 137.15 C 55.69 137.02 54.38 136.90 53.08 136.81 C 55.12 133.85 57.10 130.86 59.07 127.86 C 59.66 126.95 60.24 126.04 60.83 125.13 Z" />
<path fill="#ba9257" opacity="1.00" d=" M 70.83 135.46 C 74.61 135.78 78.91 135.17 82.06 137.74 C 78.54 139.00 74.77 139.56 71.05 138.90 C 70.98 137.75 70.91 136.60 70.83 135.46 Z" />
<path fill="#ba9257" opacity="1.00" d=" M 51.05 155.44 C 54.09 155.36 56.91 154.08 59.05 151.93 C 60.79 152.79 62.55 153.65 64.33 154.43 C 62.06 155.63 60.21 157.42 58.39 159.21 C 57.65 159.59 56.91 159.96 56.16 160.31 C 54.89 158.27 52.93 156.87 51.05 155.44 Z" />
<path fill="#ba9257" opacity="1.00" d=" M 85.58 160.15 C 87.43 160.13 89.28 160.10 91.13 160.06 C 91.43 161.37 91.73 162.69 92.11 163.99 C 92.65 165.64 93.29 167.26 93.92 168.89 C 89.97 170.04 84.85 174.01 81.47 169.75 C 82.89 166.88 84.17 163.94 85.26 160.93 L 85.58 160.15 Z" />
</g>
<g id="#7c6952fe">
<path fill="#7c6952" opacity="1.00" d=" M 84.77 49.76 C 89.55 44.80 96.65 43.13 101.82 38.60 C 100.78 42.10 99.01 45.31 97.35 48.54 C 93.99 51.64 88.85 49.81 84.77 49.76 Z" />
<path fill="#7c6952" opacity="1.00" d=" M 55.42 48.22 C 60.05 48.33 64.56 50.07 69.20 49.39 C 64.06 50.13 59.33 52.25 55.12 55.25 C 55.10 52.90 55.21 50.56 55.42 48.22 Z" />
<path fill="#7c6952" opacity="1.00" d=" M 104.31 59.50 C 105.00 59.06 105.68 58.62 106.35 58.17 C 107.62 59.74 109.13 61.09 110.70 62.35 C 115.51 66.34 117.61 72.65 118.34 78.67 C 118.70 81.11 118.90 83.58 118.98 86.04 C 118.59 85.62 117.82 84.76 117.43 84.33 C 115.41 86.94 113.30 89.47 111.27 92.07 C 111.34 90.27 111.28 88.46 111.31 86.66 C 112.91 83.20 116.11 80.14 116.46 76.31 C 113.41 70.06 107.89 65.44 104.31 59.50 Z" />
<path fill="#7c6952" opacity="1.00" d=" M 103.08 66.12 C 104.13 67.73 105.20 69.33 106.22 70.96 C 107.37 77.18 106.92 83.82 103.54 89.32 C 102.49 91.15 101.48 93.01 100.56 94.91 C 102.80 93.69 105.02 92.43 107.13 90.99 C 106.23 98.04 104.34 105.17 105.97 112.28 C 106.04 112.68 106.18 113.49 106.25 113.90 C 105.61 114.72 104.96 115.54 104.31 116.37 C 104.03 112.00 103.76 107.53 101.93 103.48 C 100.07 105.51 99.30 108.13 99.14 110.82 C 98.43 111.22 97.72 111.61 97.00 111.99 C 92.47 113.25 87.93 114.52 83.30 115.34 C 82.79 114.09 82.29 112.84 81.78 111.59 C 83.25 109.77 84.70 107.93 86.22 106.16 C 91.90 105.60 95.55 100.38 100.33 97.78 C 99.98 96.72 99.63 95.67 99.29 94.61 C 101.03 91.19 102.63 87.70 104.06 84.14 C 103.58 84.36 102.61 84.81 102.13 85.04 C 105.07 79.10 104.60 72.38 103.08 66.12 M 94.92 106.04 C 93.13 106.91 91.39 107.89 89.73 109.01 C 88.51 108.56 86.46 110.07 87.16 111.39 C 88.25 111.93 89.91 111.55 90.64 110.56 C 91.59 110.42 92.53 110.27 93.48 110.12 C 95.86 109.32 98.00 107.93 98.01 105.16 C 96.98 105.44 95.94 105.74 94.92 106.04 Z" />
<path fill="#7c6952" opacity="1.00" d=" M 54.08 75.66 C 54.98 76.58 55.89 77.49 56.70 78.49 C 56.21 79.47 55.25 80.43 55.66 81.62 C 56.85 86.76 59.44 91.49 60.32 96.73 C 54.76 91.47 52.04 83.10 54.08 75.66 Z" />
<path fill="#7c6952" opacity="1.00" d=" M 32.96 84.44 L 33.70 83.94 C 34.01 84.25 34.63 84.88 34.94 85.19 C 34.45 85.01 33.46 84.63 32.96 84.44 Z" />
<path fill="#7c6952" opacity="1.00" d=" M 61.96 86.53 L 62.49 87.16 C 64.56 89.62 66.64 92.09 68.91 94.39 C 72.25 97.44 76.01 100.85 80.65 101.44 C 86.57 97.51 92.32 93.27 98.07 89.07 C 98.48 90.92 98.89 92.77 99.29 94.61 C 91.86 94.86 87.06 102.05 80.11 103.64 C 72.65 102.45 68.89 95.03 62.59 91.78 C 62.21 93.66 61.83 95.55 61.45 97.43 C 60.35 97.75 59.25 98.08 58.15 98.42 C 58.45 98.70 59.04 99.26 59.33 99.54 C 57.13 99.06 54.88 98.78 52.62 98.69 C 51.94 96.45 51.50 94.15 51.10 91.85 C 53.87 93.98 56.91 95.85 60.32 96.73 C 60.87 93.33 61.37 89.92 61.96 86.53 Z" />
<path fill="#7c6952" opacity="1.00" d=" M 105.97 112.28 C 107.81 105.82 107.53 98.71 110.91 92.75 C 111.71 99.55 111.60 107.43 105.97 112.28 Z" />
<path fill="#7c6952" opacity="1.00" d=" M 60.21 121.16 C 65.87 123.33 71.11 126.95 77.28 127.53 C 83.43 127.95 88.73 124.22 94.54 122.90 C 93.70 126.53 97.62 127.39 99.81 129.15 C 102.48 134.37 106.69 138.65 109.06 144.06 C 109.21 146.13 109.03 148.21 108.87 150.27 C 108.42 150.16 107.51 149.92 107.06 149.81 C 105.06 148.55 103.31 146.97 101.54 145.42 C 101.93 142.58 102.28 139.73 102.54 136.87 C 99.37 136.08 97.30 133.75 96.61 130.62 C 95.15 130.19 93.69 129.78 92.24 129.36 C 91.57 130.49 90.89 131.61 90.25 132.76 C 89.74 134.04 89.37 135.37 89.01 136.70 C 85.95 138.78 82.91 140.90 80.05 143.25 C 78.43 143.44 76.81 143.60 75.19 143.72 C 73.52 141.03 70.51 140.39 67.57 140.28 C 67.42 139.67 67.13 138.44 66.99 137.82 C 66.31 136.07 65.35 134.45 64.59 132.74 C 64.14 129.85 63.17 127.04 60.83 125.13 C 60.24 126.04 59.66 126.95 59.07 127.86 C 59.44 125.62 59.83 123.39 60.21 121.16 M 70.83 135.46 C 70.91 136.60 70.98 137.75 71.05 138.90 C 74.77 139.56 78.54 139.00 82.06 137.74 C 78.91 135.17 74.61 135.78 70.83 135.46 Z" />
<path fill="#7c6952" opacity="1.00" d=" M 83.70 150.89 C 84.98 150.55 86.26 150.23 87.53 149.90 C 87.79 150.68 88.30 152.23 88.56 153.01 L 88.93 153.81 C 86.25 155.32 84.92 152.88 83.70 150.89 Z" />
<path fill="#7c6952" opacity="1.00" d=" M 94.10 161.34 C 95.74 160.76 97.38 160.17 99.01 159.57 L 98.83 160.38 C 98.44 162.09 98.05 163.79 97.65 165.50 C 100.35 165.44 103.03 165.91 105.46 167.14 C 105.12 167.33 104.43 167.71 104.09 167.90 C 100.69 168.08 97.23 167.99 93.92 168.89 C 93.29 167.26 92.65 165.64 92.11 163.99 C 92.78 163.11 93.46 162.24 94.10 161.34 Z" />
<path fill="#7c6952" opacity="1.00" d=" M 52.19 173.66 C 53.10 173.35 54.01 173.04 54.91 172.72 C 55.14 174.29 55.35 175.86 55.54 177.44 C 55.62 178.11 55.76 179.44 55.84 180.11 C 54.16 180.08 52.48 180.02 50.81 179.95 C 51.80 178.23 52.87 176.56 53.95 174.90 C 53.51 174.59 52.63 173.97 52.19 173.66 Z" />
</g>
<g id="#303232fe">
<path fill="#303232" opacity="1.00" d=" M 44.84 53.95 C 47.15 50.31 50.78 47.76 54.96 46.72 C 51.86 49.48 48.45 51.90 44.84 53.95 Z" />
<path fill="#303232" opacity="1.00" d=" M 126.13 48.18 C 127.94 47.56 128.42 50.52 126.68 50.84 C 124.79 51.56 124.35 48.50 126.13 48.18 Z" />
<path fill="#303232" opacity="1.00" d=" M 125.95 59.02 C 125.36 56.29 127.77 54.78 129.88 53.82 C 129.00 55.80 128.59 58.73 125.95 59.02 Z" />
<path fill="#303232" opacity="1.00" d=" M 26.92 55.73 C 28.63 56.46 31.03 56.88 31.76 58.84 C 30.13 61.77 27.81 57.23 26.92 55.73 Z" />
<path fill="#303232" opacity="1.00" d=" M 35.20 71.18 C 37.28 71.92 34.67 75.01 33.28 73.61 C 32.42 72.43 33.97 70.94 35.20 71.18 Z" />
<path fill="#303232" opacity="1.00" d=" M 118.53 71.25 C 119.45 70.24 121.36 71.71 120.59 72.86 C 119.67 73.88 117.76 72.39 118.53 71.25 Z" />
<path fill="#303232" opacity="1.00" d=" M 55.66 81.62 C 55.25 80.43 56.21 79.47 56.70 78.49 C 57.39 79.41 58.04 80.37 58.66 81.34 C 59.70 83.11 60.76 84.87 61.96 86.53 C 61.37 89.92 60.87 93.33 60.32 96.73 C 59.44 91.49 56.85 86.76 55.66 81.62 Z" />
<path fill="#303232" opacity="1.00" d=" M 102.13 85.04 C 102.61 84.81 103.58 84.36 104.06 84.14 C 102.63 87.70 101.03 91.19 99.29 94.61 C 98.89 92.77 98.48 90.92 98.07 89.07 C 99.47 87.78 100.79 86.39 102.13 85.04 Z" />
<path fill="#303232" opacity="1.00" d=" M 54.07 112.05 C 48.04 105.54 46.75 96.31 46.26 87.80 C 47.87 89.15 49.46 90.53 51.10 91.85 C 51.50 94.15 51.94 96.45 52.62 98.69 C 53.96 102.74 55.03 106.90 55.43 111.15 C 55.55 113.95 56.15 116.70 56.84 119.41 C 56.22 120.92 54.72 122.37 53.10 121.16 C 53.59 121.11 54.57 121.02 55.06 120.98 C 53.27 118.21 51.49 115.43 49.95 112.52 C 51.32 112.36 52.69 112.21 54.07 112.05 Z" />
<path fill="#303232" opacity="1.00" d=" M 33.36 92.34 C 33.43 92.42 33.56 92.59 33.63 92.68 C 33.56 92.59 33.43 92.42 33.36 92.34 Z" />
<path fill="#303232" opacity="1.00" d=" M 57.26 103.18 C 57.68 103.35 58.53 103.70 58.95 103.87 C 59.26 106.00 59.67 108.34 61.86 109.34 C 62.80 109.75 63.76 110.14 64.72 110.49 C 66.48 111.15 68.35 111.45 70.22 111.36 C 70.73 111.94 71.25 112.53 71.76 113.11 C 70.83 113.47 69.90 113.82 68.98 114.17 C 65.63 112.81 62.29 111.45 58.84 110.39 C 58.35 110.32 57.37 110.16 56.88 110.08 C 57.37 109.72 58.34 109.00 58.83 108.65 C 58.32 106.82 57.79 105.00 57.26 103.18 Z" />
<path fill="#303232" opacity="1.00" d=" M 84.59 119.41 C 84.99 119.35 85.81 119.23 86.22 119.17 C 85.85 120.26 85.50 121.34 85.15 122.43 C 80.68 122.78 76.18 122.98 71.73 122.35 C 75.88 120.56 81.34 123.08 84.59 119.41 Z" />
<path fill="#303232" opacity="1.00" d=" M 98.33 121.58 C 98.42 121.53 98.62 121.43 98.72 121.38 C 98.62 121.43 98.42 121.53 98.33 121.58 Z" />
<path fill="#303232" opacity="1.00" d=" M 92.24 129.36 C 93.69 129.78 95.15 130.19 96.61 130.62 C 97.30 133.75 99.37 136.08 102.54 136.87 C 102.28 139.73 101.93 142.58 101.54 145.42 C 103.31 146.97 105.06 148.55 107.06 149.81 C 105.66 149.80 104.26 149.80 102.86 149.79 C 102.59 151.23 102.32 152.67 101.97 154.10 C 102.10 152.14 102.10 150.17 102.10 148.21 C 100.45 147.24 98.79 146.27 97.17 145.25 C 97.30 143.28 97.53 141.24 97.01 139.31 C 95.20 137.81 93.05 136.80 90.99 135.70 C 90.81 134.96 90.44 133.49 90.25 132.76 C 90.89 131.61 91.57 130.49 92.24 129.36 Z" />
<path fill="#303232" opacity="1.00" d=" M 80.05 143.25 C 82.91 140.90 85.95 138.78 89.01 136.70 C 89.70 137.81 90.38 138.94 91.09 140.05 C 88.84 140.86 86.47 141.21 84.08 141.26 C 88.12 144.33 92.56 146.94 96.06 150.67 C 95.38 150.72 94.02 150.81 93.35 150.86 C 93.83 152.27 94.34 153.68 94.71 155.13 C 92.64 154.46 90.59 153.76 88.56 153.01 C 88.30 152.23 87.79 150.68 87.53 149.90 C 86.26 150.23 84.98 150.55 83.70 150.89 C 84.92 152.88 86.25 155.32 88.93 153.81 C 90.05 155.74 90.68 157.89 91.13 160.06 C 89.28 160.10 87.43 160.13 85.58 160.15 C 82.87 158.08 80.82 155.37 79.08 152.47 C 79.54 150.31 80.19 148.19 80.84 146.08 C 81.94 145.12 83.03 144.15 84.12 143.18 C 82.76 143.18 81.40 143.20 80.05 143.25 Z" />
<path fill="#303232" opacity="1.00" d=" M 98.54 153.00 C 99.62 153.75 100.75 154.41 101.88 155.07 C 100.38 156.17 99.71 157.91 99.01 159.57 C 97.38 160.17 95.74 160.76 94.10 161.34 L 94.55 160.61 C 96.07 158.18 97.36 155.61 98.54 153.00 Z" />
<path fill="#303232" opacity="1.00" d=" M 56.16 160.31 C 56.91 159.96 57.65 159.59 58.39 159.21 C 60.68 162.30 65.34 160.86 67.55 164.09 C 69.48 166.43 71.68 168.53 74.05 170.44 C 70.28 170.58 66.56 169.07 62.83 169.69 C 61.21 171.65 60.01 173.90 58.65 176.04 C 57.61 176.50 56.58 176.97 55.54 177.44 C 55.35 175.86 55.14 174.29 54.91 172.72 C 56.78 171.86 58.65 171.01 60.50 170.12 C 59.03 166.86 57.07 163.79 56.16 160.31 Z" />
<path fill="#303232" opacity="1.00" d=" M 98.83 160.38 C 105.70 160.60 113.32 157.51 119.42 162.17 C 115.70 163.53 111.80 164.35 108.11 165.79 C 107.22 166.22 106.33 166.67 105.46 167.14 C 103.03 165.91 100.35 165.44 97.65 165.50 C 98.05 163.79 98.44 162.09 98.83 160.38 Z" />
<path fill="#303232" opacity="1.00" d=" M 107.10 178.60 C 108.12 177.22 109.85 176.80 111.47 176.64 C 111.90 178.55 108.43 179.55 107.10 178.60 Z" />
<path fill="#303232" opacity="1.00" d=" M 106.04 190.29 C 110.78 190.16 114.91 187.67 119.21 186.00 L 119.93 185.71 C 120.03 188.37 120.46 191.10 119.79 193.73 C 117.35 196.23 113.70 196.82 110.46 197.65 C 97.18 200.36 83.53 200.75 70.02 200.26 C 61.63 199.63 53.14 199.15 44.98 196.95 C 42.82 196.26 40.43 195.61 38.89 193.83 C 38.22 191.82 38.64 189.65 38.66 187.57 C 40.37 187.65 42.02 188.07 43.67 188.48 C 43.95 188.54 44.51 188.65 44.79 188.71 C 44.68 189.23 44.47 190.28 44.37 190.81 C 50.43 189.29 57.18 189.23 62.42 193.08 C 70.65 190.85 79.20 192.05 87.60 191.53 C 93.75 191.19 99.89 190.61 106.04 190.29 Z" />
</g>
<g id="#d6a873ff">
<path fill="#d6a873" opacity="1.00" d=" M 46.48 63.67 C 48.98 62.38 51.72 60.79 54.64 61.55 C 62.32 62.58 69.11 67.35 76.99 67.17 C 82.60 67.49 89.44 66.84 93.55 71.49 C 94.50 76.43 92.80 81.70 89.26 85.25 C 85.96 88.72 82.12 92.67 76.99 92.77 C 73.87 93.23 72.66 89.81 70.96 87.90 C 71.14 89.51 71.33 91.12 71.51 92.73 C 70.64 93.28 69.77 93.83 68.91 94.39 C 66.64 92.09 64.56 89.62 62.49 87.16 C 64.87 88.59 67.39 89.78 69.92 90.92 C 68.84 84.97 66.74 79.28 65.13 73.46 C 63.29 73.44 61.11 73.19 59.82 74.83 C 57.92 76.46 58.62 79.17 58.66 81.34 C 58.04 80.37 57.39 79.41 56.70 78.49 C 55.89 77.49 54.98 76.58 54.08 75.66 C 52.04 83.10 54.76 91.47 60.32 96.73 C 56.91 95.85 53.87 93.98 51.10 91.85 C 49.46 90.53 47.87 89.15 46.26 87.80 C 45.86 84.19 44.92 80.67 43.99 77.17 C 42.98 79.35 42.03 81.55 41.16 83.79 C 41.04 83.42 40.81 82.68 40.69 82.31 C 41.60 76.12 42.88 69.82 45.98 64.31 L 46.48 63.67 M 68.85 75.95 C 69.60 80.16 69.42 86.35 74.13 88.19 C 81.23 89.64 86.69 81.68 85.78 75.30 C 84.88 73.72 82.90 73.07 81.17 73.25 C 76.98 73.63 72.77 74.39 68.85 75.95 Z" />
<path fill="#d6a873" opacity="1.00" d=" M 62.59 91.78 C 68.89 95.03 72.65 102.45 80.11 103.64 C 87.06 102.05 91.86 94.86 99.29 94.61 C 99.63 95.67 99.98 96.72 100.33 97.78 C 95.55 100.38 91.90 105.60 86.22 106.16 C 84.70 107.93 83.25 109.77 81.78 111.59 C 82.29 112.84 82.79 114.09 83.30 115.34 C 81.08 115.06 78.96 114.32 76.75 114.05 C 74.15 114.03 71.53 115.11 68.98 114.17 C 69.90 113.82 70.83 113.47 71.76 113.11 C 72.76 112.73 73.76 112.35 74.75 111.97 C 73.02 109.28 71.28 106.60 69.51 103.94 C 69.26 104.38 68.76 105.26 68.51 105.70 C 65.56 103.49 62.47 101.47 59.33 99.54 C 59.04 99.26 58.45 98.70 58.15 98.42 C 59.25 98.08 60.35 97.75 61.45 97.43 C 61.83 95.55 62.21 93.66 62.59 91.78 Z" />
<path fill="#d6a873" opacity="1.00" d=" M 99.14 110.82 C 99.30 108.13 100.07 105.51 101.93 103.48 C 103.76 107.53 104.03 112.00 104.31 116.37 C 103.99 116.78 103.33 117.62 103.00 118.04 C 101.92 119.54 100.33 120.54 98.72 121.38 C 98.62 121.43 98.42 121.53 98.33 121.58 C 97.11 122.15 95.85 122.59 94.54 122.90 C 88.73 124.22 83.43 127.95 77.28 127.53 C 71.11 126.95 65.87 123.33 60.21 121.16 C 59.02 120.70 57.90 120.11 56.84 119.41 C 56.15 116.70 55.55 113.95 55.43 111.15 C 55.79 110.88 56.51 110.35 56.88 110.08 C 57.37 110.16 58.35 110.32 58.84 110.39 C 56.93 112.26 56.45 115.46 58.85 117.16 C 62.48 121.29 68.05 118.19 72.61 119.35 C 76.57 120.19 80.61 119.85 84.59 119.41 C 81.34 123.08 75.88 120.56 71.73 122.35 C 76.18 122.98 80.68 122.78 85.15 122.43 C 85.50 121.34 85.85 120.26 86.22 119.17 C 89.90 118.62 93.84 118.92 97.23 117.18 C 99.32 116.16 100.69 114.22 102.10 112.45 C 100.40 112.28 98.70 112.10 97.00 111.99 C 97.72 111.61 98.43 111.22 99.14 110.82 Z" />
<path fill="#d6a873" opacity="1.00" d=" M 75.19 143.72 C 76.81 143.60 78.43 143.44 80.05 143.25 C 81.40 143.20 82.76 143.18 84.12 143.18 C 83.03 144.15 81.94 145.12 80.84 146.08 C 79.45 146.38 78.07 146.69 76.69 146.95 C 75.17 146.78 73.66 146.58 72.16 146.36 C 73.16 145.46 74.17 144.58 75.19 143.72 Z" />
</g>
<g id="#f6cb93ff">
<path fill="#f6cb93" opacity="1.00" d=" M 106.03 69.17 C 108.14 70.96 110.62 72.65 111.69 75.31 C 112.08 77.92 110.66 80.36 109.59 82.64 C 108.12 85.27 106.75 88.51 103.54 89.32 C 106.92 83.82 107.37 77.18 106.22 70.96 C 106.17 70.51 106.08 69.62 106.03 69.17 Z" />
<path fill="#f6cb93" opacity="1.00" d=" M 59.82 74.83 C 61.11 73.19 63.29 73.44 65.13 73.46 C 66.74 79.28 68.84 84.97 69.92 90.92 C 67.39 89.78 64.87 88.59 62.49 87.16 L 61.96 86.53 C 60.76 84.87 59.70 83.11 58.66 81.34 C 58.62 79.17 57.92 76.46 59.82 74.83 Z" />
<path fill="#f6cb93" opacity="1.00" d=" M 68.85 75.95 C 72.77 74.39 76.98 73.63 81.17 73.25 C 82.90 73.07 84.88 73.72 85.78 75.30 C 86.69 81.68 81.23 89.64 74.13 88.19 C 69.42 86.35 69.60 80.16 68.85 75.95 Z" />
<path fill="#f6cb93" opacity="1.00" d=" M 58.85 117.16 C 56.45 115.46 56.93 112.26 58.84 110.39 C 62.29 111.45 65.63 112.81 68.98 114.17 C 71.53 115.11 74.15 114.03 76.75 114.05 C 78.96 114.32 81.08 115.06 83.30 115.34 C 87.93 114.52 92.47 113.25 97.00 111.99 C 98.70 112.10 100.40 112.28 102.10 112.45 C 100.69 114.22 99.32 116.16 97.23 117.18 C 93.84 118.92 89.90 118.62 86.22 119.17 C 85.81 119.23 84.99 119.35 84.59 119.41 C 80.61 119.85 76.57 120.19 72.61 119.35 C 68.05 118.19 62.48 121.29 58.85 117.16 Z" />
<path fill="#f6cb93" opacity="1.00" d=" M 49.90 144.73 C 50.79 142.10 50.08 138.19 53.08 136.81 C 54.38 136.90 55.69 137.02 56.99 137.15 C 55.82 140.01 54.73 142.90 53.82 145.86 C 54.53 145.85 55.94 145.83 56.65 145.82 C 57.15 145.80 58.14 145.76 58.64 145.75 C 59.56 147.06 60.49 148.39 61.41 149.71 C 60.63 150.46 59.84 151.19 59.05 151.93 C 56.91 154.08 54.09 155.36 51.05 155.44 C 50.62 155.34 49.77 155.14 49.34 155.04 C 49.17 151.59 48.74 148.06 49.90 144.73 Z" />
</g>
<g id="#0b0c0bfe">
<path fill="#0b0c0b" opacity="1.00" d=" M 107.13 90.99 C 108.63 89.65 110.01 88.19 111.31 86.66 C 111.28 88.46 111.34 90.27 111.27 92.07 L 110.91 92.75 C 107.53 98.71 107.81 105.82 105.97 112.28 C 104.34 105.17 106.23 98.04 107.13 90.99 Z" />
<path fill="#0b0c0b" opacity="1.00" d=" M 65.01 140.18 C 65.67 139.40 66.33 138.61 66.99 137.82 C 67.13 138.44 67.42 139.67 67.57 140.28 C 70.51 140.39 73.52 141.03 75.19 143.72 C 74.17 144.58 73.16 145.46 72.16 146.36 C 73.66 146.58 75.17 146.78 76.69 146.95 C 77.30 147.04 78.53 147.23 79.14 147.32 C 76.91 147.59 74.67 147.86 72.44 148.16 C 72.47 150.82 72.50 153.48 72.54 156.15 C 73.48 156.31 74.42 156.48 75.36 156.65 C 75.93 158.19 76.56 159.73 77.28 161.21 C 77.87 158.63 78.38 156.04 78.90 153.44 C 78.90 154.23 78.90 155.80 78.90 156.58 C 80.32 157.49 81.73 158.41 83.12 159.36 C 81.58 161.13 79.99 162.87 78.65 164.81 C 81.25 164.29 83.53 162.93 85.26 160.93 C 84.17 163.94 82.89 166.88 81.47 169.75 C 78.99 169.90 76.52 170.26 74.05 170.44 C 71.68 168.53 69.48 166.43 67.55 164.09 C 68.04 161.47 66.82 159.24 64.32 158.31 C 65.72 157.44 67.43 156.78 68.24 155.23 C 70.46 151.16 71.75 146.67 73.04 142.25 C 70.35 141.61 67.67 140.94 65.01 140.18 Z" />
<path fill="#0b0c0b" opacity="1.00" d=" M 88.56 153.01 C 90.59 153.76 92.64 154.46 94.71 155.13 C 94.70 156.95 94.63 158.78 94.55 160.61 L 94.10 161.34 C 93.46 162.24 92.78 163.11 92.11 163.99 C 91.73 162.69 91.43 161.37 91.13 160.06 C 90.68 157.89 90.05 155.74 88.93 153.81 L 88.56 153.01 Z" />
<path fill="#0b0c0b" opacity="1.00" d=" M 99.70 180.86 C 101.67 180.56 103.65 180.28 105.65 180.14 C 110.47 181.08 115.78 182.17 119.21 186.00 C 114.91 187.67 110.78 190.16 106.04 190.29 C 99.89 190.61 93.75 191.19 87.60 191.53 C 79.20 192.05 70.65 190.85 62.42 193.08 C 57.18 189.23 50.43 189.29 44.37 190.81 C 44.47 190.28 44.68 189.23 44.79 188.71 C 50.04 188.24 55.31 188.26 60.56 188.79 C 68.43 187.14 76.54 186.76 84.30 184.57 C 88.36 183.69 92.39 182.51 96.56 182.41 C 96.16 182.11 95.75 181.82 95.35 181.53 C 96.80 181.32 98.25 181.09 99.70 180.86 Z" />
</g>
<g id="#f3fffeff">
<path fill="#f3fffe" opacity="1.00" d=" M 58.95 103.87 C 60.01 104.29 61.07 104.73 62.13 105.17 C 62.05 106.56 61.96 107.95 61.86 109.34 C 59.67 108.34 59.26 106.00 58.95 103.87 Z" />
<path fill="#f3fffe" opacity="1.00" d=" M 94.92 106.04 C 95.94 105.74 96.98 105.44 98.01 105.16 C 98.00 107.93 95.86 109.32 93.48 110.12 C 93.95 108.76 94.44 107.40 94.92 106.04 Z" />
<path fill="#f3fffe" opacity="1.00" d=" M 62.72 107.32 C 64.26 107.63 65.80 107.93 67.32 108.31 C 68.42 109.19 69.30 110.30 70.22 111.36 C 68.35 111.45 66.48 111.15 64.72 110.49 C 64.06 109.43 63.39 108.38 62.72 107.32 Z" />
<path fill="#f3fffe" opacity="1.00" d=" M 87.16 111.39 C 86.46 110.07 88.51 108.56 89.73 109.01 C 89.96 109.40 90.42 110.17 90.64 110.56 C 89.91 111.55 88.25 111.93 87.16 111.39 Z" />
<path fill="#f3fffe" opacity="1.00" d=" M 74.84 177.81 C 76.46 174.96 80.03 175.54 82.78 175.06 C 84.96 176.32 87.25 177.38 89.57 178.34 C 87.34 179.79 85.26 181.61 82.70 182.48 C 79.61 182.89 76.50 182.24 73.42 181.98 C 73.89 180.58 74.34 179.19 74.84 177.81 Z" />
</g>
<g id="#976a1cff">
<path fill="#976a1c" opacity="1.00" d=" M 65.01 140.18 C 67.67 140.94 70.35 141.61 73.04 142.25 C 71.75 146.67 70.46 151.16 68.24 155.23 C 67.43 156.78 65.72 157.44 64.32 158.31 C 64.32 157.02 64.33 155.72 64.33 154.43 C 62.55 153.65 60.79 152.79 59.05 151.93 C 59.84 151.19 60.63 150.46 61.41 149.71 C 60.49 148.39 59.56 147.06 58.64 145.75 C 60.96 144.13 63.15 142.31 65.01 140.18 Z" />
<path fill="#976a1c" opacity="1.00" d=" M 84.08 141.26 C 86.47 141.21 88.84 140.86 91.09 140.05 C 92.75 142.16 94.88 143.85 97.17 145.25 C 98.79 146.27 100.45 147.24 102.10 148.21 C 102.10 150.17 102.10 152.14 101.97 154.10 L 101.88 155.07 C 100.75 154.41 99.62 153.75 98.54 153.00 C 97.69 152.25 96.86 151.47 96.06 150.67 C 92.56 146.94 88.12 144.33 84.08 141.26 Z" />
<path fill="#976a1c" opacity="1.00" d=" M 76.69 146.95 C 78.07 146.69 79.45 146.38 80.84 146.08 C 80.19 148.19 79.54 150.31 79.08 152.47 L 78.90 153.44 C 78.38 156.04 77.87 158.63 77.28 161.21 C 76.56 159.73 75.93 158.19 75.36 156.65 C 74.42 156.48 73.48 156.31 72.54 156.15 C 72.50 153.48 72.47 150.82 72.44 148.16 C 74.67 147.86 76.91 147.59 79.14 147.32 C 78.53 147.23 77.30 147.04 76.69 146.95 Z" />
</g>
<g id="#96f2f8fd">
<path fill="#96f2f8" opacity="1.00" d=" M 105.46 167.14 C 106.33 166.67 107.22 166.22 108.11 165.79 C 109.03 166.91 109.93 168.03 110.83 169.17 C 105.02 170.69 103.18 176.69 99.70 180.86 C 98.25 181.09 96.80 181.32 95.35 181.53 C 95.75 181.82 96.16 182.11 96.56 182.41 C 92.39 182.51 88.36 183.69 84.30 184.57 C 78.70 184.80 73.07 184.07 67.48 184.62 C 64.62 184.84 62.37 186.72 60.56 188.79 C 55.31 188.26 50.04 188.24 44.79 188.71 C 44.51 188.65 43.95 188.54 43.67 188.48 C 43.68 186.46 43.47 184.45 43.07 182.47 C 47.24 181.26 51.58 180.76 55.92 180.87 L 55.84 180.11 C 55.76 179.44 55.62 178.11 55.54 177.44 C 56.58 176.97 57.61 176.50 58.65 176.04 C 63.95 177.33 69.39 178.01 74.84 177.81 C 74.34 179.19 73.89 180.58 73.42 181.98 C 76.50 182.24 79.61 182.89 82.70 182.48 C 85.26 181.61 87.34 179.79 89.57 178.34 C 87.25 177.38 84.96 176.32 82.78 175.06 C 89.96 173.00 97.82 172.26 104.09 167.90 C 104.43 167.71 105.12 167.33 105.46 167.14 Z" />
</g>
</svg>
