<?xml version="1.0" encoding="UTF-8" ?>
<!DOCTYPE svg PUBLIC "-//W3C//DTD SVG 1.1//EN" "http://www.w3.org/Graphics/SVG/1.1/DTD/svg11.dtd">
<svg width="155pt" height="210pt" viewBox="0 0 155 210" version="1.1" xmlns="http://www.w3.org/2000/svg">
<g id="#52b9b8ff">
<path fill="#52b9b8" opacity="1.00" d=" M 33.77 47.57 C 34.77 46.10 36.98 45.78 38.50 46.50 C 40.31 48.68 39.10 51.83 39.50 54.45 C 45.09 53.76 49.08 58.02 52.04 62.12 C 55.42 61.62 58.35 63.08 60.24 65.84 C 64.97 64.07 69.84 62.21 74.97 62.27 C 82.82 61.98 90.23 65.02 97.94 65.92 C 98.63 64.10 98.13 60.99 100.82 60.78 L 100.77 62.14 C 99.34 63.20 98.84 65.00 97.97 66.48 L 97.10 66.21 C 97.71 69.14 98.70 71.98 99.90 74.73 C 96.26 74.51 92.63 74.04 89.08 73.18 C 90.81 75.12 92.95 77.11 92.70 79.96 C 92.70 84.72 95.20 90.16 91.76 94.31 C 88.60 96.68 87.00 100.38 84.87 103.58 C 81.63 98.85 84.83 92.88 83.95 87.61 C 80.57 91.35 79.63 96.51 76.72 100.56 C 76.33 100.78 75.55 101.20 75.17 101.41 C 72.01 100.99 68.88 100.36 65.74 99.85 C 66.96 99.44 68.17 99.00 69.37 98.54 C 65.95 97.59 62.39 97.45 58.86 97.45 C 65.51 94.33 73.08 94.76 79.87 92.12 C 78.84 90.75 77.74 89.42 76.92 87.91 C 75.92 83.62 77.21 79.13 76.24 74.83 C 74.19 73.27 71.51 73.04 69.03 72.76 C 63.97 72.39 58.74 72.05 53.83 73.67 C 51.79 74.47 49.62 74.34 47.52 73.94 C 47.85 72.66 48.18 71.38 48.51 70.09 C 46.67 67.60 46.76 64.56 46.56 61.64 C 45.28 57.25 39.84 56.43 36.30 58.59 C 33.88 58.47 31.40 58.47 29.09 59.31 C 30.33 55.30 31.11 50.94 33.77 47.57 Z" />
<path fill="#52b9b8" opacity="1.00" d=" M 118.89 53.81 C 122.34 52.24 125.30 49.84 128.66 48.11 C 128.01 51.08 127.11 54.23 124.25 55.81 C 123.57 55.77 122.19 55.67 121.51 55.63 C 120.65 56.21 119.80 56.79 118.95 57.37 C 120.23 58.14 121.50 58.91 122.75 59.72 C 122.61 60.65 122.47 61.58 122.32 62.51 C 120.01 61.21 117.41 60.65 114.78 60.48 C 114.66 61.10 114.40 62.34 114.27 62.96 C 116.00 63.91 117.72 64.88 119.33 66.03 C 116.94 68.84 114.47 72.00 115.71 75.92 C 115.32 75.77 114.55 75.45 114.16 75.29 C 114.40 76.95 114.64 78.61 114.87 80.27 C 112.21 78.05 110.18 75.18 109.28 71.81 C 108.24 67.96 105.46 65.05 103.00 62.07 C 103.97 61.37 104.95 60.69 105.94 60.02 C 109.93 57.32 114.57 55.86 118.89 53.81 Z" />
<path fill="#52b9b8" opacity="1.00" d=" M 31.83 62.64 C 31.93 63.49 32.13 65.20 32.22 66.05 C 31.46 68.33 31.45 70.74 31.84 73.09 C 33.24 74.89 34.83 76.51 36.44 78.12 C 38.16 75.71 39.92 73.33 41.81 71.05 C 40.55 75.40 38.23 79.32 36.54 83.48 C 36.34 86.05 37.17 88.57 37.60 91.08 C 38.33 89.41 39.05 87.73 39.77 86.06 C 39.50 92.00 40.44 98.20 38.22 103.88 C 38.44 100.98 39.02 98.05 38.71 95.13 C 37.62 93.33 36.51 91.52 36.12 89.41 C 34.74 88.10 34.45 86.41 35.31 84.71 C 31.98 78.79 27.39 72.82 28.27 65.61 C 28.37 65.90 28.56 66.48 28.65 66.77 C 29.72 65.40 30.74 63.99 31.83 62.64 Z" />
<path fill="#52b9b8" opacity="1.00" d=" M 119.62 87.44 C 120.31 87.41 121.69 87.35 122.38 87.32 C 121.73 87.44 120.44 87.68 119.79 87.81 C 119.31 89.72 118.13 91.31 117.21 93.03 C 117.55 98.80 117.94 104.66 116.43 110.32 C 116.83 110.71 117.63 111.50 118.04 111.89 C 111.90 110.67 106.41 107.31 102.11 102.82 C 103.91 102.43 106.00 102.72 107.57 101.66 C 109.53 98.71 110.70 95.31 112.55 92.29 C 116.05 93.14 117.82 89.75 119.62 87.44 M 109.54 105.08 C 110.16 107.69 112.53 109.14 115.05 109.46 C 115.36 104.65 116.67 99.89 116.13 95.05 C 112.58 97.21 110.92 101.36 109.54 105.08 Z" />
<path fill="#52b9b8" opacity="1.00" d=" M 94.19 93.64 C 94.76 93.07 95.32 92.50 95.89 91.94 C 95.71 95.91 94.72 99.76 93.17 103.41 C 96.16 105.20 99.40 106.72 101.84 109.27 C 99.67 108.39 97.49 107.54 95.33 106.63 C 95.85 113.81 94.25 120.93 91.12 127.38 L 90.22 127.46 C 92.16 121.47 93.46 115.28 94.28 109.04 C 94.82 106.53 92.73 104.62 91.94 102.41 C 92.63 99.47 93.40 96.55 94.19 93.64 Z" />
<path fill="#52b9b8" opacity="1.00" d=" M 72.82 105.58 C 74.07 105.08 75.33 104.61 76.60 104.15 C 76.48 105.26 76.35 106.37 76.22 107.49 C 73.42 109.82 70.53 112.05 67.75 114.41 L 66.97 114.52 C 68.59 111.45 70.47 108.53 72.49 105.72 C 72.57 105.68 72.74 105.61 72.82 105.58 Z" />
<path fill="#52b9b8" opacity="1.00" d=" M 44.54 106.28 C 44.93 105.94 45.34 105.62 45.76 105.32 C 46.25 105.14 47.24 104.79 47.73 104.62 L 46.94 106.23 C 44.53 111.67 42.97 117.57 43.43 123.57 C 43.14 126.06 42.84 128.54 42.62 131.04 C 42.59 131.22 42.53 131.60 42.50 131.78 C 43.06 131.59 44.18 131.21 44.74 131.02 C 47.58 132.04 51.02 132.40 52.92 135.02 C 54.82 137.37 56.55 139.86 58.62 142.08 C 58.33 137.29 54.66 133.64 51.01 130.97 C 49.10 129.40 46.52 129.59 44.22 129.33 C 44.32 128.69 44.51 127.40 44.61 126.76 L 44.91 125.20 C 46.18 125.49 47.44 125.80 48.69 126.13 C 50.75 127.04 52.70 128.18 54.61 129.37 L 54.08 129.50 C 55.24 132.25 57.75 134.05 59.60 136.31 C 61.39 138.46 63.35 140.47 65.55 142.21 C 67.35 145.02 69.73 147.43 73.23 147.81 C 74.07 147.17 74.89 146.51 75.70 145.85 C 76.29 147.62 76.95 149.38 77.49 151.18 L 77.79 152.45 L 77.81 152.55 C 75.82 152.94 73.82 153.32 71.82 153.71 C 74.34 162.57 77.63 173.02 71.73 181.31 C 70.27 182.42 68.76 183.47 67.22 184.48 C 61.67 185.57 56.30 183.09 52.03 179.72 C 46.73 175.29 42.71 169.59 38.55 164.14 C 38.81 163.98 39.32 163.65 39.58 163.49 C 40.93 163.15 42.31 162.91 43.68 162.65 C 43.76 161.83 43.92 160.20 44.00 159.39 C 47.46 160.06 50.77 161.36 53.63 163.42 C 54.35 161.37 54.33 158.61 56.44 157.41 C 58.85 156.77 61.45 157.02 63.79 156.08 C 62.68 155.08 61.52 154.16 60.35 153.24 C 60.65 153.04 61.25 152.63 61.55 152.42 C 61.60 153.93 63.56 154.32 64.60 153.54 C 64.65 153.00 64.74 151.92 64.78 151.38 C 66.23 150.95 67.53 150.20 68.84 149.46 C 66.51 148.28 64.24 147.01 62.07 145.58 C 59.64 147.72 57.45 150.10 55.16 152.37 C 52.84 153.87 49.89 153.76 47.29 154.44 C 46.40 153.95 45.51 153.49 44.61 153.04 C 44.96 152.63 45.67 151.82 46.03 151.42 C 48.51 152.21 51.33 153.38 53.83 151.99 C 54.89 151.08 55.83 150.04 56.79 149.04 C 52.87 149.99 49.02 149.03 45.88 146.55 C 45.02 146.78 43.29 147.23 42.43 147.45 C 40.97 148.11 39.90 149.39 38.62 150.33 C 38.24 150.43 37.49 150.64 37.11 150.74 C 37.63 148.34 37.75 145.84 38.57 143.50 C 39.79 142.20 41.31 141.22 42.72 140.13 C 43.85 142.09 45.07 143.99 46.43 145.80 C 45.63 143.06 44.86 139.77 42.12 138.31 C 39.80 138.70 37.79 140.03 35.91 141.37 C 34.98 139.65 34.09 137.91 33.23 136.15 C 33.33 139.18 33.20 142.21 33.04 145.25 C 31.34 138.04 32.53 127.73 40.64 125.00 C 40.72 124.29 40.88 122.87 40.96 122.16 C 42.23 116.88 42.69 111.41 44.54 106.28 M 46.52 141.78 C 47.78 144.95 50.60 146.59 53.89 146.95 C 54.08 146.59 54.46 145.89 54.65 145.54 C 53.32 144.35 52.01 143.14 50.78 141.85 C 54.45 142.16 56.31 147.63 60.17 145.75 C 57.47 143.76 54.77 141.64 51.60 140.45 C 49.77 139.80 47.78 140.31 46.52 141.78 M 73.20 149.02 C 73.33 152.34 76.20 147.51 73.20 149.02 M 69.83 150.53 C 69.31 151.43 68.79 152.33 68.26 153.23 C 66.98 153.43 65.56 153.46 64.73 154.62 C 65.37 154.57 66.65 154.48 67.29 154.44 C 68.77 152.89 70.39 151.49 72.06 150.16 C 71.50 150.25 70.39 150.44 69.83 150.53 M 63.64 159.93 C 63.36 159.49 62.80 158.61 62.52 158.16 C 58.48 159.81 56.00 164.22 52.92 167.28 C 52.51 166.75 51.70 165.69 51.29 165.16 C 51.30 166.55 51.29 167.93 51.29 169.32 C 48.65 167.86 46.08 165.64 42.84 166.30 C 46.18 171.29 51.52 174.25 56.74 176.88 C 57.37 172.92 60.92 170.13 61.18 166.07 C 61.39 164.03 61.43 161.98 61.54 159.93 C 62.14 164.44 61.26 168.90 60.72 173.36 C 65.09 170.94 63.97 165.01 66.16 161.09 C 66.46 161.26 67.05 161.60 67.35 161.77 C 66.91 166.89 66.38 172.00 65.30 177.02 C 64.94 178.37 66.69 178.55 67.58 178.69 C 71.20 175.14 70.68 169.68 70.69 165.05 C 70.79 162.21 70.21 159.07 67.85 157.22 C 66.03 157.21 64.96 158.93 63.64 159.93 M 62.36 174.47 C 60.45 177.03 57.13 177.68 54.16 178.06 C 55.25 179.20 56.83 179.97 58.16 180.91 C 62.90 178.75 66.63 174.08 66.09 168.65 C 64.57 170.40 63.59 172.52 62.36 174.47 Z" />
<path fill="#52b9b8" opacity="1.00" d=" M 84.13 111.38 C 85.57 110.13 86.91 108.32 89.06 108.56 C 90.51 111.05 90.50 114.08 91.25 116.82 C 90.55 117.06 89.14 117.55 88.44 117.79 C 87.05 115.62 85.62 113.48 84.13 111.38 Z" />
<path fill="#52b9b8" opacity="1.00" d=" M 84.26 124.59 C 85.81 125.79 87.26 127.11 88.62 128.51 C 89.91 128.49 91.20 128.46 92.49 128.40 C 91.39 129.69 90.44 131.22 88.87 132.01 C 84.60 134.45 79.21 132.06 75.04 134.86 C 71.12 134.09 67.31 135.39 63.65 136.63 C 61.91 134.59 60.83 132.12 59.98 129.61 C 68.27 130.77 77.50 129.98 84.26 124.59 Z" />
<path fill="#52b9b8" opacity="1.00" d=" M 96.94 136.37 C 99.13 136.92 101.30 137.57 103.47 138.24 C 105.68 139.51 107.82 140.91 109.97 142.28 C 106.41 144.64 102.17 141.80 98.29 142.80 C 97.85 140.65 97.41 138.51 96.94 136.37 Z" />
<path fill="#52b9b8" opacity="1.00" d=" M 88.32 138.24 C 89.85 137.07 91.04 139.95 89.91 140.95 C 88.36 142.11 87.18 139.24 88.32 138.24 Z" />
<path fill="#52b9b8" opacity="1.00" d=" M 86.13 142.72 C 86.49 142.32 87.21 141.51 87.57 141.10 L 88.17 141.59 C 88.98 143.11 85.90 145.21 86.13 142.72 Z" />
<path fill="#52b9b8" opacity="1.00" d=" M 91.71 145.43 C 92.59 145.11 93.46 144.78 94.33 144.45 C 94.88 145.67 95.50 146.97 97.08 146.86 C 100.85 147.43 104.77 147.32 108.36 148.82 L 109.17 149.09 C 103.30 148.23 97.29 147.18 91.38 148.35 L 91.35 147.73 C 91.44 147.16 91.62 146.01 91.71 145.43 Z" />
<path fill="#52b9b8" opacity="1.00" d=" M 22.55 153.94 C 25.13 152.50 26.21 149.39 29.07 148.29 C 30.23 149.69 31.81 150.92 32.21 152.81 C 32.35 153.24 32.49 153.67 32.62 154.11 C 30.58 154.91 28.53 155.67 26.54 156.58 C 26.68 156.29 26.96 155.72 27.11 155.43 C 27.16 154.99 27.28 154.10 27.34 153.66 C 27.45 152.54 27.56 151.43 27.65 150.31 C 23.63 153.73 19.35 156.82 15.06 159.88 C 17.33 157.63 19.86 155.67 22.55 153.94 Z" />
<path fill="#52b9b8" opacity="1.00" d=" M 78.18 154.04 C 78.94 152.91 79.86 152.65 80.97 153.25 C 81.13 154.50 80.49 155.20 79.04 155.34 C 78.83 155.02 78.40 154.37 78.18 154.04 Z" />
<path fill="#52b9b8" opacity="1.00" d=" M 18.14 164.29 C 20.85 162.57 23.15 160.32 25.27 157.93 C 25.61 158.55 26.28 159.79 26.62 160.41 C 26.31 160.34 25.69 160.19 25.38 160.11 C 26.01 161.58 26.64 163.04 27.27 164.51 C 23.12 163.04 18.92 164.48 14.86 165.47 C 12.96 164.77 13.09 162.58 13.37 160.96 L 13.44 161.60 C 13.48 162.05 13.56 162.96 13.60 163.41 C 16.19 162.21 18.83 161.11 21.57 160.32 C 20.42 161.63 19.26 162.94 18.14 164.29 Z" />
<path fill="#52b9b8" opacity="1.00" d=" M 29.97 161.16 C 30.56 161.05 31.72 160.85 32.30 160.75 C 34.12 162.06 35.94 163.38 37.84 164.59 C 36.29 165.65 34.81 166.85 33.04 167.54 C 31.09 166.75 29.27 165.71 27.39 164.79 L 27.83 163.57 C 29.20 164.01 30.57 164.46 31.93 164.90 C 31.28 163.65 30.62 162.40 29.97 161.16 Z" />
<path fill="#52b9b8" opacity="1.00" d=" M 79.78 175.63 C 80.75 173.98 81.74 172.32 82.88 170.78 C 84.95 173.02 87.79 175.34 87.36 178.74 C 84.84 177.68 82.31 176.65 79.78 175.63 Z" />
<path fill="#52b9b8" opacity="1.00" d=" M 91.13 177.62 L 91.50 178.04 C 92.77 179.50 94.08 180.93 95.41 182.34 C 95.98 184.43 96.57 186.51 96.98 188.64 C 95.02 186.66 93.15 184.53 91.91 182.01 C 91.60 180.55 91.34 179.09 91.13 177.62 Z" />
</g>
<g id="#347574ff">
<path fill="#347574" opacity="1.00" d=" M 128.66 48.11 C 133.08 50.31 132.67 55.77 132.64 59.95 C 132.25 67.21 131.40 74.93 127.16 81.08 C 125.74 83.22 124.13 85.23 122.62 87.31 L 122.38 87.32 C 121.69 87.35 120.31 87.41 119.62 87.44 C 117.82 89.75 116.05 93.14 112.55 92.29 C 110.70 95.31 109.53 98.71 107.57 101.66 C 106.00 102.72 103.91 102.43 102.11 102.82 C 106.41 107.31 111.90 110.67 118.04 111.89 L 119.60 112.26 C 118.87 114.87 115.48 115.87 115.51 118.81 C 115.20 123.56 113.32 128.03 109.67 131.17 C 112.38 126.13 114.39 120.01 111.29 114.65 C 108.65 112.10 104.92 111.17 101.84 109.27 C 99.40 106.72 96.16 105.20 93.17 103.41 C 94.72 99.76 95.71 95.91 95.89 91.94 C 95.32 92.50 94.76 93.07 94.19 93.64 C 93.58 93.81 92.37 94.14 91.76 94.31 C 95.20 90.16 92.70 84.72 92.70 79.96 C 92.95 77.11 90.81 75.12 89.08 73.18 C 92.63 74.04 96.26 74.51 99.90 74.73 C 98.70 71.98 97.71 69.14 97.10 66.21 L 97.97 66.48 C 102.70 70.47 104.98 76.38 108.82 81.08 C 107.54 74.29 104.92 67.70 100.77 62.14 C 102.68 61.96 104.32 60.93 105.94 60.02 C 104.95 60.69 103.97 61.37 103.00 62.07 C 105.46 65.05 108.24 67.96 109.28 71.81 C 110.18 75.18 112.21 78.05 114.87 80.27 C 114.64 78.61 114.40 76.95 114.16 75.29 C 114.55 75.45 115.32 75.77 115.71 75.92 C 114.47 72.00 116.94 68.84 119.33 66.03 C 120.77 67.01 121.85 68.88 123.76 68.89 C 125.33 66.63 123.71 64.34 122.32 62.51 C 122.47 61.58 122.61 60.65 122.75 59.72 C 124.51 60.95 126.05 62.45 127.62 63.91 C 130.42 60.61 127.78 56.88 124.25 55.81 C 127.11 54.23 128.01 51.08 128.66 48.11 Z" />
<path fill="#347574" opacity="1.00" d=" M 109.54 105.08 C 110.92 101.36 112.58 97.21 116.13 95.05 C 116.67 99.89 115.36 104.65 115.05 109.46 C 112.53 109.14 110.16 107.69 109.54 105.08 Z" />
<path fill="#347574" opacity="1.00" d=" M 78.88 110.64 C 83.54 107.71 87.85 104.07 90.59 99.22 C 91.02 100.29 91.48 101.36 91.94 102.41 C 92.73 104.62 94.82 106.53 94.28 109.04 C 93.46 115.28 92.16 121.47 90.22 127.46 L 91.12 127.38 L 93.51 127.21 C 93.25 127.51 92.75 128.11 92.49 128.40 C 91.20 128.46 89.91 128.49 88.62 128.51 C 87.26 127.11 85.81 125.79 84.26 124.59 C 86.43 122.27 88.84 120.18 91.67 118.69 C 91.56 118.22 91.36 117.29 91.25 116.82 C 90.50 114.08 90.51 111.05 89.06 108.56 C 86.91 108.32 85.57 110.13 84.13 111.38 C 81.57 113.88 77.89 116.00 78.55 120.17 C 77.75 119.31 76.98 118.44 76.19 117.57 C 78.64 115.52 80.84 113.19 82.65 110.56 C 81.71 110.58 79.83 110.62 78.88 110.64 Z" />
<path fill="#347574" opacity="1.00" d=" M 41.32 105.27 C 42.50 103.61 43.40 101.77 44.38 100.00 C 44.84 101.77 45.29 103.55 45.76 105.32 C 45.34 105.62 44.93 105.94 44.54 106.28 C 42.34 108.24 39.81 110.16 38.73 113.00 C 38.69 115.25 39.11 117.47 39.39 119.70 C 38.56 119.58 36.91 119.34 36.08 119.21 C 34.58 119.17 33.41 118.16 32.24 117.37 C 33.13 115.25 33.96 113.09 35.02 111.05 C 36.23 108.27 39.77 107.78 41.32 105.27 Z" />
<path fill="#347574" opacity="1.00" d=" M 59.58 100.98 C 61.61 100.50 63.68 100.17 65.74 99.85 C 68.88 100.36 72.01 100.99 75.17 101.41 C 74.32 102.76 73.61 104.19 72.82 105.58 C 72.74 105.61 72.57 105.68 72.49 105.72 C 71.35 103.63 69.10 104.51 67.27 104.87 C 67.57 103.97 67.86 103.06 68.14 102.16 C 67.67 102.00 66.75 101.70 66.28 101.54 C 64.14 100.76 61.82 100.81 59.58 100.98 Z" />
<path fill="#347574" opacity="1.00" d=" M 48.69 126.13 C 49.40 121.58 48.04 115.57 52.47 112.59 C 52.85 115.46 53.79 118.25 55.41 120.67 C 53.77 123.36 53.05 126.44 54.61 129.37 C 52.70 128.18 50.75 127.04 48.69 126.13 Z" />
<path fill="#347574" opacity="1.00" d=" M 96.87 129.02 C 98.18 127.04 99.57 125.11 101.17 123.35 C 101.29 128.50 98.14 132.69 95.29 136.66 C 99.57 135.66 102.98 132.88 106.18 130.03 C 107.32 130.45 108.47 130.88 109.61 131.30 C 107.62 133.48 105.76 135.78 104.27 138.34 L 103.47 138.24 C 101.30 137.57 99.13 136.92 96.94 136.37 C 94.55 138.23 92.79 140.72 91.08 143.18 C 91.24 143.74 91.55 144.87 91.71 145.43 C 91.62 146.01 91.44 147.16 91.35 147.73 C 90.63 145.87 89.87 144.02 88.94 142.26 L 88.17 141.59 L 87.57 141.10 C 85.87 139.89 84.27 137.77 81.91 138.44 C 79.31 139.51 77.46 141.79 75.75 143.94 C 75.74 144.41 75.71 145.37 75.70 145.85 C 74.89 146.51 74.07 147.17 73.23 147.81 C 69.73 147.43 67.35 145.02 65.55 142.21 C 62.79 137.14 58.79 132.83 54.08 129.50 L 54.61 129.37 C 56.40 129.35 58.20 129.45 59.98 129.61 C 60.83 132.12 61.91 134.59 63.65 136.63 C 73.96 138.88 84.68 136.53 94.04 132.03 C 94.54 130.01 94.60 127.91 94.90 125.86 C 95.11 125.65 95.51 125.23 95.72 125.02 C 96.10 126.35 96.48 127.69 96.87 129.02 M 88.32 138.24 C 87.18 139.24 88.36 142.11 89.91 140.95 C 91.04 139.95 89.85 137.07 88.32 138.24 Z" />
<path fill="#347574" opacity="1.00" d=" M 42.62 131.04 C 43.28 129.61 43.98 128.20 44.61 126.76 C 44.51 127.40 44.32 128.69 44.22 129.33 C 46.52 129.59 49.10 129.40 51.01 130.97 C 54.66 133.64 58.33 137.29 58.62 142.08 C 56.55 139.86 54.82 137.37 52.92 135.02 C 51.02 132.40 47.58 132.04 44.74 131.02 C 44.18 131.21 43.06 131.59 42.50 131.78 C 42.53 131.60 42.59 131.22 42.62 131.04 Z" />
<path fill="#347574" opacity="1.00" d=" M 109.05 137.70 C 111.37 136.90 113.38 134.99 115.94 135.07 C 117.34 135.21 117.57 136.85 118.27 137.78 C 115.43 141.83 112.49 145.98 108.36 148.82 C 104.77 147.32 100.85 147.43 97.08 146.86 C 95.50 146.97 94.88 145.67 94.33 144.45 C 95.65 143.89 96.96 143.34 98.29 142.80 C 102.17 141.80 106.41 144.64 109.97 142.28 C 111.99 140.85 114.00 139.35 115.57 137.42 C 115.39 137.11 115.02 136.51 114.83 136.20 C 112.83 135.39 110.95 137.22 109.05 137.70 Z" />
<path fill="#347574" opacity="1.00" d=" M 35.91 141.37 C 37.79 140.03 39.80 138.70 42.12 138.31 C 44.86 139.77 45.63 143.06 46.43 145.80 C 45.07 143.99 43.85 142.09 42.72 140.13 C 41.31 141.22 39.79 142.20 38.57 143.50 C 37.75 145.84 37.63 148.34 37.11 150.74 L 35.66 151.13 C 35.48 147.88 35.48 144.61 35.91 141.37 Z" />
<path fill="#347574" opacity="1.00" d=" M 46.52 141.78 C 47.78 140.31 49.77 139.80 51.60 140.45 C 54.77 141.64 57.47 143.76 60.17 145.75 C 56.31 147.63 54.45 142.16 50.78 141.85 C 52.01 143.14 53.32 144.35 54.65 145.54 C 54.46 145.89 54.08 146.59 53.89 146.95 C 50.60 146.59 47.78 144.95 46.52 141.78 Z" />
<path fill="#347574" opacity="1.00" d=" M 42.43 147.45 C 43.29 147.23 45.02 146.78 45.88 146.55 C 49.02 149.03 52.87 149.99 56.79 149.04 C 55.83 150.04 54.89 151.08 53.83 151.99 C 51.33 153.38 48.51 152.21 46.03 151.42 C 42.48 148.77 41.05 154.90 40.26 157.22 C 41.80 155.92 43.28 154.55 44.61 153.04 C 45.51 153.49 46.40 153.95 47.29 154.44 C 49.39 155.78 50.96 159.06 53.85 158.28 C 56.24 156.91 58.14 154.87 60.35 153.24 C 61.52 154.16 62.68 155.08 63.79 156.08 C 61.45 157.02 58.85 156.77 56.44 157.41 C 54.33 158.61 54.35 161.37 53.63 163.42 C 50.77 161.36 47.46 160.06 44.00 159.39 C 43.92 160.20 43.76 161.83 43.68 162.65 C 42.31 162.91 40.93 163.15 39.58 163.49 C 39.32 163.65 38.81 163.98 38.55 164.14 C 38.37 164.25 38.01 164.48 37.84 164.59 C 35.94 163.38 34.12 162.06 32.30 160.75 C 34.45 159.46 36.72 158.26 38.47 156.44 C 40.07 154.03 40.76 151.17 41.74 148.48 C 42.28 148.39 43.36 148.20 43.90 148.11 C 43.54 147.95 42.80 147.62 42.43 147.45 Z" />
<path fill="#347574" opacity="1.00" d=" M 91.38 148.35 C 97.29 147.18 103.30 148.23 109.17 149.09 C 106.37 151.51 102.81 150.09 100.11 148.38 C 96.35 147.81 92.71 149.24 89.00 149.61 C 89.08 150.90 89.16 152.18 89.25 153.47 C 90.18 153.82 91.12 154.17 92.06 154.53 C 90.47 154.48 88.87 154.50 87.28 154.60 C 87.34 153.01 87.39 151.43 87.45 149.85 C 88.76 149.34 90.06 148.82 91.38 148.35 Z" />
<path fill="#347574" opacity="1.00" d=" M 63.64 159.93 C 64.96 158.93 66.03 157.21 67.85 157.22 C 70.21 159.07 70.79 162.21 70.69 165.05 C 70.68 169.68 71.20 175.14 67.58 178.69 C 66.69 178.55 64.94 178.37 65.30 177.02 C 66.38 172.00 66.91 166.89 67.35 161.77 C 67.05 161.60 66.46 161.26 66.16 161.09 C 63.97 165.01 65.09 170.94 60.72 173.36 C 61.26 168.90 62.14 164.44 61.54 159.93 C 61.43 161.98 61.39 164.03 61.18 166.07 C 60.92 170.13 57.37 172.92 56.74 176.88 C 51.52 174.25 46.18 171.29 42.84 166.30 C 46.08 165.64 48.65 167.86 51.29 169.32 C 51.29 167.93 51.30 166.55 51.29 165.16 C 51.70 165.69 52.51 166.75 52.92 167.28 C 56.00 164.22 58.48 159.81 62.52 158.16 C 62.80 158.61 63.36 159.49 63.64 159.93 Z" />
<path fill="#347574" opacity="1.00" d=" M 25.38 160.11 C 25.69 160.19 26.31 160.34 26.62 160.41 C 27.73 160.68 28.85 160.93 29.97 161.16 C 30.62 162.40 31.28 163.65 31.93 164.90 C 30.57 164.46 29.20 164.01 27.83 163.57 L 27.39 164.79 L 27.27 164.51 C 26.64 163.04 26.01 161.58 25.38 160.11 Z" />
<path fill="#347574" opacity="1.00" d=" M 84.22 163.96 C 83.74 161.63 86.88 162.02 88.06 162.96 C 89.85 164.83 89.59 167.73 90.17 170.09 C 90.51 170.14 91.19 170.23 91.53 170.28 C 92.00 170.36 92.94 170.54 93.40 170.63 C 94.06 171.23 94.73 171.81 95.42 172.38 C 93.57 173.56 90.78 174.99 91.13 177.62 C 91.34 179.09 91.60 180.55 91.91 182.01 C 91.01 181.72 90.12 181.43 89.23 181.12 C 88.74 180.87 87.77 180.37 87.28 180.12 L 87.36 178.74 C 87.79 175.34 84.95 173.02 82.88 170.78 L 83.33 170.47 C 84.52 169.79 85.71 169.12 86.89 168.45 C 85.95 166.99 84.74 165.64 84.22 163.96 Z" />
<path fill="#347574" opacity="1.00" d=" M 62.36 174.47 C 63.59 172.52 64.57 170.40 66.09 168.65 C 66.63 174.08 62.90 178.75 58.16 180.91 C 56.83 179.97 55.25 179.20 54.16 178.06 C 57.13 177.68 60.45 177.03 62.36 174.47 Z" />
</g>
<g id="#4a4b2aff">
<path fill="#4a4b2a" opacity="1.00" d=" M 121.51 55.63 C 122.19 55.67 123.57 55.77 124.25 55.81 C 127.78 56.88 130.42 60.61 127.62 63.91 C 126.05 62.45 124.51 60.95 122.75 59.72 C 121.50 58.91 120.23 58.14 118.95 57.37 C 119.80 56.79 120.65 56.21 121.51 55.63 Z" />
<path fill="#4a4b2a" opacity="1.00" d=" M 29.09 59.31 C 31.40 58.47 33.88 58.47 36.30 58.59 C 34.94 59.96 33.62 61.37 32.28 62.76 C 32.94 63.40 33.61 64.04 34.27 64.68 C 35.69 64.17 37.10 63.66 38.52 63.16 C 38.58 63.82 38.69 65.13 38.74 65.79 C 36.09 67.85 32.98 69.72 31.84 73.09 C 31.45 70.74 31.46 68.33 32.22 66.05 C 32.13 65.20 31.93 63.49 31.83 62.64 C 30.74 63.99 29.72 65.40 28.65 66.77 C 28.56 66.48 28.37 65.90 28.27 65.61 C 27.54 63.59 27.24 60.84 29.09 59.31 Z" />
<path fill="#4a4b2a" opacity="1.00" d=" M 114.78 60.48 C 117.41 60.65 120.01 61.21 122.32 62.51 C 123.71 64.34 125.33 66.63 123.76 68.89 C 121.85 68.88 120.77 67.01 119.33 66.03 C 117.72 64.88 116.00 63.91 114.27 62.96 C 114.40 62.34 114.66 61.10 114.78 60.48 Z" />
<path fill="#4a4b2a" opacity="1.00" d=" M 76.72 100.56 C 79.63 96.51 80.57 91.35 83.95 87.61 C 84.83 92.88 81.63 98.85 84.87 103.58 C 87.00 100.38 88.60 96.68 91.76 94.31 C 92.37 94.14 93.58 93.81 94.19 93.64 C 93.40 96.55 92.63 99.47 91.94 102.41 C 91.48 101.36 91.02 100.29 90.59 99.22 C 87.85 104.07 83.54 107.71 78.88 110.64 C 75.41 112.50 71.74 114.13 67.75 114.41 C 70.53 112.05 73.42 109.82 76.22 107.49 C 76.35 106.37 76.48 105.26 76.60 104.15 C 75.33 104.61 74.07 105.08 72.82 105.58 C 73.61 104.19 74.32 102.76 75.17 101.41 C 75.55 101.20 76.33 100.78 76.72 100.56 Z" />
<path fill="#4a4b2a" opacity="1.00" d=" M 47.73 104.62 C 51.66 103.34 55.59 102.03 59.58 100.98 C 61.82 100.81 64.14 100.76 66.28 101.54 C 63.94 103.13 62.58 105.63 61.36 108.10 C 60.39 109.85 59.31 111.53 58.32 113.26 C 57.31 115.06 56.40 116.91 55.43 118.72 C 55.10 114.01 55.51 109.22 57.68 104.96 C 55.99 105.24 54.31 105.51 52.62 105.79 C 52.57 108.05 52.49 110.32 52.47 112.59 C 48.04 115.57 49.40 121.58 48.69 126.13 C 47.44 125.80 46.18 125.49 44.91 125.20 L 44.61 126.76 C 43.98 128.20 43.28 129.61 42.62 131.04 C 42.84 128.54 43.14 126.06 43.43 123.57 C 44.95 117.60 48.02 112.23 50.10 106.47 C 49.31 106.41 47.73 106.29 46.94 106.23 L 47.73 104.62 Z" />
<path fill="#4a4b2a" opacity="1.00" d=" M 38.73 113.00 C 39.81 110.16 42.34 108.24 44.54 106.28 C 42.69 111.41 42.23 116.88 40.96 122.16 L 40.74 123.16 C 40.31 120.64 38.36 119.53 36.08 119.21 C 36.91 119.34 38.56 119.58 39.39 119.70 C 39.11 117.47 38.69 115.25 38.73 113.00 Z" />
<path fill="#4a4b2a" opacity="1.00" d=" M 95.33 106.63 C 97.49 107.54 99.67 108.39 101.84 109.27 C 104.92 111.17 108.65 112.10 111.29 114.65 C 114.39 120.01 112.38 126.13 109.67 131.17 L 109.61 131.30 C 108.47 130.88 107.32 130.45 106.18 130.03 C 102.98 132.88 99.57 135.66 95.29 136.66 C 98.14 132.69 101.29 128.50 101.17 123.35 C 99.57 125.11 98.18 127.04 96.87 129.02 C 96.48 127.69 96.10 126.35 95.72 125.02 C 95.51 125.23 95.11 125.65 94.90 125.86 C 94.55 126.20 93.86 126.88 93.51 127.21 L 91.12 127.38 C 94.25 120.93 95.85 113.81 95.33 106.63 Z" />
<path fill="#4a4b2a" opacity="1.00" d=" M 71.82 153.71 C 73.82 153.32 75.82 152.94 77.81 152.55 L 78.18 154.04 C 78.40 154.37 78.83 155.02 79.04 155.34 C 81.54 157.58 84.58 155.00 87.28 154.60 C 88.87 154.50 90.47 154.48 92.06 154.53 C 93.24 155.96 92.53 158.19 93.86 159.60 C 96.54 163.04 98.11 167.69 96.64 171.98 C 95.77 171.28 94.92 170.58 94.07 169.88 C 93.23 170.02 92.38 170.15 91.53 170.28 C 91.19 170.23 90.51 170.14 90.17 170.09 C 89.59 167.73 89.85 164.83 88.06 162.96 C 86.88 162.02 83.74 161.63 84.22 163.96 C 84.74 165.64 85.95 166.99 86.89 168.45 C 85.71 169.12 84.52 169.79 83.33 170.47 C 81.78 170.27 80.23 170.03 78.69 169.76 C 78.43 170.13 77.91 170.88 77.64 171.25 C 77.50 171.45 77.21 171.85 77.07 172.04 C 76.94 174.65 76.74 177.31 75.80 179.78 C 75.43 181.69 73.06 181.02 71.73 181.31 C 77.63 173.02 74.34 162.57 71.82 153.71 Z" />
<path fill="#4a4b2a" opacity="1.00" d=" M 91.50 178.04 C 100.05 178.50 109.23 179.49 116.39 184.62 C 119.70 186.60 118.19 190.90 118.45 194.06 C 118.10 194.56 117.40 195.56 117.05 196.07 C 116.91 194.22 116.77 192.37 116.65 190.53 C 110.56 193.02 103.86 191.67 97.48 192.51 C 97.33 191.21 97.18 189.92 96.98 188.64 C 96.57 186.51 95.98 184.43 95.41 182.34 C 94.08 180.93 92.77 179.50 91.50 178.04 Z" />
<path fill="#4a4b2a" opacity="1.00" d=" M 37.68 185.94 C 41.50 182.28 46.81 180.17 52.03 179.72 C 56.30 183.09 61.67 185.57 67.22 184.48 C 69.10 185.06 70.97 185.65 72.85 186.21 C 71.16 186.98 69.37 187.62 67.85 188.73 C 67.20 190.24 67.04 191.89 66.73 193.49 C 57.45 191.98 47.67 191.52 39.41 186.51 C 37.68 189.76 39.96 193.35 39.59 196.80 C 35.85 194.57 36.39 189.43 37.68 185.94 Z" />
<path fill="#4a4b2a" opacity="1.00" d=" M 50.01 194.44 C 56.68 194.20 63.34 194.74 69.96 195.42 C 71.67 195.73 73.26 195.04 74.81 194.44 C 74.74 194.97 74.60 196.02 74.53 196.54 C 66.31 197.07 57.91 197.11 50.01 194.44 Z" />
</g>
<g id="#82e4e6ff">
<path fill="#82e4e6" opacity="1.00" d=" M 36.30 58.59 C 39.84 56.43 45.28 57.25 46.56 61.64 C 46.76 64.56 46.67 67.60 48.51 70.09 C 48.18 71.38 47.85 72.66 47.52 73.94 C 49.62 74.34 51.79 74.47 53.83 73.67 C 58.74 72.05 63.97 72.39 69.03 72.76 C 71.51 73.04 74.19 73.27 76.24 74.83 C 77.21 79.13 75.92 83.62 76.92 87.91 C 77.74 89.42 78.84 90.75 79.87 92.12 C 73.08 94.76 65.51 94.33 58.86 97.45 C 62.39 97.45 65.95 97.59 69.37 98.54 C 68.17 99.00 66.96 99.44 65.74 99.85 C 63.68 100.17 61.61 100.50 59.58 100.98 C 55.59 102.03 51.66 103.34 47.73 104.62 C 47.24 104.79 46.25 105.14 45.76 105.32 C 45.29 103.55 44.84 101.77 44.38 100.00 C 43.40 101.77 42.50 103.61 41.32 105.27 C 39.77 107.78 36.23 108.27 35.02 111.05 C 33.96 113.09 33.13 115.25 32.24 117.37 C 31.69 116.16 31.10 114.97 30.48 113.80 C 32.52 110.09 35.87 107.37 38.22 103.88 C 40.44 98.20 39.50 92.00 39.77 86.06 C 39.05 87.73 38.33 89.41 37.60 91.08 C 37.17 88.57 36.34 86.05 36.54 83.48 C 38.23 79.32 40.55 75.40 41.81 71.05 C 39.92 73.33 38.16 75.71 36.44 78.12 C 34.83 76.51 33.24 74.89 31.84 73.09 C 32.98 69.72 36.09 67.85 38.74 65.79 C 38.69 65.13 38.58 63.82 38.52 63.16 C 37.10 63.66 35.69 64.17 34.27 64.68 C 33.61 64.04 32.94 63.40 32.28 62.76 C 33.62 61.37 34.94 59.96 36.30 58.59 Z" />
<path fill="#82e4e6" opacity="1.00" d=" M 97.97 66.48 C 98.84 65.00 99.34 63.20 100.77 62.14 C 104.92 67.70 107.54 74.29 108.82 81.08 C 104.98 76.38 102.70 70.47 97.97 66.48 Z" />
<path fill="#82e4e6" opacity="1.00" d=" M 61.36 108.10 C 62.58 105.63 63.94 103.13 66.28 101.54 C 66.75 101.70 67.67 102.00 68.14 102.16 C 67.86 103.06 67.57 103.97 67.27 104.87 C 65.77 106.70 63.65 107.68 61.36 108.10 Z" />
<path fill="#82e4e6" opacity="1.00" d=" M 52.62 105.79 C 54.31 105.51 55.99 105.24 57.68 104.96 C 55.51 109.22 55.10 114.01 55.43 118.72 C 56.40 116.91 57.31 115.06 58.32 113.26 C 61.53 115.14 64.92 117.12 66.55 120.65 C 65.37 121.33 64.19 122.01 63.01 122.69 C 63.80 122.75 64.60 122.80 65.39 122.86 C 67.32 120.08 71.03 117.87 74.35 119.69 C 75.46 121.96 73.13 123.98 71.00 124.14 C 65.81 124.91 60.32 127.65 55.30 124.77 C 55.64 123.90 55.96 123.02 56.28 122.14 C 56.06 121.77 55.63 121.04 55.41 120.67 C 53.79 118.25 52.85 115.46 52.47 112.59 C 52.49 110.32 52.57 108.05 52.62 105.79 Z" />
<path fill="#82e4e6" opacity="1.00" d=" M 43.43 123.57 C 42.97 117.57 44.53 111.67 46.94 106.23 C 47.73 106.29 49.31 106.41 50.10 106.47 C 48.02 112.23 44.95 117.60 43.43 123.57 Z" />
<path fill="#82e4e6" opacity="1.00" d=" M 78.55 120.17 C 77.89 116.00 81.57 113.88 84.13 111.38 C 85.62 113.48 87.05 115.62 88.44 117.79 C 85.23 118.91 81.95 119.89 78.55 120.17 Z" />
<path fill="#82e4e6" opacity="1.00" d=" M 59.60 136.31 C 57.75 134.05 55.24 132.25 54.08 129.50 C 58.79 132.83 62.79 137.14 65.55 142.21 C 63.35 140.47 61.39 138.46 59.60 136.31 Z" />
<path fill="#82e4e6" opacity="1.00" d=" M 33.23 136.15 C 34.09 137.91 34.98 139.65 35.91 141.37 C 35.48 144.61 35.48 147.88 35.66 151.13 L 37.11 150.74 C 37.49 150.64 38.24 150.43 38.62 150.33 C 39.90 149.39 40.97 148.11 42.43 147.45 C 42.80 147.62 43.54 147.95 43.90 148.11 C 43.36 148.20 42.28 148.39 41.74 148.48 C 40.76 151.17 40.07 154.03 38.47 156.44 C 36.72 158.26 34.45 159.46 32.30 160.75 C 31.72 160.85 30.56 161.05 29.97 161.16 C 28.85 160.93 27.73 160.68 26.62 160.41 C 26.28 159.79 25.61 158.55 25.27 157.93 C 25.59 157.59 26.22 156.92 26.54 156.58 C 28.53 155.67 30.58 154.91 32.62 154.11 C 32.49 153.67 32.35 153.24 32.21 152.81 C 32.77 152.72 33.89 152.54 34.45 152.45 C 33.95 150.06 33.24 147.69 33.04 145.25 C 33.20 142.21 33.33 139.18 33.23 136.15 Z" />
<path fill="#82e4e6" opacity="1.00" d=" M 109.05 137.70 C 110.95 137.22 112.83 135.39 114.83 136.20 C 115.02 136.51 115.39 137.11 115.57 137.42 C 114.00 139.35 111.99 140.85 109.97 142.28 C 107.82 140.91 105.68 139.51 103.47 138.24 L 104.27 138.34 C 105.92 138.60 107.51 138.39 109.05 137.70 Z" />
<path fill="#82e4e6" opacity="1.00" d=" M 91.08 143.18 C 92.79 140.72 94.55 138.23 96.94 136.37 C 97.41 138.51 97.85 140.65 98.29 142.80 C 96.96 143.34 95.65 143.89 94.33 144.45 C 93.46 144.78 92.59 145.11 91.71 145.43 C 91.55 144.87 91.24 143.74 91.08 143.18 Z" />
<path fill="#82e4e6" opacity="1.00" d=" M 77.70 142.71 C 80.82 143.68 81.02 147.31 81.27 150.04 C 80.93 151.62 78.95 151.75 77.79 152.45 L 77.49 151.18 C 77.41 148.35 77.55 145.53 77.70 142.71 Z" />
<path fill="#82e4e6" opacity="1.00" d=" M 55.16 152.37 C 57.45 150.10 59.64 147.72 62.07 145.58 C 64.24 147.01 66.51 148.28 68.84 149.46 C 67.53 150.20 66.23 150.95 64.78 151.38 C 63.61 151.48 62.53 151.83 61.55 152.42 C 61.25 152.63 60.65 153.04 60.35 153.24 C 58.14 154.87 56.24 156.91 53.85 158.28 C 50.96 159.06 49.39 155.78 47.29 154.44 C 49.89 153.76 52.84 153.87 55.16 152.37 Z" />
<path fill="#82e4e6" opacity="1.00" d=" M 73.20 149.02 C 76.20 147.51 73.33 152.34 73.20 149.02 Z" />
<path fill="#82e4e6" opacity="1.00" d=" M 40.26 157.22 C 41.05 154.90 42.48 148.77 46.03 151.42 C 45.67 151.82 44.96 152.63 44.61 153.04 C 43.28 154.55 41.80 155.92 40.26 157.22 Z" />
<path fill="#82e4e6" opacity="1.00" d=" M 15.06 159.88 C 19.35 156.82 23.63 153.73 27.65 150.31 C 27.56 151.43 27.45 152.54 27.34 153.66 C 25.38 155.85 23.52 158.12 21.57 160.32 C 18.83 161.11 16.19 162.21 13.60 163.41 C 13.56 162.96 13.48 162.05 13.44 161.60 C 13.84 161.17 14.66 160.31 15.06 159.88 Z" />
<path fill="#82e4e6" opacity="1.00" d=" M 87.28 180.12 C 87.77 180.37 88.74 180.87 89.23 181.12 C 89.58 184.33 86.18 182.29 87.28 180.12 Z" />
<path fill="#82e4e6" opacity="1.00" d=" M 81.88 191.92 C 81.97 191.37 82.16 190.26 82.26 189.70 C 82.79 189.88 83.87 190.23 84.40 190.40 C 86.27 191.95 82.90 192.68 81.88 191.92 Z" />
<path fill="#82e4e6" opacity="1.00" d=" M 91.96 190.28 C 95.28 190.71 90.16 193.10 91.96 190.28 Z" />
<path fill="#82e4e6" opacity="1.00" d=" M 95.17 190.26 C 95.69 190.75 95.69 190.75 95.17 190.26 Z" />
<path fill="#82e4e6" opacity="1.00" d=" M 88.38 191.30 C 88.89 191.79 88.89 191.79 88.38 191.30 Z" />
</g>
<g id="#02cdc6ff">
<path fill="#02cdc6" opacity="1.00" d=" M 67.27 104.87 C 69.10 104.51 71.35 103.63 72.49 105.72 C 70.47 108.53 68.59 111.45 66.97 114.52 L 67.75 114.41 C 71.74 114.13 75.41 112.50 78.88 110.64 C 79.83 110.62 81.71 110.58 82.65 110.56 C 80.84 113.19 78.64 115.52 76.19 117.57 C 76.98 118.44 77.75 119.31 78.55 120.17 C 81.95 119.89 85.23 118.91 88.44 117.79 C 89.14 117.55 90.55 117.06 91.25 116.82 C 91.36 117.29 91.56 118.22 91.67 118.69 C 88.84 120.18 86.43 122.27 84.26 124.59 C 77.50 129.98 68.27 130.77 59.98 129.61 C 58.20 129.45 56.40 129.35 54.61 129.37 C 53.05 126.44 53.77 123.36 55.41 120.67 C 55.63 121.04 56.06 121.77 56.28 122.14 C 55.96 123.02 55.64 123.90 55.30 124.77 C 60.32 127.65 65.81 124.91 71.00 124.14 C 73.13 123.98 75.46 121.96 74.35 119.69 C 71.03 117.87 67.32 120.08 65.39 122.86 C 64.60 122.80 63.80 122.75 63.01 122.69 C 64.19 122.01 65.37 121.33 66.55 120.65 C 64.92 117.12 61.53 115.14 58.32 113.26 C 59.31 111.53 60.39 109.85 61.36 108.10 C 63.65 107.68 65.77 106.70 67.27 104.87 Z" />
<path fill="#02cdc6" opacity="1.00" d=" M 93.51 127.21 C 93.86 126.88 94.55 126.20 94.90 125.86 C 94.60 127.91 94.54 130.01 94.04 132.03 C 84.68 136.53 73.96 138.88 63.65 136.63 C 67.31 135.39 71.12 134.09 75.04 134.86 C 79.21 132.06 84.60 134.45 88.87 132.01 C 90.44 131.22 91.39 129.69 92.49 128.40 C 92.75 128.11 93.25 127.51 93.51 127.21 Z" />
<path fill="#02cdc6" opacity="1.00" d=" M 75.75 143.94 C 77.46 141.79 79.31 139.51 81.91 138.44 C 84.27 137.77 85.87 139.89 87.57 141.10 C 87.21 141.51 86.49 142.32 86.13 142.72 C 85.90 145.21 88.98 143.11 88.17 141.59 L 88.94 142.26 C 89.87 144.02 90.63 145.87 91.35 147.73 L 91.38 148.35 C 90.06 148.82 88.76 149.34 87.45 149.85 C 87.39 151.43 87.34 153.01 87.28 154.60 C 84.58 155.00 81.54 157.58 79.04 155.34 C 80.49 155.20 81.13 154.50 80.97 153.25 C 79.86 152.65 78.94 152.91 78.18 154.04 L 77.81 152.55 L 77.79 152.45 C 78.95 151.75 80.93 151.62 81.27 150.04 C 81.02 147.31 80.82 143.68 77.70 142.71 C 77.55 145.53 77.41 148.35 77.49 151.18 C 76.95 149.38 76.29 147.62 75.70 145.85 C 75.71 145.37 75.74 144.41 75.75 143.94 Z" />
<path fill="#02cdc6" opacity="1.00" d=" M 77.64 171.25 C 77.91 170.88 78.43 170.13 78.69 169.76 C 80.23 170.03 81.78 170.27 83.33 170.47 L 82.88 170.78 C 81.74 172.32 80.75 173.98 79.78 175.63 C 82.31 176.65 84.84 177.68 87.36 178.74 L 87.28 180.12 C 86.18 182.29 89.58 184.33 89.23 181.12 C 90.12 181.43 91.01 181.72 91.91 182.01 C 93.15 184.53 95.02 186.66 96.98 188.64 C 97.18 189.92 97.33 191.21 97.48 192.51 C 92.35 192.58 87.26 193.66 82.13 193.20 L 81.88 191.92 C 82.90 192.68 86.27 191.95 84.40 190.40 C 83.87 190.23 82.79 189.88 82.26 189.70 C 82.98 187.47 84.77 186.05 86.74 184.95 C 86.24 182.96 85.72 180.97 85.17 178.99 C 84.58 179.25 83.40 179.75 82.80 180.01 C 82.39 179.59 81.56 178.74 81.15 178.31 C 80.50 178.40 79.20 178.57 78.55 178.65 C 78.05 176.21 77.49 173.76 77.64 171.25 M 91.96 190.28 C 90.16 193.10 95.28 190.71 91.96 190.28 M 95.17 190.26 C 95.69 190.75 95.69 190.75 95.17 190.26 M 88.38 191.30 C 88.89 191.79 88.89 191.79 88.38 191.30 Z" />
</g>
<g id="#121412ff">
<path fill="#121412" opacity="1.00" d=" M 69.83 150.53 C 70.39 150.44 71.50 150.25 72.06 150.16 C 70.39 151.49 68.77 152.89 67.29 154.44 C 66.65 154.48 65.37 154.57 64.73 154.62 C 65.56 153.46 66.98 153.43 68.26 153.23 C 68.79 152.33 69.31 151.43 69.83 150.53 Z" />
<path fill="#121412" opacity="1.00" d=" M 61.55 152.42 C 62.53 151.83 63.61 151.48 64.78 151.38 C 64.74 151.92 64.65 153.00 64.60 153.54 C 63.56 154.32 61.60 153.93 61.55 152.42 Z" />
<path fill="#121412" opacity="1.00" d=" M 21.57 160.32 C 23.52 158.12 25.38 155.85 27.34 153.66 C 27.28 154.10 27.16 154.99 27.11 155.43 C 26.96 155.72 26.68 156.29 26.54 156.58 C 26.22 156.92 25.59 157.59 25.27 157.93 C 23.15 160.32 20.85 162.57 18.14 164.29 C 19.26 162.94 20.42 161.63 21.57 160.32 Z" />
<path fill="#121412" opacity="1.00" d=" M 77.07 172.04 C 77.21 171.85 77.50 171.45 77.64 171.25 C 77.49 173.76 78.05 176.21 78.55 178.65 C 79.20 178.57 80.50 178.40 81.15 178.31 C 81.56 178.74 82.39 179.59 82.80 180.01 C 83.40 179.75 84.58 179.25 85.17 178.99 C 85.72 180.97 86.24 182.96 86.74 184.95 C 84.77 186.05 82.98 187.47 82.26 189.70 C 82.16 190.26 81.97 191.37 81.88 191.92 L 82.13 193.20 C 87.26 193.66 92.35 192.58 97.48 192.51 C 103.86 191.67 110.56 193.02 116.65 190.53 C 116.77 192.37 116.91 194.22 117.05 196.07 C 105.56 202.57 91.79 202.29 78.99 203.13 C 65.74 202.68 51.89 202.54 39.60 196.95 L 39.59 196.80 C 39.96 193.35 37.68 189.76 39.41 186.51 C 47.67 191.52 57.45 191.98 66.73 193.49 C 67.04 191.89 67.20 190.24 67.85 188.73 C 69.37 187.62 71.16 186.98 72.85 186.21 C 70.97 185.65 69.10 185.06 67.22 184.48 C 68.76 183.47 70.27 182.42 71.73 181.31 C 73.06 181.02 75.43 181.69 75.80 179.78 C 76.74 177.31 76.94 174.65 77.07 172.04 M 50.01 194.44 C 57.91 197.11 66.31 197.07 74.53 196.54 C 74.60 196.02 74.74 194.97 74.81 194.44 C 73.26 195.04 71.67 195.73 69.96 195.42 C 63.34 194.74 56.68 194.20 50.01 194.44 Z" />
</g>
</svg>
